<svg width="25" height="25" viewBox="0 0 25 25" fill="none" xmlns="http://www.w3.org/2000/svg">
<g id="arrow-down-right">
<path id="Vector" d="M17.5002 6.06806C17.235 6.06806 16.9806 6.17341 16.7931 6.36095C16.6055 6.54849 16.5002 6.80284 16.5002 7.06806V14.6581L8.21019 6.35806C8.02188 6.16975 7.76649 6.06396 7.50019 6.06396C7.23388 6.06396 6.97849 6.16975 6.79019 6.35806C6.60188 6.54636 6.49609 6.80175 6.49609 7.06806C6.49609 7.33436 6.60188 7.58975 6.79019 7.77806L15.0902 16.0681H7.50019C7.23497 16.0681 6.98062 16.1734 6.79308 16.3609C6.60554 16.5485 6.50019 16.8028 6.50019 17.0681C6.50019 17.3333 6.60554 17.5876 6.79308 17.7752C6.98062 17.9627 7.23497 18.0681 7.50019 18.0681H17.5002C17.6309 18.0665 17.76 18.0393 17.8802 17.9881C18.1245 17.8866 18.3187 17.6924 18.4202 17.4481C18.4714 17.3278 18.4986 17.1987 18.5002 17.0681V7.06806C18.5002 6.80284 18.3948 6.54849 18.2073 6.36095C18.0198 6.17341 17.7654 6.06806 17.5002 6.06806Z" fill="white"/>
</g>
</svg>
