<svg width="1260" height="705" viewBox="0 0 1260 705" fill="none" xmlns="http://www.w3.org/2000/svg">
<path d="M364.255 33.0226H485.676C486.386 33.0226 487.096 32.6678 487.806 31.9577C487.806 31.2477 487.45 30.5375 486.74 29.8274L471.829 18.1113C471.829 18.1113 471.474 18.1113 470.764 18.1113H379.167C378.457 18.1113 378.102 18.1113 378.102 18.1113L362.125 29.8274C362.125 30.5375 362.125 31.2477 362.125 31.9577C362.125 32.6678 362.835 33.0226 364.255 33.0226Z" fill="#40F4FF"/>
<path d="M480.355 672.071H300.354L311.005 663.551H469.704H475.029H554.911L565.562 672.071H485.68L500.591 682.722H642.248L652.899 672.071H571.952L557.041 660.355C557.041 659.645 556.686 659.29 555.976 659.29H470.768H465.443H309.94C309.94 659.29 309.586 659.645 308.876 660.355L293.964 672.071H246.035H215.147H195.976H170.414H151.242H39.4077L3.19513 635.858C2.48508 635.148 1.77489 634.793 1.06483 634.793C0.354769 635.503 0 636.213 0 636.923V673.136C0 674.201 1.06457 675.267 2.12966 675.267H38.3429H155.503L185.325 698.699H204.496L174.674 675.267H200.236L230.059 698.699H249.23L219.408 675.267H244.97L274.793 698.699C274.793 698.699 275.147 698.699 275.857 698.699H514.438L480.355 672.071Z" fill="#40F4FF"/>
<path d="M1255.73 660.355H1073.6C1072.89 660.355 1072.53 660.355 1072.53 660.355L1057.62 672.071L1021.41 700.829H727.444L690.166 672.071C690.166 672.071 689.81 672.071 689.1 672.071H658.213L644.367 685.918C643.657 685.918 643.301 686.273 643.301 686.983H504.84L519.751 698.699H718.923L725.313 704.024C725.313 704.024 725.668 704.024 726.378 704.024H1021.41C1022.12 704.024 1022.47 704.024 1022.47 704.024L1059.75 675.267H1255.73C1256.79 675.267 1257.86 674.201 1257.86 673.136V661.42C1257.86 660.355 1256.79 660.355 1255.73 660.355Z" fill="#40F4FF"/>
<path d="M1022.48 671.005H727.447C726.737 671.005 726.027 671.36 725.317 672.07C725.317 672.78 725.672 673.49 726.382 674.2L741.293 685.916C741.293 686.626 741.648 686.981 742.358 686.981H1007.57C1008.28 686.981 1008.63 686.626 1008.63 685.916L1023.54 674.2C1024.25 673.49 1024.61 672.78 1024.61 672.07C1023.9 671.36 1023.19 671.005 1022.48 671.005Z" fill="#40F4FF"/>
<path d="M1257.87 28.7573H1221.66H1007.57L978.816 6.39029H959.645L988.403 28.7573H963.906L934.083 6.39029H914.911L944.734 28.7573H919.172L890.414 6.39029C889.704 6.39029 889.349 6.39029 889.349 6.39029H673.136C672.426 6.39029 671.716 6.39029 671.006 6.39029L643.313 28.7573H524.023L487.811 0C487.811 0 487.455 0 486.745 0H364.26C363.55 0 363.195 0 363.195 0L326.982 28.7573H108.639L123.55 17.0412H246.035V13.8461H123.55C122.84 13.8461 122.13 13.8461 121.42 13.8461L102.248 28.7573H4.26019C3.1951 28.7573 2.12988 29.8225 2.12988 30.8876V42.6037C2.12988 43.6688 3.1951 44.7337 4.26019 44.7337H312.071C312.781 44.7337 313.491 44.7337 314.201 44.7337L329.112 31.9528L365.326 3.19515H485.68L522.959 31.9528C522.959 32.6628 523.313 33.0176 524.023 33.0176H607.101L617.752 44.7337C618.462 44.7337 619.171 44.7337 619.881 44.7337H770.059C770.769 44.7337 771.124 44.7337 771.124 44.7337L781.775 33.0176H919.172C919.882 33.0176 920.237 33.0176 920.237 33.0176H948.994H950.059H968.166H993.728H1012.9H1220.59L1256.81 69.231C1257.52 69.231 1257.87 69.231 1257.87 69.231C1258.58 69.231 1258.93 69.231 1258.93 69.231C1259.64 69.231 1260 68.5208 1260 67.1007V30.8876C1260 29.8225 1258.93 28.7573 1257.87 28.7573Z" fill="#40F4FF"/>
<path d="M321.653 68.1643H27.6885V134.2L39.4042 145.916V419.645L27.6885 431.361V626.273L48.9903 647.574H286.505L301.417 635.858H564.494L580.47 647.574H655.026H653.961H1050.17L1065.09 635.858H1239.76V579.409L1228.04 567.693V408.994L1239.76 397.278V85.2059L1211 56.4482H1080L1081.06 57.5134H789.227L779.641 67.0992H609.227L599.641 57.5134H569.819L570.884 56.4482H558.103L559.168 57.5134H335.499L321.653 68.1643Z" fill="#163C5B"/>
</svg>
