<svg width="114" height="28" viewBox="0 0 114 28" fill="none" xmlns="http://www.w3.org/2000/svg">
<g id="logo_Racodi 1" clip-path="url(#clip0_225_635)">
<path id="Vector" d="M13.4869 26.5L8.81488 18.02H7.50288V26.5H2.03088V4.036H11.2149C12.9855 4.036 14.4895 4.34533 15.7269 4.964C16.9855 5.58267 17.9242 6.436 18.5429 7.524C19.1615 8.59067 19.4709 9.78533 19.4709 11.108C19.4709 12.6013 19.0442 13.9347 18.1909 15.108C17.3589 16.2813 16.1215 17.1133 14.4789 17.604L19.6629 26.5H13.4869ZM7.50288 14.148H10.8949C11.8975 14.148 12.6442 13.9027 13.1349 13.412C13.6469 12.9213 13.9029 12.228 13.9029 11.332C13.9029 10.4787 13.6469 9.80667 13.1349 9.316C12.6442 8.82533 11.8975 8.58 10.8949 8.58H7.50288V14.148ZM21.8179 17.54C21.8179 15.7053 22.1592 14.0947 22.8419 12.708C23.5459 11.3213 24.4952 10.2547 25.6899 9.508C26.8845 8.76133 28.2179 8.388 29.6899 8.388C30.9485 8.388 32.0472 8.644 32.9859 9.156C33.9459 9.668 34.6819 10.34 35.1939 11.172V8.644H40.6659V26.5H35.1939V23.972C34.6605 24.804 33.9139 25.476 32.9539 25.988C32.0152 26.5 30.9165 26.756 29.6579 26.756C28.2072 26.756 26.8845 26.3827 25.6899 25.636C24.4952 24.868 23.5459 23.7907 22.8419 22.404C22.1592 20.996 21.8179 19.3747 21.8179 17.54ZM35.1939 17.572C35.1939 16.2067 34.8099 15.1293 34.0419 14.34C33.2952 13.5507 32.3779 13.156 31.2899 13.156C30.2019 13.156 29.2739 13.5507 28.5059 14.34C27.7592 15.108 27.3859 16.1747 27.3859 17.54C27.3859 18.9053 27.7592 19.9933 28.5059 20.804C29.2739 21.5933 30.2019 21.988 31.2899 21.988C32.3779 21.988 33.2952 21.5933 34.0419 20.804C34.8099 20.0147 35.1939 18.9373 35.1939 17.572ZM55.5366 26.5L50.0966 19.012V26.5H44.6246V2.82H50.0966V15.908L55.5046 8.644H62.2566L54.8326 17.604L62.3206 26.5H55.5366ZM72.5339 26.756C70.7845 26.756 69.2059 26.3827 67.7979 25.636C66.4112 24.8893 65.3125 23.8227 64.5019 22.436C63.7125 21.0493 63.3179 19.428 63.3179 17.572C63.3179 15.7373 63.7232 14.1267 64.5339 12.74C65.3445 11.332 66.4539 10.2547 67.8619 9.508C69.2699 8.76133 70.8485 8.388 72.5979 8.388C74.3472 8.388 75.9259 8.76133 77.3339 9.508C78.7419 10.2547 79.8512 11.332 80.6619 12.74C81.4725 14.1267 81.8779 15.7373 81.8779 17.572C81.8779 19.4067 81.4619 21.028 80.6299 22.436C79.8192 23.8227 78.6992 24.8893 77.2699 25.636C75.8619 26.3827 74.2832 26.756 72.5339 26.756ZM72.5339 22.02C73.5792 22.02 74.4645 21.636 75.1899 20.868C75.9365 20.1 76.3099 19.0013 76.3099 17.572C76.3099 16.1427 75.9472 15.044 75.2219 14.276C74.5179 13.508 73.6432 13.124 72.5979 13.124C71.5312 13.124 70.6459 13.508 69.9419 14.276C69.2379 15.0227 68.8859 16.1213 68.8859 17.572C68.8859 19.0013 69.2272 20.1 69.9099 20.868C70.6139 21.636 71.4885 22.02 72.5339 22.02ZM83.6929 17.54C83.6929 15.7053 84.0342 14.0947 84.7169 12.708C85.4209 11.3213 86.3702 10.2547 87.5649 9.508C88.7595 8.76133 90.0929 8.388 91.5649 8.388C92.7382 8.388 93.8049 8.63333 94.7649 9.124C95.7462 9.61467 96.5142 10.276 97.0689 11.108V2.82H102.541V26.5H97.0689V23.94C96.5569 24.7933 95.8209 25.476 94.8609 25.988C93.9222 26.5 92.8235 26.756 91.5649 26.756C90.0929 26.756 88.7595 26.3827 87.5649 25.636C86.3702 24.868 85.4209 23.7907 84.7169 22.404C84.0342 20.996 83.6929 19.3747 83.6929 17.54ZM97.0689 17.572C97.0689 16.2067 96.6849 15.1293 95.9169 14.34C95.1702 13.5507 94.2529 13.156 93.1649 13.156C92.0769 13.156 91.1489 13.5507 90.3809 14.34C89.6342 15.108 89.2609 16.1747 89.2609 17.54C89.2609 18.9053 89.6342 19.9933 90.3809 20.804C91.1489 21.5933 92.0769 21.988 93.1649 21.988C94.2529 21.988 95.1702 21.5933 95.9169 20.804C96.6849 20.0147 97.0689 18.9373 97.0689 17.572ZM109.252 6.788C108.292 6.788 107.502 6.51067 106.884 5.956C106.286 5.38 105.988 4.676 105.988 3.844C105.988 2.99067 106.286 2.28667 106.884 1.732C107.502 1.156 108.292 0.867996 109.252 0.867996C110.19 0.867996 110.958 1.156 111.556 1.732C112.174 2.28667 112.484 2.99067 112.484 3.844C112.484 4.676 112.174 5.38 111.556 5.956C110.958 6.51067 110.19 6.788 109.252 6.788ZM111.972 8.644V26.5H106.5V8.644H111.972Z" fill="white"/>
<path id="Vector_2" d="M113 4C113 5.933 111.433 7.5 109.5 7.5C107.567 7.5 106 5.933 106 4C106 1.5 107.567 0.5 109.5 0.5C111.433 0.5 113 2.067 113 4Z" fill="#02D7F2"/>
</g>
<defs>
<clipPath id="clip0_225_635">
<rect width="114" height="27" fill="white" transform="translate(0 0.5)"/>
</clipPath>
</defs>
</svg>
