<svg width="192" height="193" viewBox="0 0 192 193" fill="none" xmlns="http://www.w3.org/2000/svg">
<g id="person-workspace" clip-path="url(#clip0_280_355)">
<path id="Vector" d="M48 192.758C48 192.758 36 192.758 36 180.758C36 168.758 48 132.758 96 132.758C144 132.758 156 168.758 156 180.758C156 192.758 144 192.758 144 192.758H48ZM96 121.358C103.956 121.358 111.587 118.198 117.213 112.572C122.839 106.946 126 99.3149 126 91.3584C126 83.4019 122.839 75.7713 117.213 70.1452C111.587 64.5191 103.956 61.3584 96 61.3584C88.0435 61.3584 80.4129 64.5191 74.7868 70.1452C69.1607 75.7713 66 83.4019 66 91.3584C66 99.3149 69.1607 106.946 74.7868 112.572C80.4129 118.198 88.0435 121.358 96 121.358Z" fill="white"/>
<path id="Vector_2" d="M24 12.7583C17.6348 12.7583 11.5303 15.2869 7.02944 19.7877C2.52856 24.2886 0 30.3931 0 36.7583L0 150.758C0 155.532 1.89642 160.111 5.27208 163.486C8.64773 166.862 13.2261 168.758 18 168.758H25.836C28.3451 159.94 32.7061 151.758 38.628 144.758H12V36.7583C12 33.5757 13.2643 30.5235 15.5147 28.273C17.7652 26.0226 20.8174 24.7583 24 24.7583H168C171.183 24.7583 174.235 26.0226 176.485 28.273C178.736 30.5235 180 33.5757 180 36.7583V144.758H153.372C160.02 152.606 164.052 161.234 166.164 168.758H174C178.774 168.758 183.352 166.862 186.728 163.486C190.104 160.111 192 155.532 192 150.758V36.7583C192 30.3931 189.471 24.2886 184.971 19.7877C180.47 15.2869 174.365 12.7583 168 12.7583H24Z" fill="white"/>
</g>
<defs>
<clipPath id="clip0_280_355">
<rect width="192" height="192" fill="white" transform="translate(0 0.758301)"/>
</clipPath>
</defs>
</svg>
