<svg width="193" height="193" viewBox="0 0 193 193" fill="none" xmlns="http://www.w3.org/2000/svg">
<g id="school">
<path id="Vector" d="M16.3333 132.758C16.3333 128.34 19.915 124.758 24.3333 124.758H48.3333V96.7583L96.3333 64.7583L144.333 96.7583V124.758H168.333C172.752 124.758 176.333 128.34 176.333 132.758V168.758C176.333 173.177 172.752 176.758 168.333 176.758H16.3333V132.758Z" stroke="white" stroke-width="10" stroke-linejoin="round"/>
<path id="Vector_2" d="M96.3333 24.7583V64.7583" stroke="white" stroke-width="10" stroke-linecap="round"/>
<path id="Vector_3" d="M144.333 48.7584V24.7584C144.333 24.7584 138.333 36.7584 120.333 24.7584C102.333 12.7584 96.3333 24.7584 96.3333 24.7584V48.7584C96.3333 48.7584 102.333 36.7584 120.333 48.7584C138.333 60.7584 144.333 48.7584 144.333 48.7584Z" stroke="white" stroke-width="10" stroke-linecap="round" stroke-linejoin="round"/>
<path id="Vector_4" d="M112.333 176.758V124.758H80.3333V176.758" stroke="white" stroke-width="10" stroke-linecap="round" stroke-linejoin="round"/>
<path id="Vector_5" d="M72.3333 176.758H120.333" stroke="white" stroke-width="2" stroke-linecap="round" stroke-linejoin="round"/>
</g>
</svg>
