<svg width="200" height="200" viewBox="0 0 200 200" fill="none" xmlns="http://www.w3.org/2000/svg">
<path fill-rule="evenodd" clip-rule="evenodd" d="M100 0C155.238 0 200 44.7813 200 100.043C200 155.219 155.238 200 100 200C44.7619 200 0 155.219 0 100.043C0 44.7813 44.7619 0 100 0ZM50.8227 33.521C48.0521 33.1746 41.0388 40.6237 37.0561 48.246C32.2076 57.3409 32.0346 65.1364 35.4978 64.0104C40.2597 62.5379 53.9396 35.4266 50.8227 33.521ZM90.9958 40.1039C90.8226 40.0173 90.6493 40.0173 90.4762 39.9307C86.1472 40.3638 82.5973 50.2382 81.7315 56.9078C80.2597 68.3413 84.4156 74.751 88.7446 71.8926C96.2771 66.8688 96.2771 41.8363 90.9958 40.1039ZM90.3895 140.58C101.558 133.651 120.26 116.587 120.346 79.8614C122.165 80.0347 123.636 80.2945 127.099 82.1135C126.493 74.9242 117.836 71.806 113.16 77.0897C110.996 79.515 111.082 81.9403 111.169 82.893C113.247 81.5072 114.113 81.0741 115.584 80.5544C117.143 136.249 60.5196 161.282 29.5239 130.966C21.7317 123.343 5.02181 101.689 17.0564 64.1836C17.6625 65.3096 17.8357 65.8294 18.3551 67.9948C18.788 66.8688 20.6926 61.0654 18.5281 58.3802C15.7575 57.081 13.5931 62.1914 12.987 63.7505C14.026 63.1442 14.199 63.1442 14.9782 62.971C-3.80969 138.761 55.4978 162.148 90.3895 140.58Z" fill="#02D7F2"/>
</svg>
