<svg width="1544" height="1384" viewBox="0 0 1544 1384" fill="none" xmlns="http://www.w3.org/2000/svg">
<rect width="1440" height="1193" transform="translate(13 191)" fill="#1F1D2B"/>
<g filter="url(#filter0_f_280_626)">
<path d="M1297 762C1297 789.614 1274.61 812 1247 812C1219.39 812 1197 789.614 1197 762C1197 734.386 1219.39 712 1247 712C1274.61 712 1297 734.386 1297 762Z" fill="#FF00FD" fill-opacity="0.69"/>
</g>
<g filter="url(#filter1_f_280_626)">
<path d="M573 991C573 1018.61 550.614 1041 523 1041C495.386 1041 473 1018.61 473 991C473 963.386 495.386 941 523 941C550.614 941 573 963.386 573 991Z" fill="#FF00FD" fill-opacity="0.69"/>
</g>
<g filter="url(#filter2_f_280_626)">
<path d="M400 350C400 377.614 377.614 400 350 400C322.386 400 300 377.614 300 350C300 322.386 322.386 300 350 300C377.614 300 400 322.386 400 350Z" fill="#FF00FD" fill-opacity="0.69"/>
</g>
<defs>
<filter id="filter0_f_280_626" x="950.9" y="465.9" width="592.2" height="592.2" filterUnits="userSpaceOnUse" color-interpolation-filters="sRGB">
<feFlood flood-opacity="0" result="BackgroundImageFix"/>
<feBlend mode="normal" in="SourceGraphic" in2="BackgroundImageFix" result="shape"/>
<feGaussianBlur stdDeviation="123.05" result="effect1_foregroundBlur_280_626"/>
</filter>
<filter id="filter1_f_280_626" x="242" y="710" width="562" height="562" filterUnits="userSpaceOnUse" color-interpolation-filters="sRGB">
<feFlood flood-opacity="0" result="BackgroundImageFix"/>
<feBlend mode="normal" in="SourceGraphic" in2="BackgroundImageFix" result="shape"/>
<feGaussianBlur stdDeviation="115.5" result="effect1_foregroundBlur_280_626"/>
</filter>
<filter id="filter2_f_280_626" x="0" y="0" width="700" height="700" filterUnits="userSpaceOnUse" color-interpolation-filters="sRGB">
<feFlood flood-opacity="0" result="BackgroundImageFix"/>
<feBlend mode="normal" in="SourceGraphic" in2="BackgroundImageFix" result="shape"/>
<feGaussianBlur stdDeviation="150" result="effect1_foregroundBlur_280_626"/>
</filter>
</defs>
</svg>
