<svg width="128" height="129" viewBox="0 0 128 129" fill="none" xmlns="http://www.w3.org/2000/svg">
<path d="M0 16.9272C0 14.8055 0.842855 12.7707 2.34315 11.2704C3.84344 9.7701 5.87827 8.92725 8 8.92725H120C122.122 8.92725 124.157 9.7701 125.657 11.2704C127.157 12.7707 128 14.8055 128 16.9272V32.9272C128 35.049 127.157 37.0838 125.657 38.5841C124.157 40.0844 122.122 40.9272 120 40.9272V100.927C120 106.232 117.893 111.319 114.142 115.069C110.391 118.82 105.304 120.927 100 120.927H28C22.6957 120.927 17.6086 118.82 13.8579 115.069C10.1071 111.319 8 106.232 8 100.927V40.9272C5.87827 40.9272 3.84344 40.0844 2.34315 38.5841C0.842855 37.0838 0 35.049 0 32.9272V16.9272ZM16 40.9272V100.927C16 104.11 17.2643 107.162 19.5147 109.413C21.7652 111.663 24.8174 112.927 28 112.927H100C103.183 112.927 106.235 111.663 108.485 109.413C110.736 107.162 112 104.11 112 100.927V40.9272H16ZM120 16.9272H8V32.9272H120V16.9272ZM40 60.9272C40 59.8664 40.4214 58.849 41.1716 58.0988C41.9217 57.3487 42.9391 56.9272 44 56.9272H84C85.0609 56.9272 86.0783 57.3487 86.8284 58.0988C87.5786 58.849 88 59.8664 88 60.9272C88 61.9881 87.5786 63.0055 86.8284 63.7557C86.0783 64.5058 85.0609 64.9272 84 64.9272H44C42.9391 64.9272 41.9217 64.5058 41.1716 63.7557C40.4214 63.0055 40 61.9881 40 60.9272Z" fill="#E334DA"/>
</svg>
