<svg width="24" height="25" viewBox="0 0 24 25" fill="none" xmlns="http://www.w3.org/2000/svg">
<g id="lucide/at-sign">
<path id="Vector" d="M16 8.06788V13.0679C16 13.8635 16.3161 14.6266 16.8787 15.1892C17.4413 15.7518 18.2044 16.0679 19 16.0679C19.7957 16.0679 20.5587 15.7518 21.1213 15.1892C21.6839 14.6266 22 13.8635 22 13.0679V12.0679C22 9.81518 21.2394 7.62848 19.8414 5.86205C18.4434 4.09562 16.49 2.85295 14.2975 2.33539C12.1051 1.81783 9.80215 2.05569 7.76178 3.01043C5.72141 3.96518 4.06318 5.58087 3.05574 7.59574C2.0483 9.61062 1.75069 11.9066 2.21111 14.1118C2.67154 16.3169 3.86303 18.302 5.59254 19.7454C7.32205 21.1888 9.48825 22.006 11.7402 22.0645C13.9921 22.123 16.1979 21.4195 18 20.0679M16 12.0679C16 14.277 14.2092 16.0679 12 16.0679C9.79087 16.0679 8.00001 14.277 8.00001 12.0679C8.00001 9.85874 9.79087 8.06788 12 8.06788C14.2092 8.06788 16 9.85874 16 12.0679Z" stroke="white" stroke-width="2" stroke-linecap="round" stroke-linejoin="round"/>
</g>
</svg>
