<svg width="1194" height="89" viewBox="0 0 1194 89" fill="none" xmlns="http://www.w3.org/2000/svg">
<g clip-path="url(#clip0_280_761)">
<path d="M85.2121 85.8013H77.4219L108.321 0.15332H116.111L85.2121 85.8013Z" fill="#E334DA"/>
<path fill-rule="evenodd" clip-rule="evenodd" d="M3.52519 88.8472C1.61029 88.8472 0 87.2804 0 85.322C0 83.3636 1.61029 81.7969 3.52519 81.7969C5.4836 81.7969 7.05027 83.3636 7.05027 85.322C7.05027 87.2804 5.4836 88.8472 3.52519 88.8472ZM3.52519 82.7108C2.08902 82.7108 0.957426 83.8859 0.957426 85.322C0.957426 86.7582 2.08902 87.9332 3.52519 87.9332C4.96136 87.9332 6.13641 86.7582 6.13641 85.322C6.13641 83.8859 4.96136 82.7108 3.52519 82.7108Z" fill="#E334DA"/>
<path d="M4.56887 85.3223C4.56887 85.888 4.09019 86.3667 3.52443 86.3667C2.95866 86.3667 2.52344 85.888 2.52344 85.3223C2.52344 84.7565 2.95866 84.3213 3.52443 84.3213C4.09019 84.3213 4.56887 84.7565 4.56887 85.3223Z" fill="white"/>
<path d="M47.0002 85.8013H6.91797V84.8874H46.391L80.2497 0.15332H115.327V1.06725H80.859L47.0002 85.8013Z" fill="#E334DA"/>
<path opacity="0.7" d="M77.4219 85.8015H85.2121L100.662 42.9775H92.8716L77.4219 85.8015Z" fill="#E396DF"/>
</g>
<path opacity="0.2" d="M269.338 1.5H127.111L96.1113 87.148H147.111H1065.11L1096.11 1.5H269.338Z" fill="#E334DA"/>
<g clip-path="url(#clip1_280_761)">
<path d="M1107.01 3.04688H1114.8L1083.9 88.6949H1076.11L1107.01 3.04688Z" fill="#E334DA"/>
<path fill-rule="evenodd" clip-rule="evenodd" d="M1188.65 0C1190.61 0 1192.18 1.56673 1192.18 3.52515C1192.18 5.48356 1190.61 7.0503 1188.65 7.0503C1186.74 7.0503 1185.13 5.48356 1185.13 3.52515C1185.13 1.56673 1186.74 0 1188.65 0ZM1188.65 6.13637C1190.09 6.13637 1191.27 4.96132 1191.27 3.52515C1191.27 2.08898 1190.09 0.913929 1188.65 0.913929C1187.22 0.913929 1186.09 2.08898 1186.09 3.52515C1186.09 4.96132 1187.22 6.13637 1188.65 6.13637Z" fill="#E334DA"/>
<path d="M1187.65 3.52495C1187.65 2.95919 1188.09 2.48047 1188.66 2.48047C1189.22 2.48047 1189.7 2.95919 1189.7 3.52495C1189.7 4.09072 1189.22 4.52593 1188.66 4.52593C1188.09 4.52593 1187.65 4.09072 1187.65 3.52495Z" fill="white"/>
<path d="M1145.22 3.04688H1185.26V3.9608H1145.83L1111.97 88.6949H1076.85V87.7809H1111.32L1145.22 3.04688Z" fill="#E334DA"/>
<path opacity="0.7" d="M1107.01 3.04688L1091.56 45.8709H1099.26L1114.8 3.04688H1107.01Z" fill="#E396DF"/>
</g>
<defs>
<clipPath id="clip0_280_761">
<rect width="116.111" height="88.6938" fill="white" transform="translate(0 0.15332)"/>
</clipPath>
<clipPath id="clip1_280_761">
<rect width="117" height="89" fill="white" transform="translate(1076.11)"/>
</clipPath>
</defs>
</svg>
