<svg width="390" height="178" viewBox="0 0 390 178" fill="none" xmlns="http://www.w3.org/2000/svg">
<rect width="390" height="178" fill="#0E2108" fill-opacity="0.8"/>
<g clip-path="url(#clip0_0_1)">
<mask id="path-1-inside-1_0_1" fill="white">
<path d="M0 0H390V178H0V0Z"/>
</mask>
<path d="M0 0H390V178H0V0Z" fill="#0B0B0F"/>
<g opacity="0.5">
<path opacity="0.0344828" d="M122.818 -40.5554C121.254 -42.4195 118.863 -43.6182 115.61 -44.1062C112.349 -44.5954 108.283 -44.3582 103.489 -43.3998C93.9003 -41.4834 81.6041 -36.7266 67.4204 -29.511C39.0677 -15.0871 3.37368 9.05826 -32.9219 39.5141C-69.2174 69.9699 -99.194 100.929 -118.322 126.347C-127.891 139.062 -134.711 150.346 -138.263 159.455C-140.039 164.011 -140.979 167.973 -141.063 171.27C-141.148 174.559 -140.382 177.121 -138.818 178.985C-137.254 180.849 -134.864 182.048 -131.61 182.536C-128.349 183.025 -124.283 182.788 -119.489 181.83C-109.901 179.913 -97.6044 175.156 -83.4208 167.941C-55.0681 153.517 -19.374 129.371 16.9215 98.9156C53.2171 68.4598 83.1936 37.5005 102.322 12.083C111.891 -0.632301 118.71 -11.9158 122.263 -21.0256C124.039 -25.581 124.978 -29.5436 125.063 -32.8405C125.147 -36.1291 124.382 -38.6913 122.818 -40.5554Z" stroke="#2B2C3B" stroke-width="2"/>
<path opacity="0.0689655" d="M112.753 -52.9107C111.032 -54.6314 108.546 -55.6172 105.263 -55.8197C101.971 -56.0228 97.9417 -55.4322 93.2489 -54.0596C83.8642 -51.3148 72.0293 -45.5044 58.5285 -37.08C31.5408 -20.2399 -1.91303 6.92456 -35.4161 40.4279C-68.9191 73.9312 -96.0833 107.385 -112.923 134.373C-121.348 147.874 -127.158 159.709 -129.903 169.094C-131.275 173.787 -131.866 177.816 -131.663 181.108C-131.46 184.391 -130.474 186.877 -128.754 188.598C-127.033 190.319 -124.547 191.304 -121.264 191.507C-117.972 191.71 -113.943 191.119 -109.25 189.747C-99.8654 187.002 -88.0306 181.192 -74.5298 172.767C-47.5421 155.927 -14.0883 128.763 19.4148 95.2592C52.9178 61.7559 80.082 28.3018 96.922 1.31384C105.346 -12.1871 111.157 -24.0221 113.901 -33.4068C115.274 -38.0997 115.865 -42.1291 115.662 -45.4208C115.459 -48.7042 114.473 -51.19 112.753 -52.9107Z" stroke="#2B2C3B" stroke-width="2"/>
<path opacity="0.103448" d="M101.769 -64.3499C99.9047 -65.914 97.3424 -66.6795 94.0539 -66.5951C90.757 -66.5105 86.7945 -65.5709 82.2391 -63.7946C73.1294 -60.2422 61.8459 -53.4225 49.1307 -43.8535C23.7134 -24.7253 -7.24562 5.2515 -37.7012 41.5474C-68.1568 77.8432 -92.3019 113.538 -106.726 141.89C-113.941 156.074 -118.698 168.371 -120.614 177.959C-121.573 182.754 -121.81 186.819 -121.321 190.081C-120.833 193.334 -119.634 195.724 -117.77 197.288C-115.906 198.853 -113.344 199.618 -110.055 199.534C-106.758 199.449 -102.796 198.509 -98.2405 196.733C-89.1307 193.181 -77.8473 186.361 -65.1321 176.792C-39.7148 157.664 -8.75573 127.687 21.6999 91.3912C52.1554 55.0953 76.3006 19.4009 90.7244 -8.95197C97.94 -23.1357 102.697 -35.4321 104.613 -45.0204C105.571 -49.815 105.809 -53.8805 105.319 -57.1421C104.832 -60.3953 103.633 -62.7857 101.769 -64.3499Z" stroke="#2B2C3B" stroke-width="2"/>
<path opacity="0.137931" d="M89.9503 -74.7878C87.957 -76.1835 85.3378 -76.7227 82.0691 -76.352C78.7921 -75.9804 74.9266 -74.6991 70.5434 -72.5324C61.7779 -68.1996 51.1318 -60.4224 39.2989 -49.7816C15.6455 -28.511 -12.5831 4.05001 -39.7594 42.8621C-66.9358 81.6742 -87.8781 119.337 -99.7758 148.839C-105.728 163.598 -109.395 176.262 -110.468 185.981C-111.005 190.841 -110.887 194.912 -110.115 198.118C-109.346 201.316 -107.943 203.593 -105.95 204.989C-103.957 206.385 -101.337 206.924 -98.0688 206.553C-94.7918 206.182 -90.9263 204.9 -86.5431 202.734C-77.7776 198.401 -67.1315 190.624 -55.2986 179.983C-31.6452 158.712 -3.41661 126.151 23.7597 87.339C50.936 48.5269 71.8784 10.864 83.7761 -18.6381C89.7281 -33.3968 93.395 -46.0609 94.4685 -55.7797C95.0053 -60.6397 94.8873 -64.7104 94.1157 -67.9168C93.3461 -71.1152 91.9435 -73.392 89.9503 -74.7878Z" stroke="#2B2C3B" stroke-width="2"/>
<path opacity="0.172414" d="M77.3854 -84.162C75.278 -85.3786 72.6218 -85.6875 69.3979 -85.0334C66.1657 -84.3776 62.4266 -82.7642 58.2489 -80.2238C49.8944 -75.1435 39.9666 -66.468 29.1062 -54.8364C7.39662 -31.5851 -17.8867 3.31226 -41.5769 44.3453C-65.2671 85.3783 -82.8472 124.723 -92.1284 155.15C-96.7714 170.371 -99.3207 183.307 -99.543 193.082C-99.6542 197.97 -99.1819 202.015 -98.1337 205.142C-97.0883 208.261 -95.4927 210.407 -93.3853 211.624C-91.278 212.841 -88.6217 213.15 -85.3978 212.496C-82.1657 211.84 -78.4265 210.226 -74.2488 207.686C-65.8944 202.606 -55.9666 193.93 -45.1062 182.299C-23.3966 159.047 1.88672 124.15 25.5769 83.1169C49.2671 42.0839 66.8472 2.73903 76.1285 -27.6878C80.7715 -42.9091 83.3207 -55.8446 83.5431 -65.62C83.6543 -70.5083 83.1819 -74.5532 82.1338 -77.6802C81.0883 -80.7993 79.4927 -82.9453 77.3854 -84.162Z" stroke="#2B2C3B" stroke-width="2"/>
<path opacity="0.206897" d="M64.1693 -92.413C61.964 -93.4414 59.2909 -93.5176 56.1363 -92.585C52.9736 -91.6499 49.3893 -89.7168 45.4489 -86.822C37.569 -81.0329 28.4351 -71.5251 18.6298 -58.9912C-0.970722 -33.9363 -23.1163 3.03186 -43.1402 45.9735C-63.164 88.9151 -77.2481 129.642 -83.8421 160.762C-87.1409 176.33 -88.553 189.439 -87.9225 199.197C-87.6072 204.076 -86.7841 208.064 -85.4675 211.088C-84.1542 214.104 -82.3776 216.103 -80.1722 217.131C-77.9668 218.16 -75.2938 218.236 -72.1392 217.303C-68.9765 216.368 -65.3922 214.435 -61.4518 211.54C-53.5719 205.751 -44.438 196.243 -34.6327 183.709C-15.0322 158.654 7.11345 121.686 27.1373 78.7447C47.1611 35.8031 61.2452 -4.92431 67.8392 -36.0443C71.138 -51.6123 72.5501 -64.7208 71.9196 -74.4784C71.6044 -79.3577 70.7813 -83.346 69.4646 -86.3698C68.1513 -89.3859 66.3747 -91.3846 64.1693 -92.413Z" stroke="#2B2C3B" stroke-width="2"/>
<path opacity="0.241379" d="M50.4073 -99.489C48.1207 -100.321 45.4512 -100.164 42.3899 -98.9601C39.3207 -97.753 35.9185 -95.5149 32.2454 -92.2876C24.9 -85.8338 16.6295 -75.5661 7.95393 -62.2253C-9.38834 -35.5574 -28.2277 3.20023 -44.4328 47.7236C-60.6379 92.2471 -71.1188 134.047 -74.9755 165.623C-76.9049 181.42 -77.1692 194.601 -75.6907 204.267C-74.9513 209.1 -73.7838 213.001 -72.2086 215.899C-70.6374 218.789 -68.6934 220.625 -66.4068 221.458C-64.1201 222.29 -61.4506 222.133 -58.3893 220.929C-55.3201 219.722 -51.9179 217.483 -48.2448 214.256C-40.8994 207.802 -32.6289 197.535 -23.9533 184.194C-6.61107 157.526 12.2283 118.768 28.4334 74.245C44.6385 29.7216 55.1194 -12.0784 58.9761 -43.6546C60.9054 -59.4509 61.1697 -72.6326 59.6912 -82.2981C58.9519 -87.1313 57.7843 -91.0328 56.2092 -93.9303C54.638 -96.8205 52.694 -98.6567 50.4073 -99.489Z" stroke="#2B2C3B" stroke-width="2"/>
<path opacity="0.275862" d="M36.1996 -105.339C33.8491 -105.969 31.2035 -105.58 28.2587 -104.113C25.3065 -102.643 22.1123 -100.117 18.7344 -96.5819C11.9795 -89.5125 4.6353 -78.5631 -2.84457 -64.5169C-17.7966 -36.439 -33.1864 3.81315 -45.4493 49.5795C-57.7123 95.3459 -64.5103 137.9 -65.6002 169.692C-66.1455 185.597 -65.26 198.751 -62.9447 208.251C-61.7869 213.002 -60.2838 216.786 -58.462 219.536C-56.6449 222.278 -54.5483 223.938 -52.1978 224.568C-49.8474 225.197 -47.2017 224.808 -44.257 223.342C-41.3047 221.872 -38.1105 219.346 -34.7327 215.811C-27.9777 208.741 -20.6336 197.792 -13.1537 183.746C1.79834 155.668 17.1881 115.416 29.4511 69.6492C41.714 23.8828 48.512 -18.6715 49.602 -50.4638C50.1473 -66.3681 49.2617 -79.5226 46.9464 -89.0225C45.7887 -93.7729 44.2855 -97.5578 42.4638 -100.307C40.6467 -103.049 38.55 -104.709 36.1996 -105.339Z" stroke="#2B2C3B" stroke-width="2"/>
<path opacity="0.310345" d="M21.6537 -109.933C19.2573 -110.356 16.6556 -109.737 13.8498 -108.02C11.0369 -106.298 8.07506 -103.503 5.01818 -99.6873C-1.09494 -92.056 -7.45684 -80.5082 -13.6841 -65.8635C-26.1321 -36.5893 -37.9551 4.85099 -46.1826 51.512C-54.4101 98.173 -57.4734 141.158 -55.7884 172.924C-54.9454 188.816 -52.9168 201.843 -49.7824 211.105C-48.215 215.736 -46.3877 219.376 -44.3332 221.956C-42.2841 224.529 -40.0507 226 -37.6543 226.422C-35.2579 226.845 -32.6563 226.227 -29.8505 224.509C-27.0376 222.788 -24.0757 219.993 -21.0188 216.177C-14.9057 208.545 -8.54382 196.997 -2.31661 182.353C10.1314 153.079 21.9544 111.638 30.182 64.9773C38.4095 18.3163 41.4727 -24.6686 39.7877 -56.4349C38.9448 -72.3262 36.9161 -85.3536 33.7817 -94.6155C32.2143 -99.2469 30.387 -102.886 28.3326 -105.466C26.2834 -108.04 24.0501 -109.511 21.6537 -109.933Z" stroke="#2B2C3B" stroke-width="2"/>
<path opacity="0.344828" d="M6.88389 -113.249C4.45979 -113.461 1.92189 -112.619 -0.72351 -110.663C-3.37566 -108.703 -6.08266 -105.66 -8.79533 -101.592C-14.2201 -93.4574 -19.5513 -81.399 -24.4785 -66.2673C-34.3277 -36.0196 -42.4941 6.29345 -46.6235 53.494C-50.753 100.695 -50.0583 143.783 -45.6111 175.281C-43.3863 191.039 -40.23 203.84 -36.3003 212.793C-34.3352 217.27 -32.1976 220.737 -29.9262 223.128C-27.6605 225.513 -25.3075 226.783 -22.8834 226.995C-20.4593 227.208 -17.9214 226.365 -15.276 224.41C-12.6238 222.449 -9.91685 219.407 -7.20418 215.339C-1.77943 207.204 3.55181 195.145 8.47898 180.014C18.3282 149.766 26.4945 107.453 30.624 60.2523C34.7535 13.0518 34.0588 -30.0365 29.6116 -61.535C27.3868 -77.2924 24.2305 -90.0934 20.3008 -99.0469C18.3357 -103.524 16.1981 -106.99 13.9267 -109.382C11.661 -111.767 9.308 -113.037 6.88389 -113.249Z" stroke="#2B2C3B" stroke-width="2"/>
<path opacity="0.37931" d="M-8.00177 -115.273C-10.4351 -115.273 -12.8899 -114.212 -15.3549 -112.034C-17.8261 -109.85 -20.2576 -106.583 -22.6054 -102.294C-27.3005 -93.717 -31.5605 -81.2399 -35.1501 -65.7364C-42.3256 -34.7453 -46.7731 8.11848 -46.7731 55.4993C-46.7731 102.88 -42.3256 145.744 -35.1501 176.735C-31.5605 192.239 -27.3005 204.716 -22.6054 213.293C-20.2576 217.582 -17.8261 220.848 -15.3549 223.032C-12.8899 225.211 -10.4351 226.271 -8.00177 226.271C-5.56841 226.271 -3.11361 225.211 -0.648697 223.032C1.82251 220.848 4.25404 217.582 6.60184 213.293C11.2969 204.716 15.5569 192.239 19.1466 176.735C26.3221 145.744 30.7695 102.88 30.7695 55.4993C30.7695 8.11848 26.3221 -34.7453 19.1466 -65.7364C15.5569 -81.2399 11.2969 -93.717 6.60184 -102.294C4.25404 -106.583 1.82251 -109.85 -0.648697 -112.034C-3.11361 -114.212 -5.56841 -115.273 -8.00177 -115.273Z" stroke="#2B2C3B" stroke-width="2"/>
<path opacity="0.413793" d="M-22.8817 -115.995C-25.3058 -115.783 -27.6588 -114.513 -29.9245 -112.128C-32.1959 -109.736 -34.3335 -106.27 -36.2985 -101.793C-40.2283 -92.8394 -43.3846 -80.0385 -45.6094 -64.2811C-50.0565 -32.7826 -50.7513 10.3057 -46.6218 57.5063C-42.4923 104.707 -34.326 147.02 -24.4767 177.268C-19.5496 192.399 -14.2183 204.458 -8.79357 212.593C-6.08091 216.661 -3.3739 219.703 -0.72175 221.664C1.92365 223.619 4.46155 224.462 6.88565 224.249C9.30976 224.037 11.6628 222.767 13.9284 220.382C16.1999 217.991 18.3375 214.524 20.3025 210.047C24.2322 201.094 27.3886 188.293 29.6133 172.535C34.0605 141.037 34.7552 97.9485 30.6258 50.7479C26.4963 3.54739 18.33 -38.7657 8.4807 -69.0134C3.55354 -84.1451 -1.77771 -96.2035 -7.20246 -104.339C-9.91513 -108.406 -12.6221 -111.449 -15.2743 -113.409C-17.9197 -115.365 -20.4576 -116.207 -22.8817 -115.995Z" stroke="#2B2C3B" stroke-width="2"/>
<path opacity="0.448276" d="M-37.6546 -115.421C-40.051 -114.999 -42.2844 -113.528 -44.3336 -110.955C-46.388 -108.375 -48.2153 -104.735 -49.7827 -100.104C-52.9171 -90.8418 -54.9457 -77.8145 -55.7887 -61.9231C-57.4737 -30.1569 -54.4104 12.828 -46.1829 59.489C-37.9554 106.15 -26.1323 147.59 -13.6843 176.865C-7.45712 191.509 -1.09521 203.057 5.0179 210.688C8.07479 214.504 11.0367 217.299 13.8496 219.021C16.6553 220.738 19.257 221.357 21.6534 220.934C24.0498 220.512 26.2831 219.041 28.3323 216.467C30.3867 213.887 32.214 210.248 33.7814 205.617C36.9158 196.355 38.9445 183.327 39.7874 167.436C41.4725 135.67 38.4092 92.6848 30.1817 46.0238C21.9541 -0.63723 10.1311 -42.0775 -2.31691 -71.3517C-8.54413 -85.9964 -14.906 -97.5442 -21.0191 -105.176C-24.076 -108.992 -27.0379 -111.787 -29.8508 -113.508C-32.6566 -115.226 -35.2582 -115.844 -37.6546 -115.421Z" stroke="#2B2C3B" stroke-width="2"/>
<path opacity="0.482759" d="M-52.1989 -113.567C-54.5493 -112.937 -56.646 -111.277 -58.4631 -108.535C-60.2848 -105.786 -61.788 -102.001 -62.9457 -97.2506C-65.261 -87.7507 -66.1466 -74.5962 -65.6013 -58.6919C-64.5113 -26.8996 -57.7133 15.6547 -45.4504 61.4211C-33.1874 107.187 -17.7976 147.44 -2.84558 175.517C4.6343 189.564 11.9785 200.513 18.7334 207.583C22.1113 211.118 25.3055 213.644 28.2577 215.114C31.2025 216.58 33.8481 216.969 36.1986 216.339C38.549 215.71 40.6457 214.05 42.4628 211.308C44.2845 208.558 45.7877 204.774 46.9454 200.023C49.2607 190.523 50.1463 177.369 49.601 161.464C48.511 129.672 41.713 87.1178 29.4501 41.3514C17.1871 -4.41495 1.79731 -44.6671 -13.1547 -72.745C-20.6346 -86.7912 -27.9788 -97.7406 -34.7337 -104.81C-38.1116 -108.345 -41.3058 -110.871 -44.258 -112.341C-47.2028 -113.808 -49.8484 -114.197 -52.1989 -113.567Z" stroke="#2B2C3B" stroke-width="2"/>
<path opacity="0.517241" d="M-66.4073 -110.457C-68.6939 -109.625 -70.6379 -107.789 -72.2091 -104.899C-73.7843 -102.001 -74.9518 -98.0998 -75.6912 -93.2665C-77.1697 -83.601 -76.9054 -70.4193 -74.976 -54.6231C-71.1193 -23.0468 -60.6384 18.7531 -44.4334 63.2765C-28.2283 107.8 -9.3889 146.558 7.95336 173.225C16.629 186.566 24.8995 196.834 32.2449 203.288C35.918 206.515 39.3202 208.753 42.3893 209.96C45.4506 211.164 48.1201 211.321 50.4068 210.489C52.6934 209.657 54.6374 207.821 56.2086 204.93C57.7838 202.033 58.9513 198.132 59.6907 193.298C61.1692 183.633 60.9049 170.451 58.9755 154.655C55.1188 123.079 44.6379 81.2786 28.4329 36.7552C12.2278 -7.76823 -6.61159 -46.5259 -23.9539 -73.1938C-32.6295 -86.5346 -40.8999 -96.8022 -48.2453 -103.256C-51.9184 -106.483 -55.3207 -108.722 -58.3898 -109.929C-61.4511 -111.133 -64.1206 -111.29 -66.4073 -110.457Z" stroke="#2B2C3B" stroke-width="2"/>
<path opacity="0.551724" d="M-80.1701 -106.13C-82.3755 -105.101 -84.1521 -103.102 -85.4654 -100.086C-86.782 -97.0626 -87.6051 -93.0742 -87.9204 -88.1949C-88.5509 -78.4373 -87.1387 -65.3288 -83.84 -49.7608C-77.246 -18.6409 -63.1619 22.0865 -43.138 65.0281C-23.1142 107.97 -0.968569 144.938 18.6319 169.993C28.4373 182.527 37.5711 192.034 45.4511 197.824C49.3915 200.718 52.9758 202.652 56.1385 203.587C59.2931 204.519 61.9661 204.443 64.1715 203.415C66.3769 202.386 68.1535 200.388 69.4668 197.371C70.7834 194.348 71.6065 190.359 71.9218 185.48C72.5523 175.722 71.1401 162.614 67.8414 147.046C61.2474 115.926 47.1633 75.1985 27.1394 32.2569C7.11559 -10.6847 -15.03 -47.6529 -34.6305 -72.7078C-44.4359 -85.2417 -53.5697 -94.7494 -61.4497 -100.539C-65.3901 -103.433 -68.9744 -105.366 -72.1371 -106.301C-75.2917 -107.234 -77.9647 -107.158 -80.1701 -106.13Z" stroke="#2B2C3B" stroke-width="2"/>
<path opacity="0.586207" d="M-93.3855 -100.622C-95.4928 -99.4051 -97.0885 -97.2591 -98.1339 -94.14C-99.182 -91.013 -99.6544 -86.9681 -99.5432 -82.0798C-99.3208 -72.3044 -96.7716 -59.3689 -92.1286 -44.1476C-82.8474 -13.7208 -65.2673 25.6241 -41.5771 66.6571C-17.8868 107.69 7.39646 142.588 29.106 165.839C39.9664 177.47 49.8942 186.146 58.2487 191.226C62.4264 193.767 66.1656 195.38 69.3977 196.036C72.6216 196.69 75.2778 196.381 77.3852 195.164C79.4925 193.948 81.0882 191.802 82.1336 188.683C83.1817 185.556 83.6541 181.511 83.5429 176.622C83.3205 166.847 80.7713 153.911 76.1283 138.69C66.8471 108.263 49.267 68.9185 25.5768 27.8855C1.88655 -13.1475 -23.3968 -48.0449 -45.1063 -71.2962C-55.9667 -82.9278 -65.8945 -91.6033 -74.249 -96.6836C-78.4267 -99.224 -82.1659 -100.837 -85.398 -101.493C-88.6219 -102.147 -91.2781 -101.838 -93.3855 -100.622Z" stroke="#2B2C3B" stroke-width="2"/>
<path opacity="0.62069" d="M-105.95 -93.9889C-107.943 -92.5931 -109.346 -90.3163 -110.115 -87.118C-110.887 -83.9115 -111.005 -79.8408 -110.468 -74.9808C-109.395 -65.262 -105.728 -52.5979 -99.7759 -37.8392C-87.8781 -8.33709 -66.9358 29.3258 -39.7594 68.1379C-12.5831 106.95 15.6455 139.511 39.2989 160.782C51.1317 171.422 61.7779 179.2 70.5433 183.532C74.9265 185.699 78.7921 186.98 82.0691 187.352C85.3378 187.723 87.9569 187.184 89.9502 185.788C91.9435 184.392 93.346 182.115 94.1157 178.917C94.8873 175.71 95.0053 171.64 94.4685 166.78C93.395 157.061 89.7281 144.397 83.7761 129.638C71.8784 100.136 50.936 62.4731 23.7597 23.661C-3.41662 -15.1511 -31.6452 -47.7121 -55.2987 -68.9827C-67.1315 -79.6235 -77.7776 -87.4007 -86.5431 -91.7335C-90.9263 -93.9002 -94.7918 -95.1815 -98.0688 -95.5531C-101.338 -95.9238 -103.957 -95.3846 -105.95 -93.9889Z" stroke="#2B2C3B" stroke-width="2"/>
<path opacity="0.655172" d="M-117.77 -86.2918C-119.634 -84.7277 -120.833 -82.3373 -121.321 -79.084C-121.81 -75.8225 -121.573 -71.757 -120.615 -66.9623C-118.698 -57.3741 -113.941 -45.0777 -106.726 -30.8939C-92.302 -2.54099 -68.1569 33.1534 -37.7013 69.4493C-7.24571 105.745 23.7133 135.722 49.1306 154.85C61.8458 164.419 73.1292 171.239 82.239 174.791C86.7943 176.568 90.7569 177.507 94.0538 177.592C97.3423 177.676 99.9045 176.911 101.769 175.347C103.633 173.782 104.831 171.392 105.319 168.139C105.809 164.877 105.571 160.812 104.613 156.017C102.697 146.429 97.9398 134.132 90.7242 119.949C76.3005 91.5957 52.1553 55.9013 21.6998 19.6054C-8.75582 -16.6904 -39.7149 -46.6673 -65.1321 -65.7954C-77.8473 -75.3644 -89.1308 -82.1842 -98.2405 -85.7365C-102.796 -87.5129 -106.758 -88.4524 -110.055 -88.537C-113.344 -88.6214 -115.906 -87.856 -117.77 -86.2918Z" stroke="#2B2C3B" stroke-width="2"/>
<path opacity="0.689655" d="M-128.753 -77.6005C-130.474 -75.8798 -131.46 -73.3941 -131.662 -70.1107C-131.865 -66.8189 -131.275 -62.7895 -129.902 -58.0967C-127.157 -48.7119 -121.347 -36.8769 -112.923 -23.376C-96.0826 3.61189 -68.9184 37.066 -35.4153 70.5693C-1.91228 104.073 31.5416 131.237 58.5293 148.077C72.0301 156.502 83.865 162.312 93.2497 165.057C97.9425 166.429 101.972 167.02 105.264 166.817C108.547 166.614 111.033 165.629 112.753 163.908C114.474 162.187 115.46 159.701 115.662 156.418C115.865 153.126 115.275 149.097 113.902 144.404C111.157 135.019 105.347 123.184 96.9228 109.683C80.0828 82.6955 52.9186 49.2413 19.4155 15.738C-14.0875 -17.7653 -47.5414 -44.9297 -74.5291 -61.7698C-88.0299 -70.1942 -99.8648 -76.0046 -109.249 -78.7494C-113.942 -80.122 -117.972 -80.7126 -121.263 -80.5096C-124.547 -80.307 -127.033 -79.3212 -128.753 -77.6005Z" stroke="#2B2C3B" stroke-width="2"/>
<path opacity="0.724138" d="M-138.818 -67.9889C-140.382 -66.1248 -141.147 -63.5626 -141.063 -60.274C-140.978 -56.9771 -140.039 -53.0145 -138.262 -48.4591C-134.71 -39.3493 -127.89 -28.0658 -118.321 -15.3505C-99.1932 10.067 -69.2167 41.0263 -32.9211 71.4821C3.37442 101.938 39.0685 126.083 67.4212 140.507C81.6048 147.723 93.9011 152.48 103.489 154.396C108.284 155.354 112.349 155.592 115.611 155.102C118.864 154.614 121.255 153.416 122.819 151.552C124.383 149.687 125.148 147.125 125.064 143.837C124.979 140.54 124.04 136.577 122.263 132.022C118.711 122.912 111.891 111.628 102.322 98.9131C83.1944 73.4957 53.2178 42.5364 16.9223 12.0806C-19.3733 -18.3753 -55.0674 -42.5206 -83.4201 -56.9445C-97.6037 -64.1601 -109.9 -68.9169 -119.488 -70.8333C-124.283 -71.7917 -128.348 -72.0289 -131.61 -71.5397C-134.863 -71.0517 -137.253 -69.853 -138.818 -67.9889Z" stroke="#2B2C3B" stroke-width="2"/>
<path opacity="0.758621" d="M-147.889 -57.5407C-149.285 -55.5474 -149.824 -52.9282 -149.453 -49.6595C-149.082 -46.3825 -147.8 -42.5169 -145.634 -38.1337C-141.301 -29.3682 -133.524 -18.722 -122.883 -6.88903C-101.613 16.7646 -69.0519 44.9934 -30.2401 72.1699C8.57175 99.3464 46.2344 120.289 75.7363 132.187C90.4949 138.139 103.159 141.806 112.878 142.879C117.738 143.416 121.808 143.298 125.015 142.526C128.213 141.757 130.49 140.354 131.886 138.361C133.281 136.368 133.82 133.748 133.45 130.48C133.078 127.203 131.797 123.337 129.63 118.954C125.298 110.188 117.52 99.5421 106.88 87.7092C85.6091 64.0555 53.0484 35.8267 14.2366 8.65023C-24.5752 -18.5263 -62.2379 -39.4687 -91.7398 -51.3666C-106.498 -57.3186 -119.162 -60.9856 -128.881 -62.059C-133.741 -62.5959 -137.812 -62.4778 -141.018 -61.7062C-144.216 -60.9366 -146.493 -59.5341 -147.889 -57.5407Z" stroke="#2B2C3B" stroke-width="2"/>
<path opacity="0.793103" d="M-155.89 -46.3466C-157.107 -44.2392 -157.416 -41.5829 -156.762 -38.359C-156.106 -35.1269 -154.493 -31.3876 -151.952 -27.2099C-146.872 -18.8554 -138.197 -8.92747 -126.565 1.93302C-103.314 23.6428 -68.4169 48.9263 -27.3842 72.6168C13.6485 96.3072 52.9931 113.887 83.4197 123.169C98.6408 127.812 111.576 130.361 121.352 130.583C126.24 130.695 130.285 130.222 133.412 129.174C136.531 128.129 138.677 126.533 139.893 124.426C141.11 122.318 141.419 119.662 140.765 116.438C140.109 113.206 138.496 109.467 135.955 105.289C130.875 96.9344 122.2 87.0066 110.568 76.1461C87.3169 54.4363 52.4198 29.1528 11.3871 5.46233C-29.6456 -18.2281 -68.9901 -35.8084 -99.4167 -45.0897C-114.638 -49.7327 -127.573 -52.282 -137.349 -52.5043C-142.237 -52.6155 -146.282 -52.1432 -149.409 -51.095C-152.528 -50.0496 -154.674 -48.4539 -155.89 -46.3466Z" stroke="#2B2C3B" stroke-width="2"/>
<path opacity="0.827586" d="M-162.772 -34.5024C-163.8 -32.297 -163.877 -29.6239 -162.944 -26.4692C-162.009 -23.3065 -160.076 -19.7222 -157.181 -15.7818C-151.392 -7.90178 -141.884 1.23219 -129.351 11.0376C-104.296 30.6382 -67.328 52.784 -24.3867 72.808C18.5545 92.832 59.2815 106.916 90.4012 113.51C105.969 116.809 119.078 118.221 128.835 117.591C133.714 117.276 137.703 116.452 140.726 115.136C143.742 113.822 145.741 112.046 146.77 109.84C147.798 107.635 147.874 104.962 146.941 101.807C146.006 98.6446 144.073 95.0603 141.179 91.1199C135.389 83.2399 125.882 74.1059 113.348 64.3005C88.2933 44.6999 51.3254 22.5541 8.38416 2.53006C-34.5571 -17.4939 -75.2841 -31.5782 -106.404 -38.1723C-121.972 -41.471 -135.08 -42.8832 -144.838 -42.2527C-149.717 -41.9374 -153.705 -41.1143 -156.729 -39.7977C-159.745 -38.4843 -161.744 -36.7078 -162.772 -34.5024Z" stroke="#2B2C3B" stroke-width="2"/>
<path opacity="0.862069" d="M-168.474 -22.1112C-169.306 -19.8245 -169.149 -17.155 -167.945 -14.0937C-166.738 -11.0245 -164.5 -7.62224 -161.272 -3.94912C-154.818 3.39634 -144.551 11.6669 -131.21 20.3426C-104.543 37.685 -65.7852 56.5246 -21.262 72.7298C23.261 88.935 65.0606 99.416 96.6367 103.273C112.433 105.202 125.614 105.466 135.28 103.988C140.113 103.249 144.015 102.081 146.912 100.506C149.802 98.9346 151.638 96.9906 152.471 94.7039C153.303 92.4173 153.146 89.7477 151.942 86.6864C150.735 83.6172 148.497 80.215 145.269 76.5419C138.816 69.1964 128.548 60.9258 115.207 52.2501C88.5395 34.9077 49.7822 16.0682 5.25909 -0.137028C-39.264 -16.3422 -81.0636 -26.8233 -112.64 -30.68C-128.436 -32.6094 -141.617 -32.8737 -151.283 -31.3952C-156.116 -30.6558 -160.017 -29.4882 -162.915 -27.913C-165.805 -26.3418 -167.641 -24.3978 -168.474 -22.1112Z" stroke="#2B2C3B" stroke-width="2"/>
<path opacity="0.896552" d="M-172.952 -9.27295C-173.582 -6.92247 -173.193 -4.27679 -171.727 -1.33202C-170.257 1.62027 -167.73 4.81449 -164.195 8.19235C-157.126 14.9474 -146.177 22.2916 -132.13 29.7715C-104.053 44.7237 -63.8009 60.1136 -18.0349 72.3767C27.7312 84.6398 70.2852 91.4378 102.077 92.5278C117.981 93.0731 131.136 92.1876 140.636 89.8723C145.386 88.7145 149.171 87.2113 151.92 85.3896C154.662 83.5725 156.322 81.4758 156.952 79.1254C157.582 76.7749 157.193 74.1292 155.726 71.1844C154.256 68.2321 151.73 65.0379 148.195 61.6601C141.126 54.905 130.176 47.5608 116.13 40.0809C88.0525 25.1287 47.8007 9.73881 2.03462 -2.52428C-43.7314 -14.7874 -86.2855 -21.5854 -118.077 -22.6754C-133.982 -23.2207 -147.136 -22.3351 -156.636 -20.0199C-161.386 -18.8621 -165.171 -17.3589 -167.92 -15.5372C-170.663 -13.7201 -172.322 -11.6234 -172.952 -9.27295Z" stroke="#2B2C3B" stroke-width="2"/>
<path opacity="0.931035" d="M-176.175 3.90095C-176.598 6.29737 -175.98 8.89907 -174.262 11.7048C-172.541 14.5178 -169.746 17.4797 -165.93 20.5366C-158.298 26.6497 -146.751 33.0117 -132.106 39.239C-102.832 51.6871 -61.3921 63.5102 -14.7314 71.7378C31.9292 79.9654 74.9138 83.0288 106.68 81.3437C122.571 80.5008 135.598 78.4721 144.86 75.3377C149.492 73.7703 153.131 71.943 155.711 69.8885C158.284 67.8393 159.755 65.606 160.178 63.2096C160.6 60.8131 159.982 58.2114 158.265 55.4057C156.543 52.5927 153.748 49.6308 149.932 46.5739C142.301 40.4608 130.753 34.0988 116.108 27.8715C86.8343 15.4234 45.3944 3.60028 -1.26631 -4.62732C-47.927 -12.8549 -90.9115 -15.9182 -122.678 -14.2332C-138.569 -13.3903 -151.596 -11.3616 -160.858 -8.22716C-165.489 -6.65977 -169.129 -4.83244 -171.709 -2.77802C-174.282 -0.728822 -175.753 1.50453 -176.175 3.90095Z" stroke="#2B2C3B" stroke-width="2"/>
<path opacity="0.965517" d="M-178.123 17.2988C-178.335 19.7229 -177.492 22.2608 -175.537 24.9062C-173.576 27.5584 -170.534 30.2654 -166.466 32.9781C-158.331 38.4029 -146.273 43.7342 -131.141 48.6614C-100.894 58.5107 -58.581 66.6771 -11.3808 70.8066C35.8193 74.9361 78.9073 74.2414 110.406 69.7942C126.163 67.5694 138.964 64.413 147.917 60.4833C152.394 58.5182 155.861 56.3806 158.252 54.1092C160.637 51.8435 161.907 49.4904 162.119 47.0663C162.331 44.6422 161.489 42.1043 159.533 39.4588C157.573 36.8067 154.531 34.0997 150.463 31.387C142.328 25.9622 130.269 20.6309 115.138 15.7037C84.8903 5.85436 42.5776 -2.31202 -4.62254 -6.44154C-51.8227 -10.571 -94.9107 -9.87632 -126.409 -5.42909C-142.166 -3.20433 -154.967 -0.0479577 -163.92 3.88178C-168.398 5.84686 -171.864 7.98443 -174.255 10.2559C-176.64 12.5216 -177.911 14.8746 -178.123 17.2988Z" stroke="#2B2C3B" stroke-width="2"/>
<path d="M-178.771 30.8107C-178.771 33.2441 -177.711 35.6989 -175.532 38.1638C-173.348 40.635 -170.081 43.0666 -165.792 45.4144C-157.215 50.1096 -144.738 54.3696 -129.235 57.9592C-98.2442 65.1348 -55.3808 69.5823 -8.00031 69.5823C39.3802 69.5823 82.2436 65.1348 113.234 57.9592C128.738 54.3696 141.215 50.1096 149.792 45.4144C154.081 43.0666 157.347 40.635 159.531 38.1638C161.71 35.6989 162.771 33.2441 162.771 30.8107C162.771 28.3773 161.71 25.9225 159.531 23.4575C157.347 20.9863 154.081 18.5548 149.792 16.2069C141.215 11.5118 128.738 7.25177 113.234 3.66213C82.2436 -3.51345 39.3802 -7.96094 -8.00031 -7.96094C-55.3808 -7.96094 -98.2442 -3.51345 -129.235 3.66213C-144.738 7.25177 -157.215 11.5118 -165.792 16.2069C-170.081 18.5548 -173.348 20.9863 -175.532 23.4575C-177.711 25.9225 -178.771 28.3773 -178.771 30.8107Z" stroke="#2B2C3B" stroke-width="2"/>
</g>
<g opacity="0.5">
<path opacity="0.0344828" d="M542.818 79.4446C541.254 77.5805 538.863 76.3818 535.61 75.8938C532.349 75.4046 528.283 75.6418 523.489 76.6002C513.9 78.5166 501.604 83.2734 487.42 90.489C459.068 104.913 423.374 129.058 387.078 159.514C350.783 189.97 320.806 220.929 301.678 246.347C292.109 259.062 285.289 270.346 281.737 279.455C279.961 284.011 279.021 287.973 278.937 291.27C278.852 294.559 279.618 297.121 281.182 298.985C282.746 300.849 285.136 302.048 288.39 302.536C291.651 303.025 295.717 302.788 300.511 301.83C310.099 299.913 322.396 295.156 336.579 287.941C364.932 273.517 400.626 249.371 436.922 218.916C473.217 188.46 503.194 157.501 522.322 132.083C531.891 119.368 538.71 108.084 542.263 98.9744C544.039 94.419 544.978 90.4564 545.063 87.1595C545.147 83.8709 544.382 81.3087 542.818 79.4446Z" stroke="#2B2C3B" stroke-width="2"/>
<path opacity="0.0689655" d="M532.753 67.0893C531.032 65.3686 528.546 64.3828 525.263 64.1803C521.971 63.9772 517.942 64.5678 513.249 65.9404C503.864 68.6852 492.029 74.4956 478.528 82.92C451.541 99.7601 418.087 126.925 384.584 160.428C351.081 193.931 323.917 227.385 307.077 254.373C298.652 267.874 292.842 279.709 290.097 289.094C288.725 293.787 288.134 297.816 288.337 301.108C288.54 304.391 289.526 306.877 291.246 308.598C292.967 310.319 295.453 311.304 298.736 311.507C302.028 311.71 306.057 311.119 310.75 309.747C320.135 307.002 331.969 301.192 345.47 292.767C372.458 275.927 405.912 248.763 439.415 215.259C472.918 181.756 500.082 148.302 516.922 121.314C525.346 107.813 531.157 95.9779 533.901 86.5932C535.274 81.9003 535.865 77.8709 535.662 74.5792C535.459 71.2958 534.473 68.81 532.753 67.0893Z" stroke="#2B2C3B" stroke-width="2"/>
<path opacity="0.103448" d="M521.769 55.6501C519.905 54.086 517.342 53.3205 514.054 53.4049C510.757 53.4895 506.794 54.4291 502.239 56.2054C493.129 59.7578 481.846 66.5775 469.131 76.1465C443.713 95.2747 412.754 125.252 382.299 161.547C351.843 197.843 327.698 233.538 313.274 261.89C306.059 276.074 301.302 288.371 299.386 297.959C298.427 302.754 298.19 306.819 298.679 310.081C299.167 313.334 300.366 315.724 302.23 317.288C304.094 318.853 306.656 319.618 309.945 319.534C313.242 319.449 317.204 318.509 321.76 316.733C330.869 313.181 342.153 306.361 354.868 296.792C380.285 277.664 411.244 247.687 441.7 211.391C472.155 175.095 496.301 139.401 510.724 111.048C517.94 96.8643 522.697 84.5679 524.613 74.9796C525.571 70.185 525.809 66.1195 525.319 62.8579C524.832 59.6047 523.633 57.2143 521.769 55.6501Z" stroke="#2B2C3B" stroke-width="2"/>
<path opacity="0.137931" d="M509.95 45.2122C507.957 43.8165 505.338 43.2773 502.069 43.648C498.792 44.0196 494.927 45.3009 490.543 47.4676C481.778 51.8004 471.132 59.5776 459.299 70.2184C435.645 91.489 407.417 124.05 380.241 162.862C353.064 201.674 332.122 239.337 320.224 268.839C314.272 283.598 310.605 296.262 309.532 305.981C308.995 310.841 309.113 314.912 309.885 318.118C310.654 321.316 312.057 323.593 314.05 324.989C316.043 326.385 318.663 326.924 321.931 326.553C325.208 326.182 329.074 324.9 333.457 322.734C342.222 318.401 352.869 310.624 364.701 299.983C388.355 278.712 416.583 246.151 443.76 207.339C470.936 168.527 491.878 130.864 503.776 101.362C509.728 86.6032 513.395 73.9391 514.469 64.2203C515.005 59.3603 514.887 55.2896 514.116 52.0832C513.346 48.8848 511.944 46.608 509.95 45.2122Z" stroke="#2B2C3B" stroke-width="2"/>
<path opacity="0.172414" d="M497.385 35.838C495.278 34.6214 492.622 34.3125 489.398 34.9666C486.166 35.6224 482.427 37.2358 478.249 39.7762C469.894 44.8565 459.967 53.532 449.106 65.1636C427.397 88.4149 402.113 123.312 378.423 164.345C354.733 205.378 337.153 244.723 327.872 275.15C323.229 290.371 320.679 303.307 320.457 313.082C320.346 317.97 320.818 322.015 321.866 325.142C322.912 328.261 324.507 330.407 326.615 331.624C328.722 332.841 331.378 333.15 334.602 332.496C337.834 331.84 341.573 330.226 345.751 327.686C354.106 322.606 364.033 313.93 374.894 302.299C396.603 279.047 421.887 244.15 445.577 203.117C469.267 162.084 486.847 122.739 496.128 92.3122C500.771 77.0909 503.321 64.1554 503.543 54.38C503.654 49.4917 503.182 45.4468 502.134 42.3198C501.088 39.2007 499.493 37.0547 497.385 35.838Z" stroke="#2B2C3B" stroke-width="2"/>
<path opacity="0.206897" d="M484.169 27.587C481.964 26.5586 479.291 26.4824 476.136 27.415C472.974 28.3501 469.389 30.2832 465.449 33.178C457.569 38.9671 448.435 48.4749 438.63 61.0088C419.029 86.0637 396.884 123.032 376.86 165.973C356.836 208.915 342.752 249.642 336.158 280.762C332.859 296.33 331.447 309.439 332.077 319.197C332.393 324.076 333.216 328.064 334.533 331.088C335.846 334.104 337.622 336.103 339.828 337.131C342.033 338.16 344.706 338.236 347.861 337.303C351.023 336.368 354.608 334.435 358.548 331.54C366.428 325.751 375.562 316.243 385.367 303.709C404.968 278.654 427.113 241.686 447.137 198.745C467.161 155.803 481.245 115.076 487.839 83.9557C491.138 68.3877 492.55 55.2792 491.92 45.5216C491.604 40.6423 490.781 36.654 489.465 33.6302C488.151 30.6141 486.375 28.6154 484.169 27.587Z" stroke="#2B2C3B" stroke-width="2"/>
<path opacity="0.241379" d="M470.407 20.511C468.121 19.6787 465.451 19.8358 462.39 21.0399C459.321 22.247 455.919 24.4851 452.245 27.7124C444.9 34.1662 436.63 44.4339 427.954 57.7747C410.612 84.4426 391.772 123.2 375.567 167.724C359.362 212.247 348.881 254.047 345.024 285.623C343.095 301.42 342.831 314.601 344.309 324.267C345.049 329.1 346.216 333.001 347.791 335.899C349.363 338.789 351.307 340.625 353.593 341.458C355.88 342.29 358.549 342.133 361.611 340.929C364.68 339.722 368.082 337.483 371.755 334.256C379.101 327.802 387.371 317.535 396.047 304.194C413.389 277.526 432.228 238.768 448.433 194.245C464.638 149.722 475.119 107.922 478.976 76.3454C480.905 60.5491 481.17 47.3674 479.691 37.7019C478.952 32.8687 477.784 28.9672 476.209 26.0697C474.638 23.1795 472.694 21.3433 470.407 20.511Z" stroke="#2B2C3B" stroke-width="2"/>
<path opacity="0.275862" d="M456.2 14.6611C453.849 14.0313 451.203 14.4205 448.259 15.8867C445.306 17.3567 442.112 19.8829 438.734 23.4181C431.979 30.4875 424.635 41.4369 417.155 55.4831C402.203 83.561 386.814 123.813 374.551 169.58C362.288 215.346 355.49 257.9 354.4 289.692C353.854 305.597 354.74 318.751 357.055 328.251C358.213 333.002 359.716 336.786 361.538 339.536C363.355 342.278 365.452 343.938 367.802 344.568C370.153 345.197 372.798 344.808 375.743 343.342C378.695 341.872 381.889 339.346 385.267 335.811C392.022 328.741 399.366 317.792 406.846 303.746C421.798 275.668 437.188 235.416 449.451 189.649C461.714 143.883 468.512 101.328 469.602 69.5362C470.147 53.6319 469.262 40.4774 466.946 30.9775C465.789 26.2271 464.286 22.4422 462.464 19.693C460.647 16.9508 458.55 15.2909 456.2 14.6611Z" stroke="#2B2C3B" stroke-width="2"/>
<path opacity="0.310345" d="M441.654 10.0669C439.257 9.64434 436.656 10.2626 433.85 11.9799C431.037 13.7016 428.075 16.4966 425.018 20.3127C418.905 27.944 412.543 39.4918 406.316 54.1365C393.868 83.4107 382.045 124.851 373.817 171.512C365.59 218.173 362.527 261.158 364.212 292.924C365.055 308.816 367.083 321.843 370.218 331.105C371.785 335.736 373.612 339.376 375.667 341.956C377.716 344.529 379.949 346 382.346 346.422C384.742 346.845 387.344 346.227 390.149 344.509C392.962 342.788 395.924 339.993 398.981 336.177C405.094 328.545 411.456 316.997 417.683 302.353C430.131 273.079 441.954 231.638 450.182 184.977C458.409 138.316 461.473 95.3314 459.788 63.5651C458.945 47.6738 456.916 34.6464 453.782 25.3845C452.214 20.7531 450.387 17.1136 448.333 14.5336C446.283 11.9602 444.05 10.4894 441.654 10.0669Z" stroke="#2B2C3B" stroke-width="2"/>
<path opacity="0.344828" d="M426.884 6.75084C424.46 6.53876 421.922 7.38138 419.276 9.33676C416.624 11.2971 413.917 14.3396 411.205 18.4075C405.78 26.5426 400.449 38.601 395.522 53.7327C385.672 83.9804 377.506 126.293 373.376 173.494C369.247 220.695 369.942 263.783 374.389 295.281C376.614 311.039 379.77 323.84 383.7 332.793C385.665 337.27 387.802 340.737 390.074 343.128C392.339 345.513 394.692 346.783 397.117 346.995C399.541 347.208 402.079 346.365 404.724 344.41C407.376 342.449 410.083 339.407 412.796 335.339C418.221 327.204 423.552 315.145 428.479 300.014C438.328 269.766 446.495 227.453 450.624 180.252C454.753 133.052 454.059 89.9635 449.612 58.465C447.387 42.7076 444.23 29.9066 440.301 20.9531C438.336 16.4759 436.198 13.0096 433.927 10.6185C431.661 8.23345 429.308 6.96293 426.884 6.75084Z" stroke="#2B2C3B" stroke-width="2"/>
<path opacity="0.37931" d="M411.998 4.72717C409.565 4.72717 407.11 5.78778 404.645 7.96628C402.174 10.1503 399.742 13.4171 397.395 17.7061C392.7 26.283 388.44 38.7601 384.85 54.2636C377.674 85.2547 373.227 128.118 373.227 175.499C373.227 222.88 377.674 265.744 384.85 296.735C388.44 312.239 392.7 324.716 397.395 333.293C399.742 337.582 402.174 340.848 404.645 343.032C407.11 345.211 409.565 346.271 411.998 346.271C414.432 346.271 416.886 345.211 419.351 343.032C421.823 340.848 424.254 337.582 426.602 333.293C431.297 324.716 435.557 312.239 439.147 296.735C446.322 265.744 450.77 222.88 450.77 175.499C450.77 128.118 446.322 85.2547 439.147 54.2636C435.557 38.7601 431.297 26.283 426.602 17.7061C424.254 13.4171 421.823 10.1503 419.351 7.96628C416.886 5.78778 414.432 4.72717 411.998 4.72717Z" stroke="#2B2C3B" stroke-width="2"/>
<path opacity="0.413793" d="M397.118 4.00479C394.694 4.21687 392.341 5.48739 390.076 7.87243C387.804 10.2635 385.667 13.7299 383.701 18.2071C379.772 27.1606 376.615 39.9615 374.391 55.7189C369.943 87.2174 369.249 130.306 373.378 177.506C377.508 224.707 385.674 267.02 395.523 297.268C400.45 312.399 405.782 324.458 411.206 332.593C413.919 336.661 416.626 339.703 419.278 341.664C421.924 343.619 424.462 344.462 426.886 344.249C429.31 344.037 431.663 342.767 433.928 340.382C436.2 337.991 438.337 334.524 440.303 330.047C444.232 321.094 447.389 308.293 449.613 292.535C454.061 261.037 454.755 217.948 450.626 170.748C446.496 123.547 438.33 81.2343 428.481 50.9866C423.554 35.8549 418.222 23.7965 412.798 15.6615C410.085 11.5935 407.378 8.55103 404.726 6.5907C402.08 4.63532 399.542 3.7927 397.118 4.00479Z" stroke="#2B2C3B" stroke-width="2"/>
<path opacity="0.448276" d="M382.345 4.57866C379.949 5.00122 377.716 6.47199 375.666 9.04542C373.612 11.6254 371.785 15.2648 370.217 19.8963C367.083 29.1582 365.054 42.1855 364.211 58.0769C362.526 89.8431 365.59 132.828 373.817 179.489C382.045 226.15 393.868 267.59 406.316 296.865C412.543 311.509 418.905 323.057 425.018 330.688C428.075 334.504 431.037 337.299 433.85 339.021C436.655 340.738 439.257 341.357 441.653 340.934C444.05 340.512 446.283 339.041 448.332 336.467C450.387 333.887 452.214 330.248 453.781 325.617C456.916 316.355 458.945 303.327 459.787 287.436C461.472 255.67 458.409 212.685 450.182 166.024C441.954 119.363 430.131 77.9225 417.683 48.6483C411.456 34.0036 405.094 22.4558 398.981 14.8245C395.924 11.0084 392.962 8.21342 390.149 6.4917C387.343 4.77433 384.742 4.15611 382.345 4.57866Z" stroke="#2B2C3B" stroke-width="2"/>
<path opacity="0.482759" d="M367.801 6.43305C365.451 7.06285 363.354 8.72267 361.537 11.4649C359.715 14.2141 358.212 17.999 357.054 22.7494C354.739 32.2493 353.853 45.4038 354.399 61.3081C355.489 93.1004 362.287 135.655 374.55 181.421C386.813 227.187 402.202 267.44 417.154 295.517C424.634 309.564 431.978 320.513 438.733 327.583C442.111 331.118 445.305 333.644 448.258 335.114C451.202 336.58 453.848 336.969 456.199 336.339C458.549 335.71 460.646 334.05 462.463 331.308C464.285 328.558 465.788 324.774 466.945 320.023C469.261 310.523 470.146 297.369 469.601 281.464C468.511 249.672 461.713 207.118 449.45 161.351C437.187 115.585 421.797 75.3329 406.845 47.255C399.365 33.2088 392.021 22.2594 385.266 15.19C381.888 11.6549 378.694 9.12865 375.742 7.65865C372.797 6.19235 370.152 5.80324 367.801 6.43305Z" stroke="#2B2C3B" stroke-width="2"/>
<path opacity="0.517241" d="M353.593 9.54255C351.306 10.3748 349.362 12.2111 347.791 15.1012C346.216 17.9988 345.048 21.9002 344.309 26.7335C342.83 36.399 343.095 49.5807 345.024 65.3769C348.881 96.9532 359.362 138.753 375.567 183.277C391.772 227.8 410.611 266.558 427.953 293.225C436.629 306.566 444.899 316.834 452.245 323.288C455.918 326.515 459.32 328.753 462.389 329.96C465.451 331.164 468.12 331.321 470.407 330.489C472.693 329.657 474.637 327.821 476.209 324.93C477.784 322.033 478.951 318.132 479.691 313.298C481.169 303.633 480.905 290.451 478.976 274.655C475.119 243.079 464.638 201.279 448.433 156.755C432.228 112.232 413.388 73.4741 396.046 46.8062C387.371 33.4654 379.1 23.1978 371.755 16.744C368.082 13.5167 364.679 11.2785 361.61 10.0714C358.549 8.86733 355.879 8.71028 353.593 9.54255Z" stroke="#2B2C3B" stroke-width="2"/>
<path opacity="0.551724" d="M339.83 13.8704C337.625 14.8988 335.848 16.8975 334.535 19.9136C333.218 22.9374 332.395 26.9258 332.08 31.8051C331.449 41.5627 332.861 54.6712 336.16 70.2392C342.754 101.359 356.838 142.087 376.862 185.028C396.886 227.97 419.031 264.938 438.632 289.993C448.437 302.527 457.571 312.034 465.451 317.824C469.391 320.718 472.976 322.652 476.138 323.587C479.293 324.519 481.966 324.443 484.172 323.415C486.377 322.386 488.153 320.388 489.467 317.371C490.783 314.348 491.607 310.359 491.922 305.48C492.552 295.722 491.14 282.614 487.841 267.046C481.247 235.926 467.163 195.199 447.139 152.257C427.116 109.315 404.97 72.3471 385.369 47.2922C375.564 34.7583 366.43 25.2506 358.55 19.4615C354.61 16.5666 351.026 14.6335 347.863 13.6985C344.708 12.7658 342.035 12.8421 339.83 13.8704Z" stroke="#2B2C3B" stroke-width="2"/>
<path opacity="0.586207" d="M326.615 19.3782C324.507 20.5949 322.912 22.7409 321.866 25.86C320.818 28.987 320.346 33.0319 320.457 37.9202C320.679 47.6956 323.228 60.6311 327.871 75.8524C337.153 106.279 354.733 145.624 378.423 186.657C402.113 227.69 427.396 262.588 449.106 285.839C459.966 297.47 469.894 306.146 478.249 311.226C482.426 313.767 486.166 315.38 489.398 316.036C492.622 316.69 495.278 316.381 497.385 315.164C499.493 313.948 501.088 311.802 502.134 308.683C503.182 305.556 503.654 301.511 503.543 296.622C503.321 286.847 500.771 273.911 496.128 258.69C486.847 228.263 469.267 188.918 445.577 147.885C421.887 106.852 396.603 71.9551 374.894 48.7038C364.033 37.0722 354.105 28.3967 345.751 23.3164C341.573 20.776 337.834 19.1626 334.602 18.5068C331.378 17.8527 328.722 18.1615 326.615 19.3782Z" stroke="#2B2C3B" stroke-width="2"/>
<path opacity="0.62069" d="M314.05 26.0111C312.057 27.4069 310.654 29.6837 309.885 32.882C309.113 36.0885 308.995 40.1592 309.532 45.0192C310.605 54.738 314.272 67.4021 320.224 82.1608C332.122 111.663 353.064 149.326 380.241 188.138C407.417 226.95 435.645 259.511 459.299 280.782C471.132 291.422 481.778 299.2 490.543 303.532C494.927 305.699 498.792 306.98 502.069 307.352C505.338 307.723 507.957 307.184 509.95 305.788C511.944 304.392 513.346 302.115 514.116 298.917C514.887 295.71 515.005 291.64 514.468 286.78C513.395 277.061 509.728 264.397 503.776 249.638C491.878 220.136 470.936 182.473 443.76 143.661C416.583 104.849 388.355 72.2879 364.701 51.0173C352.869 40.3765 342.222 32.5993 333.457 28.2665C329.074 26.0998 325.208 24.8185 321.931 24.4469C318.662 24.0762 316.043 24.6154 314.05 26.0111Z" stroke="#2B2C3B" stroke-width="2"/>
<path opacity="0.655172" d="M302.23 33.7082C300.366 35.2723 299.167 37.6627 298.679 40.916C298.19 44.1775 298.427 48.243 299.385 53.0377C301.302 62.6259 306.059 74.9223 313.274 89.1061C327.698 117.459 351.843 153.153 382.299 189.449C412.754 225.745 443.713 255.722 469.131 274.85C481.846 284.419 493.129 291.239 502.239 294.791C506.794 296.568 510.757 297.507 514.054 297.592C517.342 297.676 519.905 296.911 521.769 295.347C523.633 293.782 524.831 291.392 525.319 288.139C525.809 284.877 525.571 280.812 524.613 276.017C522.697 266.429 517.94 254.132 510.724 239.949C496.3 211.596 472.155 175.901 441.7 139.605C411.244 103.31 380.285 73.3327 354.868 54.2046C342.153 44.6356 330.869 37.8158 321.76 34.2635C317.204 32.4871 313.242 31.5476 309.945 31.463C306.656 31.3786 304.094 32.144 302.23 33.7082Z" stroke="#2B2C3B" stroke-width="2"/>
<path opacity="0.689655" d="M291.247 42.3995C289.526 44.1202 288.54 46.6059 288.338 49.8893C288.135 53.1811 288.725 57.2105 290.098 61.9033C292.843 71.2881 298.653 83.1231 307.077 96.624C323.917 123.612 351.082 157.066 384.585 190.569C418.088 224.073 451.542 251.237 478.529 268.077C492.03 276.502 503.865 282.312 513.25 285.057C517.942 286.429 521.972 287.02 525.264 286.817C528.547 286.614 531.033 285.629 532.753 283.908C534.474 282.187 535.46 279.701 535.662 276.418C535.865 273.126 535.275 269.097 533.902 264.404C531.157 255.019 525.347 243.184 516.923 229.683C500.083 202.695 472.919 169.241 439.416 135.738C405.912 102.235 372.459 75.0703 345.471 58.2302C331.97 49.8058 320.135 43.9954 310.751 41.2506C306.058 39.878 302.028 39.2874 298.737 39.4904C295.453 39.693 292.967 40.6788 291.247 42.3995Z" stroke="#2B2C3B" stroke-width="2"/>
<path opacity="0.724138" d="M281.182 52.0111C279.618 53.8752 278.853 56.4374 278.937 59.726C279.022 63.0229 279.961 66.9855 281.738 71.5409C285.29 80.6507 292.11 91.9342 301.679 104.649C320.807 130.067 350.783 161.026 387.079 191.482C423.374 221.938 459.068 246.083 487.421 260.507C501.605 267.723 513.901 272.48 523.489 274.396C528.284 275.354 532.349 275.592 535.611 275.102C538.864 274.614 541.255 273.416 542.819 271.552C544.383 269.687 545.148 267.125 545.064 263.837C544.979 260.54 544.04 256.577 542.263 252.022C538.711 242.912 531.891 231.628 522.322 218.913C503.194 193.496 473.218 162.536 436.922 132.081C400.627 101.625 364.933 77.4794 336.58 63.0555C322.396 55.8399 310.1 51.0831 300.512 49.1667C295.717 48.2083 291.652 47.9711 288.39 48.4603C285.137 48.9483 282.747 50.147 281.182 52.0111Z" stroke="#2B2C3B" stroke-width="2"/>
<path opacity="0.758621" d="M272.111 62.4593C270.715 64.4526 270.176 67.0718 270.547 70.3405C270.918 73.6175 272.2 77.4831 274.366 81.8663C278.699 90.6318 286.476 101.278 297.117 113.111C318.387 136.765 350.948 164.993 389.76 192.17C428.572 219.346 466.234 240.289 495.736 252.187C510.495 258.139 523.159 261.806 532.878 262.879C537.738 263.416 541.808 263.298 545.015 262.526C548.213 261.757 550.49 260.354 551.886 258.361C553.281 256.368 553.82 253.748 553.45 250.48C553.078 247.203 551.797 243.337 549.63 238.954C545.298 230.188 537.52 219.542 526.88 207.709C505.609 184.056 473.048 155.827 434.237 128.65C395.425 101.474 357.762 80.5313 328.26 68.6334C313.502 62.6814 300.838 59.0144 291.119 57.941C286.259 57.4041 282.188 57.5222 278.982 58.2938C275.784 59.0634 273.507 60.4659 272.111 62.4593Z" stroke="#2B2C3B" stroke-width="2"/>
<path opacity="0.793103" d="M264.11 73.6534C262.893 75.7608 262.584 78.4171 263.238 81.641C263.894 84.8731 265.507 88.6124 268.048 92.7901C273.128 101.145 281.803 111.073 293.435 121.933C316.686 143.643 351.583 168.926 392.616 192.617C433.649 216.307 472.993 233.887 503.42 243.169C518.641 247.812 531.576 250.361 541.352 250.583C546.24 250.695 550.285 250.222 553.412 249.174C556.531 248.129 558.677 246.533 559.893 244.426C561.11 242.318 561.419 239.662 560.765 236.438C560.109 233.206 558.496 229.467 555.955 225.289C550.875 216.934 542.2 207.007 530.568 196.146C507.317 174.436 472.42 149.153 431.387 125.462C390.354 101.772 351.01 84.1916 320.583 74.9103C305.362 70.2673 292.427 67.718 282.651 67.4957C277.763 67.3845 273.718 67.8568 270.591 68.905C267.472 69.9504 265.326 71.5461 264.11 73.6534Z" stroke="#2B2C3B" stroke-width="2"/>
<path opacity="0.827586" d="M257.228 85.4976C256.2 87.703 256.123 90.3761 257.056 93.5308C257.991 96.6935 259.924 100.278 262.819 104.218C268.608 112.098 278.116 121.232 290.649 131.038C315.704 150.638 352.672 172.784 395.613 192.808C438.555 212.832 479.282 226.916 510.401 233.51C525.969 236.809 539.078 238.221 548.835 237.591C553.714 237.276 557.703 236.452 560.726 235.136C563.742 233.822 565.741 232.046 566.77 229.84C567.798 227.635 567.874 224.962 566.941 221.807C566.006 218.645 564.073 215.06 561.179 211.12C555.389 203.24 545.882 194.106 533.348 184.301C508.293 164.7 471.325 142.554 428.384 122.53C385.443 102.506 344.716 88.4218 313.596 81.8277C298.028 78.529 284.92 77.1168 275.162 77.7473C270.283 78.0626 266.295 78.8857 263.271 80.2023C260.255 81.5157 258.256 83.2922 257.228 85.4976Z" stroke="#2B2C3B" stroke-width="2"/>
<path opacity="0.862069" d="M251.526 97.8888C250.694 100.175 250.851 102.845 252.055 105.906C253.262 108.976 255.5 112.378 258.728 116.051C265.182 123.396 275.449 131.667 288.79 140.343C315.457 157.685 354.215 176.525 398.738 192.73C443.261 208.935 485.061 219.416 516.637 223.273C532.433 225.202 545.614 225.466 555.28 223.988C560.113 223.249 564.015 222.081 566.912 220.506C569.802 218.935 571.638 216.991 572.471 214.704C573.303 212.417 573.146 209.748 571.942 206.686C570.735 203.617 568.497 200.215 565.269 196.542C558.816 189.196 548.548 180.926 535.207 172.25C508.54 154.908 469.782 136.068 425.259 119.863C380.736 103.658 338.936 93.1767 307.36 89.32C291.564 87.3906 278.383 87.1263 268.717 88.6048C263.884 89.3442 259.983 90.5118 257.085 92.087C254.195 93.6582 252.359 95.6022 251.526 97.8888Z" stroke="#2B2C3B" stroke-width="2"/>
<path opacity="0.896552" d="M247.048 110.727C246.418 113.078 246.807 115.723 248.273 118.668C249.743 121.62 252.27 124.814 255.805 128.192C262.874 134.947 273.823 142.292 287.87 149.772C315.947 164.724 356.199 180.114 401.965 192.377C447.731 204.64 490.285 211.438 522.077 212.528C537.981 213.073 551.136 212.188 560.636 209.872C565.386 208.715 569.171 207.211 571.92 205.39C574.662 203.572 576.322 201.476 576.952 199.125C577.582 196.775 577.193 194.129 575.726 191.184C574.256 188.232 571.73 185.038 568.195 181.66C561.126 174.905 550.176 167.561 536.13 160.081C508.053 145.129 467.801 129.739 422.035 117.476C376.269 105.213 333.715 98.4146 301.923 97.3246C286.018 96.7793 272.864 97.6649 263.364 99.9801C258.614 101.138 254.829 102.641 252.08 104.463C249.337 106.28 247.678 108.377 247.048 110.727Z" stroke="#2B2C3B" stroke-width="2"/>
<path opacity="0.931035" d="M243.825 123.901C243.402 126.297 244.02 128.899 245.738 131.705C247.459 134.518 250.254 137.48 254.07 140.537C261.702 146.65 273.249 153.012 287.894 159.239C317.168 171.687 358.608 183.51 405.269 191.738C451.929 199.965 494.914 203.029 526.68 201.344C542.571 200.501 555.598 198.472 564.86 195.338C569.492 193.77 573.131 191.943 575.711 189.889C578.284 187.839 579.755 185.606 580.178 183.21C580.6 180.813 579.982 178.211 578.265 175.406C576.543 172.593 573.748 169.631 569.932 166.574C562.301 160.461 550.753 154.099 536.108 147.872C506.834 135.423 465.394 123.6 418.734 115.373C372.073 107.145 329.088 104.082 297.322 105.767C281.431 106.61 268.404 108.638 259.142 111.773C254.511 113.34 250.871 115.168 248.291 117.222C245.718 119.271 244.247 121.505 243.825 123.901Z" stroke="#2B2C3B" stroke-width="2"/>
<path opacity="0.965517" d="M241.877 137.299C241.665 139.723 242.508 142.261 244.463 144.906C246.424 147.558 249.466 150.265 253.534 152.978C261.669 158.403 273.727 163.734 288.859 168.661C319.106 178.511 361.419 186.677 408.619 190.807C455.819 194.936 498.907 194.241 530.406 189.794C546.163 187.569 558.964 184.413 567.917 180.483C572.394 178.518 575.861 176.381 578.252 174.109C580.637 171.843 581.907 169.49 582.119 167.066C582.331 164.642 581.489 162.104 579.533 159.459C577.573 156.807 574.531 154.1 570.463 151.387C562.328 145.962 550.269 140.631 535.138 135.704C504.89 125.854 462.578 117.688 415.377 113.558C368.177 109.429 325.089 110.124 293.591 114.571C277.834 116.796 265.033 119.952 256.08 123.882C251.602 125.847 248.136 127.984 245.745 130.256C243.36 132.522 242.089 134.875 241.877 137.299Z" stroke="#2B2C3B" stroke-width="2"/>
<path d="M241.229 150.811C241.229 153.244 242.289 155.699 244.468 158.164C246.652 160.635 249.919 163.067 254.208 165.414C262.785 170.11 275.262 174.37 290.765 177.959C321.756 185.135 364.619 189.582 412 189.582C459.38 189.582 502.244 185.135 533.234 177.959C548.738 174.37 561.215 170.11 569.792 165.414C574.081 163.067 577.347 160.635 579.531 158.164C581.71 155.699 582.771 153.244 582.771 150.811C582.771 148.377 581.71 145.922 579.531 143.458C577.347 140.986 574.081 138.555 569.792 136.207C561.215 131.512 548.738 127.252 533.234 123.662C502.244 116.487 459.38 112.039 412 112.039C364.619 112.039 321.756 116.487 290.765 123.662C275.262 127.252 262.785 131.512 254.208 136.207C249.919 138.555 246.652 140.986 244.468 143.458C242.289 145.922 241.229 148.377 241.229 150.811Z" stroke="#2B2C3B" stroke-width="2"/>
</g>
</g>
<path d="M0 2H390V-2H0V2Z" fill="#282B33" mask="url(#path-1-inside-1_0_1)"/>
<defs>
<clipPath id="clip0_0_1">
<path d="M0 0H390V178H0V0Z" fill="white"/>
</clipPath>
</defs>
</svg>
