<svg width="54" height="37" viewBox="0 0 54 37" fill="none" xmlns="http://www.w3.org/2000/svg">
<g id="Frame 1032">
<ellipse id="Ellipse 62" cx="26.5398" cy="17" rx="17" ry="11.5" fill="white"/>
<path id="Vector" d="M52.2571 10.1506C51.94 7.08952 51.2578 3.70562 48.7468 1.92729C46.802 0.548246 44.2457 0.497264 41.8593 0.500095C36.8146 0.500095 31.7672 0.508602 26.7225 0.511433C21.8704 0.517097 17.0182 0.519925 12.1661 0.525589C10.1392 0.525589 8.16885 0.36984 6.28631 1.24767C4.66988 2.00091 3.40447 3.43377 2.64296 5.02803C1.58704 7.24527 1.36624 9.757 1.23885 12.2093C1.00389 16.6749 1.02937 21.1518 1.30963 25.6146C1.51628 28.8711 2.03999 32.4702 4.55665 34.5459C6.78738 36.3837 9.93532 36.4743 12.8285 36.4771C22.0119 36.4856 31.1981 36.4941 40.3844 36.4998C41.562 36.5026 42.7906 36.48 43.9909 36.3497C46.3519 36.0948 48.6024 35.4181 50.1198 33.6681C51.6513 31.9039 52.0448 29.4488 52.2769 27.1239C52.8431 21.4832 52.8374 15.7886 52.2571 10.1506ZM21.4118 26.4075V10.5924L35.102 18.4985L21.4118 26.4075Z" fill="#E334DA"/>
</g>
</svg>
