<svg width="698" height="158" viewBox="0 0 698 158" fill="none" xmlns="http://www.w3.org/2000/svg">
<rect x="1" y="0.5" width="696" height="157" rx="24.5" fill="#1E284E" fill-opacity="0.25"/>
<rect x="1" y="0.5" width="696" height="157" rx="24.5" stroke="#4DAFFF"/>
<path d="M28.6136 34.5455H31.1364L37.0682 49.0341H37.2727L43.2045 34.5455H45.7273V52H43.75V38.7386H43.5795L38.125 52H36.2159L30.7614 38.7386H30.5909V52H28.6136V34.5455ZM51.4311 43.6477H55.1811C56.7152 43.6477 57.8885 44.0369 58.701 44.8153C59.5135 45.5937 59.9197 46.5795 59.9197 47.7727C59.9197 48.5568 59.7379 49.2699 59.3743 49.9119C59.0107 50.5483 58.4766 51.0568 57.772 51.4375C57.0675 51.8125 56.2038 52 55.1811 52H49.6925V38.9091H51.7038V50.125H55.1811C55.9766 50.125 56.63 49.9148 57.1413 49.4943C57.6527 49.0739 57.9084 48.5341 57.9084 47.875C57.9084 47.1818 57.6527 46.6165 57.1413 46.179C56.63 45.7415 55.9766 45.5227 55.1811 45.5227H51.4311V43.6477ZM61.9993 52V38.9091H64.0107V52H61.9993ZM83.2038 44.5341V46.4091H75.9766V44.5341H83.2038ZM76.4538 38.9091V52H74.4425V38.9091H76.4538ZM84.7379 38.9091V52H82.7266V38.9091H84.7379ZM92.2635 52.3068C91.4339 52.3068 90.6811 52.1506 90.005 51.8381C89.3288 51.5199 88.7919 51.0625 88.3942 50.4659C87.9964 49.8636 87.7976 49.1364 87.7976 48.2841C87.7976 47.5341 87.9453 46.9261 88.2408 46.4602C88.5362 45.9886 88.9311 45.6193 89.4254 45.3523C89.9197 45.0852 90.4652 44.8864 91.0618 44.7557C91.6641 44.6193 92.2692 44.5114 92.8771 44.4318C93.6726 44.3295 94.3175 44.2528 94.8118 44.2017C95.3118 44.1449 95.6754 44.0511 95.9027 43.9205C96.1357 43.7898 96.2521 43.5625 96.2521 43.2386V43.1705C96.2521 42.3295 96.022 41.6761 95.5618 41.2102C95.1072 40.7443 94.4169 40.5114 93.4908 40.5114C92.5305 40.5114 91.7777 40.7216 91.2322 41.142C90.6868 41.5625 90.3033 42.0114 90.0817 42.4886L88.1726 41.8068C88.5135 41.0114 88.968 40.392 89.5362 39.9489C90.1101 39.5 90.7351 39.1875 91.4112 39.0114C92.093 38.8295 92.7635 38.7386 93.4226 38.7386C93.843 38.7386 94.326 38.7898 94.8714 38.892C95.4226 38.9886 95.9538 39.1903 96.4652 39.4972C96.9822 39.804 97.4112 40.267 97.7521 40.8864C98.093 41.5057 98.2635 42.3352 98.2635 43.375V52H96.2521V50.2273H96.1499C96.0135 50.5114 95.7862 50.8153 95.468 51.1392C95.1499 51.4631 94.7266 51.7386 94.1982 51.9659C93.6697 52.1932 93.0249 52.3068 92.2635 52.3068ZM92.5703 50.5C93.3658 50.5 94.0362 50.3438 94.5817 50.0312C95.1328 49.7188 95.5476 49.3153 95.826 48.821C96.1101 48.3267 96.2521 47.8068 96.2521 47.2614V45.4205C96.1669 45.5227 95.9794 45.6165 95.6896 45.7017C95.4055 45.7812 95.076 45.8523 94.701 45.9148C94.3317 45.9716 93.9709 46.0227 93.6186 46.0682C93.272 46.108 92.9908 46.142 92.7749 46.1705C92.2521 46.2386 91.7635 46.3494 91.3089 46.5028C90.8601 46.6506 90.4964 46.875 90.218 47.1761C89.9453 47.4716 89.8089 47.875 89.8089 48.3864C89.8089 49.0852 90.0675 49.6136 90.5845 49.9716C91.1072 50.3239 91.7692 50.5 92.5703 50.5ZM102.761 56.9091C102.42 56.9091 102.116 56.8807 101.849 56.8239C101.582 56.7727 101.398 56.7216 101.295 56.6705L101.807 54.8977C102.295 55.0227 102.727 55.0682 103.102 55.0341C103.477 55 103.81 54.8324 104.099 54.5312C104.395 54.2358 104.665 53.7557 104.909 53.0909L105.284 52.0682L100.443 38.9091H102.625L106.239 49.3409H106.375L109.989 38.9091H112.17L106.614 53.9091C106.364 54.5852 106.054 55.1449 105.685 55.5881C105.315 56.0369 104.886 56.3693 104.398 56.5852C103.915 56.8011 103.369 56.9091 102.761 56.9091ZM124.518 38.9091V52H122.506V38.9091H124.518ZM123.734 45.1477V47.0227C123.279 47.1932 122.827 47.3438 122.379 47.4744C121.93 47.5994 121.458 47.6989 120.964 47.7727C120.469 47.8409 119.927 47.875 119.336 47.875C117.853 47.875 116.663 47.4744 115.765 46.6733C114.873 45.8722 114.427 44.6705 114.427 43.0682V38.875H116.438V43.0682C116.438 43.7386 116.566 44.2898 116.822 44.7216C117.077 45.1534 117.424 45.4744 117.862 45.6847C118.299 45.8949 118.79 46 119.336 46C120.188 46 120.958 45.9233 121.646 45.7699C122.339 45.6108 123.035 45.4034 123.734 45.1477ZM130.219 49.0341L136.526 38.9091H138.844V52H136.833V41.875L130.56 52H128.208V38.9091H130.219V49.0341ZM141.369 52V50.125H141.847C142.239 50.125 142.565 50.0483 142.827 49.8949C143.088 49.7358 143.298 49.4602 143.457 49.0682C143.622 48.6705 143.747 48.1193 143.832 47.4148C143.923 46.7045 143.989 45.8011 144.028 44.7045L144.267 38.9091H152.994V52H150.983V40.7841H146.176L145.972 45.4545C145.926 46.5284 145.83 47.4744 145.682 48.2926C145.54 49.1051 145.321 49.7869 145.026 50.3381C144.736 50.8892 144.349 51.304 143.866 51.5824C143.384 51.8608 142.778 52 142.051 52H141.369ZM158.696 49.0341L165.003 38.9091H167.321V52H165.31V41.875L159.037 52H156.685V38.9091H158.696V49.0341ZM176.323 52.2727C175.096 52.2727 174.039 51.983 173.153 51.4034C172.266 50.8239 171.585 50.0256 171.107 49.0085C170.63 47.9915 170.391 46.8295 170.391 45.5227C170.391 44.1932 170.636 43.0199 171.124 42.0028C171.619 40.9801 172.306 40.1818 173.187 39.608C174.073 39.0284 175.107 38.7386 176.289 38.7386C177.21 38.7386 178.039 38.9091 178.778 39.25C179.516 39.5909 180.121 40.0682 180.593 40.6818C181.065 41.2955 181.357 42.0114 181.471 42.8295H179.46C179.306 42.233 178.965 41.7045 178.437 41.2443C177.914 40.7784 177.21 40.5455 176.323 40.5455C175.539 40.5455 174.852 40.75 174.261 41.1591C173.675 41.5625 173.218 42.1335 172.888 42.8722C172.565 43.6051 172.403 44.4659 172.403 45.4545C172.403 46.4659 172.562 47.3466 172.88 48.0966C173.204 48.8466 173.658 49.429 174.244 49.8438C174.835 50.2585 175.528 50.4659 176.323 50.4659C176.846 50.4659 177.32 50.375 177.746 50.1932C178.173 50.0114 178.533 49.75 178.829 49.4091C179.124 49.0682 179.335 48.6591 179.46 48.1818H181.471C181.357 48.9545 181.076 49.6506 180.627 50.2699C180.184 50.8835 179.596 51.3722 178.863 51.7358C178.136 52.0938 177.289 52.2727 176.323 52.2727ZM186.15 43.6477H189.9C191.434 43.6477 192.607 44.0369 193.42 44.8153C194.232 45.5937 194.638 46.5795 194.638 47.7727C194.638 48.5568 194.457 49.2699 194.093 49.9119C193.729 50.5483 193.195 51.0568 192.491 51.4375C191.786 51.8125 190.923 52 189.9 52H184.411V38.9091H186.423V50.125H189.9C190.695 50.125 191.349 49.9148 191.86 49.4943C192.371 49.0739 192.627 48.5341 192.627 47.875C192.627 47.1818 192.371 46.6165 191.86 46.179C191.349 45.7415 190.695 45.5227 189.9 45.5227H186.15V43.6477ZM204.45 52V38.9091H214.746V52H212.734V40.7841H206.462V52H204.45ZM223.737 52.2727C222.555 52.2727 221.518 51.9915 220.626 51.429C219.74 50.8665 219.047 50.0795 218.547 49.0682C218.053 48.0568 217.805 46.875 217.805 45.5227C217.805 44.1591 218.053 42.9687 218.547 41.9517C219.047 40.9347 219.74 40.1449 220.626 39.5824C221.518 39.0199 222.555 38.7386 223.737 38.7386C224.919 38.7386 225.953 39.0199 226.839 39.5824C227.732 40.1449 228.425 40.9347 228.919 41.9517C229.419 42.9687 229.669 44.1591 229.669 45.5227C229.669 46.875 229.419 48.0568 228.919 49.0682C228.425 50.0795 227.732 50.8665 226.839 51.429C225.953 51.9915 224.919 52.2727 223.737 52.2727ZM223.737 50.4659C224.635 50.4659 225.374 50.2358 225.953 49.7756C226.533 49.3153 226.962 48.7102 227.24 47.9602C227.518 47.2102 227.658 46.3977 227.658 45.5227C227.658 44.6477 227.518 43.8324 227.24 43.0767C226.962 42.321 226.533 41.7102 225.953 41.2443C225.374 40.7784 224.635 40.5455 223.737 40.5455C222.839 40.5455 222.101 40.7784 221.521 41.2443C220.942 41.7102 220.513 42.321 220.234 43.0767C219.956 43.8324 219.817 44.6477 219.817 45.5227C219.817 46.3977 219.956 47.2102 220.234 47.9602C220.513 48.7102 220.942 49.3153 221.521 49.7756C222.101 50.2358 222.839 50.4659 223.737 50.4659ZM231.58 52V50.125H232.058C232.45 50.125 232.776 50.0483 233.038 49.8949C233.299 49.7358 233.509 49.4602 233.668 49.0682C233.833 48.6705 233.958 48.1193 234.043 47.4148C234.134 46.7045 234.2 45.8011 234.239 44.7045L234.478 38.9091H243.205V52H241.194V40.7841H236.387L236.183 45.4545C236.137 46.5284 236.04 47.4744 235.893 48.2926C235.751 49.1051 235.532 49.7869 235.237 50.3381C234.947 50.8892 234.56 51.304 234.077 51.5824C233.594 51.8608 232.989 52 232.262 52H231.58ZM248.634 43.6477H252.384C253.918 43.6477 255.092 44.0369 255.904 44.8153C256.717 45.5937 257.123 46.5795 257.123 47.7727C257.123 48.5568 256.941 49.2699 256.577 49.9119C256.214 50.5483 255.68 51.0568 254.975 51.4375C254.271 51.8125 253.407 52 252.384 52H246.896V38.9091H248.907V50.125H252.384C253.18 50.125 253.833 49.9148 254.344 49.4943C254.856 49.0739 255.112 48.5341 255.112 47.875C255.112 47.1818 254.856 46.6165 254.344 46.179C253.833 45.7415 253.18 45.5227 252.384 45.5227H248.634V43.6477ZM259.366 48.6591H261.514C261.56 49.25 261.827 49.6989 262.315 50.0057C262.81 50.3125 263.452 50.4659 264.241 50.4659C265.048 50.4659 265.739 50.3011 266.312 49.9716C266.886 49.6364 267.173 49.0966 267.173 48.3523C267.173 47.9148 267.065 47.5341 266.849 47.2102C266.634 46.8807 266.33 46.625 265.938 46.4432C265.545 46.2614 265.082 46.1705 264.548 46.1705H262.298V44.3636H264.548C265.349 44.3636 265.94 44.1818 266.321 43.8182C266.707 43.4545 266.901 43 266.901 42.4545C266.901 41.8693 266.693 41.4006 266.278 41.0483C265.864 40.6903 265.276 40.5114 264.514 40.5114C263.747 40.5114 263.108 40.6847 262.597 41.0312C262.085 41.3722 261.815 41.8125 261.787 42.3523H259.673C259.696 41.6477 259.912 41.0256 260.321 40.4858C260.73 39.9403 261.287 39.5142 261.991 39.2074C262.696 38.8949 263.503 38.7386 264.412 38.7386C265.332 38.7386 266.131 38.9006 266.807 39.2244C267.489 39.5426 268.014 39.9773 268.384 40.5284C268.759 41.0739 268.946 41.6932 268.946 42.3864C268.946 43.125 268.739 43.7216 268.324 44.1761C267.909 44.6307 267.389 44.9545 266.764 45.1477V45.2841C267.259 45.3182 267.688 45.4773 268.051 45.7614C268.42 46.0398 268.707 46.4062 268.912 46.8608C269.116 47.3097 269.219 47.8068 269.219 48.3523C269.219 49.1477 269.006 49.8409 268.58 50.4318C268.153 51.017 267.568 51.4716 266.824 51.7955C266.08 52.1136 265.23 52.2727 264.276 52.2727C263.349 52.2727 262.52 52.1222 261.787 51.821C261.054 51.5142 260.472 51.0909 260.04 50.5511C259.614 50.0057 259.389 49.375 259.366 48.6591ZM277.362 52.2727C276.18 52.2727 275.143 51.9915 274.251 51.429C273.365 50.8665 272.672 50.0795 272.172 49.0682C271.678 48.0568 271.43 46.875 271.43 45.5227C271.43 44.1591 271.678 42.9687 272.172 41.9517C272.672 40.9347 273.365 40.1449 274.251 39.5824C275.143 39.0199 276.18 38.7386 277.362 38.7386C278.544 38.7386 279.578 39.0199 280.464 39.5824C281.357 40.1449 282.05 40.9347 282.544 41.9517C283.044 42.9687 283.294 44.1591 283.294 45.5227C283.294 46.875 283.044 48.0568 282.544 49.0682C282.05 50.0795 281.357 50.8665 280.464 51.429C279.578 51.9915 278.544 52.2727 277.362 52.2727ZM277.362 50.4659C278.26 50.4659 278.999 50.2358 279.578 49.7756C280.158 49.3153 280.587 48.7102 280.865 47.9602C281.143 47.2102 281.283 46.3977 281.283 45.5227C281.283 44.6477 281.143 43.8324 280.865 43.0767C280.587 42.321 280.158 41.7102 279.578 41.2443C278.999 40.7784 278.26 40.5455 277.362 40.5455C276.464 40.5455 275.726 40.7784 275.146 41.2443C274.567 41.7102 274.138 42.321 273.859 43.0767C273.581 43.8324 273.442 44.6477 273.442 45.5227C273.442 46.3977 273.581 47.2102 273.859 47.9602C274.138 48.7102 274.567 49.3153 275.146 49.7756C275.726 50.2358 276.464 50.4659 277.362 50.4659ZM286.364 52V38.9091H291.717C293.126 38.9091 294.245 39.2273 295.075 39.8636C295.904 40.5 296.319 41.3409 296.319 42.3864C296.319 43.1818 296.083 43.7983 295.612 44.2358C295.14 44.6676 294.535 44.9602 293.796 45.1136C294.279 45.1818 294.748 45.3523 295.202 45.625C295.663 45.8977 296.043 46.2727 296.344 46.75C296.646 47.2216 296.796 47.8011 296.796 48.4886C296.796 49.1591 296.626 49.7585 296.285 50.2869C295.944 50.8153 295.455 51.233 294.819 51.5398C294.183 51.8466 293.421 52 292.535 52H286.364ZM288.273 50.1591H292.535C293.228 50.1591 293.771 49.9943 294.163 49.6648C294.555 49.3352 294.751 48.8864 294.751 48.3182C294.751 47.642 294.555 47.1108 294.163 46.7244C293.771 46.3324 293.228 46.1364 292.535 46.1364H288.273V50.1591ZM288.273 44.3977H291.717C292.256 44.3977 292.719 44.3239 293.106 44.1761C293.492 44.0227 293.788 43.8068 293.992 43.5284C294.202 43.2443 294.308 42.9091 294.308 42.5227C294.308 41.9716 294.077 41.5398 293.617 41.2273C293.157 40.9091 292.523 40.75 291.717 40.75H288.273V44.3977ZM303.693 52.3068C302.864 52.3068 302.111 52.1506 301.435 51.8381C300.759 51.5199 300.222 51.0625 299.824 50.4659C299.426 49.8636 299.227 49.1364 299.227 48.2841C299.227 47.5341 299.375 46.9261 299.67 46.4602C299.966 45.9886 300.361 45.6193 300.855 45.3523C301.349 45.0852 301.895 44.8864 302.491 44.7557C303.094 44.6193 303.699 44.5114 304.307 44.4318C305.102 44.3295 305.747 44.2528 306.241 44.2017C306.741 44.1449 307.105 44.0511 307.332 43.9205C307.565 43.7898 307.682 43.5625 307.682 43.2386V43.1705C307.682 42.3295 307.452 41.6761 306.991 41.2102C306.537 40.7443 305.847 40.5114 304.92 40.5114C303.96 40.5114 303.207 40.7216 302.662 41.142C302.116 41.5625 301.733 42.0114 301.511 42.4886L299.602 41.8068C299.943 41.0114 300.398 40.392 300.966 39.9489C301.54 39.5 302.165 39.1875 302.841 39.0114C303.523 38.8295 304.193 38.7386 304.852 38.7386C305.273 38.7386 305.756 38.7898 306.301 38.892C306.852 38.9886 307.384 39.1903 307.895 39.4972C308.412 39.804 308.841 40.267 309.182 40.8864C309.523 41.5057 309.693 42.3352 309.693 43.375V52H307.682V50.2273H307.58C307.443 50.5114 307.216 50.8153 306.898 51.1392C306.58 51.4631 306.156 51.7386 305.628 51.9659C305.099 52.1932 304.455 52.3068 303.693 52.3068ZM304 50.5C304.795 50.5 305.466 50.3438 306.011 50.0312C306.563 49.7188 306.977 49.3153 307.256 48.821C307.54 48.3267 307.682 47.8068 307.682 47.2614V45.4205C307.597 45.5227 307.409 45.6165 307.119 45.7017C306.835 45.7812 306.506 45.8523 306.131 45.9148C305.761 45.9716 305.401 46.0227 305.048 46.0682C304.702 46.108 304.42 46.142 304.205 46.1705C303.682 46.2386 303.193 46.3494 302.739 46.5028C302.29 46.6506 301.926 46.875 301.648 47.1761C301.375 47.4716 301.239 47.875 301.239 48.3864C301.239 49.0852 301.497 49.6136 302.014 49.9716C302.537 50.3239 303.199 50.5 304 50.5ZM311.583 40.7841V38.9091H322.219V40.7841H317.924V52H315.913V40.7841H311.583ZM326.892 43.6477H330.642C332.176 43.6477 333.349 44.0369 334.162 44.8153C334.974 45.5937 335.381 46.5795 335.381 47.7727C335.381 48.5568 335.199 49.2699 334.835 49.9119C334.472 50.5483 333.938 51.0568 333.233 51.4375C332.528 51.8125 331.665 52 330.642 52H325.153V38.9091H327.165V50.125H330.642C331.438 50.125 332.091 49.9148 332.602 49.4943C333.114 49.0739 333.369 48.5341 333.369 47.875C333.369 47.1818 333.114 46.6165 332.602 46.179C332.091 45.7415 331.438 45.5227 330.642 45.5227H326.892V43.6477ZM343.761 52.2727C342.533 52.2727 341.477 51.983 340.59 51.4034C339.704 50.8239 339.022 50.0256 338.545 49.0085C338.067 47.9915 337.829 46.8295 337.829 45.5227C337.829 44.1932 338.073 43.0199 338.562 42.0028C339.056 40.9801 339.744 40.1818 340.624 39.608C341.511 39.0284 342.545 38.7386 343.727 38.7386C344.647 38.7386 345.477 38.9091 346.215 39.25C346.954 39.5909 347.559 40.0682 348.031 40.6818C348.502 41.2955 348.795 42.0114 348.908 42.8295H346.897C346.744 42.233 346.403 41.7045 345.874 41.2443C345.352 40.7784 344.647 40.5455 343.761 40.5455C342.977 40.5455 342.289 40.75 341.698 41.1591C341.113 41.5625 340.656 42.1335 340.326 42.8722C340.002 43.6051 339.84 44.4659 339.84 45.4545C339.84 46.4659 339.999 47.3466 340.317 48.0966C340.641 48.8466 341.096 49.429 341.681 49.8438C342.272 50.2585 342.965 50.4659 343.761 50.4659C344.283 50.4659 344.758 50.375 345.184 50.1932C345.61 50.0114 345.971 49.75 346.266 49.4091C346.562 49.0682 346.772 48.6591 346.897 48.1818H348.908C348.795 48.9545 348.513 49.6506 348.065 50.2699C347.621 50.8835 347.033 51.3722 346.3 51.7358C345.573 52.0938 344.727 52.2727 343.761 52.2727ZM359.724 52V40.75H356.246C355.462 40.75 354.846 40.9318 354.397 41.2955C353.948 41.6591 353.724 42.1591 353.724 42.7955C353.724 43.4205 353.925 43.9119 354.329 44.2699C354.738 44.6278 355.298 44.8068 356.008 44.8068H360.235V46.6818H356.008C355.121 46.6818 354.357 46.5256 353.715 46.2131C353.073 45.9006 352.579 45.4545 352.232 44.875C351.886 44.2898 351.712 43.5966 351.712 42.7955C351.712 41.9886 351.894 41.2955 352.258 40.7159C352.621 40.1364 353.141 39.6903 353.817 39.3778C354.499 39.0653 355.309 38.9091 356.246 38.9091H361.633V52H359.724ZM350.996 52L354.712 45.4886H356.894L353.178 52H350.996ZM376.405 40.6136C375.95 40.6193 375.493 40.7358 375.033 40.9631C374.578 41.1903 374.197 41.4915 373.891 41.8665C373.589 42.2358 373.439 42.6477 373.439 43.1023H371.462C371.462 42.5341 371.598 41.9886 371.871 41.4659C372.143 40.9432 372.51 40.4773 372.97 40.0682C373.436 39.6591 373.964 39.3352 374.555 39.0966C375.152 38.858 375.768 38.7386 376.405 38.7386C377.598 38.7386 378.609 39.0398 379.439 39.642C380.274 40.2443 380.908 41.0398 381.339 42.0284C381.777 43.017 381.996 44.0909 381.996 45.25V45.7273C381.996 46.8807 381.777 47.9545 381.339 48.9489C380.908 49.9375 380.274 50.733 379.439 51.3352C378.609 51.9375 377.598 52.2386 376.405 52.2386C375.45 52.2386 374.601 52.0284 373.857 51.608C373.112 51.1818 372.527 50.6136 372.101 49.9034C371.675 49.1932 371.462 48.4034 371.462 47.5341H373.439C373.439 48.0284 373.578 48.4915 373.857 48.9233C374.141 49.3494 374.507 49.696 374.956 49.9631C375.411 50.2244 375.893 50.358 376.405 50.3636C377.166 50.358 377.814 50.1193 378.348 49.6477C378.882 49.1761 379.288 48.5852 379.567 47.875C379.845 47.1648 379.984 46.4489 379.984 45.7273V45.25C379.984 44.5114 379.845 43.7898 379.567 43.0852C379.294 42.375 378.891 41.7869 378.357 41.321C377.828 40.8551 377.178 40.6193 376.405 40.6136ZM380.803 44.4659V46.3409H375.075V44.4659H380.803ZM383.349 40.7841V38.9091H393.985V40.7841H389.69V52H387.678V40.7841H383.349ZM401.558 52.2727C400.376 52.2727 399.339 51.9915 398.447 51.429C397.56 50.8665 396.867 50.0795 396.367 49.0682C395.873 48.0568 395.626 46.875 395.626 45.5227C395.626 44.1591 395.873 42.9687 396.367 41.9517C396.867 40.9347 397.56 40.1449 398.447 39.5824C399.339 39.0199 400.376 38.7386 401.558 38.7386C402.739 38.7386 403.773 39.0199 404.66 39.5824C405.552 40.1449 406.245 40.9347 406.739 41.9517C407.239 42.9687 407.489 44.1591 407.489 45.5227C407.489 46.875 407.239 48.0568 406.739 49.0682C406.245 50.0795 405.552 50.8665 404.66 51.429C403.773 51.9915 402.739 52.2727 401.558 52.2727ZM401.558 50.4659C402.455 50.4659 403.194 50.2358 403.773 49.7756C404.353 49.3153 404.782 48.7102 405.06 47.9602C405.339 47.2102 405.478 46.3977 405.478 45.5227C405.478 44.6477 405.339 43.8324 405.06 43.0767C404.782 42.321 404.353 41.7102 403.773 41.2443C403.194 40.7784 402.455 40.5455 401.558 40.5455C400.66 40.5455 399.921 40.7784 399.342 41.2443C398.762 41.7102 398.333 42.321 398.055 43.0767C397.776 43.8324 397.637 44.6477 397.637 45.5227C397.637 46.3977 397.776 47.2102 398.055 47.9602C398.333 48.7102 398.762 49.3153 399.342 49.7756C399.921 50.2358 400.66 50.4659 401.558 50.4659ZM412.571 49.0341L418.878 38.9091H421.196V52H419.185V41.875L412.912 52H410.56V38.9091H412.571V49.0341ZM417.548 34.5455H419.423C419.423 35.4659 419.105 36.2188 418.469 36.804C417.832 37.3892 416.969 37.6818 415.878 37.6818C414.804 37.6818 413.949 37.3892 413.312 36.804C412.682 36.2188 412.366 35.4659 412.366 34.5455H414.241C414.241 34.9886 414.364 35.3778 414.608 35.7131C414.858 36.0483 415.281 36.2159 415.878 36.2159C416.474 36.2159 416.901 36.0483 417.156 35.7131C417.418 35.3778 417.548 34.9886 417.548 34.5455ZM436.948 52.2727C435.721 52.2727 434.664 51.983 433.778 51.4034C432.891 50.8239 432.21 50.0256 431.732 49.0085C431.255 47.9915 431.016 46.8295 431.016 45.5227C431.016 44.1932 431.261 43.0199 431.749 42.0028C432.244 40.9801 432.931 40.1818 433.812 39.608C434.698 39.0284 435.732 38.7386 436.914 38.7386C437.835 38.7386 438.664 38.9091 439.403 39.25C440.141 39.5909 440.746 40.0682 441.218 40.6818C441.69 41.2955 441.982 42.0114 442.096 42.8295H440.085C439.931 42.233 439.59 41.7045 439.062 41.2443C438.539 40.7784 437.835 40.5455 436.948 40.5455C436.164 40.5455 435.477 40.75 434.886 41.1591C434.3 41.5625 433.843 42.1335 433.513 42.8722C433.19 43.6051 433.028 44.4659 433.028 45.4545C433.028 46.4659 433.187 47.3466 433.505 48.0966C433.829 48.8466 434.283 49.429 434.869 49.8438C435.46 50.2585 436.153 50.4659 436.948 50.4659C437.471 50.4659 437.945 50.375 438.371 50.1932C438.798 50.0114 439.158 49.75 439.454 49.4091C439.749 49.0682 439.96 48.6591 440.085 48.1818H442.096C441.982 48.9545 441.701 49.6506 441.252 50.2699C440.809 50.8835 440.221 51.3722 439.488 51.7358C438.761 52.0938 437.914 52.2727 436.948 52.2727ZM450.525 52.2727C449.263 52.2727 448.175 51.9943 447.261 51.4375C446.352 50.875 445.65 50.0909 445.156 49.0852C444.667 48.0739 444.423 46.8977 444.423 45.5568C444.423 44.2159 444.667 43.0341 445.156 42.0114C445.65 40.983 446.337 40.1818 447.218 39.608C448.104 39.0284 449.138 38.7386 450.32 38.7386C451.002 38.7386 451.675 38.8523 452.34 39.0795C453.005 39.3068 453.61 39.6761 454.156 40.1875C454.701 40.6932 455.136 41.3636 455.46 42.1989C455.783 43.0341 455.945 44.0625 455.945 45.2841V46.1364H445.854V44.3977H453.9C453.9 43.6591 453.752 43 453.457 42.4205C453.167 41.8409 452.752 41.3835 452.212 41.0483C451.678 40.7131 451.048 40.5455 450.32 40.5455C449.519 40.5455 448.826 40.7443 448.241 41.142C447.661 41.5341 447.215 42.0455 446.903 42.6761C446.59 43.3068 446.434 43.983 446.434 44.7045V45.8636C446.434 46.8523 446.604 47.6903 446.945 48.3778C447.292 49.0597 447.772 49.5795 448.386 49.9375C448.999 50.2898 449.712 50.4659 450.525 50.4659C451.053 50.4659 451.531 50.392 451.957 50.2443C452.388 50.0909 452.761 49.8636 453.073 49.5625C453.386 49.2557 453.627 48.875 453.798 48.4205L455.741 48.9659C455.536 49.625 455.192 50.2045 454.71 50.7045C454.227 51.1989 453.63 51.5852 452.92 51.8636C452.21 52.1364 451.411 52.2727 450.525 52.2727ZM457.786 40.7841V38.9091H468.423V40.7841H464.127V52H462.116V40.7841H457.786ZM473.095 43.6477H476.845C478.379 43.6477 479.553 44.0369 480.365 44.8153C481.178 45.5937 481.584 46.5795 481.584 47.7727C481.584 48.5568 481.402 49.2699 481.038 49.9119C480.675 50.5483 480.141 51.0568 479.436 51.4375C478.732 51.8125 477.868 52 476.845 52H471.357V38.9091H473.368V50.125H476.845C477.641 50.125 478.294 49.9148 478.805 49.4943C479.317 49.0739 479.572 48.5341 479.572 47.875C479.572 47.1818 479.317 46.6165 478.805 46.179C478.294 45.7415 477.641 45.5227 476.845 45.5227H473.095V43.6477ZM490.918 44.6364V46.5114H483.998V44.6364H490.918ZM485.702 38.9091V52H483.691V38.9091H485.702ZM494.941 52.2727C493.759 52.2727 492.722 51.9915 491.83 51.429C490.944 50.8665 490.251 50.0795 489.751 49.0682C489.256 48.0568 489.009 46.875 489.009 45.5227C489.009 44.1591 489.256 42.9687 489.751 41.9517C490.251 40.9347 490.944 40.1449 491.83 39.5824C492.722 39.0199 493.759 38.7386 494.941 38.7386C496.123 38.7386 497.157 39.0199 498.043 39.5824C498.935 40.1449 499.629 40.9347 500.123 41.9517C500.623 42.9687 500.873 44.1591 500.873 45.5227C500.873 46.875 500.623 48.0568 500.123 49.0682C499.629 50.0795 498.935 50.8665 498.043 51.429C497.157 51.9915 496.123 52.2727 494.941 52.2727ZM494.941 50.4659C495.839 50.4659 496.577 50.2358 497.157 49.7756C497.737 49.3153 498.165 48.7102 498.444 47.9602C498.722 47.2102 498.862 46.3977 498.862 45.5227C498.862 44.6477 498.722 43.8324 498.444 43.0767C498.165 42.321 497.737 41.7102 497.157 41.2443C496.577 40.7784 495.839 40.5455 494.941 40.5455C494.043 40.5455 493.305 40.7784 492.725 41.2443C492.146 41.7102 491.717 42.321 491.438 43.0767C491.16 43.8324 491.021 44.6477 491.021 45.5227C491.021 46.3977 491.16 47.2102 491.438 47.9602C491.717 48.7102 492.146 49.3153 492.725 49.7756C493.305 50.2358 494.043 50.4659 494.941 50.4659ZM505.612 52.1364C505.191 52.1364 504.83 51.9858 504.529 51.6847C504.228 51.3835 504.077 51.0227 504.077 50.6023C504.077 50.1818 504.228 49.821 504.529 49.5199C504.83 49.2187 505.191 49.0682 505.612 49.0682C506.032 49.0682 506.393 49.2187 506.694 49.5199C506.995 49.821 507.146 50.1818 507.146 50.6023C507.146 50.8807 507.075 51.1364 506.933 51.3693C506.796 51.6023 506.612 51.7898 506.379 51.9318C506.151 52.0682 505.896 52.1364 505.612 52.1364ZM517.262 52V34.5455H523.364C524.58 34.5455 525.583 34.7557 526.373 35.1761C527.163 35.5909 527.751 36.1506 528.137 36.8551C528.523 37.554 528.717 38.3295 528.717 39.1818C528.717 39.9318 528.583 40.5511 528.316 41.0398C528.055 41.5284 527.708 41.9148 527.276 42.1989C526.85 42.483 526.387 42.6932 525.887 42.8295V43C526.421 43.0341 526.958 43.2216 527.498 43.5625C528.038 43.9034 528.489 44.392 528.853 45.0284C529.217 45.6648 529.398 46.4432 529.398 47.3636C529.398 48.2386 529.2 49.0256 528.802 49.7244C528.404 50.4233 527.776 50.9773 526.918 51.3864C526.06 51.7955 524.944 52 523.569 52H517.262ZM519.376 50.125H523.569C524.95 50.125 525.93 49.858 526.509 49.3239C527.094 48.7841 527.387 48.1307 527.387 47.3636C527.387 46.7727 527.237 46.2273 526.935 45.7273C526.634 45.2216 526.205 44.8182 525.648 44.517C525.092 44.2102 524.433 44.0568 523.671 44.0568H519.376V50.125ZM519.376 42.2159H523.296C523.933 42.2159 524.506 42.0909 525.018 41.8409C525.535 41.5909 525.944 41.2386 526.245 40.7841C526.552 40.3295 526.705 39.7955 526.705 39.1818C526.705 38.4148 526.438 37.7642 525.904 37.2301C525.37 36.6903 524.523 36.4205 523.364 36.4205H519.376V42.2159ZM537.917 52.2727C536.69 52.2727 535.633 51.983 534.746 51.4034C533.86 50.8239 533.178 50.0256 532.701 49.0085C532.224 47.9915 531.985 46.8295 531.985 45.5227C531.985 44.1932 532.229 43.0199 532.718 42.0028C533.212 40.9801 533.9 40.1818 534.781 39.608C535.667 39.0284 536.701 38.7386 537.883 38.7386C538.803 38.7386 539.633 38.9091 540.371 39.25C541.11 39.5909 541.715 40.0682 542.187 40.6818C542.658 41.2955 542.951 42.0114 543.065 42.8295H541.053C540.9 42.233 540.559 41.7045 540.031 41.2443C539.508 40.7784 538.803 40.5455 537.917 40.5455C537.133 40.5455 536.445 40.75 535.854 41.1591C535.269 41.5625 534.812 42.1335 534.482 42.8722C534.158 43.6051 533.996 44.4659 533.996 45.4545C533.996 46.4659 534.156 47.3466 534.474 48.0966C534.798 48.8466 535.252 49.429 535.837 49.8438C536.428 50.2585 537.121 50.4659 537.917 50.4659C538.44 50.4659 538.914 50.375 539.34 50.1932C539.766 50.0114 540.127 49.75 540.423 49.4091C540.718 49.0682 540.928 48.6591 541.053 48.1818H543.065C542.951 48.9545 542.67 49.6506 542.221 50.2699C541.778 50.8835 541.19 51.3722 540.457 51.7358C539.729 52.0938 538.883 52.2727 537.917 52.2727ZM553.88 52V40.75H550.403C549.619 40.75 549.002 40.9318 548.553 41.2955C548.104 41.6591 547.88 42.1591 547.88 42.7955C547.88 43.4205 548.082 43.9119 548.485 44.2699C548.894 44.6278 549.454 44.8068 550.164 44.8068H554.391V46.6818H550.164C549.278 46.6818 548.513 46.5256 547.871 46.2131C547.229 45.9006 546.735 45.4545 546.388 44.875C546.042 44.2898 545.869 43.5966 545.869 42.7955C545.869 41.9886 546.05 41.2955 546.414 40.7159C546.778 40.1364 547.298 39.6903 547.974 39.3778C548.656 39.0653 549.465 38.9091 550.403 38.9091H555.789V52H553.88ZM545.153 52L548.869 45.4886H551.05L547.335 52H545.153ZM566.232 52V38.9091H576.527V52H574.516V40.7841H568.243V52H566.232ZM584.053 52.3068C583.223 52.3068 582.47 52.1506 581.794 51.8381C581.118 51.5199 580.581 51.0625 580.183 50.4659C579.786 49.8636 579.587 49.1364 579.587 48.2841C579.587 47.5341 579.734 46.9261 580.03 46.4602C580.325 45.9886 580.72 45.6193 581.214 45.3523C581.709 45.0852 582.254 44.8864 582.851 44.7557C583.453 44.6193 584.058 44.5114 584.666 44.4318C585.462 44.3295 586.107 44.2528 586.601 44.2017C587.101 44.1449 587.464 44.0511 587.692 43.9205C587.925 43.7898 588.041 43.5625 588.041 43.2386V43.1705C588.041 42.3295 587.811 41.6761 587.351 41.2102C586.896 40.7443 586.206 40.5114 585.28 40.5114C584.32 40.5114 583.567 40.7216 583.021 41.142C582.476 41.5625 582.092 42.0114 581.871 42.4886L579.962 41.8068C580.303 41.0114 580.757 40.392 581.325 39.9489C581.899 39.5 582.524 39.1875 583.2 39.0114C583.882 38.8295 584.553 38.7386 585.212 38.7386C585.632 38.7386 586.115 38.7898 586.661 38.892C587.212 38.9886 587.743 39.1903 588.254 39.4972C588.771 39.804 589.2 40.267 589.541 40.8864C589.882 41.5057 590.053 42.3352 590.053 43.375V52H588.041V50.2273H587.939C587.803 50.5114 587.575 50.8153 587.257 51.1392C586.939 51.4631 586.516 51.7386 585.987 51.9659C585.459 52.1932 584.814 52.3068 584.053 52.3068ZM584.359 50.5C585.155 50.5 585.825 50.3438 586.371 50.0312C586.922 49.7188 587.337 49.3153 587.615 48.821C587.899 48.3267 588.041 47.8068 588.041 47.2614V45.4205C587.956 45.5227 587.768 45.6165 587.479 45.7017C587.195 45.7812 586.865 45.8523 586.49 45.9148C586.121 45.9716 585.76 46.0227 585.408 46.0682C585.061 46.108 584.78 46.142 584.564 46.1705C584.041 46.2386 583.553 46.3494 583.098 46.5028C582.649 46.6506 582.286 46.875 582.007 47.1761C581.734 47.4716 581.598 47.875 581.598 48.3864C581.598 49.0852 581.857 49.6136 582.374 49.9716C582.896 50.3239 583.558 50.5 584.359 50.5ZM594.55 56.9091C594.21 56.9091 593.906 56.8807 593.638 56.8239C593.371 56.7727 593.187 56.7216 593.085 56.6705L593.596 54.8977C594.085 55.0227 594.516 55.0682 594.891 55.0341C595.266 55 595.599 54.8324 595.888 54.5312C596.184 54.2358 596.454 53.7557 596.698 53.0909L597.073 52.0682L592.232 38.9091H594.414L598.028 49.3409H598.164L601.778 38.9091H603.96L598.403 53.9091C598.153 54.5852 597.843 55.1449 597.474 55.5881C597.104 56.0369 596.675 56.3693 596.187 56.5852C595.704 56.8011 595.158 56.9091 594.55 56.9091ZM605.864 40.7841V38.9091H616.501V40.7841H612.205V52H610.194V40.7841H605.864ZM621.446 49.0341L627.753 38.9091H630.071V52H628.06V41.875L621.787 52H619.435V38.9091H621.446V49.0341ZM642.516 44.5341V46.4091H635.289V44.5341H642.516ZM635.766 38.9091V52H633.755V38.9091H635.766ZM644.05 38.9091V52H642.039V38.9091H644.05ZM651.576 52.3068C650.746 52.3068 649.994 52.1506 649.317 51.8381C648.641 51.5199 648.104 51.0625 647.707 50.4659C647.309 49.8636 647.11 49.1364 647.11 48.2841C647.11 47.5341 647.258 46.9261 647.553 46.4602C647.849 45.9886 648.244 45.6193 648.738 45.3523C649.232 45.0852 649.778 44.8864 650.374 44.7557C650.977 44.6193 651.582 44.5114 652.19 44.4318C652.985 44.3295 653.63 44.2528 654.124 44.2017C654.624 44.1449 654.988 44.0511 655.215 43.9205C655.448 43.7898 655.565 43.5625 655.565 43.2386V43.1705C655.565 42.3295 655.335 41.6761 654.874 41.2102C654.42 40.7443 653.729 40.5114 652.803 40.5114C651.843 40.5114 651.09 40.7216 650.545 41.142C649.999 41.5625 649.616 42.0114 649.394 42.4886L647.485 41.8068C647.826 41.0114 648.281 40.392 648.849 39.9489C649.423 39.5 650.048 39.1875 650.724 39.0114C651.406 38.8295 652.076 38.7386 652.735 38.7386C653.156 38.7386 653.638 38.7898 654.184 38.892C654.735 38.9886 655.266 39.1903 655.778 39.4972C656.295 39.804 656.724 40.267 657.065 40.8864C657.406 41.5057 657.576 42.3352 657.576 43.375V52H655.565V50.2273H655.462C655.326 50.5114 655.099 50.8153 654.781 51.1392C654.462 51.4631 654.039 51.7386 653.511 51.9659C652.982 52.1932 652.337 52.3068 651.576 52.3068ZM651.883 50.5C652.678 50.5 653.349 50.3438 653.894 50.0312C654.445 49.7188 654.86 49.3153 655.138 48.821C655.423 48.3267 655.565 47.8068 655.565 47.2614V45.4205C655.479 45.5227 655.292 45.6165 655.002 45.7017C654.718 45.7812 654.388 45.8523 654.013 45.9148C653.644 45.9716 653.283 46.0227 652.931 46.0682C652.585 46.108 652.303 46.142 652.087 46.1705C651.565 46.2386 651.076 46.3494 650.621 46.5028C650.173 46.6506 649.809 46.875 649.531 47.1761C649.258 47.4716 649.121 47.875 649.121 48.3864C649.121 49.0852 649.38 49.6136 649.897 49.9716C650.42 50.3239 651.082 50.5 651.883 50.5ZM33.6591 88.2727C32.4318 88.2727 31.375 87.983 30.4886 87.4034C29.6023 86.8239 28.9205 86.0256 28.4432 85.0085C27.9659 83.9915 27.7273 82.8295 27.7273 81.5227C27.7273 80.1932 27.9716 79.0199 28.4602 78.0028C28.9545 76.9801 29.642 76.1818 30.5227 75.608C31.4091 75.0284 32.4432 74.7386 33.625 74.7386C34.5455 74.7386 35.375 74.9091 36.1136 75.25C36.8523 75.5909 37.4574 76.0682 37.929 76.6818C38.4006 77.2955 38.6932 78.0114 38.8068 78.8295H36.7955C36.642 78.233 36.3011 77.7045 35.7727 77.2443C35.25 76.7784 34.5455 76.5455 33.6591 76.5455C32.875 76.5455 32.1875 76.75 31.5966 77.1591C31.0114 77.5625 30.554 78.1335 30.2244 78.8722C29.9006 79.6051 29.7386 80.4659 29.7386 81.4545C29.7386 82.4659 29.8977 83.3466 30.2159 84.0966C30.5398 84.8466 30.9943 85.429 31.5795 85.8438C32.1705 86.2585 32.8636 86.4659 33.6591 86.4659C34.1818 86.4659 34.6562 86.375 35.0824 86.1932C35.5085 86.0114 35.8693 85.75 36.1648 85.4091C36.4602 85.0682 36.6705 84.6591 36.7955 84.1818H38.8068C38.6932 84.9545 38.4119 85.6506 37.9631 86.2699C37.5199 86.8835 36.9318 87.3722 36.1989 87.7358C35.4716 88.0938 34.625 88.2727 33.6591 88.2727ZM40.7159 76.7841V74.9091H51.3523V76.7841H47.0568V88H45.0455V76.7841H40.7159ZM57.4588 88.3068C56.6293 88.3068 55.8764 88.1506 55.2003 87.8381C54.5241 87.5199 53.9872 87.0625 53.5895 86.4659C53.1918 85.8636 52.9929 85.1364 52.9929 84.2841C52.9929 83.5341 53.1406 82.9261 53.4361 82.4602C53.7315 81.9886 54.1264 81.6193 54.6207 81.3523C55.1151 81.0852 55.6605 80.8864 56.2571 80.7557C56.8594 80.6193 57.4645 80.5114 58.0724 80.4318C58.8679 80.3295 59.5128 80.2528 60.0071 80.2017C60.5071 80.1449 60.8707 80.0511 61.098 79.9205C61.331 79.7898 61.4474 79.5625 61.4474 79.2386V79.1705C61.4474 78.3295 61.2173 77.6761 60.7571 77.2102C60.3026 76.7443 59.6122 76.5114 58.6861 76.5114C57.7259 76.5114 56.973 76.7216 56.4276 77.142C55.8821 77.5625 55.4986 78.0114 55.277 78.4886L53.3679 77.8068C53.7088 77.0114 54.1634 76.392 54.7315 75.9489C55.3054 75.5 55.9304 75.1875 56.6065 75.0114C57.2884 74.8295 57.9588 74.7386 58.6179 74.7386C59.0384 74.7386 59.5213 74.7898 60.0668 74.892C60.6179 74.9886 61.1491 75.1903 61.6605 75.4972C62.1776 75.804 62.6065 76.267 62.9474 76.8864C63.2884 77.5057 63.4588 78.3352 63.4588 79.375V88H61.4474V86.2273H61.3452C61.2088 86.5114 60.9815 86.8153 60.6634 87.1392C60.3452 87.4631 59.9219 87.7386 59.3935 87.9659C58.8651 88.1932 58.2202 88.3068 57.4588 88.3068ZM57.7656 86.5C58.5611 86.5 59.2315 86.3438 59.777 86.0312C60.3281 85.7188 60.7429 85.3153 61.0213 84.821C61.3054 84.3267 61.4474 83.8068 61.4474 83.2614V81.4205C61.3622 81.5227 61.1747 81.6165 60.8849 81.7017C60.6009 81.7812 60.2713 81.8523 59.8963 81.9148C59.527 81.9716 59.1662 82.0227 58.8139 82.0682C58.4673 82.108 58.1861 82.142 57.9702 82.1705C57.4474 82.2386 56.9588 82.3494 56.5043 82.5028C56.0554 82.6506 55.6918 82.875 55.4134 83.1761C55.1406 83.4716 55.0043 83.875 55.0043 84.3864C55.0043 85.0852 55.2628 85.6136 55.7798 85.9716C56.3026 86.3239 56.9645 86.5 57.7656 86.5ZM65.9709 88V86.125H66.4482C66.8402 86.125 67.1669 86.0483 67.4283 85.8949C67.6896 85.7358 67.8999 85.4602 68.0589 85.0682C68.2237 84.6705 68.3487 84.1193 68.4339 83.4148C68.5249 82.7045 68.5902 81.8011 68.63 80.7045L68.8686 74.9091H77.5959V88H75.5845V76.7841H70.7777L70.5732 81.4545C70.5277 82.5284 70.4311 83.4744 70.2834 84.2926C70.1413 85.1051 69.9226 85.7869 69.6271 86.3381C69.3374 86.8892 68.951 87.304 68.468 87.5824C67.9851 87.8608 67.38 88 66.6527 88H65.9709ZM85.1385 88.3068C84.3089 88.3068 83.5561 88.1506 82.88 87.8381C82.2038 87.5199 81.6669 87.0625 81.2692 86.4659C80.8714 85.8636 80.6726 85.1364 80.6726 84.2841C80.6726 83.5341 80.8203 82.9261 81.1158 82.4602C81.4112 81.9886 81.8061 81.6193 82.3004 81.3523C82.7947 81.0852 83.3402 80.8864 83.9368 80.7557C84.5391 80.6193 85.1442 80.5114 85.7521 80.4318C86.5476 80.3295 87.1925 80.2528 87.6868 80.2017C88.1868 80.1449 88.5504 80.0511 88.7777 79.9205C89.0107 79.7898 89.1271 79.5625 89.1271 79.2386V79.1705C89.1271 78.3295 88.897 77.6761 88.4368 77.2102C87.9822 76.7443 87.2919 76.5114 86.3658 76.5114C85.4055 76.5114 84.6527 76.7216 84.1072 77.142C83.5618 77.5625 83.1783 78.0114 82.9567 78.4886L81.0476 77.8068C81.3885 77.0114 81.843 76.392 82.4112 75.9489C82.9851 75.5 83.6101 75.1875 84.2862 75.0114C84.968 74.8295 85.6385 74.7386 86.2976 74.7386C86.718 74.7386 87.201 74.7898 87.7464 74.892C88.2976 74.9886 88.8288 75.1903 89.3402 75.4972C89.8572 75.804 90.2862 76.267 90.6271 76.8864C90.968 77.5057 91.1385 78.3352 91.1385 79.375V88H89.1271V86.2273H89.0249C88.8885 86.5114 88.6612 86.8153 88.343 87.1392C88.0249 87.4631 87.6016 87.7386 87.0732 87.9659C86.5447 88.1932 85.8999 88.3068 85.1385 88.3068ZM85.4453 86.5C86.2408 86.5 86.9112 86.3438 87.4567 86.0312C88.0078 85.7188 88.4226 85.3153 88.701 84.821C88.9851 84.3267 89.1271 83.8068 89.1271 83.2614V81.4205C89.0419 81.5227 88.8544 81.6165 88.5646 81.7017C88.2805 81.7812 87.951 81.8523 87.576 81.9148C87.2067 81.9716 86.8459 82.0227 86.4936 82.0682C86.147 82.108 85.8658 82.142 85.6499 82.1705C85.1271 82.2386 84.6385 82.3494 84.1839 82.5028C83.7351 82.6506 83.3714 82.875 83.093 83.1761C82.8203 83.4716 82.6839 83.875 82.6839 84.3864C82.6839 85.0852 82.9425 85.6136 83.4595 85.9716C83.9822 86.3239 84.6442 86.5 85.4453 86.5ZM110.321 80.5341V82.4091H103.094V80.5341H110.321ZM103.571 74.9091V88H101.56V74.9091H103.571ZM111.855 74.9091V88H109.844V74.9091H111.855ZM119.381 88.3068C118.551 88.3068 117.798 88.1506 117.122 87.8381C116.446 87.5199 115.909 87.0625 115.511 86.4659C115.114 85.8636 114.915 85.1364 114.915 84.2841C114.915 83.5341 115.063 82.9261 115.358 82.4602C115.653 81.9886 116.048 81.6193 116.543 81.3523C117.037 81.0852 117.582 80.8864 118.179 80.7557C118.781 80.6193 119.386 80.5114 119.994 80.4318C120.79 80.3295 121.435 80.2528 121.929 80.2017C122.429 80.1449 122.793 80.0511 123.02 79.9205C123.253 79.7898 123.369 79.5625 123.369 79.2386V79.1705C123.369 78.3295 123.139 77.6761 122.679 77.2102C122.224 76.7443 121.534 76.5114 120.608 76.5114C119.648 76.5114 118.895 76.7216 118.349 77.142C117.804 77.5625 117.42 78.0114 117.199 78.4886L115.29 77.8068C115.631 77.0114 116.085 76.392 116.653 75.9489C117.227 75.5 117.852 75.1875 118.528 75.0114C119.21 74.8295 119.881 74.7386 120.54 74.7386C120.96 74.7386 121.443 74.7898 121.989 74.892C122.54 74.9886 123.071 75.1903 123.582 75.4972C124.099 75.804 124.528 76.267 124.869 76.8864C125.21 77.5057 125.381 78.3352 125.381 79.375V88H123.369V86.2273H123.267C123.131 86.5114 122.903 86.8153 122.585 87.1392C122.267 87.4631 121.844 87.7386 121.315 87.9659C120.787 88.1932 120.142 88.3068 119.381 88.3068ZM119.688 86.5C120.483 86.5 121.153 86.3438 121.699 86.0312C122.25 85.7188 122.665 85.3153 122.943 84.821C123.227 84.3267 123.369 83.8068 123.369 83.2614V81.4205C123.284 81.5227 123.097 81.6165 122.807 81.7017C122.523 81.7812 122.193 81.8523 121.818 81.9148C121.449 81.9716 121.088 82.0227 120.736 82.0682C120.389 82.108 120.108 82.142 119.892 82.1705C119.369 82.2386 118.881 82.3494 118.426 82.5028C117.977 82.6506 117.614 82.875 117.335 83.1761C117.063 83.4716 116.926 83.875 116.926 84.3864C116.926 85.0852 117.185 85.6136 117.702 85.9716C118.224 86.3239 118.886 86.5 119.688 86.5ZM129.052 74.9091H131.063V86.125H136.006V74.9091H138.018V86.125H142.961V74.9091H144.972V88H129.052V74.9091ZM154.134 88.2727C152.873 88.2727 151.785 87.9943 150.87 87.4375C149.961 86.875 149.259 86.0909 148.765 85.0852C148.276 84.0739 148.032 82.8977 148.032 81.5568C148.032 80.2159 148.276 79.0341 148.765 78.0114C149.259 76.983 149.947 76.1818 150.827 75.608C151.714 75.0284 152.748 74.7386 153.93 74.7386C154.612 74.7386 155.285 74.8523 155.95 75.0795C156.614 75.3068 157.219 75.6761 157.765 76.1875C158.31 76.6932 158.745 77.3636 159.069 78.1989C159.393 79.0341 159.555 80.0625 159.555 81.2841V82.1364H149.464V80.3977H157.509C157.509 79.6591 157.362 79 157.066 78.4205C156.776 77.8409 156.362 77.3835 155.822 77.0483C155.288 76.7131 154.657 76.5455 153.93 76.5455C153.129 76.5455 152.435 76.7443 151.85 77.142C151.271 77.5341 150.825 78.0455 150.512 78.6761C150.2 79.3068 150.043 79.983 150.043 80.7045V81.8636C150.043 82.8523 150.214 83.6903 150.555 84.3778C150.901 85.0597 151.381 85.5795 151.995 85.9375C152.609 86.2898 153.322 86.4659 154.134 86.4659C154.663 86.4659 155.14 86.392 155.566 86.2443C155.998 86.0909 156.37 85.8636 156.683 85.5625C156.995 85.2557 157.237 84.875 157.407 84.4205L159.35 84.9659C159.146 85.625 158.802 86.2045 158.319 86.7045C157.836 87.1989 157.239 87.5852 156.529 87.8636C155.819 88.1364 155.021 88.2727 154.134 88.2727ZM164.626 85.0341L170.933 74.9091H173.251V88H171.239V77.875L164.967 88H162.614V74.9091H164.626V85.0341ZM169.603 70.5455H171.478C171.478 71.4659 171.16 72.2188 170.523 72.804C169.887 73.3892 169.023 73.6818 167.933 73.6818C166.859 73.6818 166.004 73.3892 165.367 72.804C164.737 72.2188 164.421 71.4659 164.421 70.5455H166.296C166.296 70.9886 166.418 71.3778 166.663 71.7131C166.913 72.0483 167.336 72.2159 167.933 72.2159C168.529 72.2159 168.955 72.0483 169.211 71.7131C169.472 71.3778 169.603 70.9886 169.603 70.5455ZM182.935 76.7841V74.9091H193.571V76.7841H189.276V88H187.264V76.7841H182.935ZM201.314 88.2727C200.053 88.2727 198.964 87.9943 198.05 87.4375C197.141 86.875 196.439 86.0909 195.945 85.0852C195.456 84.0739 195.212 82.8977 195.212 81.5568C195.212 80.2159 195.456 79.0341 195.945 78.0114C196.439 76.983 197.126 76.1818 198.007 75.608C198.893 75.0284 199.928 74.7386 201.109 74.7386C201.791 74.7386 202.464 74.8523 203.129 75.0795C203.794 75.3068 204.399 75.6761 204.945 76.1875C205.49 76.6932 205.925 77.3636 206.249 78.1989C206.572 79.0341 206.734 80.0625 206.734 81.2841V82.1364H196.643V80.3977H204.689C204.689 79.6591 204.541 79 204.246 78.4205C203.956 77.8409 203.541 77.3835 203.001 77.0483C202.467 76.7131 201.837 76.5455 201.109 76.5455C200.308 76.5455 199.615 76.7443 199.03 77.142C198.45 77.5341 198.004 78.0455 197.692 78.6761C197.379 79.3068 197.223 79.983 197.223 80.7045V81.8636C197.223 82.8523 197.393 83.6903 197.734 84.3778C198.081 85.0597 198.561 85.5795 199.175 85.9375C199.788 86.2898 200.501 86.4659 201.314 86.4659C201.842 86.4659 202.32 86.392 202.746 86.2443C203.178 86.0909 203.55 85.8636 203.862 85.5625C204.175 85.2557 204.416 84.875 204.587 84.4205L206.53 84.9659C206.325 85.625 205.982 86.2045 205.499 86.7045C205.016 87.1989 204.419 87.5852 203.709 87.8636C202.999 88.1364 202.2 88.2727 201.314 88.2727ZM209.794 92.9091V74.9091H211.737V76.9886H211.976C212.124 76.7614 212.328 76.4716 212.589 76.1193C212.857 75.7614 213.237 75.4432 213.732 75.1648C214.232 74.8807 214.908 74.7386 215.76 74.7386C216.862 74.7386 217.834 75.0142 218.675 75.5653C219.516 76.1165 220.172 76.8977 220.643 77.9091C221.115 78.9205 221.351 80.1136 221.351 81.4886C221.351 82.875 221.115 84.0767 220.643 85.0938C220.172 86.1051 219.518 86.8892 218.683 87.446C217.848 87.9972 216.885 88.2727 215.794 88.2727C214.953 88.2727 214.28 88.1335 213.774 87.8551C213.268 87.571 212.879 87.25 212.607 86.892C212.334 86.5284 212.124 86.2273 211.976 85.9886H211.805V92.9091H209.794ZM211.771 81.4545C211.771 82.4432 211.916 83.3153 212.206 84.071C212.496 84.821 212.919 85.4091 213.476 85.8352C214.033 86.2557 214.714 86.4659 215.521 86.4659C216.362 86.4659 217.064 86.2443 217.626 85.8011C218.195 85.3523 218.621 84.75 218.905 83.9943C219.195 83.233 219.339 82.3864 219.339 81.4545C219.339 80.5341 219.197 79.7045 218.913 78.9659C218.635 78.2216 218.212 77.6335 217.643 77.2017C217.081 76.7642 216.374 76.5455 215.521 76.5455C214.703 76.5455 214.016 76.7528 213.459 77.1676C212.902 77.5767 212.482 78.1506 212.197 78.8892C211.913 79.6222 211.771 80.4773 211.771 81.4545ZM224.419 92.9091V74.9091H226.362V76.9886H226.601C226.749 76.7614 226.953 76.4716 227.214 76.1193C227.482 75.7614 227.862 75.4432 228.357 75.1648C228.857 74.8807 229.533 74.7386 230.385 74.7386C231.487 74.7386 232.459 75.0142 233.3 75.5653C234.141 76.1165 234.797 76.8977 235.268 77.9091C235.74 78.9205 235.976 80.1136 235.976 81.4886C235.976 82.875 235.74 84.0767 235.268 85.0938C234.797 86.1051 234.143 86.8892 233.308 87.446C232.473 87.9972 231.51 88.2727 230.419 88.2727C229.578 88.2727 228.905 88.1335 228.399 87.8551C227.893 87.571 227.504 87.25 227.232 86.892C226.959 86.5284 226.749 86.2273 226.601 85.9886H226.43V92.9091H224.419ZM226.396 81.4545C226.396 82.4432 226.541 83.3153 226.831 84.071C227.121 84.821 227.544 85.4091 228.101 85.8352C228.658 86.2557 229.339 86.4659 230.146 86.4659C230.987 86.4659 231.689 86.2443 232.251 85.8011C232.82 85.3523 233.246 84.75 233.53 83.9943C233.82 83.233 233.964 82.3864 233.964 81.4545C233.964 80.5341 233.822 79.7045 233.538 78.9659C233.26 78.2216 232.837 77.6335 232.268 77.2017C231.706 76.7642 230.999 76.5455 230.146 76.5455C229.328 76.5455 228.641 76.7528 228.084 77.1676C227.527 77.5767 227.107 78.1506 226.822 78.8892C226.538 79.6222 226.396 80.4773 226.396 81.4545ZM241.055 85.0341L247.362 74.9091H249.68V88H247.669V77.875L241.396 88H239.044V74.9091H241.055V85.0341ZM251.583 76.7841V74.9091H262.219V76.7841H257.924V88H255.913V76.7841H251.583ZM269.792 88.2727C268.61 88.2727 267.573 87.9915 266.681 87.429C265.795 86.8665 265.102 86.0795 264.602 85.0682C264.107 84.0568 263.86 82.875 263.86 81.5227C263.86 80.1591 264.107 78.9687 264.602 77.9517C265.102 76.9347 265.795 76.1449 266.681 75.5824C267.573 75.0199 268.61 74.7386 269.792 74.7386C270.974 74.7386 272.008 75.0199 272.894 75.5824C273.786 76.1449 274.479 76.9347 274.974 77.9517C275.474 78.9687 275.724 80.1591 275.724 81.5227C275.724 82.875 275.474 84.0568 274.974 85.0682C274.479 86.0795 273.786 86.8665 272.894 87.429C272.008 87.9915 270.974 88.2727 269.792 88.2727ZM269.792 86.4659C270.69 86.4659 271.428 86.2358 272.008 85.7756C272.587 85.3153 273.016 84.7102 273.295 83.9602C273.573 83.2102 273.712 82.3977 273.712 81.5227C273.712 80.6477 273.573 79.8324 273.295 79.0767C273.016 78.321 272.587 77.7102 272.008 77.2443C271.428 76.7784 270.69 76.5455 269.792 76.5455C268.894 76.5455 268.156 76.7784 267.576 77.2443C266.996 77.7102 266.567 78.321 266.289 79.0767C266.011 79.8324 265.871 80.6477 265.871 81.5227C265.871 82.3977 266.011 83.2102 266.289 83.9602C266.567 84.7102 266.996 85.3153 267.576 85.7756C268.156 86.2358 268.894 86.4659 269.792 86.4659ZM278.794 92.9091V74.9091H280.737V76.9886H280.976C281.124 76.7614 281.328 76.4716 281.589 76.1193C281.857 75.7614 282.237 75.4432 282.732 75.1648C283.232 74.8807 283.908 74.7386 284.76 74.7386C285.862 74.7386 286.834 75.0142 287.675 75.5653C288.516 76.1165 289.172 76.8977 289.643 77.9091C290.115 78.9205 290.351 80.1136 290.351 81.4886C290.351 82.875 290.115 84.0767 289.643 85.0938C289.172 86.1051 288.518 86.8892 287.683 87.446C286.848 87.9972 285.885 88.2727 284.794 88.2727C283.953 88.2727 283.28 88.1335 282.774 87.8551C282.268 87.571 281.879 87.25 281.607 86.892C281.334 86.5284 281.124 86.2273 280.976 85.9886H280.805V92.9091H278.794ZM280.771 81.4545C280.771 82.4432 280.916 83.3153 281.206 84.071C281.496 84.821 281.919 85.4091 282.476 85.8352C283.033 86.2557 283.714 86.4659 284.521 86.4659C285.362 86.4659 286.064 86.2443 286.626 85.8011C287.195 85.3523 287.621 84.75 287.905 83.9943C288.195 83.233 288.339 82.3864 288.339 81.4545C288.339 80.5341 288.197 79.7045 287.913 78.9659C287.635 78.2216 287.212 77.6335 286.643 77.2017C286.081 76.7642 285.374 76.5455 284.521 76.5455C283.703 76.5455 283.016 76.7528 282.459 77.1676C281.902 77.5767 281.482 78.1506 281.197 78.8892C280.913 79.6222 280.771 80.4773 280.771 81.4545ZM295.43 85.0341L301.737 74.9091H304.055V88H302.044V77.875L295.771 88H293.419V74.9091H295.43V85.0341ZM313.228 88.2727C311.967 88.2727 310.879 87.9943 309.964 87.4375C309.055 86.875 308.353 86.0909 307.859 85.0852C307.37 84.0739 307.126 82.8977 307.126 81.5568C307.126 80.2159 307.37 79.0341 307.859 78.0114C308.353 76.983 309.04 76.1818 309.921 75.608C310.808 75.0284 311.842 74.7386 313.023 74.7386C313.705 74.7386 314.379 74.8523 315.043 75.0795C315.708 75.3068 316.313 75.6761 316.859 76.1875C317.404 76.6932 317.839 77.3636 318.163 78.1989C318.487 79.0341 318.648 80.0625 318.648 81.2841V82.1364H308.558V80.3977H316.603C316.603 79.6591 316.455 79 316.16 78.4205C315.87 77.8409 315.455 77.3835 314.915 77.0483C314.381 76.7131 313.751 76.5455 313.023 76.5455C312.222 76.5455 311.529 76.7443 310.944 77.142C310.364 77.5341 309.918 78.0455 309.606 78.6761C309.293 79.3068 309.137 79.983 309.137 80.7045V81.8636C309.137 82.8523 309.308 83.6903 309.648 84.3778C309.995 85.0597 310.475 85.5795 311.089 85.9375C311.702 86.2898 312.415 86.4659 313.228 86.4659C313.756 86.4659 314.234 86.392 314.66 86.2443C315.092 86.0909 315.464 85.8636 315.776 85.5625C316.089 85.2557 316.33 84.875 316.501 84.4205L318.444 84.9659C318.239 85.625 317.896 86.2045 317.413 86.7045C316.93 87.1989 316.333 87.5852 315.623 87.8636C314.913 88.1364 314.114 88.2727 313.228 88.2727ZM323.719 85.0341L330.026 74.9091H332.344V88H330.333V77.875L324.06 88H321.708V74.9091H323.719V85.0341ZM328.697 70.5455H330.572C330.572 71.4659 330.254 72.2188 329.617 72.804C328.981 73.3892 328.117 73.6818 327.026 73.6818C325.952 73.6818 325.097 73.3892 324.461 72.804C323.83 72.2188 323.515 71.4659 323.515 70.5455H325.39C325.39 70.9886 325.512 71.3778 325.756 71.7131C326.006 72.0483 326.43 72.2159 327.026 72.2159C327.623 72.2159 328.049 72.0483 328.305 71.7131C328.566 71.3778 328.697 70.9886 328.697 70.5455ZM337.494 88.1364C337.074 88.1364 336.713 87.9858 336.412 87.6847C336.111 87.3835 335.96 87.0227 335.96 86.6023C335.96 86.1818 336.111 85.821 336.412 85.5199C336.713 85.2187 337.074 85.0682 337.494 85.0682C337.915 85.0682 338.276 85.2187 338.577 85.5199C338.878 85.821 339.028 86.1818 339.028 86.6023C339.028 86.8807 338.957 87.1364 338.815 87.3693C338.679 87.6023 338.494 87.7898 338.261 87.9318C338.034 88.0682 337.778 88.1364 337.494 88.1364ZM349.661 70.5455H352.183L358.115 85.0341H358.32L364.251 70.5455H366.774V88H364.797V74.7386H364.626L359.172 88H357.263L351.808 74.7386H351.638V88H349.661V70.5455ZM372.478 79.6477H376.228C377.762 79.6477 378.935 80.0369 379.748 80.8153C380.56 81.5937 380.967 82.5795 380.967 83.7727C380.967 84.5568 380.785 85.2699 380.421 85.9119C380.058 86.5483 379.523 87.0568 378.819 87.4375C378.114 87.8125 377.251 88 376.228 88H370.739V74.9091H372.751V86.125H376.228C377.023 86.125 377.677 85.9148 378.188 85.4943C378.7 85.0739 378.955 84.5341 378.955 83.875C378.955 83.1818 378.7 82.6165 378.188 82.179C377.677 81.7415 377.023 81.5227 376.228 81.5227H372.478V79.6477ZM383.046 88V74.9091H385.058V88H383.046ZM395.489 88V74.9091H405.785V88H403.773V76.7841H397.501V88H395.489ZM414.947 88.2727C413.685 88.2727 412.597 87.9943 411.683 87.4375C410.773 86.875 410.072 86.0909 409.577 85.0852C409.089 84.0739 408.844 82.8977 408.844 81.5568C408.844 80.2159 409.089 79.0341 409.577 78.0114C410.072 76.983 410.759 76.1818 411.64 75.608C412.526 75.0284 413.56 74.7386 414.742 74.7386C415.424 74.7386 416.097 74.8523 416.762 75.0795C417.427 75.3068 418.032 75.6761 418.577 76.1875C419.123 76.6932 419.558 77.3636 419.881 78.1989C420.205 79.0341 420.367 80.0625 420.367 81.2841V82.1364H410.276V80.3977H418.322C418.322 79.6591 418.174 79 417.879 78.4205C417.589 77.8409 417.174 77.3835 416.634 77.0483C416.1 76.7131 415.469 76.5455 414.742 76.5455C413.941 76.5455 413.248 76.7443 412.663 77.142C412.083 77.5341 411.637 78.0455 411.325 78.6761C411.012 79.3068 410.856 79.983 410.856 80.7045V81.8636C410.856 82.8523 411.026 83.6903 411.367 84.3778C411.714 85.0597 412.194 85.5795 412.808 85.9375C413.421 86.2898 414.134 86.4659 414.947 86.4659C415.475 86.4659 415.952 86.392 416.379 86.2443C416.81 86.0909 417.183 85.8636 417.495 85.5625C417.808 85.2557 418.049 84.875 418.219 84.4205L420.163 84.9659C419.958 85.625 419.614 86.2045 419.131 86.7045C418.648 87.1989 418.052 87.5852 417.342 87.8636C416.631 88.1364 415.833 88.2727 414.947 88.2727ZM423.427 92.9091V74.9091H425.37V76.9886H425.609C425.756 76.7614 425.961 76.4716 426.222 76.1193C426.489 75.7614 426.87 75.4432 427.364 75.1648C427.864 74.8807 428.54 74.7386 429.393 74.7386C430.495 74.7386 431.467 75.0142 432.308 75.5653C433.148 76.1165 433.805 76.8977 434.276 77.9091C434.748 78.9205 434.984 80.1136 434.984 81.4886C434.984 82.875 434.748 84.0767 434.276 85.0938C433.805 86.1051 433.151 86.8892 432.316 87.446C431.481 87.9972 430.518 88.2727 429.427 88.2727C428.586 88.2727 427.913 88.1335 427.407 87.8551C426.901 87.571 426.512 87.25 426.239 86.892C425.967 86.5284 425.756 86.2273 425.609 85.9886H425.438V92.9091H423.427ZM425.404 81.4545C425.404 82.4432 425.549 83.3153 425.839 84.071C426.129 84.821 426.552 85.4091 427.109 85.8352C427.665 86.2557 428.347 86.4659 429.154 86.4659C429.995 86.4659 430.697 86.2443 431.259 85.8011C431.827 85.3523 432.254 84.75 432.538 83.9943C432.827 83.233 432.972 82.3864 432.972 81.4545C432.972 80.5341 432.83 79.7045 432.546 78.9659C432.268 78.2216 431.844 77.6335 431.276 77.2017C430.714 76.7642 430.006 76.5455 429.154 76.5455C428.336 76.5455 427.648 76.7528 427.092 77.1676C426.535 77.5767 426.114 78.1506 425.83 78.8892C425.546 79.6222 425.404 80.4773 425.404 81.4545ZM443.54 88.2727C442.279 88.2727 441.191 87.9943 440.276 87.4375C439.367 86.875 438.665 86.0909 438.171 85.0852C437.683 84.0739 437.438 82.8977 437.438 81.5568C437.438 80.2159 437.683 79.0341 438.171 78.0114C438.665 76.983 439.353 76.1818 440.234 75.608C441.12 75.0284 442.154 74.7386 443.336 74.7386C444.018 74.7386 444.691 74.8523 445.356 75.0795C446.021 75.3068 446.626 75.6761 447.171 76.1875C447.717 76.6932 448.151 77.3636 448.475 78.1989C448.799 79.0341 448.961 80.0625 448.961 81.2841V82.1364H438.87V80.3977H446.915C446.915 79.6591 446.768 79 446.472 78.4205C446.183 77.8409 445.768 77.3835 445.228 77.0483C444.694 76.7131 444.063 76.5455 443.336 76.5455C442.535 76.5455 441.842 76.7443 441.256 77.142C440.677 77.5341 440.231 78.0455 439.918 78.6761C439.606 79.3068 439.45 79.983 439.45 80.7045V81.8636C439.45 82.8523 439.62 83.6903 439.961 84.3778C440.308 85.0597 440.788 85.5795 441.401 85.9375C442.015 86.2898 442.728 86.4659 443.54 86.4659C444.069 86.4659 444.546 86.392 444.972 86.2443C445.404 86.0909 445.776 85.8636 446.089 85.5625C446.401 85.2557 446.643 84.875 446.813 84.4205L448.756 84.9659C448.552 85.625 448.208 86.2045 447.725 86.7045C447.242 87.1989 446.646 87.5852 445.935 87.8636C445.225 88.1364 444.427 88.2727 443.54 88.2727ZM457.339 88.2727C456.112 88.2727 455.055 87.983 454.168 87.4034C453.282 86.8239 452.6 86.0256 452.123 85.0085C451.646 83.9915 451.407 82.8295 451.407 81.5227C451.407 80.1932 451.651 79.0199 452.14 78.0028C452.634 76.9801 453.322 76.1818 454.202 75.608C455.089 75.0284 456.123 74.7386 457.305 74.7386C458.225 74.7386 459.055 74.9091 459.793 75.25C460.532 75.5909 461.137 76.0682 461.609 76.6818C462.08 77.2955 462.373 78.0114 462.487 78.8295H460.475C460.322 78.233 459.981 77.7045 459.452 77.2443C458.93 76.7784 458.225 76.5455 457.339 76.5455C456.555 76.5455 455.867 76.75 455.276 77.1591C454.691 77.5625 454.234 78.1335 453.904 78.8722C453.58 79.6051 453.418 80.4659 453.418 81.4545C453.418 82.4659 453.577 83.3466 453.896 84.0966C454.219 84.8466 454.674 85.429 455.259 85.8438C455.85 86.2585 456.543 86.4659 457.339 86.4659C457.862 86.4659 458.336 86.375 458.762 86.1932C459.188 86.0114 459.549 85.75 459.844 85.4091C460.14 85.0682 460.35 84.6591 460.475 84.1818H462.487C462.373 84.9545 462.092 85.6506 461.643 86.2699C461.2 86.8835 460.612 87.3722 459.879 87.7358C459.151 88.0938 458.305 88.2727 457.339 88.2727ZM464.396 76.7841V74.9091H475.032V76.7841H470.737V88H468.725V76.7841H464.396ZM481.138 88.3068C480.309 88.3068 479.556 88.1506 478.88 87.8381C478.204 87.5199 477.667 87.0625 477.269 86.4659C476.871 85.8636 476.673 85.1364 476.673 84.2841C476.673 83.5341 476.82 82.9261 477.116 82.4602C477.411 81.9886 477.806 81.6193 478.3 81.3523C478.795 81.0852 479.34 80.8864 479.937 80.7557C480.539 80.6193 481.144 80.5114 481.752 80.4318C482.548 80.3295 483.192 80.2528 483.687 80.2017C484.187 80.1449 484.55 80.0511 484.778 79.9205C485.011 79.7898 485.127 79.5625 485.127 79.2386V79.1705C485.127 78.3295 484.897 77.6761 484.437 77.2102C483.982 76.7443 483.292 76.5114 482.366 76.5114C481.406 76.5114 480.653 76.7216 480.107 77.142C479.562 77.5625 479.178 78.0114 478.957 78.4886L477.048 77.8068C477.388 77.0114 477.843 76.392 478.411 75.9489C478.985 75.5 479.61 75.1875 480.286 75.0114C480.968 74.8295 481.638 74.7386 482.298 74.7386C482.718 74.7386 483.201 74.7898 483.746 74.892C484.298 74.9886 484.829 75.1903 485.34 75.4972C485.857 75.804 486.286 76.267 486.627 76.8864C486.968 77.5057 487.138 78.3352 487.138 79.375V88H485.127V86.2273H485.025C484.888 86.5114 484.661 86.8153 484.343 87.1392C484.025 87.4631 483.602 87.7386 483.073 87.9659C482.545 88.1932 481.9 88.3068 481.138 88.3068ZM481.445 86.5C482.241 86.5 482.911 86.3438 483.457 86.0312C484.008 85.7188 484.423 85.3153 484.701 84.821C484.985 84.3267 485.127 83.8068 485.127 83.2614V81.4205C485.042 81.5227 484.854 81.6165 484.565 81.7017C484.281 81.7812 483.951 81.8523 483.576 81.9148C483.207 81.9716 482.846 82.0227 482.494 82.0682C482.147 82.108 481.866 82.142 481.65 82.1705C481.127 82.2386 480.638 82.3494 480.184 82.5028C479.735 82.6506 479.371 82.875 479.093 83.1761C478.82 83.4716 478.684 83.875 478.684 84.3864C478.684 85.0852 478.942 85.6136 479.46 85.9716C479.982 86.3239 480.644 86.5 481.445 86.5ZM489.651 88V86.125H490.128C490.52 86.125 490.847 86.0483 491.108 85.8949C491.369 85.7358 491.58 85.4602 491.739 85.0682C491.903 84.6705 492.028 84.1193 492.114 83.4148C492.205 82.7045 492.27 81.8011 492.31 80.7045L492.548 74.9091H501.276V88H499.264V76.7841H494.457L494.253 81.4545C494.207 82.5284 494.111 83.4744 493.963 84.2926C493.821 85.1051 493.602 85.7869 493.307 86.3381C493.017 86.8892 492.631 87.304 492.148 87.5824C491.665 87.8608 491.06 88 490.332 88H489.651ZM506.977 85.0341L513.284 74.9091H515.602V88H513.591V77.875L507.318 88H504.966V74.9091H506.977V85.0341ZM535.752 70L536.775 71.2273C536.377 71.6136 535.917 71.8835 535.394 72.0369C534.871 72.1903 534.281 72.2841 533.621 72.3182C532.962 72.3523 532.229 72.3864 531.423 72.4205C530.513 72.4545 529.761 72.6761 529.164 73.0852C528.567 73.4943 528.107 74.0852 527.783 74.858C527.46 75.6307 527.252 76.5795 527.161 77.7045H527.332C527.775 76.8864 528.388 76.2841 529.173 75.8977C529.957 75.5114 530.798 75.3182 531.695 75.3182C532.718 75.3182 533.638 75.5568 534.457 76.0341C535.275 76.5114 535.923 77.2188 536.4 78.1562C536.877 79.0938 537.116 80.25 537.116 81.625C537.116 82.9943 536.871 84.1761 536.383 85.1705C535.9 86.1648 535.221 86.9318 534.346 87.4716C533.477 88.0057 532.457 88.2727 531.286 88.2727C530.116 88.2727 529.09 87.9972 528.21 87.446C527.329 86.8892 526.644 86.0653 526.156 84.9744C525.667 83.8778 525.423 82.5227 525.423 80.9091V79.5114C525.423 76.5966 525.917 74.3864 526.906 72.8807C527.9 71.375 529.394 70.5966 531.388 70.5455C532.093 70.5227 532.721 70.517 533.272 70.5284C533.823 70.5398 534.303 70.5142 534.712 70.4517C535.121 70.3892 535.468 70.2386 535.752 70ZM531.286 86.4659C532.076 86.4659 532.755 86.267 533.323 85.8693C533.897 85.4716 534.337 84.9119 534.644 84.1903C534.951 83.4631 535.104 82.608 535.104 81.625C535.104 80.6705 534.948 79.858 534.636 79.1875C534.329 78.517 533.888 78.0057 533.315 77.6534C532.741 77.3011 532.053 77.125 531.252 77.125C530.667 77.125 530.141 77.2244 529.675 77.4233C529.21 77.6222 528.812 77.9148 528.482 78.3011C528.153 78.6875 527.897 79.1591 527.715 79.7159C527.539 80.2727 527.445 80.9091 527.434 81.625C527.434 83.0909 527.778 84.2642 528.465 85.1449C529.153 86.0256 530.093 86.4659 531.286 86.4659ZM541.931 79.6477H545.681C547.215 79.6477 548.388 80.0369 549.201 80.8153C550.013 81.5937 550.42 82.5795 550.42 83.7727C550.42 84.5568 550.238 85.2699 549.874 85.9119C549.511 86.5483 548.977 87.0568 548.272 87.4375C547.567 87.8125 546.704 88 545.681 88H540.192V74.9091H542.204V86.125H545.681C546.477 86.125 547.13 85.9148 547.641 85.4943C548.153 85.0739 548.408 84.5341 548.408 83.875C548.408 83.1818 548.153 82.6165 547.641 82.179C547.13 81.7415 546.477 81.5227 545.681 81.5227H541.931V79.6477ZM552.499 88V74.9091H554.511V88H552.499ZM557.442 76.7841V74.9091H568.079V76.7841H563.783V88H561.772V76.7841H557.442ZM572.751 79.6477H576.501C578.036 79.6477 579.209 80.0369 580.021 80.8153C580.834 81.5937 581.24 82.5795 581.24 83.7727C581.24 84.5568 581.058 85.2699 580.695 85.9119C580.331 86.5483 579.797 87.0568 579.092 87.4375C578.388 87.8125 577.524 88 576.501 88H571.013V74.9091H573.024V86.125H576.501C577.297 86.125 577.95 85.9148 578.462 85.4943C578.973 85.0739 579.229 84.5341 579.229 83.875C579.229 83.1818 578.973 82.6165 578.462 82.179C577.95 81.7415 577.297 81.5227 576.501 81.5227H572.751V79.6477ZM28.3409 124V110.909H38.6364V124H36.625V112.784H30.3523V124H28.3409ZM42.3097 128.909V110.909H44.2528V112.989H44.4915C44.6392 112.761 44.8438 112.472 45.1051 112.119C45.3722 111.761 45.7528 111.443 46.2472 111.165C46.7472 110.881 47.4233 110.739 48.2756 110.739C49.3778 110.739 50.3494 111.014 51.1903 111.565C52.0313 112.116 52.6875 112.898 53.1591 113.909C53.6307 114.92 53.8665 116.114 53.8665 117.489C53.8665 118.875 53.6307 120.077 53.1591 121.094C52.6875 122.105 52.0341 122.889 51.1989 123.446C50.3636 123.997 49.4006 124.273 48.3097 124.273C47.4688 124.273 46.7955 124.134 46.2898 123.855C45.7841 123.571 45.3949 123.25 45.1222 122.892C44.8494 122.528 44.6392 122.227 44.4915 121.989H44.321V128.909H42.3097ZM44.2869 117.455C44.2869 118.443 44.4318 119.315 44.7216 120.071C45.0114 120.821 45.4347 121.409 45.9915 121.835C46.5483 122.256 47.2301 122.466 48.0369 122.466C48.8778 122.466 49.5795 122.244 50.142 121.801C50.7102 121.352 51.1364 120.75 51.4205 119.994C51.7102 119.233 51.8551 118.386 51.8551 117.455C51.8551 116.534 51.7131 115.705 51.429 114.966C51.1506 114.222 50.7273 113.634 50.1591 113.202C49.5966 112.764 48.8892 112.545 48.0369 112.545C47.2188 112.545 46.5313 112.753 45.9744 113.168C45.4176 113.577 44.9972 114.151 44.7131 114.889C44.429 115.622 44.2869 116.477 44.2869 117.455ZM62.2528 124.273C61.071 124.273 60.0341 123.991 59.142 123.429C58.2557 122.866 57.5625 122.08 57.0625 121.068C56.5682 120.057 56.321 118.875 56.321 117.523C56.321 116.159 56.5682 114.969 57.0625 113.952C57.5625 112.935 58.2557 112.145 59.142 111.582C60.0341 111.02 61.071 110.739 62.2528 110.739C63.4347 110.739 64.4688 111.02 65.3551 111.582C66.2472 112.145 66.9403 112.935 67.4347 113.952C67.9347 114.969 68.1847 116.159 68.1847 117.523C68.1847 118.875 67.9347 120.057 67.4347 121.068C66.9403 122.08 66.2472 122.866 65.3551 123.429C64.4688 123.991 63.4347 124.273 62.2528 124.273ZM62.2528 122.466C63.1506 122.466 63.8892 122.236 64.4688 121.776C65.0483 121.315 65.4773 120.71 65.7557 119.96C66.0341 119.21 66.1733 118.398 66.1733 117.523C66.1733 116.648 66.0341 115.832 65.7557 115.077C65.4773 114.321 65.0483 113.71 64.4688 113.244C63.8892 112.778 63.1506 112.545 62.2528 112.545C61.3551 112.545 60.6165 112.778 60.0369 113.244C59.4574 113.71 59.0284 114.321 58.75 115.077C58.4716 115.832 58.3324 116.648 58.3324 117.523C58.3324 118.398 58.4716 119.21 58.75 119.96C59.0284 120.71 59.4574 121.315 60.0369 121.776C60.6165 122.236 61.3551 122.466 62.2528 122.466ZM76.5732 124.273C75.3459 124.273 74.2891 123.983 73.4027 123.403C72.5163 122.824 71.8345 122.026 71.3572 121.009C70.88 119.991 70.6413 118.83 70.6413 117.523C70.6413 116.193 70.8857 115.02 71.3743 114.003C71.8686 112.98 72.5561 112.182 73.4368 111.608C74.3232 111.028 75.3572 110.739 76.5391 110.739C77.4595 110.739 78.2891 110.909 79.0277 111.25C79.7663 111.591 80.3714 112.068 80.843 112.682C81.3146 113.295 81.6072 114.011 81.7209 114.83H79.7095C79.5561 114.233 79.2152 113.705 78.6868 113.244C78.1641 112.778 77.4595 112.545 76.5732 112.545C75.7891 112.545 75.1016 112.75 74.5107 113.159C73.9254 113.562 73.468 114.134 73.1385 114.872C72.8146 115.605 72.6527 116.466 72.6527 117.455C72.6527 118.466 72.8118 119.347 73.13 120.097C73.4538 120.847 73.9084 121.429 74.4936 121.844C75.0845 122.259 75.7777 122.466 76.5732 122.466C77.0959 122.466 77.5703 122.375 77.9964 122.193C78.4226 122.011 78.7834 121.75 79.0788 121.409C79.3743 121.068 79.5845 120.659 79.7095 120.182H81.7209C81.6072 120.955 81.326 121.651 80.8771 122.27C80.4339 122.884 79.8459 123.372 79.1129 123.736C78.3857 124.094 77.5391 124.273 76.5732 124.273ZM83.63 112.784V110.909H94.2663V112.784H89.9709V124H87.9595V112.784H83.63ZM101.839 124.273C100.657 124.273 99.62 123.991 98.728 123.429C97.8416 122.866 97.1484 122.08 96.6484 121.068C96.1541 120.057 95.907 118.875 95.907 117.523C95.907 116.159 96.1541 114.969 96.6484 113.952C97.1484 112.935 97.8416 112.145 98.728 111.582C99.62 111.02 100.657 110.739 101.839 110.739C103.021 110.739 104.055 111.02 104.941 111.582C105.833 112.145 106.526 112.935 107.021 113.952C107.521 114.969 107.771 116.159 107.771 117.523C107.771 118.875 107.521 120.057 107.021 121.068C106.526 122.08 105.833 122.866 104.941 123.429C104.055 123.991 103.021 124.273 101.839 124.273ZM101.839 122.466C102.737 122.466 103.475 122.236 104.055 121.776C104.634 121.315 105.063 120.71 105.342 119.96C105.62 119.21 105.759 118.398 105.759 117.523C105.759 116.648 105.62 115.832 105.342 115.077C105.063 114.321 104.634 113.71 104.055 113.244C103.475 112.778 102.737 112.545 101.839 112.545C100.941 112.545 100.202 112.778 99.6229 113.244C99.0433 113.71 98.6143 114.321 98.3359 115.077C98.0575 115.832 97.9183 116.648 97.9183 117.523C97.9183 118.398 98.0575 119.21 98.3359 119.96C98.6143 120.71 99.0433 121.315 99.6229 121.776C100.202 122.236 100.941 122.466 101.839 122.466ZM117.591 124V110.909H127.886V124H125.875V112.784H119.602V124H117.591ZM136.878 124.273C135.696 124.273 134.659 123.991 133.767 123.429C132.881 122.866 132.188 122.08 131.688 121.068C131.193 120.057 130.946 118.875 130.946 117.523C130.946 116.159 131.193 114.969 131.688 113.952C132.188 112.935 132.881 112.145 133.767 111.582C134.659 111.02 135.696 110.739 136.878 110.739C138.06 110.739 139.094 111.02 139.98 111.582C140.872 112.145 141.565 112.935 142.06 113.952C142.56 114.969 142.81 116.159 142.81 117.523C142.81 118.875 142.56 120.057 142.06 121.068C141.565 122.08 140.872 122.866 139.98 123.429C139.094 123.991 138.06 124.273 136.878 124.273ZM136.878 122.466C137.776 122.466 138.514 122.236 139.094 121.776C139.673 121.315 140.102 120.71 140.381 119.96C140.659 119.21 140.798 118.398 140.798 117.523C140.798 116.648 140.659 115.832 140.381 115.077C140.102 114.321 139.673 113.71 139.094 113.244C138.514 112.778 137.776 112.545 136.878 112.545C135.98 112.545 135.241 112.778 134.662 113.244C134.082 113.71 133.653 114.321 133.375 115.077C133.097 115.832 132.957 116.648 132.957 117.523C132.957 118.398 133.097 119.21 133.375 119.96C133.653 120.71 134.082 121.315 134.662 121.776C135.241 122.236 135.98 122.466 136.878 122.466ZM144.169 112.784V110.909H154.805V112.784H150.51V124H148.499V112.784H144.169ZM157.739 128.909V110.909H159.683V112.989H159.921C160.069 112.761 160.273 112.472 160.535 112.119C160.802 111.761 161.183 111.443 161.677 111.165C162.177 110.881 162.853 110.739 163.705 110.739C164.808 110.739 165.779 111.014 166.62 111.565C167.461 112.116 168.117 112.898 168.589 113.909C169.06 114.92 169.296 116.114 169.296 117.489C169.296 118.875 169.06 120.077 168.589 121.094C168.117 122.105 167.464 122.889 166.629 123.446C165.793 123.997 164.83 124.273 163.739 124.273C162.898 124.273 162.225 124.134 161.719 123.855C161.214 123.571 160.825 123.25 160.552 122.892C160.279 122.528 160.069 122.227 159.921 121.989H159.751V128.909H157.739ZM159.717 117.455C159.717 118.443 159.862 119.315 160.151 120.071C160.441 120.821 160.864 121.409 161.421 121.835C161.978 122.256 162.66 122.466 163.467 122.466C164.308 122.466 165.009 122.244 165.572 121.801C166.14 121.352 166.566 120.75 166.85 119.994C167.14 119.233 167.285 118.386 167.285 117.455C167.285 116.534 167.143 115.705 166.859 114.966C166.58 114.222 166.157 113.634 165.589 113.202C165.026 112.764 164.319 112.545 163.467 112.545C162.648 112.545 161.961 112.753 161.404 113.168C160.847 113.577 160.427 114.151 160.143 114.889C159.859 115.622 159.717 116.477 159.717 117.455ZM177.853 124.273C176.592 124.273 175.504 123.994 174.589 123.438C173.68 122.875 172.978 122.091 172.484 121.085C171.995 120.074 171.751 118.898 171.751 117.557C171.751 116.216 171.995 115.034 172.484 114.011C172.978 112.983 173.665 112.182 174.546 111.608C175.433 111.028 176.467 110.739 177.648 110.739C178.33 110.739 179.004 110.852 179.668 111.08C180.333 111.307 180.938 111.676 181.484 112.188C182.029 112.693 182.464 113.364 182.788 114.199C183.112 115.034 183.273 116.062 183.273 117.284V118.136H173.183V116.398H181.228C181.228 115.659 181.08 115 180.785 114.42C180.495 113.841 180.08 113.384 179.54 113.048C179.006 112.713 178.376 112.545 177.648 112.545C176.847 112.545 176.154 112.744 175.569 113.142C174.989 113.534 174.543 114.045 174.231 114.676C173.918 115.307 173.762 115.983 173.762 116.705V117.864C173.762 118.852 173.933 119.69 174.273 120.378C174.62 121.06 175.1 121.58 175.714 121.938C176.327 122.29 177.04 122.466 177.853 122.466C178.381 122.466 178.859 122.392 179.285 122.244C179.717 122.091 180.089 121.864 180.401 121.562C180.714 121.256 180.955 120.875 181.126 120.42L183.069 120.966C182.864 121.625 182.521 122.205 182.038 122.705C181.555 123.199 180.958 123.585 180.248 123.864C179.538 124.136 178.739 124.273 177.853 124.273ZM196.049 106L197.072 107.227C196.674 107.614 196.214 107.884 195.691 108.037C195.168 108.19 194.577 108.284 193.918 108.318C193.259 108.352 192.526 108.386 191.719 108.42C190.81 108.455 190.058 108.676 189.461 109.085C188.864 109.494 188.404 110.085 188.08 110.858C187.756 111.631 187.549 112.58 187.458 113.705H187.629C188.072 112.886 188.685 112.284 189.469 111.898C190.254 111.511 191.094 111.318 191.992 111.318C193.015 111.318 193.935 111.557 194.754 112.034C195.572 112.511 196.219 113.219 196.697 114.156C197.174 115.094 197.413 116.25 197.413 117.625C197.413 118.994 197.168 120.176 196.68 121.17C196.197 122.165 195.518 122.932 194.643 123.472C193.773 124.006 192.754 124.273 191.583 124.273C190.413 124.273 189.387 123.997 188.506 123.446C187.626 122.889 186.941 122.065 186.452 120.974C185.964 119.878 185.719 118.523 185.719 116.909V115.511C185.719 112.597 186.214 110.386 187.202 108.881C188.197 107.375 189.691 106.597 191.685 106.545C192.39 106.523 193.018 106.517 193.569 106.528C194.12 106.54 194.6 106.514 195.009 106.452C195.418 106.389 195.765 106.239 196.049 106ZM191.583 122.466C192.373 122.466 193.052 122.267 193.62 121.869C194.194 121.472 194.634 120.912 194.941 120.19C195.248 119.463 195.401 118.608 195.401 117.625C195.401 116.67 195.245 115.858 194.933 115.188C194.626 114.517 194.185 114.006 193.612 113.653C193.038 113.301 192.35 113.125 191.549 113.125C190.964 113.125 190.438 113.224 189.972 113.423C189.506 113.622 189.109 113.915 188.779 114.301C188.45 114.687 188.194 115.159 188.012 115.716C187.836 116.273 187.742 116.909 187.731 117.625C187.731 119.091 188.075 120.264 188.762 121.145C189.45 122.026 190.39 122.466 191.583 122.466ZM202.501 121.034L208.808 110.909H211.126V124H209.114V113.875L202.842 124H200.489V110.909H202.501V121.034ZM213.028 112.784V110.909H223.665V112.784H219.369V124H217.358V112.784H213.028ZM231.408 124.273C230.146 124.273 229.058 123.994 228.143 123.438C227.234 122.875 226.533 122.091 226.038 121.085C225.55 120.074 225.305 118.898 225.305 117.557C225.305 116.216 225.55 115.034 226.038 114.011C226.533 112.983 227.22 112.182 228.101 111.608C228.987 111.028 230.021 110.739 231.203 110.739C231.885 110.739 232.558 110.852 233.223 111.08C233.888 111.307 234.493 111.676 235.038 112.188C235.584 112.693 236.018 113.364 236.342 114.199C236.666 115.034 236.828 116.062 236.828 117.284V118.136H226.737V116.398H234.783C234.783 115.659 234.635 115 234.339 114.42C234.05 113.841 233.635 113.384 233.095 113.048C232.561 112.713 231.93 112.545 231.203 112.545C230.402 112.545 229.709 112.744 229.124 113.142C228.544 113.534 228.098 114.045 227.786 114.676C227.473 115.307 227.317 115.983 227.317 116.705V117.864C227.317 118.852 227.487 119.69 227.828 120.378C228.175 121.06 228.655 121.58 229.268 121.938C229.882 122.29 230.595 122.466 231.408 122.466C231.936 122.466 232.413 122.392 232.839 122.244C233.271 122.091 233.643 121.864 233.956 121.562C234.268 121.256 234.51 120.875 234.68 120.42L236.624 120.966C236.419 121.625 236.075 122.205 235.592 122.705C235.109 123.199 234.513 123.585 233.803 123.864C233.092 124.136 232.294 124.273 231.408 124.273ZM238.729 124V122.125H239.206C239.598 122.125 239.925 122.048 240.186 121.895C240.447 121.736 240.658 121.46 240.817 121.068C240.982 120.67 241.107 120.119 241.192 119.415C241.283 118.705 241.348 117.801 241.388 116.705L241.626 110.909H250.354V124H248.342V112.784H243.536L243.331 117.455C243.286 118.528 243.189 119.474 243.041 120.293C242.899 121.105 242.68 121.787 242.385 122.338C242.095 122.889 241.709 123.304 241.226 123.582C240.743 123.861 240.138 124 239.411 124H238.729ZM261.919 124V112.75H258.442C257.658 112.75 257.041 112.932 256.592 113.295C256.143 113.659 255.919 114.159 255.919 114.795C255.919 115.42 256.121 115.912 256.524 116.27C256.933 116.628 257.493 116.807 258.203 116.807H262.43V118.682H258.203C257.317 118.682 256.553 118.526 255.911 118.213C255.268 117.901 254.774 117.455 254.428 116.875C254.081 116.29 253.908 115.597 253.908 114.795C253.908 113.989 254.089 113.295 254.453 112.716C254.817 112.136 255.337 111.69 256.013 111.378C256.695 111.065 257.504 110.909 258.442 110.909H263.828V124H261.919ZM253.192 124L256.908 117.489H259.089L255.374 124H253.192ZM274.68 121.273L279.248 110.909H281.157L275.498 124H273.862L268.305 110.909H270.18L274.68 121.273ZM269.532 110.909V124H267.521V110.909H269.532ZM279.827 124V110.909H281.839V124H279.827ZM287.532 121.034L293.839 110.909H296.157V124H294.146V113.875L287.873 124H285.521V110.909H287.532V121.034ZM302.841 121.614L302.705 122.534C302.608 123.182 302.46 123.875 302.261 124.614C302.068 125.352 301.866 126.048 301.656 126.702C301.446 127.355 301.273 127.875 301.136 128.261H299.602C299.676 127.898 299.773 127.418 299.892 126.821C300.011 126.224 300.131 125.557 300.25 124.818C300.375 124.085 300.477 123.335 300.557 122.568L300.659 121.614H302.841ZM320.477 121.273L325.045 110.909H326.954L321.295 124H319.658L314.102 110.909H315.977L320.477 121.273ZM315.329 110.909V124H313.317V110.909H315.329ZM325.624 124V110.909H327.636V124H325.624ZM333.056 115.648H336.806C338.34 115.648 339.513 116.037 340.326 116.815C341.138 117.594 341.545 118.58 341.545 119.773C341.545 120.557 341.363 121.27 340.999 121.912C340.636 122.548 340.102 123.057 339.397 123.438C338.692 123.812 337.829 124 336.806 124H331.317V110.909H333.329V122.125H336.806C337.602 122.125 338.255 121.915 338.766 121.494C339.278 121.074 339.533 120.534 339.533 119.875C339.533 119.182 339.278 118.616 338.766 118.179C338.255 117.741 337.602 117.523 336.806 117.523H333.056V115.648ZM343.624 124V110.909H345.636V124H343.624ZM364.829 116.534V118.409H357.602V116.534H364.829ZM358.079 110.909V124H356.067V110.909H358.079ZM366.363 110.909V124H364.352V110.909H366.363ZM373.888 124.307C373.059 124.307 372.306 124.151 371.63 123.838C370.954 123.52 370.417 123.062 370.019 122.466C369.621 121.864 369.423 121.136 369.423 120.284C369.423 119.534 369.57 118.926 369.866 118.46C370.161 117.989 370.556 117.619 371.05 117.352C371.545 117.085 372.09 116.886 372.687 116.756C373.289 116.619 373.894 116.511 374.502 116.432C375.298 116.33 375.942 116.253 376.437 116.202C376.937 116.145 377.3 116.051 377.528 115.92C377.761 115.79 377.877 115.562 377.877 115.239V115.17C377.877 114.33 377.647 113.676 377.187 113.21C376.732 112.744 376.042 112.511 375.116 112.511C374.156 112.511 373.403 112.722 372.857 113.142C372.312 113.562 371.928 114.011 371.707 114.489L369.798 113.807C370.138 113.011 370.593 112.392 371.161 111.949C371.735 111.5 372.36 111.187 373.036 111.011C373.718 110.83 374.388 110.739 375.048 110.739C375.468 110.739 375.951 110.79 376.496 110.892C377.048 110.989 377.579 111.19 378.09 111.497C378.607 111.804 379.036 112.267 379.377 112.886C379.718 113.506 379.888 114.335 379.888 115.375V124H377.877V122.227H377.775C377.638 122.511 377.411 122.815 377.093 123.139C376.775 123.463 376.352 123.739 375.823 123.966C375.295 124.193 374.65 124.307 373.888 124.307ZM374.195 122.5C374.991 122.5 375.661 122.344 376.207 122.031C376.758 121.719 377.173 121.315 377.451 120.821C377.735 120.327 377.877 119.807 377.877 119.261V117.42C377.792 117.523 377.604 117.616 377.315 117.702C377.031 117.781 376.701 117.852 376.326 117.915C375.957 117.972 375.596 118.023 375.244 118.068C374.897 118.108 374.616 118.142 374.4 118.17C373.877 118.239 373.388 118.349 372.934 118.503C372.485 118.651 372.121 118.875 371.843 119.176C371.57 119.472 371.434 119.875 371.434 120.386C371.434 121.085 371.692 121.614 372.21 121.972C372.732 122.324 373.394 122.5 374.195 122.5ZM384.386 128.909C384.045 128.909 383.741 128.881 383.474 128.824C383.207 128.773 383.023 128.722 382.92 128.67L383.432 126.898C383.92 127.023 384.352 127.068 384.727 127.034C385.102 127 385.435 126.832 385.724 126.531C386.02 126.236 386.29 125.756 386.534 125.091L386.909 124.068L382.068 110.909H384.25L387.864 121.341H388L391.614 110.909H393.795L388.239 125.909C387.989 126.585 387.679 127.145 387.31 127.588C386.94 128.037 386.511 128.369 386.023 128.585C385.54 128.801 384.994 128.909 384.386 128.909ZM406.143 110.909V124H404.131V110.909H406.143ZM405.359 117.148V119.023C404.904 119.193 404.452 119.344 404.004 119.474C403.555 119.599 403.083 119.699 402.589 119.773C402.094 119.841 401.552 119.875 400.961 119.875C399.478 119.875 398.288 119.474 397.39 118.673C396.498 117.872 396.052 116.67 396.052 115.068V110.875H398.063V115.068C398.063 115.739 398.191 116.29 398.447 116.722C398.702 117.153 399.049 117.474 399.487 117.685C399.924 117.895 400.415 118 400.961 118C401.813 118 402.583 117.923 403.271 117.77C403.964 117.611 404.66 117.403 405.359 117.148ZM411.844 121.034L418.151 110.909H420.469V124H418.458V113.875L412.185 124H409.833V110.909H411.844V121.034ZM422.994 124V122.125H423.472C423.864 122.125 424.19 122.048 424.452 121.895C424.713 121.736 424.923 121.46 425.082 121.068C425.247 120.67 425.372 120.119 425.457 119.415C425.548 118.705 425.614 117.801 425.653 116.705L425.892 110.909H434.619V124H432.608V112.784H427.801L427.597 117.455C427.551 118.528 427.455 119.474 427.307 120.293C427.165 121.105 426.946 121.787 426.651 122.338C426.361 122.889 425.974 123.304 425.491 123.582C425.009 123.861 424.403 124 423.676 124H422.994ZM440.321 121.034L446.628 110.909H448.946V124H446.935V113.875L440.662 124H438.31V110.909H440.321V121.034ZM457.948 124.273C456.721 124.273 455.664 123.983 454.778 123.403C453.891 122.824 453.21 122.026 452.732 121.009C452.255 119.991 452.016 118.83 452.016 117.523C452.016 116.193 452.261 115.02 452.749 114.003C453.244 112.98 453.931 112.182 454.812 111.608C455.698 111.028 456.732 110.739 457.914 110.739C458.835 110.739 459.664 110.909 460.403 111.25C461.141 111.591 461.746 112.068 462.218 112.682C462.69 113.295 462.982 114.011 463.096 114.83H461.085C460.931 114.233 460.59 113.705 460.062 113.244C459.539 112.778 458.835 112.545 457.948 112.545C457.164 112.545 456.477 112.75 455.886 113.159C455.3 113.562 454.843 114.134 454.513 114.872C454.19 115.605 454.028 116.466 454.028 117.455C454.028 118.466 454.187 119.347 454.505 120.097C454.829 120.847 455.283 121.429 455.869 121.844C456.46 122.259 457.153 122.466 457.948 122.466C458.471 122.466 458.945 122.375 459.371 122.193C459.798 122.011 460.158 121.75 460.454 121.409C460.749 121.068 460.96 120.659 461.085 120.182H463.096C462.982 120.955 462.701 121.651 462.252 122.27C461.809 122.884 461.221 123.372 460.488 123.736C459.761 124.094 458.914 124.273 457.948 124.273ZM467.775 115.648H471.525C473.059 115.648 474.232 116.037 475.045 116.815C475.857 117.594 476.263 118.58 476.263 119.773C476.263 120.557 476.082 121.27 475.718 121.912C475.354 122.548 474.82 123.057 474.116 123.438C473.411 123.812 472.548 124 471.525 124H466.036V110.909H468.048V122.125H471.525C472.32 122.125 472.974 121.915 473.485 121.494C473.996 121.074 474.252 120.534 474.252 119.875C474.252 119.182 473.996 118.616 473.485 118.179C472.974 117.741 472.32 117.523 471.525 117.523H467.775V115.648ZM488.087 121.034L494.393 110.909H496.712V124H494.7V113.875L488.428 124H486.075V110.909H488.087V121.034ZM505.714 124.273C504.487 124.273 503.43 123.983 502.543 123.403C501.657 122.824 500.975 122.026 500.498 121.009C500.021 119.991 499.782 118.83 499.782 117.523C499.782 116.193 500.026 115.02 500.515 114.003C501.009 112.98 501.697 112.182 502.577 111.608C503.464 111.028 504.498 110.739 505.68 110.739C506.6 110.739 507.43 110.909 508.168 111.25C508.907 111.591 509.512 112.068 509.984 112.682C510.455 113.295 510.748 114.011 510.862 114.83H508.85C508.697 114.233 508.356 113.705 507.827 113.244C507.305 112.778 506.6 112.545 505.714 112.545C504.93 112.545 504.242 112.75 503.651 113.159C503.066 113.562 502.609 114.134 502.279 114.872C501.955 115.605 501.793 116.466 501.793 117.455C501.793 118.466 501.952 119.347 502.271 120.097C502.594 120.847 503.049 121.429 503.634 121.844C504.225 122.259 504.918 122.466 505.714 122.466C506.237 122.466 506.711 122.375 507.137 122.193C507.563 122.011 507.924 121.75 508.219 121.409C508.515 121.068 508.725 120.659 508.85 120.182H510.862C510.748 120.955 510.467 121.651 510.018 122.27C509.575 122.884 508.987 123.372 508.254 123.736C507.526 124.094 506.68 124.273 505.714 124.273ZM513.802 124V110.909H515.813V116.602H517.143L521.847 110.909H524.438L519.154 117.216L524.506 124H521.915L517.62 118.477H515.813V124H513.802ZM530.545 124.307C529.715 124.307 528.962 124.151 528.286 123.838C527.61 123.52 527.073 123.062 526.675 122.466C526.278 121.864 526.079 121.136 526.079 120.284C526.079 119.534 526.227 118.926 526.522 118.46C526.817 117.989 527.212 117.619 527.707 117.352C528.201 117.085 528.746 116.886 529.343 116.756C529.945 116.619 530.55 116.511 531.158 116.432C531.954 116.33 532.599 116.253 533.093 116.202C533.593 116.145 533.957 116.051 534.184 115.92C534.417 115.79 534.533 115.562 534.533 115.239V115.17C534.533 114.33 534.303 113.676 533.843 113.21C533.388 112.744 532.698 112.511 531.772 112.511C530.812 112.511 530.059 112.722 529.513 113.142C528.968 113.562 528.585 114.011 528.363 114.489L526.454 113.807C526.795 113.011 527.249 112.392 527.817 111.949C528.391 111.5 529.016 111.187 529.692 111.011C530.374 110.83 531.045 110.739 531.704 110.739C532.124 110.739 532.607 110.79 533.153 110.892C533.704 110.989 534.235 111.19 534.746 111.497C535.263 111.804 535.692 112.267 536.033 112.886C536.374 113.506 536.545 114.335 536.545 115.375V124H534.533V122.227H534.431C534.295 122.511 534.067 122.815 533.749 123.139C533.431 123.463 533.008 123.739 532.479 123.966C531.951 124.193 531.306 124.307 530.545 124.307ZM530.852 122.5C531.647 122.5 532.317 122.344 532.863 122.031C533.414 121.719 533.829 121.315 534.107 120.821C534.391 120.327 534.533 119.807 534.533 119.261V117.42C534.448 117.523 534.261 117.616 533.971 117.702C533.687 117.781 533.357 117.852 532.982 117.915C532.613 117.972 532.252 118.023 531.9 118.068C531.553 118.108 531.272 118.142 531.056 118.17C530.533 118.239 530.045 118.349 529.59 118.503C529.141 118.651 528.778 118.875 528.499 119.176C528.227 119.472 528.09 119.875 528.09 120.386C528.09 121.085 528.349 121.614 528.866 121.972C529.388 122.324 530.05 122.5 530.852 122.5ZM538.435 112.784V110.909H549.071V112.784H544.776V124H542.764V112.784H538.435ZM553.744 115.648H557.494C559.028 115.648 560.201 116.037 561.013 116.815C561.826 117.594 562.232 118.58 562.232 119.773C562.232 120.557 562.05 121.27 561.687 121.912C561.323 122.548 560.789 123.057 560.085 123.438C559.38 123.812 558.516 124 557.494 124H552.005V110.909H554.016V122.125H557.494C558.289 122.125 558.942 121.915 559.454 121.494C559.965 121.074 560.221 120.534 560.221 119.875C560.221 119.182 559.965 118.616 559.454 118.179C558.942 117.741 558.289 117.523 557.494 117.523H553.744V115.648ZM566.76 124.136C566.339 124.136 565.979 123.986 565.678 123.685C565.376 123.384 565.226 123.023 565.226 122.602C565.226 122.182 565.376 121.821 565.678 121.52C565.979 121.219 566.339 121.068 566.76 121.068C567.18 121.068 567.541 121.219 567.842 121.52C568.143 121.821 568.294 122.182 568.294 122.602C568.294 122.881 568.223 123.136 568.081 123.369C567.945 123.602 567.76 123.79 567.527 123.932C567.3 124.068 567.044 124.136 566.76 124.136Z" fill="white"/>
</svg>
