<svg width="1440" height="1000" viewBox="0 0 1440 1000" fill="none" xmlns="http://www.w3.org/2000/svg">
<g clip-path="url(#clip0_258_595)">
<rect width="1440" height="1000" fill="#1F1D2B"/>
<g opacity="0.45">
<g filter="url(#filter0_f_258_595)">
<ellipse cx="118.015" cy="222.903" rx="118.015" ry="222.903" transform="matrix(0.0517148 0.998662 0.998425 -0.0561009 21 439.026)" fill="url(#paint0_linear_258_595)"/>
</g>
<g filter="url(#filter1_f_258_595)">
<rect width="113.409" height="303.91" transform="matrix(0.0517148 0.998662 0.998425 -0.0561009 229 489.05)" fill="url(#paint1_linear_258_595)"/>
</g>
</g>
<g filter="url(#filter2_f_258_595)">
<path d="M437 215C437 242.614 414.614 265 387 265C359.386 265 337 242.614 337 215C337 187.386 359.386 165 387 165C414.614 165 437 187.386 437 215Z" fill="#FF00FD" fill-opacity="0.69"/>
</g>
<g opacity="0.5">
<path opacity="0.0344828" d="M1743.56 115.905C1741.2 108.644 1735.7 102.511 1727.23 97.5152C1718.75 92.515 1707.35 88.6882 1693.32 86.0386C1665.27 80.7397 1626.92 80.1865 1580.96 84.1781C1489.05 92.1599 1366.95 118.293 1236.43 160.699C1105.92 203.106 991.769 253.738 912.726 301.3C873.197 325.086 842.496 348.075 822.916 368.85C813.126 379.239 806.153 389.035 802.232 398.064C798.316 407.085 797.47 415.28 799.829 422.541C802.188 429.801 807.689 435.934 816.16 440.93C824.639 445.93 836.039 449.757 850.065 452.407C878.118 457.706 916.468 458.259 962.428 454.267C1054.33 446.285 1176.44 420.152 1306.95 377.746C1437.47 335.339 1551.62 284.707 1630.66 237.145C1670.19 213.36 1700.89 190.37 1720.47 169.595C1730.26 159.207 1737.23 149.41 1741.15 140.381C1745.07 131.36 1745.92 123.165 1743.56 115.905Z" stroke="#632C72" stroke-width="2"/>
<path opacity="0.0689655" d="M1729.89 71.6835C1726.9 64.6561 1720.89 59.0261 1712.01 54.7875C1703.13 50.5453 1691.44 47.7266 1677.24 46.3096C1648.83 43.4757 1610.58 46.2671 1565.14 54.2492C1474.28 70.2106 1354.92 106.886 1228.59 160.507C1102.27 214.127 992.971 274.515 918.374 328.785C881.069 355.926 852.488 381.503 834.794 403.906C825.946 415.108 819.853 425.475 816.735 434.811C813.619 444.139 813.491 452.377 816.474 459.404C819.456 466.432 825.471 472.062 834.346 476.3C843.228 480.542 854.917 483.361 869.122 484.778C897.529 487.612 935.781 484.821 981.219 476.838C1072.08 460.877 1191.44 424.201 1317.77 370.581C1444.09 316.961 1553.39 256.573 1627.99 202.302C1665.29 175.162 1693.87 149.585 1711.57 127.182C1720.41 115.98 1726.51 105.613 1729.63 96.2766C1732.74 86.9485 1732.87 78.7109 1729.89 71.6835Z" stroke="#632C72" stroke-width="2"/>
<path opacity="0.103448" d="M1712.74 28.9362C1709.16 22.1955 1702.67 17.1111 1693.46 13.6621C1684.24 10.2102 1672.35 8.42104 1658.08 8.24742C1629.53 7.90015 1591.67 14.0149 1547.1 25.9267C1457.98 49.7462 1342.26 96.686 1221.1 161.112C1099.93 225.538 996.307 295.222 926.723 355.788C891.925 386.076 865.683 414.047 850.008 437.907C842.17 449.837 837.004 460.696 834.711 470.268C832.42 479.832 833.01 488.05 836.594 494.791C840.179 501.531 846.661 506.616 855.871 510.065C865.089 513.517 876.98 515.306 891.254 515.479C919.8 515.827 957.664 509.712 1002.23 497.8C1091.35 473.981 1207.07 427.041 1328.24 362.615C1449.4 298.189 1553.03 228.505 1622.61 167.939C1657.41 137.651 1683.65 109.68 1699.33 85.8198C1707.16 73.8893 1712.33 63.0307 1714.62 53.4584C1716.91 43.8943 1716.32 35.6768 1712.74 28.9362Z" stroke="#632C72" stroke-width="2"/>
<path opacity="0.137931" d="M1692.26 -12.0384C1688.1 -18.4411 1681.2 -22.9411 1671.72 -25.5743C1662.24 -28.2097 1650.24 -28.9556 1636 -27.8846C1607.54 -25.7425 1570.35 -16.3511 1526.99 -0.600105C1440.28 30.8962 1329.1 87.7427 1214.01 162.484C1098.91 237.225 1001.76 315.675 937.72 382.075C905.695 415.281 881.99 445.433 868.454 470.568C861.686 483.136 857.486 494.404 856.036 504.14C854.588 513.867 855.892 522.002 860.05 528.404C864.208 534.807 871.109 539.307 880.584 541.94C890.068 544.576 902.07 545.322 916.304 544.25C944.772 542.108 981.959 532.717 1025.32 516.966C1112.03 485.47 1223.21 428.623 1338.3 353.882C1453.39 279.141 1550.55 200.691 1614.59 134.291C1646.61 101.085 1670.32 70.9333 1683.85 45.7978C1690.62 33.2296 1694.82 21.9621 1696.27 12.2264C1697.72 2.49897 1696.42 -5.63576 1692.26 -12.0384Z" stroke="#632C72" stroke-width="2"/>
<path opacity="0.172414" d="M1668.61 -50.9558C1663.91 -56.9717 1656.64 -60.8532 1646.97 -62.6505C1637.3 -64.4493 1625.28 -64.1464 1611.19 -61.8388C1583.02 -57.2238 1546.79 -44.627 1504.97 -25.1568C1421.33 13.7766 1315.53 80.0971 1207.39 164.585C1099.25 249.073 1009.3 335.692 951.293 407.42C922.283 443.291 901.296 475.394 890.003 501.614C884.356 514.724 881.154 526.314 880.558 536.139C879.963 545.956 881.971 553.946 886.671 559.962C891.371 565.978 898.638 569.859 908.307 571.657C917.984 573.456 930.005 573.153 944.092 570.845C972.265 566.23 1008.49 553.633 1050.31 534.163C1133.95 495.23 1239.75 428.909 1347.89 344.422C1456.03 259.934 1545.98 173.315 1603.99 101.586C1633 65.7153 1653.98 33.6123 1665.28 7.39279C1670.93 -5.71746 1674.13 -17.3082 1674.72 -27.1332C1675.32 -36.9498 1673.31 -44.9399 1668.61 -50.9558Z" stroke="#632C72" stroke-width="2"/>
<path opacity="0.206897" d="M1641.99 -87.5491C1636.78 -93.1325 1629.2 -96.3658 1619.41 -97.3136C1609.62 -98.2621 1597.67 -96.9126 1583.84 -93.386C1556.17 -86.3332 1521.18 -70.627 1481.21 -47.5858C1401.29 -1.51144 1301.67 73.7783 1201.31 167.369C1100.94 260.961 1018.89 355.09 967.349 431.601C941.576 469.864 923.467 503.674 914.502 530.778C910.019 544.33 907.839 556.156 908.102 565.995C908.364 575.827 911.061 583.611 916.268 589.195C921.474 594.778 929.052 598.011 938.841 598.959C948.638 599.908 960.587 598.558 974.419 595.032C1002.08 587.979 1037.07 572.273 1077.04 549.231C1156.96 503.157 1256.58 427.867 1356.95 334.276C1457.31 240.685 1539.37 146.556 1590.91 70.0444C1616.68 31.7818 1634.79 -2.02806 1643.75 -29.1321C1648.24 -42.6846 1650.42 -54.5103 1650.15 -64.3499C1649.89 -74.181 1647.19 -81.9657 1641.99 -87.5491Z" stroke="#632C72" stroke-width="2"/>
<path opacity="0.241379" d="M1612.6 -121.568C1606.93 -126.676 1599.1 -129.237 1589.26 -129.328C1579.42 -129.419 1567.64 -127.033 1554.16 -122.315C1527.22 -112.877 1493.73 -94.1815 1455.92 -67.7445C1380.32 -14.8801 1287.64 68.8059 1195.82 170.788C1103.99 272.771 1030.45 373.693 985.779 454.405C963.439 494.768 948.346 530.028 941.777 557.81C938.492 571.702 937.351 583.673 938.471 593.452C939.589 603.223 942.954 610.743 948.628 615.851C954.301 620.959 962.132 623.52 971.966 623.611C981.809 623.702 993.594 621.316 1007.07 616.597C1034.01 607.16 1067.5 588.464 1105.31 562.027C1180.91 509.163 1273.59 425.477 1365.41 323.495C1457.24 221.512 1530.78 120.59 1575.45 39.8777C1597.79 -0.485506 1612.88 -35.745 1619.45 -63.5273C1622.74 -77.419 1623.88 -89.3896 1622.76 -99.1689C1621.64 -108.94 1618.28 -116.46 1612.6 -121.568Z" stroke="#632C72" stroke-width="2"/>
<path opacity="0.275862" d="M1580.69 -152.778C1574.59 -157.372 1566.57 -159.24 1556.76 -158.474C1546.95 -157.707 1535.42 -154.303 1522.41 -148.428C1496.39 -136.678 1464.66 -115.135 1429.3 -85.5034C1358.59 -26.2511 1273.56 65.1942 1190.97 174.792C1108.38 284.389 1043.92 391.337 1006.45 475.635C987.714 517.792 975.751 554.233 971.628 582.482C969.567 596.607 969.474 608.632 971.441 618.276C973.407 627.912 977.415 635.11 983.512 639.705C989.609 644.299 997.633 646.167 1007.44 645.401C1017.25 644.634 1028.78 641.23 1041.79 635.355C1067.81 623.606 1099.54 602.062 1134.9 572.431C1205.61 513.178 1290.64 421.733 1373.23 312.136C1455.82 202.538 1520.28 95.5902 1557.75 11.2918C1576.49 -30.8649 1588.45 -67.3057 1592.57 -95.5548C1594.63 -109.68 1594.73 -121.704 1592.76 -131.349C1590.79 -140.985 1586.79 -148.183 1580.69 -152.778Z" stroke="#632C72" stroke-width="2"/>
<path opacity="0.310345" d="M1546.51 -180.974C1540.03 -185.019 1531.88 -186.181 1522.17 -184.563C1512.47 -182.944 1501.27 -178.548 1488.83 -171.561C1463.93 -157.589 1434.2 -133.361 1401.55 -100.761C1336.28 -35.5718 1259.54 62.937 1186.82 179.315C1114.1 295.694 1059.2 407.853 1029.22 495.096C1014.23 538.725 1005.49 576.07 1003.84 604.571C1003.02 618.822 1003.98 630.809 1006.78 640.245C1009.58 649.673 1014.2 656.495 1020.67 660.54C1027.14 664.586 1035.3 665.748 1045 664.13C1054.71 662.51 1065.9 658.114 1078.35 651.128C1103.25 637.155 1132.98 612.928 1165.62 580.328C1230.89 515.139 1307.64 416.63 1380.36 300.251C1453.08 183.873 1507.98 71.7138 1537.95 -15.5294C1552.95 -59.1587 1561.69 -96.5035 1563.33 -125.004C1564.15 -139.255 1563.2 -151.242 1560.4 -160.679C1557.6 -170.107 1552.98 -176.928 1546.51 -180.974Z" stroke="#632C72" stroke-width="2"/>
<path opacity="0.344828" d="M1510.32 -205.968C1503.52 -209.434 1495.29 -209.88 1485.77 -207.423C1476.24 -204.963 1465.47 -199.608 1453.68 -191.564C1430.1 -175.475 1402.59 -148.748 1372.91 -113.427C1313.57 -42.7969 1245.7 62.0256 1183.4 184.299C1121.1 306.573 1076.19 423.09 1053.93 512.614C1042.8 557.384 1037.34 595.348 1038.19 623.884C1038.61 638.152 1040.61 650.01 1044.22 659.167C1047.83 668.315 1053.03 674.708 1059.83 678.174C1066.63 681.64 1074.86 682.086 1084.38 679.629C1093.91 677.17 1104.68 671.815 1116.47 663.77C1140.05 647.681 1167.56 620.954 1197.24 585.633C1256.58 515.003 1324.44 410.181 1386.75 287.907C1449.05 165.634 1493.96 49.1164 1516.22 -40.4075C1527.35 -85.1775 1532.81 -123.142 1531.96 -151.678C1531.54 -165.946 1529.54 -177.804 1525.93 -186.96C1522.32 -196.109 1517.12 -202.502 1510.32 -205.968Z" stroke="#632C72" stroke-width="2"/>
<path opacity="0.37931" d="M1472.42 -227.598C1465.34 -230.458 1457.11 -230.186 1447.84 -226.908C1438.56 -223.627 1428.3 -217.355 1417.25 -208.313C1395.16 -190.229 1370.09 -161.207 1343.6 -123.434C1290.64 -47.9006 1232.17 62.4378 1180.76 189.676C1129.35 316.914 1094.77 436.902 1080.39 528.026C1073.21 573.596 1071.08 611.891 1074.41 640.244C1076.08 654.422 1079.1 666.061 1083.5 674.867C1087.89 683.666 1093.62 689.582 1100.7 692.442C1107.78 695.302 1116.01 695.03 1125.29 691.752C1134.57 688.471 1144.83 682.198 1155.87 673.156C1177.96 655.073 1203.04 626.05 1229.52 588.277C1282.48 512.744 1340.95 402.405 1392.36 275.167C1443.77 147.929 1478.36 27.9409 1492.73 -63.1825C1499.92 -108.752 1502.04 -147.048 1498.71 -175.401C1497.05 -189.578 1494.02 -201.217 1489.63 -210.024C1485.23 -218.823 1479.5 -224.739 1472.42 -227.598Z" stroke="#632C72" stroke-width="2"/>
<path opacity="0.413793" d="M1433.11 -245.728C1425.81 -247.96 1417.63 -246.971 1408.68 -242.898C1399.72 -238.82 1390.05 -231.677 1379.83 -221.707C1359.4 -201.767 1336.95 -170.67 1313.86 -130.732C1267.68 -50.8706 1219.05 64.144 1178.93 195.378C1138.8 326.613 1114.81 449.159 1108.43 541.188C1105.24 587.211 1106.46 625.546 1112.25 653.501C1115.15 667.48 1119.17 678.811 1124.32 687.201C1129.46 695.583 1135.69 700.977 1142.99 703.209C1150.29 705.441 1158.47 704.452 1167.42 700.379C1176.38 696.301 1186.05 689.158 1196.27 679.188C1216.7 659.248 1239.15 628.151 1262.24 588.213C1308.42 508.352 1357.05 393.337 1397.17 262.102C1437.29 130.868 1461.29 8.3219 1467.67 -83.7075C1470.86 -129.73 1469.63 -168.065 1463.85 -196.02C1460.95 -209.999 1456.93 -221.33 1451.78 -229.72C1446.64 -238.103 1440.41 -243.496 1433.11 -245.728Z" stroke="#632C72" stroke-width="2"/>
<path opacity="0.448276" d="M1392.69 -260.246C1385.22 -261.833 1377.16 -260.135 1368.6 -255.297C1360.03 -250.454 1351.02 -242.495 1341.71 -231.673C1323.09 -210.028 1303.44 -177.093 1283.92 -135.294C1244.88 -51.712 1206.45 67.1035 1177.92 201.336C1149.39 335.567 1136.16 459.739 1137.83 551.974C1138.67 598.099 1143.23 636.182 1151.43 663.526C1155.53 677.199 1160.53 688.136 1166.39 696.046C1172.24 703.948 1178.91 708.778 1186.38 710.366C1193.85 711.953 1201.91 710.255 1210.47 705.417C1219.04 700.574 1228.06 692.615 1237.36 681.793C1255.98 660.148 1275.63 627.212 1295.16 585.414C1334.2 501.832 1372.62 383.016 1401.15 248.784C1429.68 114.552 1442.91 -9.61894 1441.24 -101.854C1440.41 -147.98 1435.85 -186.062 1427.64 -213.406C1423.54 -227.079 1418.55 -238.017 1412.69 -245.926C1406.83 -253.828 1400.16 -258.658 1392.69 -260.246Z" stroke="#632C72" stroke-width="2"/>
<path opacity="0.482759" d="M1351.49 -271.068C1343.91 -271.998 1336.03 -269.605 1327.92 -264.038C1319.8 -258.467 1311.52 -249.753 1303.19 -238.16C1286.53 -214.976 1269.82 -180.453 1254.02 -137.112C1222.41 -50.4449 1194.49 71.2672 1177.77 207.475C1161.04 343.683 1158.69 468.535 1168.39 560.273C1173.24 606.15 1181.1 643.69 1191.65 670.216C1196.93 683.48 1202.86 693.94 1209.39 701.308C1215.91 708.671 1222.98 712.9 1230.56 713.831C1238.13 714.761 1246.02 712.367 1254.13 706.801C1262.24 701.23 1270.53 692.516 1278.86 680.923C1295.51 657.739 1312.22 623.215 1328.03 579.874C1359.63 493.208 1387.56 371.496 1404.28 235.288C1421 99.0798 1423.36 -25.7717 1413.66 -117.51C1408.81 -163.388 1400.94 -200.928 1390.39 -227.453C1385.11 -240.717 1379.18 -251.177 1372.66 -258.545C1366.13 -265.908 1359.07 -270.138 1351.49 -271.068Z" stroke="#632C72" stroke-width="2"/>
<path opacity="0.517241" d="M1309.82 -278.145C1302.2 -278.411 1294.55 -275.339 1286.96 -269.088C1279.36 -262.831 1271.87 -253.427 1264.58 -241.153C1250 -216.605 1236.37 -180.757 1224.4 -136.203C1200.47 -47.1115 1183.26 76.571 1178.47 213.718C1173.68 350.865 1182.22 475.447 1199.88 565.991C1208.71 611.271 1219.81 647.983 1232.64 673.488C1239.05 686.241 1245.87 696.144 1253.02 702.916C1260.15 709.682 1267.56 713.279 1275.19 713.546C1282.82 713.812 1290.47 710.74 1298.06 704.489C1305.66 698.232 1313.15 688.828 1320.44 676.554C1335.01 652.006 1348.65 616.158 1360.62 571.604C1384.55 482.513 1401.76 358.83 1406.55 221.683C1411.34 84.5356 1402.8 -40.0459 1385.14 -130.59C1376.31 -175.87 1365.21 -212.582 1352.38 -238.087C1345.97 -250.84 1339.15 -260.743 1332 -267.515C1324.87 -274.281 1317.45 -277.878 1309.82 -278.145Z" stroke="#632C72" stroke-width="2"/>
<path opacity="0.551724" d="M1268.03 -281.447C1260.41 -281.047 1253.06 -277.321 1246.04 -270.431C1239.02 -263.536 1232.37 -253.515 1226.18 -240.652C1213.8 -214.927 1203.34 -178.027 1195.3 -132.599C1179.22 -41.7611 1172.86 82.9504 1180.04 219.993C1187.23 357.036 1206.59 480.399 1232.07 569.059C1244.82 613.397 1259.08 649.002 1274.08 673.292C1281.58 685.438 1289.24 694.709 1296.94 700.832C1304.64 706.95 1312.34 709.888 1319.96 709.489C1327.59 709.089 1334.93 705.363 1341.95 698.473C1348.98 691.578 1355.62 681.557 1361.81 668.694C1374.19 642.969 1384.65 606.069 1392.69 560.642C1408.77 469.804 1415.13 345.092 1407.95 208.049C1400.77 71.0065 1381.4 -52.3568 1355.92 -141.017C1343.18 -185.355 1328.92 -220.96 1313.92 -245.25C1306.42 -257.395 1298.76 -266.666 1291.05 -272.79C1283.35 -278.908 1275.65 -281.846 1268.03 -281.447Z" stroke="#632C72" stroke-width="2"/>
<path opacity="0.586207" d="M1226.43 -280.979C1218.87 -279.916 1211.88 -275.564 1205.49 -268.089C1199.09 -260.607 1193.34 -250.045 1188.3 -236.692C1178.21 -209.986 1171 -172.314 1166.95 -126.359C1158.85 -34.4654 1163.39 90.326 1182.49 226.221C1201.58 362.117 1231.63 483.323 1264.74 569.425C1281.3 612.483 1298.61 646.71 1315.67 669.6C1324.2 681.045 1332.64 689.614 1340.85 695.042C1349.05 700.466 1356.97 702.722 1364.53 701.66C1372.09 700.597 1379.09 696.245 1385.48 688.77C1391.88 681.288 1397.62 670.726 1402.67 657.373C1412.76 630.667 1419.96 592.995 1424.01 547.04C1432.11 455.146 1427.58 330.355 1408.48 194.46C1389.38 58.5645 1359.34 -62.6419 1326.23 -148.744C1309.67 -191.802 1292.36 -226.029 1275.3 -248.919C1266.77 -260.364 1258.33 -268.933 1250.12 -274.361C1241.92 -279.785 1233.99 -282.041 1226.43 -280.979Z" stroke="#632C72" stroke-width="2"/>
<path opacity="0.62069" d="M1185.36 -276.77C1177.92 -275.053 1171.33 -270.107 1165.62 -262.104C1159.9 -254.093 1155.09 -243.071 1151.23 -229.328C1143.51 -201.844 1139.61 -163.689 1139.58 -117.555C1139.53 -25.3053 1154.92 98.6162 1185.79 232.33C1216.66 366.043 1257.15 484.17 1297.64 567.058C1317.89 608.51 1338.12 641.097 1357.11 662.414C1366.6 673.072 1375.75 680.873 1384.4 685.565C1393.05 690.253 1401.14 691.81 1408.58 690.093C1416.02 688.375 1422.61 683.429 1428.32 675.426C1434.04 667.415 1438.85 656.393 1442.71 642.65C1450.43 615.167 1454.33 577.011 1454.36 530.877C1454.41 438.628 1439.02 314.706 1408.15 180.992C1377.28 47.2788 1336.79 -70.8481 1296.3 -153.736C1276.05 -195.188 1255.83 -227.775 1236.83 -249.091C1227.34 -259.75 1218.19 -267.551 1209.54 -272.243C1200.89 -276.931 1192.8 -278.488 1185.36 -276.77Z" stroke="#632C72" stroke-width="2"/>
<path opacity="0.655172" d="M1145.14 -268.885C1137.88 -266.526 1131.75 -261.024 1126.75 -252.553C1121.75 -244.075 1117.92 -232.675 1115.27 -218.648C1109.97 -190.596 1109.42 -152.246 1113.41 -106.286C1121.39 -14.3818 1147.53 107.727 1189.93 238.241C1232.34 368.755 1282.97 482.904 1330.53 561.947C1354.32 601.476 1377.31 632.177 1398.09 651.757C1408.47 661.547 1418.27 668.52 1427.3 672.441C1436.32 676.357 1444.51 677.203 1451.78 674.844C1459.04 672.485 1465.17 666.984 1470.16 658.513C1475.16 650.034 1478.99 638.634 1481.64 624.608C1486.94 596.556 1487.49 558.205 1483.5 512.245C1475.52 420.341 1449.39 298.233 1406.98 167.718C1364.57 37.2041 1313.94 -76.9443 1266.38 -155.988C1242.59 -195.517 1219.61 -226.217 1198.83 -245.797C1188.44 -255.588 1178.64 -262.561 1169.62 -266.481C1160.59 -270.398 1152.4 -271.244 1145.14 -268.885Z" stroke="#632C72" stroke-width="2"/>
<path opacity="0.689655" d="M1106.08 -257.406C1099.06 -254.423 1093.43 -248.409 1089.19 -239.534C1084.95 -230.652 1082.13 -218.962 1080.71 -204.758C1077.88 -176.351 1080.67 -138.098 1088.65 -92.661C1104.61 -1.80233 1141.29 117.564 1194.91 243.886C1248.53 370.207 1308.92 479.508 1363.19 554.106C1390.33 591.411 1415.9 619.991 1438.31 637.686C1449.51 646.534 1459.88 652.627 1469.21 655.745C1478.54 658.861 1486.78 658.989 1493.8 656.006C1500.83 653.023 1506.46 647.009 1510.7 638.134C1514.94 629.252 1517.76 617.562 1519.18 603.358C1522.01 574.951 1519.22 536.698 1511.24 491.261C1495.28 400.402 1458.6 281.036 1404.98 154.714C1351.36 28.3928 1290.97 -80.9084 1236.7 -155.506C1209.56 -192.811 1183.99 -221.391 1161.58 -239.086C1150.38 -247.934 1140.01 -254.027 1130.68 -257.145C1121.35 -260.261 1113.11 -260.389 1106.08 -257.406Z" stroke="#632C72" stroke-width="2"/>
<path opacity="0.724138" d="M1068.5 -242.453C1061.76 -238.869 1056.68 -232.386 1053.23 -223.176C1049.78 -213.958 1047.99 -202.067 1047.81 -187.793C1047.47 -159.247 1053.58 -121.384 1065.49 -76.8148C1089.31 12.307 1136.25 128.023 1200.68 249.19C1265.11 370.358 1334.79 473.98 1395.36 543.563C1425.64 578.361 1453.61 604.604 1477.47 620.279C1489.4 628.116 1500.26 633.283 1509.84 635.575C1519.4 637.866 1527.62 637.276 1534.36 633.692C1541.1 630.108 1546.18 623.625 1549.63 614.415C1553.08 605.197 1554.87 593.306 1555.05 579.033C1555.39 550.487 1549.28 512.623 1537.37 468.054C1513.55 378.932 1466.61 263.217 1402.18 142.049C1337.76 20.8816 1268.07 -82.7406 1207.51 -152.324C1177.22 -187.122 1149.25 -213.364 1125.39 -229.039C1113.46 -236.877 1102.6 -242.043 1093.03 -244.336C1083.46 -246.627 1075.24 -246.037 1068.5 -242.453Z" stroke="#632C72" stroke-width="2"/>
<path opacity="0.758621" d="M1032.7 -224.165C1026.29 -220.007 1021.79 -213.106 1019.16 -203.631C1016.53 -194.147 1015.78 -182.145 1016.85 -167.911C1018.99 -139.443 1028.38 -102.257 1044.13 -58.8955C1075.63 27.8112 1132.48 138.995 1207.22 254.087C1281.96 369.178 1360.41 466.333 1426.81 530.373C1460.02 562.398 1490.17 586.103 1515.3 599.639C1527.87 606.407 1539.14 610.607 1548.87 612.057C1558.6 613.505 1566.74 612.201 1573.14 608.043C1579.54 603.886 1584.04 596.985 1586.68 587.509C1589.31 578.025 1590.06 566.024 1588.99 551.789C1586.84 523.321 1577.45 486.135 1561.7 442.774C1530.2 356.067 1473.36 244.883 1398.62 129.791C1323.88 14.6999 1245.43 -82.4545 1179.03 -146.495C1145.82 -178.52 1115.67 -202.225 1090.53 -215.761C1077.96 -222.529 1066.7 -226.729 1056.96 -228.179C1047.23 -229.627 1039.1 -228.323 1032.7 -224.165Z" stroke="#632C72" stroke-width="2"/>
<path opacity="0.793103" d="M998.946 -202.711C992.93 -198.01 989.049 -190.744 987.251 -181.074C985.453 -171.397 985.755 -159.376 988.063 -145.289C992.678 -117.116 1005.27 -80.8898 1024.75 -39.0666C1063.68 44.5651 1130 150.372 1214.49 258.511C1298.97 366.65 1385.59 456.598 1457.32 514.607C1493.19 543.617 1525.3 564.603 1551.52 575.897C1564.63 581.544 1576.22 584.746 1586.04 585.342C1595.86 585.937 1603.85 583.929 1609.86 579.229C1615.88 574.529 1619.76 567.262 1621.56 557.593C1623.36 547.915 1623.05 535.894 1620.75 521.807C1616.13 493.634 1603.54 457.408 1584.06 415.585C1545.13 331.953 1478.81 226.146 1394.32 118.007C1309.84 9.86779 1223.22 -80.0796 1151.49 -138.089C1115.62 -167.099 1083.51 -188.085 1057.29 -199.379C1044.18 -205.026 1032.59 -208.228 1022.77 -208.824C1012.95 -209.419 1004.96 -207.411 998.946 -202.711Z" stroke="#632C72" stroke-width="2"/>
<path opacity="0.827586" d="M967.52 -178.281C961.937 -173.075 958.703 -165.497 957.755 -155.708C956.807 -145.911 958.156 -133.962 961.683 -120.13C968.736 -92.4662 984.442 -57.4754 1007.48 -17.5083C1053.56 62.4119 1128.85 162.036 1222.44 262.4C1316.03 362.764 1410.16 444.82 1486.67 496.357C1524.93 522.13 1558.74 540.239 1585.85 549.204C1599.4 553.687 1611.22 555.867 1621.06 555.604C1630.9 555.341 1638.68 552.644 1644.26 547.438C1649.85 542.231 1653.08 534.654 1654.03 524.865C1654.98 515.067 1653.63 503.119 1650.1 489.286C1643.05 461.623 1627.34 426.632 1604.3 386.665C1558.23 306.745 1482.94 207.121 1389.35 106.757C1295.75 6.3926 1201.62 -75.6631 1125.11 -127.2C1086.85 -152.973 1053.04 -171.082 1025.94 -180.047C1012.38 -184.53 1000.56 -186.71 990.719 -186.447C980.888 -186.185 973.103 -183.488 967.52 -178.281Z" stroke="#632C72" stroke-width="2"/>
<path opacity="0.862069" d="M938.669 -151.089C933.561 -145.416 931.001 -137.585 930.91 -127.751C930.819 -117.908 933.204 -106.122 937.923 -92.65C947.36 -65.7065 966.056 -32.2178 992.493 5.58907C1045.36 81.1894 1129.04 173.872 1231.03 265.697C1333.01 357.523 1433.93 431.062 1514.64 475.735C1555.01 498.075 1590.27 513.168 1618.05 519.737C1631.94 523.022 1643.91 524.163 1653.69 523.043C1663.46 521.925 1670.98 518.56 1676.09 512.886C1681.2 507.213 1683.76 499.382 1683.85 489.548C1683.94 479.705 1681.55 467.92 1676.84 454.447C1667.4 427.504 1648.7 394.015 1622.26 356.208C1569.4 280.608 1485.71 187.925 1383.73 96.0999C1281.75 4.27454 1180.83 -69.265 1100.12 -113.938C1059.75 -136.278 1024.49 -151.371 996.71 -157.94C982.819 -161.224 970.848 -162.365 961.069 -161.246C951.298 -160.127 943.778 -156.762 938.669 -151.089Z" stroke="#632C72" stroke-width="2"/>
<path opacity="0.896552" d="M912.625 -121.37C908.03 -115.273 906.162 -107.25 906.928 -97.4448C907.695 -87.6316 911.099 -76.0986 916.974 -63.0889C928.724 -37.0704 950.267 -5.33864 979.899 30.0203C1039.15 100.726 1130.6 185.762 1240.19 268.349C1349.79 350.937 1456.74 415.401 1541.04 452.869C1583.19 471.606 1619.63 483.569 1647.88 487.691C1662.01 489.753 1674.03 489.846 1683.68 487.878C1693.31 485.912 1700.51 481.905 1705.11 475.808C1709.7 469.711 1711.57 461.687 1710.8 451.882C1710.04 442.069 1706.63 430.536 1700.76 417.526C1689.01 391.508 1667.46 359.776 1637.83 324.417C1578.58 253.712 1487.14 168.675 1377.54 86.0879C1267.94 3.50035 1160.99 -60.9634 1076.69 -98.4314C1034.54 -117.169 998.096 -129.131 969.847 -133.254C955.722 -135.315 943.698 -135.408 934.053 -133.441C924.417 -131.475 917.219 -127.468 912.625 -121.37Z" stroke="#632C72" stroke-width="2"/>
<path opacity="0.931035" d="M889.596 -89.3802C885.55 -82.9059 884.388 -74.7497 886.006 -65.049C887.626 -55.3401 892.022 -44.1476 899.009 -31.6994C912.981 -6.80404 937.208 22.9294 969.809 55.5712C1035 120.843 1133.51 197.586 1249.88 270.307C1366.26 343.028 1478.42 397.926 1565.67 427.904C1609.3 442.896 1646.64 451.637 1675.14 453.282C1689.39 454.104 1701.38 453.149 1710.81 450.348C1720.24 447.55 1727.06 442.931 1731.11 436.456C1735.16 429.982 1736.32 421.826 1734.7 412.125C1733.08 402.416 1728.68 391.224 1721.7 378.776C1707.72 353.88 1683.5 324.147 1650.9 291.505C1585.71 226.233 1487.2 149.49 1370.82 76.7689C1254.44 4.04769 1142.28 -50.8496 1055.04 -80.828C1011.41 -95.8198 974.066 -104.561 945.565 -106.206C931.314 -107.028 919.327 -106.073 909.891 -103.272C900.463 -100.474 893.641 -95.8544 889.596 -89.3802Z" stroke="#632C72" stroke-width="2"/>
<path opacity="0.965517" d="M869.769 -55.3873C866.303 -48.5851 865.856 -40.3586 868.313 -30.8359C870.773 -21.3051 876.128 -10.5383 884.173 1.25355C900.262 24.8364 926.988 52.3452 962.309 82.0214C1032.94 141.363 1137.76 209.229 1260.04 271.53C1382.31 333.832 1498.83 378.745 1588.35 401.005C1633.12 412.137 1671.08 417.59 1699.62 416.745C1713.89 416.322 1725.75 414.326 1734.9 410.713C1744.05 407.104 1750.44 401.908 1753.91 395.105C1757.38 388.303 1757.82 380.077 1755.37 370.554C1752.91 361.023 1747.55 350.256 1739.51 338.464C1723.42 314.882 1696.69 287.373 1661.37 257.697C1590.74 198.355 1485.92 130.489 1363.64 68.188C1241.37 5.88652 1124.85 -39.0266 1035.33 -61.2871C990.559 -72.4193 952.594 -77.8723 924.058 -77.0269C909.79 -76.6041 897.932 -74.6078 888.776 -70.9955C879.627 -67.3863 873.234 -62.1895 869.769 -55.3873Z" stroke="#632C72" stroke-width="2"/>
<path d="M853.306 -19.6823C850.446 -12.6039 850.718 -4.36977 853.996 4.90252C857.277 14.1827 863.55 24.4418 872.592 35.4877C890.675 57.5786 919.697 82.6532 957.471 109.138C1033 162.099 1143.34 220.57 1270.58 271.977C1397.82 323.385 1517.81 357.972 1608.93 372.345C1654.5 379.533 1692.8 381.656 1721.15 378.327C1735.33 376.662 1746.97 373.64 1755.77 369.243C1764.57 364.851 1770.49 359.116 1773.35 352.038C1776.21 344.96 1775.93 336.726 1772.66 327.453C1769.38 318.173 1763.1 307.914 1754.06 296.868C1735.98 274.777 1706.95 249.703 1669.18 223.218C1593.65 170.257 1483.31 111.786 1356.07 60.3788C1228.83 8.97123 1108.85 -25.6158 1017.72 -39.9891C972.152 -47.177 933.857 -49.3004 905.503 -45.9711C891.326 -44.3064 879.687 -41.2842 870.88 -36.8876C862.081 -32.4948 856.166 -26.7606 853.306 -19.6823Z" stroke="#632C72" stroke-width="2"/>
</g>
</g>
<defs>
<filter id="filter0_f_258_595" x="-372.982" y="25.8494" width="1245.28" height="1037.06" filterUnits="userSpaceOnUse" color-interpolation-filters="sRGB">
<feFlood flood-opacity="0" result="BackgroundImageFix"/>
<feBlend mode="normal" in="SourceGraphic" in2="BackgroundImageFix" result="shape"/>
<feGaussianBlur stdDeviation="200" result="effect1_foregroundBlur_258_595"/>
</filter>
<filter id="filter1_f_258_595" x="28.9995" y="272" width="709.296" height="530.307" filterUnits="userSpaceOnUse" color-interpolation-filters="sRGB">
<feFlood flood-opacity="0" result="BackgroundImageFix"/>
<feBlend mode="normal" in="SourceGraphic" in2="BackgroundImageFix" result="shape"/>
<feGaussianBlur stdDeviation="100" result="effect1_foregroundBlur_258_595"/>
</filter>
<filter id="filter2_f_258_595" x="151" y="-21" width="472" height="472" filterUnits="userSpaceOnUse" color-interpolation-filters="sRGB">
<feFlood flood-opacity="0" result="BackgroundImageFix"/>
<feBlend mode="normal" in="SourceGraphic" in2="BackgroundImageFix" result="shape"/>
<feGaussianBlur stdDeviation="93" result="effect1_foregroundBlur_258_595"/>
</filter>
<linearGradient id="paint0_linear_258_595" x1="118.015" y1="0" x2="118.015" y2="445.807" gradientUnits="userSpaceOnUse">
<stop stop-color="#631D77"/>
<stop offset="1" stop-color="#130D1B"/>
</linearGradient>
<linearGradient id="paint1_linear_258_595" x1="56.7045" y1="0" x2="56.7045" y2="303.91" gradientUnits="userSpaceOnUse">
<stop stop-color="#EF57BB"/>
<stop offset="1" stop-color="#361E4E"/>
</linearGradient>
<clipPath id="clip0_258_595">
<rect width="1440" height="1000" fill="white"/>
</clipPath>
</defs>
</svg>
