<svg width="390" height="47" viewBox="0 0 390 47" fill="none" xmlns="http://www.w3.org/2000/svg">
<g clip-path="url(#clip0_417_15738)">
<path d="M45.5007 45.386H41.3409L57.8403 0H62L45.5007 45.386Z" fill="#E334DA"/>
<path fill-rule="evenodd" clip-rule="evenodd" d="M1.88234 46.9997C0.859848 46.9997 0 46.1695 0 45.1317C0 44.0939 0.859848 43.2637 1.88234 43.2637C2.92808 43.2637 3.76463 44.0939 3.76463 45.1317C3.76463 46.1695 2.92808 46.9997 1.88234 46.9997ZM1.88234 43.748C1.11547 43.748 0.511236 44.3706 0.511236 45.1317C0.511236 45.8927 1.11547 46.5154 1.88234 46.5154C2.64921 46.5154 3.27665 45.8927 3.27665 45.1317C3.27665 44.3706 2.64921 43.748 1.88234 43.748Z" fill="#E334DA"/>
<path d="M2.43961 45.132C2.43961 45.4318 2.18401 45.6855 1.88191 45.6855C1.57981 45.6855 1.34741 45.4318 1.34741 45.132C1.34741 44.8322 1.57981 44.6016 1.88191 44.6016C2.18401 44.6016 2.43961 44.8322 2.43961 45.132Z" fill="white"/>
<path d="M25.0967 45.386H3.69397V44.9017H24.7714L42.8509 0H61.5811V0.484303H43.1762L25.0967 45.386Z" fill="#E334DA"/>
<path opacity="0.7" d="M41.3409 45.3863H45.5007L53.7503 22.6934H49.5906L41.3409 45.3863Z" fill="#E396DF"/>
</g>
<path opacity="0.2" d="M145.775 0H67.55L50.5 47H78.55H322.45L339.5 0H145.775Z" fill="#E334DA"/>
<g clip-path="url(#clip1_417_15738)">
<path d="M344.374 1.60938H348.502L332.128 46.8392H328L344.374 1.60938Z" fill="#E334DA"/>
<path fill-rule="evenodd" clip-rule="evenodd" d="M387.638 0C388.676 0 389.506 0.827376 389.506 1.86159C389.506 2.89581 388.676 3.72319 387.638 3.72319C386.623 3.72319 385.77 2.89581 385.77 1.86159C385.77 0.827376 386.623 0 387.638 0ZM387.638 3.24055C388.399 3.24055 389.022 2.62002 389.022 1.86159C389.022 1.10317 388.399 0.482637 387.638 0.482637C386.877 0.482637 386.277 1.10317 386.277 1.86159C386.277 2.62002 386.877 3.24055 387.638 3.24055Z" fill="#E334DA"/>
<path d="M387.108 1.86115C387.108 1.56238 387.339 1.30957 387.639 1.30957C387.939 1.30957 388.192 1.56238 388.192 1.86115C388.192 2.15993 387.939 2.38976 387.639 2.38976C387.339 2.38976 387.108 2.15993 387.108 1.86115Z" fill="white"/>
<path d="M364.622 1.60938H385.839V2.09201H364.945L347.002 46.8392H328.391V46.3566H346.656L364.622 1.60938Z" fill="#E334DA"/>
<path opacity="0.7" d="M344.374 1.60938L336.187 24.2243H340.269L348.502 1.60938H344.374Z" fill="#E396DF"/>
</g>
<defs>
<clipPath id="clip0_417_15738">
<rect width="62" height="47" fill="white"/>
</clipPath>
<clipPath id="clip1_417_15738">
<rect width="62" height="47" fill="white" transform="translate(328)"/>
</clipPath>
</defs>
</svg>
