<svg width="206" height="202" viewBox="0 0 206 202" fill="none" xmlns="http://www.w3.org/2000/svg">
<path d="M83.208 49C91.2705 49 98.6611 52.3594 105.38 59.0781C112.099 65.7129 115.458 73.1035 115.458 81.25V167.292C115.458 170.315 114.408 172.877 112.309 174.977C110.293 176.992 107.773 178 104.75 178C101.727 178 99.165 176.992 97.0654 174.977C95.0498 172.877 94.042 170.315 94.042 167.292V81.25C94.042 78.4785 92.9922 76.085 90.8926 74.0693C88.793 71.9697 86.2314 70.9199 83.208 70.9199C80.3525 70.9199 77.833 69.8281 75.6494 67.6445C73.5498 65.4609 72.5 62.8994 72.5 59.96C72.5 56.9365 73.5078 54.375 75.5234 52.2754C77.623 50.0918 80.1846 49 83.208 49Z" fill="white"/>
</svg>
