<svg width="36" height="36" viewBox="0 0 36 36" fill="none" xmlns="http://www.w3.org/2000/svg">
<g id="Group">
<path id="Vector" d="M18.0464 0H17.9644C8.04888 0 0.0107422 8.04052 0.0107422 17.959V18.041C0.0107422 27.9595 8.04888 36 17.9644 36H18.0464C27.962 36 36.0001 27.9595 36.0001 18.041V17.959C36.0001 8.04052 27.962 0 18.0464 0Z" fill="#383D38"/>
<path id="Vector_2" d="M6.8265 17.3864C6.87694 17.3612 6.9274 17.3372 6.97657 17.3145C7.83145 16.9185 8.69768 16.5477 9.56265 16.1769C9.6093 16.1769 9.68745 16.1226 9.73158 16.105C9.79841 16.076 9.86525 16.0482 9.93208 16.0192C10.0607 15.9637 10.1893 15.9095 10.3167 15.854C10.5739 15.7443 10.8298 15.6345 11.087 15.5248L12.6266 14.8652C13.6529 14.4262 14.6806 13.9861 15.7069 13.5471C16.7333 13.1082 17.7609 12.6681 18.7873 12.2291C19.8136 11.7902 20.8412 11.35 21.8676 10.9111C22.894 10.4722 23.9216 10.032 24.948 9.59312C25.1762 9.49474 25.4233 9.34843 25.6679 9.30555C25.8734 9.26897 26.0739 9.19835 26.2807 9.15925C26.6728 9.08483 27.1053 9.05456 27.4811 9.21727C27.6109 9.27402 27.7307 9.35348 27.8303 9.45312C28.3069 9.92483 28.2401 10.6992 28.1392 11.3627C27.4369 15.9864 26.7346 20.6114 26.031 25.2352C25.9352 25.8696 25.8041 26.5658 25.3035 26.9669C24.8798 27.3062 24.2771 27.344 23.7539 27.2002C23.2306 27.0552 22.7691 26.7512 22.3165 26.4523C20.439 25.2087 18.5603 23.9651 16.6829 22.7215C16.2365 22.4264 15.7397 22.0404 15.7448 21.5044C15.7473 21.1815 15.9402 20.894 16.1369 20.6379C17.7685 18.5089 20.1225 17.0459 21.8739 15.0153C22.121 14.7289 22.3152 14.2118 21.976 14.0466C21.7743 13.9482 21.5423 14.0819 21.3582 14.2093C19.0432 15.8174 16.7295 17.4268 14.4145 19.0349C13.6593 19.5596 12.8674 20.0994 11.9571 20.228C11.1425 20.3441 10.323 20.117 9.53491 19.885C8.87421 19.6907 8.21474 19.4914 7.55782 19.2859C7.20856 19.1774 6.84794 19.0601 6.57811 18.8142C6.30828 18.5682 6.15322 18.1545 6.31587 17.8266C6.418 17.621 6.61596 17.4911 6.82401 17.3851L6.8265 17.3864Z" fill="#FEFFFC"/>
</g>
</svg>
