<svg width="25" height="24" viewBox="0 0 25 24" fill="none" xmlns="http://www.w3.org/2000/svg">
<g id="info">
<path id="Vector" d="M12.0593 22C14.8207 22 17.3207 20.8807 19.1304 19.0711C20.94 17.2614 22.0593 14.7614 22.0593 12C22.0593 9.2386 20.94 6.7386 19.1304 4.92893C17.3207 3.11929 14.8207 2 12.0593 2C9.29793 2 6.79793 3.11929 4.98826 4.92893C3.17862 6.7386 2.05933 9.2386 2.05933 12C2.05933 14.7614 3.17862 17.2614 4.98826 19.0711C6.79793 20.8807 9.29793 22 12.0593 22Z" stroke="white" stroke-width="2" stroke-linejoin="round"/>
<path id="Vector_2" fill-rule="evenodd" clip-rule="evenodd" d="M12.0593 5.5C12.7497 5.5 13.3093 6.05965 13.3093 6.75C13.3093 7.44035 12.7497 8 12.0593 8C11.369 8 10.8093 7.44035 10.8093 6.75C10.8093 6.05965 11.369 5.5 12.0593 5.5Z" fill="white"/>
<path id="Vector_3" d="M12.3093 17V10H11.8093H11.3093" stroke="white" stroke-width="2" stroke-linecap="round" stroke-linejoin="round"/>
<path id="Vector_4" d="M10.5593 17H14.0593" stroke="white" stroke-width="2" stroke-linecap="round" stroke-linejoin="round"/>
</g>
</svg>
