<svg width="114" height="28" viewBox="0 0 114 28" fill="none" xmlns="http://www.w3.org/2000/svg">
<g id="logo_Racodi 1" clip-path="url(#clip0_35_517)">
<path id="Vector" d="M13.4868 26.5L8.81476 18.02H7.50276V26.5H2.03076V4.036H11.2148C12.9854 4.036 14.4894 4.34533 15.7268 4.964C16.9854 5.58267 17.9241 6.436 18.5428 7.524C19.1614 8.59067 19.4708 9.78533 19.4708 11.108C19.4708 12.6013 19.0441 13.9347 18.1908 15.108C17.3588 16.2813 16.1214 17.1133 14.4788 17.604L19.6628 26.5H13.4868ZM7.50276 14.148H10.8948C11.8974 14.148 12.6441 13.9027 13.1348 13.412C13.6468 12.9213 13.9028 12.228 13.9028 11.332C13.9028 10.4787 13.6468 9.80667 13.1348 9.316C12.6441 8.82533 11.8974 8.58 10.8948 8.58H7.50276V14.148ZM21.8178 17.54C21.8178 15.7053 22.1591 14.0947 22.8418 12.708C23.5458 11.3213 24.4951 10.2547 25.6898 9.508C26.8844 8.76133 28.2178 8.388 29.6898 8.388C30.9484 8.388 32.0471 8.644 32.9858 9.156C33.9458 9.668 34.6818 10.34 35.1938 11.172V8.644H40.6658V26.5H35.1938V23.972C34.6604 24.804 33.9138 25.476 32.9538 25.988C32.0151 26.5 30.9164 26.756 29.6578 26.756C28.2071 26.756 26.8844 26.3827 25.6898 25.636C24.4951 24.868 23.5458 23.7907 22.8418 22.404C22.1591 20.996 21.8178 19.3747 21.8178 17.54ZM35.1938 17.572C35.1938 16.2067 34.8098 15.1293 34.0418 14.34C33.2951 13.5507 32.3778 13.156 31.2898 13.156C30.2018 13.156 29.2738 13.5507 28.5058 14.34C27.7591 15.108 27.3858 16.1747 27.3858 17.54C27.3858 18.9053 27.7591 19.9933 28.5058 20.804C29.2738 21.5933 30.2018 21.988 31.2898 21.988C32.3778 21.988 33.2951 21.5933 34.0418 20.804C34.8098 20.0147 35.1938 18.9373 35.1938 17.572ZM55.5365 26.5L50.0965 19.012V26.5H44.6245V2.82H50.0965V15.908L55.5045 8.644H62.2565L54.8325 17.604L62.3205 26.5H55.5365ZM72.5338 26.756C70.7844 26.756 69.2058 26.3827 67.7978 25.636C66.4111 24.8893 65.3124 23.8227 64.5018 22.436C63.7124 21.0493 63.3178 19.428 63.3178 17.572C63.3178 15.7373 63.7231 14.1267 64.5338 12.74C65.3444 11.332 66.4538 10.2547 67.8618 9.508C69.2698 8.76133 70.8484 8.388 72.5978 8.388C74.3471 8.388 75.9258 8.76133 77.3338 9.508C78.7418 10.2547 79.8511 11.332 80.6618 12.74C81.4724 14.1267 81.8778 15.7373 81.8778 17.572C81.8778 19.4067 81.4618 21.028 80.6298 22.436C79.8191 23.8227 78.6991 24.8893 77.2698 25.636C75.8618 26.3827 74.2831 26.756 72.5338 26.756ZM72.5338 22.02C73.5791 22.02 74.4644 21.636 75.1898 20.868C75.9364 20.1 76.3098 19.0013 76.3098 17.572C76.3098 16.1427 75.9471 15.044 75.2218 14.276C74.5178 13.508 73.6431 13.124 72.5978 13.124C71.5311 13.124 70.6458 13.508 69.9418 14.276C69.2378 15.0227 68.8858 16.1213 68.8858 17.572C68.8858 19.0013 69.2271 20.1 69.9098 20.868C70.6138 21.636 71.4884 22.02 72.5338 22.02ZM83.6928 17.54C83.6928 15.7053 84.0341 14.0947 84.7168 12.708C85.4208 11.3213 86.3701 10.2547 87.5648 9.508C88.7594 8.76133 90.0928 8.388 91.5648 8.388C92.7381 8.388 93.8048 8.63333 94.7648 9.124C95.7461 9.61467 96.5141 10.276 97.0688 11.108V2.82H102.541V26.5H97.0688V23.94C96.5568 24.7933 95.8208 25.476 94.8608 25.988C93.9221 26.5 92.8234 26.756 91.5648 26.756C90.0928 26.756 88.7594 26.3827 87.5648 25.636C86.3701 24.868 85.4208 23.7907 84.7168 22.404C84.0341 20.996 83.6928 19.3747 83.6928 17.54ZM97.0688 17.572C97.0688 16.2067 96.6848 15.1293 95.9168 14.34C95.1701 13.5507 94.2528 13.156 93.1648 13.156C92.0768 13.156 91.1488 13.5507 90.3808 14.34C89.6341 15.108 89.2608 16.1747 89.2608 17.54C89.2608 18.9053 89.6341 19.9933 90.3808 20.804C91.1488 21.5933 92.0768 21.988 93.1648 21.988C94.2528 21.988 95.1701 21.5933 95.9168 20.804C96.6848 20.0147 97.0688 18.9373 97.0688 17.572ZM109.252 6.788C108.292 6.788 107.502 6.51067 106.884 5.956C106.286 5.38 105.988 4.676 105.988 3.844C105.988 2.99067 106.286 2.28667 106.884 1.732C107.502 1.156 108.292 0.867996 109.252 0.867996C110.19 0.867996 110.958 1.156 111.556 1.732C112.174 2.28667 112.484 2.99067 112.484 3.844C112.484 4.676 112.174 5.38 111.556 5.956C110.958 6.51067 110.19 6.788 109.252 6.788ZM111.972 8.644V26.5H106.5V8.644H111.972Z" fill="white"/>
<path id="Vector_2" d="M113 4C113 5.933 111.433 7.5 109.5 7.5C107.567 7.5 106 5.933 106 4C106 1.5 107.567 0.5 109.5 0.5C111.433 0.5 113 2.067 113 4Z" fill="#EF57BB"/>
</g>
<defs>
<clipPath id="clip0_35_517">
<rect width="114" height="27" fill="white" transform="translate(0 0.5)"/>
</clipPath>
</defs>
</svg>
