<svg width="390" height="1837" viewBox="0 0 390 1837" fill="none" xmlns="http://www.w3.org/2000/svg">
<g clip-path="url(#clip0_417_14816)">
<rect width="390" height="1837" fill="#1F1D2B"/>
<g filter="url(#filter0_f_417_14816)">
<ellipse cx="150.488" cy="275.441" rx="150.488" ry="275.441" transform="matrix(-0.999977 0.00673788 0.00223606 0.999997 383.925 235)" fill="url(#paint0_linear_417_14816)" fill-opacity="0.48"/>
</g>
<g filter="url(#filter1_f_417_14816)">
<rect width="144.615" height="375.54" transform="matrix(-0.999977 0.00673788 0.00223606 0.999997 305.612 369)" fill="url(#paint1_linear_417_14816)" fill-opacity="0.5"/>
</g>
<g clip-path="url(#clip1_417_14816)">
<rect x="16" y="1007" width="358" height="830" rx="20" fill="#130D1B"/>
<path d="M287.192 1041.81C284.104 1036.46 266.27 1040.44 241.406 1050.91C221.491 1029.94 189.136 1024.49 162.979 1039.58C136.828 1054.67 125.373 1085.4 133.586 1113.12C112.084 1129.4 99.7145 1142.85 102.803 1148.2C105.891 1153.54 123.725 1149.56 148.589 1139.09C168.504 1160.05 200.859 1165.51 227.016 1150.42C253.167 1135.33 264.622 1104.59 256.409 1076.88C277.911 1060.59 290.286 1047.15 287.198 1041.8L287.192 1041.81ZM124.048 1135.94C122.75 1133.7 127.492 1128.21 136.439 1120.88C137.359 1122.95 138.388 1124.99 139.544 1127C140.705 1129.01 141.958 1130.92 143.289 1132.75C132.469 1136.83 125.346 1138.19 124.048 1135.94ZM145.884 1123.34C144.537 1121.01 143.388 1118.62 142.407 1116.2C141.378 1113.65 140.546 1111.06 139.905 1108.45C137.611 1099.08 137.786 1089.41 140.217 1080.33C143.979 1066.31 153.068 1053.75 166.642 1045.92C180.216 1038.09 195.641 1036.5 209.675 1040.25C218.759 1042.69 227.224 1047.37 234.194 1054.04C236.138 1055.9 237.967 1057.91 239.659 1060.08C241.269 1062.14 242.764 1064.33 244.111 1066.66C245.458 1068.99 246.602 1071.37 247.588 1073.8C235.804 1082.72 219.268 1093.56 200.443 1104.42C181.618 1115.28 163.954 1124.17 150.336 1129.91C148.726 1127.85 147.231 1125.66 145.884 1123.34V1123.34ZM249.778 1109.67C246.016 1123.69 236.927 1136.26 223.353 1144.09C209.779 1151.92 194.349 1153.5 180.32 1149.75C171.236 1147.32 162.771 1142.64 155.801 1135.97C170.42 1129.43 187.017 1120.96 204.243 1111.02C221.475 1101.08 237.113 1090.95 250.084 1081.56C252.379 1090.93 252.203 1100.59 249.772 1109.68L249.778 1109.67ZM253.561 1069.12C252.641 1067.05 251.612 1065.01 250.457 1063.01C249.301 1061.01 248.042 1059.09 246.711 1057.27C257.531 1053.18 264.655 1051.82 265.953 1054.07C267.25 1056.31 262.508 1061.8 253.561 1069.12Z" fill="white"/>
<g filter="url(#filter2_f_417_14816)">
<path d="M364.985 1753.85C324.215 1754.56 291.128 1752.98 291.082 1750.33C291.037 1747.68 324.05 1744.97 364.821 1744.27C405.591 1743.57 438.678 1745.15 438.724 1747.79C438.769 1750.44 405.756 1753.15 364.985 1753.85Z" fill="#FF0209"/>
</g>
<g filter="url(#filter3_f_417_14816)">
<path d="M391.562 1185.64C385.17 1198.94 334.547 1187.88 278.494 1160.95C222.44 1134.01 182.182 1101.39 188.575 1088.09C194.967 1074.78 245.59 1085.84 301.643 1112.78C357.697 1139.71 397.955 1172.34 391.562 1185.64Z" fill="#FF00FD" fill-opacity="0.47"/>
</g>
<g filter="url(#filter4_f_417_14816)">
<path d="M247.589 1646.64C232.833 1646.89 220.004 1596.69 218.935 1534.51C217.866 1472.33 228.962 1421.71 243.718 1421.46C258.474 1421.21 271.302 1471.41 272.371 1533.59C273.44 1595.77 262.345 1646.38 247.589 1646.64Z" fill="#FF00FD" fill-opacity="0.47"/>
</g>
</g>
<g opacity="0.5">
<path opacity="0.0344828" d="M660.566 -106.817C659.163 -111.135 655.883 -114.813 650.766 -117.831C645.641 -120.853 638.728 -123.178 630.188 -124.791C613.109 -128.018 589.731 -128.358 561.682 -125.922C505.6 -121.051 431.066 -105.102 351.39 -79.2135C271.714 -53.3251 202.04 -22.4189 153.806 6.60492C129.681 21.121 110.969 35.1375 99.0477 47.7866C93.0868 54.1114 88.8607 60.0561 86.4914 65.5132C84.1253 70.9626 83.6339 75.8661 85.0369 80.184C86.4399 84.502 89.7197 88.1802 94.8369 91.1981C99.9613 94.2202 106.874 96.5456 115.415 98.1588C132.494 101.385 155.871 101.726 183.921 99.2895C240.003 94.4188 314.536 78.4693 394.213 52.5809C473.889 26.6925 543.563 -4.21372 591.797 -33.2375C615.921 -47.7536 634.634 -61.7701 646.555 -74.4191C652.516 -80.744 656.742 -86.6887 659.111 -92.1458C661.477 -97.5951 661.969 -102.499 660.566 -106.817Z" stroke="#632C72" stroke-width="2"/>
<path opacity="0.0689655" d="M652.228 -133.789C650.454 -137.969 646.867 -141.347 641.506 -143.907C636.137 -146.471 629.048 -148.185 620.4 -149.048C603.104 -150.773 579.786 -149.075 552.056 -144.204C496.612 -134.464 423.752 -112.079 346.635 -79.3448C269.518 -46.6106 202.803 -9.74956 157.282 23.3677C134.515 39.9311 117.095 55.5252 106.322 69.1651C100.935 75.9854 97.2429 82.2758 95.3581 87.9186C93.476 93.5535 93.4139 98.4812 95.1878 102.66C96.9618 106.84 100.55 110.218 105.91 112.778C111.279 115.342 118.368 117.056 127.017 117.919C144.312 119.645 167.63 117.946 195.361 113.075C250.805 103.335 323.664 80.95 400.781 48.2159C477.898 15.4817 544.613 -21.3794 590.134 -54.4966C612.901 -71.0601 630.321 -86.6541 641.095 -100.294C646.482 -107.114 650.173 -113.405 652.058 -119.048C653.94 -124.682 654.002 -129.61 652.228 -133.789Z" stroke="#632C72" stroke-width="2"/>
<path opacity="0.103448" d="M641.773 -159.861C639.641 -163.87 635.773 -166.922 630.209 -169.006C624.638 -171.092 617.426 -172.182 608.735 -172.288C591.355 -172.499 568.274 -168.775 541.074 -161.505C486.689 -146.97 416.058 -118.32 342.088 -78.9895C268.117 -39.6587 204.869 2.87661 162.407 39.8352C141.17 58.32 125.176 75.3729 115.632 89.8998C110.86 97.1637 107.731 103.752 106.345 109.538C104.961 115.315 105.329 120.229 107.46 124.238C109.592 128.247 113.46 131.3 119.024 133.383C124.595 135.469 131.807 136.559 140.498 136.665C157.878 136.876 180.959 133.152 208.159 125.882C262.544 111.347 333.175 82.6974 407.145 43.3666C481.116 4.03583 544.364 -38.4995 586.826 -75.4581C608.063 -93.9428 624.057 -110.996 633.601 -125.523C638.373 -132.787 641.502 -139.375 642.888 -145.16C644.272 -150.938 643.904 -155.852 641.773 -159.861Z" stroke="#632C72" stroke-width="2"/>
<path opacity="0.137931" d="M629.284 -184.853C626.811 -188.66 622.691 -191.364 616.968 -192.955C611.235 -194.548 603.956 -195.005 595.289 -194.353C577.957 -193.048 555.288 -187.327 528.825 -177.714C475.914 -158.494 408.049 -123.798 337.788 -78.1696C267.527 -32.5416 208.226 15.3444 169.148 55.8631C149.602 76.1284 135.155 94.5105 126.914 109.814C122.793 117.466 120.25 124.302 119.374 130.186C118.499 136.062 119.293 140.926 121.766 144.734C124.239 148.541 128.359 151.245 134.083 152.836C139.815 154.429 147.094 154.886 155.761 154.234C173.093 152.93 195.762 147.208 222.225 137.595C275.136 118.375 343.001 83.6788 413.262 38.0508C483.523 -7.57731 542.824 -55.4632 581.903 -95.982C601.448 -116.247 615.895 -134.629 624.136 -149.933C628.257 -157.585 630.8 -164.421 631.676 -170.305C632.551 -176.181 631.757 -181.045 629.284 -184.853Z" stroke="#632C72" stroke-width="2"/>
<path opacity="0.172414" d="M614.864 -208.587C612.068 -212.165 607.728 -214.499 601.888 -215.585C596.039 -216.672 588.747 -216.493 580.17 -215.088C563.017 -212.278 540.933 -204.603 515.409 -192.72C464.375 -168.962 399.791 -128.482 333.774 -76.9044C267.757 -25.3263 212.856 27.5458 177.457 71.3163C159.753 93.2079 146.963 112.779 140.087 128.743C136.649 136.725 134.711 143.756 134.35 149.695C133.991 155.625 135.206 160.401 138.001 163.978C140.797 167.556 145.137 169.891 150.977 170.976C156.827 172.064 164.118 171.884 172.695 170.479C189.848 167.669 211.932 159.994 237.456 148.111C288.49 124.353 353.074 83.8737 419.091 32.2956C485.108 -19.2825 540.009 -72.1545 575.408 -115.925C593.112 -137.817 605.902 -157.388 612.778 -173.351C616.217 -181.334 618.155 -188.365 618.515 -194.304C618.874 -200.233 617.659 -205.009 614.864 -208.587Z" stroke="#632C72" stroke-width="2"/>
<path opacity="0.206897" d="M598.629 -230.909C595.532 -234.229 591.005 -236.176 585.092 -236.749C579.171 -237.322 571.922 -236.508 563.501 -234.361C546.658 -230.067 525.327 -220.496 500.935 -206.434C452.166 -178.318 391.356 -132.364 330.086 -75.2284C268.816 -18.0928 218.731 39.3631 187.282 86.0523C171.553 109.404 160.517 130.015 155.059 146.517C152.33 154.769 151.012 161.942 151.171 167.89C151.329 173.828 152.956 178.48 156.053 181.8C159.149 185.121 163.676 187.068 169.589 187.641C175.511 188.214 182.759 187.4 191.181 185.253C208.023 180.959 229.354 171.388 253.746 157.326C302.515 129.21 363.325 83.2559 424.595 26.1203C485.866 -31.0153 535.95 -88.4711 567.399 -135.16C583.128 -158.512 594.164 -179.123 599.622 -195.625C602.352 -203.877 603.67 -211.05 603.511 -216.998C603.352 -222.936 601.725 -227.588 598.629 -230.909Z" stroke="#632C72" stroke-width="2"/>
<path opacity="0.241379" d="M580.709 -251.657C577.335 -254.695 572.656 -256.24 566.715 -256.295C560.766 -256.35 553.616 -254.907 545.414 -252.034C529.01 -246.289 508.594 -234.895 485.521 -218.761C439.387 -186.501 382.814 -135.422 326.757 -73.1639C270.699 -10.9057 225.813 50.6966 198.553 99.9491C184.919 124.583 175.722 146.077 171.722 162.992C169.722 171.45 169.035 178.712 169.711 184.622C170.387 190.525 172.413 195.017 175.787 198.055C179.161 201.093 183.841 202.638 189.781 202.693C195.73 202.748 202.88 201.306 211.082 198.433C227.487 192.687 247.902 181.293 270.976 165.159C317.109 132.9 373.682 81.8203 429.739 19.5621C485.797 -42.6962 530.683 -104.298 557.943 -153.551C571.577 -178.184 580.775 -199.679 584.774 -216.594C586.774 -225.052 587.461 -232.313 586.785 -238.224C586.109 -244.126 584.083 -248.619 580.709 -251.657Z" stroke="#632C72" stroke-width="2"/>
<path opacity="0.275862" d="M561.249 -270.692C557.623 -273.424 552.827 -274.556 546.904 -274.093C540.973 -273.63 533.976 -271.569 526.055 -267.992C510.214 -260.839 490.869 -247.709 469.29 -229.625C426.144 -193.468 374.238 -137.652 323.82 -70.745C273.402 -3.8379 234.055 61.4421 211.192 112.883C199.756 138.611 192.467 160.826 189.957 178.025C188.702 186.625 188.65 193.919 189.839 199.748C191.027 205.569 193.437 209.867 197.063 212.6C200.689 215.332 205.485 216.464 211.408 216.001C217.339 215.537 224.336 213.477 232.257 209.9C248.098 202.746 267.443 189.616 289.022 171.533C332.168 135.375 384.074 79.5597 434.492 12.6526C484.91 -54.2545 524.257 -119.535 547.12 -170.976C558.556 -196.704 565.845 -218.918 568.355 -236.117C569.61 -244.717 569.662 -252.011 568.473 -257.84C567.285 -263.661 564.875 -267.96 561.249 -270.692Z" stroke="#632C72" stroke-width="2"/>
<path opacity="0.310345" d="M540.404 -287.89C536.554 -290.296 531.677 -291.005 525.817 -290.028C519.949 -289.049 513.158 -286.387 505.579 -282.133C490.422 -273.626 472.295 -258.86 452.374 -238.965C412.543 -199.184 365.699 -139.057 321.305 -68.0106C276.91 3.03611 243.403 71.497 225.109 124.735C215.96 151.362 210.635 174.127 209.633 191.48C209.132 200.156 209.716 207.427 211.409 213.13C213.099 218.825 215.875 222.898 219.725 225.303C223.575 227.709 228.452 228.419 234.312 227.441C240.18 226.463 246.971 223.8 254.55 219.546C269.707 211.04 287.834 196.274 307.755 176.378C347.586 136.598 394.429 76.4706 438.824 5.42392C483.219 -65.6228 516.726 -134.084 535.02 -187.322C544.169 -213.948 549.494 -236.714 550.496 -254.066C550.996 -262.743 550.413 -270.013 548.72 -275.717C547.03 -281.412 544.254 -285.484 540.404 -287.89Z" stroke="#632C72" stroke-width="2"/>
<path opacity="0.344828" d="M518.337 -303.136C514.292 -305.197 509.372 -305.479 503.619 -303.995C497.859 -302.508 491.326 -299.264 484.147 -294.366C469.789 -284.57 453.017 -268.281 434.906 -246.724C398.694 -203.624 357.269 -139.643 319.235 -64.9978C281.202 9.64781 253.789 80.7684 240.205 135.398C233.411 162.721 230.09 185.864 230.605 203.238C230.862 211.925 232.078 219.117 234.261 224.651C236.441 230.177 239.561 233.992 243.606 236.053C247.652 238.114 252.572 238.396 258.324 236.912C264.085 235.425 270.617 232.181 277.797 227.283C292.155 217.487 308.926 201.198 327.037 179.641C363.249 136.541 404.674 72.5604 442.708 -2.08523C480.742 -76.7308 508.155 -147.851 521.739 -202.481C528.533 -229.804 531.853 -252.947 531.339 -270.321C531.081 -279.008 529.866 -286.2 527.683 -291.734C525.502 -297.26 522.382 -301.075 518.337 -303.136Z" stroke="#632C72" stroke-width="2"/>
<path opacity="0.37931" d="M495.226 -316.33C491.016 -318.031 486.09 -317.882 480.489 -315.902C474.88 -313.919 468.655 -310.118 461.93 -304.613C448.48 -293.603 433.192 -275.914 417.029 -252.861C384.711 -206.769 349.02 -139.421 317.637 -61.7445C286.253 15.9319 265.143 89.1711 256.373 144.777C251.986 172.588 250.695 195.932 252.722 213.195C253.735 221.827 255.573 228.885 258.23 234.208C260.884 239.523 264.324 243.052 268.534 244.753C272.743 246.453 277.669 246.305 283.27 244.325C288.879 242.342 295.104 238.541 301.83 233.036C315.279 222.026 330.567 204.337 346.731 181.284C379.048 135.192 414.739 67.8437 446.123 -9.83275C477.506 -87.5092 498.616 -160.748 507.387 -216.354C511.774 -244.165 513.065 -267.509 511.038 -284.772C510.024 -293.404 508.187 -300.463 505.529 -305.785C502.876 -311.101 499.435 -314.629 495.226 -316.33Z" stroke="#632C72" stroke-width="2"/>
<path opacity="0.413793" d="M471.253 -327.39C466.911 -328.717 462.017 -328.14 456.61 -325.68C451.195 -323.215 445.325 -318.886 439.105 -312.816C426.666 -300.676 412.978 -281.721 398.885 -257.347C370.708 -208.614 341.022 -138.412 316.528 -58.2954C292.035 21.8207 277.388 96.621 273.497 152.78C271.551 180.867 272.299 204.235 275.823 221.255C277.585 229.766 280.031 236.638 283.142 241.709C286.249 246.772 289.984 249.987 294.325 251.315C298.667 252.642 303.561 252.065 308.969 249.605C314.384 247.14 320.254 242.811 326.473 236.741C338.913 224.601 352.6 205.646 366.693 181.272C394.871 132.539 424.556 62.3366 449.05 -17.7795C473.544 -97.8956 488.19 -172.696 492.082 -228.855C494.028 -256.942 493.279 -280.31 489.755 -297.33C487.993 -305.841 485.548 -312.713 482.437 -317.784C479.33 -322.847 475.595 -326.062 471.253 -327.39Z" stroke="#632C72" stroke-width="2"/>
<path opacity="0.448276" d="M446.605 -336.246C442.164 -337.19 437.339 -336.189 432.167 -333.266C426.987 -330.339 421.517 -325.515 415.85 -318.925C404.516 -305.747 392.532 -285.672 380.617 -260.163C356.794 -209.159 333.34 -136.637 315.922 -54.6906C298.504 27.2554 290.433 103.048 291.451 159.332C291.96 187.482 294.743 210.696 299.736 227.344C302.233 235.669 305.269 242.301 308.81 247.082C312.346 251.855 316.347 254.733 320.788 255.677C325.229 256.621 330.054 255.619 335.226 252.697C340.406 249.77 345.876 244.945 351.543 238.356C362.877 225.178 374.861 205.103 386.776 179.594C410.599 128.59 434.053 56.0672 451.471 -25.8788C468.889 -107.825 476.96 -183.617 475.942 -239.901C475.433 -268.051 472.65 -291.265 467.657 -307.913C465.16 -316.238 462.124 -322.87 458.583 -327.651C455.047 -332.425 451.046 -335.302 446.605 -336.246Z" stroke="#632C72" stroke-width="2"/>
<path opacity="0.482759" d="M421.477 -342.849C416.971 -343.402 412.251 -341.984 407.354 -338.622C402.449 -335.255 397.42 -329.972 392.348 -322.914C382.206 -308.798 372.018 -287.755 362.372 -261.304C343.085 -208.418 326.041 -134.127 315.831 -50.9751C305.621 32.1772 304.186 108.384 310.106 164.366C313.067 192.364 317.862 215.247 324.288 231.397C327.501 239.473 331.102 245.815 335.047 250.269C338.986 254.716 343.222 257.234 347.728 257.787C352.235 258.34 356.954 256.922 361.852 253.56C366.757 250.193 371.786 244.91 376.857 237.852C386.999 223.736 397.188 202.693 406.834 176.242C426.121 123.356 443.165 49.0655 453.375 -34.0868C463.585 -117.239 465.019 -193.446 459.1 -249.428C456.139 -277.426 451.344 -300.309 444.918 -316.459C441.705 -324.535 438.103 -330.877 434.159 -335.331C430.22 -339.778 425.984 -342.296 421.477 -342.849Z" stroke="#632C72" stroke-width="2"/>
<path opacity="0.517241" d="M396.071 -347.167C391.534 -347.326 386.955 -345.502 382.369 -341.725C377.777 -337.944 373.227 -332.243 368.79 -324.769C359.917 -309.823 351.602 -287.972 344.297 -260.781C329.693 -206.416 319.189 -130.922 316.265 -47.1965C313.341 36.5292 318.554 112.571 329.33 167.824C334.72 195.458 341.491 217.836 349.3 233.364C353.205 241.129 357.345 247.133 361.663 251.226C365.974 255.313 370.414 257.452 374.952 257.611C379.489 257.769 384.067 255.945 388.653 252.169C393.246 248.387 397.795 242.686 402.232 235.213C411.105 220.267 419.421 198.416 426.725 171.225C441.329 116.859 451.834 41.3655 454.758 -42.3602C457.681 -126.086 452.469 -202.128 441.692 -257.38C436.303 -285.014 429.532 -307.392 421.723 -322.921C417.818 -330.685 413.677 -336.69 409.36 -340.783C405.048 -344.87 400.608 -347.009 396.071 -347.167Z" stroke="#632C72" stroke-width="2"/>
<path opacity="0.551724" d="M370.585 -349.185C366.051 -348.947 361.649 -346.731 357.41 -342.569C353.164 -338.402 349.129 -332.326 345.36 -324.494C337.824 -308.832 331.444 -286.339 326.537 -258.615C316.727 -203.183 312.842 -127.061 317.227 -43.3995C321.611 40.2625 333.432 115.561 348.983 169.664C356.76 196.723 365.456 218.426 374.589 233.215C379.155 240.609 383.803 246.23 388.461 249.931C393.113 253.627 397.722 255.371 402.256 255.133C406.79 254.895 411.192 252.679 415.431 248.518C419.676 244.35 423.712 238.274 427.48 230.443C435.017 214.78 441.397 192.288 446.303 164.564C456.114 109.132 459.998 33.0099 455.614 -50.6521C451.229 -134.314 439.409 -209.613 423.858 -263.715C416.081 -290.775 407.385 -312.477 398.252 -327.266C393.686 -334.661 389.037 -340.282 384.379 -343.983C379.728 -347.678 375.119 -349.422 370.585 -349.185Z" stroke="#632C72" stroke-width="2"/>
<path opacity="0.586207" d="M345.217 -348.903C340.722 -348.272 336.53 -345.68 332.669 -341.165C328.803 -336.643 325.312 -330.239 322.241 -322.108C316.098 -305.849 311.703 -282.886 309.231 -254.84C304.289 -198.764 307.054 -122.593 318.713 -39.6316C330.373 43.3298 348.711 117.312 368.918 169.853C379.024 196.132 389.578 216.994 399.965 230.93C405.159 237.899 410.279 243.093 415.242 246.374C420.198 249.65 424.942 250.986 429.438 250.354C433.934 249.722 438.125 247.131 441.986 242.615C445.852 238.094 449.343 231.689 452.414 223.559C458.557 207.299 462.952 184.336 465.424 156.29C470.366 100.214 467.601 24.0436 455.942 -58.9178C444.282 -141.879 425.944 -215.861 405.737 -268.403C395.631 -294.681 385.077 -315.543 374.69 -329.48C369.496 -336.448 364.376 -341.642 359.413 -344.923C354.457 -348.2 349.713 -349.535 345.217 -348.903Z" stroke="#632C72" stroke-width="2"/>
<path opacity="0.62069" d="M320.171 -346.338C315.747 -345.317 311.797 -342.37 308.345 -337.535C304.888 -332.694 301.969 -326.01 299.617 -317.642C294.915 -300.909 292.538 -277.65 292.52 -249.496C292.484 -193.202 301.877 -117.563 320.723 -35.933C339.568 45.6965 364.285 117.799 388.994 168.379C401.352 193.677 413.685 213.54 425.246 226.518C431.028 233.007 436.582 237.735 441.811 240.571C447.034 243.403 451.876 244.32 456.3 243.299C460.723 242.278 464.673 239.331 468.126 234.496C471.583 229.655 474.502 222.97 476.854 214.603C481.556 197.87 483.933 174.611 483.951 146.457C483.986 90.1634 474.594 14.5236 455.748 -67.106C436.902 -148.736 412.186 -220.838 387.477 -271.418C375.118 -296.716 362.786 -316.579 351.224 -329.557C345.443 -336.046 339.889 -340.774 334.659 -343.61C329.437 -346.442 324.595 -347.359 320.171 -346.338Z" stroke="#632C72" stroke-width="2"/>
<path opacity="0.655172" d="M295.643 -341.533C291.325 -340.13 287.647 -336.85 284.629 -331.733C281.607 -326.608 279.282 -319.695 277.668 -311.155C274.442 -294.076 274.102 -270.698 276.538 -242.649C281.408 -186.567 297.358 -112.034 323.246 -32.3572C349.135 47.3192 380.041 116.993 409.065 165.227C423.581 189.351 437.597 208.064 450.246 219.985C456.571 225.946 462.516 230.172 467.973 232.541C473.422 234.907 478.326 235.399 482.644 233.996C486.962 232.593 490.64 229.313 493.658 224.196C496.68 219.071 499.006 212.158 500.619 203.618C503.845 186.539 504.186 163.161 501.749 135.112C496.879 79.0299 480.929 4.49657 455.041 -75.1798C429.152 -154.856 398.246 -224.53 369.222 -272.764C354.706 -296.888 340.69 -315.601 328.041 -327.522C321.716 -333.483 315.771 -337.709 310.314 -340.078C304.865 -342.444 299.961 -342.936 295.643 -341.533Z" stroke="#632C72" stroke-width="2"/>
<path opacity="0.689655" d="M271.825 -334.534C267.646 -332.76 264.268 -329.172 261.707 -323.812C259.143 -318.443 257.429 -311.354 256.567 -302.705C254.841 -285.41 256.539 -262.092 261.411 -234.361C271.151 -178.917 293.536 -106.058 326.27 -28.9408C359.004 48.1761 395.865 114.891 428.982 160.412C445.546 183.179 461.14 200.599 474.78 211.372C481.6 216.759 487.89 220.451 493.533 222.336C499.168 224.218 504.096 224.28 508.275 222.506C512.454 220.732 515.833 217.144 518.393 211.784C520.957 206.415 522.671 199.326 523.534 190.678C525.259 173.382 523.561 150.064 518.69 122.334C508.95 66.8894 486.565 -5.97023 453.831 -83.0871C421.096 -160.204 384.235 -226.919 351.118 -272.44C334.555 -295.207 318.961 -312.627 305.321 -323.4C298.5 -328.787 292.21 -332.479 286.567 -334.364C280.932 -336.246 276.005 -336.308 271.825 -334.534Z" stroke="#632C72" stroke-width="2"/>
<path opacity="0.724138" d="M248.91 -325.419C244.901 -323.287 241.849 -319.419 239.765 -313.855C237.679 -308.284 236.589 -301.072 236.483 -292.381C236.272 -275.001 239.996 -251.92 247.266 -224.72C261.801 -170.335 290.451 -99.7038 329.782 -25.7333C369.112 48.2372 411.648 111.486 448.606 153.947C467.091 175.184 484.144 191.179 498.671 200.722C505.935 205.494 512.523 208.624 518.309 210.009C524.086 211.393 529.001 211.026 533.009 208.894C537.018 206.763 540.071 202.894 542.154 197.331C544.241 191.759 545.33 184.547 545.436 175.857C545.647 158.477 541.923 135.395 534.654 108.195C520.118 53.8107 491.469 -16.8207 452.138 -90.7912C412.807 -164.762 370.272 -228.01 333.313 -270.472C314.828 -291.709 297.775 -307.703 283.248 -317.247C275.984 -322.019 269.396 -325.148 263.611 -326.534C257.833 -327.918 252.919 -327.55 248.91 -325.419Z" stroke="#632C72" stroke-width="2"/>
<path opacity="0.758621" d="M227.075 -314.268C223.267 -311.796 220.563 -307.676 218.972 -301.952C217.379 -296.22 216.923 -288.94 217.575 -280.273C218.879 -262.941 224.6 -240.272 234.213 -213.809C253.433 -160.898 288.13 -93.0328 333.758 -22.7716C379.386 47.4895 427.272 106.79 467.791 145.869C488.056 165.414 506.438 179.861 521.741 188.102C529.394 192.223 536.23 194.767 542.114 195.643C547.99 196.518 552.854 195.724 556.661 193.251C560.469 190.778 563.173 186.658 564.764 180.934C566.357 175.202 566.813 167.923 566.161 159.256C564.857 141.924 559.136 119.254 549.523 92.7914C530.303 39.8808 495.606 -27.9848 449.978 -98.246C404.35 -168.507 356.464 -227.808 315.945 -266.886C295.68 -286.432 277.298 -300.879 261.994 -309.12C254.342 -313.241 247.506 -315.784 241.622 -316.661C235.746 -317.536 230.882 -316.741 227.075 -314.268Z" stroke="#632C72" stroke-width="2"/>
<path opacity="0.793103" d="M206.492 -301.187C202.915 -298.392 200.58 -294.052 199.494 -288.211C198.407 -282.362 198.587 -275.071 199.992 -266.494C202.801 -249.341 210.477 -227.257 222.359 -201.732C246.117 -150.698 286.597 -86.1151 338.175 -20.0981C389.753 45.9188 442.625 100.82 486.396 136.219C508.287 153.923 527.859 166.713 543.822 173.589C551.804 177.027 558.836 178.965 564.774 179.326C570.704 179.685 575.48 178.47 579.058 175.675C582.635 172.879 584.97 168.539 586.056 162.699C587.143 156.85 586.964 149.558 585.559 140.981C582.749 123.828 575.073 101.744 563.191 76.2198C539.433 25.1857 498.953 -39.3976 447.375 -105.415C395.797 -171.431 342.925 -226.333 299.155 -261.731C277.263 -279.436 257.692 -292.226 241.728 -299.102C233.746 -302.54 226.714 -304.478 220.776 -304.838C214.846 -305.198 210.07 -303.982 206.492 -301.187Z" stroke="#632C72" stroke-width="2"/>
<path opacity="0.827586" d="M187.329 -286.291C184.009 -283.195 182.061 -278.668 181.489 -272.754C180.915 -266.833 181.729 -259.585 183.877 -251.163C188.171 -234.32 197.742 -212.989 211.804 -188.598C239.919 -139.828 285.874 -79.0188 343.009 -17.7485C400.145 43.5219 457.6 93.6061 504.29 125.055C527.641 140.784 548.252 151.82 564.754 157.278C573.006 160.008 580.18 161.326 586.127 161.167C592.066 161.008 596.717 159.381 600.038 156.285C603.358 153.188 605.306 148.661 605.878 142.748C606.452 136.827 605.637 129.579 603.49 121.157C599.196 104.314 589.625 82.9831 575.563 58.5914C547.448 9.82224 501.493 -50.9873 444.358 -112.258C387.222 -173.528 329.766 -223.612 283.077 -255.061C259.726 -270.79 239.114 -281.826 222.612 -287.285C214.361 -290.014 207.187 -291.332 201.24 -291.173C195.301 -291.014 190.65 -289.387 187.329 -286.291Z" stroke="#632C72" stroke-width="2"/>
<path opacity="0.862069" d="M169.736 -269.71C166.698 -266.336 165.152 -261.656 165.097 -255.716C165.042 -249.767 166.485 -242.617 169.358 -234.415C175.104 -218.01 186.498 -197.595 202.632 -174.521C234.891 -128.388 285.97 -71.8152 348.229 -15.7576C410.487 40.3 472.089 85.186 521.342 112.446C545.975 126.08 567.47 135.278 584.385 139.277C592.843 141.277 600.104 141.964 606.015 141.288C611.917 140.612 616.409 138.586 619.447 135.212C622.485 131.838 624.031 127.159 624.086 121.218C624.141 115.269 622.698 108.119 619.825 99.9168C614.079 83.5126 602.686 63.0968 586.551 40.0235C554.292 -6.10973 503.213 -62.6827 440.955 -118.74C378.696 -174.798 317.094 -219.684 267.842 -246.944C243.208 -260.578 221.713 -269.776 204.798 -273.775C196.34 -275.775 189.079 -276.462 183.168 -275.786C177.266 -275.11 172.774 -273.084 169.736 -269.71Z" stroke="#632C72" stroke-width="2"/>
<path opacity="0.896552" d="M153.854 -251.59C151.122 -247.964 149.99 -243.168 150.453 -237.245C150.917 -231.314 152.977 -224.317 156.554 -216.396C163.707 -200.555 176.837 -181.21 194.921 -159.631C231.078 -116.485 286.894 -64.5789 353.801 -14.1608C420.708 36.2572 485.988 75.6034 537.429 98.4673C563.157 109.903 585.371 117.191 602.571 119.701C611.171 120.957 618.464 121.009 624.293 119.819C630.114 118.632 634.413 116.222 637.145 112.596C639.878 108.97 641.009 104.174 640.546 98.2509C640.083 92.3198 638.022 85.3231 634.445 77.4021C627.292 61.5611 614.162 42.216 596.078 20.6367C559.921 -22.5093 504.106 -74.4152 437.198 -124.833C370.291 -175.251 305.011 -214.597 253.571 -237.461C227.843 -248.897 205.628 -256.185 188.429 -258.695C179.829 -259.951 172.535 -260.003 166.706 -258.813C160.885 -257.626 156.586 -255.216 153.854 -251.59Z" stroke="#632C72" stroke-width="2"/>
<path opacity="0.931035" d="M139.81 -232.082C137.404 -228.232 136.694 -223.355 137.672 -217.495C138.65 -211.627 141.313 -204.836 145.567 -197.257C154.074 -182.1 168.839 -163.973 188.735 -144.052C228.515 -104.221 288.642 -57.3776 359.689 -12.9827C430.736 31.4122 499.197 64.9192 552.435 83.2127C579.061 92.3621 601.827 97.6872 619.179 98.6886C627.856 99.1894 635.126 98.6056 640.83 96.9129C646.525 95.2226 650.597 92.4471 653.003 88.5969C655.409 84.7466 656.119 79.8698 655.141 74.0099C654.162 68.1418 651.5 61.3513 647.246 53.7722C638.739 38.6149 623.973 20.4878 604.078 0.566683C564.297 -39.2639 504.17 -86.1076 433.124 -130.503C362.077 -174.897 293.616 -208.404 240.378 -226.698C213.751 -235.847 190.986 -241.172 173.634 -242.174C164.957 -242.675 157.686 -242.091 151.983 -240.398C146.288 -238.708 142.216 -235.932 139.81 -232.082Z" stroke="#632C72" stroke-width="2"/>
<path opacity="0.965517" d="M127.721 -211.356C125.659 -207.31 125.378 -202.39 126.862 -196.638C128.349 -190.877 131.593 -184.345 136.491 -177.165C146.286 -162.807 162.576 -146.036 184.132 -127.925C227.233 -91.7127 291.214 -50.2876 365.859 -12.2538C440.505 25.7801 511.626 53.1928 566.255 66.7767C593.578 73.5706 616.721 76.8913 634.095 76.3766C642.782 76.1192 649.974 74.904 655.508 72.7207C661.034 70.5404 664.849 67.4206 666.91 63.3753C668.972 59.33 669.253 54.41 667.769 48.6576C666.282 42.897 663.038 36.3644 658.14 29.1849C648.345 14.8268 632.055 -1.94445 610.499 -20.0557C567.398 -56.2677 503.417 -97.6927 428.772 -135.727C354.126 -173.76 283.005 -201.173 228.376 -214.757C201.053 -221.551 177.91 -224.872 160.536 -224.357C151.849 -224.1 144.657 -222.884 139.123 -220.701C133.597 -218.521 129.782 -215.401 127.721 -211.356Z" stroke="#632C72" stroke-width="2"/>
<path d="M117.682 -189.585C115.982 -185.376 116.13 -180.45 118.11 -174.849C120.093 -169.24 123.894 -163.015 129.399 -156.289C140.409 -142.84 158.098 -127.552 181.151 -111.388C227.243 -79.0706 294.591 -43.3795 372.268 -11.9962C449.944 19.3871 523.183 40.4969 578.789 49.2679C606.6 53.6546 629.944 54.9456 647.207 52.9186C655.839 51.9051 662.898 50.0676 668.22 47.4103C673.536 44.7567 677.064 41.3162 678.765 37.1067C680.466 32.8972 680.317 27.9713 678.337 22.3701C676.354 16.7611 672.553 10.5361 667.048 3.81079C656.038 -9.639 638.349 -24.9267 615.296 -41.0902C569.204 -73.408 501.856 -109.099 424.18 -140.482C346.503 -171.866 273.264 -192.976 217.658 -201.746C189.847 -206.133 166.503 -207.424 149.24 -205.397C140.608 -204.384 133.55 -202.546 128.227 -199.889C122.912 -197.235 119.383 -193.795 117.682 -189.585Z" stroke="#632C72" stroke-width="2"/>
</g>
</g>
<defs>
<filter id="filter0_f_417_14816" x="-316.429" y="-163.988" width="1100.97" height="1350.88" filterUnits="userSpaceOnUse" color-interpolation-filters="sRGB">
<feFlood flood-opacity="0" result="BackgroundImageFix"/>
<feBlend mode="normal" in="SourceGraphic" in2="BackgroundImageFix" result="shape"/>
<feGaussianBlur stdDeviation="200" result="effect1_foregroundBlur_417_14816"/>
</filter>
<filter id="filter1_f_417_14816" x="-38.9998" y="169" width="545.452" height="776.513" filterUnits="userSpaceOnUse" color-interpolation-filters="sRGB">
<feFlood flood-opacity="0" result="BackgroundImageFix"/>
<feBlend mode="normal" in="SourceGraphic" in2="BackgroundImageFix" result="shape"/>
<feGaussianBlur stdDeviation="100" result="effect1_foregroundBlur_417_14816"/>
</filter>
<filter id="filter2_f_417_14816" x="122.182" y="1575.2" width="485.442" height="347.718" filterUnits="userSpaceOnUse" color-interpolation-filters="sRGB">
<feFlood flood-opacity="0" result="BackgroundImageFix"/>
<feBlend mode="normal" in="SourceGraphic" in2="BackgroundImageFix" result="shape"/>
<feGaussianBlur stdDeviation="84.45" result="effect1_foregroundBlur_417_14816"/>
</filter>
<filter id="filter3_f_417_14816" x="1.90747" y="896.451" width="576.322" height="480.821" filterUnits="userSpaceOnUse" color-interpolation-filters="sRGB">
<feFlood flood-opacity="0" result="BackgroundImageFix"/>
<feBlend mode="normal" in="SourceGraphic" in2="BackgroundImageFix" result="shape"/>
<feGaussianBlur stdDeviation="93" result="effect1_foregroundBlur_417_14816"/>
</filter>
<filter id="filter4_f_417_14816" x="32.864" y="1235.46" width="425.578" height="597.18" filterUnits="userSpaceOnUse" color-interpolation-filters="sRGB">
<feFlood flood-opacity="0" result="BackgroundImageFix"/>
<feBlend mode="normal" in="SourceGraphic" in2="BackgroundImageFix" result="shape"/>
<feGaussianBlur stdDeviation="93" result="effect1_foregroundBlur_417_14816"/>
</filter>
<linearGradient id="paint0_linear_417_14816" x1="150.488" y1="0" x2="150.488" y2="550.881" gradientUnits="userSpaceOnUse">
<stop stop-color="#631D77"/>
<stop offset="1" stop-color="#130D1B"/>
</linearGradient>
<linearGradient id="paint1_linear_417_14816" x1="72.3076" y1="0" x2="72.3076" y2="375.54" gradientUnits="userSpaceOnUse">
<stop stop-color="#EF57BB"/>
<stop offset="1" stop-color="#361E4E"/>
</linearGradient>
<clipPath id="clip0_417_14816">
<rect width="390" height="1837" fill="white"/>
</clipPath>
<clipPath id="clip1_417_14816">
<rect x="16" y="1007" width="358" height="830" rx="20" fill="white"/>
</clipPath>
</defs>
</svg>
