<svg width="390" height="770" viewBox="0 0 390 770" fill="none" xmlns="http://www.w3.org/2000/svg">
<g clip-path="url(#clip0_417_14795)">
<rect width="390" height="770" fill="#1F1D2B"/>
<g filter="url(#filter0_f_417_14795)">
<ellipse cx="150.488" cy="275.441" rx="150.488" ry="275.441" transform="matrix(-0.999977 0.00673788 0.00223606 0.999997 330.925 236)" fill="url(#paint0_linear_417_14795)" fill-opacity="0.48"/>
</g>
<g filter="url(#filter1_f_417_14795)">
<rect width="144.615" height="375.54" transform="matrix(-0.999977 0.00673788 0.00223606 0.999997 252.612 370)" fill="url(#paint1_linear_417_14795)" fill-opacity="0.5"/>
</g>
<g opacity="0.5">
<path opacity="0.0344828" d="M660.566 663.183C659.163 658.865 655.883 655.187 650.766 652.169C645.641 649.147 638.728 646.822 630.188 645.209C613.109 641.982 589.731 641.642 561.682 644.078C505.6 648.949 431.066 664.898 351.39 690.787C271.714 716.675 202.04 747.581 153.806 776.605C129.681 791.121 110.969 805.138 99.0477 817.787C93.0868 824.111 88.8607 830.056 86.4914 835.513C84.1253 840.963 83.6339 845.866 85.0369 850.184C86.4399 854.502 89.7197 858.18 94.8369 861.198C99.9613 864.22 106.874 866.546 115.415 868.159C132.494 871.385 155.871 871.726 183.921 869.29C240.003 864.419 314.536 848.469 394.213 822.581C473.889 796.692 543.563 765.786 591.797 736.762C615.921 722.246 634.634 708.23 646.555 695.581C652.516 689.256 656.742 683.311 659.111 677.854C661.477 672.405 661.969 667.501 660.566 663.183Z" stroke="#632C72" stroke-width="2"/>
<path opacity="0.0689655" d="M652.228 636.211C650.454 632.031 646.867 628.653 641.506 626.093C636.137 623.529 629.048 621.815 620.4 620.952C603.104 619.227 579.786 620.925 552.056 625.796C496.612 635.536 423.752 657.921 346.635 690.655C269.518 723.389 202.803 760.25 157.282 793.368C134.515 809.931 117.095 825.525 106.322 839.165C100.935 845.985 97.2429 852.276 95.3581 857.919C93.476 863.553 93.4139 868.481 95.1878 872.66C96.9618 876.84 100.55 880.218 105.91 882.778C111.279 885.342 118.368 887.056 127.017 887.919C144.312 889.645 167.63 887.946 195.361 883.075C250.805 873.335 323.664 850.95 400.781 818.216C477.898 785.482 544.613 748.621 590.134 715.503C612.901 698.94 630.321 683.346 641.095 669.706C646.482 662.886 650.173 656.595 652.058 650.952C653.94 645.318 654.002 640.39 652.228 636.211Z" stroke="#632C72" stroke-width="2"/>
<path opacity="0.103448" d="M641.773 610.139C639.641 606.13 635.773 603.078 630.209 600.994C624.638 598.908 617.426 597.818 608.735 597.712C591.355 597.501 568.274 601.225 541.074 608.495C486.689 623.03 416.058 651.68 342.088 691.011C268.117 730.341 204.869 772.877 162.407 809.835C141.17 828.32 125.176 845.373 115.632 859.9C110.86 867.164 107.731 873.752 106.345 879.538C104.961 885.315 105.329 890.229 107.46 894.238C109.592 898.247 113.46 901.3 119.024 903.383C124.595 905.469 131.807 906.559 140.498 906.665C157.878 906.876 180.959 903.152 208.159 895.882C262.544 881.347 333.175 852.697 407.145 813.367C481.116 774.036 544.364 731.5 586.826 694.542C608.063 676.057 624.057 659.004 633.601 644.477C638.373 637.213 641.502 630.625 642.888 624.84C644.272 619.062 643.904 614.148 641.773 610.139Z" stroke="#632C72" stroke-width="2"/>
<path opacity="0.137931" d="M629.284 585.147C626.811 581.34 622.691 578.636 616.968 577.045C611.235 575.452 603.956 574.995 595.289 575.647C577.957 576.952 555.288 582.673 528.825 592.286C475.914 611.506 408.049 646.202 337.788 691.83C267.527 737.458 208.226 785.344 169.148 825.863C149.602 846.128 135.155 864.511 126.914 879.814C122.793 887.466 120.25 894.302 119.374 900.186C118.499 906.062 119.293 910.926 121.766 914.734C124.239 918.541 128.359 921.245 134.083 922.836C139.815 924.429 147.094 924.886 155.761 924.234C173.093 922.93 195.762 917.208 222.225 907.595C275.136 888.375 343.001 853.679 413.262 808.051C483.523 762.423 542.824 714.537 581.902 674.018C601.448 653.753 615.895 635.371 624.136 620.067C628.257 612.415 630.8 605.579 631.676 599.695C632.551 593.819 631.757 588.955 629.284 585.147Z" stroke="#632C72" stroke-width="2"/>
<path opacity="0.172414" d="M614.864 561.413C612.068 557.835 607.728 555.501 601.888 554.415C596.039 553.328 588.747 553.507 580.17 554.912C563.017 557.722 540.933 565.397 515.409 577.28C464.375 601.038 399.791 641.518 333.774 693.096C267.757 744.674 212.856 797.546 177.457 841.316C159.753 863.208 146.963 882.779 140.087 898.743C136.649 906.725 134.711 913.756 134.35 919.695C133.991 925.625 135.206 930.401 138.001 933.978C140.797 937.556 145.137 939.891 150.977 940.976C156.827 942.064 164.118 941.884 172.695 940.479C189.848 937.669 211.932 929.994 237.456 918.111C288.49 894.353 353.074 853.874 419.091 802.296C485.108 750.718 540.009 697.845 575.408 654.075C593.112 632.183 605.902 612.612 612.778 596.649C616.217 588.666 618.155 581.635 618.515 575.696C618.874 569.767 617.659 564.991 614.864 561.413Z" stroke="#632C72" stroke-width="2"/>
<path opacity="0.206897" d="M598.629 539.091C595.532 535.771 591.005 533.824 585.092 533.251C579.171 532.678 571.922 533.492 563.501 535.639C546.658 539.933 525.327 549.504 500.935 563.566C452.166 591.682 391.356 637.636 330.086 694.772C268.816 751.907 218.731 809.363 187.282 856.052C171.553 879.404 160.517 900.015 155.059 916.517C152.33 924.769 151.012 931.942 151.171 937.89C151.329 943.828 152.956 948.48 156.053 951.8C159.149 955.121 163.676 957.068 169.589 957.641C175.511 958.214 182.759 957.4 191.181 955.253C208.023 950.959 229.354 941.388 253.746 927.326C302.515 899.21 363.325 853.256 424.595 796.12C485.866 738.985 535.95 681.529 567.399 634.84C583.128 611.488 594.164 590.877 599.622 574.375C602.352 566.123 603.67 558.95 603.511 553.002C603.352 547.064 601.725 542.412 598.629 539.091Z" stroke="#632C72" stroke-width="2"/>
<path opacity="0.241379" d="M580.709 518.343C577.335 515.305 572.656 513.76 566.715 513.705C560.766 513.65 553.616 515.093 545.414 517.966C529.01 523.711 508.594 535.105 485.521 551.239C439.387 583.499 382.814 634.578 326.757 696.836C270.699 759.094 225.813 820.697 198.553 869.949C184.919 894.583 175.722 916.077 171.722 932.992C169.722 941.45 169.035 948.712 169.711 954.622C170.387 960.525 172.413 965.017 175.787 968.055C179.161 971.093 183.841 972.638 189.781 972.693C195.73 972.748 202.88 971.306 211.082 968.433C227.487 962.687 247.902 951.293 270.976 935.159C317.109 902.9 373.682 851.82 429.739 789.562C485.797 727.304 530.683 665.702 557.943 616.449C571.577 591.816 580.775 570.321 584.774 553.406C586.774 544.948 587.461 537.687 586.785 531.776C586.109 525.874 584.083 521.381 580.709 518.343Z" stroke="#632C72" stroke-width="2"/>
<path opacity="0.275862" d="M561.249 499.308C557.623 496.576 552.827 495.444 546.904 495.907C540.973 496.37 533.976 498.431 526.055 502.008C510.214 509.161 490.869 522.291 469.29 540.375C426.144 576.532 374.238 632.348 323.82 699.255C273.402 766.162 234.055 831.442 211.192 882.883C199.756 908.611 192.467 930.826 189.957 948.025C188.702 956.625 188.65 963.919 189.839 969.748C191.027 975.569 193.437 979.867 197.063 982.6C200.689 985.332 205.485 986.464 211.408 986.001C217.339 985.537 224.336 983.477 232.257 979.9C248.098 972.746 267.443 959.616 289.022 941.533C332.168 905.375 384.074 849.56 434.492 782.653C484.91 715.745 524.257 650.465 547.12 599.024C558.556 573.296 565.845 551.082 568.355 533.883C569.61 525.283 569.662 517.989 568.473 512.16C567.285 506.339 564.875 502.04 561.249 499.308Z" stroke="#632C72" stroke-width="2"/>
<path opacity="0.310345" d="M540.404 482.11C536.554 479.704 531.677 478.995 525.817 479.972C519.949 480.951 513.158 483.613 505.579 487.867C490.422 496.374 472.295 511.14 452.374 531.035C412.543 570.816 365.699 630.943 321.305 701.989C276.91 773.036 243.403 841.497 225.109 894.735C215.96 921.362 210.635 944.127 209.633 961.48C209.132 970.156 209.716 977.427 211.409 983.13C213.099 988.825 215.875 992.898 219.725 995.303C223.575 997.709 228.452 998.419 234.312 997.441C240.18 996.463 246.971 993.8 254.55 989.546C269.707 981.04 287.834 966.274 307.755 946.378C347.586 906.598 394.429 846.471 438.824 775.424C483.219 704.377 516.726 635.916 535.02 582.678C544.169 556.052 549.494 533.286 550.496 515.934C550.996 507.257 550.413 499.987 548.72 494.283C547.03 488.588 544.254 484.516 540.404 482.11Z" stroke="#632C72" stroke-width="2"/>
<path opacity="0.344828" d="M518.337 466.864C514.292 464.803 509.372 464.521 503.619 466.005C497.859 467.492 491.326 470.736 484.147 475.634C469.789 485.43 453.017 501.719 434.906 523.276C398.694 566.376 357.269 630.357 319.235 705.002C281.202 779.648 253.789 850.768 240.205 905.398C233.411 932.721 230.09 955.864 230.605 973.238C230.862 981.925 232.078 989.117 234.261 994.651C236.441 1000.18 239.561 1003.99 243.606 1006.05C247.652 1008.11 252.572 1008.4 258.324 1006.91C264.085 1005.43 270.617 1002.18 277.797 997.283C292.155 987.487 308.926 971.198 327.037 949.641C363.249 906.541 404.674 842.56 442.708 767.915C480.742 693.269 508.155 622.149 521.739 567.519C528.533 540.196 531.853 517.053 531.339 499.679C531.081 490.992 529.866 483.8 527.683 478.266C525.502 472.74 522.382 468.925 518.337 466.864Z" stroke="#632C72" stroke-width="2"/>
<path opacity="0.37931" d="M495.226 453.67C491.016 451.969 486.09 452.118 480.489 454.098C474.88 456.081 468.655 459.882 461.93 465.387C448.48 476.397 433.192 494.086 417.029 517.139C384.711 563.231 349.02 630.579 317.637 708.255C286.253 785.932 265.143 859.171 256.373 914.777C251.986 942.588 250.695 965.932 252.722 983.195C253.735 991.827 255.573 998.885 258.23 1004.21C260.884 1009.52 264.324 1013.05 268.534 1014.75C272.743 1016.45 277.669 1016.31 283.27 1014.33C288.879 1012.34 295.104 1008.54 301.83 1003.04C315.279 992.026 330.567 974.337 346.731 951.284C379.048 905.192 414.739 837.844 446.123 760.167C477.506 682.491 498.616 609.252 507.387 553.646C511.774 525.835 513.065 502.491 511.038 485.228C510.024 476.596 508.187 469.537 505.529 464.215C502.876 458.899 499.435 455.371 495.226 453.67Z" stroke="#632C72" stroke-width="2"/>
<path opacity="0.413793" d="M471.253 442.61C466.911 441.283 462.017 441.86 456.61 444.32C451.195 446.785 445.325 451.114 439.105 457.184C426.666 469.324 412.978 488.279 398.885 512.653C370.708 561.386 341.022 631.588 316.528 711.705C292.035 791.821 277.388 866.621 273.497 922.78C271.551 950.867 272.299 974.235 275.823 991.255C277.585 999.766 280.031 1006.64 283.142 1011.71C286.249 1016.77 289.984 1019.99 294.325 1021.31C298.667 1022.64 303.561 1022.07 308.969 1019.6C314.384 1017.14 320.254 1012.81 326.473 1006.74C338.913 994.601 352.6 975.646 366.693 951.272C394.871 902.539 424.556 832.337 449.05 752.221C473.544 672.104 488.19 597.304 492.082 541.145C494.028 513.058 493.279 489.69 489.755 472.67C487.993 464.159 485.548 457.287 482.437 452.216C479.33 447.153 475.595 443.938 471.253 442.61Z" stroke="#632C72" stroke-width="2"/>
<path opacity="0.448276" d="M446.605 433.754C442.164 432.81 437.339 433.811 432.167 436.734C426.987 439.661 421.517 444.485 415.85 451.075C404.516 464.253 392.532 484.328 380.617 509.837C356.794 560.841 333.34 633.363 315.922 715.309C298.504 797.255 290.433 873.048 291.451 929.332C291.96 957.482 294.743 980.696 299.736 997.344C302.233 1005.67 305.269 1012.3 308.81 1017.08C312.346 1021.86 316.347 1024.73 320.788 1025.68C325.229 1026.62 330.054 1025.62 335.226 1022.7C340.406 1019.77 345.876 1014.95 351.543 1008.36C362.877 995.178 374.861 975.103 386.776 949.594C410.599 898.59 434.053 826.067 451.471 744.121C468.889 662.175 476.96 586.383 475.942 530.099C475.433 501.949 472.65 478.735 467.657 462.087C465.16 453.762 462.124 447.13 458.583 442.349C455.047 437.575 451.046 434.698 446.605 433.754Z" stroke="#632C72" stroke-width="2"/>
<path opacity="0.482759" d="M421.477 427.151C416.971 426.598 412.251 428.016 407.354 431.378C402.449 434.745 397.42 440.028 392.348 447.086C382.206 461.202 372.018 482.245 362.372 508.696C343.085 561.582 326.041 635.873 315.831 719.025C305.621 802.177 304.186 878.384 310.106 934.366C313.067 962.364 317.862 985.247 324.288 1001.4C327.501 1009.47 331.102 1015.82 335.047 1020.27C338.986 1024.72 343.222 1027.23 347.728 1027.79C352.235 1028.34 356.954 1026.92 361.852 1023.56C366.757 1020.19 371.786 1014.91 376.857 1007.85C386.999 993.736 397.188 972.693 406.834 946.242C426.121 893.356 443.165 819.065 453.375 735.913C463.585 652.761 465.019 576.554 459.1 520.573C456.139 492.574 451.344 469.691 444.918 453.541C441.705 445.465 438.103 439.123 434.159 434.669C430.22 430.222 425.984 427.704 421.477 427.151Z" stroke="#632C72" stroke-width="2"/>
<path opacity="0.517241" d="M396.071 422.833C391.534 422.674 386.955 424.498 382.369 428.275C377.777 432.056 373.227 437.757 368.79 445.231C359.917 460.177 351.602 482.028 344.297 509.219C329.693 563.584 319.189 639.078 316.265 722.804C313.341 806.529 318.554 882.571 329.33 937.824C334.72 965.458 341.491 987.836 349.3 1003.36C353.205 1011.13 357.345 1017.13 361.663 1021.23C365.974 1025.31 370.414 1027.45 374.952 1027.61C379.489 1027.77 384.067 1025.95 388.653 1022.17C393.246 1018.39 397.795 1012.69 402.232 1005.21C411.105 990.267 419.421 968.416 426.725 941.225C441.329 886.859 451.834 811.365 454.758 727.64C457.681 643.914 452.469 567.872 441.692 512.62C436.303 484.986 429.532 462.608 421.723 447.079C417.818 439.315 413.677 433.31 409.36 429.217C405.048 425.13 400.608 422.991 396.071 422.833Z" stroke="#632C72" stroke-width="2"/>
<path opacity="0.551724" d="M370.585 420.815C366.051 421.053 361.649 423.269 357.41 427.431C353.164 431.598 349.129 437.674 345.36 445.506C337.824 461.168 331.444 483.661 326.537 511.385C316.727 566.817 312.842 642.939 317.227 726.601C321.611 810.262 333.432 885.561 348.983 939.664C356.76 966.723 365.456 988.426 374.589 1003.21C379.155 1010.61 383.803 1016.23 388.461 1019.93C393.113 1023.63 397.722 1025.37 402.256 1025.13C406.79 1024.9 411.192 1022.68 415.431 1018.52C419.676 1014.35 423.712 1008.27 427.48 1000.44C435.017 984.78 441.397 962.288 446.303 934.564C456.114 879.132 459.998 803.01 455.614 719.348C451.229 635.686 439.409 560.387 423.858 506.285C416.081 479.225 407.385 457.523 398.252 442.734C393.686 435.339 389.037 429.718 384.379 426.017C379.728 422.322 375.119 420.578 370.585 420.815Z" stroke="#632C72" stroke-width="2"/>
<path opacity="0.586207" d="M345.217 421.097C340.722 421.728 336.53 424.32 332.669 428.835C328.803 433.357 325.312 439.761 322.241 447.892C316.098 464.151 311.703 487.114 309.231 515.16C304.289 571.236 307.054 647.407 318.713 730.368C330.373 813.33 348.711 887.312 368.918 939.853C379.024 966.132 389.578 986.994 399.965 1000.93C405.159 1007.9 410.279 1013.09 415.242 1016.37C420.198 1019.65 424.942 1020.99 429.438 1020.35C433.934 1019.72 438.125 1017.13 441.986 1012.62C445.852 1008.09 449.343 1001.69 452.414 993.559C458.557 977.299 462.952 954.336 465.424 926.29C470.366 870.214 467.601 794.044 455.942 711.082C444.282 628.121 425.944 554.139 405.737 501.597C395.631 475.319 385.077 454.457 374.69 440.52C369.496 433.552 364.376 428.358 359.413 425.077C354.457 421.8 349.713 420.465 345.217 421.097Z" stroke="#632C72" stroke-width="2"/>
<path opacity="0.62069" d="M320.171 423.662C315.747 424.683 311.797 427.63 308.345 432.465C304.888 437.306 301.969 443.99 299.617 452.358C294.915 469.091 292.538 492.35 292.52 520.504C292.484 576.798 301.877 652.437 320.723 734.067C339.568 815.697 364.285 887.799 388.994 938.379C401.352 963.677 413.685 983.54 425.246 996.518C431.028 1003.01 436.582 1007.74 441.811 1010.57C447.034 1013.4 451.876 1014.32 456.3 1013.3C460.723 1012.28 464.673 1009.33 468.126 1004.5C471.583 999.655 474.502 992.97 476.854 984.603C481.556 967.87 483.933 944.611 483.951 916.457C483.986 860.163 474.594 784.524 455.748 702.894C436.902 621.264 412.186 549.162 387.477 498.582C375.118 473.284 362.786 453.421 351.224 440.443C345.443 433.954 339.889 429.226 334.659 426.39C329.437 423.558 324.595 422.641 320.171 423.662Z" stroke="#632C72" stroke-width="2"/>
<path opacity="0.655172" d="M295.643 428.467C291.325 429.87 287.647 433.15 284.629 438.267C281.607 443.392 279.282 450.305 277.668 458.845C274.442 475.924 274.102 499.302 276.538 527.351C281.408 583.433 297.358 657.966 323.246 737.643C349.135 817.319 380.041 886.993 409.065 935.227C423.581 959.351 437.597 978.064 450.246 989.985C456.571 995.946 462.516 1000.17 467.973 1002.54C473.422 1004.91 478.326 1005.4 482.644 1004C486.962 1002.59 490.64 999.313 493.658 994.196C496.68 989.071 499.006 982.158 500.619 973.618C503.845 956.539 504.186 933.161 501.749 905.112C496.879 849.03 480.929 774.497 455.041 694.82C429.152 615.144 398.246 545.47 369.222 497.236C354.706 473.112 340.69 454.399 328.041 442.478C321.716 436.517 315.771 432.291 310.314 429.922C304.865 427.556 299.961 427.064 295.643 428.467Z" stroke="#632C72" stroke-width="2"/>
<path opacity="0.689655" d="M271.825 435.466C267.646 437.24 264.268 440.828 261.707 446.188C259.143 451.557 257.429 458.646 256.567 467.295C254.841 484.59 256.539 507.908 261.411 535.639C271.151 591.083 293.536 663.942 326.27 741.059C359.004 818.176 395.865 884.891 428.982 930.412C445.546 953.179 461.14 970.599 474.78 981.372C481.6 986.759 487.89 990.451 493.533 992.336C499.168 994.218 504.096 994.28 508.275 992.506C512.454 990.732 515.833 987.144 518.393 981.784C520.957 976.415 522.671 969.326 523.534 960.678C525.259 943.382 523.561 920.064 518.69 892.334C508.95 836.889 486.565 764.03 453.831 686.913C421.096 609.796 384.235 543.081 351.118 497.56C334.555 474.793 318.961 457.373 305.321 446.6C298.5 441.213 292.21 437.521 286.567 435.636C280.932 433.754 276.005 433.692 271.825 435.466Z" stroke="#632C72" stroke-width="2"/>
<path opacity="0.724138" d="M248.91 444.581C244.901 446.713 241.849 450.581 239.765 456.145C237.679 461.716 236.589 468.928 236.483 477.619C236.272 494.999 239.996 518.08 247.266 545.28C261.801 599.665 290.451 670.296 329.782 744.267C369.112 818.237 411.648 881.486 448.606 923.947C467.091 945.184 484.144 961.179 498.671 970.722C505.935 975.494 512.523 978.624 518.309 980.009C524.086 981.393 529.001 981.026 533.009 978.894C537.018 976.763 540.071 972.894 542.154 967.331C544.241 961.759 545.33 954.547 545.436 945.857C545.647 928.477 541.923 905.395 534.654 878.195C520.118 823.811 491.469 753.179 452.138 679.209C412.807 605.238 370.272 541.99 333.313 499.528C314.828 478.291 297.775 462.297 283.248 452.753C275.984 447.981 269.396 444.852 263.611 443.466C257.833 442.082 252.919 442.45 248.91 444.581Z" stroke="#632C72" stroke-width="2"/>
<path opacity="0.758621" d="M227.075 455.732C223.267 458.204 220.563 462.324 218.972 468.048C217.379 473.78 216.923 481.06 217.575 489.727C218.879 507.059 224.6 529.728 234.213 556.191C253.433 609.102 288.13 676.967 333.758 747.228C379.386 817.49 427.272 876.79 467.791 915.869C488.056 935.414 506.438 949.861 521.741 958.102C529.394 962.223 536.23 964.767 542.114 965.643C547.99 966.518 552.854 965.724 556.661 963.251C560.469 960.778 563.173 956.658 564.764 950.934C566.357 945.202 566.813 937.923 566.161 929.256C564.857 911.924 559.136 889.254 549.523 862.791C530.303 809.881 495.606 742.015 449.978 671.754C404.35 601.493 356.464 542.192 315.945 503.114C295.68 483.568 277.298 469.121 261.994 460.88C254.342 456.759 247.506 454.216 241.622 453.339C235.746 452.464 230.882 453.259 227.075 455.732Z" stroke="#632C72" stroke-width="2"/>
<path opacity="0.793103" d="M206.492 468.813C202.915 471.608 200.58 475.948 199.494 481.789C198.407 487.638 198.587 494.929 199.992 503.506C202.801 520.659 210.477 542.743 222.359 568.268C246.117 619.302 286.597 683.885 338.175 749.902C389.753 815.919 442.625 870.82 486.396 906.219C508.287 923.923 527.859 936.713 543.822 943.589C551.804 947.027 558.836 948.965 564.774 949.326C570.704 949.685 575.48 948.47 579.058 945.675C582.635 942.879 584.97 938.539 586.056 932.699C587.143 926.85 586.964 919.558 585.559 910.981C582.749 893.828 575.073 871.744 563.191 846.22C539.433 795.186 498.953 730.602 447.375 664.585C395.797 598.569 342.925 543.667 299.155 508.269C277.263 490.564 257.692 477.774 241.728 470.898C233.746 467.46 226.714 465.522 220.776 465.162C214.846 464.802 210.07 466.018 206.492 468.813Z" stroke="#632C72" stroke-width="2"/>
<path opacity="0.827586" d="M187.329 483.709C184.009 486.805 182.061 491.332 181.489 497.246C180.915 503.167 181.729 510.415 183.877 518.837C188.171 535.68 197.742 557.011 211.804 581.402C239.919 630.172 285.874 690.981 343.009 752.252C400.145 813.522 457.6 863.606 504.29 895.055C527.641 910.784 548.252 921.82 564.754 927.278C573.006 930.008 580.18 931.326 586.127 931.167C592.066 931.008 596.717 929.381 600.038 926.285C603.358 923.188 605.306 918.661 605.878 912.748C606.452 906.827 605.637 899.579 603.49 891.157C599.196 874.314 589.625 852.983 575.563 828.591C547.448 779.822 501.493 719.013 444.358 657.742C387.222 596.472 329.766 546.388 283.077 514.939C259.726 499.21 239.114 488.174 222.612 482.715C214.361 479.986 207.187 478.668 201.24 478.827C195.301 478.986 190.65 480.613 187.329 483.709Z" stroke="#632C72" stroke-width="2"/>
<path opacity="0.862069" d="M169.736 500.29C166.698 503.664 165.152 508.344 165.097 514.284C165.042 520.233 166.485 527.383 169.358 535.585C175.104 551.99 186.498 572.405 202.632 595.479C234.891 641.612 285.97 698.185 348.229 754.242C410.487 810.3 472.089 855.186 521.342 882.446C545.975 896.08 567.47 905.278 584.385 909.277C592.843 911.277 600.104 911.964 606.015 911.288C611.917 910.612 616.409 908.586 619.447 905.212C622.485 901.838 624.031 897.159 624.086 891.218C624.141 885.269 622.698 878.119 619.825 869.917C614.079 853.513 602.686 833.097 586.551 810.023C554.292 763.89 503.213 707.317 440.955 651.26C378.696 595.202 317.094 550.316 267.842 523.056C243.208 509.422 221.713 500.224 204.798 496.225C196.34 494.225 189.079 493.538 183.168 494.214C177.266 494.89 172.774 496.916 169.736 500.29Z" stroke="#632C72" stroke-width="2"/>
<path opacity="0.896552" d="M153.854 518.41C151.122 522.036 149.99 526.832 150.453 532.755C150.917 538.686 152.977 545.683 156.554 553.604C163.707 569.445 176.837 588.79 194.921 610.369C231.078 653.515 286.894 705.421 353.801 755.839C420.708 806.257 485.988 845.603 537.429 868.467C563.157 879.903 585.371 887.191 602.571 889.701C611.171 890.957 618.464 891.009 624.293 889.819C630.114 888.632 634.413 886.222 637.145 882.596C639.878 878.97 641.009 874.174 640.546 868.251C640.083 862.32 638.022 855.323 634.445 847.402C627.292 831.561 614.162 812.216 596.078 790.637C559.921 747.491 504.106 695.585 437.198 645.167C370.291 594.749 305.011 555.403 253.571 532.539C227.843 521.103 205.628 513.815 188.429 511.305C179.829 510.049 172.535 509.997 166.706 511.187C160.885 512.374 156.586 514.784 153.854 518.41Z" stroke="#632C72" stroke-width="2"/>
<path opacity="0.931035" d="M139.81 537.918C137.404 541.768 136.694 546.645 137.672 552.505C138.65 558.373 141.313 565.164 145.567 572.743C154.074 587.9 168.839 606.027 188.735 625.948C228.515 665.779 288.642 712.622 359.689 757.017C430.736 801.412 499.197 834.919 552.435 853.213C579.061 862.362 601.827 867.687 619.179 868.689C627.856 869.189 635.126 868.606 640.83 866.913C646.525 865.223 650.597 862.447 653.003 858.597C655.409 854.747 656.119 849.87 655.141 844.01C654.162 838.142 651.5 831.351 647.246 823.772C638.739 808.615 623.973 790.488 604.078 770.567C564.297 730.736 504.17 683.892 433.124 639.497C362.077 595.103 293.616 561.596 240.378 543.302C213.751 534.153 190.986 528.828 173.634 527.826C164.957 527.325 157.686 527.909 151.983 529.602C146.288 531.292 142.216 534.068 139.81 537.918Z" stroke="#632C72" stroke-width="2"/>
<path opacity="0.965517" d="M127.721 558.644C125.659 562.69 125.378 567.61 126.862 573.362C128.349 579.123 131.593 585.655 136.491 592.835C146.286 607.193 162.576 623.964 184.132 642.075C227.233 678.287 291.214 719.712 365.859 757.746C440.505 795.78 511.626 823.193 566.255 836.777C593.578 843.571 616.721 846.891 634.095 846.377C642.782 846.119 649.974 844.904 655.508 842.721C661.034 840.54 664.849 837.421 666.91 833.375C668.972 829.33 669.253 824.41 667.769 818.658C666.282 812.897 663.038 806.364 658.14 799.185C648.345 784.827 632.055 768.056 610.499 749.944C567.398 713.732 503.417 672.307 428.772 634.273C354.126 596.24 283.005 568.827 228.376 555.243C201.053 548.449 177.91 545.128 160.536 545.643C151.849 545.9 144.657 547.116 139.123 549.299C133.597 551.479 129.782 554.599 127.721 558.644Z" stroke="#632C72" stroke-width="2"/>
<path d="M117.682 580.415C115.982 584.624 116.13 589.55 118.11 595.151C120.093 600.76 123.894 606.985 129.399 613.711C140.409 627.16 158.098 642.448 181.151 658.612C227.243 690.929 294.591 726.62 372.268 758.004C449.944 789.387 523.183 810.497 578.789 819.268C606.6 823.655 629.944 824.946 647.207 822.919C655.839 821.905 662.898 820.068 668.22 817.41C673.536 814.757 677.064 811.316 678.765 807.107C680.466 802.897 680.317 797.971 678.337 792.37C676.354 786.761 672.553 780.536 667.048 773.811C656.038 760.361 638.349 745.073 615.296 728.91C569.204 696.592 501.856 660.901 424.18 629.518C346.503 598.134 273.264 577.024 217.658 568.254C189.847 563.867 166.503 562.576 149.24 564.603C140.608 565.616 133.55 567.454 128.227 570.111C122.912 572.765 119.383 576.205 117.682 580.415Z" stroke="#632C72" stroke-width="2"/>
</g>
</g>
<defs>
<filter id="filter0_f_417_14795" x="-369.43" y="-162.988" width="1100.97" height="1350.88" filterUnits="userSpaceOnUse" color-interpolation-filters="sRGB">
<feFlood flood-opacity="0" result="BackgroundImageFix"/>
<feBlend mode="normal" in="SourceGraphic" in2="BackgroundImageFix" result="shape"/>
<feGaussianBlur stdDeviation="200" result="effect1_foregroundBlur_417_14795"/>
</filter>
<filter id="filter1_f_417_14795" x="-92" y="170" width="545.452" height="776.513" filterUnits="userSpaceOnUse" color-interpolation-filters="sRGB">
<feFlood flood-opacity="0" result="BackgroundImageFix"/>
<feBlend mode="normal" in="SourceGraphic" in2="BackgroundImageFix" result="shape"/>
<feGaussianBlur stdDeviation="100" result="effect1_foregroundBlur_417_14795"/>
</filter>
<linearGradient id="paint0_linear_417_14795" x1="150.488" y1="0" x2="150.488" y2="550.881" gradientUnits="userSpaceOnUse">
<stop stop-color="#631D77"/>
<stop offset="1" stop-color="#130D1B"/>
</linearGradient>
<linearGradient id="paint1_linear_417_14795" x1="72.3076" y1="0" x2="72.3076" y2="375.54" gradientUnits="userSpaceOnUse">
<stop stop-color="#EF57BB"/>
<stop offset="1" stop-color="#361E4E"/>
</linearGradient>
<clipPath id="clip0_417_14795">
<rect width="390" height="770" fill="white"/>
</clipPath>
</defs>
</svg>
