<svg width="61" height="60" viewBox="0 0 61 60" fill="none" xmlns="http://www.w3.org/2000/svg">
<g id="search" clip-path="url(#clip0_35_712)">
<path id="Vector" d="M59.6797 51.8789L47.9961 40.1953C47.4688 39.668 46.7539 39.375 46.0039 39.375H44.0938C47.3281 35.2383 49.25 30.0352 49.25 24.375C49.25 10.9102 38.3398 0 24.875 0C11.4102 0 0.5 10.9102 0.5 24.375C0.5 37.8398 11.4102 48.75 24.875 48.75C30.5352 48.75 35.7383 46.8281 39.875 43.5937V45.5039C39.875 46.2539 40.168 46.9687 40.6953 47.4961L52.3789 59.1797C53.4805 60.2812 55.2617 60.2812 56.3516 59.1797L59.668 55.8633C60.7695 54.7617 60.7695 52.9805 59.6797 51.8789ZM24.875 39.375C16.5898 39.375 9.875 32.6719 9.875 24.375C9.875 16.0898 16.5781 9.375 24.875 9.375C33.1602 9.375 39.875 16.0781 39.875 24.375C39.875 32.6602 33.1719 39.375 24.875 39.375Z" fill="white"/>
</g>
<defs>
<clipPath id="clip0_35_712">
<rect width="60" height="60" fill="white" transform="translate(0.5)"/>
</clipPath>
</defs>
</svg>
