<svg width="25" height="23" viewBox="0 0 25 23" fill="none" xmlns="http://www.w3.org/2000/svg">
<g id="SVG">
<path id="Vector" d="M22.8826 1.36449C22.5936 1.38537 22.3099 1.45305 22.0426 1.56489H22.0402C21.7834 1.66689 20.5642 2.17929 18.7102 2.95689L12.0658 5.75529C7.29817 7.76409 2.61217 9.73929 2.61217 9.73929L2.66857 9.71769C2.66857 9.71769 2.34457 9.82329 2.00857 10.0537C1.79857 10.1869 1.61977 10.3609 1.48057 10.5649C1.28158 10.858 1.19312 11.2122 1.23097 11.5645C1.31137 12.2137 1.73257 12.6037 2.03497 12.8185C2.34097 13.0369 2.63257 13.1377 2.63257 13.1377H2.63977L7.03537 14.6185C7.23217 15.2509 8.37457 19.0057 8.64817 19.8709C8.81017 20.3869 8.96857 20.7109 9.16537 20.9569C9.26137 21.0829 9.37177 21.1885 9.50617 21.2737C9.57577 21.3145 9.65017 21.3457 9.72817 21.3697L9.68257 21.3577C9.69577 21.3613 9.70657 21.3721 9.71737 21.3757C9.75337 21.3853 9.77737 21.3889 9.82297 21.3961C10.519 21.6073 11.0782 21.1753 11.0782 21.1753L11.1094 21.1501L13.7038 18.7873L18.0526 22.1233L18.1522 22.1665C19.0582 22.5637 19.9762 22.3429 20.461 21.9517C20.9506 21.5581 21.1402 21.0553 21.1402 21.0553L21.1714 20.9749L24.5314 3.75849C24.6274 3.33369 24.6514 2.93529 24.547 2.55009C24.4378 2.15889 24.187 1.82289 23.8438 1.60689C23.5553 1.43176 23.2196 1.34731 22.8826 1.36449ZM22.7926 3.20889C22.789 3.26649 22.7998 3.25929 22.7746 3.36849V3.37809L19.4458 20.4157C19.4302 20.4397 19.4062 20.4925 19.3402 20.5465C19.2694 20.6017 19.2142 20.6365 18.9214 20.5213L13.603 16.4425L10.3894 19.3705L11.0638 15.0601L19.7542 6.96009C20.113 6.62769 19.9942 6.55689 19.9942 6.55689C20.0182 6.14889 19.453 6.43689 19.453 6.43689L8.49217 13.2277L8.48857 13.2097L3.23617 11.4409V11.4361L3.22417 11.4337C3.2332 11.4302 3.24202 11.4262 3.25057 11.4217L3.27937 11.4085L3.30697 11.3989L12.7642 7.41489C15.151 6.40929 17.5558 5.39769 19.405 4.61649C20.5018 4.15449 21.601 3.69489 22.699 3.23889C22.7734 3.21009 22.7386 3.21009 22.7914 3.21009L22.7926 3.20889Z" fill="white"/>
</g>
</svg>
