<svg width="743" height="869" viewBox="0 0 743 869" fill="none" xmlns="http://www.w3.org/2000/svg">
<path fill-rule="evenodd" clip-rule="evenodd" d="M139.599 850.935C139.599 847.2 142.573 844.185 146.257 844.185C149.719 844.185 152.559 846.885 152.87 850.305H343.231L386.638 806.34H575.224V807.24H386.993L343.63 851.205H152.914C152.781 854.805 149.852 857.685 146.257 857.685C142.573 857.685 139.599 854.67 139.599 850.935ZM140.487 850.935C140.487 854.175 143.061 856.785 146.257 856.785C149.452 856.785 152.026 854.175 152.026 850.935C152.026 847.695 149.452 845.085 146.257 845.085C143.061 845.085 140.487 847.695 140.487 850.935Z" fill="#D32A39"/>
<path fill-rule="evenodd" clip-rule="evenodd" d="M99.9997 802.75C99.9997 799.015 102.973 796 106.657 796C110.208 796 113.137 798.88 113.315 802.435H304.963L332.925 830.785H663.005V831.685H332.525L304.608 803.335H113.27C113.004 806.8 110.119 809.5 106.657 809.5C102.973 809.5 99.9997 806.485 99.9997 802.75ZM100.887 802.75C100.887 805.99 103.462 808.6 106.657 808.6C109.853 808.6 112.427 805.99 112.427 802.75C112.427 799.51 109.853 796.9 106.657 796.9C103.462 796.9 100.887 799.51 100.887 802.75Z" fill="#D32A39"/>
<path fill-rule="evenodd" clip-rule="evenodd" d="M650.183 861.935C650.183 865.67 647.209 868.685 643.525 868.685C640.152 868.685 637.4 866.165 636.956 862.88V863.015H413.929L383.482 832.145H243.407V831.245H383.837L414.284 862.115H636.868C636.868 862.055 636.868 861.995 636.868 861.935C636.868 858.2 639.841 855.185 643.525 855.185C647.209 855.185 650.183 858.2 650.183 861.935ZM649.295 861.935C649.295 858.695 646.721 856.085 643.525 856.085C640.33 856.085 637.755 858.695 637.755 861.935C637.755 865.175 640.33 867.785 643.525 867.785C646.721 867.785 649.295 865.175 649.295 861.935Z" fill="#D32A39"/>
<path fill-rule="evenodd" clip-rule="evenodd" d="M179.599 767.935C179.599 764.2 182.573 761.185 186.257 761.185C189.719 761.185 192.559 763.885 192.87 767.305H383.231L426.638 723.34H615.224V724.24H426.993L383.63 768.205H192.914C192.781 771.805 189.852 774.685 186.257 774.685C182.573 774.685 179.599 771.67 179.599 767.935ZM180.487 767.935C180.487 771.175 183.061 773.785 186.257 773.785C189.452 773.785 192.026 771.175 192.026 767.935C192.026 764.695 189.452 762.085 186.257 762.085C183.061 762.085 180.487 764.695 180.487 767.935Z" fill="#D32A39"/>
<path fill-rule="evenodd" clip-rule="evenodd" d="M140 719.75C140 716.015 142.973 713 146.657 713C150.208 713 153.137 715.88 153.315 719.435H344.963L372.925 747.785H703.005V748.685H372.525L344.608 720.335H153.27C153.004 723.8 150.119 726.5 146.657 726.5C142.973 726.5 140 723.485 140 719.75ZM140.887 719.75C140.887 722.99 143.462 725.6 146.657 725.6C149.853 725.6 152.427 722.99 152.427 719.75C152.427 716.51 149.853 713.9 146.657 713.9C143.462 713.9 140.887 716.51 140.887 719.75Z" fill="#D32A39"/>
<path fill-rule="evenodd" clip-rule="evenodd" d="M690.183 778.935C690.183 782.67 687.209 785.685 683.525 785.685C680.152 785.685 677.4 783.165 676.956 779.88V780.015H453.929L423.482 749.145H283.407V748.245H423.837L454.284 779.115H676.868C676.868 779.055 676.868 778.995 676.868 778.935C676.868 775.2 679.841 772.185 683.525 772.185C687.209 772.185 690.183 775.2 690.183 778.935ZM689.295 778.935C689.295 775.695 686.721 773.085 683.525 773.085C680.33 773.085 677.755 775.695 677.755 778.935C677.755 782.175 680.33 784.785 683.525 784.785C686.721 784.785 689.295 782.175 689.295 778.935Z" fill="#D32A39"/>
<path fill-rule="evenodd" clip-rule="evenodd" d="M696.405 684.935C696.405 681.2 693.432 678.185 689.748 678.185C686.286 678.185 683.445 680.885 683.135 684.305H492.774L449.366 640.34H260.781V641.24H449.011L492.374 685.205H683.09C683.223 688.805 686.153 691.685 689.748 691.685C693.432 691.685 696.405 688.67 696.405 684.935ZM695.518 684.935C695.518 688.175 692.943 690.785 689.748 690.785C686.552 690.785 683.978 688.175 683.978 684.935C683.978 681.695 686.552 679.085 689.748 679.085C692.943 679.085 695.518 681.695 695.518 684.935Z" fill="#D32A39"/>
<path fill-rule="evenodd" clip-rule="evenodd" d="M159 636.75C159 633.015 161.973 630 165.657 630C169.208 630 172.137 632.88 172.315 636.435H363.963L391.925 664.785H722.005V665.685H391.525L363.608 637.335H172.27C172.004 640.8 169.119 643.5 165.657 643.5C161.973 643.5 159 640.485 159 636.75ZM159.887 636.75C159.887 639.99 162.462 642.6 165.657 642.6C168.853 642.6 171.427 639.99 171.427 636.75C171.427 633.51 168.853 630.9 165.657 630.9C162.462 630.9 159.887 633.51 159.887 636.75Z" fill="#D32A39"/>
<path fill-rule="evenodd" clip-rule="evenodd" d="M185.822 695.935C185.822 699.67 188.796 702.685 192.48 702.685C195.853 702.685 198.605 700.165 199.048 696.88V697.015H422.076L452.523 666.145H592.598V665.245H452.168L421.721 696.115H199.137C199.137 696.055 199.137 695.995 199.137 695.935C199.137 692.2 196.163 689.185 192.48 689.185C188.796 689.185 185.822 692.2 185.822 695.935ZM186.71 695.935C186.71 692.695 189.284 690.085 192.48 690.085C195.675 690.085 198.249 692.695 198.249 695.935C198.249 699.175 195.675 701.785 192.48 701.785C189.284 701.785 186.71 699.175 186.71 695.935Z" fill="#D32A39"/>
<path fill-rule="evenodd" clip-rule="evenodd" d="M546.405 601.935C546.405 598.2 543.432 595.185 539.748 595.185C536.286 595.185 533.445 597.885 533.135 601.305H342.774L299.366 557.34H110.781V558.24H299.011L342.374 602.205H533.09C533.223 605.805 536.153 608.685 539.748 608.685C543.432 608.685 546.405 605.67 546.405 601.935ZM545.518 601.935C545.518 605.175 542.943 607.785 539.748 607.785C536.552 607.785 533.978 605.175 533.978 601.935C533.978 598.695 536.552 596.085 539.748 596.085C542.943 596.085 545.518 598.695 545.518 601.935Z" fill="#D32A39"/>
<path fill-rule="evenodd" clip-rule="evenodd" d="M586.005 553.75C586.005 550.015 583.031 547 579.348 547C575.797 547 572.868 549.88 572.69 553.435H381.042L353.08 581.785H23V582.685H353.48L381.397 554.335H572.734C573.001 557.8 575.886 560.5 579.348 560.5C583.031 560.5 586.005 557.485 586.005 553.75ZM585.118 553.75C585.118 556.99 582.543 559.6 579.348 559.6C576.152 559.6 573.578 556.99 573.578 553.75C573.578 550.51 576.152 547.9 579.348 547.9C582.543 547.9 585.118 550.51 585.118 553.75Z" fill="#D32A39"/>
<path fill-rule="evenodd" clip-rule="evenodd" d="M35.8221 612.935C35.8221 616.67 38.7958 619.685 42.4796 619.685C45.8528 619.685 48.6046 617.165 49.0484 613.88V614.015H272.076L302.523 583.145H442.598V582.245H302.168L271.721 613.115H49.1372C49.1372 613.055 49.1372 612.995 49.1372 612.935C49.1372 609.2 46.1635 606.185 42.4796 606.185C38.7958 606.185 35.8221 609.2 35.8221 612.935ZM36.7098 612.935C36.7098 609.695 39.284 607.085 42.4796 607.085C45.6753 607.085 48.2495 609.695 48.2495 612.935C48.2495 616.175 45.6753 618.785 42.4796 618.785C39.284 618.785 36.7098 616.175 36.7098 612.935Z" fill="#D32A39"/>
<path fill-rule="evenodd" clip-rule="evenodd" d="M703.405 518.935C703.405 515.2 700.432 512.185 696.748 512.185C693.286 512.185 690.445 514.885 690.135 518.305H499.774L456.366 474.34H267.781V475.24H456.011L499.374 519.205H690.09C690.223 522.805 693.153 525.685 696.748 525.685C700.432 525.685 703.405 522.67 703.405 518.935ZM702.518 518.935C702.518 522.175 699.943 524.785 696.748 524.785C693.552 524.785 690.978 522.175 690.978 518.935C690.978 515.695 693.552 513.085 696.748 513.085C699.943 513.085 702.518 515.695 702.518 518.935Z" fill="#D32A39"/>
<path fill-rule="evenodd" clip-rule="evenodd" d="M180 492.935C180 496.67 182.973 499.685 186.657 499.685C190.208 499.685 193.137 496.805 193.315 493.25H384.963L412.925 464.9H743.005V464H412.525L384.608 492.35H193.27C193.004 488.885 190.119 486.185 186.657 486.185C182.973 486.185 180 489.2 180 492.935ZM180.887 492.935C180.887 489.695 183.462 487.085 186.657 487.085C189.853 487.085 192.427 489.695 192.427 492.935C192.427 496.175 189.853 498.785 186.657 498.785C183.462 498.785 180.887 496.175 180.887 492.935Z" fill="#D32A39"/>
<path fill-rule="evenodd" clip-rule="evenodd" d="M192.822 529.935C192.822 533.67 195.796 536.685 199.48 536.685C202.853 536.685 205.605 534.165 206.048 530.88V531.015H429.076L459.523 500.145H599.598V499.245H459.168L428.721 530.115H206.137C206.137 530.055 206.137 529.995 206.137 529.935C206.137 526.2 203.163 523.185 199.48 523.185C195.796 523.185 192.822 526.2 192.822 529.935ZM193.71 529.935C193.71 526.695 196.284 524.085 199.48 524.085C202.675 524.085 205.249 526.695 205.249 529.935C205.249 533.175 202.675 535.785 199.48 535.785C196.284 535.785 193.71 533.175 193.71 529.935Z" fill="#D32A39"/>
<path fill-rule="evenodd" clip-rule="evenodd" d="M523.405 412.935C523.405 409.2 520.432 406.185 516.748 406.185C513.286 406.185 510.445 408.885 510.135 412.305H319.774L276.366 368.34H87.7808V369.24H276.011L319.374 413.205H510.09C510.223 416.805 513.153 419.685 516.748 419.685C520.432 419.685 523.405 416.67 523.405 412.935ZM522.518 412.935C522.518 416.175 519.943 418.785 516.748 418.785C513.552 418.785 510.978 416.175 510.978 412.935C510.978 409.695 513.552 407.085 516.748 407.085C519.943 407.085 522.518 409.695 522.518 412.935Z" fill="#D32A39"/>
<path fill-rule="evenodd" clip-rule="evenodd" d="M563.005 364.75C563.005 361.015 560.031 358 556.348 358C552.797 358 549.868 360.88 549.69 364.435H358.042L330.08 392.785H0V393.685H330.48L358.397 365.335H549.734C550.001 368.8 552.886 371.5 556.348 371.5C560.031 371.5 563.005 368.485 563.005 364.75ZM562.118 364.75C562.118 367.99 559.543 370.6 556.348 370.6C553.152 370.6 550.578 367.99 550.578 364.75C550.578 361.51 553.152 358.9 556.348 358.9C559.543 358.9 562.118 361.51 562.118 364.75Z" fill="#D32A39"/>
<path fill-rule="evenodd" clip-rule="evenodd" d="M419.597 399.995C419.597 396.26 416.624 393.245 412.94 393.245C409.567 393.245 406.815 395.765 406.371 399.05V398.915H183.343L152.896 429.785H12.8218V430.685H153.251L183.699 399.815H406.282C406.282 399.875 406.282 399.935 406.282 399.995C406.282 403.73 409.256 406.745 412.94 406.745C416.624 406.745 419.597 403.73 419.597 399.995ZM418.71 399.995C418.71 403.235 416.135 405.845 412.94 405.845C409.744 405.845 407.17 403.235 407.17 399.995C407.17 396.755 409.744 394.145 412.94 394.145C416.135 394.145 418.71 396.755 418.71 399.995Z" fill="#D32A39"/>
<path fill-rule="evenodd" clip-rule="evenodd" d="M696.405 266.75C696.405 270.485 693.432 273.5 689.748 273.5C686.286 273.5 683.445 270.8 683.135 267.38H492.774L449.366 311.345H260.781V310.445H449.011L492.374 266.48H683.09C683.223 262.88 686.153 260 689.748 260C693.432 260 696.405 263.015 696.405 266.75ZM695.518 266.75C695.518 263.51 692.943 260.9 689.748 260.9C686.552 260.9 683.978 263.51 683.978 266.75C683.978 269.99 686.552 272.6 689.748 272.6C692.943 272.6 695.518 269.99 695.518 266.75Z" fill="#D32A39"/>
<path fill-rule="evenodd" clip-rule="evenodd" d="M736.005 314.935C736.005 318.67 733.031 321.685 729.348 321.685C725.797 321.685 722.868 318.805 722.69 315.25H531.042L503.08 286.9H173V286H503.48L531.397 314.35H722.734C723.001 310.885 725.886 308.185 729.348 308.185C733.031 308.185 736.005 311.2 736.005 314.935ZM735.118 314.935C735.118 311.695 732.543 309.085 729.348 309.085C726.152 309.085 723.578 311.695 723.578 314.935C723.578 318.175 726.152 320.785 729.348 320.785C732.543 320.785 735.118 318.175 735.118 314.935Z" fill="#D32A39"/>
<path fill-rule="evenodd" clip-rule="evenodd" d="M185.822 255.75C185.822 252.015 188.796 249 192.48 249C195.853 249 198.605 251.52 199.048 254.805V254.67H422.076L452.523 285.54H592.598V286.44H452.168L421.721 255.57H199.137C199.137 255.63 199.137 255.69 199.137 255.75C199.137 259.485 196.163 262.5 192.48 262.5C188.796 262.5 185.822 259.485 185.822 255.75ZM186.71 255.75C186.71 258.99 189.284 261.6 192.48 261.6C195.675 261.6 198.249 258.99 198.249 255.75C198.249 252.51 195.675 249.9 192.48 249.9C189.284 249.9 186.71 252.51 186.71 255.75Z" fill="#D32A39"/>
<path fill-rule="evenodd" clip-rule="evenodd" d="M527.405 240.935C527.405 237.2 524.432 234.185 520.748 234.185C517.286 234.185 514.445 236.885 514.135 240.305H323.774L280.366 196.34H91.7808V197.24H280.011L323.374 241.205H514.09C514.223 244.805 517.153 247.685 520.748 247.685C524.432 247.685 527.405 244.67 527.405 240.935ZM526.518 240.935C526.518 244.175 523.943 246.785 520.748 246.785C517.552 246.785 514.978 244.175 514.978 240.935C514.978 237.695 517.552 235.085 520.748 235.085C523.943 235.085 526.518 237.695 526.518 240.935Z" fill="#D32A39"/>
<path fill-rule="evenodd" clip-rule="evenodd" d="M3.99971 214.935C3.99971 218.67 6.9734 221.685 10.6572 221.685C14.2079 221.685 17.1372 218.805 17.3148 215.25H208.963L236.925 186.9H567.005V186H236.525L208.608 214.35H17.2704C17.0041 210.885 14.1192 208.185 10.6572 208.185C6.9734 208.185 3.99971 211.2 3.99971 214.935ZM4.88738 214.935C4.88738 211.695 7.46162 209.085 10.6572 209.085C13.8529 209.085 16.4271 211.695 16.4271 214.935C16.4271 218.175 13.8529 220.785 10.6572 220.785C7.46162 220.785 4.88738 218.175 4.88738 214.935Z" fill="#D32A39"/>
<path fill-rule="evenodd" clip-rule="evenodd" d="M16.8221 251.935C16.8221 255.67 19.7958 258.685 23.4796 258.685C26.8528 258.685 29.6046 256.165 30.0484 252.88V253.015H253.076L283.523 222.145H423.598V221.245H283.168L252.721 252.115H30.1372C30.1372 252.055 30.1372 251.995 30.1372 251.935C30.1372 248.2 27.1635 245.185 23.4796 245.185C19.7958 245.185 16.8221 248.2 16.8221 251.935ZM17.7098 251.935C17.7098 248.695 20.284 246.085 23.4796 246.085C26.6753 246.085 29.2495 248.695 29.2495 251.935C29.2495 255.175 26.6753 257.785 23.4796 257.785C20.284 257.785 17.7098 255.175 17.7098 251.935Z" fill="#D32A39"/>
<path fill-rule="evenodd" clip-rule="evenodd" d="M210.599 157.935C210.599 154.2 213.573 151.185 217.257 151.185C220.719 151.185 223.559 153.885 223.87 157.305H414.231L457.638 113.34H646.224V114.24H457.993L414.63 158.205H223.914C223.781 161.805 220.852 164.685 217.257 164.685C213.573 164.685 210.599 161.67 210.599 157.935ZM211.487 157.935C211.487 161.175 214.061 163.785 217.257 163.785C220.452 163.785 223.026 161.175 223.026 157.935C223.026 154.695 220.452 152.085 217.257 152.085C214.061 152.085 211.487 154.695 211.487 157.935Z" fill="#D32A39"/>
<path fill-rule="evenodd" clip-rule="evenodd" d="M171 109.75C171 106.015 173.973 103 177.657 103C181.208 103 184.137 105.88 184.315 109.435H375.963L403.925 137.785H734.005V138.685H403.525L375.608 110.335H184.27C184.004 113.8 181.119 116.5 177.657 116.5C173.973 116.5 171 113.485 171 109.75ZM171.887 109.75C171.887 112.99 174.462 115.6 177.657 115.6C180.853 115.6 183.427 112.99 183.427 109.75C183.427 106.51 180.853 103.9 177.657 103.9C174.462 103.9 171.887 106.51 171.887 109.75Z" fill="#D32A39"/>
<path fill-rule="evenodd" clip-rule="evenodd" d="M721.183 168.935C721.183 172.67 718.209 175.685 714.525 175.685C711.152 175.685 708.4 173.165 707.956 169.88V170.015H484.929L454.482 139.145H314.407V138.245H454.837L485.284 169.115H707.868C707.868 169.055 707.868 168.995 707.868 168.935C707.868 165.2 710.841 162.185 714.525 162.185C718.209 162.185 721.183 165.2 721.183 168.935ZM720.295 168.935C720.295 165.695 717.721 163.085 714.525 163.085C711.33 163.085 708.755 165.695 708.755 168.935C708.755 172.175 711.33 174.785 714.525 174.785C717.721 174.785 720.295 172.175 720.295 168.935Z" fill="#D32A39"/>
<path fill-rule="evenodd" clip-rule="evenodd" d="M604.405 60.9348C604.405 57.1998 601.432 54.1848 597.748 54.1848C594.286 54.1848 591.445 56.8848 591.135 60.3048H400.774L357.366 16.3398H168.781V17.2398H357.011L400.374 61.2048H591.09C591.223 64.8048 594.153 67.6848 597.748 67.6848C601.432 67.6848 604.405 64.6698 604.405 60.9348ZM603.518 60.9348C603.518 64.1748 600.943 66.7848 597.748 66.7848C594.552 66.7848 591.978 64.1748 591.978 60.9348C591.978 57.6948 594.552 55.0848 597.748 55.0848C600.943 55.0848 603.518 57.6948 603.518 60.9348Z" fill="#D32A39"/>
<path fill-rule="evenodd" clip-rule="evenodd" d="M644.005 12.7498C644.005 9.01479 641.031 5.99979 637.348 5.99979C633.797 5.99979 630.868 8.87982 630.69 12.4348H439.042L411.08 40.7848H81V41.6848H411.48L439.397 13.3348H630.734C631.001 16.7998 633.886 19.4998 637.348 19.4998C641.031 19.4998 644.005 16.4848 644.005 12.7498ZM643.118 12.7498C643.118 15.9898 640.543 18.5998 637.348 18.5998C634.152 18.5998 631.578 15.9898 631.578 12.7498C631.578 9.50979 634.152 6.89979 637.348 6.89979C640.543 6.89979 643.118 9.50979 643.118 12.7498Z" fill="#D32A39"/>
<path fill-rule="evenodd" clip-rule="evenodd" d="M93.8221 71.9349C93.8221 75.6699 96.7958 78.6849 100.48 78.6849C103.853 78.6849 106.605 76.1648 107.048 72.8798V73.0149H330.076L360.523 42.1449H500.598V41.2449H360.168L329.721 72.1149H107.137C107.137 72.0549 107.137 71.9949 107.137 71.9349C107.137 68.1999 104.163 65.1849 100.48 65.1849C96.7958 65.1849 93.8221 68.1999 93.8221 71.9349ZM94.7098 71.9349C94.7098 68.6949 97.284 66.0849 100.48 66.0849C103.675 66.0849 106.249 68.6949 106.249 71.9349C106.249 75.1749 103.675 77.7849 100.48 77.7849C97.284 77.7849 94.7098 75.1749 94.7098 71.9349Z" fill="#D32A39"/>
<path fill-rule="evenodd" clip-rule="evenodd" d="M536.405 112.935C536.405 109.2 533.432 106.185 529.748 106.185C526.286 106.185 523.445 108.885 523.135 112.305H332.774L289.366 68.3401H100.781V69.2401H289.011L332.374 113.205H523.09C523.223 116.805 526.153 119.685 529.748 119.685C533.432 119.685 536.405 116.67 536.405 112.935ZM535.518 112.935C535.518 116.175 532.943 118.785 529.748 118.785C526.552 118.785 523.978 116.175 523.978 112.935C523.978 109.695 526.552 107.085 529.748 107.085C532.943 107.085 535.518 109.695 535.518 112.935Z" fill="#D32A39"/>
<path fill-rule="evenodd" clip-rule="evenodd" d="M12.9997 64.75C12.9997 61.015 15.9734 58 19.6572 58C23.2079 58 26.1372 60.8801 26.3148 64.4351H217.963L245.925 92.7851H576.005V93.6851H245.525L217.608 65.3351H26.2704C26.0041 68.8001 23.1192 71.5 19.6572 71.5C15.9734 71.5 12.9997 68.485 12.9997 64.75ZM13.8874 64.75C13.8874 67.99 16.4616 70.6 19.6572 70.6C22.8529 70.6 25.4271 67.99 25.4271 64.75C25.4271 61.51 22.8529 58.9 19.6572 58.9C16.4616 58.9 13.8874 61.51 13.8874 64.75Z" fill="#D32A39"/>
<path fill-rule="evenodd" clip-rule="evenodd" d="M25.8221 123.935C25.8221 127.67 28.7958 130.685 32.4796 130.685C35.8528 130.685 38.6046 128.165 39.0484 124.88V125.015H262.076L292.523 94.1451H432.598V93.2451H292.168L261.721 124.115H39.1372C39.1372 124.055 39.1372 123.995 39.1372 123.935C39.1372 120.2 36.1635 117.185 32.4796 117.185C28.7958 117.185 25.8221 120.2 25.8221 123.935ZM26.7098 123.935C26.7098 120.695 29.284 118.085 32.4796 118.085C35.6753 118.085 38.2495 120.695 38.2495 123.935C38.2495 127.175 35.6753 129.785 32.4796 129.785C29.284 129.785 26.7098 127.175 26.7098 123.935Z" fill="#D32A39"/>
<path d="M72 2H40V34" stroke="#D32A39" stroke-width="3"/>
<path d="M685 34V2H653" stroke="#D32A39" stroke-width="3"/>
<path d="M40 784V816H72" stroke="#D32A39" stroke-width="3"/>
<path d="M653 816H685V784" stroke="#D32A39" stroke-width="3"/>
</svg>
