<svg width="743" height="863" viewBox="0 0 743 863" fill="none" xmlns="http://www.w3.org/2000/svg">
<path fill-rule="evenodd" clip-rule="evenodd" d="M139.599 844.935C139.599 841.2 142.573 838.185 146.257 838.185C149.719 838.185 152.559 840.885 152.87 844.305H343.231L386.638 800.34H575.224V801.24H386.993L343.63 845.205H152.914C152.781 848.805 149.852 851.685 146.257 851.685C142.573 851.685 139.599 848.67 139.599 844.935ZM140.487 844.935C140.487 848.175 143.061 850.785 146.257 850.785C149.452 850.785 152.026 848.175 152.026 844.935C152.026 841.695 149.452 839.085 146.257 839.085C143.061 839.085 140.487 841.695 140.487 844.935Z" fill="#D32A39"/>
<path fill-rule="evenodd" clip-rule="evenodd" d="M99.9997 796.75C99.9997 793.015 102.973 790 106.657 790C110.208 790 113.137 792.88 113.315 796.435H304.963L332.925 824.785H663.005V825.685H332.525L304.608 797.335H113.27C113.004 800.8 110.119 803.5 106.657 803.5C102.973 803.5 99.9997 800.485 99.9997 796.75ZM100.887 796.75C100.887 799.99 103.462 802.6 106.657 802.6C109.853 802.6 112.427 799.99 112.427 796.75C112.427 793.51 109.853 790.9 106.657 790.9C103.462 790.9 100.887 793.51 100.887 796.75Z" fill="#D32A39"/>
<path fill-rule="evenodd" clip-rule="evenodd" d="M650.183 855.935C650.183 859.67 647.209 862.685 643.525 862.685C640.152 862.685 637.4 860.165 636.956 856.88V857.015H413.929L383.482 826.145H243.407V825.245H383.837L414.284 856.115H636.868C636.868 856.055 636.868 855.995 636.868 855.935C636.868 852.2 639.841 849.185 643.525 849.185C647.209 849.185 650.183 852.2 650.183 855.935ZM649.295 855.935C649.295 852.695 646.721 850.085 643.525 850.085C640.33 850.085 637.755 852.695 637.755 855.935C637.755 859.175 640.33 861.785 643.525 861.785C646.721 861.785 649.295 859.175 649.295 855.935Z" fill="#D32A39"/>
<path fill-rule="evenodd" clip-rule="evenodd" d="M179.599 761.935C179.599 758.2 182.573 755.185 186.257 755.185C189.719 755.185 192.559 757.885 192.87 761.305H383.231L426.638 717.34H615.224V718.24H426.993L383.63 762.205H192.914C192.781 765.805 189.852 768.685 186.257 768.685C182.573 768.685 179.599 765.67 179.599 761.935ZM180.487 761.935C180.487 765.175 183.061 767.785 186.257 767.785C189.452 767.785 192.026 765.175 192.026 761.935C192.026 758.695 189.452 756.085 186.257 756.085C183.061 756.085 180.487 758.695 180.487 761.935Z" fill="#D32A39"/>
<path fill-rule="evenodd" clip-rule="evenodd" d="M140 713.75C140 710.015 142.973 707 146.657 707C150.208 707 153.137 709.88 153.315 713.435H344.963L372.925 741.785H703.005V742.685H372.525L344.608 714.335H153.27C153.004 717.8 150.119 720.5 146.657 720.5C142.973 720.5 140 717.485 140 713.75ZM140.887 713.75C140.887 716.99 143.462 719.6 146.657 719.6C149.853 719.6 152.427 716.99 152.427 713.75C152.427 710.51 149.853 707.9 146.657 707.9C143.462 707.9 140.887 710.51 140.887 713.75Z" fill="#D32A39"/>
<path fill-rule="evenodd" clip-rule="evenodd" d="M690.183 772.935C690.183 776.67 687.209 779.685 683.525 779.685C680.152 779.685 677.4 777.165 676.956 773.88V774.015H453.929L423.482 743.145H283.407V742.245H423.837L454.284 773.115H676.868C676.868 773.055 676.868 772.995 676.868 772.935C676.868 769.2 679.841 766.185 683.525 766.185C687.209 766.185 690.183 769.2 690.183 772.935ZM689.295 772.935C689.295 769.695 686.721 767.085 683.525 767.085C680.33 767.085 677.755 769.695 677.755 772.935C677.755 776.175 680.33 778.785 683.525 778.785C686.721 778.785 689.295 776.175 689.295 772.935Z" fill="#D32A39"/>
<path fill-rule="evenodd" clip-rule="evenodd" d="M696.405 678.935C696.405 675.2 693.432 672.185 689.748 672.185C686.286 672.185 683.445 674.885 683.135 678.305H492.774L449.366 634.34H260.781V635.24H449.011L492.374 679.205H683.09C683.223 682.805 686.153 685.685 689.748 685.685C693.432 685.685 696.405 682.67 696.405 678.935ZM695.518 678.935C695.518 682.175 692.943 684.785 689.748 684.785C686.552 684.785 683.978 682.175 683.978 678.935C683.978 675.695 686.552 673.085 689.748 673.085C692.943 673.085 695.518 675.695 695.518 678.935Z" fill="#D32A39"/>
<path fill-rule="evenodd" clip-rule="evenodd" d="M159 630.75C159 627.015 161.973 624 165.657 624C169.208 624 172.137 626.88 172.315 630.435H363.963L391.925 658.785H722.005V659.685H391.525L363.608 631.335H172.27C172.004 634.8 169.119 637.5 165.657 637.5C161.973 637.5 159 634.485 159 630.75ZM159.887 630.75C159.887 633.99 162.462 636.6 165.657 636.6C168.853 636.6 171.427 633.99 171.427 630.75C171.427 627.51 168.853 624.9 165.657 624.9C162.462 624.9 159.887 627.51 159.887 630.75Z" fill="#D32A39"/>
<path fill-rule="evenodd" clip-rule="evenodd" d="M185.822 689.935C185.822 693.67 188.796 696.685 192.48 696.685C195.853 696.685 198.605 694.165 199.048 690.88V691.015H422.076L452.523 660.145H592.598V659.245H452.168L421.721 690.115H199.137C199.137 690.055 199.137 689.995 199.137 689.935C199.137 686.2 196.163 683.185 192.48 683.185C188.796 683.185 185.822 686.2 185.822 689.935ZM186.71 689.935C186.71 686.695 189.284 684.085 192.48 684.085C195.675 684.085 198.249 686.695 198.249 689.935C198.249 693.175 195.675 695.785 192.48 695.785C189.284 695.785 186.71 693.175 186.71 689.935Z" fill="#D32A39"/>
<path fill-rule="evenodd" clip-rule="evenodd" d="M546.405 595.935C546.405 592.2 543.432 589.185 539.748 589.185C536.286 589.185 533.445 591.885 533.135 595.305H342.774L299.366 551.34H110.781V552.24H299.011L342.374 596.205H533.09C533.223 599.805 536.153 602.685 539.748 602.685C543.432 602.685 546.405 599.67 546.405 595.935ZM545.518 595.935C545.518 599.175 542.943 601.785 539.748 601.785C536.552 601.785 533.978 599.175 533.978 595.935C533.978 592.695 536.552 590.085 539.748 590.085C542.943 590.085 545.518 592.695 545.518 595.935Z" fill="#D32A39"/>
<path fill-rule="evenodd" clip-rule="evenodd" d="M586.005 547.75C586.005 544.015 583.031 541 579.348 541C575.797 541 572.868 543.88 572.69 547.435H381.042L353.08 575.785H23V576.685H353.48L381.397 548.335H572.734C573.001 551.8 575.886 554.5 579.348 554.5C583.031 554.5 586.005 551.485 586.005 547.75ZM585.118 547.75C585.118 550.99 582.543 553.6 579.348 553.6C576.152 553.6 573.578 550.99 573.578 547.75C573.578 544.51 576.152 541.9 579.348 541.9C582.543 541.9 585.118 544.51 585.118 547.75Z" fill="#D32A39"/>
<path fill-rule="evenodd" clip-rule="evenodd" d="M35.8221 606.935C35.8221 610.67 38.7958 613.685 42.4796 613.685C45.8528 613.685 48.6046 611.165 49.0484 607.88V608.015H272.076L302.523 577.145H442.598V576.245H302.168L271.721 607.115H49.1372C49.1372 607.055 49.1372 606.995 49.1372 606.935C49.1372 603.2 46.1635 600.185 42.4796 600.185C38.7958 600.185 35.8221 603.2 35.8221 606.935ZM36.7098 606.935C36.7098 603.695 39.284 601.085 42.4796 601.085C45.6753 601.085 48.2495 603.695 48.2495 606.935C48.2495 610.175 45.6753 612.785 42.4796 612.785C39.284 612.785 36.7098 610.175 36.7098 606.935Z" fill="#D32A39"/>
<path fill-rule="evenodd" clip-rule="evenodd" d="M703.405 512.935C703.405 509.2 700.432 506.185 696.748 506.185C693.286 506.185 690.445 508.885 690.135 512.305H499.774L456.366 468.34H267.781V469.24H456.011L499.374 513.205H690.09C690.223 516.805 693.153 519.685 696.748 519.685C700.432 519.685 703.405 516.67 703.405 512.935ZM702.518 512.935C702.518 516.175 699.943 518.785 696.748 518.785C693.552 518.785 690.978 516.175 690.978 512.935C690.978 509.695 693.552 507.085 696.748 507.085C699.943 507.085 702.518 509.695 702.518 512.935Z" fill="#D32A39"/>
<path fill-rule="evenodd" clip-rule="evenodd" d="M180 486.935C180 490.67 182.973 493.685 186.657 493.685C190.208 493.685 193.137 490.805 193.315 487.25H384.963L412.925 458.9H743.005V458H412.525L384.608 486.35H193.27C193.004 482.885 190.119 480.185 186.657 480.185C182.973 480.185 180 483.2 180 486.935ZM180.887 486.935C180.887 483.695 183.462 481.085 186.657 481.085C189.853 481.085 192.427 483.695 192.427 486.935C192.427 490.175 189.853 492.785 186.657 492.785C183.462 492.785 180.887 490.175 180.887 486.935Z" fill="#D32A39"/>
<path fill-rule="evenodd" clip-rule="evenodd" d="M192.822 523.935C192.822 527.67 195.796 530.685 199.48 530.685C202.853 530.685 205.605 528.165 206.048 524.88V525.015H429.076L459.523 494.145H599.598V493.245H459.168L428.721 524.115H206.137C206.137 524.055 206.137 523.995 206.137 523.935C206.137 520.2 203.163 517.185 199.48 517.185C195.796 517.185 192.822 520.2 192.822 523.935ZM193.71 523.935C193.71 520.695 196.284 518.085 199.48 518.085C202.675 518.085 205.249 520.695 205.249 523.935C205.249 527.175 202.675 529.785 199.48 529.785C196.284 529.785 193.71 527.175 193.71 523.935Z" fill="#D32A39"/>
<path fill-rule="evenodd" clip-rule="evenodd" d="M523.405 406.935C523.405 403.2 520.432 400.185 516.748 400.185C513.286 400.185 510.445 402.885 510.135 406.305H319.774L276.366 362.34H87.7808V363.24H276.011L319.374 407.205H510.09C510.223 410.805 513.153 413.685 516.748 413.685C520.432 413.685 523.405 410.67 523.405 406.935ZM522.518 406.935C522.518 410.175 519.943 412.785 516.748 412.785C513.552 412.785 510.978 410.175 510.978 406.935C510.978 403.695 513.552 401.085 516.748 401.085C519.943 401.085 522.518 403.695 522.518 406.935Z" fill="#D32A39"/>
<path fill-rule="evenodd" clip-rule="evenodd" d="M563.005 358.75C563.005 355.015 560.031 352 556.348 352C552.797 352 549.868 354.88 549.69 358.435H358.042L330.08 386.785H0V387.685H330.48L358.397 359.335H549.734C550.001 362.8 552.886 365.5 556.348 365.5C560.031 365.5 563.005 362.485 563.005 358.75ZM562.118 358.75C562.118 361.99 559.543 364.6 556.348 364.6C553.152 364.6 550.578 361.99 550.578 358.75C550.578 355.51 553.152 352.9 556.348 352.9C559.543 352.9 562.118 355.51 562.118 358.75Z" fill="#D32A39"/>
<path fill-rule="evenodd" clip-rule="evenodd" d="M419.597 393.995C419.597 390.26 416.624 387.245 412.94 387.245C409.567 387.245 406.815 389.765 406.371 393.05V392.915H183.343L152.896 423.785H12.8218V424.685H153.251L183.699 393.815H406.282C406.282 393.875 406.282 393.935 406.282 393.995C406.282 397.73 409.256 400.745 412.94 400.745C416.624 400.745 419.597 397.73 419.597 393.995ZM418.71 393.995C418.71 397.235 416.135 399.845 412.94 399.845C409.744 399.845 407.17 397.235 407.17 393.995C407.17 390.755 409.744 388.145 412.94 388.145C416.135 388.145 418.71 390.755 418.71 393.995Z" fill="#D32A39"/>
<path fill-rule="evenodd" clip-rule="evenodd" d="M696.405 260.75C696.405 264.485 693.432 267.5 689.748 267.5C686.286 267.5 683.445 264.8 683.135 261.38H492.774L449.366 305.345H260.781V304.445H449.011L492.374 260.48H683.09C683.223 256.88 686.153 254 689.748 254C693.432 254 696.405 257.015 696.405 260.75ZM695.518 260.75C695.518 257.51 692.943 254.9 689.748 254.9C686.552 254.9 683.978 257.51 683.978 260.75C683.978 263.99 686.552 266.6 689.748 266.6C692.943 266.6 695.518 263.99 695.518 260.75Z" fill="#D32A39"/>
<path fill-rule="evenodd" clip-rule="evenodd" d="M736.005 308.935C736.005 312.67 733.031 315.685 729.348 315.685C725.797 315.685 722.868 312.805 722.69 309.25H531.042L503.08 280.9H173V280H503.48L531.397 308.35H722.734C723.001 304.885 725.886 302.185 729.348 302.185C733.031 302.185 736.005 305.2 736.005 308.935ZM735.118 308.935C735.118 305.695 732.543 303.085 729.348 303.085C726.152 303.085 723.578 305.695 723.578 308.935C723.578 312.175 726.152 314.785 729.348 314.785C732.543 314.785 735.118 312.175 735.118 308.935Z" fill="#D32A39"/>
<path fill-rule="evenodd" clip-rule="evenodd" d="M185.822 249.75C185.822 246.015 188.796 243 192.48 243C195.853 243 198.605 245.52 199.048 248.805V248.67H422.076L452.523 279.54H592.598V280.44H452.168L421.721 249.57H199.137C199.137 249.63 199.137 249.69 199.137 249.75C199.137 253.485 196.163 256.5 192.48 256.5C188.796 256.5 185.822 253.485 185.822 249.75ZM186.71 249.75C186.71 252.99 189.284 255.6 192.48 255.6C195.675 255.6 198.249 252.99 198.249 249.75C198.249 246.51 195.675 243.9 192.48 243.9C189.284 243.9 186.71 246.51 186.71 249.75Z" fill="#D32A39"/>
<path fill-rule="evenodd" clip-rule="evenodd" d="M527.405 234.935C527.405 231.2 524.432 228.185 520.748 228.185C517.286 228.185 514.445 230.885 514.135 234.305H323.774L280.366 190.34H91.7808V191.24H280.011L323.374 235.205H514.09C514.223 238.805 517.153 241.685 520.748 241.685C524.432 241.685 527.405 238.67 527.405 234.935ZM526.518 234.935C526.518 238.175 523.943 240.785 520.748 240.785C517.552 240.785 514.978 238.175 514.978 234.935C514.978 231.695 517.552 229.085 520.748 229.085C523.943 229.085 526.518 231.695 526.518 234.935Z" fill="#D32A39"/>
<path fill-rule="evenodd" clip-rule="evenodd" d="M3.99971 208.935C3.99971 212.67 6.9734 215.685 10.6572 215.685C14.2079 215.685 17.1372 212.805 17.3148 209.25H208.963L236.925 180.9H567.005V180H236.525L208.608 208.35H17.2704C17.0041 204.885 14.1192 202.185 10.6572 202.185C6.9734 202.185 3.99971 205.2 3.99971 208.935ZM4.88738 208.935C4.88738 205.695 7.46162 203.085 10.6572 203.085C13.8529 203.085 16.4271 205.695 16.4271 208.935C16.4271 212.175 13.8529 214.785 10.6572 214.785C7.46162 214.785 4.88738 212.175 4.88738 208.935Z" fill="#D32A39"/>
<path fill-rule="evenodd" clip-rule="evenodd" d="M16.8221 245.935C16.8221 249.67 19.7958 252.685 23.4796 252.685C26.8528 252.685 29.6046 250.165 30.0484 246.88V247.015H253.076L283.523 216.145H423.598V215.245H283.168L252.721 246.115H30.1372C30.1372 246.055 30.1372 245.995 30.1372 245.935C30.1372 242.2 27.1635 239.185 23.4796 239.185C19.7958 239.185 16.8221 242.2 16.8221 245.935ZM17.7098 245.935C17.7098 242.695 20.284 240.085 23.4796 240.085C26.6753 240.085 29.2495 242.695 29.2495 245.935C29.2495 249.175 26.6753 251.785 23.4796 251.785C20.284 251.785 17.7098 249.175 17.7098 245.935Z" fill="#D32A39"/>
<path fill-rule="evenodd" clip-rule="evenodd" d="M210.599 151.935C210.599 148.2 213.573 145.185 217.257 145.185C220.719 145.185 223.559 147.885 223.87 151.305H414.231L457.638 107.34H646.224V108.24H457.993L414.63 152.205H223.914C223.781 155.805 220.852 158.685 217.257 158.685C213.573 158.685 210.599 155.67 210.599 151.935ZM211.487 151.935C211.487 155.175 214.061 157.785 217.257 157.785C220.452 157.785 223.026 155.175 223.026 151.935C223.026 148.695 220.452 146.085 217.257 146.085C214.061 146.085 211.487 148.695 211.487 151.935Z" fill="#D32A39"/>
<path fill-rule="evenodd" clip-rule="evenodd" d="M171 103.75C171 100.015 173.973 97 177.657 97C181.208 97 184.137 99.8801 184.315 103.435H375.963L403.925 131.785H734.005V132.685H403.525L375.608 104.335H184.27C184.004 107.8 181.119 110.5 177.657 110.5C173.973 110.5 171 107.485 171 103.75ZM171.887 103.75C171.887 106.99 174.462 109.6 177.657 109.6C180.853 109.6 183.427 106.99 183.427 103.75C183.427 100.51 180.853 97.9 177.657 97.9C174.462 97.9 171.887 100.51 171.887 103.75Z" fill="#D32A39"/>
<path fill-rule="evenodd" clip-rule="evenodd" d="M721.183 162.935C721.183 166.67 718.209 169.685 714.525 169.685C711.152 169.685 708.4 167.165 707.956 163.88V164.015H484.929L454.482 133.145H314.407V132.245H454.837L485.284 163.115H707.868C707.868 163.055 707.868 162.995 707.868 162.935C707.868 159.2 710.841 156.185 714.525 156.185C718.209 156.185 721.183 159.2 721.183 162.935ZM720.295 162.935C720.295 159.695 717.721 157.085 714.525 157.085C711.33 157.085 708.755 159.695 708.755 162.935C708.755 166.175 711.33 168.785 714.525 168.785C717.721 168.785 720.295 166.175 720.295 162.935Z" fill="#D32A39"/>
<path fill-rule="evenodd" clip-rule="evenodd" d="M604.405 54.9348C604.405 51.1998 601.432 48.1848 597.748 48.1848C594.286 48.1848 591.445 50.8848 591.135 54.3048H400.774L357.366 10.3398H168.781V11.2398H357.011L400.374 55.2048H591.09C591.223 58.8048 594.153 61.6848 597.748 61.6848C601.432 61.6848 604.405 58.6698 604.405 54.9348ZM603.518 54.9348C603.518 58.1748 600.943 60.7848 597.748 60.7848C594.552 60.7848 591.978 58.1748 591.978 54.9348C591.978 51.6948 594.552 49.0848 597.748 49.0848C600.943 49.0848 603.518 51.6948 603.518 54.9348Z" fill="#D32A39"/>
<path fill-rule="evenodd" clip-rule="evenodd" d="M644.005 6.74979C644.005 3.01479 641.031 -0.000206574 637.348 -0.000206574C633.797 -0.000206574 630.868 2.87982 630.69 6.43482H439.042L411.08 34.7848H81V35.6848H411.48L439.397 7.33482H630.734C631.001 10.7998 633.886 13.4998 637.348 13.4998C641.031 13.4998 644.005 10.4848 644.005 6.74979ZM643.118 6.74979C643.118 9.98979 640.543 12.5998 637.348 12.5998C634.152 12.5998 631.578 9.98979 631.578 6.74979C631.578 3.50979 634.152 0.899793 637.348 0.899793C640.543 0.899793 643.118 3.50979 643.118 6.74979Z" fill="#D32A39"/>
<path fill-rule="evenodd" clip-rule="evenodd" d="M93.8221 65.9349C93.8221 69.6699 96.7958 72.6849 100.48 72.6849C103.853 72.6849 106.605 70.1648 107.048 66.8798V67.0149H330.076L360.523 36.1449H500.598V35.2449H360.168L329.721 66.1149H107.137C107.137 66.0549 107.137 65.9949 107.137 65.9349C107.137 62.1999 104.163 59.1849 100.48 59.1849C96.7958 59.1849 93.8221 62.1999 93.8221 65.9349ZM94.7098 65.9349C94.7098 62.6949 97.284 60.0849 100.48 60.0849C103.675 60.0849 106.249 62.6949 106.249 65.9349C106.249 69.1749 103.675 71.7849 100.48 71.7849C97.284 71.7849 94.7098 69.1749 94.7098 65.9349Z" fill="#D32A39"/>
<path fill-rule="evenodd" clip-rule="evenodd" d="M536.405 106.935C536.405 103.2 533.432 100.185 529.748 100.185C526.286 100.185 523.445 102.885 523.135 106.305H332.774L289.366 62.3401H100.781V63.2401H289.011L332.374 107.205H523.09C523.223 110.805 526.153 113.685 529.748 113.685C533.432 113.685 536.405 110.67 536.405 106.935ZM535.518 106.935C535.518 110.175 532.943 112.785 529.748 112.785C526.552 112.785 523.978 110.175 523.978 106.935C523.978 103.695 526.552 101.085 529.748 101.085C532.943 101.085 535.518 103.695 535.518 106.935Z" fill="#D32A39"/>
<path fill-rule="evenodd" clip-rule="evenodd" d="M12.9997 58.75C12.9997 55.015 15.9734 52 19.6572 52C23.2079 52 26.1372 54.8801 26.3148 58.4351H217.963L245.925 86.7851H576.005V87.6851H245.525L217.608 59.3351H26.2704C26.0041 62.8001 23.1192 65.5 19.6572 65.5C15.9734 65.5 12.9997 62.485 12.9997 58.75ZM13.8874 58.75C13.8874 61.99 16.4616 64.6 19.6572 64.6C22.8529 64.6 25.4271 61.99 25.4271 58.75C25.4271 55.51 22.8529 52.9 19.6572 52.9C16.4616 52.9 13.8874 55.51 13.8874 58.75Z" fill="#D32A39"/>
<path fill-rule="evenodd" clip-rule="evenodd" d="M25.8221 117.935C25.8221 121.67 28.7958 124.685 32.4796 124.685C35.8528 124.685 38.6046 122.165 39.0484 118.88V119.015H262.076L292.523 88.1451H432.598V87.2451H292.168L261.721 118.115H39.1372C39.1372 118.055 39.1372 117.995 39.1372 117.935C39.1372 114.2 36.1635 111.185 32.4796 111.185C28.7958 111.185 25.8221 114.2 25.8221 117.935ZM26.7098 117.935C26.7098 114.695 29.284 112.085 32.4796 112.085C35.6753 112.085 38.2495 114.695 38.2495 117.935C38.2495 121.175 35.6753 123.785 32.4796 123.785C29.284 123.785 26.7098 121.175 26.7098 117.935Z" fill="#D32A39"/>
</svg>
