<svg width="1440" height="800" viewBox="0 0 1440 800" fill="none" xmlns="http://www.w3.org/2000/svg">
<rect width="1440" height="800" fill="#0E2108" fill-opacity="0.8"/>
<g clip-path="url(#clip0_0_1)">
<rect width="1440" height="800" fill="#0B0B0F"/>
<g opacity="0.18" filter="url(#filter0_f_0_1)">
<ellipse cx="1166.5" cy="730" rx="244.5" ry="30" fill="#02D7F2"/>
</g>
<path fill-rule="evenodd" clip-rule="evenodd" d="M885.957 710.587C885.957 714.322 882.984 717.337 879.3 717.337C875.838 717.337 872.997 714.637 872.687 711.217H682.326L638.919 755.182H450.333V754.282H638.563L681.926 710.317H872.642C872.775 706.717 875.705 703.837 879.3 703.837C882.984 703.837 885.957 706.852 885.957 710.587ZM885.07 710.587C885.07 707.347 882.495 704.737 879.3 704.737C876.104 704.737 873.53 707.347 873.53 710.587C873.53 713.827 876.104 716.437 879.3 716.437C882.495 716.437 885.07 713.827 885.07 710.587Z" fill="#02D7F2"/>
<path fill-rule="evenodd" clip-rule="evenodd" d="M925.557 758.772C925.557 762.507 922.583 765.522 918.9 765.522C915.349 765.522 912.42 762.642 912.242 759.087H720.594L692.632 730.737H362.552V729.837H693.032L720.949 758.187H912.286C912.553 754.722 915.438 752.022 918.9 752.022C922.583 752.022 925.557 755.037 925.557 758.772ZM924.669 758.772C924.669 755.532 922.095 752.922 918.9 752.922C915.704 752.922 913.13 755.532 913.13 758.772C913.13 762.012 915.704 764.622 918.9 764.622C922.095 764.622 924.669 762.012 924.669 758.772Z" fill="#02D7F2"/>
<path fill-rule="evenodd" clip-rule="evenodd" d="M375.374 699.587C375.374 695.852 378.348 692.837 382.031 692.837C385.405 692.837 388.156 695.357 388.6 698.642V698.507H611.628L642.075 729.377H782.149V730.277H641.72L611.273 699.407H388.689C388.689 699.467 388.689 699.527 388.689 699.587C388.689 703.322 385.715 706.337 382.031 706.337C378.348 706.337 375.374 703.322 375.374 699.587ZM376.262 699.587C376.262 702.827 378.836 705.437 382.031 705.437C385.227 705.437 387.801 702.827 387.801 699.587C387.801 696.347 385.227 693.737 382.031 693.737C378.836 693.737 376.262 696.347 376.262 699.587Z" fill="#02D7F2"/>
<path fill-rule="evenodd" clip-rule="evenodd" d="M637.087 798.675C633.403 798.675 630.429 795.66 630.429 791.925C630.429 788.415 633.092 785.535 636.465 785.22V592.215L593.103 548.205V357H593.99V547.845L637.353 591.81V785.175C640.904 785.31 643.744 788.28 643.744 791.925C643.744 795.66 640.77 798.675 637.087 798.675ZM637.087 797.775C640.282 797.775 642.857 795.165 642.857 791.925C642.857 788.685 640.282 786.075 637.087 786.075C633.891 786.075 631.317 788.685 631.317 791.925C631.317 795.165 633.891 797.775 637.087 797.775Z" fill="#02D7F2"/>
<path fill-rule="evenodd" clip-rule="evenodd" d="M589.562 838.825C585.878 838.825 582.904 835.81 582.904 832.075C582.904 828.475 585.745 825.505 589.251 825.325V631.015L617.213 602.665V268H618.1V603.07L590.139 631.375V825.37C593.556 825.64 596.219 828.565 596.219 832.075C596.219 835.81 593.245 838.825 589.562 838.825ZM589.562 837.925C592.757 837.925 595.332 835.315 595.332 832.075C595.332 828.835 592.757 826.225 589.562 826.225C586.366 826.225 583.792 828.835 583.792 832.075C583.792 835.315 586.366 837.925 589.562 837.925Z" fill="#02D7F2"/>
<path fill-rule="evenodd" clip-rule="evenodd" d="M647.936 281C651.62 281 654.594 284.015 654.594 287.75C654.594 291.17 652.108 293.96 648.868 294.41H649.001V520.535L618.554 551.405V693.425H617.666V551.045L648.114 520.175V294.5C648.054 294.5 647.995 294.5 647.936 294.5C644.252 294.5 641.278 291.485 641.278 287.75C641.278 284.015 644.252 281 647.936 281ZM647.936 281.9C644.74 281.9 642.166 284.51 642.166 287.75C642.166 290.99 644.74 293.6 647.936 293.6C651.132 293.6 653.706 290.99 653.706 287.75C653.706 284.51 651.132 281.9 647.936 281.9Z" fill="#02D7F2"/>
<path fill-rule="evenodd" clip-rule="evenodd" d="M255.205 788.675C258.889 788.675 261.863 785.66 261.863 781.925C261.863 778.415 259.2 775.535 255.827 775.22V582.215L299.19 538.205V347H298.302V537.845L254.939 581.81V775.175C251.389 775.31 248.548 778.28 248.548 781.925C248.548 785.66 251.522 788.675 255.205 788.675ZM255.205 787.775C252.01 787.775 249.436 785.165 249.436 781.925C249.436 778.685 252.01 776.075 255.205 776.075C258.401 776.075 260.975 778.685 260.975 781.925C260.975 785.165 258.401 787.775 255.205 787.775Z" fill="#02D7F2"/>
<path fill-rule="evenodd" clip-rule="evenodd" d="M302.73 828.825C306.414 828.825 309.388 825.81 309.388 822.075C309.388 818.475 306.547 815.505 303.041 815.325V621.015L275.079 592.665V258H274.192V593.07L302.153 621.375V815.37C298.736 815.64 296.073 818.565 296.073 822.075C296.073 825.81 299.047 828.825 302.73 828.825ZM302.73 827.925C299.535 827.925 296.961 825.315 296.961 822.075C296.961 818.835 299.535 816.225 302.73 816.225C305.926 816.225 308.5 818.835 308.5 822.075C308.5 825.315 305.926 827.925 302.73 827.925Z" fill="#02D7F2"/>
<path fill-rule="evenodd" clip-rule="evenodd" d="M244.356 271C240.672 271 237.699 274.015 237.699 277.75C237.699 281.17 240.184 283.96 243.424 284.41H243.291V510.535L273.738 541.405V683.425H274.626V541.045L244.179 510.175V284.5C244.238 284.5 244.297 284.5 244.356 284.5C248.04 284.5 251.014 281.485 251.014 277.75C251.014 274.015 248.04 271 244.356 271ZM244.356 271.9C247.552 271.9 250.126 274.51 250.126 277.75C250.126 280.99 247.552 283.6 244.356 283.6C241.161 283.6 238.586 280.99 238.586 277.75C238.586 274.51 241.161 271.9 244.356 271.9Z" fill="#02D7F2"/>
<path fill-rule="evenodd" clip-rule="evenodd" d="M347.499 200.935C347.499 197.2 350.472 194.185 354.156 194.185C357.618 194.185 360.459 196.885 360.769 200.305H551.13L594.538 156.34H783.123V157.24H594.893L551.53 201.205H360.814C360.681 204.805 357.751 207.685 354.156 207.685C350.472 207.685 347.499 204.67 347.499 200.935ZM348.386 200.935C348.386 204.175 350.961 206.785 354.156 206.785C357.352 206.785 359.926 204.175 359.926 200.935C359.926 197.695 357.352 195.085 354.156 195.085C350.961 195.085 348.386 197.695 348.386 200.935Z" fill="#02D7F2"/>
<path fill-rule="evenodd" clip-rule="evenodd" d="M307.899 152.75C307.899 149.015 310.873 146 314.556 146C318.107 146 321.036 148.88 321.214 152.435H512.862L540.824 180.785H870.904V181.685H540.424L512.507 153.335H321.17C320.903 156.8 318.018 159.5 314.556 159.5C310.873 159.5 307.899 156.485 307.899 152.75ZM308.787 152.75C308.787 155.99 311.361 158.6 314.556 158.6C317.752 158.6 320.326 155.99 320.326 152.75C320.326 149.51 317.752 146.9 314.556 146.9C311.361 146.9 308.787 149.51 308.787 152.75Z" fill="#02D7F2"/>
<path fill-rule="evenodd" clip-rule="evenodd" d="M858.082 211.935C858.082 215.67 855.109 218.685 851.425 218.685C848.052 218.685 845.3 216.165 844.856 212.88V213.015H621.828L591.381 182.145H451.307V181.245H591.736L622.183 212.115H844.767C844.767 212.055 844.767 211.995 844.767 211.935C844.767 208.2 847.741 205.185 851.425 205.185C855.109 205.185 858.082 208.2 858.082 211.935ZM857.195 211.935C857.195 208.695 854.62 206.085 851.425 206.085C848.229 206.085 845.655 208.695 845.655 211.935C845.655 215.175 848.229 217.785 851.425 217.785C854.62 217.785 857.195 215.175 857.195 211.935Z" fill="#02D7F2"/>
<path fill-rule="evenodd" clip-rule="evenodd" d="M-77.5971 551.935C-77.5971 548.2 -74.6234 545.185 -70.9396 545.185C-67.4777 545.185 -64.6371 547.885 -64.3264 551.305H126.035L169.442 507.34H358.027V508.24H169.797L126.434 552.205H-64.282C-64.4152 555.805 -67.3445 558.685 -70.9396 558.685C-74.6234 558.685 -77.5971 555.67 -77.5971 551.935ZM-76.7094 551.935C-76.7094 555.175 -74.1352 557.785 -70.9396 557.785C-67.744 557.785 -65.1697 555.175 -65.1697 551.935C-65.1697 548.695 -67.744 546.085 -70.9396 546.085C-74.1352 546.085 -76.7094 548.695 -76.7094 551.935Z" fill="#02D7F2"/>
<path fill-rule="evenodd" clip-rule="evenodd" d="M-117.197 503.75C-117.197 500.015 -114.223 497 -110.539 497C-106.989 497 -104.059 499.88 -103.882 503.435H87.7662L115.728 531.785H445.808V532.685H115.328L87.4112 504.335H-103.926C-104.193 507.8 -107.078 510.5 -110.539 510.5C-114.223 510.5 -117.197 507.485 -117.197 503.75ZM-116.309 503.75C-116.309 506.99 -113.735 509.6 -110.539 509.6C-107.344 509.6 -104.77 506.99 -104.77 503.75C-104.77 500.51 -107.344 497.9 -110.539 497.9C-113.735 497.9 -116.309 500.51 -116.309 503.75Z" fill="#02D7F2"/>
<path fill-rule="evenodd" clip-rule="evenodd" d="M432.987 562.935C432.987 566.67 430.013 569.685 426.329 569.685C422.956 569.685 420.204 567.165 419.76 563.88V564.015H196.733L166.286 533.145H26.2112V532.245H166.641L197.088 563.115H419.672C419.672 563.055 419.672 562.995 419.672 562.935C419.672 559.2 422.645 556.185 426.329 556.185C430.013 556.185 432.987 559.2 432.987 562.935ZM432.099 562.935C432.099 559.695 429.525 557.085 426.329 557.085C423.134 557.085 420.559 559.695 420.559 562.935C420.559 566.175 423.134 568.785 426.329 568.785C429.525 568.785 432.099 566.175 432.099 562.935Z" fill="#02D7F2"/>
<path fill-rule="evenodd" clip-rule="evenodd" d="M75.5705 237.325C71.8867 237.325 68.913 240.34 68.913 244.075C68.913 247.585 71.576 250.465 74.9491 250.78V443.785L31.5864 487.795V679H32.4741V488.155L75.8368 444.19V250.825C79.3875 250.69 82.2281 247.72 82.2281 244.075C82.2281 240.34 79.2544 237.325 75.5705 237.325ZM75.5705 238.225C78.7661 238.225 81.3404 240.835 81.3404 244.075C81.3404 247.315 78.7661 249.925 75.5705 249.925C72.3749 249.925 69.8007 247.315 69.8007 244.075C69.8007 240.835 72.3749 238.225 75.5705 238.225Z" fill="#02D7F2"/>
<path fill-rule="evenodd" clip-rule="evenodd" d="M28.0455 197.175C24.3617 197.175 21.388 200.19 21.388 203.925C21.388 207.525 24.2286 210.495 27.7349 210.675V404.985L55.6965 433.335V768H56.5842V432.93L28.6225 404.625V210.63C32.0401 210.36 34.7031 207.435 34.7031 203.925C34.7031 200.19 31.7294 197.175 28.0455 197.175ZM28.0455 198.075C31.2411 198.075 33.8154 200.685 33.8154 203.925C33.8154 207.165 31.2411 209.775 28.0455 209.775C24.8499 209.775 22.2757 207.165 22.2757 203.925C22.2757 200.685 24.8499 198.075 28.0455 198.075Z" fill="#02D7F2"/>
<path fill-rule="evenodd" clip-rule="evenodd" d="M86.4199 755C90.1037 755 93.0774 751.985 93.0774 748.25C93.0774 744.83 90.5919 742.04 87.3519 741.59H87.4851V515.465L57.0379 484.595V342.575H56.1503V484.955L86.5974 515.825V741.5C86.5382 741.5 86.479 741.5 86.4199 741.5C82.736 741.5 79.7623 744.515 79.7623 748.25C79.7623 751.985 82.736 755 86.4199 755ZM86.4199 754.1C83.2242 754.1 80.65 751.49 80.65 748.25C80.65 745.01 83.2242 742.4 86.4199 742.4C89.6155 742.4 92.1897 745.01 92.1897 748.25C92.1897 751.49 89.6155 754.1 86.4199 754.1Z" fill="#02D7F2"/>
</g>
<defs>
<filter id="filter0_f_0_1" x="763.6" y="541.6" width="805.8" height="376.8" filterUnits="userSpaceOnUse" color-interpolation-filters="sRGB">
<feFlood flood-opacity="0" result="BackgroundImageFix"/>
<feBlend mode="normal" in="SourceGraphic" in2="BackgroundImageFix" result="shape"/>
<feGaussianBlur stdDeviation="79.2" result="effect1_foregroundBlur_0_1"/>
</filter>
<clipPath id="clip0_0_1">
<rect width="1440" height="800" fill="white"/>
</clipPath>
</defs>
</svg>
