<svg width="268" height="89" viewBox="0 0 268 89" fill="none" xmlns="http://www.w3.org/2000/svg">
<path fill-rule="evenodd" clip-rule="evenodd" d="M0.0830956 11.3336V77.9835L7.8468 85.7472H201.153L208.998 77.9026L220.69 66.2224H246.707C246.707 66.2224 267.699 87.0873 267.699 87.4801V79.1619L245.124 56.5871V14.9959L232.647 2.51855H8.88658L0.0830956 11.3336ZM232.555 2.74962L244.893 15.0999V56.6911L244.963 56.7489L267.48 79.2659V86.8447C267.041 86.3595 266.209 85.493 264.591 83.8409C262.847 82.0502 260.421 79.6009 257.371 76.5393C252.183 71.3404 246.927 66.1069 246.881 66.0607L246.811 65.9913H220.597L220.528 66.0607L208.848 77.7409L201.061 85.5277H7.96234L0.314158 77.8795V11.426L9.00211 2.74962H232.555Z" fill="#02D7F2"/>
<path d="M259.576 87.7229L244.094 72.2302H223.276L212.127 83.379V87.9771H259.841L259.576 87.7229Z" stroke="#02D7F2" stroke-width="2" stroke-miterlimit="10"/>
<g opacity="0.1">
<path d="M267.699 87.4801V79.1619L245.124 56.5871V14.9959L232.647 2.51855H8.8866L0.0830994 11.3336V77.9835L7.8468 85.7472H201.153L208.998 77.9026L220.69 66.2224H246.707C246.707 66.2224 267.699 87.0873 267.699 87.4801Z" fill="#02D7F2"/>
</g>
<g opacity="0.1">
<path d="M259.576 87.7229L244.094 72.2302H223.276L212.127 83.379V87.9771H259.841L259.576 87.7229Z" fill="#02D7F2"/>
</g>
<path opacity="0.1" d="M67.2623 2.71507L62.3175 7.67136H16.7636L8.83822 15.5968V75.0029L15.5737 81.7384H108.264L112.423 85.8975H7.84464L9.15397e-05 78.0529V11.3337L8.84973 2.48401C8.84973 2.48401 67.5626 3.01545 67.2623 2.71507Z" fill="#02D7F2"/>
<path opacity="0.1" d="M238.884 72.438L241.16 74.7139H243.933L252.343 83.1246L249.328 86.1515H228.775L226.926 88H259.841L244.083 72.2416L238.884 72.438Z" fill="#02D7F2"/>
<path opacity="0.1" d="M167.486 2.91147L171.933 7.37097H228.278L239.924 19.005V55.8016L235.684 60.0301H214.622L188.905 85.7358H201.151L220.676 66.211H246.705L267.836 87.3416V79.162L245.192 56.5179V14.996L232.68 2.48401C232.68 2.48401 167.081 2.51866 167.486 2.91147Z" fill="#02D7F2"/>
<path d="M265.525 77.3327V84.9592L264.151 83.5675V75.8655L265.525 77.3327Z" fill="#02D7F2"/>
<path d="M263.215 74.7424V82.5507L261.672 81.1962V73.3082L263.215 74.7424Z" fill="#02D7F2"/>
<path d="M260.134 71.6216V79.5354L258.757 78.1606L258.591 70.0889L260.134 71.6216Z" fill="#02D7F2"/>
<path d="M257.592 69.08V77.0055L256.227 75.6306L256.088 67.5857L257.592 69.08Z" fill="#02D7F2"/>
<path d="M255.062 66.5382V74.4636L253.688 73.0888L253.395 65.0825L255.062 66.5382Z" fill="#02D7F2"/>
<path d="M245.053 30.1767L247.133 28.0972V10.5711L236.55 0H206.165L204.976 1.18996H197.986L196.53 2.64566H232.772L245.157 15.0306C245.157 15.0306 245.25 30.1767 245.053 30.1767Z" fill="#02D7F2"/>
<path d="M6.33105 2.65747L0.0916204 8.89615V2.6228L6.33105 2.65747Z" fill="#02D7F2"/>
<path d="M0.127276 67.4819L4.52902 71.8837V75.6962L12.7779 83.9451H74.1018L75.8232 85.6665H7.84478L0.115768 77.9375C0.115768 77.9375 0.127276 67.2855 0.127276 67.4819Z" fill="#02D7F2"/>
<path d="M117.519 2.71529L116.259 3.98613H54.2423L52.6479 5.58045H23.6496L22.1361 4.07854H16.5098L14.9501 2.50732L117.519 2.71529Z" fill="#02D7F2"/>
</svg>
