<svg width="1315" height="176" viewBox="0 0 1315 176" fill="none" xmlns="http://www.w3.org/2000/svg">
<rect width="1306" height="154" transform="translate(6 2)" fill="#40F4FF" fill-opacity="0.1"/>
<path d="M1314.4 84.24L1308.64 78.45V27L1293.58 11.91V7.19998L1291 4.58999H1223.62L1219 -1.9393e-05H1308.22L1314.67 6.44998L1314.4 84.24Z" fill="#02D7F2"/>
<path d="M840 2H436" stroke="#4DAFFF" stroke-width="2" stroke-miterlimit="10"/>
<path d="M0.0360022 105.466L0 172.606L13.644 161.41C13.644 153.106 13.644 144.802 13.644 136.498L6.3 128.722C6.336 118.678 6.336 109.246 6.336 98.2664L0.0360022 105.466Z" fill="#65F2FC"/>
<path d="M2.88281 175.63L121.935 175.594L107.607 164.686L15.9508 164.65L2.88281 175.63Z" fill="#65F2FC"/>
</svg>
