<svg width="381" height="159" viewBox="0 0 381 159" fill="none" xmlns="http://www.w3.org/2000/svg">
<rect x="11" y="11" width="358" height="136" rx="8" fill="#02D7F2" fill-opacity="0.1"/>
<path d="M10.3515 34.6496H12.1515V12.1496H225.542V10.3496H10.3515V34.6496Z" fill="#5CF4FF"/>
<path d="M-0.000225074 28.62H5.39977V5.4H28.5298V0H-0.000225074V28.62Z" fill="#5CF4FF"/>
<path d="M52.7395 5.4H129.959V0H52.7395V5.4Z" fill="#5CF4FF"/>
<path d="M164.882 25.2901H198.182L211.592 11.8801L210.332 10.6201L197.462 23.4901H165.602L152.822 10.6201L151.562 11.8801L164.882 25.2901Z" fill="#5CF4FF"/>
<path d="M155 148.3H370.19V124H368.39V146.5H155V148.3Z" fill="#5CF4FF"/>
<path d="M351.922 158.65H380.542V130.03H375.142V153.25H351.922V158.65Z" fill="#5CF4FF"/>
<path d="M250.579 158.65H327.799V153.25H250.579V158.65Z" fill="#5CF4FF"/>
<path fill-rule="evenodd" clip-rule="evenodd" d="M158.601 148.12L259.581 148.03L236.271 124.63H182.001L158.601 148.12ZM255.261 146.23L163.011 146.32L182.811 126.52H235.551L255.261 146.23Z" fill="#5CF4FF"/>
<path d="M235.91 126.43H338.42V124.63H235.91V126.43Z" fill="#5CF4FF"/>
</svg>
