<svg width="181" height="61" viewBox="0 0 181 61" fill="none" xmlns="http://www.w3.org/2000/svg">
<path fill-rule="evenodd" clip-rule="evenodd" d="M180.639 7.61751V52.4096L175.421 57.6272H45.5086L40.2367 52.3553L32.3792 44.5056H14.8939C14.8939 44.5056 0.786133 58.5279 0.786133 58.7919V53.2016L15.9576 38.0302V10.0788L24.3431 1.69336H174.722L180.639 7.61751ZM24.4052 1.84864L16.1129 10.1487V38.1001L16.0663 38.1389L0.933666 53.2715V58.3648C1.22871 58.0387 1.78774 57.4564 2.87475 56.3461C4.04716 55.1427 5.67767 53.4966 7.72745 51.4391C11.2136 47.9452 14.7464 44.428 14.7774 44.3969L14.824 44.3503H32.4413L32.4879 44.3969L40.3376 52.2466L45.5708 57.4797H175.344L180.484 52.3398V7.67963L174.645 1.84864H24.4052Z" fill="#02D7F2"/>
<path d="M6.24548 58.9534L16.6497 48.5415H30.641L38.1335 56.034V59.1242H6.06689L6.24548 58.9534Z" stroke="#02D7F2" stroke-width="2" stroke-miterlimit="10"/>
<g opacity="0.1">
<path d="M0.785156 58.7919V53.2016L15.9567 38.0302V10.0788L24.3421 1.69336H174.722L180.638 7.61751V52.4096L175.42 57.6272H45.5077L40.2357 52.3553L32.3782 44.5056H14.8929C14.8929 44.5056 0.785156 58.5279 0.785156 58.7919Z" fill="#02D7F2"/>
</g>
<g opacity="0.1">
<path d="M6.24401 58.9524L16.6482 48.5405H30.6395L38.1321 56.0331V59.1232H6.06543L6.24401 58.9524Z" fill="#02D7F2"/>
</g>
<path opacity="0.1" d="M135.489 1.82374L138.812 5.15462H169.427L174.753 10.4809V50.4048L170.226 54.9314H107.933L105.138 57.7266H175.421L180.693 52.4546V7.61589L174.745 1.66846C174.745 1.66846 135.287 2.02561 135.489 1.82374Z" fill="#02D7F2"/>
<path opacity="0.1" d="M20.1514 48.6823L18.6218 50.2119H16.7584L11.1059 55.8642L13.1324 57.8985H26.9452L28.1874 59.1408H6.06689L16.6574 48.5503L20.1514 48.6823Z" fill="#02D7F2"/>
<path opacity="0.1" d="M68.1338 1.95573L65.1445 4.95274H27.2779L19.4515 12.7714V37.5006L22.301 40.3423H36.4553L53.7387 57.6179H45.5085L32.3868 44.4962H14.8938L0.692871 58.6971V53.2L15.9109 37.982V10.0772L24.3197 1.66846C24.3197 1.66846 68.4055 1.69175 68.1338 1.95573Z" fill="#02D7F2"/>
<path d="M2.24512 51.9719V57.0973L3.16908 56.162V50.9858L2.24512 51.9719Z" fill="#02D7F2"/>
<path d="M3.79883 50.2309V55.4785L4.83407 54.5682V49.2671L3.79883 50.2309Z" fill="#02D7F2"/>
<path d="M5.86914 48.1326V53.4511L6.79309 52.5272L6.90438 47.1025L5.86914 48.1326Z" fill="#02D7F2"/>
<path d="M7.57764 46.4232V51.7495L8.49383 50.8256L8.5871 45.4189L7.57764 46.4232Z" fill="#02D7F2"/>
<path d="M9.27734 44.7161V50.0424L10.2013 49.1184L10.398 43.7378L9.27734 44.7161Z" fill="#02D7F2"/>
<path d="M16.004 20.2803L14.6064 18.8827V7.10432L21.7186 0H42.1387L42.9384 0.799715H47.6359L48.6142 1.77802H24.2575L15.9342 10.1013C15.9342 10.1013 15.872 20.2803 16.004 20.2803Z" fill="#02D7F2"/>
<path d="M176.438 1.78746L180.631 5.98017V1.76416L176.438 1.78746Z" fill="#02D7F2"/>
<path d="M180.607 45.3499L177.649 48.3081V50.8703L172.105 56.414H130.892L129.735 57.5709H175.421L180.615 52.3766C180.615 52.3766 180.607 45.218 180.607 45.3499Z" fill="#02D7F2"/>
<path d="M101.715 1.82677L102.561 2.68084H144.24L145.312 3.75231H164.8L165.817 2.74295H169.598L170.646 1.68701L101.715 1.82677Z" fill="#02D7F2"/>
</svg>
