<svg width="49" height="49" viewBox="0 0 49 49" fill="none" xmlns="http://www.w3.org/2000/svg">
<g id="Group">
<path id="Vector" d="M24.5547 0.0146484L24.4453 0.0146484C11.2207 0.0146484 0.5 10.7353 0.5 23.96V24.0693C0.5 37.2939 11.2207 48.0147 24.4453 48.0147H24.5547C37.7793 48.0147 48.5 37.2939 48.5 24.0693V23.96C48.5 10.7353 37.7793 0.0146484 24.5547 0.0146484Z" fill="#02D7F2"/>
<path id="Vector_2" d="M36.1027 17.3795V21.9116C35.3106 21.8343 34.2814 21.6543 33.1429 21.2373C31.6563 20.6924 30.5498 19.9474 29.825 19.3706V28.5307L29.8065 28.5021C29.8183 28.6837 29.825 28.8687 29.825 29.0554C29.825 33.6043 26.1236 37.3074 21.573 37.3074C17.0224 37.3074 13.3211 33.6043 13.3211 29.0554C13.3211 24.5065 17.0224 20.8017 21.573 20.8017C22.0187 20.8017 22.4559 20.837 22.8831 20.906V25.3725C22.4727 25.2262 22.0321 25.1472 21.573 25.1472C19.4188 25.1472 17.6648 26.8995 17.6648 29.0554C17.6648 31.2113 19.4188 32.9636 21.573 32.9636C23.7273 32.9636 25.4812 31.2096 25.4812 29.0554C25.4812 28.9747 25.4796 28.8939 25.4745 28.8132V11.0127H30.0033C30.0201 11.3961 30.0352 11.7829 30.052 12.1663C30.0823 12.9214 30.3514 13.6462 30.8205 14.2398C31.3705 14.9377 32.1827 15.7483 33.3229 16.3957C34.3907 16.9995 35.393 17.2601 36.1027 17.3829V17.3795Z" fill="#0B0B0F"/>
</g>
</svg>
