<svg width="139" height="152" viewBox="0 0 139 152" fill="none" xmlns="http://www.w3.org/2000/svg">
<path d="M77.432 77.152V84H75V77.824L71.928 74.592H63.992V84H61.56V61.6H74.36L77.304 64.544V71.616L74.712 74.208L77.432 77.152ZM63.992 72.48H73.304L74.904 70.912V65.28L73.304 63.712H63.992V72.48Z" fill="#FCEE0A"/>
<g filter="url(#filter0_f_822_2309)">
<rect x="50.7251" y="50.4678" width="38" height="51" fill="#FCEE0A"/>
</g>
<path d="M115.253 102.242V101.645C117.192 101.347 118.087 101.198 118.683 101.049L118.832 100.899C122.561 94.7846 125.097 87.7748 126.29 80.616C125.395 79.2737 124.5 78.2297 122.561 75.9925C122.561 75.9925 122.561 75.9428 122.561 75.8434C123.456 65.7016 121.517 55.709 117.043 46.7604L117.49 46.4622C121.964 55.5599 123.903 65.5525 123.009 75.8434C124.947 77.9314 125.842 79.1245 126.737 80.3177C126.837 80.4171 126.886 80.5165 126.886 80.616C125.693 87.7748 123.009 95.0828 119.131 101.347C119.131 101.347 119.081 101.397 118.982 101.496H118.832C118.236 101.645 117.341 101.794 115.253 102.242Z" fill="#40F4FF"/>
<path d="M115.253 101.944C108.243 112.235 98.3996 119.692 87.3628 123.719C87.6611 123.023 87.9593 122.327 88.2576 121.631C98.6979 117.604 107.348 110.446 113.016 102.243C114.209 102.093 114.06 102.093 115.253 101.944Z" fill="#40F4FF"/>
<path fill-rule="evenodd" clip-rule="evenodd" d="M86.915 124.02L87.2133 123.572C87.5116 122.827 87.8099 122.23 87.9591 121.484H88.1082C98.101 117.457 106.901 110.597 112.866 102.096L113.016 101.946C113.91 101.946 114.06 101.946 114.805 101.797L115.7 101.648L115.402 102.096C108.69 112.237 98.9959 119.844 87.5116 123.871L86.915 124.02ZM88.4065 121.783C88.2076 122.18 88.0088 122.628 87.8099 123.125C98.6976 119.098 108.094 111.939 114.656 102.245C114.06 102.394 113.91 102.394 113.165 102.394C107.199 111.044 98.3993 117.905 88.4065 121.783Z" fill="#40F4FF"/>
<path d="M124.501 66.447C124.65 70.0265 124.65 73.1585 124.202 77.4836C123.705 76.887 123.258 76.3402 122.86 75.843C123.009 72.5619 123.158 69.8773 122.711 65.1047C123.308 65.6019 123.904 66.0493 124.501 66.447Z" fill="#40F4FF"/>
<path fill-rule="evenodd" clip-rule="evenodd" d="M124.351 78.0804L124.053 77.633C123.605 77.1855 123.158 76.5889 122.561 75.9924V75.8432V75.545C122.71 72.2638 123.009 69.7284 122.412 65.2541V64.6575L122.86 64.9558C123.456 65.3535 124.053 65.8009 124.649 66.2981V66.4472C124.948 69.8775 124.948 73.0095 124.5 77.4838L124.351 78.0804ZM123.009 75.6941C123.307 76.0918 123.605 76.4895 123.904 76.8872C124.351 72.8604 124.351 69.8775 124.053 66.5964C123.754 66.2981 123.357 65.9998 122.86 65.7015C123.307 70.0267 123.158 72.5621 123.009 75.545V75.6941Z" fill="#40F4FF"/>
<path d="M117.638 47.3583C117.19 47.6566 116.594 47.5074 116.445 47.06C116.146 46.6126 116.445 46.016 116.892 45.8669C117.34 45.5686 117.936 45.7177 118.085 46.1651C118.384 46.6126 118.085 47.2092 117.638 47.3583Z" fill="#40F4FF"/>
<path d="M83.337 123.273C82.9393 123.869 82.5913 124.516 82.293 125.212C84.2319 124.764 83.6353 124.913 84.8285 124.466C85.1268 123.869 85.4251 123.223 85.7234 122.527C84.9279 122.825 84.1325 123.074 83.337 123.273Z" fill="#40F4FF"/>
<path fill-rule="evenodd" clip-rule="evenodd" d="M81.6948 125.66L81.9931 125.064C82.3909 124.467 82.7388 123.821 83.0371 123.125H83.1863V122.976C83.7829 122.876 84.3297 122.727 84.8269 122.528C85.1252 122.429 85.4235 122.329 85.7218 122.23L86.1692 122.081L86.02 122.677C85.7218 123.274 85.4235 123.92 85.1252 124.616L84.9761 124.765L84.5286 124.915C83.932 125.064 83.932 125.064 83.0371 125.213L81.6948 125.66ZM83.4846 123.572C83.1863 124.069 82.9377 124.517 82.7389 124.915H82.888C83.7829 124.616 83.7829 124.616 84.3795 124.467H84.6777C84.8766 123.97 85.0755 123.473 85.2743 122.976C85.1749 123.075 85.0755 123.125 84.9761 123.125C84.4789 123.324 83.9817 123.473 83.4846 123.572Z" fill="#40F4FF"/>
<path d="M78.2645 124.467C77.8668 125.063 77.469 125.66 77.0713 126.256C79.3085 125.958 78.7119 125.958 79.6068 125.809C80.0045 125.212 80.4022 124.566 80.7999 123.87C78.5627 124.318 78.5628 124.318 78.2645 124.467Z" fill="#40F4FF"/>
<path fill-rule="evenodd" clip-rule="evenodd" d="M76.4766 126.558L76.7749 126.11C77.1726 125.514 77.5703 124.917 77.968 124.32L78.1172 124.171C78.4155 124.171 78.5646 124.171 79.7578 123.873L81.2493 123.575L80.9509 124.022C80.6526 124.619 80.3047 125.265 79.9069 125.961H79.7578L79.3103 126.11C79.012 126.259 79.012 126.259 77.968 126.408L76.4766 126.558ZM78.2663 124.619C78.0675 125.016 77.8189 125.414 77.5206 125.812H77.8189C78.8629 125.663 78.8629 125.663 79.1612 125.514H79.4595C79.7578 125.116 80.0064 124.668 80.2052 124.171L79.7578 124.32C78.7138 124.47 78.5646 124.619 78.2663 124.619Z" fill="#40F4FF"/>
<path d="M73.0454 125.065C72.6477 125.661 72.2003 126.258 71.7031 126.855C74.2386 126.556 73.4929 126.705 74.3877 126.556C74.7855 125.96 75.2329 125.363 75.73 124.767C73.0454 125.065 73.9403 125.065 73.0454 125.065Z" fill="#40F4FF"/>
<path fill-rule="evenodd" clip-rule="evenodd" d="M71.1055 127.004L71.5529 126.556C71.9507 126.059 72.3981 125.512 72.8952 124.916L73.0444 124.767C73.2433 124.767 73.3924 124.767 73.4918 124.767C73.641 124.767 73.641 124.767 74.5359 124.767L76.1765 124.468L75.8782 124.916C75.4804 125.512 75.033 126.109 74.5359 126.705V126.855H74.3867C74.2873 126.855 74.1878 126.855 74.0884 126.855C73.7901 126.855 73.7901 126.855 72.7461 127.004H71.1055ZM73.1935 125.214C72.8953 125.612 72.5472 126.009 72.1495 126.407H72.7461C73.641 126.258 73.641 126.258 73.9393 126.258C74.0387 126.258 74.1381 126.258 74.2375 126.258C74.5358 125.86 74.8341 125.463 75.1324 125.065H74.5359C73.641 125.214 73.641 125.214 73.4918 125.214C73.3924 125.214 73.293 125.214 73.1935 125.214Z" fill="#40F4FF"/>
<path d="M104.664 112.531H104.216C104.216 111.487 104.365 110.592 104.216 109.548C104.216 109.548 104.266 109.499 104.365 109.399C107.199 106.715 109.735 103.732 111.972 100.6C111.972 100.5 112.022 100.451 112.121 100.451C114.657 100.152 116.148 99.8542 117.789 99.4068C119.28 97.0205 120.473 94.6341 121.368 92.2479C121.368 92.1484 121.418 92.0987 121.517 92.0987L121.965 91.9496C122.561 91.6513 122.561 91.6513 123.009 91.5021L123.456 91.353L123.605 91.8004L123.307 91.9496C122.86 92.0987 122.86 92.0987 122.114 92.397L121.816 92.5462C120.771 94.9324 119.727 97.3187 118.236 99.8542C118.137 99.8542 118.087 99.9039 118.087 100.003C116.297 100.302 114.806 100.6 112.27 101.047C110.182 104.179 107.647 107.013 104.813 109.698C104.813 110.742 104.813 111.636 104.664 112.531Z" fill="#40F4FF"/>
<path d="M101.085 118.795C100.985 118.795 100.936 118.795 100.936 118.795C100.24 118.596 99.5437 118.447 98.8477 118.347V117.751C99.5437 117.95 100.24 118.149 100.936 118.347C103.421 116.558 105.808 114.619 108.095 112.531C108.095 111.835 108.095 111.139 108.095 110.443H108.542C108.542 111.139 108.542 111.835 108.542 112.531V112.68C108.542 112.779 108.492 112.829 108.393 112.829C106.206 115.017 103.819 117.005 101.234 118.795C101.135 118.795 101.085 118.795 101.085 118.795Z" fill="#40F4FF"/>
<path d="M23.529 41.0942L23.0815 40.945C28.7491 32.4439 36.6538 25.7324 45.7517 21.4072C46.3483 19.4684 46.9449 17.977 47.8398 15.889C47.9392 15.7895 47.9889 15.7398 47.9889 15.7398C54.9988 13.2044 62.3069 11.8621 69.7642 12.0112C69.8636 12.0112 69.9134 12.0609 69.9134 12.1604C71.1065 13.3535 71.554 13.8009 72.4489 14.9941L72.1506 15.2924C71.2557 14.2484 70.8082 13.6518 69.6151 12.4586C62.456 12.4586 54.9988 13.6518 48.2872 16.1872C47.3923 18.1261 46.7958 19.7667 46.1992 21.7055C46.1992 21.7055 46.1494 21.7553 46.05 21.8547C36.9521 26.0307 29.1965 32.7421 23.529 41.0942Z" fill="#40F4FF"/>
<path d="M72.2993 15.1406C83.7836 15.7372 95.5661 20.3606 104.962 28.4144C104.266 28.5138 103.57 28.6132 102.874 28.7127C94.0746 21.7029 83.7835 17.6761 73.6416 16.7812C73.2439 16.2841 72.7965 15.7372 72.2993 15.1406Z" fill="#40F4FF"/>
<path fill-rule="evenodd" clip-rule="evenodd" d="M102.725 29.0187V28.8696C94.3733 22.1581 84.0822 17.9821 73.642 17.0872H73.4928V16.9381C73.0454 16.4907 72.598 15.8941 72.1505 15.2976L71.7031 14.8501H72.2997C84.2314 15.5958 96.0139 20.3684 105.112 28.273L105.559 28.5713L105.112 28.7205C104.316 28.7205 103.571 28.8199 102.875 29.0187H102.725ZM73.7912 16.6398C84.2314 17.5347 94.5225 21.7107 102.875 28.4221C103.372 28.3227 103.869 28.273 104.366 28.273C95.4173 20.8158 84.2314 16.1924 72.8963 15.4467C73.1946 15.8444 73.4929 16.2421 73.7912 16.6398Z" fill="#40F4FF"/>
<path d="M36.9506 24.8384C39.7844 22.8996 43.8113 20.6624 46.6451 19.6184C46.1977 20.8116 46.1977 20.6624 45.8994 21.5573C42.9165 22.8995 39.7844 24.8384 36.6523 27.0756C36.8015 26.0316 36.8015 26.0316 36.9506 24.8384Z" fill="#40F4FF"/>
<path fill-rule="evenodd" clip-rule="evenodd" d="M36.355 27.5232L36.5041 27.0758C36.5041 26.0318 36.6533 26.0317 36.6533 25.286L36.8024 24.6895C39.487 22.7506 43.6631 20.5134 46.4969 19.3203L46.9444 19.1711L46.646 20.066C46.3477 20.8117 46.3478 20.8117 46.1986 21.7066L46.0495 21.8557C42.9174 23.198 39.7853 25.1369 36.8024 27.2249L36.355 27.5232ZM37.2499 24.9878V25.286C37.1007 25.8826 37.1007 26.0318 37.1007 26.4792C39.7853 24.5403 42.7683 22.7506 45.7512 21.4083C45.9003 20.6626 45.9003 20.6626 46.1986 19.9169C43.3648 21.11 39.7853 23.198 37.2499 24.9878Z" fill="#40F4FF"/>
<path d="M23.827 40.3461C24.2744 40.6444 24.4235 41.0918 24.1253 41.5392C23.827 41.9866 23.3795 41.9866 22.9321 41.6883C22.4846 41.5392 22.3355 40.9426 22.4846 40.4952C22.7829 40.0478 23.3795 40.0478 23.827 40.3461Z" fill="#40F4FF"/>
<path d="M106.751 32.1469C107.447 32.1469 108.193 32.1469 108.989 32.1469C108.69 31.8486 107.795 30.9537 107.05 30.208C106.254 30.208 105.509 30.2577 104.812 30.3571C105.409 30.9537 106.304 31.8486 106.751 32.1469Z" fill="#40F4FF"/>
<path fill-rule="evenodd" clip-rule="evenodd" d="M106.602 32.4481V32.2989C106.155 32.0006 105.26 31.1057 104.663 30.5092L104.216 30.2109H104.812C105.558 30.0618 106.453 30.0617 107.05 29.9126L107.199 30.0617C107.944 30.8075 108.839 31.7023 109.138 32.0006L109.436 32.2989H108.989C108.292 32.2989 107.547 32.3486 106.751 32.4481H106.602ZM105.409 30.5092C106.006 31.1057 106.602 31.5532 106.9 31.8514C107.398 31.8514 107.895 31.8514 108.392 31.8514C107.944 31.404 107.497 30.9566 106.9 30.5092C106.503 30.5092 106.006 30.5092 105.409 30.5092Z" fill="#40F4FF"/>
<path d="M110.331 36.0185C111.375 36.0185 111.375 36.0185 112.419 36.1676C111.823 35.2728 110.928 34.3779 110.779 34.0796C109.983 34.0796 109.238 34.0796 108.542 34.0796C109.138 34.6762 109.735 35.3225 110.331 36.0185Z" fill="#40F4FF"/>
<path fill-rule="evenodd" clip-rule="evenodd" d="M113.015 36.4678L112.419 36.3186C111.524 36.3186 111.375 36.3186 110.778 36.3186L110.182 36.1695H110.032C109.535 35.5729 109.038 34.9763 108.541 34.3798L107.944 33.7832H108.541C109.287 33.7832 109.883 33.7832 110.778 33.7832H110.927V33.9324C111.226 34.0815 111.971 35.1255 112.717 36.0204L113.015 36.4678ZM110.331 35.722H110.629C111.226 35.722 111.375 35.7221 111.822 35.8712C111.375 35.2746 110.778 34.5289 110.629 34.3798C110.032 34.2803 109.486 34.2306 108.988 34.2306C109.486 34.7278 109.933 35.2249 110.331 35.722Z" fill="#40F4FF"/>
<path d="M113.463 40.0497C114.159 40.1491 114.855 40.2983 115.551 40.4971C114.805 39.1548 115.551 40.348 114.059 38.26C113.363 38.1605 112.618 38.0611 111.822 37.9617C113.015 39.6022 112.568 38.8565 113.463 40.0497Z" fill="#40F4FF"/>
<path fill-rule="evenodd" clip-rule="evenodd" d="M116.148 40.7946L115.402 40.6455C114.706 40.546 114.01 40.4466 113.314 40.3472L113.165 40.198C113.016 39.8997 112.867 39.7506 112.718 39.6014C112.569 39.3032 112.569 39.3031 112.121 38.5574L111.375 37.6626L111.972 37.8117C112.768 37.8117 113.464 37.8614 114.06 37.9609H114.209L114.358 38.2592C115.253 39.4523 115.253 39.4523 115.402 39.6014C115.402 39.7506 115.552 39.8997 115.85 40.3472L116.148 40.7946ZM113.464 39.8997C114.06 39.8997 114.607 39.9494 115.104 40.0489C115.005 39.9494 114.955 39.8997 114.955 39.8997C114.806 39.7506 114.806 39.7506 113.911 38.4083C113.414 38.4083 112.917 38.3586 112.42 38.2592C112.867 39.0049 112.867 39.0049 113.165 39.3031C113.165 39.4026 113.265 39.6015 113.464 39.8997Z" fill="#40F4FF"/>
<path d="M84.3792 20.8157C84.2798 20.8157 84.2301 20.8157 84.2301 20.8157C80.5014 19.6226 76.6236 18.8768 72.7458 18.5786C72.7458 18.5786 72.6961 18.5786 72.5967 18.5786C71.5526 17.0871 69.912 15.1483 68.868 14.1043C66.1834 14.1043 63.4988 14.3031 60.8141 14.7008C60.8141 14.7008 60.7644 14.6511 60.665 14.5517C60.0684 14.154 59.5216 13.7563 59.0244 13.3585L59.3227 12.9111C59.8198 13.3088 60.3667 13.7065 60.9633 14.1043C63.6479 13.806 66.3325 13.6568 69.0172 13.6568C69.1166 13.6568 69.1663 13.6568 69.1663 13.6568C70.0612 14.7009 71.8509 16.6397 72.895 18.1311C76.7728 18.4294 80.5014 19.1752 84.2301 20.3683C85.125 19.7717 85.7215 19.4734 86.7655 18.8769L87.0638 19.3243C85.8707 19.9208 85.4233 20.2191 84.3792 20.8157Z" fill="#40F4FF"/>
<path d="M94.2235 21.4095C94.0247 20.7135 93.8258 20.0175 93.627 19.3215C90.644 17.83 88.1086 16.9352 85.1257 16.0403C84.5291 16.4381 83.9325 16.786 83.3359 17.0843L83.0376 16.6369C83.6342 16.2392 84.2805 15.8912 84.9765 15.5929C84.9765 15.4935 85.0262 15.4935 85.1257 15.5929C88.2577 16.4877 90.7932 17.3826 93.9253 18.8741C94.0247 18.9735 94.0744 19.0232 94.0744 19.0232V19.1723C94.2733 19.8683 94.4721 20.5644 94.671 21.2604L94.2235 21.4095Z" fill="#40F4FF"/>
<path d="M65.5857 125.362C54.6981 124.616 46.1967 121.783 37.248 115.519C35.0108 116.115 32.4753 116.414 31.4313 116.563C31.4313 116.563 31.3816 116.513 31.2821 116.414C25.4655 111.79 20.6928 105.974 17.1133 99.4112C17.1133 99.4112 17.1133 99.3615 17.1133 99.262C17.4116 98.218 17.859 97.0249 18.3064 95.6826L18.7539 95.8318C18.3064 97.1741 17.859 98.218 17.5607 99.262C21.1402 105.675 25.9129 111.343 31.5804 115.966C32.6245 115.966 35.1599 115.519 37.248 115.071C37.3474 115.071 37.4468 115.071 37.5463 115.071C46.3459 121.186 54.8472 124.169 65.5857 124.915V125.362Z" fill="#40F4FF"/>
<path d="M18.6068 95.6842C13.0884 84.6476 11.5969 72.567 13.6849 60.7847C14.0827 61.3812 14.5301 61.9281 15.0272 62.4252C13.6849 71.6721 14.5798 80.7698 16.817 87.183L17.4136 89.1219C17.7119 89.5693 17.5627 89.271 17.861 90.0167C18.905 92.7013 18.4576 91.5082 19.3525 93.7453L18.905 94.7893C18.8056 95.0876 18.7062 95.3859 18.6068 95.6842Z" fill="#40F4FF"/>
<path fill-rule="evenodd" clip-rule="evenodd" d="M18.6049 96.4244L18.3066 95.8278C12.9373 84.9404 11.2968 72.8598 13.3848 60.63L13.5339 60.0334L13.8322 60.63C14.2797 61.0774 14.7271 61.674 15.1745 62.2706L15.3237 62.4197C13.9814 70.9209 14.7271 80.1678 17.1134 87.0283L17.71 88.9672C17.71 89.1661 17.7597 89.2655 17.8592 89.2655C17.8592 89.4146 17.8592 89.4147 18.0083 89.7129L18.3066 90.7569C18.754 91.8009 18.754 91.8009 19.0523 92.5467C19.2015 92.6958 19.3506 92.9941 19.6489 93.5907V93.7398L19.2015 94.7838C19.0026 95.0821 18.8535 95.4301 18.754 95.8278L18.6049 96.4244ZM13.8322 61.3757C11.8933 73.0089 13.5339 84.6421 18.6049 95.0821C18.6049 94.9827 18.6546 94.8335 18.754 94.6347L19.2015 93.7398C18.9032 93.2426 18.7043 92.8947 18.6049 92.6958C18.4558 92.0992 18.4557 92.0992 18.0083 90.9061L17.5609 90.0112C17.4117 89.7129 17.4117 89.7129 17.4117 89.5638C17.4117 89.4644 17.362 89.3649 17.2626 89.2655L16.666 87.3266C14.2797 80.3169 13.5339 71.07 14.8763 62.5689C14.4785 62.1711 14.1305 61.7734 13.8322 61.3757Z" fill="#40F4FF"/>
<path d="M44.7067 121.485C41.3261 119.894 38.194 118.005 35.3105 115.817C36.0066 115.718 36.7026 115.568 37.3986 115.37C40.3815 117.458 43.4638 119.198 46.6456 120.59C45.1542 121.335 45.3033 121.186 44.7067 121.485Z" fill="#40F4FF"/>
<path fill-rule="evenodd" clip-rule="evenodd" d="M44.7076 121.777L44.5585 121.628C41.2773 120.137 38.1452 118.198 35.1623 115.961L34.7148 115.662L35.3114 115.513C35.908 115.414 36.5543 115.314 37.2503 115.215L37.5486 115.066V115.215C40.5315 117.154 43.5145 118.943 46.7957 120.435L47.3922 120.584L46.4974 121.031C45.4534 121.479 45.4534 121.479 45.0059 121.628L44.7076 121.777ZM35.908 115.961C38.6921 118.049 41.6253 119.789 44.7076 121.181H44.8568C45.1551 121.031 45.1551 121.031 46.0499 120.584C43.067 119.192 40.1835 117.551 37.3995 115.662C36.9023 115.762 36.4052 115.861 35.908 115.961Z" fill="#40F4FF"/>
<path d="M64.6928 125.058C64.6928 124.611 65.1403 124.163 65.5877 124.163C66.0352 124.163 66.4826 124.611 66.4826 125.207C66.3335 125.804 66.0351 126.102 65.4386 126.102C64.9911 126.102 64.5437 125.655 64.6928 125.058Z" fill="#40F4FF"/>
<path d="M16.07 57.3495C15.6723 56.7529 15.2746 56.1564 14.8769 55.5598C14.678 56.3552 14.4791 57.2004 14.2803 58.0952C14.678 58.6918 15.0757 59.2884 15.4734 59.885C15.6723 58.9901 15.8712 58.1449 16.07 57.3495Z" fill="#40F4FF"/>
<path fill-rule="evenodd" clip-rule="evenodd" d="M15.624 60.4855L15.3257 60.0381C14.8285 59.4416 14.3811 58.845 13.9834 58.2484V58.0992C14.1325 57.2044 14.4308 56.3095 14.7291 55.4147L14.8783 54.8181L15.1766 55.4147C15.4749 55.8621 15.9223 56.6078 16.2206 57.2044L16.3697 57.3535C16.0715 58.2484 15.9223 59.1433 15.7731 59.889L15.624 60.4855ZM14.4308 58.0992C14.7291 58.497 15.0274 58.8947 15.3257 59.2924C15.4251 58.6958 15.5743 58.0992 15.7731 57.5027C15.4749 57.0055 15.2263 56.5581 15.0274 56.1604C14.8286 56.8564 14.6297 57.5027 14.4308 58.0992Z" fill="#40F4FF"/>
<path d="M17.5632 52.4322C17.2649 51.7362 16.9666 51.0402 16.6683 50.3442C16.37 51.2391 16.0717 52.0842 15.7734 52.8796C16.0717 53.5756 16.4197 54.222 16.8175 54.8185C17.0163 54.0231 17.2649 53.2277 17.5632 52.4322Z" fill="#40F4FF"/>
<path fill-rule="evenodd" clip-rule="evenodd" d="M16.8174 55.4155L16.5191 54.9681C16.0717 54.2223 15.7734 53.6258 15.4751 53.0292V52.8801C15.7734 51.9852 16.0717 51.0904 16.37 50.3447L16.6683 49.748L16.8174 50.3447C17.2151 50.9412 17.5632 51.5875 17.8614 52.2835V52.4327C17.5632 53.1784 17.2648 54.0732 16.9666 54.9681L16.8174 55.4155ZM16.0717 52.8801C16.2705 53.2778 16.4694 53.6755 16.6683 54.0732C16.9666 53.4767 17.2151 52.8801 17.414 52.2835C17.1157 51.8858 16.8671 51.4384 16.6683 50.9412C16.4694 51.5378 16.2705 52.1841 16.0717 52.8801Z" fill="#40F4FF"/>
<path d="M19.6508 47.6544C19.3525 46.9584 19.1039 46.2624 18.9051 45.5664C18.5074 46.3618 18.1096 47.1573 17.7119 47.9527C18.0102 48.6487 18.3085 49.3447 18.6068 50.0407C18.9051 49.1458 19.2531 48.3504 19.6508 47.6544Z" fill="#40F4FF"/>
<path fill-rule="evenodd" clip-rule="evenodd" d="M18.6067 50.6367L18.3084 50.0401C18.0101 49.4435 17.7119 48.6978 17.4136 48.1013V47.9521V47.803C17.8113 47.0075 18.209 46.2121 18.6067 45.4166L18.905 44.9692L19.0542 45.4166C19.3525 46.1624 19.6507 46.9081 19.7999 47.5046L19.9491 47.6538H19.7999C19.4022 48.4492 19.0542 49.2447 18.7559 50.0401L18.6067 50.6367ZM18.0101 48.1013C18.209 48.499 18.4079 48.9464 18.6067 49.4435C18.905 48.847 19.2033 48.2504 19.5016 47.6538C19.3027 47.2561 19.1039 46.8087 18.905 46.3115C18.6067 46.9081 18.3084 47.5047 18.0101 48.1013Z" fill="#40F4FF"/>
<path d="M23.6785 108.055H23.231C23.3305 107.359 23.3802 106.712 23.3802 106.116C21.5904 103.73 19.8007 100.896 18.9058 99.4044C18.9058 99.305 18.9058 99.2055 18.9058 99.1061C19.5024 97.1672 20.2481 95.2284 20.8447 93.7369C19.2041 90.1575 17.8618 86.5781 17.1161 82.7003C15.9229 82.1038 15.6246 81.9546 14.5806 81.3581L14.8789 80.9106C15.9229 81.5072 16.2212 81.6564 17.4144 82.4021C17.5138 82.4021 17.5635 82.4518 17.5635 82.5512C18.3092 86.2798 19.6515 90.0084 21.2921 93.5878C21.3916 93.5878 21.3916 93.6375 21.2921 93.7369C20.6956 95.2284 19.9498 97.1673 19.3533 99.2553C20.2481 100.747 22.0379 103.431 23.9768 105.818C23.9768 105.917 23.9768 106.016 23.9768 106.116C23.8773 106.712 23.7779 107.359 23.6785 108.055Z" fill="#40F4FF"/>
<path d="M14.5795 85.6855C14.3806 85.5861 14.2315 85.4867 14.1321 85.3873C13.6846 85.2381 13.6846 85.2381 13.088 84.7906L12.6406 84.4924C12.5412 84.4924 12.4915 84.4427 12.4915 84.3432L12.044 82.7026C12.044 82.6032 12.044 82.4541 12.044 82.2552C12.044 82.2552 12.044 82.2055 12.044 82.1061L11.5966 79.7198L11.2983 77.4826C11.2983 77.3832 11.2983 77.2838 11.2983 77.1844C11.1989 77.0849 11.1492 76.9855 11.1492 76.8861L11 75.0963C11 74.9969 11.0497 74.9472 11.1492 74.9472L11.4474 74.4998C12.044 73.9032 12.044 73.9032 12.3423 73.6049C12.3423 73.6049 12.4418 73.5055 12.6406 73.3066L12.9389 73.6049C12.8395 73.8038 12.74 73.9529 12.6406 74.0524C12.3423 74.2015 12.3423 74.2015 11.8949 74.7981L11.5966 75.0963L11.7457 76.8861C11.7457 76.9855 11.7457 77.0849 11.7457 77.1844C11.7457 77.2838 11.7457 77.3335 11.7457 77.3335L12.044 79.7198L12.4915 81.9569C12.4915 82.0564 12.4915 82.1558 12.4915 82.2552C12.4915 82.3547 12.5412 82.4541 12.6406 82.5535L12.9389 84.1941L13.2372 84.3432C13.9829 84.7907 13.9829 84.7907 14.2812 84.9398C14.3806 85.0392 14.5298 85.1387 14.7286 85.2381L14.5795 85.6855Z" fill="#40F4FF"/>
<path d="M68.5707 118.794C62.1574 118.794 55.595 117.452 49.3308 114.767C41.277 111.188 34.2671 105.371 29.1961 97.9138C27.1081 97.3172 26.2132 97.0189 24.5726 96.2732C24.4732 96.2732 24.4235 96.2732 24.4235 96.2732C23.3795 94.3344 22.6337 92.992 22.3354 92.2463L22.0371 91.6498C21.888 91.2023 21.888 91.2023 21.7388 91.0532C21.7388 90.9538 21.6891 90.7549 21.5897 90.4566L21.4406 90.0092C20.9931 88.9652 20.9931 88.9652 20.844 88.5178C20.6948 88.3686 20.6948 88.0704 20.5457 87.6229C20.2474 86.8772 19.6508 85.0875 19.2034 82.9995L18.9051 81.8063C18.9051 81.8063 18.3085 79.42 18.1594 78.376C18.1594 77.9783 18.1594 77.68 18.1594 77.4812C18.0102 76.8846 18.0102 76.8846 17.8611 75.8406V74.9458C17.7119 74.3492 17.7119 74.3492 17.7119 74.0509C17.7119 74.0509 17.7119 73.9017 17.7119 73.6034V71.9629H18.1594L18.3085 73.6034C18.3085 73.8023 18.3085 73.9515 18.3085 74.0509C18.3085 74.3492 18.3085 74.3492 18.3085 74.7966L18.4576 75.8406C18.4576 76.7354 18.4577 76.7354 18.6068 77.332C18.6068 77.5309 18.6565 77.8292 18.7559 78.2269C18.9051 79.2709 19.3525 81.6572 19.3525 81.8063L19.6508 82.8503C20.0983 84.9383 20.6948 86.7281 20.9931 87.3246C21.1423 87.9212 21.1423 88.0704 21.2914 88.3686C21.4406 88.6669 21.4406 88.6669 21.888 89.7109L22.0371 90.3075C22.1366 90.5063 22.1863 90.6555 22.1863 90.7549C22.3354 91.0532 22.3354 91.0532 22.4846 91.5006L22.7829 91.9481C23.0812 92.6938 23.6777 94.0361 24.7218 95.8258C26.5115 96.5715 27.2573 96.8698 29.3453 97.4663C29.4447 97.4663 29.4944 97.5161 29.4944 97.6155C34.7145 104.924 41.5753 110.74 49.6291 114.32C63.3506 120.285 78.8617 119.54 91.9866 112.082C104.962 104.924 113.464 92.6938 115.403 78.6743H115.85C114.955 85.8332 112.27 92.5446 107.945 98.5104C103.918 104.178 98.549 109.1 92.2849 112.53C84.8276 116.706 76.7737 118.794 68.5707 118.794Z" fill="#40F4FF"/>
<path d="M100.189 106.568C89.6 115.964 75.5803 120.14 61.5605 118.052C62.2566 117.655 62.9526 117.207 63.6486 116.71C76.326 118.052 88.4068 114.175 97.803 106.568C98.5985 106.668 99.3939 106.668 100.189 106.568Z" fill="#40F4FF"/>
<path fill-rule="evenodd" clip-rule="evenodd" d="M68.7205 118.794C66.3341 118.794 63.9478 118.595 61.5614 118.198C61.462 118.198 61.3626 118.148 61.2632 118.048C61.2632 117.949 61.3129 117.85 61.4123 117.75C62.158 117.452 62.9038 116.855 63.5004 116.408C63.5998 116.408 63.6495 116.408 63.6495 116.408C75.8795 117.75 87.9603 114.171 97.6548 106.415C97.6548 106.415 97.7045 106.415 97.8039 106.415C98.5994 106.415 99.3948 106.415 100.19 106.415C100.29 106.415 100.389 106.465 100.489 106.564C100.489 106.664 100.439 106.763 100.339 106.863C91.5398 114.618 80.3539 118.794 68.7205 118.794Z" fill="#40F4FF"/>
<path d="M87.8098 118.05C75.2815 123.121 61.1127 122.972 48.8827 117.752C47.9878 115.962 47.5404 115.216 46.6455 113.278C54.5502 117.155 61.7093 118.498 69.4649 118.498C76.4747 118.498 85.1252 116.26 90.1962 113.427C89.5996 114.918 88.7047 116.41 87.8098 118.05Z" fill="#40F4FF"/>
<path fill-rule="evenodd" clip-rule="evenodd" d="M68.7193 122.08C61.8586 122.08 55.147 120.738 48.8829 118.053C48.7835 118.053 48.7338 118.003 48.7338 117.904C47.6897 116.114 47.3915 115.368 46.4966 113.28C46.4966 113.181 46.4966 113.082 46.4966 112.982C46.596 112.982 46.6954 112.982 46.7949 112.982C53.8047 116.562 60.8146 118.202 69.4651 118.351C76.0275 118.351 84.6779 116.114 90.0472 113.28C90.1466 113.181 90.2461 113.181 90.3455 113.28C90.3455 113.38 90.3455 113.479 90.3455 113.579C89.7489 115.07 89.0032 116.711 88.1083 118.202C88.0089 118.202 87.9592 118.202 87.9592 118.202C81.8442 120.738 75.2818 122.08 68.7193 122.08ZM49.1812 117.606C61.4112 122.676 75.4309 122.826 87.6609 117.904C88.4066 116.562 89.0032 115.219 89.5998 114.026C84.2305 116.86 75.8783 118.799 69.4651 118.799C60.9638 118.799 54.103 117.158 47.2423 113.728C47.8389 115.219 48.2863 116.114 49.1812 117.606Z" fill="#40F4FF"/>
<path d="M45.0056 115.964C44.409 114.324 43.8124 112.832 43.2159 111.192C41.8735 110.297 42.6193 110.744 41.8735 110.297C42.1718 111.639 42.6193 113.13 43.5141 115.069C45.0056 115.964 44.8565 115.964 45.0056 115.964Z" fill="#40F4FF"/>
<path fill-rule="evenodd" clip-rule="evenodd" d="M45.6014 116.561L45.0048 116.262C44.8557 116.113 44.8557 116.113 43.9608 115.666L43.2151 115.219C42.4693 113.429 42.0219 111.937 41.5744 110.297L41.4253 109.7L41.8727 109.999C42.171 110.297 42.3202 110.297 42.3202 110.297C42.4693 110.446 42.4693 110.446 43.3642 110.893L43.5134 111.042V111.192C43.9608 112.534 44.4082 114.025 45.3031 115.815L45.6014 116.561ZM43.6625 115.069L44.1099 115.368C44.3088 115.467 44.4579 115.517 44.5574 115.517C43.9608 114.025 43.5133 112.683 43.0659 111.49C42.6185 111.192 42.3202 111.042 42.3202 111.042C42.6185 112.385 43.0659 113.578 43.6625 115.069Z" fill="#40F4FF"/>
<path d="M39.7835 112.835C39.4852 111.493 39.0378 110.15 38.5904 107.913L37.248 106.72C37.5463 108.808 37.8446 109.554 38.2921 111.791C38.5904 111.94 38.7395 112.089 39.7835 112.835Z" fill="#40F4FF"/>
<path fill-rule="evenodd" clip-rule="evenodd" d="M40.2329 113.431L39.1888 112.685C38.4431 112.238 38.4431 112.089 38.1448 111.94V111.79C37.5482 109.702 37.3991 108.808 37.1008 106.72L36.9517 106.123L38.8906 107.764C39.338 110.001 39.6363 111.492 40.0837 112.685L40.2329 113.431ZM38.4431 111.641C38.5923 111.79 38.7414 111.94 39.338 112.238C39.0397 111.194 38.7414 109.852 38.294 108.062L37.5483 107.465C37.8465 108.957 37.9957 109.852 38.4431 111.641Z" fill="#40F4FF"/>
<path d="M20.8437 87.9267C19.6505 84.6455 18.9048 81.8118 18.4574 77.785C18.3579 77.2878 18.2585 76.7907 18.1591 76.2935C17.8608 72.2667 17.8608 68.2398 18.3082 64.3621C18.8054 65.0581 19.3025 65.7043 19.7997 66.3009C19.2031 72.7141 19.7997 79.2764 21.7386 85.5404C21.5894 85.8387 21.4403 86.2861 20.8437 87.9267Z" fill="#40F4FF"/>
<path fill-rule="evenodd" clip-rule="evenodd" d="M20.8436 88.2193C20.7442 88.2193 20.6945 88.1696 20.6945 88.0702C19.3522 84.4907 18.6064 81.5079 18.159 77.7793V77.481C18.0596 77.0833 18.0099 76.6856 18.0099 76.2879C17.5624 72.261 17.5624 68.2341 18.159 64.3564C18.159 64.257 18.2087 64.1575 18.3081 64.0581C18.4076 64.0581 18.507 64.1078 18.6065 64.2073C19.0042 64.9033 19.4516 65.5495 19.9488 66.1461C19.9488 66.2455 19.9488 66.2953 19.9488 66.2953C19.3522 72.7084 20.0979 79.2707 22.0368 85.3856C22.0368 85.4851 22.0368 85.5347 22.0368 85.5347L21.8877 85.6839C21.7385 86.1313 21.5894 86.5788 21.1419 88.0702C21.0425 88.1696 20.9431 88.2193 20.8436 88.2193ZM18.4573 64.953C18.0596 68.7313 18.0596 72.5096 18.4573 76.2879C18.4573 76.6856 18.507 77.0833 18.6065 77.481V77.7793C19.203 81.2096 19.7996 83.8942 20.8436 87.1753C21.1419 86.1313 21.2911 85.833 21.4402 85.5347C19.6505 79.4199 18.9047 72.7084 19.5013 66.4444C19.203 65.9473 18.855 65.4501 18.4573 64.953Z" fill="#40F4FF"/>
<path d="M113.463 87.3296C114.557 84.1478 115.353 80.9164 115.85 77.6353C116.247 78.3313 116.645 78.9775 117.043 79.5741C116.894 81.2147 115.999 84.3467 115.551 85.9873C114.06 86.8822 113.911 87.0313 113.463 87.3296Z" fill="#40F4FF"/>
<path fill-rule="evenodd" clip-rule="evenodd" d="M113.463 87.4798C113.363 87.4798 113.264 87.4798 113.165 87.4798C113.165 87.3804 113.165 87.2809 113.165 87.1815C114.258 84.0992 115.054 80.9175 115.551 77.6363C115.551 77.5369 115.601 77.4872 115.7 77.4872C115.799 77.3877 115.899 77.3877 115.998 77.4872C116.495 78.1832 116.943 78.8792 117.341 79.5752C117.341 79.5752 117.341 79.6249 117.341 79.7243C117.042 81.2158 116.297 84.4969 115.7 85.9884C115.7 86.0878 115.7 86.1375 115.7 86.1375C114.358 87.0324 114.059 87.1815 113.612 87.3306L113.463 87.4798ZM115.998 78.382C115.501 81.166 114.805 83.9501 113.91 86.7341C114.209 86.5849 114.507 86.2866 115.402 85.8392C115.849 84.1986 116.595 81.2158 116.893 79.7243C116.595 79.2272 116.297 78.7798 115.998 78.382Z" fill="#40F4FF"/>
<path d="M87.9587 118.199L87.8096 117.751C95.8635 114.619 103.768 108.505 108.69 101.942C108.69 99.7051 108.392 97.4679 108.392 96.8713H108.839C108.988 97.4679 109.137 99.7051 109.137 102.091C109.137 102.091 109.137 102.141 109.137 102.241C104.216 108.803 96.0126 115.067 87.9587 118.199Z" fill="#40F4FF"/>
<path d="M106.454 105.222H106.006C106.155 103.582 106.155 101.792 106.006 100.002H106.603C106.603 101.792 106.603 103.582 106.454 105.222Z" fill="#40F4FF"/>
<path d="M29.942 98.9633C29.0472 97.7702 28.1523 96.4279 27.7048 95.6822C26.0642 95.0856 25.1694 94.7873 23.2305 93.8925L23.3796 93.4451C25.3185 94.3399 26.2134 94.6382 28.0031 95.2348C28.1026 95.3342 28.1523 95.3839 28.1523 95.3839C28.5997 96.1296 29.4946 97.4719 30.2403 98.6651L29.942 98.9633Z" fill="#40F4FF"/>
<path d="M68.7202 123.567C68.6208 123.567 68.5213 123.567 68.4219 123.567V123.12C80.9501 123.269 93.1801 118.795 102.725 110.443L103.024 110.89C93.4784 119.093 81.2484 123.567 68.7202 123.567Z" fill="#40F4FF"/>
<path d="M55.8937 115.367C54.2531 114.92 50.077 113.578 44.8569 110.595L45.1552 110.147C50.3753 113.13 54.4023 114.473 56.0429 114.92L55.8937 115.367Z" fill="#40F4FF"/>
<path d="M119.279 69.8749C118.832 60.7771 116.744 53.1709 112.568 45.8628C110.927 45.2663 110.032 44.968 107.944 44.3714C107.944 44.3714 107.894 44.3217 107.795 44.2222C97.5039 29.1588 79.7555 21.4033 61.7089 24.0879C43.8114 26.7725 29.195 39.1514 23.6766 56.3029C23.0801 57.9434 22.1852 61.3737 22.036 63.1634H21.4395C21.7377 61.3737 22.6326 57.7943 23.0801 56.1537C26.063 47.2051 31.2831 39.4497 38.293 33.7822C45.0045 28.4131 53.0584 24.8336 61.7089 23.6404C70.3593 22.2982 79.1589 23.3422 87.0637 26.6233C95.565 30.2027 102.873 36.1685 108.242 43.9239C110.33 44.5205 111.076 44.8188 112.866 45.5645C112.965 45.5645 113.015 45.5645 113.015 45.5645C117.191 52.8725 119.279 60.628 119.727 69.7258L119.279 69.8749Z" fill="#40F4FF"/>
<path d="M37.1006 35.2788C47.9882 25.5845 62.1571 21.7067 75.8785 23.7948C75.0831 24.1925 74.3871 24.6399 73.7905 25.137C61.1131 23.7947 48.8831 27.6725 39.6361 35.2788C38.8406 35.1794 37.9955 35.1794 37.1006 35.2788Z" fill="#40F4FF"/>
<path fill-rule="evenodd" clip-rule="evenodd" d="M39.6357 35.4208C38.8402 35.4208 37.9951 35.4208 37.1002 35.4208C37.0008 35.4208 36.951 35.3711 36.951 35.2717C36.8516 35.1722 36.8516 35.0728 36.951 34.9734C47.6895 25.5773 61.8584 21.4013 75.8781 23.4893C75.9776 23.5888 76.0273 23.6882 76.0273 23.7876C76.0273 23.887 75.9776 23.9865 75.8781 24.0859C75.2816 24.3842 74.5359 24.9808 73.9393 25.4282C73.8398 25.4282 73.7901 25.4282 73.7901 25.4282C61.411 24.0859 49.3302 27.5162 39.7848 35.4208C39.7848 35.4208 39.7351 35.4208 39.6357 35.4208ZM38.4425 34.9734C38.8402 34.9734 39.1882 34.9734 39.4865 34.9734C44.2592 31.0956 49.6285 28.2619 55.4452 26.6213C61.2618 24.8316 67.526 24.2351 73.641 24.8316C74.1381 24.5333 74.6353 24.235 75.1324 23.9368C61.7093 22.147 48.137 26.0248 37.8459 34.9734C38.0448 34.9734 38.2436 34.9734 38.4425 34.9734Z" fill="#40F4FF"/>
<path d="M49.4799 23.7988C62.1573 18.5788 76.3261 18.8771 88.407 24.0971C89.451 25.8869 89.7493 26.6326 90.6441 28.5714C77.8176 22.0091 62.6047 21.2634 48.585 27.6766C48.0878 27.8754 47.6404 28.124 47.2427 28.4223C47.8393 26.9309 48.585 25.4394 49.4799 23.7988Z" fill="#40F4FF"/>
<path fill-rule="evenodd" clip-rule="evenodd" d="M90.6442 28.8668C90.6442 28.8668 90.5945 28.8668 90.4951 28.8668C77.5194 22.0062 62.1574 21.7079 48.5851 27.972C48.4856 28.0714 48.3862 28.1211 48.2868 28.1211C47.9885 28.2205 47.6902 28.3697 47.3919 28.5685C47.2925 28.668 47.193 28.668 47.0936 28.5685C46.9942 28.4691 46.9942 28.3697 47.0936 28.2702C47.6902 26.7788 48.4359 25.1382 49.3308 23.6468C49.3308 23.6468 49.3805 23.5971 49.48 23.4977C61.8591 18.4268 76.1771 18.5759 88.5562 23.7959C88.5562 23.7959 88.6059 23.8456 88.7054 23.9451C89.6002 25.7348 90.0477 26.4805 90.9425 28.5685C90.9425 28.668 90.8928 28.7674 90.7934 28.8668C90.7934 28.8668 90.7437 28.8668 90.6442 28.8668ZM68.7198 23.0502C69.217 23.0502 69.6644 23.0502 70.0621 23.0502C77.072 23.1994 83.7835 24.9891 90.1968 28.1211C89.4511 26.4805 89.1528 25.7348 88.2579 24.2434C76.0279 19.0234 62.0082 19.0233 49.7782 23.9451C49.0325 25.2874 48.2868 26.6297 47.6902 27.8228C47.8891 27.8228 48.0382 27.7731 48.1376 27.6737C48.2371 27.6737 48.3365 27.6239 48.4359 27.5245C54.9984 24.5416 61.7099 23.0502 68.7198 23.0502Z" fill="#40F4FF"/>
<path d="M92.2852 25.8784C93.0309 27.519 93.6275 29.0104 94.0749 30.651C95.5664 31.5459 94.8207 31.0985 95.5664 31.5459C95.1189 30.2036 94.6715 28.7122 93.9258 26.7733C92.4343 25.8784 92.4343 25.8784 92.2852 25.8784Z" fill="#40F4FF"/>
<path fill-rule="evenodd" clip-rule="evenodd" d="M96.013 32.1484L95.4164 31.8501C95.1181 31.5519 95.1181 31.5519 94.9689 31.4027C94.9689 31.4027 94.969 31.4027 94.0741 30.8062H93.9249V30.657C93.4775 29.3147 92.8809 27.8233 92.1352 25.8844L91.8369 25.2878L92.4335 25.5861C92.5826 25.7353 92.5826 25.7353 93.4775 26.1827L94.0741 26.6301H94.2232C94.8198 28.4198 95.4164 29.9113 95.8638 31.5519L96.013 32.1484ZM94.3724 30.3587C94.8198 30.657 94.969 30.8062 95.1181 30.9553C94.6707 29.613 94.2232 28.2707 93.7758 26.9284L93.3284 26.6301C93.1295 26.5307 92.9306 26.4313 92.7318 26.3319C93.4775 27.9724 93.9249 29.1656 94.3724 30.3587Z" fill="#40F4FF"/>
<path d="M97.5049 29.0142C97.9523 30.3565 98.3997 31.6988 98.8472 33.9359L100.04 35.129C99.7421 33.041 99.5929 32.1462 98.9963 30.0582C98.8472 29.909 98.6981 29.7599 97.5049 29.0142Z" fill="#40F4FF"/>
<path fill-rule="evenodd" clip-rule="evenodd" d="M100.488 35.7248L98.5491 34.0842V33.9351C98.1016 31.6979 97.8033 30.5048 97.3559 29.1625L97.0576 28.4167L98.1016 29.1625C98.8473 29.6099 98.9965 29.759 99.1457 29.9082H99.2948V30.0573C99.8914 32.1453 100.041 33.0402 100.339 34.979L100.488 35.7248ZM98.9965 33.9351L99.7422 34.5316C99.5931 33.0402 99.2948 32.1453 98.8473 30.3556C98.6982 30.2064 98.549 30.0573 98.1016 29.759C98.3999 30.803 98.6982 31.9962 98.9965 33.9351Z" fill="#40F4FF"/>
<path d="M116.596 53.9236C118.982 61.0825 120.175 68.8379 118.982 77.4882C118.584 76.7922 118.137 76.1459 117.64 75.5494C118.236 69.1362 117.64 62.5739 115.701 56.3099C115.85 56.0116 115.999 55.5642 116.596 53.9236Z" fill="#40F4FF"/>
<path fill-rule="evenodd" clip-rule="evenodd" d="M118.982 77.7799C118.882 77.7799 118.833 77.7302 118.833 77.6307C118.336 76.9347 117.888 76.2885 117.49 75.6919C117.391 75.5925 117.341 75.5427 117.341 75.5427C117.938 69.1296 117.341 62.4181 115.402 56.4524C115.402 56.3529 115.402 56.2535 115.402 56.1541C115.551 55.7067 115.85 55.2592 116.297 53.7678C116.297 53.6684 116.397 53.6187 116.595 53.6187C116.695 53.6187 116.745 53.6684 116.745 53.7678C119.429 61.6724 120.324 69.4278 119.28 77.4816C119.28 77.581 119.23 77.6805 119.131 77.7799C119.131 77.7799 119.081 77.7799 118.982 77.7799ZM117.938 75.3936C118.236 75.8907 118.534 76.3879 118.833 76.885C119.728 69.2787 118.982 61.9707 116.595 54.6627C116.148 55.5575 115.999 56.005 115.999 56.3033H115.85C117.789 62.4181 118.534 68.9804 117.938 75.3936Z" fill="#40F4FF"/>
<path d="M23.9767 54.5142C22.883 57.6959 22.0875 60.9273 21.5904 64.2085C21.1927 63.5125 20.7452 62.8165 20.248 62.1205C20.5463 60.629 21.2921 57.3479 21.8887 55.8564C23.231 54.9616 23.5293 54.8124 23.9767 54.5142Z" fill="#40F4FF"/>
<path fill-rule="evenodd" clip-rule="evenodd" d="M21.5911 64.3567C21.4916 64.3567 21.4419 64.3567 21.4419 64.3567C20.9448 63.6607 20.4973 62.9647 20.0996 62.2687C20.0996 62.2687 20.0996 62.219 20.0996 62.1196C20.2488 60.6282 20.9945 57.347 21.5911 55.8556C21.5911 55.7561 21.6408 55.7064 21.7402 55.7064C22.9334 54.8115 23.3808 54.6624 23.6791 54.3641H23.8283C23.9277 54.2647 24.0271 54.2647 24.1265 54.3641C24.226 54.4636 24.2757 54.563 24.2757 54.6624C23.0825 57.7447 22.2871 60.9264 21.8894 64.2076C21.7899 64.307 21.6905 64.3567 21.5911 64.3567ZM20.547 62.1196C20.8453 62.6167 21.1436 63.0642 21.4419 63.4619C21.9391 60.5784 22.6351 57.7944 23.5299 55.1098C23.2317 55.259 22.7842 55.5573 22.0385 56.0047C21.5911 57.6453 20.8453 60.6282 20.547 62.1196Z" fill="#40F4FF"/>
<path d="M28.5996 44.9761C28.4504 44.3796 28.3013 42.1424 28.3013 39.7561C28.3013 39.7561 28.3013 39.7064 28.3013 39.607C32.0299 34.6852 39.6364 27.5264 49.48 23.4995L49.6291 24.0961C40.0838 27.8247 32.3282 34.9835 28.7487 39.9053C28.7487 42.1424 28.8979 44.2304 29.047 44.9761H28.5996Z" fill="#40F4FF"/>
<path d="M30.8367 41.8409C30.6875 40.0511 30.8367 38.2614 30.9858 36.6208H31.4333C31.2841 38.2614 31.2841 40.0511 31.2841 41.8409H30.8367Z" fill="#40F4FF"/>
<path d="M113.91 48.4021C111.971 47.5072 111.225 47.2089 109.436 46.4632C109.336 46.4632 109.287 46.4632 109.287 46.4632C108.839 45.7175 107.944 44.3752 107.049 43.182L107.497 42.8838C108.392 44.0769 109.137 45.4192 109.585 46.1649C111.375 46.7615 112.269 47.0598 114.208 47.9547L113.91 48.4021Z" fill="#40F4FF"/>
<path d="M34.5644 31.3944L34.2661 30.9469C43.9606 22.5949 56.3397 18.1206 69.0171 18.1206V18.7172C68.9177 18.7172 68.8183 18.7172 68.7188 18.7172C56.1906 18.7172 44.1097 23.1915 34.5644 31.3944Z" fill="#40F4FF"/>
<path d="M92.2841 31.6946C87.5115 28.8609 83.7828 27.5186 81.3965 26.922L81.5456 26.4746C83.9319 27.0712 87.6606 28.4134 92.5824 31.2472L92.2841 31.6946Z" fill="#40F4FF"/>
<path style="mix-blend-mode:screen" opacity="0.5" fill-rule="evenodd" clip-rule="evenodd" d="M114.358 70.9186C114.358 95.9747 93.9255 116.258 69.0181 116.258C43.9616 116.258 23.6777 95.9747 23.6777 70.9186C23.6777 45.8626 43.9616 25.5791 69.0181 25.5791C93.9255 25.5791 114.358 45.8626 114.358 70.9186ZM69.0181 48.8455C56.7881 48.8455 46.9445 58.6889 46.9445 70.9186C46.9445 83.1484 56.7881 92.9918 69.0181 92.9918C81.0989 92.9918 91.0917 83.1484 91.0917 70.9186C91.0917 58.6889 81.0989 48.8455 69.0181 48.8455Z" fill="url(#paint0_radial_822_2309)"/>
<path fill-rule="evenodd" clip-rule="evenodd" d="M69.0174 93.2982C64.9905 93.2982 61.1127 92.2542 57.8315 90.3153C54.4011 88.2273 51.5673 85.3936 49.6284 82.1124C47.6895 78.6821 46.6455 74.8044 46.6455 70.9267C46.6455 67.0489 47.6895 63.1712 49.6284 59.7409C51.5673 56.3106 54.4011 53.626 57.8315 51.538C61.1127 49.5992 64.9905 48.5552 69.0174 48.5552C72.8952 48.5552 76.773 49.5992 80.0542 51.538C83.4846 53.626 86.3183 56.3106 88.2572 59.7409C90.1961 63.1712 91.2401 67.0489 91.2401 70.9267C91.2401 74.8044 90.1961 78.6821 88.2572 82.1124C86.3183 85.3936 83.4846 88.2273 80.0542 90.3153C76.773 92.2542 72.8952 93.2982 69.0174 93.2982ZM69.0174 49.1517C65.1396 49.1517 61.411 50.0466 58.1298 51.9855C54.6994 53.9243 52.0148 56.7581 50.0759 60.0392C48.137 63.3204 47.093 67.0489 47.093 70.9267C47.093 74.8044 48.137 78.533 50.0759 81.8141C52.0148 85.0953 54.6994 87.929 58.1298 89.8679C61.411 91.6576 65.1396 92.7016 69.0174 92.7016C72.7461 92.7016 76.6239 91.6576 79.9051 89.8679C83.1863 87.929 85.8709 85.0953 87.8098 81.8141C89.7487 78.533 90.7927 74.8044 90.7927 70.9267C90.7927 67.0489 89.7487 63.3204 87.8098 60.0392C85.8709 56.7581 83.1863 53.9243 79.9051 51.9855C76.6239 50.0466 72.7461 49.1517 69.0174 49.1517Z" fill="#163C5B"/>
<path opacity="0.3" fill-rule="evenodd" clip-rule="evenodd" d="M60.6659 95.678C59.0253 95.678 57.3847 95.3797 55.5949 94.4849C52.0154 92.6951 50.3748 88.8175 48.8834 85.3872C48.4856 84.5917 48.1376 83.7963 47.8393 83.0009C47.4416 82.2054 47.0439 81.4597 46.6462 80.7637C44.8564 77.6317 43.2158 74.3505 43.2158 70.9202C43.2158 67.49 45.1547 64.2088 47.0936 61.2259C47.4913 60.5299 47.8891 59.8339 48.2868 59.1379C48.8834 58.0442 49.4799 57.0002 50.0765 56.0059C51.7171 52.5756 53.3577 49.4436 56.9372 48.2504C60.3676 46.9082 64.6928 46.6099 69.0181 46.4608C69.3164 46.4608 69.6644 46.4608 70.0621 46.4608C74.089 46.3116 77.6686 46.1625 81.3972 47.3556C85.4242 48.6979 87.363 52.4265 89.0036 55.8568C89.5008 56.8511 89.9979 57.7459 90.4951 58.5414C90.8928 59.1379 91.2906 59.7345 91.6883 60.3311C93.6272 63.6122 95.5661 66.8934 95.5661 70.7711C95.5661 74.6488 93.6272 77.1843 91.6883 79.8688C90.9425 80.7637 90.1968 81.8077 89.4511 82.8517C88.9539 83.6471 88.5065 84.4426 88.1088 85.238C86.4682 88.0717 84.9767 90.7563 81.9938 92.3969C78.5634 94.4849 74.2382 94.7832 70.3604 94.7832C68.4215 94.7832 66.6318 95.0814 64.9911 95.2306C63.4997 95.5289 62.0082 95.678 60.6659 95.678ZM48.7342 59.4362C48.3365 60.1322 47.9388 60.7785 47.541 61.3751C45.6021 64.5071 43.6632 67.6391 43.6632 70.9202C43.6632 74.2014 45.3039 77.3334 47.0936 80.4654C47.4913 81.2608 47.8891 82.0563 48.2868 82.8517C48.5851 83.5477 48.9331 84.3432 49.3308 85.238C50.6731 88.5192 52.3137 92.2477 55.7441 94.0375C58.8761 95.678 61.7099 95.2306 64.842 94.7832C66.6317 94.634 68.4215 94.3358 70.3604 94.3358C74.089 94.3358 78.4143 94.0375 81.6955 92.0986C84.5292 90.3089 86.0207 87.7734 87.6613 84.9397C88.059 84.2437 88.5065 83.498 89.0036 82.7026C89.7494 81.5094 90.4951 80.6145 91.2408 79.5705C93.1797 76.886 95.1186 74.4997 95.1186 70.7711C95.1186 67.0425 93.1797 63.7614 91.2408 60.6294C90.8431 60.0328 90.4454 59.4362 90.0477 58.8396C89.5505 57.9448 89.0534 57.0002 88.5562 56.0059C86.9156 52.5756 85.1259 48.9962 81.2481 47.803C77.6686 46.6099 74.089 46.759 70.0621 46.9082C69.7638 46.9082 69.4158 46.9082 69.0181 46.9082C64.842 47.0573 60.3676 47.3556 57.0864 48.6979C53.656 49.8911 52.1646 52.8739 50.524 56.1551C49.9274 57.2488 49.3308 58.3425 48.7342 59.4362Z" fill="#FCEE0A"/>
<path opacity="0.6" fill-rule="evenodd" clip-rule="evenodd" d="M57.3836 99.7051C56.0413 99.7051 54.699 99.4069 53.2075 98.6611C49.1806 96.7223 47.9874 91.9497 47.0925 87.9228C46.6451 86.4314 46.3468 85.0891 45.8994 84.0451C45.1536 82.2553 44.1096 80.6148 43.0656 79.1233C41.425 76.2896 39.6353 73.6051 39.6353 71.0696C39.6353 68.0867 41.7233 65.4022 43.9605 62.7176C45.0045 61.3753 46.1977 59.8839 47.0925 58.5416C48.1366 56.7519 48.7332 54.813 49.4789 52.8741C50.6721 49.1455 52.0144 45.5661 55.8922 44.8204C58.2785 44.3729 61.1123 44.373 63.946 44.373C65.7358 44.373 67.3764 44.5221 69.017 44.373C70.9559 44.2238 72.5965 43.9255 74.3863 43.6272C77.0709 43.0307 79.7555 42.5832 82.5893 43.0306C87.6602 43.9255 89.45 48.6981 90.7923 52.8741C91.3889 54.5147 91.9855 56.1553 92.7312 57.4976C93.4769 58.6907 94.521 59.8838 95.4158 61.077C97.653 63.9107 99.8902 66.8936 99.8902 70.7713C99.8902 74.7982 97.3547 77.0354 94.6701 79.4217C93.3278 80.7639 91.6872 82.1062 90.6431 83.7468C89.5991 85.3874 88.8534 87.1771 88.2568 88.5194C87.2128 91.0548 86.3179 93.1428 83.7824 94.6342C80.9487 96.5731 77.22 96.424 73.4914 96.424C72.9942 96.424 72.4473 96.424 71.8508 96.424C68.5695 96.424 66.0341 97.3188 63.4986 98.2137C61.4106 98.9594 59.4717 99.7051 57.3836 99.7051ZM47.54 58.6907C46.6451 60.1821 45.4519 61.6736 44.4079 63.0159C42.1707 65.7005 40.2319 68.2359 40.2319 71.0696C40.2319 73.4559 41.8725 76.1405 43.5131 78.825C44.5571 80.4656 45.6011 82.1062 46.3468 83.7468C46.7943 84.9399 47.2417 86.2822 47.54 87.9228C48.4349 91.6514 49.628 96.424 53.5058 98.2137C57.0853 100.003 60.0683 98.9594 63.3495 97.7663C65.7358 96.8714 68.4204 95.8274 71.8508 95.8274C72.4473 95.8274 72.9942 95.8771 73.4914 95.9765C77.0709 95.9765 80.7995 95.9766 83.6333 94.336C85.8705 92.8446 86.7654 90.9057 87.8094 88.3703C88.406 86.8788 89.1517 85.2382 90.1957 83.4485C91.3889 81.8079 92.8803 80.3165 94.3718 78.9742C97.0564 76.737 99.4427 74.4999 99.4427 70.7713C99.4427 67.0427 97.2056 64.209 94.9684 61.3753C94.0735 60.1821 93.0295 58.989 92.2838 57.6467C91.538 56.4536 90.9415 54.813 90.3449 53.0233C89.0026 48.9964 87.3619 44.373 82.4401 43.6272C79.7555 43.0307 77.22 43.6272 74.3863 44.0747C72.7456 44.3729 70.9559 44.6712 69.017 44.8204C67.3764 44.9695 65.5866 44.9695 63.946 44.9695C61.1123 44.8204 58.2785 44.8204 56.0413 45.2678C52.3127 46.0135 51.2686 49.2947 49.9263 53.0233C49.1806 54.9621 48.584 56.901 47.54 58.6907Z" fill="#FCEE0A"/>
<path opacity="0.9" fill-rule="evenodd" clip-rule="evenodd" d="M54.9985 103.881C53.8053 103.881 52.463 103.583 50.9715 102.986C46.1989 100.749 45.4531 94.7833 45.0057 89.8616C44.7074 87.7736 44.5582 86.133 44.1108 84.9398C43.2159 82.7027 41.5753 80.6147 40.0839 78.5267C37.9958 75.9912 36.2061 73.4558 36.2061 71.0695C36.2061 68.2358 38.5924 65.8495 41.1279 63.1649C42.9176 61.5243 44.5582 59.7346 45.7514 57.7958C47.0937 55.5586 47.8395 52.874 48.436 50.1894C49.3309 45.8643 50.3749 41.8374 54.9985 41.39C56.9374 41.2409 59.3237 41.5391 61.8592 41.8374C64.3947 42.1357 66.9301 42.434 69.0182 42.2848C71.5537 41.9865 73.6417 41.2408 75.7297 40.4951C78.4144 39.4511 80.9498 38.5563 83.7836 38.8545C90.1969 39.302 91.6884 45.1186 93.0307 50.3386C93.4781 52.5757 94.0747 54.8129 94.9696 56.3043C96.0136 57.9449 97.3559 59.4363 98.8474 60.9277C101.532 63.7615 104.217 66.5952 104.217 70.6221C104.217 75.0964 101.085 77.3335 97.6542 79.5707C95.417 81.0621 93.329 82.5536 91.8375 84.6416C90.3461 86.8787 89.7495 88.9667 89.302 90.9056C88.5563 93.2919 88.1089 95.3799 85.7225 96.8713C83.1871 98.5119 79.7567 98.3628 76.4755 98.0645C75.3817 98.0645 74.3377 98.0147 73.3434 97.9153C69.0182 97.9153 65.5878 99.705 62.7541 101.346C60.2186 102.688 57.8322 103.881 54.9985 103.881ZM46.1989 58.094C45.0057 60.0329 43.2159 61.8226 41.5753 63.6123C39.0398 65.9986 36.6535 68.3849 36.6535 71.0695C36.6535 73.3067 38.4432 75.6929 40.3821 78.2284C42.0228 80.3164 43.6634 82.4044 44.5582 84.7907C45.0057 85.9838 45.1548 87.7736 45.4531 89.7124C46.0497 94.485 46.6463 100.451 51.1207 102.539C55.595 104.478 58.7271 102.837 62.4558 100.898C65.4387 99.2576 68.869 97.4679 73.3434 97.4679C74.3874 97.4679 75.4315 97.617 76.4755 97.617C79.7567 97.7662 83.0379 98.0645 85.4242 96.4239C87.6614 95.0816 88.1089 93.1427 88.7055 90.7564C89.302 88.8175 89.8986 86.5804 91.3901 84.3433C92.8815 82.1061 95.1187 80.6147 97.3559 79.1232C100.637 76.8861 103.769 74.7981 103.769 70.6221C103.769 66.8935 101.085 64.0598 98.4 61.226C97.0576 59.7346 95.5662 58.2432 94.5221 56.4534C93.6273 54.962 93.0307 52.7249 92.4341 50.4877C91.2409 45.4168 89.7495 39.7494 83.7836 39.302C80.9498 39.1528 78.5635 40.0477 75.8789 40.9425C73.7909 41.6883 71.5537 42.434 69.0182 42.7323C66.9301 42.8814 64.3947 42.5831 61.8592 42.2848C59.3237 41.9865 56.9374 41.6883 54.9985 41.8374C50.8224 42.2848 49.9275 46.0134 48.8835 50.3386C48.2869 53.0232 47.6903 55.7077 46.1989 58.094Z" fill="#FCEE0A"/>
<path fill-rule="evenodd" clip-rule="evenodd" d="M52.9091 108.206C51.5668 108.206 50.2245 107.907 48.5839 107.162C43.2146 104.775 42.9163 97.169 42.7672 91.5015C42.618 89.1152 42.618 87.1764 42.1706 85.9832C41.2757 83.1495 39.0385 80.6141 36.9505 78.2278C34.8624 75.8415 32.7744 73.4552 32.7744 71.2181C32.7744 68.3843 35.459 65.998 38.4419 63.4626C40.6791 61.5237 43.0655 59.5849 44.4078 57.1986C46.1975 54.3648 46.7941 50.7854 47.2416 47.6534C47.9873 42.4334 48.733 37.9591 54.1023 37.9591C55.892 37.9591 58.1292 38.5557 60.6647 39.0031C63.6476 39.7488 66.7797 40.3454 69.0169 40.0471C71.8507 39.7488 74.3861 38.5557 76.6233 37.2134C79.4571 35.8711 81.9926 34.5288 85.1247 34.5288C92.7311 34.5288 94.0734 41.6877 95.1174 47.9517C95.714 50.7854 96.1615 53.47 97.2055 55.1106C98.3986 57.0494 100.338 58.69 102.127 60.3306C105.259 63.3134 108.541 66.2963 108.541 70.4724C108.541 75.5432 104.663 77.6312 100.487 79.8684C97.6529 81.3598 94.8192 83.0004 93.0294 85.3867C91.0905 88.2204 90.7922 90.7558 90.4939 92.993C90.1956 95.3792 89.8973 97.6164 87.511 99.1078C85.2738 100.748 81.9926 100.301 78.7114 99.8536C77.3691 99.7044 76.0267 99.5553 74.8336 99.5553C69.4643 99.5553 65.4374 102.091 62.007 104.328C59.0241 106.267 56.1903 108.206 52.9091 108.206ZM54.1023 38.5557C49.1805 38.5557 48.5839 42.5825 47.689 47.8026C47.2416 50.9346 46.645 54.514 44.8552 57.4969C43.3638 59.8832 40.9774 61.822 38.7403 63.7609C35.9065 66.2963 33.2218 68.5335 33.2218 71.2181C33.2218 73.1569 35.1607 75.5432 37.3979 77.9295C39.3368 80.3158 41.7232 82.8512 42.618 85.8341C43.0655 87.0272 43.2146 89.1152 43.2146 91.5015C43.5129 97.3181 43.6621 104.477 48.8822 106.714C53.9531 109.1 57.5326 106.714 61.7087 104.03C65.2882 101.643 69.3152 99.1078 74.8336 99.1078C76.0267 99.1078 77.5182 99.257 78.8605 99.4061C81.8434 99.8536 85.1247 100.152 87.3619 98.6604C89.4499 97.3181 89.7482 95.3793 90.0465 92.8438C90.3448 90.6067 90.6431 87.9221 92.582 85.0884C94.3717 82.5529 97.3546 81.0615 100.188 79.421C104.215 77.3329 108.093 75.2449 108.093 70.4724C108.093 66.4455 104.961 63.6118 101.829 60.778C99.8901 59.1375 97.9512 57.3477 96.7581 55.4089C95.714 53.6192 95.2666 50.9346 94.67 47.9517C93.626 41.986 92.2837 35.1254 85.1247 35.1254C82.1418 35.1254 79.6063 36.3185 76.9216 37.6608C74.5353 39.0031 71.9998 40.1963 69.0169 40.6437C66.7797 40.942 63.6477 40.1962 60.5156 39.5997C58.1292 39.0031 55.7429 38.5557 54.1023 38.5557Z" fill="#FCEE0A"/>
<defs>
<filter id="filter0_f_822_2309" x="0.725098" y="0.467773" width="138" height="151" filterUnits="userSpaceOnUse" color-interpolation-filters="sRGB">
<feFlood flood-opacity="0" result="BackgroundImageFix"/>
<feBlend mode="normal" in="SourceGraphic" in2="BackgroundImageFix" result="shape"/>
<feGaussianBlur stdDeviation="25" result="effect1_foregroundBlur_822_2309"/>
</filter>
<radialGradient id="paint0_radial_822_2309" cx="0" cy="0" r="1" gradientUnits="userSpaceOnUse" gradientTransform="translate(10697.8 18001.3) scale(2755.79 2755.74)">
<stop offset="0.49"/>
<stop offset="1" stop-color="#163C5B"/>
</radialGradient>
</defs>
</svg>
