<svg width="370" height="223" viewBox="0 0 370 223" fill="none" xmlns="http://www.w3.org/2000/svg">
<path d="M6 205.453H26.5766L36.5192 221.687H215.338L221.873 211.016H284.755L289.414 203.41H336.378L364 158.311V0.999785H51.3344L44.0091 12.96H21.3419L14.0166 0.999785H6V83.0014L11.5804 92.1127V176.426L6.5103 184.677L6 205.453Z" stroke="#FCEE0A" stroke-width="2" stroke-miterlimit="10"/>
<path d="M316.394 203.407H336.378L364 158.308V136.779" stroke="#FCEE0A" stroke-width="12" stroke-miterlimit="10"/>
<path d="M258.016 211.668L254.76 216.984H218.808L222.147 211.668H258.016Z" fill="#FCEE0A" stroke="#FCEE0A"/>
<path d="M21.6229 12.373L16.0838 3.40167H30.7102L36.2049 12.373H21.6229Z" fill="#FCEE0A" stroke="#FCEE0A"/>
<path d="M6 56.8206V15.645" stroke="#FCEE0A" stroke-width="12" stroke-miterlimit="10"/>
<path d="M23.0372 210.357L30.4743 222.5H6.5V210.357H23.0372Z" fill="#FCEE0A" stroke="#FCEE0A"/>
<path d="M8.4248 181.557L11.5854 176.424V92.1106L8.4248 86.9771" stroke="#FCEE0A" stroke-width="12" stroke-miterlimit="10"/>
<path opacity="0.1" d="M29.4945 199.763L29.3483 199.524H29.068H10.4997L10.4417 194.76L17.4941 183.245L17.5677 183.125V182.984V87.1411V87.0002L17.4941 86.88L11.3618 76.8675V12.9231H14.1209L18.2545 19.6723L18.4008 19.9112H18.6809H48.1137H48.3938L48.5401 19.6723L55.3075 8.62283H358.962V153.87L333.552 195.358H286.407H286.128L285.981 195.597L281.058 203.61H219.937H219.656L219.51 203.848L212.348 215.543H39.1428L29.4945 199.763Z" fill="#02D7F2" stroke="#FCEE0A"/>
</svg>
