<svg width="715" height="303" viewBox="0 0 715 303" fill="none" xmlns="http://www.w3.org/2000/svg">
<path d="M455.573 33.0703H312.458L297.063 3.99123H82.676V0H299.914L314.739 29.0791H453.292L468.687 0H712.724V3.99123H470.968L455.573 33.0703Z" fill="#02D7F2"/>
<path fill-rule="evenodd" clip-rule="evenodd" d="M146.532 302.195H1.13599V108.904L1.70637 107.764L98.6368 11.4033H292.498L307.893 40.4824H460.13L475.525 11.4033H715V184.167L714.43 184.738L626.622 272.545H173.33L146.532 302.195ZM5.12731 298.203H144.821L171.62 268.554H624.912L711.009 183.027V15.3946H478.376L462.981 45.0438H305.612L290.217 15.3946H100.347L5.12731 110.614V298.203Z" fill="#02D7F2"/>
<path opacity="0.15" d="M103.77 25.0869H284.517L299.912 54.1661H468.685L484.08 25.0869H701.318V178.465L620.923 258.86H167.06L140.262 288.51H14.8225V114.035L103.77 25.0869Z" fill="#02D7F2"/>
<path d="M633.462 289.651H187.012V285.66H631.752L709.296 208.686L712.147 211.537L633.462 289.651Z" fill="#02D7F2"/>
<path d="M484.081 25.0869L477.809 36.4905H701.319V25.0869H484.081Z" fill="#02D7F2"/>
<path d="M18.8159 283.948H14.2545V114.035L101.492 27.3677L104.343 30.2186L18.8159 115.745V283.948Z" fill="#02D7F2"/>
<path d="M626.623 289.649H651.141L714.431 226.359V203.552L626.623 289.649Z" fill="#02D7F2"/>
<path d="M103.768 25.0869L92.3646 36.4905H290.787L284.515 25.0869H103.768Z" fill="#02D7F2"/>
<path d="M151.665 276.537L140.262 288.51H14.8225V276.537H151.665Z" fill="#02D7F2"/>
<path d="M308.465 0L319.868 22.8072H447.588L459.562 0H308.465Z" fill="#02D7F2"/>
<path d="M90.6582 0H66.1406L0 66.1407V88.3777L90.6582 0Z" fill="#02D7F2"/>
</svg>
