<svg width="324" height="324" viewBox="0 0 324 324" fill="none" xmlns="http://www.w3.org/2000/svg">
<path fill-rule="evenodd" clip-rule="evenodd" d="M0 162C0 72.5986 72.5986 0 162 0C251.273 0 324 72.5986 324 162C324 251.273 251.273 324 162 324C72.5986 324 0 251.273 0 162ZM3.7199 162C3.7199 249.221 74.7792 320.152 162 320.152C249.221 320.152 320.152 249.221 320.152 162C320.152 74.6509 249.221 3.71971 162 3.71971C74.7792 3.71971 3.7199 74.6509 3.7199 162Z" fill="#FCEE0A"/>
<path d="M122.75 219.982C126.727 217.929 128.907 217.16 132.242 216.518C147.121 315.796 223.695 321.055 275.771 255.896C299.757 225.754 303.349 196.252 305.016 182.143C305.401 182.015 305.786 181.887 306.042 181.887C306.299 182.143 306.556 182.4 306.812 182.656C306.812 182.528 308.351 175.473 305.786 173.165C301.938 175.217 300.142 187.659 299.886 190.993C301.425 187.53 301.681 187.146 302.579 185.35C294.114 266.799 206.893 330.675 159.178 269.364C143.786 249.611 141.99 229.73 140.708 216.647C144.556 217.416 146.992 218.571 150.712 220.623C150.84 213.44 144.94 207.925 136.731 207.283C128.394 207.54 122.494 212.799 122.75 219.982Z" fill="#FCEE0A"/>
<path d="M269.102 162.64C272.309 181.239 276.67 189.448 280.775 184.574C291.421 172.004 280.39 128.65 270.642 128.778C270.385 128.778 270.129 128.906 269.872 128.906C264.357 132.37 267.948 155.586 269.102 162.64Z" fill="#FCEE0A"/>
<path d="M179.317 177.268C180.856 197.149 189.322 208.18 196.761 199.971C208.818 186.631 202.918 145.33 188.937 144.688C180.215 146.484 178.419 165.596 179.317 177.268Z" fill="#FCEE0A"/>
</svg>
