<svg width="523" height="172" viewBox="0 0 523 172" fill="none" xmlns="http://www.w3.org/2000/svg">
<rect width="523" height="172" fill="#0E2108" fill-opacity="0.8"/>
<g clip-path="url(#clip0_0_1)">
<path fill-rule="evenodd" clip-rule="evenodd" d="M0.526236 22.1995V152.749L15.6757 167.956H392.877L408.184 152.591L430.998 129.712H481.767C481.767 129.712 522.729 170.581 522.729 171.351V155.057L478.678 110.839V29.373L454.331 4.93311H17.7046L0.526236 22.1995ZM454.151 5.3857L478.228 29.5767V111.043L478.363 111.156L522.301 155.261V170.106C521.444 169.156 519.821 167.458 516.665 164.222C513.26 160.715 508.526 155.917 502.575 149.921C492.453 139.737 482.195 129.486 482.105 129.396L481.97 129.26H430.818L430.683 129.396L407.891 152.274L392.697 167.526H15.9011L0.97711 152.546V22.3805L17.93 5.3857H454.151Z" fill="#02D7F2"/>
<path d="M506.883 171.827L476.674 141.48H436.05L414.296 163.318V172.325H507.401L506.883 171.827Z" stroke="#02D7F2" stroke-width="2" stroke-miterlimit="10"/>
<g opacity="0.1">
<path d="M522.729 171.351V155.057L478.678 110.839V29.373L454.331 4.93311H17.7046L0.526243 22.1995V152.749L15.6756 167.956H392.877L408.184 152.591L430.998 129.712H481.767C481.767 129.712 522.729 170.581 522.729 171.351Z" fill="#02D7F2"/>
</g>
<g opacity="0.1">
<path d="M506.883 171.827L476.674 141.48H436.05L414.296 163.318V172.325H507.401L506.883 171.827Z" fill="#02D7F2"/>
</g>
<path opacity="0.1" d="M131.618 5.31783L121.969 15.0259H33.0796L17.6147 30.5498V146.911L30.7576 160.104H211.626L219.741 168.251H15.6759L0.368755 152.885V22.1995L17.6371 4.86523C17.6371 4.86523 132.204 5.90619 131.618 5.31783Z" fill="#02D7F2"/>
<path opacity="0.1" d="M466.507 141.887L470.948 146.345H476.359L492.77 162.819L486.886 168.748H446.781L443.174 172.369H507.401L476.652 141.502L466.507 141.887Z" fill="#02D7F2"/>
<path opacity="0.1" d="M327.185 5.70252L335.865 14.4375H445.81L468.534 37.2255V109.301L460.261 117.583H419.164L368.981 167.934H392.878L430.977 129.69H481.768L523 171.079V155.057L478.814 110.704V29.373L454.399 4.86523C454.399 4.86523 326.396 4.93311 327.185 5.70252Z" fill="#02D7F2"/>
<path d="M518.492 151.475V166.413L515.809 163.687V148.601L518.492 151.475Z" fill="#02D7F2"/>
<path d="M513.982 146.401V161.695L510.976 159.042V143.592L513.982 146.401Z" fill="#02D7F2"/>
<path d="M507.971 140.288V155.789L505.289 153.096L504.965 137.286L507.971 140.288Z" fill="#02D7F2"/>
<path d="M503.012 135.31V150.834L500.351 148.141L500.081 132.383L503.012 135.31Z" fill="#02D7F2"/>
<path d="M498.074 130.331V145.855L495.391 143.162L494.82 127.48L498.074 130.331Z" fill="#02D7F2"/>
<path d="M478.543 59.1084L482.601 55.035V20.706L461.951 0H402.661L400.339 2.33083H386.7L383.859 5.18217H454.579L478.746 29.441C478.746 29.441 478.926 59.1084 478.543 59.1084Z" fill="#02D7F2"/>
<path d="M12.7234 5.20523L0.549782 17.4252V5.13733L12.7234 5.20523Z" fill="#02D7F2"/>
<path d="M0.617461 132.18L9.20664 140.802V148.27L25.3028 164.427H144.965L148.324 167.799H15.6767L0.595006 152.66C0.595006 152.66 0.617461 131.795 0.617461 132.18Z" fill="#02D7F2"/>
<path d="M229.684 5.31787L227.227 7.80711H106.212L103.101 10.93H46.5162L43.5629 7.98813H32.5842L29.5408 4.91052L229.684 5.31787Z" fill="#02D7F2"/>
</g>
<defs>
<clipPath id="clip0_0_1">
<rect width="523" height="172" fill="white"/>
</clipPath>
</defs>
</svg>
