<svg width="49" height="49" viewBox="0 0 49 49" fill="none" xmlns="http://www.w3.org/2000/svg">
<g id="Group">
<path id="Vector" d="M24.5547 0.0146484L24.4453 0.0146484C11.2207 0.0146484 0.5 10.7353 0.5 23.96V24.0693C0.5 37.2939 11.2207 48.0147 24.4453 48.0147H24.5547C37.7793 48.0147 48.5 37.2939 48.5 24.0693V23.96C48.5 10.7353 37.7793 0.0146484 24.5547 0.0146484Z" fill="#02D7F2"/>
<path id="Vector_2" d="M9.59112 23.1963C9.65839 23.1627 9.72569 23.1307 9.79127 23.1005C10.9314 22.5724 12.0868 22.078 13.2404 21.5836C13.3026 21.5836 13.4068 21.5113 13.4657 21.4877C13.5548 21.4491 13.644 21.4121 13.7331 21.3734C13.9046 21.2994 14.0762 21.2271 14.246 21.1531C14.5891 21.0068 14.9304 20.8605 15.2735 20.7142L17.3268 19.8347C18.6957 19.2494 20.0663 18.6625 21.4352 18.0773C22.8041 17.4921 24.1746 16.9052 25.5435 16.32C26.9124 15.7347 28.2829 15.1478 29.6518 14.5626C31.0207 13.9774 32.3913 13.3905 33.7602 12.8053C34.0646 12.6741 34.3942 12.479 34.7204 12.4218C34.9945 12.3731 35.2619 12.2789 35.5377 12.2268C36.0607 12.1276 36.6375 12.0872 37.1386 12.3041C37.3118 12.3798 37.4716 12.4858 37.6045 12.6186C38.2401 13.2476 38.151 14.2801 38.0165 15.1647C37.0798 21.3297 36.1431 27.4964 35.2047 33.6614C35.0769 34.5073 34.902 35.4355 34.2344 35.9703C33.6693 36.4227 32.8655 36.4731 32.1676 36.2814C31.4697 36.088 30.8542 35.6828 30.2505 35.2842C27.7465 33.6261 25.2408 31.9679 22.7368 30.3098C22.1415 29.9163 21.4789 29.4017 21.4856 28.687C21.489 28.2565 21.7463 27.8731 22.0086 27.5317C24.1847 24.693 27.3244 22.7423 29.6602 20.0348C29.9898 19.653 30.2488 18.9636 29.7965 18.7433C29.5274 18.6121 29.2179 18.7903 28.9724 18.9602C25.8849 21.1043 22.799 23.2501 19.7115 25.3943C18.7041 26.0938 17.6481 26.8136 16.4339 26.9851C15.3475 27.1399 14.2544 26.8371 13.2034 26.5277C12.3222 26.2687 11.4427 26.003 10.5665 25.7289C10.1007 25.5843 9.61972 25.4279 9.25984 25.1C8.89996 24.7721 8.69314 24.2205 8.91008 23.7832C9.04629 23.5091 9.31032 23.3359 9.5878 23.1946L9.59112 23.1963Z" fill="#0B0B0F"/>
</g>
</svg>
