<svg width="304" height="301" viewBox="0 0 304 301" fill="none" xmlns="http://www.w3.org/2000/svg">
<g filter="url(#filter0_f_767_970)">
<rect x="134" y="126" width="38" height="51" fill="#FCEE0A"/>
</g>
<path d="M170.864 161.304V175H166V162.648L159.856 156.184H143.984V175H139.12V130.2H164.72L170.608 136.088V150.232L165.424 155.416L170.864 161.304ZM143.984 151.96H162.608L165.808 148.824V137.56L162.608 134.424H143.984V151.96Z" fill="#FCEE0A"/>
<path d="M272.6 235.972V234.412C277.669 233.632 280.009 233.242 281.569 232.852L281.959 232.462C291.709 216.473 298.339 198.144 301.459 179.424C299.119 175.914 296.779 173.184 291.709 167.335C291.709 167.335 291.709 167.205 291.709 166.945C294.049 140.426 288.979 114.297 277.28 90.8976L278.449 90.1177C290.149 113.907 295.219 140.036 292.879 166.945C297.949 172.405 300.289 175.524 302.629 178.644C302.889 178.904 303.019 179.164 303.019 179.424C299.899 198.144 292.879 217.253 282.739 233.632C282.739 233.632 282.609 233.762 282.349 234.022H281.959C280.399 234.412 278.059 234.802 272.6 235.972Z" fill="#40F4FF"/>
<path d="M272.602 235.19C254.273 262.099 228.534 281.599 199.675 292.128C200.455 290.308 201.235 288.488 202.015 286.669C229.314 276.139 251.933 257.42 266.753 235.97C269.872 235.58 269.482 235.58 272.602 235.19Z" fill="#40F4FF"/>
<path fill-rule="evenodd" clip-rule="evenodd" d="M198.503 292.906L199.283 291.735C200.063 289.786 200.843 288.226 201.233 286.276H201.623C227.753 275.746 250.762 257.807 266.361 235.578L266.751 235.188C269.091 235.188 269.481 235.188 271.431 234.798L273.771 234.408L272.991 235.578C255.442 262.097 230.092 281.986 200.063 292.515L198.503 292.906ZM202.403 287.056C201.883 288.096 201.363 289.266 200.843 290.566C229.312 280.036 253.882 261.317 271.041 235.968C269.481 236.358 269.091 236.358 267.141 236.358C251.542 258.977 228.532 276.916 202.403 287.056Z" fill="#40F4FF"/>
<path d="M296.782 142.374C297.172 151.734 297.172 159.923 296.002 171.233C294.702 169.673 293.532 168.243 292.492 166.943C292.882 158.363 293.272 151.344 292.102 138.864C293.662 140.164 295.222 141.334 296.782 142.374Z" fill="#40F4FF"/>
<path fill-rule="evenodd" clip-rule="evenodd" d="M296.39 172.794L295.61 171.625C294.44 170.455 293.27 168.895 291.71 167.335V166.945V166.165C292.1 157.585 292.88 150.955 291.32 139.256V137.696L292.49 138.476C294.05 139.516 295.61 140.686 297.17 141.986V142.376C297.95 151.345 297.95 159.535 296.78 171.235L296.39 172.794ZM292.88 166.555C293.66 167.595 294.44 168.635 295.22 169.675C296.39 159.145 296.39 151.345 295.61 142.766C294.83 141.986 293.79 141.206 292.49 140.426C293.66 151.735 293.27 158.365 292.88 166.165V166.555Z" fill="#40F4FF"/>
<path d="M278.838 92.4551C277.668 93.235 276.109 92.845 275.719 91.6751C274.939 90.5051 275.719 88.9452 276.888 88.5552C278.058 87.7753 279.618 88.1652 280.008 89.3351C280.788 90.5051 280.008 92.0651 278.838 92.4551Z" fill="#40F4FF"/>
<path d="M189.145 290.959C188.105 292.519 187.195 294.209 186.415 296.028C191.485 294.859 189.925 295.249 193.045 294.079C193.825 292.519 194.605 290.829 195.385 289.009C193.305 289.789 191.225 290.439 189.145 290.959Z" fill="#40F4FF"/>
<path fill-rule="evenodd" clip-rule="evenodd" d="M184.855 297.199L185.635 295.639C186.675 294.079 187.585 292.389 188.365 290.569H188.755V290.179C190.315 289.919 191.745 289.529 193.044 289.009C193.824 288.749 194.604 288.489 195.384 288.229L196.554 287.839L196.164 289.399C195.384 290.959 194.604 292.649 193.825 294.469L193.435 294.859L192.264 295.249C190.705 295.639 190.705 295.639 188.365 296.029L184.855 297.199ZM189.535 291.739C188.755 293.039 188.105 294.209 187.585 295.249H187.975C190.315 294.469 190.315 294.469 191.875 294.079H192.654C193.174 292.779 193.694 291.479 194.214 290.179C193.954 290.439 193.694 290.569 193.435 290.569C192.135 291.089 190.835 291.479 189.535 291.739Z" fill="#40F4FF"/>
<path d="M175.882 294.077C174.842 295.637 173.802 297.197 172.762 298.757C178.612 297.977 177.052 297.977 179.392 297.587C180.432 296.027 181.472 294.338 182.512 292.518C176.662 293.688 176.662 293.688 175.882 294.077Z" fill="#40F4FF"/>
<path fill-rule="evenodd" clip-rule="evenodd" d="M171.206 299.538L171.986 298.368C173.026 296.808 174.066 295.248 175.106 293.688L175.496 293.298C176.276 293.298 176.666 293.298 179.786 292.518L183.686 291.738L182.906 292.908C182.126 294.468 181.216 296.158 180.176 297.978H179.786L178.616 298.368C177.836 298.758 177.836 298.758 175.106 299.148L171.206 299.538ZM175.886 294.468C175.366 295.508 174.716 296.548 173.936 297.588H174.716C177.446 297.198 177.446 297.198 178.226 296.808H179.006C179.786 295.768 180.436 294.598 180.956 293.298L179.786 293.688C177.056 294.078 176.666 294.468 175.886 294.468Z" fill="#40F4FF"/>
<path d="M162.235 295.638C161.195 297.198 160.025 298.758 158.725 300.318C165.355 299.538 163.405 299.928 165.744 299.538C166.784 297.978 167.954 296.418 169.254 294.858C162.235 295.638 164.575 295.638 162.235 295.638Z" fill="#40F4FF"/>
<path fill-rule="evenodd" clip-rule="evenodd" d="M157.164 300.71L158.334 299.54C159.374 298.24 160.544 296.81 161.844 295.25L162.234 294.86C162.754 294.86 163.144 294.86 163.404 294.86C163.794 294.86 163.794 294.86 166.134 294.86L170.424 294.08L169.644 295.25C168.604 296.81 167.434 298.37 166.134 299.93V300.32H165.744C165.484 300.32 165.224 300.32 164.964 300.32C164.184 300.32 164.184 300.32 161.454 300.71H157.164ZM162.624 296.03C161.844 297.07 160.934 298.11 159.894 299.15H161.454C163.794 298.76 163.794 298.76 164.574 298.76C164.834 298.76 165.094 298.76 165.354 298.76C166.134 297.72 166.914 296.68 167.694 295.64H166.134C163.794 296.03 163.794 296.03 163.404 296.03C163.144 296.03 162.884 296.03 162.624 296.03Z" fill="#40F4FF"/>
<path d="M244.912 262.879H243.742C243.742 260.149 244.132 257.809 243.742 255.079C243.742 255.079 243.872 254.949 244.132 254.689C251.542 247.669 258.172 239.87 264.021 231.68C264.021 231.42 264.151 231.29 264.411 231.29C271.041 230.51 274.941 229.73 279.231 228.56C283.131 222.32 286.251 216.081 288.59 209.841C288.59 209.581 288.721 209.451 288.981 209.451L290.15 209.061C291.71 208.281 291.71 208.281 292.88 207.891L294.05 207.501L294.44 208.671L293.66 209.061C292.49 209.451 292.49 209.451 290.54 210.231L289.76 210.621C287.031 216.861 284.301 223.1 280.401 229.73C280.141 229.73 280.011 229.86 280.011 230.12C275.331 230.9 271.431 231.68 264.801 232.85C259.341 241.04 252.712 248.449 245.302 255.469C245.302 258.199 245.302 260.539 244.912 262.879Z" fill="#40F4FF"/>
<path d="M235.554 279.259C235.294 279.259 235.164 279.259 235.164 279.259C233.344 278.739 231.525 278.349 229.705 278.089V276.529C231.525 277.049 233.344 277.569 235.164 278.089C241.664 273.409 247.904 268.339 253.884 262.879C253.884 261.059 253.884 259.239 253.884 257.419H255.054C255.054 259.239 255.054 261.059 255.054 262.879V263.269C255.054 263.529 254.924 263.659 254.664 263.659C248.944 269.379 242.704 274.579 235.944 279.259C235.684 279.259 235.554 279.259 235.554 279.259Z" fill="#40F4FF"/>
<path d="M32.7605 76.0765L31.5906 75.6865C46.4101 53.4573 67.0794 35.908 90.8687 24.5984C92.4286 19.5286 93.9885 15.6288 96.3285 10.169C96.5885 9.909 96.7185 9.77898 96.7185 9.77898C115.048 3.14923 134.157 -0.360638 153.657 0.0293471C153.917 0.0293471 154.047 0.159366 154.047 0.419356C157.167 3.53924 158.337 4.70917 160.676 7.82906L159.896 8.60907C157.557 5.87918 156.386 4.31914 153.267 1.19926C134.547 1.19926 115.048 4.31914 97.4984 10.9489C95.1585 16.0187 93.5986 20.3086 92.0386 25.3784C92.0386 25.3784 91.9086 25.5084 91.6486 25.7684C67.8594 36.688 47.58 54.2373 32.7605 76.0765Z" fill="#40F4FF"/>
<path d="M160.285 8.21924C190.314 9.77918 221.123 21.8687 245.693 42.9279C243.873 43.1879 242.053 43.4479 240.233 43.7079C217.224 25.3786 190.314 14.849 163.795 12.5091C162.755 11.2092 161.585 9.77918 160.285 8.21924Z" fill="#40F4FF"/>
<path fill-rule="evenodd" clip-rule="evenodd" d="M239.842 44.489V44.099C218.003 26.5497 191.094 15.6301 163.795 13.2902H163.405V12.9002C162.235 11.7302 161.065 10.1704 159.895 8.61046L158.725 7.44043H160.285C191.484 9.39036 222.293 21.8699 246.082 42.5391L247.252 43.3191L246.082 43.7091C244.002 43.7091 242.052 43.9691 240.232 44.489H239.842ZM164.185 12.1203C191.484 14.4602 218.393 25.3798 240.232 42.9291C241.532 42.6691 242.832 42.5391 244.132 42.5391C220.733 23.0398 191.484 10.9503 161.845 9.00035C162.625 10.0403 163.405 11.0803 164.185 12.1203Z" fill="#40F4FF"/>
<path d="M67.8552 33.5689C75.2649 28.4991 85.7946 22.6493 93.2043 19.9194C92.0344 23.0393 92.0344 22.6493 91.2544 24.9892C83.4547 28.4991 75.2649 33.5689 67.0752 39.4187C67.4652 36.6888 67.4652 36.6888 67.8552 33.5689Z" fill="#40F4FF"/>
<path fill-rule="evenodd" clip-rule="evenodd" d="M66.2969 40.5882L66.6869 39.4183C66.6869 36.6884 67.0768 36.6884 67.0768 34.7385L67.4668 33.1785C74.4866 28.1087 85.4063 22.2589 92.816 19.139L93.986 18.749L93.206 21.089C92.426 23.0389 92.4261 23.0389 92.0361 25.3788L91.6461 25.7688C83.4563 29.2787 75.2666 34.3485 67.4668 39.8083L66.2969 40.5882ZM68.6368 33.9586V34.7385C68.2468 36.2984 68.2468 36.6884 68.2468 37.8584C75.2666 32.7886 83.0663 28.1087 90.8661 24.5988C91.2561 22.6489 91.2561 22.6489 92.0361 20.699C84.6263 23.8188 75.2666 29.2787 68.6368 33.9586Z" fill="#40F4FF"/>
<path d="M33.5379 74.1246C34.7078 74.9046 35.0978 76.0745 34.3178 77.2445C33.5379 78.4144 32.3679 78.4145 31.1979 77.6345C30.028 77.2445 29.638 75.6846 30.028 74.5146C30.8079 73.3447 32.3679 73.3447 33.5379 74.1246Z" fill="#40F4FF"/>
<path d="M250.372 52.6772C252.192 52.6772 254.142 52.6772 256.222 52.6772C255.442 51.8972 253.102 49.5573 251.152 47.6074C249.072 47.6074 247.122 47.7373 245.302 47.9973C246.862 49.5573 249.202 51.8972 250.372 52.6772Z" fill="#40F4FF"/>
<path fill-rule="evenodd" clip-rule="evenodd" d="M249.982 53.4594V53.0694C248.812 52.2894 246.472 49.9494 244.912 48.3895L243.742 47.6096H245.302C247.252 47.2196 249.592 47.2196 251.152 46.8296L251.542 47.2196C253.492 49.1695 255.832 51.5094 256.611 52.2894L257.391 53.0694H256.222C254.402 53.0694 252.452 53.1994 250.372 53.4594H249.982ZM246.862 48.3895C248.422 49.9494 249.982 51.1194 250.762 51.8993C252.062 51.8993 253.362 51.8993 254.662 51.8993C253.492 50.7294 252.322 49.5595 250.762 48.3895C249.722 48.3895 248.422 48.3895 246.862 48.3895Z" fill="#40F4FF"/>
<path d="M259.732 62.8165C262.461 62.8165 262.461 62.8165 265.191 63.2065C263.631 60.8666 261.291 58.5266 260.901 57.7466C258.822 57.7466 256.872 57.7466 255.052 57.7466C256.612 59.3065 258.172 60.9965 259.732 62.8165Z" fill="#40F4FF"/>
<path fill-rule="evenodd" clip-rule="evenodd" d="M266.751 63.9865L265.191 63.5965C262.851 63.5965 262.461 63.5965 260.901 63.5965L259.341 63.2066H258.951C257.651 61.6466 256.351 60.0867 255.051 58.5267L253.491 56.9668H255.051C257.001 56.9668 258.561 56.9668 260.901 56.9668H261.291V57.3568C262.071 57.7468 264.021 60.4767 265.971 62.8166L266.751 63.9865ZM259.731 62.0366H260.511C262.071 62.0366 262.461 62.0366 263.631 62.4266C262.461 60.8666 260.901 58.9167 260.511 58.5267C258.951 58.2667 257.521 58.1367 256.221 58.1367C257.521 59.4367 258.691 60.7366 259.731 62.0366Z" fill="#40F4FF"/>
<path d="M267.923 73.345C269.743 73.605 271.563 73.9951 273.383 74.515C271.433 71.0052 273.383 74.1251 269.483 68.6653C267.663 68.4053 265.713 68.1452 263.633 67.8853C266.753 72.1751 265.583 70.2251 267.923 73.345Z" fill="#40F4FF"/>
<path fill-rule="evenodd" clip-rule="evenodd" d="M274.942 75.2951L272.992 74.9052C271.172 74.6452 269.352 74.3851 267.532 74.1252L267.142 73.7351C266.752 72.9552 266.362 72.5652 265.972 72.1752C265.582 71.3953 265.582 71.3952 264.412 69.4453L262.462 67.1055L264.022 67.4954C266.102 67.4954 267.922 67.6254 269.482 67.8854H269.872L270.262 68.6654C272.602 71.7853 272.602 71.7852 272.992 72.1752C272.992 72.5652 273.382 72.9552 274.162 74.1252L274.942 75.2951ZM267.922 72.9552C269.482 72.9552 270.912 73.0851 272.212 73.3451C271.952 73.0851 271.822 72.9552 271.822 72.9552C271.432 72.5653 271.432 72.5653 269.092 69.0554C267.792 69.0554 266.492 68.9254 265.192 68.6654C266.362 70.6153 266.362 70.6152 267.142 71.3952C267.142 71.6552 267.402 72.1753 267.922 72.9552Z" fill="#40F4FF"/>
<path d="M191.871 23.0383C191.611 23.0383 191.481 23.0383 191.481 23.0383C181.732 19.9184 171.592 17.9685 161.452 17.1885C161.452 17.1885 161.322 17.1885 161.062 17.1885C158.332 13.2887 154.043 8.21887 151.313 5.48898C144.293 5.48898 137.273 6.00893 130.253 7.04889C130.253 7.04889 130.123 6.91899 129.863 6.659C128.303 5.61904 126.874 4.57901 125.574 3.53905L126.354 2.36914C127.653 3.4091 129.083 4.44901 130.643 5.48898C137.663 4.70901 144.683 4.31907 151.703 4.31907C151.963 4.31907 152.093 4.31907 152.093 4.31907C154.433 7.04896 159.112 12.1188 161.842 16.0186C171.982 16.7986 181.732 18.7485 191.481 21.8684C193.821 20.3085 195.381 19.5285 198.111 17.9686L198.891 19.1385C195.771 20.6984 194.601 21.4784 191.871 23.0383Z" fill="#40F4FF"/>
<path d="M217.614 24.5987C217.094 22.7788 216.574 20.9589 216.054 19.139C208.254 15.2391 201.625 12.8993 193.825 10.5594C192.265 11.5993 190.705 12.5092 189.145 13.2892L188.365 12.1193C189.925 11.0793 191.615 10.1693 193.435 9.38933C193.435 9.12934 193.565 9.12934 193.825 9.38933C202.015 11.7292 208.644 14.0692 216.834 17.9691C217.094 18.229 217.224 18.3591 217.224 18.3591V18.749C217.744 20.5689 218.264 22.3889 218.784 24.2088L217.614 24.5987Z" fill="#40F4FF"/>
<path d="M142.734 296.418C114.265 294.468 92.0357 287.058 68.6365 270.679C62.7866 272.238 56.1568 273.019 53.4269 273.408C53.4269 273.408 53.297 273.278 53.037 273.018C37.8275 260.929 25.3479 245.72 15.9882 228.56C15.9882 228.56 15.9882 228.43 15.9882 228.17C16.7681 225.44 17.938 222.32 19.108 218.811L20.278 219.201C19.108 222.71 17.938 225.44 17.1581 228.17C26.5178 244.94 38.9974 259.759 53.8169 271.849C56.5468 271.849 63.1766 270.679 68.6365 269.509C68.8964 269.509 69.1564 269.509 69.4164 269.509C92.4257 285.498 114.655 293.298 142.734 295.248V296.418Z" fill="#40F4FF"/>
<path d="M19.8878 218.811C5.45831 189.952 1.55842 158.364 7.01824 127.555C8.05821 129.115 9.22815 130.544 10.5281 131.844C7.01822 156.024 9.35813 179.813 15.2079 196.582L16.7679 201.652C17.5479 202.822 17.1579 202.042 17.9379 203.992C20.6678 211.011 19.4979 207.892 21.8378 213.741L20.6678 216.471C20.4078 217.251 20.1478 218.031 19.8878 218.811Z" fill="#40F4FF"/>
<path fill-rule="evenodd" clip-rule="evenodd" d="M19.8868 220.758L19.1068 219.199C5.06722 190.73 0.777402 159.141 6.23723 127.162L6.62718 125.602L7.40714 127.162C8.57711 128.332 9.7471 129.892 10.9171 131.452L11.307 131.842C7.79713 154.071 9.74711 178.25 15.9869 196.189L17.5468 201.259C17.5468 201.779 17.6769 202.039 17.9369 202.039C17.9369 202.429 17.9368 202.429 18.3268 203.209L19.1068 205.939C20.2767 208.669 20.2767 208.669 21.0567 210.619C21.4467 211.009 21.8367 211.789 22.6167 213.349V213.739L21.4467 216.469C20.9267 217.249 20.5367 218.159 20.2767 219.199L19.8868 220.758ZM7.40714 129.112C2.3373 159.531 6.62721 189.95 19.8868 217.249C19.8868 216.989 20.0168 216.599 20.2767 216.079L21.4467 213.739C20.6667 212.439 20.1468 211.529 19.8868 211.009C19.4968 209.449 19.4968 209.449 18.3268 206.329L17.1568 203.989C16.7668 203.209 16.7669 203.209 16.7669 202.819C16.7669 202.559 16.6369 202.299 16.3769 202.039L14.8169 196.969C8.57714 178.64 6.62722 154.461 10.1371 132.232C9.09714 131.192 8.18712 130.152 7.40714 129.112Z" fill="#40F4FF"/>
<path d="M88.1387 286.278C79.299 282.118 71.1092 277.178 63.5695 271.459C65.3894 271.199 67.2093 270.809 69.0293 270.289C76.829 275.748 84.8887 280.298 93.2085 283.938C89.3086 285.888 89.6986 285.498 88.1387 286.278Z" fill="#40F4FF"/>
<path fill-rule="evenodd" clip-rule="evenodd" d="M88.1377 287.057L87.7477 286.667C79.168 282.767 70.9783 277.697 63.1785 271.847L62.0085 271.067L63.5685 270.677C65.1285 270.417 66.8184 270.157 68.6384 269.897L69.4183 269.507V269.897C77.2181 274.967 85.0178 279.647 93.5975 283.547L95.1575 283.937L92.8176 285.107C90.0877 286.277 90.0877 286.277 88.9177 286.667L88.1377 287.057ZM65.1285 271.847C72.4082 277.307 80.078 281.857 88.1377 285.497H88.5277C89.3077 285.107 89.3077 285.107 91.6476 283.937C83.8479 280.297 76.3081 276.007 69.0283 271.067C67.7284 271.327 66.4284 271.587 65.1285 271.847Z" fill="#40F4FF"/>
<path d="M140.397 295.637C140.397 294.467 141.567 293.297 142.737 293.297C143.906 293.297 145.076 294.467 145.076 296.027C144.686 297.587 143.906 298.367 142.347 298.367C141.177 298.367 140.007 297.197 140.397 295.637Z" fill="#40F4FF"/>
<path d="M13.2576 118.586C12.2176 117.026 11.1777 115.466 10.1377 113.906C9.61776 115.986 9.09774 118.196 8.57776 120.535C9.61773 122.095 10.6577 123.655 11.6977 125.215C12.2177 122.875 12.7376 120.665 13.2576 118.586Z" fill="#40F4FF"/>
<path fill-rule="evenodd" clip-rule="evenodd" d="M12.0886 126.773L11.3086 125.603C10.0086 124.043 8.83867 122.483 7.79871 120.923V120.533C8.18869 118.193 8.96867 115.853 9.74864 113.513L10.1387 111.953L10.9186 113.513C11.6986 114.683 12.8685 116.633 13.6485 118.193L14.0385 118.583C13.2586 120.923 12.8685 123.263 12.4785 125.213L12.0886 126.773ZM8.96868 120.533C9.74866 121.573 10.5286 122.613 11.3086 123.653C11.5686 122.093 11.9586 120.533 12.4785 118.973C11.6986 117.673 11.0486 116.503 10.5286 115.463C10.0086 117.283 9.48866 118.973 8.96868 120.533Z" fill="#40F4FF"/>
<path d="M17.161 105.716C16.3811 103.896 15.6011 102.076 14.8211 100.256C14.0412 102.596 13.2612 104.806 12.4812 106.886C13.2612 108.705 14.1711 110.395 15.2111 111.955C15.7311 109.875 16.3811 107.796 17.161 105.716Z" fill="#40F4FF"/>
<path fill-rule="evenodd" clip-rule="evenodd" d="M15.2087 113.514L14.4288 112.344C13.2588 110.394 12.4788 108.834 11.6989 107.274V106.884C12.4788 104.544 13.2588 102.204 14.0388 100.254L14.8188 98.6943L15.2087 100.254C16.2487 101.814 17.1587 103.504 17.9387 105.324V105.714C17.1587 107.664 16.3787 110.004 15.5987 112.344L15.2087 113.514ZM13.2588 106.884C13.7788 107.924 14.2988 108.964 14.8188 110.004C15.5987 108.444 16.2487 106.884 16.7687 105.324C15.9887 104.284 15.3387 103.114 14.8188 101.814C14.2988 103.374 13.7788 105.064 13.2588 106.884Z" fill="#40F4FF"/>
<path d="M22.6178 93.2371C21.8378 91.4172 21.1879 89.5973 20.6679 87.7773C19.6279 89.8573 18.5879 91.9372 17.548 94.0171C18.3279 95.8371 19.1079 97.657 19.8879 99.4769C20.6679 97.137 21.5779 95.057 22.6178 93.2371Z" fill="#40F4FF"/>
<path fill-rule="evenodd" clip-rule="evenodd" d="M19.8901 101.033L19.11 99.4729C18.3301 97.9129 17.5501 95.963 16.7701 94.4031V94.0131V93.6231C17.8101 91.5432 18.8501 89.4632 19.8901 87.3833L20.67 86.2134L21.06 87.3833C21.8399 89.3332 22.6199 91.2831 23.0099 92.8431L23.3999 93.2331H23.0099C21.9699 95.313 21.06 97.3929 20.28 99.4729L19.8901 101.033ZM18.3301 94.4031C18.8501 95.4431 19.3701 96.613 19.8901 97.9129C20.67 96.353 21.45 94.793 22.2299 93.2331C21.71 92.1931 21.19 91.0232 20.67 89.7232C19.89 91.2832 19.11 92.8432 18.3301 94.4031Z" fill="#40F4FF"/>
<path d="M33.1492 251.18H31.9793C32.2393 249.36 32.3693 247.67 32.3693 246.11C27.6894 239.87 23.0096 232.461 20.6697 228.561C20.6697 228.301 20.6697 228.041 20.6697 227.781C22.2296 222.711 24.1796 217.641 25.7395 213.741C21.4496 204.382 17.9398 195.022 15.9898 184.882C12.8699 183.322 12.0899 182.932 9.35999 181.373L10.14 180.203C12.8699 181.763 13.6499 182.153 16.7698 184.102C17.0298 184.102 17.1597 184.232 17.1597 184.492C19.1097 194.242 22.6196 203.992 26.9094 213.351C27.1694 213.351 27.1694 213.481 26.9094 213.741C25.3495 217.641 23.3996 222.711 21.8396 228.171C24.1796 232.071 28.8594 239.09 33.9292 245.33C33.9292 245.59 33.9292 245.85 33.9292 246.11C33.6692 247.67 33.4092 249.36 33.1492 251.18Z" fill="#40F4FF"/>
<path d="M9.35967 192.683C8.83969 192.423 8.44975 192.163 8.18976 191.903C7.0198 191.513 7.01975 191.513 5.4598 190.343L4.28989 189.563C4.02989 189.563 3.89987 189.433 3.89987 189.173L2.7299 184.883C2.7299 184.623 2.7299 184.234 2.7299 183.714C2.7299 183.714 2.7299 183.584 2.7299 183.324L1.55993 177.084L0.779963 171.234C0.779963 170.974 0.779963 170.714 0.779963 170.454C0.519971 170.194 0.390011 169.934 0.390011 169.674L0 164.994C0 164.734 0.13002 164.604 0.390011 164.604L1.16997 163.434C2.72992 161.874 2.72989 161.874 3.50986 161.094C3.50986 161.094 3.7699 160.834 4.28989 160.314L5.06985 161.094C4.80986 161.614 4.54988 162.004 4.28989 162.264C3.50991 162.654 3.50991 162.654 2.33995 164.214L1.55993 164.994L1.94994 169.674C1.94994 169.934 1.94994 170.194 1.94994 170.454C1.94994 170.714 1.94994 170.844 1.94994 170.844L2.7299 177.084L3.89987 182.934C3.89987 183.194 3.89987 183.454 3.89987 183.714C3.89987 183.974 4.02989 184.233 4.28989 184.493L5.06985 188.783L5.84981 189.173C7.79975 190.343 7.79974 190.343 8.57971 190.733C8.8397 190.993 9.2297 191.253 9.74969 191.513L9.35967 192.683Z" fill="#40F4FF"/>
<path d="M150.534 279.259C133.764 279.259 116.605 275.749 100.225 268.729C79.166 259.37 60.8366 244.16 47.577 224.661C42.1172 223.101 39.7773 222.321 35.4874 220.371C35.2274 220.371 35.0974 220.371 35.0974 220.371C32.3675 215.301 30.4176 211.792 29.6376 209.842L28.8576 208.282C28.4676 207.112 28.4676 207.112 28.0776 206.722C28.0776 206.462 27.9477 205.942 27.6877 205.162L27.2977 203.992C26.1277 201.262 26.1277 201.262 25.7377 200.092C25.3477 199.702 25.3477 198.922 24.9577 197.752C24.1777 195.802 22.6178 191.122 21.4478 185.663L20.6679 182.543C20.6679 182.543 19.1079 176.303 18.7179 173.573C18.7179 172.533 18.7179 171.753 18.7179 171.233C18.328 169.673 18.328 169.673 17.938 166.943V164.603C17.548 163.043 17.548 163.043 17.548 162.263C17.548 162.263 17.548 161.873 17.548 161.093V156.804H18.7179L19.1079 161.093C19.1079 161.613 19.1079 162.003 19.1079 162.263C19.1079 163.043 19.1079 163.043 19.1079 164.213L19.4979 166.943C19.4979 169.283 19.4979 169.283 19.8879 170.843C19.8879 171.363 20.0179 172.143 20.2779 173.183C20.6679 175.913 21.8379 182.153 21.8379 182.543L22.6178 185.273C23.7878 190.732 25.3477 195.412 26.1277 196.972C26.5177 198.532 26.5177 198.922 26.9076 199.702C27.2976 200.482 27.2977 200.482 28.4676 203.212L28.8576 204.772C29.1176 205.292 29.2476 205.682 29.2476 205.942C29.6376 206.722 29.6376 206.722 30.0276 207.892L30.8075 209.062C31.5875 211.012 33.1475 214.522 35.8774 219.201C40.5572 221.151 42.5072 221.931 47.967 223.491C48.227 223.491 48.357 223.621 48.357 223.881C62.0065 242.99 79.9459 258.2 101.005 267.559C136.884 283.159 177.443 281.209 211.762 261.71C245.691 242.99 267.92 211.012 272.99 174.353H274.16C271.82 193.072 264.8 210.622 253.49 226.221C242.961 241.04 228.921 253.91 212.542 262.88C193.042 273.799 171.983 279.259 150.534 279.259Z" fill="#40F4FF"/>
<path d="M233.213 247.279C205.523 271.848 168.865 282.768 132.206 277.308C134.026 276.268 135.846 275.098 137.666 273.798C170.815 277.308 202.404 267.169 226.973 247.279C229.053 247.539 231.133 247.539 233.213 247.279Z" fill="#40F4FF"/>
<path fill-rule="evenodd" clip-rule="evenodd" d="M150.927 279.257C144.687 279.257 138.447 278.737 132.207 277.697C131.947 277.697 131.687 277.567 131.427 277.307C131.427 277.047 131.557 276.787 131.817 276.527C133.767 275.747 135.717 274.187 137.277 273.017C137.537 273.017 137.667 273.017 137.667 273.017C169.646 276.527 201.235 267.167 226.584 246.888C226.584 246.888 226.714 246.888 226.974 246.888C229.054 246.888 231.134 246.888 233.214 246.888C233.474 246.888 233.734 247.018 233.994 247.278C233.994 247.538 233.864 247.798 233.604 248.058C210.595 268.337 181.346 279.257 150.927 279.257Z" fill="#40F4FF"/>
<path d="M200.842 277.309C168.083 290.568 131.034 290.178 99.0548 276.529C96.7148 271.849 95.5449 269.899 93.205 264.829C113.874 274.969 132.594 278.479 152.873 278.479C171.203 278.479 193.822 272.629 207.081 265.219C205.521 269.119 203.181 273.019 200.842 277.309Z" fill="#40F4FF"/>
<path fill-rule="evenodd" clip-rule="evenodd" d="M150.924 287.839C132.985 287.839 115.436 284.33 99.056 277.31C98.7961 277.31 98.6661 277.18 98.6661 276.92C95.9362 272.24 95.1562 270.29 92.8163 264.83C92.8163 264.57 92.8163 264.31 92.8163 264.05C93.0763 264.05 93.3363 264.05 93.5962 264.05C111.926 273.41 130.255 277.7 152.874 278.09C170.034 278.09 192.653 272.24 206.693 264.83C206.953 264.57 207.213 264.57 207.473 264.83C207.473 265.09 207.473 265.35 207.473 265.61C205.913 269.51 203.963 273.8 201.623 277.7C201.363 277.7 201.233 277.7 201.233 277.7C185.243 284.33 168.084 287.839 150.924 287.839ZM99.8361 276.14C131.815 289.399 168.474 289.789 200.453 276.92C202.403 273.41 203.963 269.9 205.523 266.78C191.483 274.19 169.644 279.26 152.874 279.26C130.645 279.26 112.706 274.97 94.7662 266C96.3262 269.9 97.4961 272.24 99.8361 276.14Z" fill="#40F4FF"/>
<path d="M88.9178 271.846C87.3578 267.556 85.7979 263.656 84.238 259.366C80.7281 257.026 82.678 258.196 80.728 257.026C81.508 260.536 82.678 264.436 85.0179 269.506C88.9178 271.846 88.5278 271.846 88.9178 271.846Z" fill="#40F4FF"/>
<path fill-rule="evenodd" clip-rule="evenodd" d="M90.4763 273.41L88.9164 272.63C88.5264 272.24 88.5264 272.24 86.1865 271.07L84.2365 269.9C82.2866 265.22 81.1166 261.32 79.9467 257.031L79.5566 255.471L80.7266 256.251C81.5066 257.031 81.8966 257.031 81.8966 257.031C82.2866 257.421 82.2866 257.421 84.6265 258.591L85.0165 258.981V259.371C86.1865 262.88 87.3564 266.78 89.6963 271.46L90.4763 273.41ZM85.4065 269.51L86.5764 270.29C87.0964 270.55 87.4864 270.68 87.7464 270.68C86.1865 266.78 85.0165 263.27 83.8465 260.151C82.6766 259.371 81.8966 258.981 81.8966 258.981C82.6766 262.49 83.8465 265.61 85.4065 269.51Z" fill="#40F4FF"/>
<path d="M75.2662 263.661C74.4863 260.151 73.3163 256.641 72.1463 250.791L68.6365 247.671C69.4164 253.131 70.1964 255.081 71.3664 260.931C72.1463 261.321 72.5363 261.711 75.2662 263.661Z" fill="#40F4FF"/>
<path fill-rule="evenodd" clip-rule="evenodd" d="M76.4378 265.219L73.7078 263.269C71.7579 262.099 71.7579 261.709 70.9779 261.319V260.929C69.418 255.469 69.028 253.13 68.248 247.67L67.858 246.11L72.9279 250.4C74.0978 256.25 74.8778 260.149 76.0478 263.269L76.4378 265.219ZM71.7579 260.539C72.1479 260.929 72.5379 261.319 74.0979 262.099C73.3179 259.369 72.5379 255.859 71.368 251.18L69.418 249.62C70.198 253.52 70.5879 255.859 71.7579 260.539Z" fill="#40F4FF"/>
<path d="M25.738 198.529C22.6181 189.95 20.6681 182.54 19.4981 172.01C19.2381 170.71 18.9782 169.41 18.7182 168.11C17.9382 157.581 17.9382 147.051 19.1081 136.912C20.4081 138.732 21.708 140.421 23.008 141.981C21.448 158.751 23.008 175.91 28.0778 192.289C27.6879 193.069 27.2979 194.239 25.738 198.529Z" fill="#40F4FF"/>
<path fill-rule="evenodd" clip-rule="evenodd" d="M25.7389 199.31C25.4789 199.31 25.3489 199.18 25.3489 198.92C21.839 189.56 19.889 181.761 18.7191 172.011V171.231C18.4591 170.191 18.3291 169.151 18.3291 168.111C17.1591 157.582 17.1591 147.052 18.7191 136.912C18.7191 136.652 18.849 136.392 19.109 136.132C19.369 136.132 19.6291 136.262 19.8891 136.522C20.929 138.342 22.099 140.032 23.3989 141.592C23.3989 141.852 23.3989 141.982 23.3989 141.982C21.839 158.751 23.7889 175.911 28.8587 191.9C28.8587 192.16 28.8587 192.29 28.8587 192.29L28.4688 192.68C28.0788 193.85 27.6888 195.02 26.5188 198.92C26.2588 199.18 25.9989 199.31 25.7389 199.31ZM19.499 138.472C18.4591 148.352 18.4591 158.232 19.499 168.111C19.499 169.151 19.6291 170.191 19.8891 171.231V172.011C21.449 180.981 23.009 188 25.7389 196.58C26.5188 193.85 26.9088 193.07 27.2988 192.29C22.6189 176.301 20.669 158.752 22.2289 142.372C21.449 141.072 20.539 139.772 19.499 138.472Z" fill="#40F4FF"/>
<path d="M267.922 196.973C270.782 188.653 272.861 180.204 274.161 171.624C275.201 173.444 276.241 175.134 277.281 176.694C276.891 180.984 274.551 189.173 273.381 193.463C269.482 195.803 269.092 196.193 267.922 196.973Z" fill="#40F4FF"/>
<path fill-rule="evenodd" clip-rule="evenodd" d="M267.92 197.362C267.66 197.362 267.4 197.362 267.14 197.362C267.14 197.102 267.14 196.842 267.14 196.582C270 188.522 272.08 180.203 273.38 171.623C273.38 171.363 273.51 171.233 273.77 171.233C274.03 170.973 274.29 170.973 274.55 171.233C275.85 173.053 277.02 174.873 278.06 176.693C278.06 176.693 278.06 176.823 278.06 177.083C277.28 180.983 275.33 189.562 273.77 193.462C273.77 193.722 273.77 193.852 273.77 193.852C270.26 196.192 269.48 196.582 268.31 196.972L267.92 197.362ZM274.55 173.573C273.25 180.853 271.43 188.132 269.09 195.412C269.87 195.022 270.65 194.242 272.99 193.072C274.16 188.782 276.11 180.983 276.89 177.083C276.11 175.783 275.33 174.613 274.55 173.573Z" fill="#40F4FF"/>
<path d="M201.232 277.696L200.842 276.526C221.902 268.336 242.571 252.347 255.441 235.188C255.441 229.338 254.661 223.488 254.661 221.928H255.831C256.221 223.488 256.61 229.338 256.61 235.578C256.61 235.578 256.61 235.708 256.61 235.968C243.741 253.127 222.292 269.507 201.232 277.696Z" fill="#40F4FF"/>
<path d="M249.594 243.769H248.424C248.814 239.479 248.814 234.799 248.424 230.12H249.984C249.984 234.799 249.984 239.479 249.594 243.769Z" fill="#40F4FF"/>
<path d="M49.5282 227.39C47.1883 224.27 44.8483 220.76 43.6784 218.81C39.3885 217.25 37.0486 216.47 31.9788 214.13L32.3688 212.96C37.4386 215.3 39.7785 216.08 44.4583 217.64C44.7183 217.9 44.8484 218.03 44.8484 218.03C46.0183 219.98 48.3582 223.49 50.3082 226.61L49.5282 227.39Z" fill="#40F4FF"/>
<path d="M150.927 291.738C150.667 291.738 150.407 291.738 150.147 291.738V290.568C182.906 290.958 214.885 279.259 239.844 257.419L240.624 258.589C215.665 280.039 183.686 291.738 150.927 291.738Z" fill="#40F4FF"/>
<path d="M117.387 270.29C113.097 269.12 102.178 265.61 88.5281 257.811L89.308 256.641C102.958 264.44 113.487 267.95 117.777 269.12L117.387 270.29Z" fill="#40F4FF"/>
<path d="M283.129 151.342C281.959 127.552 276.5 107.663 265.58 88.554C261.29 86.994 258.95 86.2141 253.49 84.6541C253.49 84.6541 253.36 84.5241 253.1 84.2641C226.191 44.8756 179.783 24.5964 132.594 31.6161C85.7957 38.6358 47.577 71.0046 33.1474 115.853C31.5875 120.143 29.2475 129.112 28.8575 133.792H27.2976C28.0776 129.112 30.4175 119.753 31.5875 115.463C39.3872 92.0638 53.0368 71.7846 71.3662 56.9651C88.9156 42.9257 109.975 33.5659 132.594 30.4461C155.214 26.9362 178.223 29.6661 198.892 38.2458C221.121 47.6054 240.231 63.2049 254.27 83.4841C259.73 85.044 261.68 85.824 266.36 87.774C266.62 87.774 266.75 87.774 266.75 87.774C277.67 106.883 283.129 127.163 284.299 150.952L283.129 151.342Z" fill="#40F4FF"/>
<path d="M68.2469 60.8665C96.716 35.5175 133.765 25.3778 169.644 30.8376C167.564 31.8776 165.744 33.0475 164.184 34.3475C131.035 30.8376 99.0559 40.9773 74.8767 60.8665C72.7968 60.6065 70.5869 60.6065 68.2469 60.8665Z" fill="#40F4FF"/>
<path fill-rule="evenodd" clip-rule="evenodd" d="M74.876 61.2549C72.7961 61.2549 70.5862 61.2549 68.2463 61.2549C67.9863 61.2549 67.8562 61.1249 67.8562 60.8649C67.5963 60.6049 67.5963 60.3449 67.8562 60.0849C95.9353 35.5158 132.984 24.5963 169.643 30.0561C169.903 30.3161 170.033 30.576 170.033 30.836C170.033 31.096 169.903 31.356 169.643 31.616C168.083 32.396 166.133 33.9559 164.573 35.1258C164.313 35.1258 164.183 35.1258 164.183 35.1258C131.814 31.616 100.225 40.5857 75.266 61.2549C75.266 61.2549 75.136 61.2549 74.876 61.2549ZM71.7561 60.0849C72.7961 60.0849 73.7061 60.0849 74.4861 60.0849C86.9657 49.9453 101.005 42.5355 116.215 38.2457C131.424 33.5659 147.804 32.006 163.793 33.5659C165.093 32.786 166.393 32.006 167.693 31.226C132.594 26.5462 97.1053 36.6858 70.1962 60.0849C70.7162 60.0849 71.2361 60.0849 71.7561 60.0849Z" fill="#40F4FF"/>
<path d="M100.616 30.8398C133.765 17.1903 170.814 17.9704 202.403 31.6199C205.133 36.2997 205.913 38.2496 208.253 43.3194C174.714 26.1601 134.935 24.2101 98.2763 40.9795C96.9764 41.4995 95.8064 42.1494 94.7665 42.9294C96.3264 39.0296 98.2764 35.1297 100.616 30.8398Z" fill="#40F4FF"/>
<path fill-rule="evenodd" clip-rule="evenodd" d="M208.252 44.0976C208.252 44.0976 208.122 44.0976 207.862 44.0976C173.933 26.1583 133.764 25.3784 98.2753 41.7578C98.0153 42.0178 97.7553 42.1477 97.4953 42.1477C96.7154 42.4077 95.9354 42.7977 95.1554 43.3177C94.8954 43.5777 94.6354 43.5777 94.3754 43.3177C94.1154 43.0577 94.1154 42.7977 94.3754 42.5377C95.9354 38.6378 97.8853 34.348 100.225 30.4481C100.225 30.4481 100.355 30.3182 100.615 30.0582C132.984 16.7987 170.423 17.1886 202.792 30.8381C202.792 30.8381 202.922 30.9681 203.182 31.2281C205.522 35.908 206.692 37.8579 209.032 43.3177C209.032 43.5777 208.902 43.8376 208.642 44.0976C208.642 44.0976 208.512 44.0976 208.252 44.0976ZM150.924 28.8882C152.224 28.8882 153.394 28.8882 154.434 28.8882C172.763 29.2782 190.312 33.958 207.082 42.1477C205.132 37.8578 204.352 35.908 202.012 32.0082C170.033 18.3587 133.374 18.3586 101.395 31.2281C99.4453 34.738 97.4953 38.2479 95.9354 41.3678C96.4554 41.3678 96.8453 41.2378 97.1053 40.9778C97.3653 40.9778 97.6253 40.8478 97.8853 40.5878C115.045 32.7881 132.594 28.8882 150.924 28.8882Z" fill="#40F4FF"/>
<path d="M212.545 36.2969C214.495 40.5867 216.055 44.4866 217.225 48.7765C221.125 51.1164 219.175 49.9464 221.125 51.1164C219.955 47.6065 218.785 43.7066 216.835 38.6368C212.935 36.2969 212.935 36.2969 212.545 36.2969Z" fill="#40F4FF"/>
<path fill-rule="evenodd" clip-rule="evenodd" d="M222.293 52.6776L220.733 51.8976C219.953 51.1176 219.953 51.1177 219.563 50.7277C219.563 50.7277 219.563 50.7277 217.223 49.1678H216.833V48.7778C215.663 45.2679 214.103 41.368 212.153 36.2982L211.373 34.7383L212.933 35.5183C213.323 35.9083 213.323 35.9083 215.663 37.0782L217.223 38.2481H217.613C219.173 42.928 220.733 46.8279 221.903 51.1177L222.293 52.6776ZM218.003 47.9978C219.173 48.7777 219.563 49.1678 219.953 49.5578C218.783 46.0479 217.613 42.538 216.443 39.0281L215.273 38.2481C214.753 37.9881 214.233 37.7282 213.713 37.4682C215.663 41.7581 216.833 44.8779 218.003 47.9978Z" fill="#40F4FF"/>
<path d="M226.194 44.4873C227.364 47.9972 228.534 51.5071 229.704 57.3569L232.824 60.4767C232.044 55.0169 231.654 52.677 230.094 47.2173C229.704 46.8273 229.314 46.4372 226.194 44.4873Z" fill="#40F4FF"/>
<path fill-rule="evenodd" clip-rule="evenodd" d="M233.992 62.0355L228.923 57.7457V57.3558C227.753 51.506 226.973 48.3861 225.803 44.8762L225.023 42.9263L227.753 44.8762C229.702 46.0462 230.093 46.4361 230.483 46.8261H230.873V47.2161C232.432 52.6759 232.822 55.0158 233.602 60.0856L233.992 62.0355ZM230.092 57.3558L232.042 58.9157C231.652 55.0158 230.872 52.6759 229.702 47.996C229.312 47.606 228.923 47.2161 227.753 46.4361C228.533 49.166 229.313 52.286 230.092 57.3558Z" fill="#40F4FF"/>
<path d="M276.111 109.614C282.351 128.334 285.471 148.613 282.351 171.232C281.311 169.412 280.141 167.722 278.841 166.162C280.401 149.393 278.841 132.233 273.771 115.854C274.161 115.074 274.551 113.904 276.111 109.614Z" fill="#40F4FF"/>
<path fill-rule="evenodd" clip-rule="evenodd" d="M282.353 172.012C282.093 172.012 281.963 171.882 281.963 171.622C280.663 169.802 279.493 168.112 278.453 166.552C278.193 166.292 278.063 166.162 278.063 166.162C279.623 149.393 278.063 131.843 272.993 116.244C272.993 115.984 272.993 115.724 272.993 115.464C273.383 114.294 274.163 113.124 275.333 109.224C275.333 108.964 275.593 108.834 276.113 108.834C276.373 108.834 276.503 108.964 276.503 109.224C283.523 129.893 285.863 150.172 283.133 171.232C283.133 171.492 283.003 171.752 282.743 172.012C282.743 172.012 282.613 172.012 282.353 172.012ZM279.623 165.772C280.403 167.072 281.183 168.372 281.963 169.672C284.303 149.782 282.353 130.673 276.113 111.564C274.943 113.904 274.553 115.074 274.553 115.854H274.163C279.233 131.843 281.183 149.003 279.623 165.772Z" fill="#40F4FF"/>
<path d="M33.93 111.173C31.0701 119.493 28.9902 127.943 27.6902 136.522C26.6503 134.702 25.4803 132.883 24.1803 131.063C24.9603 127.163 26.9102 118.583 28.4702 114.683C31.9801 112.343 32.76 111.953 33.93 111.173Z" fill="#40F4FF"/>
<path fill-rule="evenodd" clip-rule="evenodd" d="M27.6902 136.911C27.4302 136.911 27.3001 136.911 27.3001 136.911C26.0002 135.092 24.8302 133.272 23.7903 131.452C23.7903 131.452 23.7903 131.322 23.7903 131.062C24.1803 127.162 26.1302 118.582 27.6902 114.682C27.6902 114.422 27.8201 114.292 28.0801 114.292C31.2 111.952 32.37 111.562 33.15 110.782H33.54C33.8 110.522 34.0599 110.522 34.3199 110.782C34.5799 111.042 34.7099 111.302 34.7099 111.562C31.59 119.622 29.5101 127.942 28.4701 136.521C28.2101 136.781 27.9501 136.911 27.6902 136.911ZM24.9602 131.062C25.7402 132.362 26.5202 133.532 27.3001 134.572C28.6001 127.032 30.42 119.752 32.7599 112.732C31.98 113.122 30.81 113.902 28.8601 115.072C27.6901 119.362 25.7402 127.162 24.9602 131.062Z" fill="#40F4FF"/>
<path d="M46.0189 86.2169C45.6289 84.657 45.2389 78.8072 45.2389 72.5675C45.2389 72.5675 45.2389 72.4374 45.2389 72.1774C54.9886 59.3079 74.8779 40.5887 100.617 30.0591L101.007 31.619C76.0478 41.3686 55.7685 60.088 46.4088 72.9575C46.4088 78.8072 46.7988 84.267 47.1888 86.2169H46.0189Z" fill="#40F4FF"/>
<path d="M51.8685 78.024C51.4785 73.3442 51.8684 68.6644 52.2584 64.3745H53.4284C53.0384 68.6644 53.0384 73.3442 53.0384 78.024H51.8685Z" fill="#40F4FF"/>
<path d="M269.091 95.1867C264.021 92.8468 262.072 92.0669 257.392 90.117C257.132 90.117 257.002 90.117 257.002 90.117C255.832 88.167 253.492 84.6571 251.152 81.5372L252.322 80.7573C254.662 83.8772 256.612 87.387 257.782 89.3369C262.462 90.8969 264.801 91.6769 269.871 94.0168L269.091 95.1867Z" fill="#40F4FF"/>
<path d="M61.6169 50.7253L60.8369 49.5554C86.1861 27.7162 118.555 16.0166 151.704 16.0166V17.5765C151.444 17.5765 151.184 17.5765 150.924 17.5765C118.165 17.5765 86.5761 29.2761 61.6169 50.7253Z" fill="#40F4FF"/>
<path d="M212.542 51.5074C200.062 44.0977 190.312 40.5878 184.073 39.0278L184.462 37.8579C190.702 39.4179 200.452 42.9276 213.322 50.3374L212.542 51.5074Z" fill="#40F4FF"/>
<path style="mix-blend-mode:screen" opacity="0.5" fill-rule="evenodd" clip-rule="evenodd" d="M270.263 154.075C270.263 219.593 216.834 272.631 151.707 272.631C86.1887 272.631 33.1504 219.593 33.1504 154.075C33.1504 88.5575 86.1887 35.5195 151.707 35.5195C216.834 35.5195 270.263 88.5575 270.263 154.075ZM151.707 96.3573C119.728 96.3573 93.9885 122.096 93.9885 154.075C93.9885 186.054 119.728 211.793 151.707 211.793C183.296 211.793 209.425 186.054 209.425 154.075C209.425 122.096 183.296 96.3573 151.707 96.3573Z" fill="url(#paint0_radial_767_970)"/>
<path fill-rule="evenodd" clip-rule="evenodd" d="M151.703 212.572C141.173 212.572 131.034 209.842 122.454 204.772C113.484 199.312 106.075 191.903 101.005 183.323C95.9349 174.353 93.205 164.214 93.205 154.074C93.205 143.934 95.9349 133.795 101.005 124.825C106.075 115.855 113.484 108.836 122.454 103.376C131.034 98.3061 141.173 95.5762 151.703 95.5762C161.843 95.5762 171.982 98.3061 180.562 103.376C189.532 108.836 196.942 115.855 202.011 124.825C207.081 133.795 209.811 143.934 209.811 154.074C209.811 164.214 207.081 174.353 202.011 183.323C196.942 191.903 189.532 199.312 180.562 204.772C171.982 209.842 161.843 212.572 151.703 212.572ZM151.703 97.1361C141.563 97.1361 131.814 99.476 123.234 104.546C114.264 109.616 107.245 117.025 102.175 125.605C97.1048 134.185 94.3749 143.934 94.3749 154.074C94.3749 164.214 97.1048 173.963 102.175 182.543C107.245 191.123 114.264 198.532 123.234 203.602C131.814 208.282 141.563 211.012 151.703 211.012C161.453 211.012 171.593 208.282 180.172 203.602C188.752 198.532 195.772 191.123 200.842 182.543C205.911 173.963 208.641 164.214 208.641 154.074C208.641 143.934 205.911 134.185 200.842 125.605C195.772 117.025 188.752 109.616 180.172 104.546C171.593 99.476 161.453 97.1361 151.703 97.1361Z" fill="#163C5B"/>
<path opacity="0.3" fill-rule="evenodd" clip-rule="evenodd" d="M129.867 218.812C125.577 218.812 121.287 218.032 116.608 215.692C107.248 211.012 102.958 200.873 99.0581 191.903C98.0182 189.823 97.1082 187.743 96.3282 185.663C95.2883 183.583 94.2483 181.633 93.2083 179.814C88.5285 171.624 84.2386 163.044 84.2386 154.075C84.2386 145.105 89.3084 136.525 94.3783 128.725C95.4183 126.906 96.4582 125.086 97.4982 123.266C99.0581 120.406 100.618 117.676 102.178 115.076C106.468 106.106 110.758 97.9166 120.117 94.7967C129.087 91.2868 140.397 90.5069 151.706 90.1169C152.486 90.1169 153.396 90.1169 154.436 90.1169C164.966 89.7269 174.326 89.337 184.075 92.4569C194.605 95.9667 199.675 105.716 203.965 114.686C205.265 117.286 206.565 119.626 207.865 121.706C208.905 123.266 209.945 124.826 210.985 126.386C216.054 134.965 221.124 143.545 221.124 153.684C221.124 163.824 216.054 170.454 210.985 177.474C209.035 179.814 207.085 182.543 205.135 185.273C203.835 187.353 202.665 189.433 201.625 191.513C197.335 198.923 193.435 205.943 185.635 210.232C176.666 215.692 165.356 216.472 155.216 216.472C150.146 216.472 145.467 217.252 141.177 217.642C137.277 218.422 133.377 218.812 129.867 218.812ZM98.6682 124.046C97.6282 125.866 96.5882 127.556 95.5483 129.115C90.4784 137.305 85.4086 145.495 85.4086 154.075C85.4086 162.654 89.6984 170.844 94.3783 179.034C95.4183 181.113 96.4582 183.193 97.4982 185.273C98.2782 187.093 99.1881 189.173 100.228 191.513C103.738 200.093 108.028 209.842 116.998 214.522C125.187 218.812 132.597 217.642 140.787 216.472C145.467 216.082 150.146 215.302 155.216 215.302C164.966 215.302 176.276 214.522 184.855 209.452C192.265 204.773 196.165 198.143 200.455 190.733C201.495 188.913 202.665 186.963 203.965 184.883C205.915 181.763 207.865 179.424 209.815 176.694C214.884 169.674 219.954 163.434 219.954 153.684C219.954 143.935 214.884 135.355 209.815 127.166C208.775 125.606 207.735 124.046 206.695 122.486C205.395 120.146 204.095 117.676 202.795 115.076C198.505 106.106 193.825 96.7466 183.685 93.6268C174.326 90.5069 164.966 90.8968 154.436 91.2868C153.656 91.2868 152.746 91.2868 151.706 91.2868C140.787 91.6768 129.087 92.4568 120.507 95.9667C111.538 99.0866 107.638 106.886 103.348 115.466C101.788 118.326 100.228 121.186 98.6682 124.046Z" fill="#FCEE0A"/>
<path opacity="0.6" fill-rule="evenodd" clip-rule="evenodd" d="M121.287 229.34C117.777 229.34 114.268 228.56 110.368 226.61C99.838 221.54 96.7181 209.06 94.3782 198.531C93.2082 194.631 92.4282 191.121 91.2582 188.391C89.3083 183.711 86.5784 179.422 83.8485 175.522C79.5586 168.112 74.8788 161.092 74.8788 154.463C74.8788 146.663 80.3386 139.643 86.1885 132.623C88.9184 129.113 92.0382 125.214 94.3782 121.704C97.1081 117.024 98.668 111.954 100.618 106.884C103.738 97.1346 107.248 87.775 117.387 85.8251C123.627 84.6551 131.037 84.6552 138.447 84.6552C143.127 84.6552 147.416 85.0451 151.706 84.6552C156.776 84.2652 161.066 83.4852 165.746 82.7052C172.766 81.1453 179.785 79.9752 187.195 81.1452C200.455 83.4851 205.135 95.9647 208.644 106.884C210.204 111.174 211.764 115.464 213.714 118.974C215.664 122.094 218.394 125.214 220.734 128.333C226.584 135.743 232.434 143.543 232.434 153.683C232.434 164.212 225.804 170.062 218.784 176.302C215.274 179.812 210.984 183.321 208.254 187.611C205.525 191.901 203.575 196.581 202.015 200.091C199.285 206.721 196.945 212.18 190.315 216.08C182.905 221.15 173.156 220.76 163.406 220.76C162.106 220.76 160.676 220.76 159.116 220.76C150.536 220.76 143.907 223.1 137.277 225.44C131.817 227.39 126.747 229.34 121.287 229.34ZM95.5481 122.094C93.2082 125.994 90.0883 129.893 87.3584 133.403C81.5086 140.423 76.4388 147.053 76.4388 154.463C76.4388 160.702 80.7286 167.722 85.0185 174.742C87.7484 179.032 90.4783 183.321 92.4282 187.611C93.5982 190.731 94.7682 194.241 95.5481 198.531C97.8881 208.281 101.008 220.76 111.148 225.44C120.507 230.12 128.307 227.39 136.887 224.27C143.127 221.93 150.146 219.2 159.116 219.2C160.676 219.2 162.106 219.33 163.406 219.59C172.766 219.59 182.515 219.59 189.925 215.3C195.775 211.4 198.115 206.331 200.845 199.701C202.405 195.801 204.355 191.511 207.085 186.831C210.204 182.541 214.104 178.642 218.004 175.132C225.024 169.282 231.264 163.432 231.264 153.683C231.264 143.933 225.414 136.523 219.564 129.113C217.224 125.994 214.494 122.874 212.544 119.364C210.594 116.244 209.035 111.954 207.475 107.274C203.965 96.7447 199.675 84.6552 186.805 82.7052C179.785 81.1453 173.156 82.7052 165.746 83.8751C161.456 84.6551 156.776 85.4351 151.706 85.8251C147.416 86.215 142.737 86.2151 138.447 86.2151C131.037 85.8251 123.627 85.825 117.777 86.995C108.028 88.9449 105.298 97.5246 101.788 107.274C99.838 112.344 98.278 117.414 95.5481 122.094Z" fill="#FCEE0A"/>
<path opacity="0.9" fill-rule="evenodd" clip-rule="evenodd" d="M115.047 240.259C111.927 240.259 108.417 239.479 104.517 237.919C92.0375 232.069 90.0876 216.47 88.9176 203.6C88.1376 198.141 87.7476 193.851 86.5777 190.731C84.2377 184.881 79.9479 179.421 76.048 173.961C70.5882 167.332 65.9083 160.702 65.9083 154.462C65.9083 147.052 72.1481 140.813 78.7779 133.793C83.4578 129.503 87.7477 124.823 90.8676 119.754C94.3774 113.904 96.3274 106.884 97.8873 99.8642C100.227 88.5546 102.957 78.0251 115.047 76.8551C120.117 76.4651 126.356 77.245 132.986 78.025C139.616 78.805 146.246 79.5849 151.706 79.1949C158.335 78.415 163.795 76.4651 169.255 74.5152C176.275 71.7853 182.905 69.4453 190.314 70.2253C207.084 71.3953 210.984 86.6047 214.494 100.254C215.664 106.104 217.223 111.954 219.563 115.854C222.293 120.143 225.803 124.043 229.703 127.943C236.723 135.353 243.743 142.763 243.743 153.292C243.743 164.992 235.553 170.842 226.583 176.691C220.733 180.591 215.274 184.491 211.374 189.951C207.474 195.801 205.914 201.26 204.744 206.33C202.794 212.57 201.624 218.03 195.384 221.93C188.754 226.219 179.785 225.83 171.205 225.05C168.345 225.05 165.615 224.92 163.015 224.66C151.706 224.66 142.736 229.339 135.326 233.629C128.696 237.139 122.457 240.259 115.047 240.259ZM92.0375 120.533C88.9176 125.603 84.2378 130.283 79.9479 134.963C73.3181 141.203 67.0783 147.442 67.0783 154.462C67.0783 160.312 71.7581 166.552 76.828 173.181C81.1178 178.641 85.4077 184.101 87.7476 190.341C88.9176 193.461 89.3076 198.141 90.0876 203.21C91.6475 215.69 93.2074 231.289 104.907 236.749C116.607 241.819 124.796 237.529 134.546 232.459C142.346 228.169 151.316 223.49 163.015 223.49C165.745 223.49 168.475 223.88 171.205 223.88C179.785 224.27 188.364 225.05 194.604 220.76C200.454 217.25 201.624 212.18 203.184 205.94C204.744 200.87 206.304 195.021 210.204 189.171C214.104 183.321 219.953 179.421 225.803 175.521C234.383 169.672 242.573 164.212 242.573 153.292C242.573 143.543 235.553 136.133 228.533 128.723C225.023 124.823 221.123 120.923 218.393 116.244C216.054 112.344 214.494 106.494 212.934 100.644C209.814 87.3846 205.914 72.5652 190.314 71.3952C182.905 71.0052 176.665 73.3452 169.645 75.6851C164.185 77.635 158.335 79.585 151.706 80.365C146.246 80.7549 139.616 79.9749 132.986 79.1949C126.356 78.415 120.117 77.635 115.047 78.025C104.127 79.195 101.787 88.9447 99.0573 100.254C97.4973 107.274 95.9374 114.294 92.0375 120.533Z" fill="#FCEE0A"/>
<path fill-rule="evenodd" clip-rule="evenodd" d="M109.585 251.571C106.075 251.571 102.566 250.791 98.2757 248.841C84.2361 242.601 83.4562 222.712 83.0662 207.892C82.6762 201.653 82.6761 196.583 81.5062 193.463C79.1663 186.053 73.3164 179.423 67.8566 173.184C62.3968 166.944 56.937 160.704 56.937 154.854C56.937 147.445 63.9567 141.205 71.7565 134.575C77.6063 129.505 83.8461 124.435 87.356 118.196C92.0358 110.786 93.5958 101.426 94.7658 93.2366C96.7157 79.5871 98.6656 67.8876 112.705 67.8876C117.385 67.8876 123.235 69.4476 129.865 70.6175C137.664 72.5675 145.854 74.1273 151.704 73.3474C159.114 72.5674 165.744 69.4475 171.593 65.9377C179.003 62.4278 185.633 58.918 193.823 58.918C213.712 58.918 217.222 77.6373 219.952 94.0166C221.512 101.426 222.682 108.446 225.412 112.736C228.531 117.806 233.601 122.096 238.281 126.385C246.471 134.185 255.051 141.985 255.051 152.904C255.051 166.164 244.911 171.624 233.991 177.473C226.582 181.373 219.172 185.663 214.492 191.903C209.422 199.313 208.642 205.942 207.862 211.792C207.082 218.032 206.302 223.882 200.062 227.782C194.213 232.071 185.633 230.901 177.053 229.732C173.543 229.342 170.033 228.952 166.913 228.952C152.874 228.952 142.344 235.581 133.375 241.431C125.575 246.501 118.165 251.571 109.585 251.571ZM112.705 69.4475C99.8356 69.4475 98.2757 79.9772 95.9358 93.6266C94.7658 101.816 93.2058 111.176 88.526 118.976C84.6261 125.215 78.3863 130.285 72.5365 135.355C65.1268 141.985 58.1069 147.835 58.1069 154.854C58.1069 159.924 63.1768 166.164 69.0266 172.404C74.0964 178.643 80.3362 185.273 82.6762 193.073C83.8461 196.193 84.2361 201.653 84.2361 207.892C85.0161 223.102 85.4061 241.821 99.0556 247.671C112.315 253.911 121.675 247.671 132.595 240.651C141.954 234.411 152.484 227.782 166.913 227.782C170.033 227.782 173.933 228.172 177.443 228.562C185.243 229.732 193.823 230.512 199.672 226.612C205.132 223.102 205.912 218.032 206.692 211.402C207.472 205.552 208.252 198.533 213.322 191.123C218.002 184.493 225.802 180.593 233.211 176.304C243.741 170.844 253.881 165.384 253.881 152.904C253.881 142.375 245.691 134.965 237.501 127.555C232.431 123.266 227.362 118.586 224.242 113.516C221.512 108.836 220.342 101.816 218.782 94.0166C216.052 78.4172 212.542 60.4779 193.823 60.4779C186.023 60.4779 179.393 63.5978 172.373 67.1077C166.134 70.6176 159.504 73.7374 151.704 74.9074C145.854 75.6874 137.664 73.7374 129.475 72.1774C123.235 70.6175 116.995 69.4475 112.705 69.4475Z" fill="#FCEE0A"/>
<defs>
<filter id="filter0_f_767_970" x="84" y="76" width="138" height="151" filterUnits="userSpaceOnUse" color-interpolation-filters="sRGB">
<feFlood flood-opacity="0" result="BackgroundImageFix"/>
<feBlend mode="normal" in="SourceGraphic" in2="BackgroundImageFix" result="shape"/>
<feGaussianBlur stdDeviation="25" result="effect1_foregroundBlur_767_970"/>
</filter>
<radialGradient id="paint0_radial_767_970" cx="0" cy="0" r="1" gradientUnits="userSpaceOnUse" gradientTransform="translate(27943.8 47039.2) scale(7205.84 7205.8)">
<stop offset="0.49"/>
<stop offset="1" stop-color="#163C5B"/>
</radialGradient>
</defs>
</svg>
