<svg width="439" height="145" viewBox="0 0 439 145" fill="none" xmlns="http://www.w3.org/2000/svg">
<path fill-rule="evenodd" clip-rule="evenodd" d="M438.868 18.5473V127.624L426.143 140.329H109.301L96.443 127.491L77.2795 108.376H34.6349C34.6349 108.376 0.227661 142.522 0.227661 143.165V129.552L37.2292 92.6072V24.5409L57.6804 4.12097H424.439L438.868 18.5473ZM57.8319 4.49912L37.6079 24.711V92.7774L37.4943 92.8719L0.587479 129.722V142.125C1.30706 141.331 2.67047 139.913 5.32155 137.21C8.18094 134.279 12.1576 130.271 17.1567 125.26C25.6591 116.752 34.2751 108.187 34.3509 108.111L34.4645 107.998H77.431L77.5446 108.111L96.6892 127.226L109.452 139.97H425.954L438.489 127.453V18.6985L424.249 4.49912H57.8319Z" fill="#02D7F2"/>
<path d="M13.5416 143.563L38.9163 118.208H73.0395L91.313 136.454V143.979H13.1061L13.5416 143.563Z" stroke="#02D7F2" stroke-width="2" stroke-miterlimit="10"/>
<g opacity="0.1">
<path d="M0.225586 143.165V129.552L37.2271 92.6072V24.5409L57.6784 4.12097H424.437L438.866 18.5473V127.624L426.141 140.329H109.299L96.441 127.491L77.2774 108.376H34.6328C34.6328 108.376 0.225586 142.522 0.225586 143.165Z" fill="#02D7F2"/>
</g>
<g opacity="0.1">
<path d="M13.5384 143.562L38.9131 118.207H73.0363L91.3098 136.453V143.978H13.1029L13.5384 143.562Z" fill="#02D7F2"/>
</g>
<path opacity="0.1" d="M328.753 4.44297L336.858 12.5542H411.524L424.514 25.5246V122.746L413.474 133.769H261.548L254.731 140.576H426.142L439 127.738V18.5478L424.495 4.06482C424.495 4.06482 328.261 4.93456 328.753 4.44297Z" fill="#02D7F2"/>
<path opacity="0.1" d="M47.4566 118.55L43.7261 122.274H39.1814L25.3958 136.039L30.3381 140.993H64.0258L67.0556 144.018H13.1061L38.9352 118.228L47.4566 118.55Z" fill="#02D7F2"/>
<path opacity="0.1" d="M164.481 4.76438L157.19 12.0626H64.8379L45.7501 31.1023V91.322L52.6997 98.2421H87.2206L129.373 140.311H109.3L77.298 108.358H34.6345L0 142.939V129.553L37.1152 92.4943V24.5414L57.6232 4.06482C57.6232 4.06482 165.144 4.12153 164.481 4.76438Z" fill="#02D7F2"/>
<path d="M3.78625 126.561V139.042L6.0397 136.764V124.159L3.78625 126.561Z" fill="#02D7F2"/>
<path d="M7.57446 122.32V135.099L10.0993 132.882V119.973L7.57446 122.32Z" fill="#02D7F2"/>
<path d="M12.6241 117.214V130.166L14.8775 127.916L15.149 114.706L12.6241 117.214Z" fill="#02D7F2"/>
<path d="M16.7911 113.052V126.022L19.0256 123.772L19.2531 110.606L16.7911 113.052Z" fill="#02D7F2"/>
<path d="M20.9374 108.891V121.861L23.1908 119.611L23.6706 106.508L20.9374 108.891Z" fill="#02D7F2"/>
<path d="M37.3424 49.3859L33.9338 45.9826V17.3002L51.2795 0H101.082L103.032 1.94744H114.489L116.875 4.32978H57.4717L37.172 24.5984C37.172 24.5984 37.0205 49.3859 37.3424 49.3859Z" fill="#02D7F2"/>
<path d="M428.623 4.34579L438.848 14.5557V4.28906L428.623 4.34579Z" fill="#02D7F2"/>
<path d="M438.791 110.437L431.577 117.641V123.88L418.056 137.38H317.542L314.721 140.197H426.142L438.81 127.548C438.81 127.548 438.791 110.116 438.791 110.437Z" fill="#02D7F2"/>
<path d="M246.381 4.44325L248.445 6.52305H350.095L352.708 9.13225H400.238L402.719 6.67429H411.941L414.497 4.10291L246.381 4.44325Z" fill="#02D7F2"/>
</svg>
