<svg width="821" height="459" viewBox="0 0 821 459" fill="none" xmlns="http://www.w3.org/2000/svg">
<rect width="821" height="459" fill="#0E2108" fill-opacity="0.8"/>
<path d="M237.341 21.5168H316.457C316.919 21.5168 317.382 21.2857 317.845 20.823C317.845 20.3603 317.613 19.8976 317.151 19.4349L307.435 11.8009C307.435 11.8009 307.203 11.8009 306.741 11.8009H247.057C246.594 11.8009 246.363 11.8009 246.363 11.8009L235.953 19.4349C235.953 19.8976 235.953 20.3603 235.953 20.823C235.953 21.2857 236.415 21.5168 237.341 21.5168Z" fill="#40F4FF"/>
<path d="M312.995 437.909H195.708L202.648 432.357H306.055H309.525H361.575L368.515 437.909H316.465L326.181 444.849H418.483L425.423 437.909H372.679L362.963 430.276C362.963 429.813 362.731 429.581 362.269 429.581H306.749H303.279H201.954C201.954 429.581 201.723 429.813 201.261 430.276L191.544 437.909H160.314H140.188H127.696H111.04H98.5479H25.6777L2.08192 414.313C1.61925 413.851 1.1565 413.619 0.693833 413.619C0.231165 414.082 0 414.545 0 415.007V438.603C0 439.297 0.693663 439.991 1.38767 439.991H24.9839H101.324L120.756 455.259H133.248L113.816 439.991H130.472L149.904 455.259H162.396L142.964 439.991H159.62L179.052 455.259C179.052 455.259 179.284 455.259 179.746 455.259H335.203L312.995 437.909Z" fill="#40F4FF"/>
<path d="M818.214 430.28H699.541C699.078 430.28 698.846 430.28 698.846 430.28L689.131 437.914L665.535 456.652H473.991L449.701 437.914C449.701 437.914 449.469 437.914 449.006 437.914H428.881L419.859 446.936C419.396 446.936 419.165 447.167 419.165 447.63H328.945L338.661 455.264H468.439L472.603 458.734C472.603 458.734 472.834 458.734 473.296 458.734H665.535C665.997 458.734 666.229 458.734 666.229 458.734L690.519 439.996H818.214C818.908 439.996 819.603 439.302 819.603 438.608V430.974C819.603 430.28 818.908 430.28 818.214 430.28Z" fill="#40F4FF"/>
<path d="M666.242 437.218H474.003C473.541 437.218 473.078 437.449 472.615 437.912C472.615 438.375 472.847 438.837 473.309 439.3L483.025 446.934C483.025 447.397 483.257 447.628 483.719 447.628H656.526C656.989 447.628 657.22 447.397 657.22 446.934L666.936 439.3C667.399 438.837 667.63 438.375 667.63 437.912C667.167 437.449 666.705 437.218 666.242 437.218Z" fill="#40F4FF"/>
<path d="M819.612 18.7378H796.016H656.522L637.784 4.16382H625.292L644.03 18.7378H628.068L608.636 4.16382H596.144L615.576 18.7378H598.92L580.182 4.16382C579.72 4.16382 579.488 4.16382 579.488 4.16382H438.606C438.144 4.16382 437.681 4.16382 437.219 4.16382L419.174 18.7378H341.446L317.851 0C317.851 0 317.619 0 317.156 0H237.346C236.884 0 236.653 0 236.653 0L213.056 18.7378H70.7866L80.5028 11.1038H160.313V9.0219H80.5028C80.0401 9.0219 79.5774 9.0219 79.1147 9.0219L66.6228 18.7378H2.7748C2.0808 18.7378 1.38672 19.4319 1.38672 20.1259V27.7599C1.38672 28.4539 2.0808 29.1478 2.7748 29.1478H203.341C203.803 29.1478 204.266 29.1478 204.729 29.1478L214.445 20.82L238.041 2.08191H316.463L340.752 20.82C340.752 21.2826 340.984 21.5138 341.446 21.5138H395.579L402.519 29.1478C402.981 29.1478 403.444 29.1478 403.906 29.1478H501.76C502.223 29.1478 502.454 29.1478 502.454 29.1478L509.394 21.5138H598.92C599.383 21.5138 599.614 21.5138 599.614 21.5138H618.352H619.046H630.844H647.5H659.992H795.322L818.918 45.1099C819.381 45.1099 819.612 45.1099 819.612 45.1099C820.075 45.1099 820.306 45.1099 820.306 45.1099C820.768 45.1099 821 44.6472 821 43.7218V20.1259C821 19.4319 820.306 18.7378 819.612 18.7378Z" fill="#40F4FF"/>
<path d="M209.584 44.4152H18.04V87.4429L25.6739 95.077V273.435L18.04 281.069V408.07L31.9201 421.95H186.682L196.398 414.316H367.817L378.227 421.95H426.807H426.113H684.281L693.997 414.316H807.813V377.534L800.18 369.9V266.495L807.813 258.861V55.5192L789.075 36.7811H703.713L704.408 37.4752H514.251L508.005 43.7211H396.965L390.719 37.4752H371.287L371.981 36.7811H363.653L364.347 37.4752H218.607L209.584 44.4152Z" fill="#02D7F2" fill-opacity="0.08"/>
</svg>
