<svg width="358" height="216" viewBox="0 0 358 216" fill="none" xmlns="http://www.w3.org/2000/svg">
<path d="M228.105 16.5583H156.448L148.739 1.99841H41.396V0H150.167L157.59 14.5599H226.963L234.671 0H356.86V1.99841H235.813L228.105 16.5583Z" fill="#02D7F2"/>
<path fill-rule="evenodd" clip-rule="evenodd" d="M73.3683 215.309H0.568848V54.5282L0.85444 53.9572L49.3874 5.70972H146.453L154.162 20.2696H230.387L238.095 5.70972H358V156.213L357.715 156.498L313.749 200.463H86.7863L73.3683 215.309ZM2.5673 213.31H72.5119L85.9299 198.465H312.893L356.002 155.642V7.70812H239.522L231.814 22.5535H153.02L145.311 7.70812H50.2439L2.5673 55.3846V213.31Z" fill="#02D7F2"/>
<path opacity="0.15" d="M51.958 12.5605H142.458L150.166 27.1205H234.67L242.379 12.5605H351.15V153.357L310.896 193.611H83.6472L70.2293 208.46L7.42188 208.456V57.0967L51.958 12.5605Z" fill="#02D7F2"/>
<path d="M317.174 208.028H93.6367V206.029H316.317L355.144 167.488L356.571 168.916L317.174 208.028Z" fill="#02D7F2"/>
<path d="M242.379 12.5605L239.238 18.2703H351.15V12.5605H242.379Z" fill="#02D7F2"/>
<path d="M9.42108 206.17H7.13721V57.0971L50.8169 13.7029L52.2443 15.1303L9.42108 57.9535V100.063V206.17Z" fill="#02D7F2"/>
<path d="M313.75 208.027H326.025L357.715 176.337V164.918L313.75 208.027Z" fill="#02D7F2"/>
<path d="M51.9568 12.5605L46.2471 18.2703H145.597L142.457 12.5605H51.9568Z" fill="#02D7F2"/>
<path d="M75.939 201.462L70.2293 207.457H7.42188V201.462H75.939Z" fill="#02D7F2"/>
<path d="M154.448 0L160.158 11.4195H224.107L230.102 0H154.448Z" fill="#02D7F2"/>
<path d="M45.3925 0H33.1166L0 33.1166V44.2506L45.3925 0Z" fill="#02D7F2"/>
</svg>
