<svg width="251" height="251" viewBox="0 0 251 251" fill="none" xmlns="http://www.w3.org/2000/svg">
<g id="Group 3437">
<path id="Vector" fill-rule="evenodd" clip-rule="evenodd" d="M250.03 45.54V132.908C250.03 133.259 249.854 133.61 249.504 133.961L244.24 139.224V243.435C244.24 243.961 243.714 244.487 243.188 244.487H203.714L198.451 249.751C198.1 250.101 197.925 250.277 197.925 250.277H182.135L177.925 246.066H161.609L157.925 250.277H110.556C110.205 250.277 109.855 250.101 109.504 249.751L104.24 244.487H44.7669L39.5037 249.751C39.5037 250.101 39.3281 250.277 38.9772 250.277H6.34556C5.81925 250.277 5.29319 249.751 5.29319 249.224V243.435V231.856V201.856V190.803L0.0300293 185.014C0.0300293 185.014 0.0300293 184.838 0.0300293 184.487V160.277C0.0300293 159.926 0.0300293 159.751 0.0300293 159.751L5.29319 153.961V110.277L0.0300293 104.487C0.0300293 104.487 0.0300293 104.312 0.0300293 103.961V41.3295C0.0300293 40.9786 0.0300293 40.6277 0.0300293 40.2768L5.29319 35.0137V6.06632H74.2404L80.0298 0.276855C80.0298 0.276855 80.2054 0.276855 80.5563 0.276855H95.2931L101.082 5.54001C101.082 5.89089 101.258 6.06632 101.609 6.06632H132.135C132.135 6.06632 132.31 5.89089 132.661 5.54001L137.925 0.276855H167.925C168.275 0.276855 168.451 0.276855 168.451 0.276855L174.24 6.06632H204.767L210.03 0.276855C210.381 0.276855 210.556 0.276855 210.556 0.276855H243.188C243.714 0.276855 244.24 0.803163 244.24 0.803163V39.7505L249.504 45.0137C249.854 45.3646 250.03 45.54 250.03 45.54ZM104.767 242.908H148.451L158.451 232.908H66.8719L76.872 242.908H104.767ZM242.661 150.803V138.698V130.277L235.819 123.961C235.819 123.61 235.819 123.435 235.819 123.435V103.435C234.416 102.031 232.837 100.452 231.082 98.6979C231.082 98.6979 231.082 98.5225 231.082 98.1716V76.0663L235.819 70.8032V55.0137L231.082 49.7505V19.2242H18.9773V42.9084L7.39826 54.4874V63.9611L18.9773 52.3821V60.2769L7.39826 71.8558V81.3295L18.9773 69.7505V77.6453L7.39826 88.6979V171.856L18.9773 183.435C18.9773 183.435 18.9773 183.61 18.9773 183.961V231.329H163.188H236.872V182.908C236.872 182.558 236.872 182.382 236.872 182.382C238.977 180.277 240.556 178.698 242.661 176.593V173.435L236.872 179.224V173.961L242.661 168.172V164.487L236.872 170.277V165.54L242.661 159.751V156.066L236.872 161.856V156.593L242.661 150.803ZM145.293 7.64528L135.293 17.6453H231.082V7.64528H145.293ZM237.398 122.908L242.661 128.172V109.751L237.398 105.014V122.908Z" fill="#FCEE0A"/>
<path id="Vector_2" d="M97.9279 0.276855L101.612 4.4874H131.612L135.823 0.276855H97.9279Z" fill="#FCEE0A"/>
<path id="Vector_3" d="M221.61 84.4882H223.189V27.6461C223.189 27.1198 223.189 26.5935 222.662 26.5935H165.294V28.1725H221.61V84.4882Z" fill="#FCEE0A"/>
<path id="Vector_4" d="M221.61 221.857H165.294V223.962H222.662C223.189 223.962 223.189 223.436 223.189 222.909V165.541H221.61V221.857Z" fill="#FCEE0A"/>
<path id="Vector_5" d="M27.9284 165.541H26.3495V222.909C26.3495 223.436 26.3494 223.962 26.8757 223.962H84.2443V221.857H27.9284V165.541Z" fill="#FCEE0A"/>
<path id="Vector_6" d="M27.9284 28.1725H84.2443V26.5935H26.8757C26.3494 26.5935 26.3495 27.1198 26.3495 27.6461V84.4882H27.9284V28.1725Z" fill="#FCEE0A"/>
<path id="Vector_7" d="M223.188 10.2773H221.609V15.0142H223.188V10.2773Z" fill="#FCEE0A"/>
<path id="Vector_8" d="M216.875 10.2773H215.296V15.0142H216.875V10.2773Z" fill="#FCEE0A"/>
<path id="Vector_9" d="M210.557 10.2773H208.452V15.0142H210.557V10.2773Z" fill="#FCEE0A"/>
<path id="Vector_10" d="M203.718 10.2773H202.139V15.0142H203.718V10.2773Z" fill="#FCEE0A"/>
<path id="Vector_11" d="M197.399 10.2773H195.82V15.0142H197.399V10.2773Z" fill="#FCEE0A"/>
<path id="Vector_12" d="M191.082 10.2773H188.976V15.0142H191.082V10.2773Z" fill="#FCEE0A"/>
<path id="Vector_13" d="M184.243 10.2773H182.663V15.0142H184.243V10.2773Z" fill="#FCEE0A"/>
<path id="Vector_14" d="M177.929 10.2773H176.35V15.0142H177.929V10.2773Z" fill="#FCEE0A"/>
<path id="Vector_15" d="M171.612 10.2773H169.506V15.0142H171.612V10.2773Z" fill="#FCEE0A"/>
<path id="Vector_16" d="M164.767 10.2773H163.188V15.0142H164.767V10.2773Z" fill="#FCEE0A"/>
<path id="Vector_17" d="M158.453 10.2773H156.875V15.0142H158.453V10.2773Z" fill="#FCEE0A"/>
<path id="Vector_18" d="M152.135 15.0142V10.2773H150.556V15.0142H152.135Z" fill="#FCEE0A"/>
<path id="Vector_19" d="M85.2961 240.804H86.8753V234.488H85.2961V240.804Z" fill="#FCEE0A"/>
<path id="Vector_20" d="M94.2407 240.804H95.8195V234.488H94.2407V240.804Z" fill="#FCEE0A"/>
<path id="Vector_21" d="M102.666 240.804H104.244V234.488H102.666V240.804Z" fill="#FCEE0A"/>
<path id="Vector_22" d="M113.189 234.488H111.61V240.804H113.189V234.488Z" fill="#FCEE0A"/>
<path id="Vector_23" d="M122.135 234.488H120.029V240.804H122.135V234.488Z" fill="#FCEE0A"/>
<path id="Vector_24" d="M130.558 234.488H128.979V240.804H130.558V234.488Z" fill="#FCEE0A"/>
<path id="Vector_25" d="M139.503 234.488H137.924V240.804H139.503V234.488Z" fill="#FCEE0A"/>
<path id="Vector_26" d="M170.556 111.856L127.925 112.383L130.556 47.1196L78.9774 139.751L122.135 139.225L118.977 203.962L170.556 111.856Z" fill="#FCEE0A"/>
</g>
</svg>
