<svg width="47" height="53" viewBox="0 0 47 53" fill="none" xmlns="http://www.w3.org/2000/svg">
<g clip-path="url(#clip0_828_845)">
<g clip-path="url(#clip1_828_845)">
<g clip-path="url(#clip2_828_845)">
<g clip-path="url(#clip3_828_845)">
<path fill-rule="evenodd" clip-rule="evenodd" d="M-298.403 4.78014C-298.403 2.1357 -296.576 0.00102615 -294.314 0.00102615C-292.133 0.00102615 -290.334 2.04013 -290.225 4.55713H-172.512L-155.337 24.6294H47.4028V25.2666H-155.583L-172.73 5.19434H-290.252C-290.415 7.64762 -292.187 9.55925 -294.314 9.55925C-296.576 9.55925 -298.403 7.42458 -298.403 4.78014ZM-297.858 4.78014C-297.858 7.07411 -296.276 8.92203 -294.314 8.92203C-292.351 8.92203 -290.77 7.07411 -290.77 4.78014C-290.77 2.48616 -292.351 0.638241 -294.314 0.638241C-296.276 0.638241 -297.858 2.48616 -297.858 4.78014Z" fill="#02D7F2"/>
<path fill-rule="evenodd" clip-rule="evenodd" d="M39.5279 46.6811C39.5279 49.3256 37.7014 51.4603 35.4388 51.4603C33.3669 51.4603 31.6767 49.6761 31.4041 47.3502V47.4458H-105.583L-124.284 25.5894H-210.319V24.9521H-124.065L-105.364 46.8086H31.3496C31.3496 46.7661 31.3496 46.7236 31.3496 46.6811C31.3496 44.0367 33.1761 41.902 35.4388 41.902C37.7014 41.902 39.5279 44.0367 39.5279 46.6811ZM38.9827 46.6811C38.9827 44.3872 37.4016 42.5393 35.4388 42.5393C33.476 42.5393 31.8948 44.3872 31.8948 46.6811C31.8948 48.9751 33.476 50.823 35.4388 50.823C37.4016 50.823 38.9827 48.9751 38.9827 46.6811Z" fill="#02D7F2"/>
</g>
</g>
</g>
</g>
<defs>
<clipPath id="clip0_828_845">
<rect width="47" height="53" fill="white"/>
</clipPath>
<clipPath id="clip1_828_845">
<rect width="390" height="53" fill="white"/>
</clipPath>
<clipPath id="clip2_828_845">
<rect width="987.611" height="51.4612" fill="white" transform="translate(-298.403)"/>
</clipPath>
<clipPath id="clip3_828_845">
<rect width="345.806" height="51.4594" fill="white" transform="matrix(-1 0 0 -1 47.4028 51.4604)"/>
</clipPath>
</defs>
</svg>
