<svg width="322" height="73" viewBox="0 0 322 73" fill="none" xmlns="http://www.w3.org/2000/svg">
<path fill-rule="evenodd" clip-rule="evenodd" d="M-172.212 54.939C-172.212 51.204 -169.407 48.189 -165.932 48.189C-162.666 48.189 -159.986 50.889 -159.693 54.309H19.8815L60.8291 10.344H238.729V11.244H61.164L20.2583 55.209H-159.652C-159.777 58.809 -162.54 61.689 -165.932 61.689C-169.407 61.689 -172.212 58.674 -172.212 54.939ZM-171.375 54.939C-171.375 58.179 -168.946 60.789 -165.932 60.789C-162.917 60.789 -160.489 58.179 -160.489 54.939C-160.489 51.699 -162.917 49.089 -165.932 49.089C-168.946 49.089 -171.375 51.699 -171.375 54.939Z" fill="#02D7F2"/>
<path fill-rule="evenodd" clip-rule="evenodd" d="M-209.568 6.75394C-209.568 3.01894 -206.763 0.0039444 -203.288 0.0039444C-199.938 0.0039444 -197.175 2.88396 -197.008 6.43896H-16.2185L10.1588 34.789H321.536V35.689H9.78198L-16.5534 7.33897H-197.049C-197.301 10.804 -200.022 13.5039 -203.288 13.5039C-206.763 13.5039 -209.568 10.4889 -209.568 6.75394ZM-208.731 6.75394C-208.731 9.99394 -206.302 12.6039 -203.288 12.6039C-200.273 12.6039 -197.845 9.99394 -197.845 6.75394C-197.845 3.51394 -200.273 0.903942 -203.288 0.903942C-206.302 0.903942 -208.731 3.51394 -208.731 6.75394Z" fill="#02D7F2"/>
<path fill-rule="evenodd" clip-rule="evenodd" d="M309.441 65.939C309.441 69.674 306.636 72.689 303.161 72.689C299.979 72.689 297.383 70.169 296.964 66.884V67.019H86.5736L57.8516 36.149H-74.2861V35.249H58.1866L86.9085 66.119H296.88C296.88 66.059 296.88 65.999 296.88 65.939C296.88 62.204 299.686 59.189 303.161 59.189C306.636 59.189 309.441 62.204 309.441 65.939ZM308.604 65.939C308.604 62.699 306.175 60.089 303.161 60.089C300.146 60.089 297.718 62.699 297.718 65.939C297.718 69.179 300.146 71.789 303.161 71.789C306.175 71.789 308.604 69.179 308.604 65.939Z" fill="#02D7F2"/>
</svg>
