<svg width="184" height="129" viewBox="0 0 184 129" fill="none" xmlns="http://www.w3.org/2000/svg">
<path d="M0.833008 91.585C0.833008 80.835 5.11621 71.8486 13.6826 64.626C22.333 57.4033 32.3691 53.792 43.791 53.792H140.541C145.916 53.792 150.829 52.2803 155.28 49.2568C159.815 46.2334 162.083 42.3701 162.083 37.667C162.083 32.7119 159.899 28.8066 155.532 25.9512C151.249 23.0117 146.252 21.542 140.541 21.542H33.083C29.8916 21.542 27.2881 20.5342 25.2725 18.5186C23.3408 16.5029 22.375 13.8994 22.375 10.708C22.375 7.68457 23.3828 5.16504 25.3984 3.14941C27.498 1.0498 30.0596 0 33.083 0H140.541C151.879 0 161.873 3.56934 170.523 10.708C179.258 17.8467 183.625 26.749 183.625 37.415C183.625 48.165 179.3 57.1514 170.649 64.374C161.999 71.5967 151.963 75.208 140.541 75.208H43.791C38.248 75.208 33.293 76.6777 28.9258 79.6172C24.5586 82.5566 22.375 86.4619 22.375 91.333V107.458H43.791H172.791C175.73 107.458 178.25 108.55 180.35 110.733C182.533 112.833 183.625 115.353 183.625 118.292C183.625 121.315 182.575 123.877 180.476 125.977C178.376 127.992 175.814 129 172.791 129H11.541C9.18945 129 7.21582 128.622 5.62012 127.866C4.1084 127.11 3.0166 126.103 2.34473 124.843C1.75684 123.583 1.33691 122.533 1.08496 121.693C0.916992 120.77 0.833008 119.846 0.833008 118.922V118.292V91.585Z" fill="white"/>
</svg>
