<svg width="173" height="129" viewBox="0 0 173 129" fill="none" xmlns="http://www.w3.org/2000/svg">
<path d="M10.958 129C7.93457 129 5.37305 127.992 3.27344 125.977C1.25781 123.877 0.25 121.315 0.25 118.292C0.25 115.269 1.25781 112.707 3.27344 110.607C5.37305 108.508 7.93457 107.458 10.958 107.458H129.25C134.877 107.458 139.874 105.904 144.241 102.797C148.608 99.6895 150.792 95.6162 150.792 90.5771C150.792 85.5381 148.566 81.3809 144.115 78.1055C139.748 74.7461 134.793 73.0664 129.25 73.0664H10.958C6.59082 73.0664 3.39941 71.1348 1.38379 67.2715C0.62793 66.1797 0.25 64.626 0.25 62.6104V62.3584C0.25 59.335 1.25781 56.8154 3.27344 54.7998C5.37305 52.7002 7.93457 51.6504 10.958 51.6504H129.25C135.129 51.6504 140.168 50.4326 144.367 47.9971C148.65 45.4775 150.792 41.7402 150.792 36.7852C150.792 31.8301 148.65 28.0508 144.367 25.4473C140.168 22.8438 135.129 21.542 129.25 21.542H10.958C8.01855 21.542 5.49902 20.4922 3.39941 18.3926C1.2998 16.293 0.25 13.8154 0.25 10.96C0.25 7.93652 1.25781 5.375 3.27344 3.27539C5.37305 1.0918 7.93457 0 10.958 0H129.25C140.84 0 150.876 3.40137 159.358 10.2041C167.925 17.0068 172.208 25.7832 172.208 36.5332C172.208 46.4434 168.009 55.0518 159.61 62.3584C163.474 65.7178 166.539 69.875 168.807 74.8301C171.074 79.7852 172.208 84.9502 172.208 90.3252C172.208 101.243 167.883 110.439 159.232 117.914C150.666 125.305 140.672 129 129.25 129H10.958Z" fill="white"/>
</svg>
