<svg width="84" height="83" viewBox="0 0 84 83" fill="none" xmlns="http://www.w3.org/2000/svg">
<g id="Ai">
<g id="Vector">
<path fill-rule="evenodd" clip-rule="evenodd" d="M24.7189 38.6148L29.7919 23.3959H36.3536L41.4266 38.6148L56.6455 43.6878V50.2496L41.4266 55.3225L36.3536 70.5415H29.7919L24.7189 55.3225L9.5 50.2496V43.6878L24.7189 38.6148ZM33.0728 35.4257L30.7338 42.4425L28.5466 44.6298L21.5298 46.9687L28.5466 49.3076L30.7338 51.4949L33.0728 58.5117L35.4117 51.4949L37.5989 49.3076L44.6157 46.9687L37.5989 44.6298L35.4117 42.4425L33.0728 35.4257Z" fill="#FFFCFF"/>
<path fill-rule="evenodd" clip-rule="evenodd" d="M56.073 18.0939L58.7709 10H62.7079L65.4059 18.0939L73.4998 20.7918V24.7289L65.4059 27.4268L62.7079 35.5207H58.7709L56.073 27.4268L47.9791 24.7289V20.7918L56.073 18.0939Z" fill="#FFFCFF"/>
</g>
</g>
</svg>
