<svg width="192" height="193" viewBox="0 0 192 193" fill="none" xmlns="http://www.w3.org/2000/svg">
<g id="baby">
<path id="Vector" fill-rule="evenodd" clip-rule="evenodd" d="M96 175.158C129.728 175.158 158.242 148.434 167.574 117.757C169.672 110.86 184 110.86 184 95.958C184 81.056 169.536 80.1984 167.195 72.95C157.49 42.8964 129.284 16.7578 96 16.7578C62.698 16.7578 34.4789 42.9208 24.789 73.0004C22.4587 80.234 8 80.7944 8 95.958C8 111.121 22.369 111.121 24.5396 118.126C33.9868 148.614 62.4072 175.158 96 175.158Z" stroke="white" stroke-width="8"/>
<path id="Vector_2" d="M167.195 72.95C157.49 42.8964 129.284 16.7578 96 16.7578" stroke="white" stroke-width="2" stroke-linecap="round"/>
<path id="Vector_3" d="M76.4008 87.157C76.4008 90.4622 75.504 93.3642 74.1592 95.3814C72.8052 97.4126 71.154 98.357 69.6008 98.357C68.0476 98.357 66.3964 97.4126 65.0424 95.3814C63.6976 93.3642 62.8008 90.4622 62.8008 87.157C62.8008 83.8514 63.6976 80.9498 65.0424 78.9326C66.3964 76.9014 68.0476 75.957 69.6008 75.957C71.154 75.957 72.8052 76.9014 74.1592 78.9326C75.504 80.9498 76.4008 83.8514 76.4008 87.157Z" fill="white" stroke="white" stroke-width="0.5"/>
<path id="Vector_4" d="M129.2 87.157C129.2 90.4622 128.303 93.3642 126.958 95.3814C125.604 97.4126 123.953 98.357 122.4 98.357C120.846 98.357 119.195 97.4126 117.841 95.3814C116.496 93.3642 115.6 90.4622 115.6 87.157C115.6 83.8514 116.496 80.9498 117.841 78.9326C119.195 76.9014 120.846 75.957 122.4 75.957C123.953 75.957 125.604 76.9014 126.958 78.9326C128.303 80.9498 129.2 83.8514 129.2 87.157Z" fill="white" stroke="white" stroke-width="0.5"/>
<path id="Vector_5" fill-rule="evenodd" clip-rule="evenodd" d="M73.9919 127.76C81.7155 132.958 89.0639 135.558 96.0375 135.558C103.004 135.558 109.91 132.964 116.758 127.776" fill="white"/>
<path id="Vector_6" d="M73.9919 127.76C81.7155 132.958 89.0639 135.558 96.0375 135.558C103.004 135.558 109.91 132.964 116.758 127.776" stroke="white" stroke-width="2" stroke-linecap="round"/>
<path id="Vector_7" d="M126.913 25.5586C127.986 33.2925 125.627 38.9439 119.837 42.5128C114.048 46.0812 104.641 47.7536 91.6172 47.5296" stroke="white" stroke-width="8" stroke-linecap="round"/>
</g>
</svg>
