<svg width="61" height="60" viewBox="0 0 61 60" fill="none" xmlns="http://www.w3.org/2000/svg">
<g id="bx-chat">
<path id="Vector" d="M13 45V54.415L16.7875 52.1425L28.6925 45H40.5C43.2575 45 45.5 42.7575 45.5 40V20C45.5 17.2425 43.2575 15 40.5 15H10.5C7.7425 15 5.5 17.2425 5.5 20V40C5.5 42.7575 7.7425 45 10.5 45H13ZM10.5 20H40.5V40H27.3075L18 45.585V40H10.5V20Z" fill="white"/>
<path id="Vector_2" d="M50.5 5H20.5C17.7425 5 15.5 7.2425 15.5 10H45.5C48.2575 10 50.5 12.2425 50.5 15V35C53.2575 35 55.5 32.7575 55.5 30V10C55.5 7.2425 53.2575 5 50.5 5Z" fill="white"/>
</g>
</svg>
