<svg width="792" height="721" viewBox="0 0 792 721" fill="none" xmlns="http://www.w3.org/2000/svg">
<path d="M3.95996 300.141L36.0129 332.193L4.57707 363.629L3.95996 300.141Z" stroke="#02D7F2" stroke-width="2" stroke-miterlimit="10"/>
<path d="M11.1831 318.218L24.9408 331.939L11.292 345.588L11.1831 318.218Z" fill="#02D7F2"/>
<path d="M8.49756 714.758H731.702L783.503 662.958V372.159H525.518L512.596 385.118H147.998L138.706 375.825H61.3141L9.04206 428.097L8.49756 714.758Z" stroke="#02D7F2" stroke-width="2" stroke-miterlimit="10"/>
<path d="M142.262 379.383L147.998 385.118H512.595L520.617 377.096" stroke="#02D7F2" stroke-width="12" stroke-miterlimit="10"/>
<path d="M702.408 714.758H731.702L783.502 662.958V641.577" stroke="#02D7F2" stroke-width="12" stroke-miterlimit="10"/>
<path d="M708.289 383.776V595.332H770.107V383.776H708.289Z" fill="#02D7F2"/>
<path opacity="0.1" d="M770.107 595.331V653.701L724.66 699.149H24.9409V431.11L65.9962 390.054H133.623L142.154 398.549H520.617L535.9 383.266H770.107V595.331Z" fill="#02D7F2"/>
<path d="M63.6372 714.758H293.271" stroke="#02D7F2" stroke-width="12" stroke-miterlimit="10"/>
<path d="M8.49756 618.237V529.556" stroke="#02D7F2" stroke-width="12" stroke-miterlimit="10"/>
<path d="M1.52783 223.437L87.0869 309.033H753.41L773.121 289.322V164.522L790.472 147.171V5.99999H1.52783V223.437Z" stroke="#02D7F2" stroke-width="2" stroke-miterlimit="10"/>
<path d="M1.55275 560.508V411.424H21.917L7.65117 425.69V552.123L1.55275 560.508Z" fill="#02D7F2"/>
<path opacity="0.1" d="M14.6323 217.449L93.2581 296.075H743.536L759.581 280.066V158.171L777.622 140.13V18.9605H16.4836L14.6323 217.449Z" fill="#02D7F2"/>
<path d="M171.919 6.00064H318.753" stroke="#02D7F2" stroke-width="12" stroke-miterlimit="10"/>
<path d="M64.436 286.381L87.0872 309.033H131.446" stroke="#02D7F2" stroke-width="12" stroke-miterlimit="10"/>
<path d="M268.368 309.034L276.862 317.529H627.702L635.252 310.015L268.368 309.034Z" fill="#02D7F2"/>
</svg>
