<svg width="1440" height="333" viewBox="0 0 1440 333" fill="none" xmlns="http://www.w3.org/2000/svg">
<g clip-path="url(#clip0_313_282)">
<mask id="path-1-inside-1_313_282" fill="white">
<path d="M0 0H1440V333H0V0Z"/>
</mask>
<path d="M0 0H1440V333H0V0Z" fill="#0B0B0F"/>
<path opacity="0.0344828" d="M501.451 -92.8131C496.543 -98.6613 489.145 -102.287 479.419 -103.746C469.685 -105.206 457.682 -104.483 443.684 -101.685C415.69 -96.09 379.925 -82.2366 338.807 -61.3187C256.585 -19.4902 153.157 50.4824 48.0322 138.693C-57.0927 226.903 -143.962 316.609 -199.433 390.318C-227.173 427.179 -247.027 459.995 -257.398 486.593C-262.584 499.892 -265.38 511.587 -265.632 521.427C-265.885 531.259 -263.599 539.174 -258.692 545.022C-253.785 550.87 -246.387 554.496 -236.661 555.955C-226.926 557.415 -214.923 556.692 -200.925 553.894C-172.931 548.299 -137.166 534.446 -96.0477 513.528C-13.8258 471.699 89.6018 401.727 194.727 313.516C299.852 225.306 386.721 135.6 442.192 61.8911C469.932 25.0298 489.785 -7.786 500.157 -34.3837C505.343 -47.683 508.139 -59.3784 508.391 -69.2183C508.644 -79.0497 506.358 -86.9649 501.451 -92.8131Z" stroke="#2B2C3B" stroke-width="2"/>
<path opacity="0.0689655" d="M472.21 -128.692C466.811 -134.09 459.125 -137.057 449.309 -137.663C439.485 -138.269 427.59 -136.503 413.89 -132.496C386.489 -124.482 352.068 -107.564 312.929 -83.1423C234.666 -34.3069 137.73 44.4138 40.6936 141.451C-56.3433 238.487 -135.064 335.423 -183.899 413.686C-208.321 452.825 -225.239 487.246 -233.253 514.647C-237.26 528.348 -239.026 540.242 -238.42 550.066C-237.814 559.882 -234.848 567.568 -229.449 572.967C-224.051 578.365 -216.365 581.332 -206.549 581.937C-196.725 582.543 -184.83 580.778 -171.13 576.771C-143.729 568.756 -109.308 551.839 -70.1691 527.417C8.09439 478.581 105.03 399.861 202.067 302.824C299.104 205.787 377.824 108.851 426.66 30.588C451.082 -8.55073 467.999 -42.972 476.013 -70.3725C480.021 -84.0732 481.786 -95.9677 481.18 -105.792C480.575 -115.608 477.608 -123.294 472.21 -128.692Z" stroke="#2B2C3B" stroke-width="2"/>
<path opacity="0.103448" d="M440.297 -161.905C434.449 -166.812 426.534 -169.098 416.702 -168.846C406.863 -168.593 395.167 -165.798 381.868 -160.612C355.27 -150.24 322.454 -130.387 285.593 -102.646C211.884 -47.1758 122.178 39.6938 33.9677 144.819C-54.2425 249.944 -124.215 353.371 -166.044 435.593C-186.962 476.711 -200.815 512.476 -206.41 540.471C-209.208 554.469 -209.93 566.472 -208.47 576.206C-207.012 585.932 -203.386 593.33 -197.538 598.237C-191.69 603.144 -183.775 605.43 -173.943 605.178C-164.103 604.925 -152.408 602.13 -139.109 596.944C-112.511 586.572 -79.6951 566.719 -42.8339 538.978C30.8755 483.508 120.581 396.638 208.791 291.513C297.002 186.388 366.974 82.9607 408.803 0.738759C429.721 -40.3795 443.574 -76.1443 449.17 -104.139C451.967 -118.137 452.69 -130.14 451.23 -139.874C449.771 -149.6 446.145 -156.998 440.297 -161.905Z" stroke="#2B2C3B" stroke-width="2"/>
<path opacity="0.137931" d="M405.958 -192.223C399.705 -196.602 391.62 -198.189 381.848 -197.081C372.068 -195.972 360.661 -192.168 347.864 -185.842C322.272 -173.192 291.311 -150.554 257.008 -119.707C188.413 -58.0228 106.62 36.3346 27.9079 148.747C-50.8044 261.16 -111.497 370.293 -146 455.848C-163.254 498.632 -173.938 535.469 -177.072 563.844C-178.639 578.033 -178.313 590.053 -176.01 599.623C-173.709 609.185 -169.453 616.239 -163.199 620.618C-156.945 624.996 -148.861 626.584 -139.089 625.475C-129.309 624.366 -117.901 620.562 -105.105 614.237C-79.512 601.586 -48.5514 578.948 -14.2482 548.101C54.3461 486.417 136.139 392.06 214.852 279.647C293.564 167.234 354.256 58.1015 388.759 -27.4532C406.014 -70.2381 416.697 -107.074 419.832 -135.45C421.399 -149.638 421.072 -161.659 418.769 -171.229C416.468 -180.791 412.212 -187.844 405.958 -192.223Z" stroke="#2B2C3B" stroke-width="2"/>
<path opacity="0.172414" d="M369.454 -219.448C362.842 -223.265 354.651 -224.142 345.012 -222.186C335.366 -220.229 324.334 -215.444 312.137 -208.028C287.744 -193.195 258.874 -167.945 227.39 -134.225C164.433 -66.7978 91.175 34.3293 22.5596 153.175C-46.0558 272.02 -97.0054 386.027 -123.921 474.263C-137.381 518.389 -144.813 556.016 -145.462 584.557C-145.787 598.828 -144.414 610.774 -141.286 620.107C-138.16 629.432 -133.305 636.088 -126.694 639.905C-120.082 643.722 -111.89 644.599 -102.252 642.643C-92.6057 640.686 -81.5735 635.902 -69.3767 628.485C-44.9841 613.652 -16.1143 588.402 15.3698 554.683C78.327 487.255 151.585 386.128 220.2 267.283C288.816 148.437 339.765 34.4305 366.681 -53.8058C380.141 -97.9318 387.573 -135.559 388.222 -164.1C388.547 -178.371 387.174 -190.317 384.046 -199.65C380.92 -208.975 376.065 -215.631 369.454 -219.448Z" stroke="#2B2C3B" stroke-width="2"/>
<path opacity="0.206897" d="M331.061 -243.403C324.142 -246.63 315.905 -246.789 306.474 -244.001C297.035 -241.21 286.461 -235.483 274.957 -227.031C251.95 -210.129 225.391 -182.459 196.966 -146.124C140.125 -73.4656 75.9592 33.6615 17.963 158.035C-40.0333 282.408 -80.8526 400.422 -99.9752 490.668C-109.538 535.799 -113.663 573.931 -111.822 602.42C-110.902 616.665 -108.493 628.446 -104.563 637.471C-100.637 646.488 -95.2201 652.695 -88.3011 655.922C-81.3821 659.148 -73.145 659.307 -63.7139 656.519C-54.2747 653.728 -43.7014 648.001 -32.1974 639.55C-9.19041 622.647 17.3688 594.977 45.7943 558.642C102.635 485.984 166.801 378.857 224.797 254.483C282.793 130.11 323.613 12.0962 342.735 -78.1501C352.298 -123.281 356.423 -161.413 354.582 -189.902C353.662 -204.147 351.253 -215.928 347.323 -224.953C343.397 -233.97 337.98 -240.177 331.061 -243.403Z" stroke="#2B2C3B" stroke-width="2"/>
<path opacity="0.241379" d="M291.073 -263.937C283.899 -266.548 275.679 -265.989 266.527 -262.39C257.367 -258.787 247.333 -252.16 236.609 -242.738C215.163 -223.895 191.116 -194.015 165.966 -155.34C115.674 -78.0049 61.0893 34.3069 14.1536 163.262C-32.7821 292.216 -63.1606 413.339 -74.3449 504.908C-79.9381 550.701 -80.7237 589.047 -76.407 617.267C-74.2485 631.378 -70.8219 642.904 -66.1207 651.552C-61.4234 660.192 -55.4863 665.904 -48.3124 668.515C-41.1386 671.126 -32.919 670.567 -23.7667 666.967C-14.6067 663.365 -4.57276 656.738 6.15081 647.316C27.5972 628.473 51.6437 598.593 76.7942 559.918C127.086 482.583 181.671 370.271 228.607 241.316C275.542 112.361 305.921 -8.76073 317.105 -100.33C322.698 -146.123 323.484 -184.469 319.167 -212.689C317.009 -226.8 313.582 -238.326 308.881 -246.974C304.184 -255.614 298.246 -261.326 291.073 -263.937Z" stroke="#2B2C3B" stroke-width="2"/>
<path opacity="0.275862" d="M249.792 -280.92C242.418 -282.895 234.279 -281.622 225.475 -277.238C216.664 -272.851 207.246 -265.375 197.384 -255.054C177.662 -234.413 156.311 -202.552 134.627 -161.832C91.2663 -80.4077 46.678 36.2342 11.1601 168.789C-24.3579 301.344 -44.0643 424.653 -47.2252 516.849C-48.806 562.955 -46.2465 601.223 -39.4867 628.96C-36.1066 642.829 -31.6885 654.012 -26.2514 662.217C-20.819 670.416 -14.4066 675.588 -7.03249 677.564C0.341663 679.54 8.48125 678.267 17.2849 673.883C26.0961 669.496 35.5143 662.019 45.3759 651.699C65.0983 631.058 86.4492 599.196 108.133 558.477C151.494 477.052 196.082 360.41 231.6 227.856C267.118 95.3009 286.824 -28.0081 289.985 -120.204C291.566 -166.31 289.007 -204.579 282.247 -232.315C278.867 -246.184 274.448 -257.368 269.011 -265.573C263.579 -273.771 257.167 -278.944 249.792 -280.92Z" stroke="#2B2C3B" stroke-width="2"/>
<path opacity="0.310345" d="M207.535 -294.257C200.017 -295.582 192.019 -293.604 183.631 -288.47C175.236 -283.332 166.505 -275.063 157.581 -263.922C139.732 -241.641 121.24 -208.04 103.187 -165.585C67.0881 -80.6914 32.8355 39.3927 9.00564 174.539C-14.8242 309.685 -23.7085 434.242 -18.8221 526.362C-16.3784 572.431 -10.4934 610.331 -1.34184 637.373C3.23409 650.894 8.61017 661.65 14.7417 669.35C20.8679 677.044 27.7067 681.638 35.225 682.963C42.7433 684.289 50.7409 682.311 59.129 677.177C67.5243 672.038 76.255 663.769 85.1796 652.629C103.028 630.348 121.521 596.746 139.573 554.292C175.672 469.398 209.925 349.314 233.755 214.168C257.585 79.022 266.469 -45.5352 261.582 -137.656C259.139 -183.724 253.254 -221.624 244.102 -248.666C239.526 -262.187 234.15 -272.943 228.019 -280.644C221.892 -288.337 215.054 -292.931 207.535 -294.257Z" stroke="#2B2C3B" stroke-width="2"/>
<path opacity="0.344828" d="M164.622 -303.877C157.016 -304.542 149.222 -301.875 141.313 -296.029C133.397 -290.178 125.421 -281.18 117.501 -269.304C101.662 -245.552 86.1686 -210.467 71.8848 -166.6C43.3223 -78.8835 19.6661 43.7289 7.70563 180.438C-4.25483 317.146 -2.24944 442.004 10.6473 533.348C17.0968 579.028 26.2626 616.271 37.7362 642.412C43.4731 655.483 49.7662 665.73 56.5455 672.866C63.319 679.996 70.5321 683.977 78.1373 684.642C85.7426 685.308 93.5374 682.64 101.446 676.794C109.362 670.944 117.338 661.945 125.258 650.069C141.097 626.317 156.59 591.232 170.874 547.366C199.437 459.649 223.093 337.036 235.053 200.328C247.014 63.6193 245.008 -61.2383 232.112 -152.582C225.662 -198.263 216.496 -235.505 205.023 -261.647C199.286 -274.718 192.993 -284.964 186.213 -292.101C179.44 -299.231 172.227 -303.212 164.622 -303.877Z" stroke="#2B2C3B" stroke-width="2"/>
<path opacity="0.37931" d="M121.38 -309.734C113.745 -309.734 106.213 -306.397 98.8437 -299.884C91.4682 -293.366 84.306 -283.707 77.4517 -271.185C63.7434 -246.143 51.3665 -209.841 40.9603 -164.897C20.1515 -75.0246 7.2717 49.183 7.2717 186.414C7.2717 323.645 20.1515 447.852 40.9603 537.725C51.3665 582.669 63.7434 618.971 77.4517 644.013C84.306 656.534 91.4682 666.194 98.8437 672.712C106.213 679.225 113.745 682.562 121.38 682.562C129.014 682.562 136.547 679.225 143.916 672.712C151.291 666.194 158.453 656.534 165.308 644.013C179.016 618.971 191.393 582.669 201.799 537.725C222.608 447.852 235.488 323.645 235.488 186.414C235.488 49.183 222.608 -75.0246 201.799 -164.897C191.393 -209.841 179.016 -246.143 165.308 -271.185C158.453 -283.707 151.291 -293.366 143.916 -299.884C136.547 -306.397 129.014 -309.734 121.38 -309.734Z" stroke="#2B2C3B" stroke-width="2"/>
<path opacity="0.413793" d="M78.1375 -311.816C70.5322 -311.151 63.3191 -307.17 56.5456 -300.04C49.7664 -292.904 43.4733 -282.657 37.7363 -269.586C26.2627 -243.445 17.0969 -206.202 10.6474 -160.522C-2.2493 -69.1775 -4.25469 55.68 7.70577 192.389C19.6662 329.097 43.3224 451.71 71.8849 539.427C86.1687 583.293 101.662 618.378 117.501 642.13C125.421 654.006 133.397 663.004 141.313 668.855C149.222 674.701 157.016 677.368 164.622 676.703C172.227 676.038 179.44 672.057 186.214 664.927C192.993 657.791 199.286 647.544 205.023 634.473C216.496 608.331 225.662 571.089 232.112 525.409C245.009 434.064 247.014 309.207 235.053 172.498C223.093 35.7897 199.437 -86.8228 170.874 -174.54C156.59 -218.406 141.097 -253.491 125.258 -277.243C117.339 -289.119 109.362 -298.118 101.446 -303.968C93.5375 -309.814 85.7427 -312.482 78.1375 -311.816Z" stroke="#2B2C3B" stroke-width="2"/>
<path opacity="0.448276" d="M35.2246 -310.138C27.7063 -308.812 20.8676 -304.218 14.7413 -296.524C8.60981 -288.824 3.23373 -278.068 -1.3422 -264.547C-10.4937 -237.505 -16.3788 -199.605 -18.8224 -153.537C-23.7089 -61.416 -14.8246 63.1412 9.00528 198.287C32.8352 333.433 67.0877 453.517 103.187 538.411C121.239 580.865 139.732 614.467 157.58 636.748C166.505 647.889 175.236 656.157 183.631 661.296C192.019 666.43 200.017 668.408 207.535 667.083C215.053 665.757 221.892 661.163 228.018 653.469C234.15 645.769 239.526 635.013 244.102 621.492C253.253 594.45 259.138 556.55 261.582 510.482C266.468 418.361 257.584 293.804 233.754 158.658C209.924 23.5119 175.672 -96.5722 139.573 -181.466C121.52 -223.92 103.028 -257.522 85.1792 -279.803C76.2547 -290.944 67.524 -299.212 59.1287 -304.351C50.7405 -309.485 42.7429 -311.463 35.2246 -310.138Z" stroke="#2B2C3B" stroke-width="2"/>
<path opacity="0.482759" d="M-7.03281 -304.737C-14.407 -302.761 -20.8193 -297.588 -26.2517 -289.39C-31.6888 -281.185 -36.1069 -270.001 -39.487 -256.132C-46.2468 -228.396 -48.8063 -190.127 -47.2255 -144.021C-44.0646 -51.8251 -24.3582 71.4838 11.1598 204.039C46.6777 336.593 91.266 453.235 134.626 534.66C156.311 575.379 177.661 607.241 197.384 627.882C207.245 638.202 216.664 645.679 225.475 650.066C234.278 654.45 242.418 655.723 249.792 653.747C257.166 651.771 263.579 646.599 269.011 638.4C274.448 630.195 278.866 619.011 282.246 605.143C289.006 577.406 291.566 539.138 289.985 493.031C286.824 400.836 267.118 277.527 231.6 144.972C196.082 12.4171 151.493 -104.225 108.133 -185.649C86.4488 -226.369 65.098 -258.23 45.3756 -278.871C35.514 -289.192 26.0958 -296.668 17.2846 -301.055C8.48093 -305.439 0.341347 -306.713 -7.03281 -304.737Z" stroke="#2B2C3B" stroke-width="2"/>
<path opacity="0.517241" d="M-48.3126 -295.692C-55.4865 -293.081 -61.4236 -287.369 -66.1209 -278.729C-70.8221 -270.081 -74.2487 -258.554 -76.4072 -244.444C-80.7239 -216.224 -79.9383 -177.878 -74.3451 -132.085C-63.1608 -40.5154 -32.7823 80.6068 14.1534 209.562C61.0891 338.516 115.674 450.828 165.966 528.164C191.116 566.838 215.163 596.718 236.609 615.561C247.333 624.983 257.367 631.61 266.527 635.213C275.679 638.812 283.898 639.372 291.072 636.761C298.246 634.15 304.183 628.438 308.881 619.797C313.582 611.149 317.008 599.623 319.167 585.513C323.484 557.292 322.698 518.946 317.105 473.154C305.921 381.584 275.542 260.462 228.606 131.507C181.671 2.5523 127.086 -109.76 76.794 -187.095C51.6435 -225.77 27.597 -255.649 6.15062 -274.493C-4.57296 -283.914 -14.6069 -290.542 -23.7669 -294.144C-32.9192 -297.744 -41.1388 -298.303 -48.3126 -295.692Z" stroke="#2B2C3B" stroke-width="2"/>
<path opacity="0.551724" d="M-88.3014 -283.095C-95.2205 -279.869 -100.637 -273.661 -104.563 -264.644C-108.493 -255.62 -110.902 -243.839 -111.822 -229.594C-113.663 -201.105 -109.539 -162.973 -99.9756 -117.842C-80.853 -27.5956 -40.0336 90.418 17.9626 214.791C75.9589 339.165 140.124 446.292 196.965 518.95C225.391 555.285 251.95 582.955 274.957 599.858C286.461 608.309 297.034 614.036 306.473 616.827C315.905 619.615 324.142 619.456 331.061 616.23C337.98 613.003 343.396 606.796 347.323 597.779C351.252 588.754 353.661 576.973 354.582 562.728C356.423 534.239 352.298 496.107 342.735 450.976C323.612 360.73 282.793 242.716 224.797 118.343C166.8 -6.0303 102.635 -113.157 45.794 -185.815C17.3685 -222.151 -9.19075 -249.821 -32.1978 -266.723C-43.7017 -275.175 -54.275 -280.902 -63.7142 -283.693C-73.1454 -286.481 -81.3824 -286.322 -88.3014 -283.095Z" stroke="#2B2C3B" stroke-width="2"/>
<path opacity="0.586207" d="M-126.694 -267.08C-133.306 -263.263 -138.161 -256.607 -141.286 -247.282C-144.414 -237.949 -145.787 -226.003 -145.463 -211.732C-144.813 -183.191 -137.381 -145.564 -123.921 -101.438C-97.0056 -13.2017 -46.0561 100.805 22.5593 219.651C91.1747 338.496 164.433 439.623 227.39 507.05C258.874 540.77 287.744 566.02 312.137 580.853C324.333 588.27 335.366 593.054 345.012 595.011C354.65 596.967 362.842 596.09 369.454 592.273C376.065 588.456 380.92 581.8 384.046 572.475C387.174 563.142 388.547 551.196 388.222 536.925C387.573 508.384 380.141 470.757 366.681 426.631C339.765 338.395 288.816 224.388 220.2 105.542C151.585 -13.3029 78.3268 -114.43 15.3696 -181.857C-16.1146 -215.577 -44.9843 -240.827 -69.3769 -255.66C-81.5737 -263.077 -92.6059 -267.861 -102.252 -269.818C-111.891 -271.774 -120.083 -270.897 -126.694 -267.08Z" stroke="#2B2C3B" stroke-width="2"/>
<path opacity="0.62069" d="M-163.199 -247.792C-169.452 -243.413 -173.709 -236.359 -176.01 -226.798C-178.312 -217.228 -178.639 -205.207 -177.072 -191.019C-173.938 -162.643 -163.254 -125.807 -145.999 -83.0219C-111.496 2.53275 -50.8041 111.665 27.9082 224.078C106.621 336.491 188.414 430.848 257.008 492.532C291.311 523.38 322.272 546.018 347.864 558.668C360.661 564.993 372.068 568.798 381.849 569.907C391.621 571.015 399.705 569.428 405.959 565.049C412.212 560.67 416.469 553.616 418.77 544.054C421.072 534.484 421.399 522.464 419.832 508.276C416.698 479.9 406.014 443.064 388.759 400.279C354.256 314.724 293.564 205.592 214.852 93.1788C136.14 -19.2341 54.3464 -113.592 -14.2479 -175.275C-48.5511 -206.123 -79.5117 -228.761 -105.104 -241.411C-117.901 -247.736 -129.308 -251.541 -139.089 -252.65C-148.861 -253.758 -156.945 -252.171 -163.199 -247.792Z" stroke="#2B2C3B" stroke-width="2"/>
<path opacity="0.655172" d="M-197.538 -225.412C-203.386 -220.504 -207.011 -213.106 -208.47 -203.38C-209.93 -193.646 -209.208 -181.643 -206.41 -167.645C-200.815 -139.651 -186.961 -103.886 -166.043 -62.7675C-124.215 19.4544 -54.2422 122.882 33.9681 228.007C122.178 333.132 211.884 420.001 285.593 475.472C322.455 503.212 355.27 523.066 381.868 533.437C395.167 538.623 406.863 541.419 416.703 541.672C426.534 541.924 434.449 539.638 440.297 534.731C446.146 529.824 449.771 522.426 451.23 512.7C452.69 502.966 451.968 490.962 449.17 476.965C443.574 448.97 429.721 413.205 408.803 372.087C366.975 289.865 297.002 186.437 208.792 81.3124C120.581 -23.8125 30.8758 -110.682 -42.8335 -166.153C-79.6948 -193.893 -112.511 -213.746 -139.108 -224.118C-152.408 -229.304 -164.103 -232.1 -173.943 -232.352C-183.774 -232.604 -191.689 -230.319 -197.538 -225.412Z" stroke="#2B2C3B" stroke-width="2"/>
<path opacity="0.689655" d="M-229.45 -200.139C-234.848 -194.741 -237.815 -187.055 -238.42 -177.239C-239.026 -167.415 -237.261 -155.52 -233.253 -141.819C-225.239 -114.419 -208.322 -79.9977 -183.9 -40.859C-135.064 37.4044 -56.3436 134.34 40.6933 231.377C137.73 328.414 234.666 407.134 312.929 455.97C352.068 480.392 386.489 497.309 413.89 505.324C427.59 509.331 439.485 511.096 449.309 510.49C459.125 509.885 466.811 506.918 472.209 501.52C477.608 496.121 480.574 488.435 481.18 478.619C481.786 468.795 480.02 456.901 476.013 443.2C467.999 415.799 451.081 381.378 426.659 342.239C377.824 263.976 299.103 167.04 202.066 70.0036C105.03 -27.0332 8.09413 -105.754 -70.1694 -154.589C-109.308 -179.011 -143.729 -195.929 -171.13 -203.943C-184.831 -207.95 -196.725 -209.716 -206.549 -209.11C-216.365 -208.504 -224.051 -205.537 -229.45 -200.139Z" stroke="#2B2C3B" stroke-width="2"/>
<path opacity="0.724138" d="M-258.691 -172.198C-263.599 -166.349 -265.884 -158.434 -265.632 -148.603C-265.38 -138.763 -262.584 -127.068 -257.398 -113.768C-247.026 -87.1705 -227.173 -54.3547 -199.433 -17.4934C-143.962 56.216 -57.0923 145.922 48.0325 234.132C153.157 322.342 256.585 392.315 338.807 434.143C379.925 455.061 415.69 468.915 443.685 474.51C457.682 477.308 469.686 478.03 479.42 476.57C489.146 475.111 496.544 471.486 501.451 465.638C506.358 459.789 508.644 451.874 508.392 442.043C508.139 432.203 505.344 420.508 500.158 407.208C489.786 380.611 469.932 347.795 442.192 310.933C386.722 237.224 299.852 147.518 194.727 59.3082C89.6021 -28.9021 -13.8254 -98.8747 -96.0474 -140.703C-137.166 -161.621 -172.93 -175.474 -200.925 -181.07C-214.923 -183.868 -226.926 -184.59 -236.66 -183.13C-246.386 -181.671 -253.784 -178.046 -258.691 -172.198Z" stroke="#2B2C3B" stroke-width="2"/>
<path opacity="0.758621" d="M-285.041 -141.828C-289.419 -135.574 -291.007 -127.49 -289.898 -117.718C-288.789 -107.937 -284.985 -96.53 -278.66 -83.7332C-266.009 -58.1407 -243.371 -27.1801 -212.524 7.12317C-150.84 75.7175 -56.4828 157.511 55.9301 236.223C168.343 314.935 277.476 375.627 363.03 410.131C405.815 427.385 442.651 438.069 471.027 441.203C485.215 442.77 497.236 442.444 506.806 440.141C516.367 437.84 523.421 433.583 527.8 427.33C532.179 421.076 533.766 412.992 532.658 403.22C531.549 393.439 527.745 382.032 521.419 369.235C508.769 343.643 486.131 312.682 455.284 278.379C393.6 209.785 299.242 127.992 186.829 49.2793C74.4166 -29.4331 -34.7159 -90.1252 -120.271 -124.628C-163.056 -141.883 -199.892 -152.567 -228.267 -155.701C-242.456 -157.268 -254.476 -156.941 -264.046 -154.639C-273.608 -152.338 -280.662 -148.081 -285.041 -141.828Z" stroke="#2B2C3B" stroke-width="2"/>
<path opacity="0.793103" d="M-308.296 -109.292C-312.114 -102.681 -312.99 -94.4889 -311.035 -84.8507C-309.077 -75.2042 -304.293 -64.1719 -296.876 -51.9752C-282.044 -27.5825 -256.794 1.28723 -223.074 32.7714C-155.646 95.7286 -54.5194 168.987 64.326 237.602C183.171 306.217 297.178 357.167 385.414 384.082C429.54 397.542 467.168 404.975 495.708 405.624C509.979 405.949 521.926 404.576 531.259 401.447C540.583 398.322 547.239 393.467 551.057 386.855C554.874 380.244 555.75 372.052 553.795 362.414C551.837 352.767 547.053 341.735 539.637 329.538C524.804 305.146 499.554 276.276 465.834 244.792C398.407 181.835 297.279 108.577 178.434 39.9611C59.5887 -28.6543 -54.4182 -79.6039 -142.654 -106.519C-186.78 -119.979 -224.407 -127.412 -252.948 -128.061C-267.219 -128.385 -279.166 -127.012 -288.498 -123.884C-297.823 -120.759 -304.479 -115.904 -308.296 -109.292Z" stroke="#2B2C3B" stroke-width="2"/>
<path opacity="0.827586" d="M-328.283 -74.8687C-331.509 -67.9497 -331.669 -59.7126 -328.88 -50.2815C-326.09 -40.8423 -320.362 -30.2689 -311.911 -18.765C-295.009 4.24203 -267.338 30.8012 -231.003 59.2268C-158.345 116.068 -51.2179 180.233 73.1555 238.229C197.529 296.226 315.542 337.045 405.789 356.168C450.92 365.731 489.052 369.855 517.541 368.015C531.786 367.094 543.567 364.685 552.591 360.755C561.608 356.829 567.816 351.412 571.042 344.493C574.269 337.574 574.428 329.337 571.64 319.906C568.849 310.467 563.122 299.894 554.67 288.39C537.768 265.383 510.098 238.824 473.762 210.398C401.104 153.557 293.977 89.3916 169.604 31.3954C45.2304 -26.6009 -72.7832 -67.4202 -163.029 -86.5428C-208.161 -96.1058 -246.292 -100.23 -274.781 -98.3897C-289.026 -97.4693 -300.807 -95.0603 -309.832 -91.1307C-318.849 -87.2044 -325.056 -81.7877 -328.283 -74.8687Z" stroke="#2B2C3B" stroke-width="2"/>
<path opacity="0.862069" d="M-344.846 -38.8489C-347.457 -31.6751 -346.898 -23.4555 -343.298 -14.3032C-339.696 -5.14316 -333.068 4.89076 -323.647 15.6143C-304.803 37.0607 -274.924 61.1072 -236.249 86.2577C-158.914 136.55 -46.6018 191.134 82.353 238.07C211.308 285.006 332.43 315.384 423.999 326.569C469.792 332.162 508.138 332.947 536.359 328.631C550.469 326.472 561.995 323.046 570.643 318.344C579.284 313.647 584.995 307.71 587.607 300.536C590.218 293.362 589.658 285.143 586.059 275.99C582.456 266.83 575.829 256.796 566.407 246.073C547.564 224.626 517.684 200.58 479.01 175.429C401.674 125.137 289.362 70.5528 160.408 23.6171C31.4527 -23.3186 -89.6694 -53.6971 -181.239 -64.8814C-227.032 -70.4746 -265.378 -71.2602 -293.598 -66.9435C-307.709 -64.785 -319.235 -61.3584 -327.883 -56.6572C-336.523 -51.9599 -342.235 -46.0228 -344.846 -38.8489Z" stroke="#2B2C3B" stroke-width="2"/>
<path opacity="0.896552" d="M-357.862 -1.53759C-359.838 5.83656 -358.564 13.9761 -354.181 22.7798C-349.793 31.591 -342.317 41.0092 -331.996 50.8708C-311.356 70.5932 -279.494 91.9441 -238.774 113.628C-157.35 156.989 -40.7082 201.577 91.8466 237.095C224.401 272.613 347.71 292.319 439.906 295.48C486.012 297.061 524.281 294.501 552.017 287.742C565.886 284.361 577.07 279.943 585.275 274.506C593.473 269.074 598.646 262.662 600.622 255.287C602.598 247.913 601.324 239.774 596.941 230.97C592.553 222.159 585.077 212.741 574.756 202.879C554.116 183.157 522.254 161.806 481.534 140.122C400.11 96.7612 283.468 52.1729 150.913 16.655C18.3585 -18.863 -104.95 -38.5693 -197.146 -41.7303C-243.252 -43.3111 -281.521 -40.7516 -309.258 -33.9918C-323.126 -30.6117 -334.31 -26.1936 -342.515 -20.7565C-350.713 -15.3241 -355.886 -8.91174 -357.862 -1.53759Z" stroke="#2B2C3B" stroke-width="2"/>
<path opacity="0.931035" d="M-367.23 36.7494C-368.556 44.2677 -366.578 52.2653 -361.443 60.6534C-356.305 69.0487 -348.036 77.7794 -336.895 86.704C-314.614 104.552 -281.013 123.045 -238.558 141.098C-153.665 177.197 -33.5804 211.449 101.566 235.279C236.711 259.109 361.269 267.993 453.389 263.107C499.458 260.663 537.358 254.778 564.399 245.627C577.921 241.051 588.677 235.674 596.377 229.543C604.07 223.417 608.665 216.578 609.99 209.06C611.316 201.541 609.338 193.544 604.204 185.156C599.065 176.76 590.796 168.03 579.655 159.105C557.374 141.257 523.773 122.764 481.319 104.711C396.425 68.6125 276.341 34.3599 141.195 10.53C6.04886 -13.2998 -118.508 -22.1841 -210.629 -17.2977C-256.697 -14.854 -294.597 -8.96898 -321.639 0.182551C-335.16 4.75849 -345.917 10.1346 -353.617 16.266C-361.31 22.3923 -365.904 29.2311 -367.23 36.7494Z" stroke="#2B2C3B" stroke-width="2"/>
<path opacity="0.965517" d="M-372.879 75.6943C-373.545 83.2996 -370.877 91.0943 -365.032 99.0031C-359.181 106.919 -350.183 114.895 -338.306 122.815C-314.554 138.654 -279.469 154.147 -235.603 168.431C-147.886 196.994 -25.2735 220.65 111.435 232.61C248.144 244.571 373.001 242.565 464.345 229.669C510.025 223.219 547.268 214.053 573.41 202.58C586.481 196.843 596.727 190.55 603.864 183.77C610.994 176.997 614.975 169.784 615.64 162.179C616.305 154.573 613.638 146.779 607.792 138.87C601.941 130.954 592.943 122.978 581.067 115.058C557.315 99.2193 522.23 83.7256 478.363 69.4418C390.646 40.8793 268.034 17.2231 131.325 5.26262C-5.38319 -6.69783 -130.241 -4.69245 -221.585 8.20426C-267.265 14.6538 -304.508 23.8196 -330.649 35.2931C-343.72 41.0301 -353.967 47.3232 -361.103 54.1025C-368.233 60.876 -372.214 68.0891 -372.879 75.6943Z" stroke="#2B2C3B" stroke-width="2"/>
<path d="M-374.768 114.966C-374.768 122.601 -371.431 130.133 -364.918 137.503C-358.4 144.878 -348.741 152.04 -336.219 158.895C-311.178 172.603 -274.875 184.98 -229.931 195.386C-140.059 216.195 -15.8511 229.074 121.38 229.074C258.61 229.074 382.818 216.195 472.691 195.386C517.635 184.98 553.937 172.603 578.979 158.895C591.5 152.04 601.159 144.878 607.678 137.503C614.191 130.133 617.527 122.601 617.527 114.966C617.527 107.332 614.191 99.7995 607.678 92.4304C601.159 85.0549 591.5 77.8928 578.979 71.0384C553.937 57.3301 517.635 44.9532 472.691 34.547C382.818 13.7382 258.61 0.858398 121.38 0.858398C-15.8511 0.858398 -140.059 13.7382 -229.931 34.547C-274.875 44.9532 -311.178 57.3301 -336.219 71.0384C-348.741 77.8928 -358.4 85.0549 -364.918 92.4304C-371.431 99.7995 -374.768 107.332 -374.768 114.966Z" stroke="#2B2C3B" stroke-width="2"/>
<path opacity="0.0344828" d="M954.309 586.637C959.216 592.485 966.614 596.111 976.34 597.57C986.074 599.03 998.078 598.307 1012.08 595.51C1040.07 589.914 1075.83 576.061 1116.95 555.143C1199.18 513.314 1302.6 443.342 1407.73 355.132C1512.85 266.921 1599.72 177.216 1655.19 103.506C1682.93 66.645 1702.79 33.8292 1713.16 7.23147C1718.34 -6.06786 1721.14 -17.7633 1721.39 -27.6031C1721.64 -37.4345 1719.36 -45.3497 1714.45 -51.1979C1709.54 -57.0461 1702.15 -60.6716 1692.42 -62.1303C1682.69 -63.5903 1670.68 -62.8681 1656.69 -60.0702C1628.69 -54.4748 1592.93 -40.6214 1551.81 -19.7035C1469.59 22.1249 1366.16 92.0976 1261.03 180.308C1155.91 268.518 1069.04 358.224 1013.57 431.933C985.828 468.794 965.974 501.61 955.603 528.208C950.417 541.507 947.621 553.203 947.368 563.042C947.116 572.874 949.402 580.789 954.309 586.637Z" stroke="#2B2C3B" stroke-width="2"/>
<path opacity="0.0689655" d="M983.55 622.516C988.948 627.915 996.634 630.882 1006.45 631.487C1016.27 632.093 1028.17 630.328 1041.87 626.32C1069.27 618.306 1103.69 601.389 1142.83 576.967C1221.09 528.131 1318.03 449.41 1415.07 352.374C1512.1 255.337 1590.82 158.401 1639.66 80.1378C1664.08 40.9991 1681 6.57782 1689.01 -20.8226C1693.02 -34.5233 1694.79 -46.4179 1694.18 -56.2423C1693.57 -66.0583 1690.61 -73.7441 1685.21 -79.1424C1679.81 -84.5406 1672.12 -87.5075 1662.31 -88.1131C1652.48 -88.7191 1640.59 -86.9535 1626.89 -82.9463C1599.49 -74.9323 1565.07 -58.0145 1525.93 -33.5925C1447.67 15.2429 1350.73 93.9636 1253.69 191C1156.66 288.037 1077.94 384.973 1029.1 463.236C1004.68 502.375 987.76 536.796 979.746 564.197C975.739 577.897 973.973 589.792 974.58 599.616C975.185 609.432 978.152 617.118 983.55 622.516Z" stroke="#2B2C3B" stroke-width="2"/>
<path opacity="0.103448" d="M1015.46 655.728C1021.31 660.635 1029.23 662.92 1039.06 662.668C1048.9 662.416 1060.59 659.62 1073.89 654.434C1100.49 644.062 1133.31 624.209 1170.17 596.469C1243.88 540.998 1333.58 454.128 1421.79 349.004C1510 243.879 1579.97 140.451 1621.8 58.2292C1642.72 17.1109 1656.57 -18.6539 1662.17 -46.6485C1664.97 -60.6464 1665.69 -72.6495 1664.23 -82.3837C1662.77 -92.1096 1659.15 -99.5076 1653.3 -104.415C1647.45 -109.322 1639.53 -111.608 1629.7 -111.356C1619.86 -111.103 1608.17 -108.307 1594.87 -103.121C1568.27 -92.7497 1535.45 -72.8963 1498.59 -45.1561C1424.88 10.3146 1335.18 97.1842 1246.97 202.309C1158.76 307.434 1088.79 410.862 1046.96 493.084C1026.04 534.202 1012.19 569.967 1006.59 597.961C1003.79 611.959 1003.07 623.962 1004.53 633.696C1005.99 643.422 1009.61 650.82 1015.46 655.728Z" stroke="#2B2C3B" stroke-width="2"/>
<path opacity="0.137931" d="M1049.8 686.046C1056.06 690.425 1064.14 692.013 1073.91 690.904C1083.69 689.795 1095.1 685.991 1107.9 679.665C1133.49 667.015 1164.45 644.377 1198.75 613.53C1267.35 551.846 1349.14 457.489 1427.85 345.076C1506.56 232.663 1567.26 123.53 1601.76 37.9757C1619.01 -4.80921 1629.7 -41.6453 1632.83 -70.0211C1634.4 -84.2095 1634.07 -96.23 1631.77 -105.8C1629.47 -115.362 1625.21 -122.415 1618.96 -126.794C1612.7 -131.173 1604.62 -132.76 1594.85 -131.652C1585.07 -130.543 1573.66 -126.739 1560.86 -120.413C1535.27 -107.763 1504.31 -85.1251 1470.01 -54.2777C1401.41 7.40608 1319.62 101.764 1240.91 214.176C1162.2 326.589 1101.5 435.722 1067 521.276C1049.75 564.061 1039.06 600.897 1035.93 629.273C1034.36 643.462 1034.69 655.482 1036.99 665.052C1039.29 674.614 1043.55 681.668 1049.8 686.046Z" stroke="#2B2C3B" stroke-width="2"/>
<path opacity="0.172414" d="M1086.31 713.272C1092.92 717.089 1101.11 717.966 1110.75 716.01C1120.39 714.053 1131.43 709.269 1143.62 701.852C1168.02 687.019 1196.89 661.769 1228.37 628.049C1291.33 560.622 1364.58 459.495 1433.2 340.65C1501.82 221.804 1552.77 107.797 1579.68 19.5611C1593.14 -24.5649 1600.57 -62.1919 1601.22 -90.7329C1601.55 -105.004 1600.17 -116.95 1597.05 -126.283C1593.92 -135.608 1589.07 -142.264 1582.45 -146.081C1575.84 -149.898 1567.65 -150.775 1558.01 -148.819C1548.37 -146.862 1537.33 -142.078 1525.14 -134.661C1500.74 -119.828 1471.87 -94.5781 1440.39 -60.8584C1377.43 6.56907 1304.17 107.696 1235.56 226.542C1166.94 345.387 1115.99 459.394 1089.08 547.63C1075.62 591.756 1068.19 629.383 1067.54 657.924C1067.21 672.195 1068.59 684.141 1071.71 693.474C1074.84 702.799 1079.69 709.455 1086.31 713.272Z" stroke="#2B2C3B" stroke-width="2"/>
<path opacity="0.206897" d="M1124.7 737.227C1131.62 740.453 1139.85 740.612 1149.29 737.824C1158.73 735.034 1169.3 729.306 1180.8 720.855C1203.81 703.952 1230.37 676.282 1258.79 639.947C1315.64 567.289 1379.8 460.162 1437.8 335.788C1495.79 211.415 1536.61 93.4014 1555.73 3.15511C1565.3 -41.9761 1569.42 -80.1077 1567.58 -108.597C1566.66 -122.842 1564.25 -134.623 1560.32 -143.647C1556.4 -152.664 1550.98 -158.872 1544.06 -162.098C1537.14 -165.325 1528.9 -165.484 1519.47 -162.696C1510.03 -159.905 1499.46 -154.178 1487.96 -145.726C1464.95 -128.824 1438.39 -101.154 1409.97 -64.8184C1353.12 7.83958 1288.96 114.967 1230.96 239.34C1172.97 363.713 1132.15 481.727 1113.02 571.973C1103.46 617.105 1099.34 655.236 1101.18 683.725C1102.1 697.97 1104.51 709.751 1108.44 718.776C1112.36 727.793 1117.78 734 1124.7 737.227Z" stroke="#2B2C3B" stroke-width="2"/>
<path opacity="0.241379" d="M1164.69 757.762C1171.86 760.373 1180.08 759.813 1189.23 756.214C1198.39 752.611 1208.43 745.984 1219.15 736.562C1240.6 717.719 1264.64 687.839 1289.79 649.165C1340.09 571.829 1394.67 459.517 1441.61 330.563C1488.54 201.608 1518.92 80.4856 1530.1 -11.0839C1535.7 -56.8768 1536.48 -95.2229 1532.17 -123.443C1530.01 -137.554 1526.58 -149.08 1521.88 -157.728C1517.18 -166.368 1511.25 -172.08 1504.07 -174.691C1496.9 -177.302 1488.68 -176.743 1479.53 -173.143C1470.37 -169.541 1460.33 -162.913 1449.61 -153.492C1428.16 -134.648 1404.12 -104.769 1378.97 -66.0941C1328.67 11.2414 1274.09 123.553 1227.15 252.508C1180.22 381.463 1149.84 502.585 1138.65 594.154C1133.06 639.947 1132.28 678.293 1136.59 706.514C1138.75 720.624 1142.18 732.15 1146.88 740.798C1151.58 749.439 1157.51 755.15 1164.69 757.762Z" stroke="#2B2C3B" stroke-width="2"/>
<path opacity="0.275862" d="M1205.97 774.744C1213.34 776.72 1221.48 775.446 1230.28 771.063C1239.1 766.675 1248.51 759.199 1258.38 748.878C1278.1 728.238 1299.45 696.376 1321.13 655.656C1364.49 574.232 1409.08 457.59 1444.6 325.035C1480.12 192.48 1499.82 69.1715 1502.98 -23.0243C1504.57 -69.1304 1502.01 -107.399 1495.25 -135.136C1491.87 -149.004 1487.45 -160.188 1482.01 -168.393C1476.58 -176.591 1470.17 -181.764 1462.79 -183.74C1455.42 -185.716 1447.28 -184.442 1438.47 -180.059C1429.66 -175.671 1420.25 -168.195 1410.38 -157.874C1390.66 -137.234 1369.31 -105.372 1347.63 -64.6525C1304.27 16.7719 1259.68 133.414 1224.16 265.969C1188.64 398.523 1168.94 521.832 1165.77 614.028C1164.19 660.134 1166.75 698.403 1173.51 726.139C1176.89 740.008 1181.31 751.192 1186.75 759.397C1192.18 767.595 1198.59 772.768 1205.97 774.744Z" stroke="#2B2C3B" stroke-width="2"/>
<path opacity="0.310345" d="M1248.22 788.081C1255.74 789.407 1263.74 787.429 1272.13 782.294C1280.52 777.156 1289.25 768.887 1298.18 757.746C1316.03 735.465 1334.52 701.864 1352.57 659.409C1388.67 574.516 1422.92 454.432 1446.75 319.286C1470.58 184.14 1479.47 59.5824 1474.58 -32.5381C1472.14 -78.6066 1466.25 -116.507 1457.1 -143.548C1452.53 -157.07 1447.15 -167.826 1441.02 -175.526C1434.89 -183.219 1428.05 -187.814 1420.53 -189.139C1413.02 -190.465 1405.02 -188.487 1396.63 -183.353C1388.24 -178.214 1379.5 -169.945 1370.58 -158.804C1352.73 -136.523 1334.24 -102.922 1316.19 -60.4675C1280.09 24.4262 1245.84 144.51 1222.01 279.656C1198.18 414.802 1189.29 539.359 1194.18 631.48C1196.62 677.548 1202.51 715.448 1211.66 742.49C1216.23 756.011 1221.61 766.768 1227.74 774.468C1233.87 782.161 1240.71 786.755 1248.22 788.081Z" stroke="#2B2C3B" stroke-width="2"/>
<path opacity="0.344828" d="M1291.14 797.699C1298.74 798.365 1306.54 795.697 1314.45 789.851C1322.36 784.001 1330.34 775.002 1338.26 763.126C1354.1 739.374 1369.59 704.289 1383.87 660.423C1412.44 572.706 1436.09 450.093 1448.05 313.385C1460.01 176.676 1458.01 51.8186 1445.11 -39.5255C1438.66 -85.2057 1429.5 -122.448 1418.02 -148.59C1412.29 -161.661 1405.99 -171.908 1399.21 -179.044C1392.44 -186.174 1385.23 -190.155 1377.62 -190.82C1370.02 -191.485 1362.22 -188.818 1354.31 -182.972C1346.4 -177.121 1338.42 -168.123 1330.5 -156.247C1314.66 -132.495 1299.17 -97.4098 1284.89 -53.5435C1256.32 34.1733 1232.67 156.786 1220.71 293.494C1208.75 430.203 1210.75 555.061 1223.65 646.405C1230.1 692.085 1239.26 729.328 1250.74 755.469C1256.47 768.54 1262.77 778.787 1269.55 785.923C1276.32 793.053 1283.53 797.034 1291.14 797.699Z" stroke="#2B2C3B" stroke-width="2"/>
<path opacity="0.37931" d="M1334.38 803.558C1342.01 803.558 1349.55 800.221 1356.92 793.708C1364.29 787.19 1371.45 777.531 1378.31 765.01C1392.02 739.968 1404.39 703.666 1414.8 658.721C1435.61 568.849 1448.49 444.641 1448.49 307.41C1448.49 170.18 1435.61 45.9719 1414.8 -43.9006C1404.39 -88.8448 1392.02 -125.147 1378.31 -150.189C1371.45 -162.71 1364.29 -172.369 1356.92 -178.888C1349.55 -185.4 1342.01 -188.737 1334.38 -188.737C1326.75 -188.737 1319.21 -185.4 1311.84 -178.888C1304.47 -172.369 1297.31 -162.71 1290.45 -150.189C1276.74 -125.147 1264.37 -88.8448 1253.96 -43.9006C1233.15 45.9719 1220.27 170.18 1220.27 307.41C1220.27 444.641 1233.15 568.849 1253.96 658.721C1264.37 703.666 1276.74 739.968 1290.45 765.01C1297.31 777.531 1304.47 787.19 1311.84 793.708C1319.21 800.221 1326.75 803.558 1334.38 803.558Z" stroke="#2B2C3B" stroke-width="2"/>
<path opacity="0.413793" d="M1377.62 805.64C1385.23 804.975 1392.44 800.995 1399.21 793.864C1405.99 786.728 1412.29 776.481 1418.02 763.41C1429.5 737.269 1438.66 700.026 1445.11 654.346C1458.01 563.002 1460.01 438.144 1448.05 301.436C1436.09 164.727 1412.44 42.1145 1383.87 -45.6023C1369.59 -89.4686 1354.1 -124.554 1338.26 -148.306C1330.34 -160.182 1322.36 -169.18 1314.45 -175.031C1306.54 -180.877 1298.74 -183.544 1291.14 -182.879C1283.53 -182.214 1276.32 -178.233 1269.55 -171.103C1262.77 -163.966 1256.47 -153.72 1250.74 -140.649C1239.26 -114.507 1230.1 -77.2644 1223.65 -31.5843C1210.75 59.7598 1208.75 184.617 1220.71 321.326C1232.67 458.035 1256.32 580.647 1284.89 668.364C1299.17 712.23 1314.66 747.315 1330.5 771.067C1338.42 782.944 1346.4 791.942 1354.31 797.793C1362.22 803.638 1370.02 806.306 1377.62 805.64Z" stroke="#2B2C3B" stroke-width="2"/>
<path opacity="0.448276" d="M1420.54 803.961C1428.05 802.635 1434.89 798.041 1441.02 790.348C1447.15 782.648 1452.53 771.891 1457.1 758.37C1466.25 731.328 1472.14 693.428 1474.58 647.36C1479.47 555.239 1470.58 430.682 1446.75 295.536C1422.92 160.39 1388.67 40.306 1352.57 -44.5877C1334.52 -87.0421 1316.03 -120.644 1298.18 -142.925C1289.25 -154.065 1280.52 -162.334 1272.13 -167.473C1263.74 -172.607 1255.74 -174.585 1248.22 -173.259C1240.71 -171.934 1233.87 -167.34 1227.74 -159.646C1221.61 -151.946 1216.23 -141.19 1211.66 -127.668C1202.51 -100.627 1196.62 -62.7268 1194.18 -16.6583C1189.29 75.4622 1198.18 200.019 1222.01 335.165C1245.84 470.311 1280.09 590.395 1316.19 675.289C1334.24 717.744 1352.73 751.345 1370.58 773.626C1379.51 784.767 1388.24 793.036 1396.63 798.174C1405.02 803.308 1413.02 805.287 1420.54 803.961Z" stroke="#2B2C3B" stroke-width="2"/>
<path opacity="0.482759" d="M1462.79 798.56C1470.17 796.584 1476.58 791.411 1482.01 783.213C1487.45 775.008 1491.87 763.824 1495.25 749.955C1502.01 722.219 1504.57 683.95 1502.99 637.844C1499.82 545.648 1480.12 422.339 1444.6 289.785C1409.08 157.23 1364.49 40.588 1321.13 -40.8364C1299.45 -81.5559 1278.1 -113.418 1258.38 -134.058C1248.51 -144.379 1239.1 -151.855 1230.29 -156.243C1221.48 -160.626 1213.34 -161.9 1205.97 -159.924C1198.59 -157.948 1192.18 -152.775 1186.75 -144.577C1181.31 -136.372 1176.89 -125.188 1173.51 -111.319C1166.75 -83.583 1164.19 -45.3144 1165.77 0.79176C1168.94 92.9876 1188.64 216.297 1224.16 348.851C1259.68 481.406 1304.27 598.048 1347.63 679.472C1369.31 720.192 1390.66 752.054 1410.38 772.694C1420.25 783.015 1429.66 790.491 1438.48 794.879C1447.28 799.262 1455.42 800.536 1462.79 798.56Z" stroke="#2B2C3B" stroke-width="2"/>
<path opacity="0.517241" d="M1504.07 789.514C1511.25 786.903 1517.18 781.191 1521.88 772.551C1526.58 763.903 1530.01 752.377 1532.17 738.266C1536.48 710.046 1535.7 671.7 1530.1 625.907C1518.92 534.338 1488.54 413.215 1441.61 284.261C1394.67 155.306 1340.09 42.994 1289.79 -34.3414C1264.64 -73.016 1240.6 -102.896 1219.15 -121.739C1208.43 -131.161 1198.39 -137.788 1189.23 -141.391C1180.08 -144.99 1171.86 -145.549 1164.69 -142.938C1157.51 -140.327 1151.58 -134.615 1146.88 -125.975C1142.18 -117.327 1138.75 -105.801 1136.59 -91.6903C1132.28 -63.4702 1133.06 -25.1242 1138.65 20.6687C1149.84 112.238 1180.22 233.36 1227.15 362.315C1274.09 491.27 1328.67 603.582 1378.97 680.917C1404.12 719.592 1428.16 749.472 1449.61 768.315C1460.33 777.737 1470.37 784.364 1479.53 787.966C1488.68 791.566 1496.9 792.125 1504.07 789.514Z" stroke="#2B2C3B" stroke-width="2"/>
<path opacity="0.551724" d="M1544.06 776.919C1550.98 773.692 1556.4 767.485 1560.32 758.468C1564.25 749.443 1566.66 737.662 1567.58 723.417C1569.42 694.928 1565.3 656.796 1555.74 611.665C1536.61 521.419 1495.79 403.405 1437.8 279.032C1379.8 154.659 1315.64 47.5314 1258.79 -25.1265C1230.37 -61.462 1203.81 -89.1322 1180.8 -106.034C1169.3 -114.486 1158.73 -120.213 1149.29 -123.004C1139.86 -125.792 1131.62 -125.633 1124.7 -122.406C1117.78 -119.18 1112.36 -112.972 1108.44 -103.956C1104.51 -94.931 1102.1 -83.1499 1101.18 -68.9049C1099.34 -40.4159 1103.46 -2.28424 1113.02 42.8469C1132.15 133.093 1172.97 251.107 1230.96 375.48C1288.96 499.854 1353.12 606.981 1409.97 679.639C1438.39 715.974 1464.95 743.644 1487.96 760.547C1499.46 768.998 1510.03 774.725 1519.47 777.516C1528.91 780.304 1537.14 780.145 1544.06 776.919Z" stroke="#2B2C3B" stroke-width="2"/>
<path opacity="0.586207" d="M1582.45 760.902C1589.07 757.085 1593.92 750.429 1597.05 741.104C1600.17 731.771 1601.55 719.825 1601.22 705.554C1600.57 677.013 1593.14 639.386 1579.68 595.26C1552.77 507.024 1501.82 393.017 1433.2 274.172C1364.59 155.326 1291.33 54.1993 1228.37 -13.2281C1196.89 -46.9478 1168.02 -72.198 1143.62 -87.0307C1131.43 -94.4474 1120.39 -99.2314 1110.75 -101.189C1101.11 -103.144 1092.92 -102.268 1086.31 -98.4507C1079.69 -94.6336 1074.84 -87.9775 1071.71 -78.6527C1068.59 -69.3199 1067.21 -57.3737 1067.54 -43.1027C1068.19 -14.5617 1075.62 23.0654 1089.08 67.1913C1115.99 155.428 1166.94 269.434 1235.56 388.28C1304.17 507.125 1377.43 608.252 1440.39 675.68C1471.87 709.399 1500.74 734.65 1525.14 749.482C1537.33 756.899 1548.37 761.683 1558.01 763.64C1567.65 765.596 1575.84 764.719 1582.45 760.902Z" stroke="#2B2C3B" stroke-width="2"/>
<path opacity="0.62069" d="M1618.96 741.615C1625.21 737.236 1629.47 730.182 1631.77 720.621C1634.07 711.051 1634.4 699.03 1632.83 684.842C1629.7 656.466 1619.01 619.63 1601.76 576.845C1567.26 491.29 1506.56 382.158 1427.85 269.745C1349.14 157.332 1267.35 62.9748 1198.75 1.29102C1164.45 -29.5564 1133.49 -52.1943 1107.9 -64.8446C1095.1 -71.17 1083.69 -74.9743 1073.91 -76.0834C1064.14 -77.1916 1056.05 -75.6044 1049.8 -71.2256C1043.55 -66.8468 1039.29 -59.7929 1036.99 -50.2311C1034.69 -40.6613 1034.36 -28.6408 1035.93 -14.4524C1039.06 13.9234 1049.75 50.7595 1067 93.5444C1101.5 179.099 1162.2 288.232 1240.91 400.644C1319.62 513.057 1401.41 607.415 1470.01 669.099C1504.31 699.946 1535.27 722.584 1560.86 735.234C1573.66 741.56 1585.07 745.364 1594.85 746.473C1604.62 747.581 1612.7 745.994 1618.96 741.615Z" stroke="#2B2C3B" stroke-width="2"/>
<path opacity="0.655172" d="M1653.3 719.236C1659.15 714.329 1662.77 706.931 1664.23 697.205C1665.69 687.47 1664.97 675.467 1662.17 661.469C1656.57 633.475 1642.72 597.71 1621.8 556.592C1579.97 474.37 1510 370.942 1421.79 265.817C1333.58 160.692 1243.88 73.8228 1170.17 18.3522C1133.31 -9.38811 1100.49 -29.2415 1073.89 -39.6132C1060.59 -44.7992 1048.9 -47.5948 1039.06 -47.8473C1029.23 -48.0996 1021.31 -45.8138 1015.46 -40.9066C1009.61 -35.9994 1005.99 -28.6014 1004.53 -18.8755C1003.07 -9.14131 1003.79 2.86186 1006.59 16.8597C1012.19 44.8543 1026.04 80.6191 1046.96 121.737C1088.79 203.959 1158.76 307.387 1246.97 412.512C1335.18 517.637 1424.88 604.506 1498.59 659.977C1535.45 687.717 1568.27 707.571 1594.87 717.942C1608.17 723.128 1619.86 725.924 1629.7 726.176C1639.53 726.429 1647.45 724.143 1653.3 719.236Z" stroke="#2B2C3B" stroke-width="2"/>
<path opacity="0.689655" d="M1685.21 693.963C1690.61 688.565 1693.57 680.879 1694.18 671.063C1694.79 661.239 1693.02 649.344 1689.01 635.644C1681 608.243 1664.08 573.822 1639.66 534.683C1590.82 456.42 1512.1 359.484 1415.07 262.447C1318.03 165.411 1221.09 86.6899 1142.83 37.8545C1103.69 13.4325 1069.27 -3.48527 1041.87 -11.4993C1028.17 -15.5065 1016.27 -17.2721 1006.45 -16.6661C996.635 -16.0605 988.949 -13.0936 983.551 -7.69537C978.152 -2.29711 975.185 5.38873 974.58 15.2047C973.974 25.0291 975.739 36.9237 979.747 50.6244C987.761 78.0248 1004.68 112.446 1029.1 151.585C1077.94 229.848 1156.66 326.784 1253.69 423.821C1350.73 520.857 1447.67 599.578 1525.93 648.414C1565.07 672.836 1599.49 689.753 1626.89 697.767C1640.59 701.775 1652.48 703.54 1662.31 702.934C1672.13 702.329 1679.81 699.362 1685.21 693.963Z" stroke="#2B2C3B" stroke-width="2"/>
<path opacity="0.724138" d="M1714.45 666.021C1719.36 660.173 1721.64 652.257 1721.39 642.426C1721.14 632.586 1718.34 620.891 1713.16 607.591C1702.79 580.994 1682.93 548.178 1655.19 511.317C1599.72 437.607 1512.85 347.902 1407.73 259.691C1302.6 171.481 1199.17 101.508 1116.95 59.68C1075.83 38.7621 1040.07 24.9087 1012.08 19.3133C998.077 16.5154 986.074 15.7932 976.34 17.2532C966.614 18.7119 959.216 22.3374 954.309 28.1856C949.402 34.0338 947.116 41.949 947.368 51.7804C947.621 61.6202 950.416 73.3156 955.602 86.615C965.974 113.213 985.827 146.029 1013.57 182.89C1069.04 256.599 1155.91 346.305 1261.03 434.515C1366.16 522.725 1469.59 592.698 1551.81 634.526C1592.93 655.444 1628.69 669.298 1656.68 674.893C1670.68 677.691 1682.69 678.413 1692.42 676.953C1702.15 675.494 1709.54 671.869 1714.45 666.021Z" stroke="#2B2C3B" stroke-width="2"/>
<path opacity="0.758621" d="M1740.8 635.652C1745.18 629.398 1746.77 621.314 1745.66 611.542C1744.55 601.761 1740.74 590.354 1734.42 577.557C1721.77 551.965 1699.13 521.004 1668.28 486.701C1606.6 418.107 1512.24 336.314 1399.83 257.601C1287.42 178.889 1178.28 118.197 1092.73 83.6937C1049.94 66.439 1013.11 55.7555 984.733 52.6212C970.544 51.0541 958.524 51.3807 948.954 53.6835C939.392 55.9844 932.338 60.2409 927.96 66.4945C923.581 72.7481 921.994 80.8324 923.102 90.6044C924.211 100.385 928.015 111.792 934.341 124.589C946.991 150.181 969.629 181.142 1000.48 215.445C1062.16 284.039 1156.52 365.833 1268.93 444.545C1381.34 523.257 1490.48 583.949 1576.03 618.453C1618.82 635.707 1655.65 646.391 1684.03 649.525C1698.22 651.092 1710.24 650.766 1719.81 648.463C1729.37 646.162 1736.42 641.905 1740.8 635.652Z" stroke="#2B2C3B" stroke-width="2"/>
<path opacity="0.793103" d="M1764.06 603.115C1767.87 596.504 1768.75 588.312 1766.79 578.674C1764.84 569.027 1760.05 557.995 1752.64 545.798C1737.8 521.406 1712.55 492.536 1678.83 461.052C1611.41 398.095 1510.28 324.837 1391.43 256.221C1272.59 187.606 1158.58 136.656 1070.35 109.741C1026.22 96.2809 988.592 88.8484 960.051 88.1992C945.78 87.8746 933.834 89.2476 924.501 92.3758C915.176 95.5013 908.52 100.356 904.703 106.968C900.886 113.579 900.01 121.771 901.965 131.409C903.923 141.056 908.707 152.088 916.123 164.285C930.956 188.677 956.206 217.547 989.926 249.031C1057.35 311.989 1158.48 385.247 1277.33 453.862C1396.17 522.478 1510.18 573.427 1598.41 600.342C1642.54 613.802 1680.17 621.235 1708.71 621.884C1722.98 622.209 1734.93 620.836 1744.26 617.708C1753.58 614.582 1760.24 609.727 1764.06 603.115Z" stroke="#2B2C3B" stroke-width="2"/>
<path opacity="0.827586" d="M1784.04 568.693C1787.27 561.774 1787.43 553.537 1784.64 544.106C1781.85 534.666 1776.12 524.093 1767.67 512.589C1750.77 489.582 1723.1 463.023 1686.76 434.597C1614.1 377.757 1506.98 313.591 1382.6 255.595C1258.23 197.599 1140.22 156.779 1049.97 137.657C1004.84 128.094 966.708 123.969 938.219 125.81C923.974 126.73 912.193 129.139 903.169 133.069C894.152 136.995 887.944 142.412 884.718 149.331C881.491 156.25 881.332 164.487 884.12 173.918C886.911 183.357 892.638 193.93 901.09 205.434C917.992 228.441 945.662 255.001 981.998 283.426C1054.66 340.267 1161.78 404.433 1286.16 462.429C1410.53 520.425 1528.54 561.244 1618.79 580.367C1663.92 589.93 1702.05 594.055 1730.54 592.214C1744.79 591.294 1756.57 588.885 1765.59 584.955C1774.61 581.029 1780.82 575.612 1784.04 568.693Z" stroke="#2B2C3B" stroke-width="2"/>
<path opacity="0.862069" d="M1800.61 532.673C1803.22 525.499 1802.66 517.28 1799.06 508.127C1795.46 498.967 1788.83 488.933 1779.41 478.21C1760.56 456.764 1730.68 432.717 1692.01 407.567C1614.67 357.274 1502.36 302.69 1373.41 255.754C1244.45 208.818 1123.33 178.44 1031.76 167.256C985.967 161.663 947.621 160.877 919.401 165.194C905.291 167.352 893.764 170.779 885.117 175.48C876.476 180.177 870.764 186.114 868.153 193.288C865.542 200.462 866.101 208.682 869.701 217.834C873.304 226.994 879.931 237.028 889.353 247.751C908.196 269.198 938.076 293.244 976.75 318.395C1054.09 368.687 1166.4 423.271 1295.35 470.207C1424.31 517.143 1545.43 547.521 1637 558.706C1682.79 564.299 1721.14 565.084 1749.36 560.768C1763.47 558.609 1774.99 555.183 1783.64 550.481C1792.28 545.784 1797.99 539.847 1800.61 532.673Z" stroke="#2B2C3B" stroke-width="2"/>
<path opacity="0.896552" d="M1813.62 495.362C1815.6 487.988 1814.32 479.848 1809.94 471.044C1805.55 462.233 1798.08 452.815 1787.76 442.953C1767.12 423.231 1735.25 401.88 1694.53 380.196C1613.11 336.836 1496.47 292.247 1363.91 256.729C1231.36 221.211 1108.05 201.505 1015.85 198.344C969.747 196.763 931.479 199.323 903.742 206.083C889.874 209.463 878.69 213.881 870.485 219.318C862.287 224.75 857.114 231.163 855.138 238.537C853.162 245.911 854.436 254.051 858.819 262.854C863.206 271.665 870.683 281.084 881.004 290.945C901.644 310.668 933.506 332.019 974.225 353.703C1055.65 397.063 1172.29 441.651 1304.85 477.169C1437.4 512.687 1560.71 532.394 1652.91 535.555C1699.01 537.135 1737.28 534.576 1765.02 527.816C1778.89 524.436 1790.07 520.018 1798.28 514.581C1806.47 509.148 1811.65 502.736 1813.62 495.362Z" stroke="#2B2C3B" stroke-width="2"/>
<path opacity="0.931035" d="M1822.99 457.074C1824.32 449.556 1822.34 441.558 1817.2 433.17C1812.06 424.775 1803.8 416.044 1792.65 407.119C1770.37 389.271 1736.77 370.778 1694.32 352.726C1609.42 316.627 1489.34 282.374 1354.19 258.544C1219.05 234.714 1094.49 225.83 1002.37 230.717C956.302 233.16 918.402 239.045 891.36 248.197C877.839 252.773 867.083 258.149 859.383 264.28C851.689 270.407 847.095 277.245 845.769 284.764C844.444 292.282 846.422 300.279 851.556 308.668C856.695 317.063 864.963 325.794 876.104 334.718C898.385 352.567 931.987 371.059 974.441 389.112C1059.33 425.211 1179.42 459.463 1314.56 483.293C1449.71 507.123 1574.27 516.007 1666.39 511.121C1712.46 508.677 1750.36 502.792 1777.4 493.641C1790.92 489.065 1801.68 483.689 1809.38 477.557C1817.07 471.431 1821.66 464.592 1822.99 457.074Z" stroke="#2B2C3B" stroke-width="2"/>
<path opacity="0.965517" d="M1828.64 418.129C1829.3 410.524 1826.64 402.729 1820.79 394.82C1814.94 386.905 1805.94 378.928 1794.07 371.008C1770.31 355.17 1735.23 339.676 1691.36 325.392C1603.65 296.83 1481.03 273.173 1344.32 261.213C1207.62 249.252 1082.76 251.258 991.414 264.155C945.734 270.604 908.492 279.77 882.35 291.243C869.279 296.98 859.032 303.274 851.896 310.053C844.766 316.826 840.785 324.039 840.12 331.645C839.454 339.25 842.122 347.045 847.968 354.953C853.818 362.869 862.817 370.846 874.693 378.765C898.445 394.604 933.53 410.098 977.396 424.381C1065.11 452.944 1187.73 476.6 1324.43 488.561C1461.14 500.521 1586 498.516 1677.34 485.619C1723.02 479.169 1760.27 470.004 1786.41 458.53C1799.48 452.793 1809.73 446.5 1816.86 439.721C1823.99 432.947 1827.97 425.734 1828.64 418.129Z" stroke="#2B2C3B" stroke-width="2"/>
<path d="M1830.53 378.857C1830.53 371.223 1827.19 363.69 1820.68 356.321C1814.16 348.945 1804.5 341.783 1791.98 334.929C1766.94 321.22 1730.64 308.844 1685.69 298.437C1595.82 277.629 1471.61 264.749 1334.38 264.749C1197.15 264.749 1072.94 277.629 983.069 298.437C938.125 308.844 901.823 321.22 876.781 334.929C864.26 341.783 854.6 348.945 848.082 356.321C841.569 363.69 838.232 371.223 838.232 378.857C838.232 386.491 841.569 394.024 848.082 401.393C854.6 408.768 864.26 415.93 876.781 422.785C901.823 436.493 938.125 448.87 983.069 459.276C1072.94 480.085 1197.15 492.965 1334.38 492.965C1471.61 492.965 1595.82 480.085 1685.69 459.276C1730.64 448.87 1766.94 436.493 1791.98 422.785C1804.5 415.93 1814.16 408.768 1820.68 401.393C1827.19 394.024 1830.53 386.491 1830.53 378.857Z" stroke="#2B2C3B" stroke-width="2"/>
</g>
<path d="M0 2H1440V-2H0V2Z" fill="#2B2C3B" mask="url(#path-1-inside-1_313_282)"/>
<defs>
<clipPath id="clip0_313_282">
<path d="M0 0H1440V333H0V0Z" fill="white"/>
</clipPath>
</defs>
</svg>
