<svg width="361" height="150" viewBox="0 0 361 150" fill="none" xmlns="http://www.w3.org/2000/svg">
<rect width="358" height="133" transform="translate(0 2)" fill="#40F4FF" fill-opacity="0.1"/>
<path d="M360.4 84.2402L354.64 78.4502V27.0002L339.58 11.9102V7.20022L337 4.59024H269.62L265 0.000224748H354.22L360.67 6.45022L360.4 84.2402Z" fill="#02D7F2"/>
<path d="M227.5 2.2666H90.5" stroke="#4DAFFF" stroke-width="2" stroke-miterlimit="10"/>
<path d="M0.0360022 79.2L0 146.34L13.644 135.144C13.644 126.84 13.644 118.536 13.644 110.232L6.3 102.456C6.336 92.412 6.336 82.98 6.336 72L0.0360022 79.2Z" fill="#65F2FC"/>
<path d="M2.88281 149.364L121.935 149.328L107.607 138.42L15.9508 138.384L2.88281 149.364Z" fill="#65F2FC"/>
<path d="M296 135H159" stroke="#4DAFFF" stroke-width="2" stroke-miterlimit="10"/>
</svg>
