<svg width="390" height="894" viewBox="0 0 390 894" fill="none" xmlns="http://www.w3.org/2000/svg">
<rect width="390" height="894" fill="#0E2108" fill-opacity="0.8"/>
<g clip-path="url(#clip0_0_1)">
<rect width="390" height="893.303" fill="#0B0B0F"/>
<g opacity="0.28" filter="url(#filter0_f_0_1)">
<ellipse cx="196.5" cy="804" rx="188.5" ry="30" fill="#02D7F2"/>
</g>
<path fill-rule="evenodd" clip-rule="evenodd" d="M369.671 437.722C369.671 440.324 367.599 442.424 365.033 442.424C362.621 442.424 360.642 440.543 360.426 438.161H227.813L197.574 468.789H66.1973V468.162H197.326L227.534 437.534H360.395C360.488 435.026 362.528 433.02 365.033 433.02C367.599 433.02 369.671 435.12 369.671 437.722ZM369.052 437.722C369.052 435.465 367.259 433.647 365.033 433.647C362.807 433.647 361.013 435.465 361.013 437.722C361.013 439.979 362.807 441.797 365.033 441.797C367.259 441.797 369.052 439.979 369.052 437.722Z" fill="#02D7F2"/>
<path fill-rule="evenodd" clip-rule="evenodd" d="M397.258 471.287C397.258 473.889 395.186 475.99 392.62 475.99C390.146 475.99 388.106 473.983 387.982 471.507H254.472L234.993 451.757H5.0459V451.13H235.271L254.72 470.88H388.013C388.198 468.466 390.208 466.585 392.62 466.585C395.186 466.585 397.258 468.685 397.258 471.287ZM396.639 471.287C396.639 469.03 394.846 467.212 392.62 467.212C390.394 467.212 388.6 469.03 388.6 471.287C388.6 473.544 390.394 475.363 392.62 475.363C394.846 475.363 396.639 473.544 396.639 471.287Z" fill="#02D7F2"/>
<path fill-rule="evenodd" clip-rule="evenodd" d="M13.9785 430.059C13.9785 427.457 16.0501 425.357 18.6164 425.357C20.9662 425.357 22.8833 427.113 23.1925 429.401V429.307H178.562L199.773 450.812H297.354V451.439H199.526L178.315 429.934H23.2543C23.2543 429.976 23.2543 430.018 23.2543 430.059C23.2543 432.661 21.1827 434.762 18.6164 434.762C16.0501 434.762 13.9785 432.661 13.9785 430.059ZM14.5969 430.059C14.5969 432.317 16.3902 434.135 18.6164 434.135C20.8426 434.135 22.6359 432.317 22.6359 430.059C22.6359 427.802 20.8426 425.984 18.6164 425.984C16.3902 425.984 14.5969 427.802 14.5969 430.059Z" fill="#02D7F2"/>
<path fill-rule="evenodd" clip-rule="evenodd" d="M365.224 467.023C362.658 467.023 360.587 464.923 360.587 462.321C360.587 459.876 362.442 457.869 364.792 457.65V323.195L334.583 292.535V159.334H335.202V292.285L365.41 322.912V457.618C367.883 457.713 369.862 459.782 369.862 462.321C369.862 464.923 367.791 467.023 365.224 467.023ZM365.224 466.396C367.451 466.396 369.244 464.578 369.244 462.321C369.244 460.064 367.451 458.245 365.224 458.245C362.998 458.245 361.205 460.064 361.205 462.321C361.205 464.578 362.998 466.396 365.224 466.396Z" fill="#02D7F2"/>
<path fill-rule="evenodd" clip-rule="evenodd" d="M332.117 494.997C329.551 494.997 327.479 492.897 327.479 490.295C327.479 487.787 329.458 485.718 331.901 485.593V350.229L351.38 330.479V97.3379H351.999V330.761L332.519 350.479V485.624C334.9 485.812 336.755 487.85 336.755 490.295C336.755 492.897 334.684 494.997 332.117 494.997ZM332.117 494.37C334.344 494.37 336.137 492.552 336.137 490.295C336.137 488.038 334.344 486.22 332.117 486.22C329.891 486.22 328.098 488.038 328.098 490.295C328.098 492.552 329.891 494.37 332.117 494.37Z" fill="#02D7F2"/>
<path fill-rule="evenodd" clip-rule="evenodd" d="M372.783 106.392C375.349 106.392 377.421 108.492 377.421 111.094C377.421 113.477 375.689 115.42 373.432 115.734H373.525V273.262L352.314 294.767V393.704H351.696V294.516L372.906 273.011V115.796C372.865 115.796 372.824 115.796 372.783 115.796C370.216 115.796 368.145 113.696 368.145 111.094C368.145 108.492 370.216 106.392 372.783 106.392ZM372.783 107.019C370.557 107.019 368.763 108.837 368.763 111.094C368.763 113.351 370.557 115.169 372.783 115.169C375.009 115.169 376.802 113.351 376.802 111.094C376.802 108.837 375.009 107.019 372.783 107.019Z" fill="#02D7F2"/>
<path fill-rule="evenodd" clip-rule="evenodd" d="M99.1911 460.065C101.757 460.065 103.829 457.965 103.829 455.363C103.829 452.918 101.974 450.911 99.624 450.692V316.237L129.832 285.577V152.376H129.214V285.327L99.0056 315.955V450.661C96.5321 450.755 94.5532 452.824 94.5532 455.363C94.5532 457.965 96.6248 460.065 99.1911 460.065ZM99.1911 459.438C96.9649 459.438 95.1716 457.62 95.1716 455.363C95.1716 453.106 96.9649 451.288 99.1911 451.288C101.417 451.288 103.211 453.106 103.211 455.363C103.211 457.62 101.417 459.438 99.1911 459.438Z" fill="#02D7F2"/>
<path fill-rule="evenodd" clip-rule="evenodd" d="M132.299 488.036C134.865 488.036 136.937 485.936 136.937 483.334C136.937 480.826 134.958 478.757 132.515 478.632V343.268L113.036 323.518V90.377H112.417V323.8L131.897 343.518V478.663C129.516 478.851 127.661 480.889 127.661 483.334C127.661 485.936 129.732 488.036 132.299 488.036ZM132.299 487.409C130.072 487.409 128.279 485.591 128.279 483.334C128.279 481.077 130.072 479.259 132.299 479.259C134.525 479.259 136.318 481.077 136.318 483.334C136.318 485.591 134.525 487.409 132.299 487.409Z" fill="#02D7F2"/>
<path fill-rule="evenodd" clip-rule="evenodd" d="M91.6322 99.429C89.0659 99.429 86.9943 101.529 86.9943 104.131C86.9943 106.514 88.7258 108.457 90.9829 108.771H90.8902V266.299L112.101 287.804V386.741H112.719V287.554L91.5086 266.048V108.834C91.5498 108.834 91.591 108.834 91.6322 108.834C94.1985 108.834 96.2701 106.733 96.2701 104.131C96.2701 101.529 94.1985 99.429 91.6322 99.429ZM91.6322 100.056C93.8584 100.056 95.6518 101.874 95.6518 104.131C95.6518 106.388 93.8584 108.207 91.6322 108.207C89.406 108.207 87.6127 106.388 87.6127 104.131C87.6127 101.874 89.406 100.056 91.6322 100.056Z" fill="#02D7F2"/>
<path fill-rule="evenodd" clip-rule="evenodd" d="M42.8245 136.279C42.8245 133.677 44.8961 131.577 47.4624 131.577C49.8741 131.577 51.8529 133.458 52.0694 135.84H184.682L214.922 105.212H346.298V105.839H215.169L184.961 136.467H52.1003C52.0075 138.975 49.9668 140.981 47.4624 140.981C44.8961 140.981 42.8245 138.881 42.8245 136.279ZM43.4429 136.279C43.4429 138.536 45.2362 140.354 47.4624 140.354C49.6886 140.354 51.4819 138.536 51.4819 136.279C51.4819 134.022 49.6886 132.204 47.4624 132.204C45.2362 132.204 43.4429 134.022 43.4429 136.279Z" fill="#02D7F2"/>
<path fill-rule="evenodd" clip-rule="evenodd" d="M15.2378 102.713C15.2378 100.111 17.3094 98.0103 19.8757 98.0103C22.3492 98.0103 24.3899 100.017 24.5136 102.493H158.023L177.503 122.243H407.45V122.87H177.224L157.776 103.12H24.4827C24.2971 105.534 22.2874 107.415 19.8757 107.415C17.3094 107.415 15.2378 105.315 15.2378 102.713ZM15.8561 102.713C15.8561 104.97 17.6495 106.788 19.8757 106.788C22.1019 106.788 23.8952 104.97 23.8952 102.713C23.8952 100.456 22.1019 98.6373 19.8757 98.6373C17.6495 98.6373 15.8561 100.456 15.8561 102.713Z" fill="#02D7F2"/>
<path fill-rule="evenodd" clip-rule="evenodd" d="M398.517 143.938C398.517 146.54 396.446 148.64 393.879 148.64C391.529 148.64 389.612 146.884 389.303 144.596V144.69H233.933L212.723 123.185H115.141V122.558H212.97L234.181 144.063H389.241C389.241 144.021 389.241 143.979 389.241 143.938C389.241 141.336 391.313 139.235 393.879 139.235C396.446 139.235 398.517 141.336 398.517 143.938ZM397.899 143.938C397.899 141.681 396.105 139.862 393.879 139.862C391.653 139.862 389.86 141.681 389.86 143.938C389.86 146.195 391.653 148.013 393.879 148.013C396.105 148.013 397.899 146.195 397.899 143.938Z" fill="#02D7F2"/>
<path fill-rule="evenodd" clip-rule="evenodd" d="M-132.652 295.133C-132.652 292.531 -130.58 290.43 -128.014 290.43C-125.602 290.43 -123.624 292.311 -123.407 294.694H9.20586L39.445 264.066H170.821V264.693H39.6923L9.48414 295.321H-123.376C-123.469 297.829 -125.51 299.835 -128.014 299.835C-130.58 299.835 -132.652 297.735 -132.652 295.133ZM-132.034 295.133C-132.034 297.39 -130.24 299.208 -128.014 299.208C-125.788 299.208 -123.995 297.39 -123.995 295.133C-123.995 292.875 -125.788 291.057 -128.014 291.057C-130.24 291.057 -132.034 292.875 -132.034 295.133Z" fill="#02D7F2"/>
<path fill-rule="evenodd" clip-rule="evenodd" d="M-160.24 261.565C-160.24 258.963 -158.168 256.863 -155.602 256.863C-153.128 256.863 -151.088 258.869 -150.964 261.346H-17.4542L2.02496 281.096H231.972V281.723H1.7467L-17.7016 261.973H-150.995C-151.18 264.387 -153.19 266.268 -155.602 266.268C-158.168 266.268 -160.24 264.167 -160.24 261.565ZM-159.621 261.565C-159.621 263.822 -157.828 265.641 -155.602 265.641C-153.376 265.641 -151.582 263.822 -151.582 261.565C-151.582 259.308 -153.376 257.49 -155.602 257.49C-157.828 257.49 -159.621 259.308 -159.621 261.565Z" fill="#02D7F2"/>
<path fill-rule="evenodd" clip-rule="evenodd" d="M223.041 302.794C223.041 305.396 220.969 307.496 218.403 307.496C216.053 307.496 214.136 305.741 213.827 303.452V303.546H58.4572L37.2466 282.041H-60.335V281.414H37.4939L58.7046 302.92H213.765C213.765 302.878 213.765 302.836 213.765 302.794C213.765 300.192 215.837 298.092 218.403 298.092C220.969 298.092 223.041 300.192 223.041 302.794ZM222.423 302.794C222.423 300.537 220.629 298.719 218.403 298.719C216.177 298.719 214.384 300.537 214.384 302.794C214.384 305.051 216.177 306.869 218.403 306.869C220.629 306.869 222.423 305.051 222.423 302.794Z" fill="#02D7F2"/>
</g>
<defs>
<filter id="filter0_f_0_1" x="-150.4" y="615.6" width="693.8" height="376.8" filterUnits="userSpaceOnUse" color-interpolation-filters="sRGB">
<feFlood flood-opacity="0" result="BackgroundImageFix"/>
<feBlend mode="normal" in="SourceGraphic" in2="BackgroundImageFix" result="shape"/>
<feGaussianBlur stdDeviation="79.2" result="effect1_foregroundBlur_0_1"/>
</filter>
<clipPath id="clip0_0_1">
<rect width="390" height="893.303" fill="white"/>
</clipPath>
</defs>
</svg>
