<svg width="856" height="235" viewBox="0 0 856 235" fill="none" xmlns="http://www.w3.org/2000/svg">
<rect x="11" y="11" width="833" height="212" rx="8" fill="#02D7F2" fill-opacity="0.1"/>
<path d="M10.3517 34.6496H12.1517V12.1496H225.542V10.3496H10.3517V34.6496Z" fill="#5CF4FF"/>
<path d="M1.90663e-05 28.62H5.40002V5.4H28.53V0H1.90663e-05V28.62Z" fill="#5CF4FF"/>
<path d="M52.7397 5.4H129.96V0H52.7397V5.4Z" fill="#5CF4FF"/>
<path d="M164.883 25.2901H198.183L211.593 11.8801L210.333 10.6201L197.463 23.4901H165.603L152.823 10.6201L151.563 11.8801L164.883 25.2901Z" fill="#5CF4FF"/>
<path d="M630 224.3H845.19V200H843.39V222.5H630V224.3Z" fill="#5CF4FF"/>
<path d="M826.922 234.65H855.542V206.03H850.142V229.25H826.922V234.65Z" fill="#5CF4FF"/>
<path d="M725.579 234.65H802.799V229.25H725.579V234.65Z" fill="#5CF4FF"/>
<path fill-rule="evenodd" clip-rule="evenodd" d="M633.601 224.12L734.581 224.03L711.271 200.63H657.001L633.601 224.12ZM730.261 222.23L638.011 222.32L657.811 202.52H710.551L730.261 222.23Z" fill="#5CF4FF"/>
<path d="M710.91 202.43H813.42V200.63H710.91V202.43Z" fill="#5CF4FF"/>
</svg>
