<svg width="390" height="1837" viewBox="0 0 390 1837" fill="none" xmlns="http://www.w3.org/2000/svg">
<rect width="390" height="1837" fill="#0E2108" fill-opacity="0.8"/>
<g clip-path="url(#clip0_0_1)">
<rect width="390" height="1837" fill="#1F1D2B"/>
<g filter="url(#filter0_f_0_1)">
<ellipse cx="150.488" cy="275.441" rx="150.488" ry="275.441" transform="matrix(-0.999977 0.00673788 0.00223606 0.999997 383.925 235)" fill="url(#paint0_linear_0_1)" fill-opacity="0.48"/>
</g>
<g filter="url(#filter1_f_0_1)">
<rect width="144.615" height="375.54" transform="matrix(-0.999977 0.00673788 0.00223606 0.999997 305.612 369)" fill="url(#paint1_linear_0_1)" fill-opacity="0.5"/>
</g>
<g opacity="0.5">
<path opacity="0.0344828" d="M660.566 -162.817C659.163 -167.135 655.883 -170.813 650.766 -173.831C645.641 -176.853 638.728 -179.178 630.188 -180.791C613.109 -184.018 589.731 -184.358 561.682 -181.922C505.6 -177.051 431.066 -161.102 351.39 -135.213C271.714 -109.325 202.04 -78.4189 153.806 -49.3951C129.681 -34.879 110.969 -20.8625 99.0477 -8.21345C93.0868 -1.88856 88.8607 4.05613 86.4914 9.5132C84.1253 14.9626 83.6339 19.8661 85.0369 24.184C86.4399 28.502 89.7197 32.1802 94.8369 35.1981C99.9613 38.2202 106.874 40.5456 115.415 42.1588C132.494 45.385 155.871 45.7256 183.921 43.2895C240.003 38.4188 314.536 22.4693 394.213 -3.4191C473.889 -29.3075 543.563 -60.2137 591.797 -89.2375C615.921 -103.754 634.634 -117.77 646.555 -130.419C652.516 -136.744 656.742 -142.689 659.111 -148.146C661.477 -153.595 661.969 -158.499 660.566 -162.817Z" stroke="#632C72" stroke-width="2"/>
<path opacity="0.0689655" d="M652.228 -189.789C650.454 -193.969 646.867 -197.347 641.506 -199.907C636.137 -202.471 629.048 -204.185 620.4 -205.048C603.104 -206.773 579.786 -205.075 552.056 -200.204C496.612 -190.464 423.752 -168.079 346.635 -135.345C269.518 -102.611 202.803 -65.7496 157.282 -32.6323C134.515 -16.0689 117.095 -0.474817 106.322 13.1651C100.935 19.9854 97.2429 26.2758 95.3581 31.9186C93.476 37.5535 93.4139 42.4812 95.1878 46.6604C96.9618 50.8396 100.55 54.218 105.91 56.7784C111.279 59.3424 118.368 61.0564 127.017 61.9191C144.312 63.6445 167.63 61.9463 195.361 57.0749C250.805 47.3349 323.664 24.95 400.781 -7.78414C477.898 -40.5183 544.613 -77.3794 590.134 -110.497C612.901 -127.06 630.321 -142.654 641.095 -156.294C646.482 -163.114 650.173 -169.405 652.058 -175.048C653.94 -180.682 654.002 -185.61 652.228 -189.789Z" stroke="#632C72" stroke-width="2"/>
<path opacity="0.103448" d="M641.773 -215.861C639.641 -219.87 635.773 -222.922 630.209 -225.006C624.638 -227.092 617.426 -228.182 608.735 -228.288C591.355 -228.499 568.274 -224.775 541.074 -217.505C486.689 -202.97 416.058 -174.32 342.087 -134.989C268.117 -95.6587 204.869 -53.1234 162.407 -16.1648C141.17 2.31996 125.176 19.3729 115.632 33.8998C110.86 41.1637 107.731 47.752 106.345 53.5376C104.961 59.315 105.329 64.2294 107.46 68.2381C109.592 72.2468 113.46 75.2996 119.024 77.383C124.595 79.4694 131.807 80.559 140.498 80.6647C157.878 80.8761 180.959 77.1521 208.159 69.8824C262.544 55.3471 333.175 26.6974 407.145 -12.6334C481.116 -51.9642 544.364 -94.4995 586.826 -131.458C608.063 -149.943 624.057 -166.996 633.601 -181.523C638.373 -188.787 641.502 -195.375 642.888 -201.16C644.272 -206.938 643.904 -211.852 641.773 -215.861Z" stroke="#632C72" stroke-width="2"/>
<path opacity="0.137931" d="M629.284 -240.853C626.811 -244.66 622.691 -247.364 616.967 -248.955C611.235 -250.548 603.956 -251.005 595.289 -250.353C577.957 -249.048 555.288 -243.327 528.825 -233.714C475.914 -214.494 408.049 -179.798 337.788 -134.17C267.527 -88.5416 208.226 -40.6556 169.148 -0.136852C149.602 20.1284 135.155 38.5105 126.914 53.8139C122.793 61.4661 120.25 68.302 119.374 74.1864C118.499 80.0624 119.293 84.9261 121.766 88.7338C124.238 92.5415 128.359 95.2455 134.082 96.8361C139.815 98.429 147.094 98.8858 155.761 98.2337C173.093 96.9296 195.762 91.208 222.225 81.5953C275.136 62.3755 343.001 27.6788 413.262 -17.9492C483.523 -63.5773 542.824 -111.463 581.902 -151.982C601.448 -172.247 615.895 -190.629 624.136 -205.933C628.257 -213.585 630.8 -220.421 631.676 -226.305C632.551 -232.181 631.757 -237.045 629.284 -240.853Z" stroke="#632C72" stroke-width="2"/>
<path opacity="0.172414" d="M614.864 -264.587C612.069 -268.165 607.728 -270.499 601.888 -271.585C596.039 -272.672 588.747 -272.493 580.17 -271.088C563.017 -268.278 540.933 -260.603 515.409 -248.72C464.375 -224.962 399.791 -184.482 333.774 -132.904C267.757 -81.3263 212.856 -28.4542 177.457 15.3163C159.753 37.2079 146.963 56.7792 140.087 72.7426C136.649 80.7248 134.711 87.7564 134.351 93.6947C133.991 99.6247 135.206 104.401 138.002 107.978C140.797 111.556 145.137 113.891 150.978 114.976C156.827 116.064 164.118 115.884 172.695 114.479C189.848 111.669 211.932 103.994 237.456 92.1113C288.49 68.3532 353.074 27.8737 419.091 -23.7044C485.108 -75.2825 540.009 -128.155 575.408 -171.925C593.112 -193.817 605.902 -213.388 612.778 -229.351C616.217 -237.334 618.155 -244.365 618.515 -250.304C618.874 -256.233 617.659 -261.009 614.864 -264.587Z" stroke="#632C72" stroke-width="2"/>
<path opacity="0.206897" d="M598.629 -286.909C595.532 -290.229 591.005 -292.176 585.092 -292.749C579.171 -293.322 571.922 -292.508 563.501 -290.361C546.658 -286.067 525.327 -276.496 500.935 -262.434C452.166 -234.318 391.357 -188.364 330.086 -131.228C268.816 -74.0928 218.732 -16.6369 187.282 30.0523C171.553 53.4037 160.517 74.0152 155.059 90.5172C152.33 98.7687 151.012 105.942 151.171 111.89C151.329 117.828 152.956 122.48 156.053 125.8C159.149 129.121 163.676 131.068 169.589 131.641C175.511 132.214 182.759 131.4 191.181 129.253C208.023 124.959 229.354 115.388 253.746 101.326C302.515 73.2102 363.325 27.2559 424.595 -29.8797C485.866 -87.0153 535.95 -144.471 567.399 -191.16C583.128 -214.512 594.164 -235.123 599.622 -251.625C602.352 -259.877 603.67 -267.05 603.511 -272.998C603.352 -278.936 601.725 -283.588 598.629 -286.909Z" stroke="#632C72" stroke-width="2"/>
<path opacity="0.241379" d="M580.709 -307.657C577.335 -310.695 572.656 -312.24 566.715 -312.295C560.766 -312.35 553.616 -310.907 545.414 -308.034C529.01 -302.289 508.594 -290.895 485.521 -274.761C439.387 -242.501 382.814 -191.422 326.757 -129.164C270.699 -66.9057 225.813 -5.30335 198.553 43.9491C184.919 68.5825 175.722 90.0774 171.722 106.992C169.722 115.45 169.035 122.712 169.711 128.622C170.387 134.525 172.413 139.017 175.787 142.055C179.161 145.093 183.841 146.638 189.781 146.693C195.73 146.748 202.88 145.306 211.083 142.433C227.487 136.687 247.903 125.293 270.976 109.159C317.109 76.8996 373.682 25.8203 429.74 -36.4379C485.797 -98.6962 530.683 -160.298 557.943 -209.551C571.577 -234.184 580.775 -255.679 584.774 -272.594C586.774 -281.052 587.462 -288.313 586.785 -294.224C586.109 -300.126 584.083 -304.619 580.709 -307.657Z" stroke="#632C72" stroke-width="2"/>
<path opacity="0.275862" d="M561.249 -326.692C557.623 -329.424 552.827 -330.556 546.904 -330.093C540.973 -329.63 533.976 -327.569 526.055 -323.992C510.214 -316.839 490.869 -303.709 469.29 -285.625C426.144 -249.468 374.238 -193.652 323.82 -126.745C273.402 -59.8379 234.055 5.44213 211.192 56.8831C199.756 82.6111 192.467 104.826 189.957 122.025C188.702 130.625 188.65 137.919 189.839 143.748C191.027 149.569 193.437 153.867 197.063 156.6C200.689 159.332 205.485 160.464 211.408 160.001C217.339 159.537 224.336 157.477 232.257 153.9C248.098 146.746 267.443 133.616 289.022 115.533C332.168 79.3753 384.074 23.5597 434.492 -43.3474C484.91 -110.255 524.257 -175.535 547.12 -226.976C558.556 -252.704 565.845 -274.918 568.355 -292.117C569.61 -300.717 569.662 -308.011 568.473 -313.84C567.285 -319.661 564.875 -323.96 561.249 -326.692Z" stroke="#632C72" stroke-width="2"/>
<path opacity="0.310345" d="M540.404 -343.89C536.554 -346.296 531.677 -347.005 525.817 -346.028C519.949 -345.049 513.158 -342.387 505.579 -338.133C490.422 -329.626 472.295 -314.86 452.374 -294.965C412.543 -255.184 365.7 -195.057 321.305 -124.011C276.91 -52.9639 243.403 15.497 225.109 68.7349C215.96 95.3616 210.635 118.127 209.633 135.48C209.133 144.156 209.716 151.427 211.409 157.13C213.099 162.825 215.875 166.898 219.725 169.303C223.575 171.709 228.452 172.419 234.312 171.441C240.18 170.463 246.971 167.8 254.55 163.546C269.707 155.04 287.834 140.274 307.755 120.378C347.586 80.5978 394.43 20.4706 438.824 -50.5761C483.219 -121.623 516.726 -190.084 535.02 -243.322C544.169 -269.948 549.494 -292.714 550.496 -310.066C550.997 -318.743 550.413 -326.013 548.72 -331.717C547.03 -337.412 544.254 -341.484 540.404 -343.89Z" stroke="#632C72" stroke-width="2"/>
<path opacity="0.344828" d="M518.337 -359.136C514.292 -361.197 509.372 -361.479 503.619 -359.995C497.859 -358.508 491.326 -355.264 484.147 -350.366C469.789 -340.57 453.017 -324.281 434.906 -302.724C398.694 -259.624 357.269 -195.643 319.235 -120.998C281.201 -46.3522 253.789 24.7684 240.205 79.3981C233.411 106.721 230.09 129.864 230.605 147.238C230.862 155.925 232.078 163.117 234.261 168.651C236.441 174.177 239.561 177.992 243.606 180.053C247.652 182.114 252.572 182.396 258.324 180.912C264.085 179.425 270.617 176.181 277.797 171.283C292.155 161.487 308.926 145.198 327.037 123.641C363.249 80.5414 404.674 16.5604 442.708 -58.0852C480.742 -132.731 508.155 -203.851 521.739 -258.481C528.532 -285.804 531.853 -308.947 531.338 -326.321C531.081 -335.008 529.866 -342.2 527.682 -347.734C525.502 -353.26 522.382 -357.075 518.337 -359.136Z" stroke="#632C72" stroke-width="2"/>
<path opacity="0.37931" d="M495.226 -372.33C491.016 -374.031 486.09 -373.882 480.489 -371.902C474.88 -369.919 468.655 -366.118 461.93 -360.613C448.48 -349.603 433.192 -331.914 417.029 -308.861C384.711 -262.769 349.02 -195.421 317.637 -117.745C286.253 -40.0681 265.144 33.1711 256.373 88.7769C251.986 116.588 250.695 139.932 252.722 157.195C253.735 165.827 255.573 172.885 258.23 178.208C260.884 183.523 264.324 187.052 268.534 188.753C272.743 190.453 277.669 190.305 283.27 188.325C288.879 186.342 295.104 182.541 301.83 177.036C315.28 166.026 330.567 148.337 346.731 125.284C379.048 79.1917 414.74 11.8437 446.123 -65.8327C477.506 -143.509 498.616 -216.748 507.387 -272.354C511.774 -300.165 513.065 -323.509 511.038 -340.772C510.024 -349.404 508.187 -356.463 505.529 -361.785C502.876 -367.101 499.435 -370.629 495.226 -372.33Z" stroke="#632C72" stroke-width="2"/>
<path opacity="0.413793" d="M471.253 -383.39C466.911 -384.717 462.017 -384.14 456.61 -381.68C451.195 -379.215 445.325 -374.886 439.105 -368.816C426.666 -356.676 412.978 -337.721 398.885 -313.347C370.708 -264.614 341.022 -194.412 316.528 -114.295C292.034 -34.1793 277.388 40.621 273.497 96.7796C271.551 124.867 272.299 148.235 275.823 165.255C277.585 173.766 280.031 180.638 283.142 185.709C286.249 190.772 289.984 193.987 294.325 195.315C298.667 196.642 303.561 196.065 308.969 193.605C314.384 191.14 320.254 186.811 326.473 180.741C338.912 168.601 352.6 149.646 366.693 125.272C394.871 76.539 424.556 6.3366 449.05 -73.7795C473.544 -153.896 488.19 -228.696 492.082 -284.855C494.028 -312.942 493.279 -336.31 489.755 -353.33C487.993 -361.841 485.548 -368.713 482.437 -373.784C479.33 -378.847 475.595 -382.062 471.253 -383.39Z" stroke="#632C72" stroke-width="2"/>
<path opacity="0.448276" d="M446.605 -392.246C442.164 -393.19 437.339 -392.189 432.167 -389.266C426.987 -386.339 421.517 -381.515 415.85 -374.925C404.516 -361.747 392.532 -341.672 380.617 -316.163C356.794 -265.159 333.34 -192.637 315.922 -110.691C298.504 -28.7446 290.433 47.0476 291.451 103.332C291.96 131.482 294.743 154.696 299.736 171.344C302.233 179.669 305.269 186.301 308.81 191.082C312.346 195.855 316.347 198.733 320.788 199.677C325.229 200.621 330.054 199.619 335.226 196.697C340.406 193.77 345.876 188.945 351.543 182.356C362.877 169.178 374.861 149.103 386.776 123.594C410.599 72.5897 434.053 0.0671798 451.471 -81.8788C468.889 -163.825 476.96 -239.617 475.942 -295.901C475.433 -324.051 472.65 -347.265 467.657 -363.913C465.16 -372.238 462.124 -378.87 458.583 -383.651C455.047 -388.425 451.046 -391.302 446.605 -392.246Z" stroke="#632C72" stroke-width="2"/>
<path opacity="0.482759" d="M421.477 -398.849C416.971 -399.402 412.251 -397.984 407.354 -394.622C402.449 -391.255 397.42 -385.972 392.348 -378.914C382.206 -364.798 372.018 -343.755 362.372 -317.304C343.085 -264.418 326.041 -190.127 315.831 -106.975C305.621 -23.8228 304.186 52.3845 310.106 108.366C313.067 136.364 317.862 159.247 324.288 175.397C327.501 183.473 331.102 189.815 335.047 194.269C338.986 198.716 343.222 201.234 347.728 201.787C352.235 202.34 356.954 200.922 361.852 197.56C366.757 194.193 371.786 188.91 376.857 181.852C386.999 167.736 397.188 146.693 406.834 120.242C426.121 67.3562 443.165 -6.93451 453.375 -90.0868C463.585 -173.239 465.019 -249.446 459.1 -305.428C456.139 -333.426 451.344 -356.309 444.918 -372.459C441.705 -380.535 438.103 -386.877 434.159 -391.331C430.22 -395.778 425.984 -398.296 421.477 -398.849Z" stroke="#632C72" stroke-width="2"/>
<path opacity="0.517241" d="M396.071 -403.167C391.534 -403.326 386.956 -401.502 382.369 -397.725C377.777 -393.944 373.227 -388.243 368.79 -380.769C359.917 -365.823 351.602 -343.972 344.297 -316.781C329.693 -262.416 319.189 -186.922 316.265 -103.196C313.341 -19.4708 318.554 56.5715 329.33 111.824C334.72 139.458 341.491 161.836 349.3 177.364C353.205 185.129 357.346 191.133 361.663 195.226C365.975 199.313 370.414 201.452 374.952 201.611C379.489 201.769 384.067 199.945 388.653 196.169C393.246 192.387 397.795 186.686 402.232 179.213C411.105 164.267 419.421 142.416 426.725 115.225C441.33 60.8589 451.834 -14.6345 454.758 -98.3602C457.681 -182.086 452.469 -258.128 441.693 -313.38C436.303 -341.014 429.532 -363.392 421.723 -378.921C417.818 -386.685 413.677 -392.69 409.36 -396.783C405.048 -400.87 400.608 -403.009 396.071 -403.167Z" stroke="#632C72" stroke-width="2"/>
<path opacity="0.551724" d="M370.585 -405.185C366.051 -404.947 361.649 -402.731 357.41 -398.569C353.164 -394.402 349.129 -388.326 345.36 -380.494C337.824 -364.832 331.444 -342.339 326.537 -314.615C316.727 -259.183 312.842 -183.061 317.227 -99.3995C321.611 -15.7375 333.432 59.5612 348.983 113.664C356.76 140.723 365.456 162.426 374.589 177.215C379.155 184.609 383.803 190.23 388.461 193.931C393.113 197.627 397.722 199.371 402.256 199.133C406.79 198.895 411.192 196.679 415.431 192.518C419.676 188.35 423.712 182.274 427.48 174.443C435.017 158.78 441.397 136.288 446.303 108.564C456.114 53.1317 459.998 -22.9901 455.614 -106.652C451.229 -190.314 439.409 -265.613 423.858 -319.715C416.081 -346.775 407.385 -368.477 398.252 -383.266C393.686 -390.661 389.037 -396.282 384.379 -399.983C379.728 -403.678 375.119 -405.422 370.585 -405.185Z" stroke="#632C72" stroke-width="2"/>
<path opacity="0.586207" d="M345.218 -404.903C340.722 -404.272 336.53 -401.68 332.669 -397.165C328.803 -392.643 325.312 -386.239 322.241 -378.108C316.098 -361.849 311.703 -338.886 309.231 -310.84C304.289 -254.764 307.054 -178.593 318.713 -95.6316C330.373 -12.6702 348.711 61.3117 368.918 113.853C379.024 140.132 389.579 160.994 399.965 174.93C405.159 181.899 410.28 187.093 415.242 190.374C420.198 193.65 424.942 194.986 429.438 194.354C433.934 193.722 438.125 191.131 441.986 186.615C445.852 182.094 449.343 175.689 452.414 167.559C458.557 151.299 462.952 128.336 465.424 100.29C470.366 44.2142 467.601 -31.9564 455.942 -114.918C444.282 -197.879 425.944 -271.861 405.737 -324.403C395.631 -350.681 385.077 -371.543 374.69 -385.48C369.496 -392.448 364.376 -397.642 359.413 -400.923C354.457 -404.2 349.713 -405.535 345.218 -404.903Z" stroke="#632C72" stroke-width="2"/>
<path opacity="0.62069" d="M320.171 -402.338C315.747 -401.317 311.797 -398.37 308.345 -393.535C304.888 -388.694 301.969 -382.01 299.617 -373.642C294.915 -356.909 292.538 -333.65 292.52 -305.496C292.484 -249.202 301.877 -173.563 320.723 -91.933C339.568 -10.3035 364.285 61.7987 388.994 112.379C401.352 137.677 413.685 157.54 425.246 170.518C431.028 177.007 436.582 181.735 441.811 184.571C447.034 187.403 451.876 188.32 456.3 187.299C460.723 186.278 464.673 183.331 468.126 178.496C471.583 173.655 474.502 166.97 476.854 158.603C481.556 141.87 483.933 118.611 483.951 90.4566C483.986 34.1634 474.594 -41.4764 455.748 -123.106C436.902 -204.736 412.186 -276.838 387.477 -327.418C375.118 -352.716 362.786 -372.579 351.224 -385.557C345.443 -392.046 339.889 -396.774 334.659 -399.61C329.437 -402.442 324.595 -403.359 320.171 -402.338Z" stroke="#632C72" stroke-width="2"/>
<path opacity="0.655172" d="M295.643 -397.533C291.325 -396.13 287.647 -392.85 284.629 -387.733C281.607 -382.608 279.282 -375.695 277.668 -367.155C274.442 -350.076 274.102 -326.698 276.538 -298.649C281.408 -242.567 297.358 -168.034 323.246 -88.3572C349.135 -8.68082 380.041 60.9928 409.065 109.227C423.581 133.351 437.597 152.064 450.247 163.985C456.571 169.946 462.516 174.172 467.973 176.541C473.423 178.907 478.326 179.399 482.644 177.996C486.962 176.593 490.64 173.313 493.658 168.196C496.68 163.071 499.006 156.158 500.619 147.618C503.845 130.539 504.186 107.161 501.75 79.112C496.879 23.0299 480.929 -51.5034 455.041 -131.18C429.152 -210.856 398.246 -280.53 369.222 -328.764C354.706 -352.888 340.69 -371.601 328.041 -383.522C321.716 -389.483 315.771 -393.709 310.314 -396.078C304.865 -398.444 299.961 -398.936 295.643 -397.533Z" stroke="#632C72" stroke-width="2"/>
<path opacity="0.689655" d="M271.825 -390.534C267.646 -388.76 264.268 -385.172 261.707 -379.812C259.143 -374.443 257.429 -367.354 256.567 -358.705C254.841 -341.41 256.539 -318.092 261.411 -290.361C271.151 -234.917 293.536 -162.058 326.27 -84.9408C359.004 -7.82387 395.865 58.891 428.982 104.412C445.546 127.179 461.14 144.599 474.78 155.372C481.6 160.759 487.891 164.451 493.533 166.336C499.168 168.218 504.096 168.28 508.275 166.506C512.454 164.732 515.833 161.144 518.393 155.784C520.957 150.415 522.671 143.326 523.534 134.678C525.259 117.382 523.561 94.0638 518.69 66.3336C508.95 10.8894 486.565 -61.9702 453.831 -139.087C421.097 -216.204 384.235 -282.919 351.118 -328.44C334.555 -351.207 318.961 -368.627 305.321 -379.4C298.5 -384.787 292.21 -388.479 286.567 -390.364C280.932 -392.246 276.005 -392.308 271.825 -390.534Z" stroke="#632C72" stroke-width="2"/>
<path opacity="0.724138" d="M248.91 -381.419C244.901 -379.287 241.849 -375.419 239.765 -369.855C237.679 -364.284 236.589 -357.072 236.483 -348.381C236.272 -331.001 239.996 -307.92 247.266 -280.72C261.801 -226.335 290.451 -155.704 329.782 -81.7333C369.112 -7.76279 411.648 55.4855 448.606 97.9472C467.091 119.184 484.144 135.179 498.671 144.722C505.935 149.494 512.523 152.624 518.309 154.009C524.086 155.393 529.001 155.026 533.009 152.894C537.018 150.763 540.071 146.894 542.154 141.331C544.241 135.759 545.33 128.547 545.436 119.857C545.647 102.477 541.923 79.3952 534.654 52.1951C520.118 -2.18925 491.469 -72.8207 452.138 -146.791C412.807 -220.762 370.272 -284.01 333.313 -326.472C314.828 -347.709 297.775 -363.703 283.248 -373.247C275.984 -378.019 269.396 -381.148 263.611 -382.534C257.833 -383.918 252.919 -383.55 248.91 -381.419Z" stroke="#632C72" stroke-width="2"/>
<path opacity="0.758621" d="M227.075 -370.268C223.267 -367.796 220.563 -363.676 218.972 -357.952C217.379 -352.22 216.923 -344.94 217.575 -336.273C218.879 -318.941 224.6 -296.272 234.213 -269.809C253.433 -216.898 288.13 -149.033 333.758 -78.7716C379.386 -8.51048 427.272 50.79 467.791 89.8689C488.056 109.414 506.438 123.861 521.742 132.102C529.394 136.223 536.23 138.767 542.114 139.643C547.99 140.518 552.854 139.724 556.661 137.251C560.469 134.778 563.173 130.658 564.764 124.934C566.357 119.202 566.813 111.923 566.161 103.256C564.857 85.9235 559.136 63.2544 549.523 36.7914C530.303 -16.1192 495.606 -83.9848 449.978 -154.246C404.35 -224.507 356.464 -283.808 315.945 -322.886C295.68 -342.432 277.298 -356.879 261.994 -365.12C254.342 -369.241 247.506 -371.784 241.622 -372.661C235.746 -373.536 230.882 -372.741 227.075 -370.268Z" stroke="#632C72" stroke-width="2"/>
<path opacity="0.793103" d="M206.492 -357.187C202.915 -354.392 200.58 -350.052 199.494 -344.211C198.407 -338.362 198.586 -331.071 199.991 -322.494C202.801 -305.341 210.477 -283.257 222.359 -257.732C246.117 -206.698 286.597 -142.115 338.175 -76.0981C389.753 -10.0812 442.625 44.82 486.396 80.2187C508.287 97.9232 527.859 110.713 543.822 117.589C551.804 121.027 558.836 122.965 564.774 123.326C570.704 123.685 575.48 122.47 579.058 119.675C582.635 116.879 584.97 112.539 586.056 106.699C587.143 100.85 586.964 93.558 585.559 84.9811C582.749 67.8284 575.073 45.7443 563.191 20.2198C539.433 -30.8143 498.953 -95.3976 447.375 -161.415C395.797 -227.431 342.925 -282.333 299.154 -317.731C277.263 -335.436 257.691 -348.226 241.728 -355.102C233.746 -358.54 226.714 -360.478 220.776 -360.838C214.846 -361.198 210.07 -359.982 206.492 -357.187Z" stroke="#632C72" stroke-width="2"/>
<path opacity="0.827586" d="M187.329 -342.291C184.009 -339.195 182.061 -334.668 181.489 -328.754C180.915 -322.833 181.729 -315.585 183.877 -307.163C188.171 -290.32 197.742 -268.989 211.804 -244.598C239.919 -195.828 285.874 -135.019 343.009 -73.7485C400.145 -12.4781 457.6 37.6061 504.29 69.0551C527.641 84.7843 548.253 95.82 564.754 101.278C573.006 104.008 580.18 105.326 586.127 105.167C592.066 105.008 596.717 103.381 600.038 100.285C603.358 97.1885 605.306 92.6615 605.878 86.7483C606.452 80.8267 605.637 73.5786 603.49 65.1568C599.196 48.3142 589.625 26.9831 575.563 2.59141C547.448 -46.1778 501.493 -106.987 444.358 -168.258C387.222 -229.528 329.766 -279.612 283.077 -311.061C259.726 -326.79 239.114 -337.826 222.612 -343.285C214.361 -346.014 207.187 -347.332 201.24 -347.173C195.301 -347.014 190.65 -345.387 187.329 -342.291Z" stroke="#632C72" stroke-width="2"/>
<path opacity="0.862069" d="M169.736 -325.71C166.698 -322.336 165.152 -317.656 165.097 -311.716C165.042 -305.767 166.485 -298.617 169.358 -290.415C175.104 -274.01 186.498 -253.595 202.632 -230.521C234.891 -184.388 285.97 -127.815 348.229 -71.7576C410.487 -15.7 472.089 29.186 521.342 56.4462C545.975 70.0803 567.47 79.2776 584.385 83.2771C592.843 85.2769 600.104 85.9645 606.015 85.2879C611.917 84.6123 616.409 82.5861 619.447 79.2121C622.485 75.8381 624.031 71.1586 624.086 65.218C624.141 59.269 622.698 52.1194 619.825 43.9168C614.079 27.5126 602.686 7.09679 586.551 -15.9765C554.292 -62.1097 503.213 -118.683 440.955 -174.74C378.696 -230.798 317.094 -275.684 267.842 -302.944C243.208 -316.578 221.713 -325.776 204.798 -329.775C196.34 -331.775 189.079 -332.462 183.168 -331.786C177.266 -331.11 172.774 -329.084 169.736 -325.71Z" stroke="#632C72" stroke-width="2"/>
<path opacity="0.896552" d="M153.854 -307.59C151.122 -303.964 149.99 -299.168 150.453 -293.245C150.916 -287.314 152.977 -280.317 156.554 -272.396C163.707 -256.555 176.837 -237.21 194.921 -215.631C231.078 -172.485 286.894 -120.579 353.801 -70.1608C420.708 -19.7428 485.988 19.6034 537.429 42.4673C563.157 53.9025 585.371 61.1914 602.571 63.7015C611.171 64.9565 618.464 65.0086 624.293 63.8194C630.114 62.6319 634.413 60.2219 637.145 56.596C639.878 52.9701 641.009 48.1737 640.546 42.2509C640.083 36.3198 638.022 29.3231 634.445 21.4021C627.292 5.56109 614.162 -13.784 596.078 -35.3633C559.921 -78.5093 504.105 -130.415 437.198 -180.833C370.291 -231.251 305.011 -270.597 253.57 -293.461C227.843 -304.897 205.628 -312.185 188.429 -314.695C179.829 -315.951 172.535 -316.003 166.706 -314.813C160.885 -313.626 156.586 -311.216 153.854 -307.59Z" stroke="#632C72" stroke-width="2"/>
<path opacity="0.931035" d="M139.81 -288.082C137.404 -284.232 136.694 -279.355 137.672 -273.495C138.651 -267.627 141.313 -260.836 145.567 -253.257C154.074 -238.1 168.839 -219.973 188.735 -200.052C228.515 -160.221 288.642 -113.378 359.689 -68.9827C430.736 -24.5878 499.197 8.91922 552.435 27.2127C579.061 36.3621 601.827 41.6872 619.179 42.6886C627.856 43.1894 635.126 42.6056 640.83 40.9129C646.525 39.2226 650.597 36.4471 653.003 32.5969C655.409 28.7466 656.119 23.8698 655.141 18.0099C654.162 12.1418 651.5 5.35127 647.246 -2.22782C638.739 -17.3851 623.973 -35.5122 604.078 -55.4333C564.298 -95.2639 504.17 -142.108 433.124 -186.503C362.077 -230.897 293.616 -264.404 240.378 -282.698C213.752 -291.847 190.986 -297.172 173.634 -298.174C164.957 -298.675 157.686 -298.091 151.983 -296.398C146.288 -294.708 142.216 -291.932 139.81 -288.082Z" stroke="#632C72" stroke-width="2"/>
<path opacity="0.965517" d="M127.72 -267.356C125.659 -263.31 125.378 -258.39 126.862 -252.638C128.349 -246.877 131.593 -240.345 136.491 -233.165C146.286 -218.807 162.576 -202.036 184.132 -183.925C227.232 -147.713 291.213 -106.288 365.859 -68.2538C440.505 -30.2199 511.625 -2.8072 566.255 10.7767C593.578 17.5706 616.721 20.8913 634.095 20.3766C642.782 20.1192 649.974 18.904 655.508 16.7207C661.034 14.5404 664.849 11.4206 666.91 7.3753C668.971 3.33002 669.253 -1.59004 667.769 -7.34244C666.282 -13.103 663.038 -19.6356 658.14 -26.8151C648.344 -41.1732 632.055 -57.9444 610.499 -76.0557C567.398 -112.268 503.417 -153.693 428.772 -191.727C354.126 -229.76 283.005 -257.173 228.376 -270.757C201.053 -277.551 177.91 -280.872 160.536 -280.357C151.849 -280.1 144.657 -278.884 139.123 -276.701C133.596 -274.521 129.782 -271.401 127.72 -267.356Z" stroke="#632C72" stroke-width="2"/>
<path d="M117.683 -245.585C115.982 -241.376 116.13 -236.45 118.11 -230.849C120.093 -225.24 123.894 -219.015 129.399 -212.289C140.409 -198.84 158.098 -183.552 181.151 -167.388C227.243 -135.071 294.591 -99.3795 372.268 -67.9962C449.944 -36.6129 523.183 -15.5031 578.789 -6.73214C606.6 -2.34541 629.944 -1.05443 647.207 -3.08139C655.839 -4.09494 662.898 -5.93238 668.22 -8.58972C673.536 -11.2433 677.064 -14.6838 678.765 -18.8933C680.466 -23.1028 680.317 -28.0287 678.337 -33.6299C676.354 -39.2389 672.553 -45.4639 667.048 -52.1892C656.038 -65.639 638.349 -80.9267 615.296 -97.0902C569.204 -129.408 501.856 -165.099 424.18 -196.482C346.503 -227.866 273.264 -248.976 217.658 -257.746C189.847 -262.133 166.503 -263.424 149.24 -261.397C140.608 -260.384 133.55 -258.546 128.227 -255.889C122.912 -253.235 119.383 -249.795 117.683 -245.585Z" stroke="#632C72" stroke-width="2"/>
</g>
</g>
<defs>
<filter id="filter0_f_0_1" x="-316.43" y="-163.988" width="1100.97" height="1350.88" filterUnits="userSpaceOnUse" color-interpolation-filters="sRGB">
<feFlood flood-opacity="0" result="BackgroundImageFix"/>
<feBlend mode="normal" in="SourceGraphic" in2="BackgroundImageFix" result="shape"/>
<feGaussianBlur stdDeviation="200" result="effect1_foregroundBlur_0_1"/>
</filter>
<filter id="filter1_f_0_1" x="-38.9998" y="169" width="545.452" height="776.513" filterUnits="userSpaceOnUse" color-interpolation-filters="sRGB">
<feFlood flood-opacity="0" result="BackgroundImageFix"/>
<feBlend mode="normal" in="SourceGraphic" in2="BackgroundImageFix" result="shape"/>
<feGaussianBlur stdDeviation="100" result="effect1_foregroundBlur_0_1"/>
</filter>
<linearGradient id="paint0_linear_0_1" x1="150.488" y1="0" x2="150.488" y2="550.881" gradientUnits="userSpaceOnUse">
<stop stop-color="#631D77"/>
<stop offset="1" stop-color="#130D1B"/>
</linearGradient>
<linearGradient id="paint1_linear_0_1" x1="72.3076" y1="0" x2="72.3076" y2="375.54" gradientUnits="userSpaceOnUse">
<stop stop-color="#EF57BB"/>
<stop offset="1" stop-color="#361E4E"/>
</linearGradient>
<clipPath id="clip0_0_1">
<rect width="390" height="1837" fill="white"/>
</clipPath>
</defs>
</svg>
