<svg width="1440" height="1000" viewBox="0 0 1440 1000" fill="none" xmlns="http://www.w3.org/2000/svg">
<g clip-path="url(#clip0_115_190)">
<rect width="1440" height="1000" fill="#1F1D2B"/>
<g opacity="0.35">
<path opacity="0.0344828" d="M582.558 794.904C580.199 787.644 574.698 781.511 566.226 776.515C557.748 771.515 546.348 767.688 532.322 765.038C504.269 759.739 465.919 759.186 419.959 763.178C328.055 771.16 205.946 797.292 75.4322 839.699C-55.082 882.106 -169.23 932.737 -248.274 980.3C-287.803 1004.09 -318.504 1027.07 -338.084 1047.85C-347.874 1058.24 -354.847 1068.03 -358.767 1077.06C-362.684 1086.08 -363.53 1094.28 -361.171 1101.54C-358.812 1108.8 -353.311 1114.93 -344.839 1119.93C-336.361 1124.93 -324.961 1128.76 -310.935 1131.41C-282.882 1136.71 -244.532 1137.26 -198.572 1133.27C-106.668 1125.28 15.4406 1099.15 145.955 1056.75C276.469 1014.34 390.618 963.707 469.661 916.145C509.19 892.359 539.891 869.37 559.471 848.594C569.261 838.206 576.234 828.41 580.155 819.381C584.071 810.36 584.917 802.165 582.558 794.904Z" stroke="#632C72" stroke-width="2"/>
<path opacity="0.0689655" d="M568.886 750.683C565.903 743.656 559.889 738.026 551.014 733.787C542.132 729.545 530.442 726.726 516.238 725.309C487.831 722.475 449.579 725.267 404.141 733.249C313.282 749.21 193.916 785.886 67.5945 839.506C-58.7271 893.127 -168.028 953.515 -242.626 1007.79C-279.931 1034.93 -308.511 1060.5 -326.206 1082.91C-335.054 1094.11 -341.147 1104.47 -344.265 1113.81C-347.381 1123.14 -347.509 1131.38 -344.526 1138.4C-341.543 1145.43 -335.529 1151.06 -326.654 1155.3C-317.772 1159.54 -306.082 1162.36 -291.878 1163.78C-263.471 1166.61 -225.218 1163.82 -179.781 1155.84C-88.9223 1139.88 30.444 1103.2 156.766 1049.58C283.087 995.96 392.389 935.572 466.986 881.302C504.291 854.162 532.872 828.584 550.566 806.181C559.414 794.979 565.507 784.612 568.625 775.276C571.741 765.948 571.869 757.711 568.886 750.683Z" stroke="#632C72" stroke-width="2"/>
<path opacity="0.103448" d="M551.739 707.936C548.155 701.195 541.673 696.111 532.463 692.662C523.245 689.21 511.354 687.421 497.08 687.247C468.534 686.9 430.67 693.015 386.102 704.926C296.98 728.746 181.264 775.686 60.0965 840.112C-61.0711 904.538 -164.693 974.222 -234.277 1034.79C-269.075 1065.08 -295.317 1093.05 -310.992 1116.91C-318.83 1128.84 -323.996 1139.7 -326.289 1149.27C-328.58 1158.83 -327.989 1167.05 -324.405 1173.79C-320.821 1180.53 -314.339 1185.62 -305.129 1189.06C-295.911 1192.52 -284.02 1194.31 -269.746 1194.48C-241.2 1194.83 -203.336 1188.71 -158.767 1176.8C-69.6457 1152.98 46.0699 1106.04 167.238 1041.61C288.405 977.188 392.027 907.504 461.611 846.939C496.409 816.65 522.651 788.68 538.326 764.819C546.164 752.889 551.33 742.03 553.623 732.458C555.914 722.894 555.323 714.676 551.739 707.936Z" stroke="#632C72" stroke-width="2"/>
<path opacity="0.137931" d="M531.259 666.96C527.101 660.557 520.2 656.057 510.725 653.424C501.241 650.788 489.239 650.042 475.005 651.113C446.537 653.255 409.35 662.647 365.989 678.398C279.283 709.894 168.099 766.741 53.0071 841.482C-62.0843 916.223 -159.239 994.673 -223.279 1061.07C-255.305 1094.28 -279.009 1124.43 -292.545 1149.57C-299.313 1162.13 -303.513 1173.4 -304.963 1183.14C-306.412 1192.86 -305.108 1201 -300.95 1207.4C-296.792 1213.8 -289.891 1218.3 -280.415 1220.94C-270.931 1223.57 -258.93 1224.32 -244.695 1223.25C-216.227 1221.11 -179.041 1211.71 -135.68 1195.96C-48.9731 1164.47 62.2111 1107.62 177.303 1032.88C292.394 958.139 389.548 879.688 453.589 813.289C485.614 780.083 509.319 749.931 522.855 724.796C529.623 712.228 533.823 700.96 535.273 691.224C536.721 681.497 535.417 673.362 531.259 666.96Z" stroke="#632C72" stroke-width="2"/>
<path opacity="0.172414" d="M507.61 628.046C502.909 622.03 495.643 618.149 485.973 616.351C476.296 614.553 464.275 614.856 450.188 617.163C422.015 621.778 385.789 634.375 343.966 653.845C260.334 692.779 154.527 759.099 46.388 843.587C-61.7513 928.074 -151.699 1014.69 -209.708 1086.42C-238.718 1122.29 -259.704 1154.4 -270.998 1180.62C-276.645 1193.73 -279.847 1205.32 -280.443 1215.14C-281.038 1224.96 -279.03 1232.95 -274.33 1238.96C-269.63 1244.98 -262.363 1248.86 -252.694 1250.66C-243.016 1252.46 -230.995 1252.15 -216.908 1249.85C-188.735 1245.23 -152.509 1232.64 -110.686 1213.17C-27.0541 1174.23 78.7525 1107.91 186.892 1023.42C295.031 938.936 384.979 852.316 442.988 780.588C471.998 744.717 492.984 712.614 504.278 686.395C509.925 673.284 513.127 661.694 513.723 651.869C514.318 642.052 512.31 634.062 507.61 628.046Z" stroke="#632C72" stroke-width="2"/>
<path opacity="0.206897" d="M480.986 591.453C475.78 585.869 468.202 582.636 458.413 581.688C448.616 580.74 436.667 582.089 422.835 585.616C395.171 592.669 360.181 608.375 320.213 631.416C240.293 677.49 140.67 752.78 40.3053 846.371C-60.0589 939.962 -142.115 1034.09 -193.652 1110.6C-219.425 1148.87 -237.533 1182.68 -246.499 1209.78C-250.982 1223.33 -253.161 1235.16 -252.899 1245C-252.636 1254.83 -249.939 1262.61 -244.733 1268.2C-239.526 1273.78 -231.948 1277.01 -222.16 1277.96C-212.362 1278.91 -200.413 1277.56 -186.581 1274.03C-158.918 1266.98 -123.927 1251.27 -83.9598 1228.23C-4.03966 1182.16 95.5841 1106.87 195.948 1013.28C296.313 919.687 378.368 825.558 429.905 749.046C455.678 710.784 473.787 676.974 482.753 649.87C487.235 636.317 489.415 624.492 489.152 614.652C488.89 604.821 486.193 597.036 480.986 591.453Z" stroke="#632C72" stroke-width="2"/>
<path opacity="0.241379" d="M451.602 557.434C445.929 552.326 438.098 549.765 428.264 549.674C418.421 549.583 406.635 551.969 393.163 556.687C366.22 566.124 332.731 584.82 294.924 611.257C219.324 664.122 126.641 747.808 34.8156 849.79C-57.0097 951.773 -130.549 1052.7 -175.222 1133.41C-197.562 1173.77 -212.655 1209.03 -219.224 1236.81C-222.509 1250.7 -223.649 1262.67 -222.53 1272.45C-221.412 1282.22 -218.047 1289.74 -212.373 1294.85C-206.7 1299.96 -198.869 1302.52 -189.035 1302.61C-179.192 1302.7 -167.407 1300.32 -153.934 1295.6C-126.991 1286.16 -93.5021 1267.47 -55.6952 1241.03C19.9052 1188.16 112.588 1104.48 204.413 1002.5C296.239 900.514 369.778 799.592 414.451 718.88C436.791 678.516 451.884 643.257 458.453 615.475C461.738 601.583 462.878 589.612 461.759 579.833C460.64 570.062 457.275 562.542 451.602 557.434Z" stroke="#632C72" stroke-width="2"/>
<path opacity="0.275862" d="M419.69 526.224C413.593 521.63 405.569 519.762 395.764 520.528C385.951 521.295 374.418 524.699 361.408 530.574C335.389 542.323 303.658 563.867 268.299 593.499C197.594 652.751 112.557 744.196 29.9696 853.794C-52.6179 963.391 -117.082 1070.34 -154.55 1154.64C-173.287 1196.79 -185.25 1233.23 -189.372 1261.48C-191.434 1275.61 -191.527 1287.63 -189.559 1297.28C-187.593 1306.91 -183.586 1314.11 -177.489 1318.71C-171.392 1323.3 -163.368 1325.17 -153.563 1324.4C-143.75 1323.64 -132.217 1320.23 -119.207 1314.36C-93.1887 1302.61 -61.4569 1281.06 -26.098 1251.43C44.6072 1192.18 129.644 1100.73 212.231 991.137C294.819 881.54 359.282 774.592 396.75 690.294C415.488 648.137 427.45 611.696 431.573 583.447C433.634 569.322 433.727 557.298 431.76 547.653C429.794 538.017 425.787 530.819 419.69 526.224Z" stroke="#632C72" stroke-width="2"/>
<path opacity="0.310345" d="M385.505 498.028C379.031 493.983 370.875 492.821 361.174 494.439C351.465 496.058 340.273 500.454 327.825 507.441C302.929 521.413 273.196 545.641 240.554 578.241C175.282 643.43 98.5393 741.939 25.818 858.317C-46.9032 974.696 -101.801 1086.85 -131.779 1174.1C-146.771 1217.73 -155.512 1255.07 -157.157 1283.57C-157.979 1297.82 -157.024 1309.81 -154.223 1319.25C-151.425 1328.68 -146.805 1335.5 -140.331 1339.54C-133.857 1343.59 -125.701 1344.75 -116 1343.13C-106.291 1341.51 -95.0985 1337.12 -82.6504 1330.13C-57.755 1316.16 -28.0215 1291.93 4.62027 1259.33C69.8923 1194.14 146.635 1095.63 219.356 979.253C292.077 862.875 346.975 750.716 376.953 663.473C391.945 619.843 400.686 582.498 402.331 553.998C403.153 539.747 402.198 527.76 399.398 518.323C396.599 508.895 391.98 502.074 385.505 498.028Z" stroke="#632C72" stroke-width="2"/>
<path opacity="0.344828" d="M349.32 473.034C342.518 469.568 334.291 469.122 324.769 471.579C315.238 474.039 304.471 479.393 292.679 487.438C269.096 503.527 241.588 530.254 211.911 565.575C152.569 636.205 84.7043 741.027 22.4028 863.301C-39.8986 985.575 -84.8118 1102.09 -107.072 1191.62C-118.204 1236.39 -123.657 1274.35 -122.812 1302.89C-122.389 1317.15 -120.393 1329.01 -116.781 1338.17C-113.171 1347.32 -107.975 1353.71 -101.172 1357.18C-94.3703 1360.64 -86.1438 1361.09 -76.6211 1358.63C-67.0903 1356.17 -56.3235 1350.82 -44.5316 1342.77C-20.9487 1326.68 6.56 1299.96 36.2363 1264.63C95.5783 1194 163.443 1089.18 225.745 966.909C288.046 844.635 332.959 728.118 355.22 638.594C366.352 593.824 371.805 555.86 370.96 527.324C370.537 513.056 368.541 501.198 364.928 492.041C361.319 482.893 356.122 476.5 349.32 473.034Z" stroke="#632C72" stroke-width="2"/>
<path opacity="0.37931" d="M311.422 451.401C304.344 448.541 296.11 448.813 286.837 452.091C277.557 455.372 267.298 461.645 256.252 470.687C234.161 488.77 209.087 517.792 182.602 555.566C129.641 631.099 71.1705 741.437 19.7629 868.676C-31.6446 995.914 -66.2317 1115.9 -80.6049 1207.03C-87.7928 1252.6 -89.9162 1290.89 -86.587 1319.24C-84.9223 1333.42 -81.9001 1345.06 -77.5035 1353.87C-73.1106 1362.67 -67.3765 1368.58 -60.2981 1371.44C-53.2197 1374.3 -44.9856 1374.03 -35.7133 1370.75C-26.4331 1367.47 -16.1741 1361.2 -5.1282 1352.16C16.9627 1334.07 42.0374 1305.05 68.5223 1267.28C121.483 1191.74 179.954 1081.41 231.361 954.167C282.769 826.929 317.356 706.94 331.729 615.817C338.917 570.247 341.04 531.952 337.711 503.598C336.046 489.421 333.024 477.782 328.628 468.976C324.235 460.177 318.501 454.261 311.422 451.401Z" stroke="#632C72" stroke-width="2"/>
<path opacity="0.413793" d="M272.109 433.272C264.808 431.04 256.629 432.028 247.678 436.102C238.719 440.179 229.046 447.322 218.83 457.293C198.399 477.232 175.949 508.33 152.857 548.267C106.682 628.129 58.0498 743.144 17.9273 874.378C-22.1951 1005.61 -46.1928 1128.16 -52.5695 1220.19C-55.7583 1266.21 -54.536 1304.55 -48.7482 1332.5C-45.8543 1346.48 -41.8291 1357.81 -36.6817 1366.2C-31.5387 1374.58 -25.3108 1379.98 -18.0101 1382.21C-10.7094 1384.44 -2.53035 1383.45 6.42096 1379.38C15.3799 1375.3 25.0532 1368.16 35.269 1358.19C55.6998 1338.25 78.1496 1307.15 101.242 1267.21C147.417 1187.35 196.049 1072.34 236.171 941.102C276.294 809.868 300.292 687.321 306.668 595.292C309.857 549.269 308.635 510.935 302.847 482.979C299.953 469.001 295.928 457.67 290.781 449.28C285.638 440.897 279.41 435.504 272.109 433.272Z" stroke="#632C72" stroke-width="2"/>
<path opacity="0.448276" d="M231.691 418.754C224.224 417.167 216.162 418.864 207.6 423.703C199.03 428.545 190.016 436.504 180.708 447.327C162.093 468.971 142.439 501.907 122.916 543.705C83.8764 627.288 45.4538 746.103 16.9219 880.335C-11.61 1014.57 -24.8359 1138.74 -23.1673 1230.97C-22.3329 1277.1 -17.7742 1315.18 -9.57196 1342.53C-5.47071 1356.2 -0.47329 1367.14 5.38574 1375.05C11.2398 1382.95 17.914 1387.78 25.3815 1389.37C32.8489 1390.95 40.9107 1389.25 49.4729 1384.42C58.0424 1379.57 67.0564 1371.61 76.3643 1360.79C94.9795 1339.15 114.634 1306.21 134.157 1264.41C173.196 1180.83 211.619 1062.02 240.151 927.784C268.683 793.552 281.909 669.381 280.24 577.146C279.406 531.02 274.847 492.938 266.645 465.593C262.543 451.92 257.546 440.983 251.687 433.074C245.833 425.171 239.159 420.341 231.691 418.754Z" stroke="#632C72" stroke-width="2"/>
<path opacity="0.482759" d="M190.488 407.931C182.91 407.001 175.027 409.395 166.919 414.961C158.805 420.532 150.519 429.246 142.189 440.839C125.531 464.024 108.823 498.547 93.0167 541.888C61.4103 628.555 33.4894 750.267 16.7652 886.475C0.0409473 1022.68 -2.31236 1147.53 7.38863 1239.27C12.24 1285.15 20.1005 1322.69 30.6547 1349.22C35.932 1362.48 41.8637 1372.94 48.3898 1380.31C54.9103 1387.67 61.9801 1391.9 69.5575 1392.83C77.1349 1393.76 85.018 1391.37 93.1259 1385.8C101.241 1380.23 109.527 1371.52 117.856 1359.92C134.514 1336.74 151.223 1302.21 167.029 1258.87C198.635 1172.21 226.556 1050.5 243.28 914.287C260.004 778.079 262.358 653.228 252.657 561.489C247.805 515.612 239.945 478.072 229.391 451.546C224.113 438.283 218.182 427.823 211.656 420.454C205.135 413.092 198.065 408.862 190.488 407.931Z" stroke="#632C72" stroke-width="2"/>
<path opacity="0.517241" d="M148.825 400.855C141.195 400.588 133.551 403.66 125.959 409.912C118.361 416.169 110.866 425.572 103.578 437.847C89.0046 462.395 75.3683 498.243 63.3999 542.796C39.4673 631.888 22.2605 755.57 17.4713 892.718C12.682 1029.86 21.2191 1154.45 38.8788 1244.99C47.7101 1290.27 58.8125 1326.98 71.6385 1352.49C78.0517 1365.24 84.8724 1375.14 92.0159 1381.92C99.1533 1388.68 106.565 1392.28 114.194 1392.55C121.824 1392.81 129.469 1389.74 137.061 1383.49C144.659 1377.23 152.154 1367.83 159.441 1355.55C174.015 1331.01 187.651 1295.16 199.62 1250.6C223.552 1161.51 240.759 1037.83 245.548 900.682C250.338 763.535 241.8 638.954 224.141 548.41C215.309 503.13 204.207 466.418 191.381 440.913C184.968 428.16 178.147 418.256 171.004 411.485C163.866 404.719 156.455 401.121 148.825 400.855Z" stroke="#632C72" stroke-width="2"/>
<path opacity="0.551724" d="M107.03 397.553C99.4065 397.953 92.0589 401.679 85.0407 408.569C78.0165 415.464 71.3696 425.485 65.18 438.348C52.8011 464.073 42.3411 500.973 34.3013 546.4C18.2246 637.239 11.8629 761.95 19.045 898.993C26.2272 1036.04 45.5898 1159.4 71.0737 1248.06C83.8179 1292.4 98.0777 1328 113.078 1352.29C120.578 1364.44 128.236 1373.71 135.942 1379.83C143.642 1385.95 151.339 1388.89 158.963 1388.49C166.587 1388.09 173.935 1384.36 180.953 1377.47C187.977 1370.58 194.624 1360.56 200.813 1347.69C213.192 1321.97 223.652 1285.07 231.692 1239.64C247.769 1148.8 254.13 1024.09 246.948 887.049C239.766 750.006 220.404 626.643 194.92 537.983C182.176 493.645 167.916 458.04 152.916 433.75C145.415 421.604 137.757 412.333 130.051 406.21C122.351 400.092 114.654 397.154 107.03 397.553Z" stroke="#632C72" stroke-width="2"/>
<path opacity="0.586207" d="M65.4331 398.021C57.8731 399.083 50.8782 403.436 44.4871 410.911C38.0907 418.392 32.3425 428.955 27.2974 442.308C17.2077 469.014 10.0036 506.685 5.95366 552.64C-2.1448 644.534 2.38711 769.326 21.4859 905.221C40.5848 1041.12 70.6256 1162.32 103.74 1248.42C120.3 1291.48 137.608 1325.71 154.668 1348.6C163.199 1360.05 171.636 1368.61 179.846 1374.04C188.05 1379.47 195.974 1381.72 203.534 1380.66C211.094 1379.6 218.089 1375.24 224.48 1367.77C230.876 1360.29 236.625 1349.73 241.67 1336.37C251.759 1309.67 258.963 1271.99 263.013 1226.04C271.112 1134.15 266.58 1009.35 247.481 873.459C228.382 737.564 198.341 616.358 165.227 530.256C148.667 487.197 131.359 452.971 114.299 430.081C105.768 418.635 97.3315 410.067 89.1206 404.638C80.9168 399.214 72.9931 396.959 65.4331 398.021Z" stroke="#632C72" stroke-width="2"/>
<path opacity="0.62069" d="M24.3615 402.229C16.9229 403.947 10.3339 408.892 4.6187 416.896C-1.10139 424.906 -5.90717 435.929 -9.76917 449.671C-17.4929 477.155 -21.3863 515.311 -21.4156 561.444C-21.4742 653.694 -6.08324 777.616 24.787 911.329C55.6572 1045.04 96.1475 1163.17 136.64 1246.06C156.89 1287.51 177.116 1320.1 196.106 1341.41C205.601 1352.07 214.753 1359.87 223.405 1364.56C232.051 1369.25 240.141 1370.81 247.579 1369.09C255.018 1367.37 261.607 1362.43 267.322 1354.43C273.042 1346.42 277.848 1335.39 281.71 1321.65C289.434 1294.17 293.327 1256.01 293.357 1209.88C293.415 1117.63 278.024 993.706 247.154 859.992C216.284 726.278 175.793 608.151 135.301 525.263C115.051 483.812 94.8253 451.224 75.8352 429.908C66.3398 419.25 57.1884 411.449 48.5356 406.757C39.8903 402.069 31.8001 400.512 24.3615 402.229Z" stroke="#632C72" stroke-width="2"/>
<path opacity="0.655172" d="M-15.8604 410.115C-23.1211 412.474 -29.2539 417.975 -34.2498 426.446C-39.25 434.925 -43.0768 446.325 -45.7264 460.351C-51.0254 488.404 -51.5785 526.754 -47.5869 572.714C-39.6051 664.618 -13.4722 786.727 28.9344 917.241C71.3411 1047.76 121.973 1161.9 169.535 1240.95C193.321 1280.48 216.31 1311.18 237.085 1330.76C247.474 1340.55 257.27 1347.52 266.299 1351.44C275.32 1355.36 283.515 1356.2 290.776 1353.84C298.036 1351.48 304.169 1345.98 309.165 1337.51C314.165 1329.03 317.992 1317.63 320.642 1303.61C325.941 1275.56 326.494 1237.21 322.502 1191.24C314.52 1099.34 288.387 977.232 245.981 846.718C203.574 716.204 152.942 602.055 105.38 523.012C81.5946 483.483 58.6055 452.782 37.8298 433.202C27.4416 423.412 17.6451 416.439 8.61629 412.518C-0.404734 408.602 -8.59981 407.756 -15.8604 410.115Z" stroke="#632C72" stroke-width="2"/>
<path opacity="0.689655" d="M-54.916 421.593C-61.9434 424.576 -67.5734 430.591 -71.812 439.465C-76.0542 448.347 -78.8729 460.037 -80.2899 474.241C-83.1238 502.649 -80.3323 540.901 -72.3502 586.339C-56.3889 677.197 -19.713 796.564 33.9074 922.885C87.5277 1049.21 147.915 1158.51 202.186 1233.11C229.326 1270.41 254.903 1298.99 277.307 1316.69C288.509 1325.53 298.876 1331.63 308.212 1334.74C317.54 1337.86 325.777 1337.99 332.805 1335.01C339.832 1332.02 345.462 1326.01 349.701 1317.13C353.943 1308.25 356.762 1296.56 358.179 1282.36C361.013 1253.95 358.221 1215.7 350.239 1170.26C334.278 1079.4 297.602 960.036 243.981 833.714C190.361 707.392 129.973 598.091 75.7027 523.494C48.5626 486.188 22.9853 457.608 0.582143 439.913C-10.6198 431.066 -20.9868 424.973 -30.3229 421.854C-39.651 418.739 -47.8886 418.61 -54.916 421.593Z" stroke="#632C72" stroke-width="2"/>
<path opacity="0.724138" d="M-92.4962 436.547C-99.2369 440.131 -104.321 446.614 -107.77 455.824C-111.222 465.042 -113.011 476.933 -113.185 491.206C-113.532 519.752 -107.417 557.616 -95.5056 602.185C-71.6862 691.307 -24.7464 807.022 39.6796 928.19C104.106 1049.36 173.79 1152.98 234.355 1222.56C264.644 1257.36 292.614 1283.6 316.475 1299.28C328.405 1307.12 339.264 1312.28 348.836 1314.58C358.4 1316.87 366.618 1316.28 373.358 1312.69C380.099 1309.11 385.183 1302.63 388.632 1293.41C392.084 1284.2 393.873 1272.31 394.047 1258.03C394.394 1229.49 388.279 1191.62 376.368 1147.05C352.548 1057.93 305.608 942.216 241.182 821.049C176.756 699.881 107.072 596.259 46.5067 526.676C16.2185 491.878 -11.7525 465.635 -35.6126 449.96C-47.5431 442.122 -58.4016 436.956 -67.974 434.664C-77.5381 432.373 -85.7555 432.963 -92.4962 436.547Z" stroke="#632C72" stroke-width="2"/>
<path opacity="0.758621" d="M-128.303 454.834C-134.706 458.992 -139.206 465.893 -141.839 475.369C-144.474 484.852 -145.22 496.854 -144.149 511.089C-142.007 539.557 -132.616 576.743 -116.865 620.104C-85.3684 706.811 -28.522 817.995 46.2192 933.086C120.96 1048.18 199.411 1145.33 265.811 1209.37C299.016 1241.4 329.168 1265.1 354.303 1278.64C366.872 1285.41 378.139 1289.61 387.875 1291.06C397.602 1292.51 405.737 1291.2 412.14 1287.04C418.542 1282.89 423.042 1275.98 425.676 1266.51C428.311 1257.02 429.057 1245.02 427.986 1230.79C425.844 1202.32 416.452 1165.13 400.701 1121.77C369.205 1035.07 312.359 923.882 237.617 808.791C162.876 693.7 84.4259 596.545 18.0261 532.505C-15.1797 500.479 -45.3314 476.775 -70.4668 463.239C-83.035 456.471 -94.3026 452.271 -104.038 450.821C-113.766 449.372 -121.9 450.676 -128.303 454.834Z" stroke="#632C72" stroke-width="2"/>
<path opacity="0.793103" d="M-162.054 476.289C-168.07 480.989 -171.951 488.256 -173.749 497.925C-175.547 507.602 -175.244 519.624 -172.937 533.71C-168.322 561.883 -155.725 598.11 -136.255 639.933C-97.3214 723.565 -31.001 829.371 53.4868 937.511C137.974 1045.65 224.594 1135.6 296.322 1193.61C332.193 1222.62 364.296 1243.6 390.516 1254.9C403.626 1260.54 415.216 1263.75 425.041 1264.34C434.858 1264.94 442.848 1262.93 448.864 1258.23C454.88 1253.53 458.761 1246.26 460.559 1236.59C462.358 1226.91 462.055 1214.89 459.747 1200.81C455.132 1172.63 442.535 1136.41 423.065 1094.58C384.132 1010.95 317.811 905.146 233.323 797.007C148.836 688.867 62.2165 598.92 -9.51208 540.911C-45.3827 511.901 -77.4857 490.914 -103.705 479.621C-116.815 473.974 -128.406 470.772 -138.231 470.176C-148.048 469.581 -156.038 471.589 -162.054 476.289Z" stroke="#632C72" stroke-width="2"/>
<path opacity="0.827586" d="M-193.48 500.719C-199.063 505.925 -202.296 513.503 -203.244 523.292C-204.193 533.089 -202.843 545.038 -199.317 558.87C-192.264 586.533 -176.558 621.524 -153.516 661.491C-107.442 741.411 -32.1524 841.035 61.4388 941.399C155.03 1041.76 249.159 1123.82 325.671 1175.36C363.933 1201.13 397.743 1219.24 424.847 1228.2C438.4 1232.69 450.225 1234.87 460.065 1234.6C469.896 1234.34 477.681 1231.64 483.264 1226.44C488.847 1221.23 492.081 1213.65 493.028 1203.86C493.977 1194.07 492.628 1182.12 489.101 1168.29C482.048 1140.62 466.342 1105.63 443.301 1065.66C397.226 985.744 321.937 886.121 228.345 785.756C134.754 685.392 40.6252 603.336 -35.8863 551.799C-74.1488 526.026 -107.959 507.918 -135.063 498.952C-148.615 494.469 -160.441 492.29 -170.281 492.553C-180.112 492.815 -187.896 495.512 -193.48 500.719Z" stroke="#632C72" stroke-width="2"/>
<path opacity="0.862069" d="M-222.33 527.911C-227.439 533.584 -229.999 541.415 -230.09 551.249C-230.181 561.092 -227.795 572.877 -223.077 586.35C-213.64 613.293 -194.944 646.782 -168.507 684.589C-115.642 760.189 -31.9562 852.872 70.0262 944.697C172.009 1036.52 272.931 1110.06 353.643 1154.73C394.006 1177.07 429.266 1192.17 457.048 1198.74C470.94 1202.02 482.91 1203.16 492.69 1202.04C502.461 1200.92 509.981 1197.56 515.089 1191.89C520.197 1186.21 522.758 1178.38 522.849 1168.55C522.94 1158.71 520.554 1146.92 515.835 1133.45C506.398 1106.5 487.702 1073.01 461.265 1035.21C408.401 959.608 324.715 866.925 222.733 775.1C120.75 683.274 19.8276 609.735 -60.8844 565.062C-101.248 542.722 -136.507 527.629 -164.289 521.06C-178.181 517.775 -190.152 516.634 -199.931 517.754C-209.702 518.872 -217.222 522.237 -222.33 527.911Z" stroke="#632C72" stroke-width="2"/>
<path opacity="0.896552" d="M-248.376 557.632C-252.971 563.729 -254.839 571.753 -254.073 581.558C-253.306 591.371 -249.902 602.904 -244.027 615.914C-232.277 641.932 -210.734 673.664 -181.102 709.023C-121.85 779.728 -30.4046 864.765 79.1928 947.352C188.79 1029.94 295.738 1094.4 380.036 1131.87C422.193 1150.61 458.634 1162.57 486.883 1166.69C501.008 1168.76 513.033 1168.85 522.677 1166.88C532.313 1164.92 539.511 1160.91 544.106 1154.81C548.7 1148.71 550.569 1140.69 549.802 1130.88C549.035 1121.07 545.631 1109.54 539.756 1096.53C528.007 1070.51 506.463 1038.78 476.832 1003.42C417.579 932.714 326.134 847.678 216.537 765.091C106.939 682.503 -0.00869227 618.039 -84.3071 580.571C-126.464 561.834 -162.905 549.871 -191.154 545.749C-205.279 543.687 -217.303 543.594 -226.948 545.562C-236.584 547.527 -243.782 551.535 -248.376 557.632Z" stroke="#632C72" stroke-width="2"/>
<path opacity="0.931035" d="M-271.405 589.623C-275.451 596.097 -276.613 604.253 -274.995 613.954C-273.375 623.663 -268.979 634.855 -261.993 647.303C-248.02 672.199 -223.793 701.932 -191.193 734.574C-126.003 799.846 -27.4946 876.589 88.8837 949.31C205.262 1022.03 317.421 1076.93 404.664 1106.91C448.294 1121.9 485.639 1130.64 514.139 1132.28C528.39 1133.11 540.377 1132.15 549.814 1129.35C559.242 1126.55 566.063 1121.93 570.109 1115.46C574.154 1108.98 575.316 1100.83 573.698 1091.13C572.079 1081.42 567.683 1070.23 560.696 1057.78C546.724 1032.88 522.496 1003.15 489.896 970.508C424.707 905.236 326.198 828.493 209.82 755.772C93.4415 683.05 -18.7179 628.153 -105.961 598.175C-149.59 583.183 -186.935 574.442 -215.436 572.797C-229.687 571.975 -241.674 572.93 -251.11 575.73C-260.538 578.528 -267.36 583.148 -271.405 589.623Z" stroke="#632C72" stroke-width="2"/>
<path opacity="0.965517" d="M-291.232 623.615C-294.698 630.418 -295.145 638.644 -292.688 648.167C-290.228 657.698 -284.873 668.464 -276.828 680.256C-260.739 703.839 -234.013 731.348 -198.692 761.024C-128.062 820.366 -23.2392 888.231 99.0344 950.533C221.308 1012.83 337.825 1057.75 427.349 1080.01C472.119 1091.14 510.083 1096.59 538.619 1095.75C552.888 1095.32 564.746 1093.33 573.902 1089.72C583.05 1086.11 589.443 1080.91 592.909 1074.11C596.375 1067.31 596.822 1059.08 594.364 1049.56C591.905 1040.03 586.55 1029.26 578.505 1017.47C562.416 993.884 535.69 966.376 500.368 936.699C429.738 877.357 324.916 809.492 202.642 747.191C80.3688 684.889 -36.1484 639.976 -125.672 617.716C-170.442 606.583 -208.407 601.13 -236.943 601.976C-251.211 602.399 -263.069 604.395 -272.225 608.007C-281.374 611.616 -287.767 616.813 -291.232 623.615Z" stroke="#632C72" stroke-width="2"/>
<path d="M-307.695 659.32C-310.555 666.399 -310.283 674.633 -307.005 683.905C-303.724 693.185 -297.451 703.445 -288.409 714.49C-270.326 736.581 -241.304 761.656 -203.53 788.141C-127.997 841.101 -17.6587 899.572 109.579 950.98C236.818 1002.39 356.806 1036.97 447.929 1051.35C493.499 1058.54 531.794 1060.66 560.148 1057.33C574.325 1055.66 585.964 1052.64 594.771 1048.25C603.57 1043.85 609.485 1038.12 612.345 1031.04C615.205 1023.96 614.933 1015.73 611.655 1006.46C608.374 997.176 602.101 986.917 593.059 975.871C574.976 953.78 545.954 928.705 508.181 902.22C432.647 849.26 322.309 790.789 195.071 739.381C67.8325 687.974 -52.1557 653.387 -143.279 639.014C-188.849 631.826 -227.144 629.702 -255.498 633.032C-269.675 634.696 -281.314 637.718 -290.121 642.115C-298.92 646.508 -304.835 652.242 -307.695 659.32Z" stroke="#632C72" stroke-width="2"/>
</g>
<g opacity="0.45">
<g filter="url(#filter0_f_115_190)">
<ellipse cx="118.015" cy="222.903" rx="118.015" ry="222.903" transform="matrix(0.0517148 0.998662 0.998425 -0.0561009 21 439.026)" fill="url(#paint0_linear_115_190)"/>
</g>
<g filter="url(#filter1_f_115_190)">
<rect width="113.409" height="303.91" transform="matrix(0.0517148 0.998662 0.998425 -0.0561009 229.896 488.694)" fill="url(#paint1_linear_115_190)"/>
</g>
</g>
<g filter="url(#filter2_f_115_190)">
<path d="M437 215C437 242.614 414.614 265 387 265C359.386 265 337 242.614 337 215C337 187.386 359.386 165 387 165C414.614 165 437 187.386 437 215Z" fill="#FF00FD" fill-opacity="0.69"/>
</g>
<g opacity="0.5">
<path opacity="0.0344828" d="M1743.56 115.905C1741.2 108.644 1735.7 102.511 1727.23 97.5153C1718.75 92.5151 1707.35 88.6883 1693.32 86.0388C1665.27 80.7398 1626.92 80.1867 1580.96 84.1783C1489.05 92.16 1366.95 118.293 1236.43 160.7C1105.92 203.106 991.769 253.738 912.726 301.3C873.197 325.086 842.496 348.075 822.916 368.851C813.126 379.239 806.152 389.035 802.232 398.064C798.315 407.085 797.47 415.28 799.829 422.541C802.188 429.801 807.689 435.934 816.16 440.93C824.639 445.93 836.039 449.757 850.065 452.407C878.117 457.706 916.468 458.259 962.428 454.267C1054.33 446.285 1176.44 420.153 1306.95 377.746C1437.47 335.339 1551.62 284.708 1630.66 237.145C1670.19 213.36 1700.89 190.371 1720.47 169.595C1730.26 159.207 1737.23 149.41 1741.15 140.381C1745.07 131.36 1745.92 123.165 1743.56 115.905Z" stroke="#632C72" stroke-width="2"/>
<path opacity="0.0689655" d="M1729.89 71.6836C1726.9 64.6562 1720.89 59.0262 1712.01 54.7876C1703.13 50.5454 1691.44 47.7267 1677.24 46.3097C1648.83 43.4758 1610.58 46.2673 1565.14 54.2494C1474.28 70.2107 1354.92 106.887 1228.59 160.507C1102.27 214.127 992.971 274.515 918.374 328.786C881.069 355.926 852.488 381.503 834.794 403.906C825.946 415.108 819.853 425.475 816.735 434.811C813.619 444.139 813.491 452.377 816.474 459.404C819.456 466.432 825.471 472.062 834.346 476.3C843.228 480.543 854.917 483.361 869.122 484.778C897.529 487.612 935.781 484.821 981.219 476.839C1072.08 460.877 1191.44 424.201 1317.77 370.581C1444.09 316.961 1553.39 256.573 1627.99 202.302C1665.29 175.162 1693.87 149.585 1711.57 127.182C1720.41 115.98 1726.51 105.613 1729.63 96.2767C1732.74 86.9486 1732.87 78.711 1729.89 71.6836Z" stroke="#632C72" stroke-width="2"/>
<path opacity="0.103448" d="M1712.74 28.9363C1709.16 22.1956 1702.67 17.1112 1693.46 13.6622C1684.24 10.2103 1672.35 8.42117 1658.08 8.24754C1629.53 7.90028 1591.67 14.015 1547.1 25.9269C1457.98 49.7463 1342.26 96.6861 1221.1 161.112C1099.93 225.538 996.307 295.222 926.723 355.788C891.925 386.076 865.683 414.047 850.008 437.907C842.17 449.838 837.004 460.696 834.711 470.268C832.42 479.833 833.01 488.05 836.594 494.791C840.179 501.531 846.661 506.616 855.871 510.065C865.089 513.517 876.98 515.306 891.254 515.479C919.8 515.827 957.664 509.712 1002.23 497.8C1091.35 473.981 1207.07 427.041 1328.24 362.615C1449.4 298.189 1553.03 228.505 1622.61 167.939C1657.41 137.651 1683.65 109.68 1699.33 85.8199C1707.16 73.8894 1712.33 63.0309 1714.62 53.4585C1716.91 43.8944 1716.32 35.677 1712.74 28.9363Z" stroke="#632C72" stroke-width="2"/>
<path opacity="0.137931" d="M1692.26 -12.0383C1688.1 -18.4409 1681.2 -22.941 1671.72 -25.5742C1662.24 -28.2096 1650.24 -28.9555 1636 -27.8844C1607.54 -25.7424 1570.35 -16.3509 1526.99 -0.599983C1440.28 30.8963 1329.1 87.7428 1214.01 162.484C1098.91 237.225 1001.76 315.676 937.72 382.075C905.695 415.281 881.99 445.433 868.454 470.568C861.686 483.136 857.486 494.404 856.036 504.14C854.588 513.867 855.892 522.002 860.05 528.404C864.207 534.807 871.109 539.307 880.584 541.94C890.068 544.576 902.07 545.322 916.304 544.251C944.772 542.109 981.958 532.717 1025.32 516.966C1112.03 485.47 1223.21 428.623 1338.3 353.882C1453.39 279.141 1550.55 200.691 1614.59 134.291C1646.61 101.085 1670.32 70.9334 1683.85 45.7979C1690.62 33.2297 1694.82 21.9622 1696.27 12.2265C1697.72 2.4991 1696.42 -5.63564 1692.26 -12.0383Z" stroke="#632C72" stroke-width="2"/>
<path opacity="0.172414" d="M1668.61 -50.9557C1663.91 -56.9716 1656.64 -60.8531 1646.97 -62.6504C1637.3 -64.4492 1625.28 -64.1463 1611.19 -61.8387C1583.02 -57.2237 1546.79 -44.6269 1504.97 -25.1567C1421.33 13.7767 1315.53 80.0972 1207.39 164.585C1099.25 249.073 1009.3 335.692 951.293 407.42C922.283 443.291 901.296 475.394 890.003 501.614C884.356 514.724 881.154 526.315 880.558 536.14C879.963 545.956 881.971 553.946 886.671 559.962C891.371 565.978 898.638 569.86 908.307 571.657C917.984 573.456 930.005 573.153 944.092 570.845C972.265 566.23 1008.49 553.633 1050.31 534.163C1133.95 495.23 1239.75 428.909 1347.89 344.422C1456.03 259.934 1545.98 173.315 1603.99 101.586C1633 65.7154 1653.98 33.6124 1665.28 7.39291C1670.93 -5.71733 1674.13 -17.308 1674.72 -27.1331C1675.32 -36.9497 1673.31 -44.9398 1668.61 -50.9557Z" stroke="#632C72" stroke-width="2"/>
<path opacity="0.206897" d="M1641.99 -87.549C1636.78 -93.1323 1629.2 -96.3657 1619.41 -97.3134C1609.62 -98.262 1597.67 -96.9125 1583.84 -93.3859C1556.17 -86.333 1521.18 -70.6269 1481.21 -47.5856C1401.29 -1.51136 1301.67 73.7784 1201.31 167.37C1100.94 260.961 1018.89 355.09 967.349 431.601C941.576 469.864 923.467 503.674 914.502 530.778C910.019 544.33 907.839 556.156 908.102 565.996C908.365 575.827 911.062 583.611 916.268 589.195C921.475 594.778 929.052 598.012 938.841 598.959C948.638 599.908 960.587 598.558 974.42 595.032C1002.08 587.979 1037.07 572.273 1077.04 549.231C1156.96 503.157 1256.58 427.867 1356.95 334.276C1457.31 240.685 1539.37 146.556 1590.91 70.0445C1616.68 31.782 1634.79 -2.02794 1643.75 -29.132C1648.24 -42.6845 1650.42 -54.5102 1650.15 -64.3498C1649.89 -74.1809 1647.19 -81.9656 1641.99 -87.549Z" stroke="#632C72" stroke-width="2"/>
<path opacity="0.241379" d="M1612.6 -121.568C1606.93 -126.676 1599.1 -129.237 1589.26 -129.328C1579.42 -129.419 1567.64 -127.033 1554.16 -122.315C1527.22 -112.877 1493.73 -94.1815 1455.92 -67.7445C1380.32 -14.8801 1287.64 68.8059 1195.82 170.788C1103.99 272.771 1030.45 373.693 985.779 454.405C963.439 494.768 948.346 530.028 941.777 557.81C938.492 571.702 937.351 583.673 938.471 593.452C939.589 603.223 942.954 610.743 948.627 615.851C954.301 620.959 962.131 623.52 971.966 623.611C981.808 623.702 993.594 621.316 1007.07 616.597C1034.01 607.16 1067.5 588.464 1105.31 562.027C1180.91 509.163 1273.59 425.477 1365.41 323.495C1457.24 221.512 1530.78 120.59 1575.45 39.8777C1597.79 -0.485506 1612.88 -35.745 1619.45 -63.5273C1622.74 -77.419 1623.88 -89.3896 1622.76 -99.1689C1621.64 -108.94 1618.28 -116.46 1612.6 -121.568Z" stroke="#632C72" stroke-width="2"/>
<path opacity="0.275862" d="M1580.69 -152.778C1574.59 -157.372 1566.57 -159.24 1556.76 -158.474C1546.95 -157.707 1535.42 -154.303 1522.41 -148.428C1496.39 -136.678 1464.66 -115.135 1429.3 -85.5034C1358.59 -26.2512 1273.56 65.1942 1190.97 174.792C1108.38 284.389 1043.92 391.337 1006.45 475.635C987.714 517.792 975.751 554.233 971.628 582.482C969.567 596.607 969.474 608.632 971.441 618.276C973.407 627.912 977.415 635.11 983.512 639.705C989.609 644.299 997.633 646.167 1007.44 645.401C1017.25 644.634 1028.78 641.23 1041.79 635.355C1067.81 623.606 1099.54 602.062 1134.9 572.431C1205.61 513.178 1290.64 421.733 1373.23 312.136C1455.82 202.538 1520.28 95.5902 1557.75 11.2918C1576.49 -30.8649 1588.45 -67.3057 1592.57 -95.5548C1594.63 -109.68 1594.73 -121.704 1592.76 -131.349C1590.79 -140.985 1586.79 -148.183 1580.69 -152.778Z" stroke="#632C72" stroke-width="2"/>
<path opacity="0.310345" d="M1546.51 -180.974C1540.03 -185.019 1531.88 -186.181 1522.17 -184.563C1512.47 -182.943 1501.27 -178.547 1488.83 -171.561C1463.93 -157.589 1434.2 -133.361 1401.55 -100.761C1336.28 -35.5717 1259.54 62.9371 1186.82 179.315C1114.1 295.694 1059.2 407.853 1029.22 495.096C1014.23 538.726 1005.49 576.07 1003.84 604.571C1003.02 618.822 1003.98 630.809 1006.78 640.245C1009.58 649.674 1014.2 656.495 1020.67 660.541C1027.14 664.586 1035.3 665.748 1045 664.13C1054.71 662.51 1065.9 658.114 1078.35 651.128C1103.25 637.156 1132.98 612.928 1165.62 580.328C1230.89 515.139 1307.64 416.63 1380.36 300.252C1453.08 183.873 1507.98 71.7139 1537.95 -15.5293C1552.95 -59.1586 1561.69 -96.5033 1563.33 -125.004C1564.15 -139.255 1563.2 -151.242 1560.4 -160.678C1557.6 -170.107 1552.98 -176.928 1546.51 -180.974Z" stroke="#632C72" stroke-width="2"/>
<path opacity="0.344828" d="M1510.32 -205.968C1503.52 -209.433 1495.29 -209.88 1485.77 -207.423C1476.24 -204.963 1465.47 -199.608 1453.68 -191.563C1430.1 -175.474 1402.59 -148.748 1372.91 -113.427C1313.57 -42.7968 1245.7 62.0257 1183.4 184.299C1121.1 306.573 1076.19 423.09 1053.93 512.614C1042.8 557.384 1037.34 595.348 1038.19 623.884C1038.61 638.153 1040.61 650.011 1044.22 659.167C1047.83 668.315 1053.03 674.708 1059.83 678.174C1066.63 681.64 1074.86 682.087 1084.38 679.629C1093.91 677.17 1104.68 671.815 1116.47 663.77C1140.05 647.681 1167.56 620.954 1197.24 585.633C1256.58 515.003 1324.44 410.181 1386.75 287.907C1449.05 165.634 1493.96 49.1165 1516.22 -40.4074C1527.35 -85.1773 1532.81 -123.142 1531.96 -151.678C1531.54 -165.946 1529.54 -177.804 1525.93 -186.96C1522.32 -196.109 1517.12 -202.502 1510.32 -205.968Z" stroke="#632C72" stroke-width="2"/>
<path opacity="0.37931" d="M1472.42 -227.598C1465.34 -230.458 1457.11 -230.186 1447.84 -226.908C1438.56 -223.627 1428.3 -217.354 1417.25 -208.313C1395.16 -190.229 1370.09 -161.207 1343.6 -123.434C1290.64 -47.9006 1232.17 62.4379 1180.76 189.676C1129.36 316.914 1094.77 436.903 1080.39 528.026C1073.21 573.596 1071.08 611.891 1074.41 640.245C1076.08 654.422 1079.1 666.061 1083.5 674.867C1087.89 683.666 1093.62 689.582 1100.7 692.442C1107.78 695.302 1116.01 695.03 1125.29 691.752C1134.57 688.471 1144.83 682.198 1155.87 673.156C1177.96 655.073 1203.04 626.051 1229.52 588.277C1282.48 512.744 1340.95 402.406 1392.36 275.167C1443.77 147.929 1478.36 27.941 1492.73 -63.1824C1499.92 -108.752 1502.04 -147.047 1498.71 -175.401C1497.05 -189.578 1494.02 -201.217 1489.63 -210.024C1485.23 -218.823 1479.5 -224.738 1472.42 -227.598Z" stroke="#632C72" stroke-width="2"/>
<path opacity="0.413793" d="M1433.11 -245.728C1425.81 -247.96 1417.63 -246.971 1408.68 -242.898C1399.72 -238.82 1390.05 -231.677 1379.83 -221.707C1359.4 -201.767 1336.95 -170.67 1313.86 -130.732C1267.68 -50.8707 1219.05 64.144 1178.93 195.378C1138.8 326.613 1114.81 449.159 1108.43 541.188C1105.24 587.211 1106.46 625.546 1112.25 653.501C1115.15 667.48 1119.17 678.811 1124.32 687.201C1129.46 695.583 1135.69 700.977 1142.99 703.209C1150.29 705.441 1158.47 704.452 1167.42 700.379C1176.38 696.301 1186.05 689.158 1196.27 679.188C1216.7 659.248 1239.15 628.151 1262.24 588.213C1308.42 508.352 1357.05 393.337 1397.17 262.102C1437.29 130.868 1461.29 8.32184 1467.67 -83.7075C1470.86 -129.73 1469.63 -168.065 1463.85 -196.02C1460.95 -209.999 1456.93 -221.33 1451.78 -229.72C1446.64 -238.103 1440.41 -243.496 1433.11 -245.728Z" stroke="#632C72" stroke-width="2"/>
<path opacity="0.448276" d="M1392.69 -260.246C1385.22 -261.833 1377.16 -260.135 1368.6 -255.297C1360.03 -250.454 1351.02 -242.495 1341.71 -231.673C1323.09 -210.028 1303.44 -177.093 1283.92 -135.294C1244.88 -51.7119 1206.45 67.1037 1177.92 201.336C1149.39 335.568 1136.16 459.739 1137.83 551.974C1138.67 598.099 1143.23 636.182 1151.43 663.526C1155.53 677.199 1160.53 688.136 1166.39 696.046C1172.24 703.948 1178.91 708.778 1186.38 710.366C1193.85 711.953 1201.91 710.255 1210.47 705.417C1219.04 700.574 1228.06 692.615 1237.36 681.793C1255.98 660.148 1275.63 627.213 1295.16 585.414C1334.2 501.832 1372.62 383.016 1401.15 248.784C1429.68 114.552 1442.91 -9.61888 1441.24 -101.854C1440.41 -147.979 1435.85 -186.062 1427.64 -213.406C1423.54 -227.079 1418.55 -238.016 1412.69 -245.926C1406.83 -253.828 1400.16 -258.658 1392.69 -260.246Z" stroke="#632C72" stroke-width="2"/>
<path opacity="0.482759" d="M1351.49 -271.068C1343.91 -271.998 1336.03 -269.605 1327.92 -264.038C1319.8 -258.467 1311.52 -249.753 1303.19 -238.16C1286.53 -214.976 1269.82 -180.453 1254.02 -137.112C1222.41 -50.445 1194.49 71.2672 1177.77 207.475C1161.04 343.683 1158.69 468.535 1168.39 560.273C1173.24 606.15 1181.1 643.69 1191.65 670.216C1196.93 683.48 1202.86 693.94 1209.39 701.308C1215.91 708.671 1222.98 712.9 1230.56 713.831C1238.13 714.761 1246.02 712.367 1254.13 706.801C1262.24 701.23 1270.53 692.516 1278.86 680.923C1295.51 657.739 1312.22 623.215 1328.03 579.874C1359.63 493.208 1387.56 371.496 1404.28 235.288C1421 99.0798 1423.36 -25.7717 1413.66 -117.51C1408.81 -163.388 1400.94 -200.928 1390.39 -227.453C1385.11 -240.717 1379.18 -251.177 1372.66 -258.545C1366.13 -265.908 1359.07 -270.138 1351.49 -271.068Z" stroke="#632C72" stroke-width="2"/>
<path opacity="0.517241" d="M1309.82 -278.145C1302.2 -278.411 1294.55 -275.339 1286.96 -269.088C1279.36 -262.831 1271.87 -253.427 1264.58 -241.153C1250 -216.605 1236.37 -180.757 1224.4 -136.203C1200.47 -47.1116 1183.26 76.571 1178.47 213.718C1173.68 350.865 1182.22 475.447 1199.88 565.991C1208.71 611.271 1219.81 647.983 1232.64 673.488C1239.05 686.241 1245.87 696.144 1253.02 702.916C1260.15 709.682 1267.56 713.279 1275.19 713.546C1282.82 713.812 1290.47 710.74 1298.06 704.489C1305.66 698.232 1313.15 688.828 1320.44 676.554C1335.01 652.006 1348.65 616.158 1360.62 571.604C1384.55 482.513 1401.76 358.83 1406.55 221.683C1411.34 84.5356 1402.8 -40.0459 1385.14 -130.59C1376.31 -175.87 1365.21 -212.582 1352.38 -238.087C1345.97 -250.84 1339.15 -260.743 1332 -267.515C1324.87 -274.281 1317.45 -277.878 1309.82 -278.145Z" stroke="#632C72" stroke-width="2"/>
<path opacity="0.551724" d="M1268.03 -281.446C1260.41 -281.047 1253.06 -277.32 1246.04 -270.431C1239.02 -263.535 1232.37 -253.515 1226.18 -240.652C1213.8 -214.927 1203.34 -178.027 1195.3 -132.599C1179.22 -41.761 1172.86 82.9505 1180.04 219.993C1187.23 357.036 1206.59 480.399 1232.07 569.06C1244.82 613.398 1259.08 649.002 1274.08 673.292C1281.58 685.438 1289.24 694.709 1296.94 700.832C1304.64 706.951 1312.34 709.889 1319.96 709.489C1327.59 709.089 1334.93 705.363 1341.95 698.474C1348.98 691.578 1355.62 681.557 1361.81 668.694C1374.19 642.969 1384.65 606.069 1392.69 560.642C1408.77 469.804 1415.13 345.092 1407.95 208.049C1400.77 71.0066 1381.4 -52.3568 1355.92 -141.017C1343.18 -185.355 1328.92 -220.96 1313.92 -245.25C1306.42 -257.395 1298.76 -266.666 1291.05 -272.79C1283.35 -278.908 1275.65 -281.846 1268.03 -281.446Z" stroke="#632C72" stroke-width="2"/>
<path opacity="0.586207" d="M1226.43 -280.979C1218.87 -279.916 1211.88 -275.563 1205.49 -268.088C1199.09 -260.607 1193.34 -250.045 1188.3 -236.692C1178.21 -209.986 1171 -172.314 1166.95 -126.359C1158.85 -34.4653 1163.39 90.3261 1182.49 226.221C1201.58 362.117 1231.63 483.323 1264.74 569.425C1281.3 612.483 1298.61 646.71 1315.67 669.6C1324.2 681.046 1332.64 689.614 1340.85 695.042C1349.05 700.466 1356.97 702.722 1364.53 701.66C1372.09 700.597 1379.09 696.245 1385.48 688.77C1391.88 681.288 1397.62 670.726 1402.67 657.373C1412.76 630.667 1419.96 592.995 1424.01 547.04C1432.11 455.147 1427.58 330.355 1408.48 194.46C1389.38 58.5646 1359.34 -62.6418 1326.23 -148.744C1309.67 -191.802 1292.36 -226.028 1275.3 -248.919C1266.77 -260.364 1258.33 -268.933 1250.12 -274.361C1241.92 -279.785 1233.99 -282.041 1226.43 -280.979Z" stroke="#632C72" stroke-width="2"/>
<path opacity="0.62069" d="M1185.36 -276.77C1177.92 -275.053 1171.33 -270.107 1165.62 -262.104C1159.9 -254.093 1155.09 -243.07 1151.23 -229.328C1143.51 -201.844 1139.61 -163.688 1139.58 -117.555C1139.53 -25.3053 1154.92 98.6163 1185.79 232.33C1216.66 366.044 1257.15 484.17 1297.64 567.058C1317.89 608.51 1338.12 641.097 1357.11 662.414C1366.6 673.072 1375.75 680.873 1384.4 685.565C1393.05 690.253 1401.14 691.81 1408.58 690.093C1416.02 688.375 1422.61 683.43 1428.32 675.426C1434.04 667.416 1438.85 656.393 1442.71 642.65C1450.43 615.167 1454.33 577.011 1454.36 530.878C1454.41 438.628 1439.02 314.706 1408.15 180.992C1377.28 47.2789 1336.79 -70.848 1296.3 -153.736C1276.05 -195.188 1255.83 -227.775 1236.83 -249.091C1227.34 -259.75 1218.19 -267.55 1209.54 -272.243C1200.89 -276.931 1192.8 -278.488 1185.36 -276.77Z" stroke="#632C72" stroke-width="2"/>
<path opacity="0.655172" d="M1145.14 -268.885C1137.88 -266.526 1131.75 -261.024 1126.75 -252.553C1121.75 -244.075 1117.92 -232.675 1115.27 -218.648C1109.97 -190.596 1109.42 -152.246 1113.41 -106.286C1121.39 -14.3817 1147.53 107.727 1189.93 238.241C1232.34 368.755 1282.97 482.904 1330.54 561.947C1354.32 601.476 1377.31 632.177 1398.09 651.757C1408.47 661.547 1418.27 668.521 1427.3 672.441C1436.32 676.358 1444.51 677.203 1451.78 674.844C1459.04 672.485 1465.17 666.984 1470.16 658.513C1475.17 650.034 1478.99 638.635 1481.64 624.608C1486.94 596.556 1487.49 558.206 1483.5 512.245C1475.52 420.341 1449.39 298.233 1406.98 167.718C1364.57 37.2042 1313.94 -76.9442 1266.38 -155.988C1242.59 -195.517 1219.61 -226.217 1198.83 -245.797C1188.44 -255.588 1178.64 -262.561 1169.62 -266.481C1160.6 -270.398 1152.4 -271.244 1145.14 -268.885Z" stroke="#632C72" stroke-width="2"/>
<path opacity="0.689655" d="M1106.08 -257.406C1099.06 -254.423 1093.43 -248.409 1089.19 -239.534C1084.95 -230.652 1082.13 -218.962 1080.71 -204.758C1077.88 -176.351 1080.67 -138.098 1088.65 -92.661C1104.61 -1.80239 1141.29 117.564 1194.91 243.886C1248.53 370.207 1308.92 479.508 1363.19 554.106C1390.33 591.411 1415.9 619.991 1438.31 637.686C1449.51 646.534 1459.88 652.627 1469.21 655.745C1478.54 658.861 1486.78 658.989 1493.8 656.006C1500.83 653.023 1506.46 647.009 1510.7 638.134C1514.94 629.252 1517.76 617.562 1519.18 603.358C1522.01 574.951 1519.22 536.698 1511.24 491.261C1495.28 400.402 1458.6 281.036 1404.98 154.714C1351.36 28.3928 1290.97 -80.9084 1236.7 -155.506C1209.56 -192.811 1183.99 -221.391 1161.58 -239.086C1150.38 -247.934 1140.01 -254.027 1130.68 -257.145C1121.35 -260.261 1113.11 -260.389 1106.08 -257.406Z" stroke="#632C72" stroke-width="2"/>
<path opacity="0.724138" d="M1068.5 -242.453C1061.76 -238.869 1056.68 -232.386 1053.23 -223.176C1049.78 -213.958 1047.99 -202.067 1047.81 -187.793C1047.47 -159.247 1053.58 -121.384 1065.49 -76.8147C1089.31 12.3071 1136.25 128.023 1200.68 249.19C1265.11 370.358 1334.79 473.98 1395.35 543.564C1425.64 578.361 1453.61 604.604 1477.47 620.279C1489.4 628.117 1500.26 633.283 1509.84 635.576C1519.4 637.866 1527.62 637.276 1534.36 633.692C1541.1 630.108 1546.18 623.626 1549.63 614.415C1553.08 605.198 1554.87 593.307 1555.05 579.033C1555.39 550.487 1549.28 512.623 1537.37 468.054C1513.55 378.932 1466.61 263.217 1402.18 142.049C1337.76 20.8817 1268.07 -82.7405 1207.51 -152.324C1177.22 -187.122 1149.25 -213.364 1125.39 -229.039C1113.46 -236.877 1102.6 -242.043 1093.03 -244.336C1083.46 -246.627 1075.24 -246.037 1068.5 -242.453Z" stroke="#632C72" stroke-width="2"/>
<path opacity="0.758621" d="M1032.7 -224.165C1026.29 -220.007 1021.79 -213.106 1019.16 -203.631C1016.53 -194.147 1015.78 -182.145 1016.85 -167.911C1018.99 -139.443 1028.38 -102.257 1044.13 -58.8955C1075.63 27.8111 1132.48 138.995 1207.22 254.087C1281.96 369.178 1360.41 466.333 1426.81 530.373C1460.02 562.398 1490.17 586.103 1515.3 599.639C1527.87 606.407 1539.14 610.607 1548.87 612.057C1558.6 613.505 1566.74 612.201 1573.14 608.043C1579.54 603.886 1584.04 596.985 1586.68 587.509C1589.31 578.025 1590.06 566.024 1588.99 551.789C1586.84 523.321 1577.45 486.135 1561.7 442.774C1530.2 356.067 1473.36 244.883 1398.62 129.791C1323.88 14.6999 1245.43 -82.4546 1179.03 -146.495C1145.82 -178.52 1115.67 -202.225 1090.53 -215.761C1077.96 -222.529 1066.7 -226.729 1056.96 -228.179C1047.23 -229.627 1039.1 -228.323 1032.7 -224.165Z" stroke="#632C72" stroke-width="2"/>
<path opacity="0.793103" d="M998.946 -202.711C992.93 -198.01 989.049 -190.743 987.251 -181.074C985.453 -171.397 985.755 -159.376 988.063 -145.289C992.678 -117.116 1005.27 -80.8897 1024.75 -39.0665C1063.68 44.5652 1130 150.372 1214.49 258.511C1298.97 366.65 1385.59 456.598 1457.32 514.607C1493.19 543.617 1525.3 564.603 1551.52 575.897C1564.63 581.544 1576.22 584.746 1586.04 585.342C1595.86 585.937 1603.85 583.929 1609.86 579.229C1615.88 574.529 1619.76 567.262 1621.56 557.593C1623.36 547.915 1623.05 535.894 1620.75 521.807C1616.13 493.635 1603.54 457.408 1584.06 415.585C1545.13 331.953 1478.81 226.147 1394.32 118.007C1309.84 9.86791 1223.22 -80.0795 1151.49 -138.089C1115.62 -167.099 1083.51 -188.085 1057.29 -199.379C1044.18 -205.026 1032.59 -208.228 1022.77 -208.824C1012.95 -209.419 1004.96 -207.411 998.946 -202.711Z" stroke="#632C72" stroke-width="2"/>
<path opacity="0.827586" d="M967.52 -178.281C961.937 -173.074 958.703 -165.497 957.755 -155.708C956.807 -145.911 958.156 -133.962 961.683 -120.129C968.736 -92.466 984.442 -57.4753 1007.48 -17.5081C1053.56 62.412 1128.85 162.036 1222.44 262.4C1316.03 362.764 1410.16 444.82 1486.67 496.357C1524.93 522.13 1558.74 540.239 1585.85 549.204C1599.4 553.687 1611.22 555.867 1621.06 555.604C1630.9 555.341 1638.68 552.644 1644.26 547.438C1649.85 542.231 1653.08 534.654 1654.03 524.865C1654.98 515.068 1653.63 503.119 1650.1 489.286C1643.05 461.623 1627.34 426.632 1604.3 386.665C1558.23 306.745 1482.94 207.121 1389.35 106.757C1295.75 6.39272 1201.62 -75.663 1125.11 -127.2C1086.85 -152.973 1053.04 -171.082 1025.94 -180.047C1012.38 -184.53 1000.56 -186.71 990.719 -186.447C980.888 -186.184 973.103 -183.488 967.52 -178.281Z" stroke="#632C72" stroke-width="2"/>
<path opacity="0.862069" d="M938.67 -151.089C933.561 -145.415 931.001 -137.585 930.91 -127.751C930.819 -117.908 933.205 -106.122 937.923 -92.6499C947.36 -65.7064 966.056 -32.2177 992.493 5.58919C1045.36 81.1895 1129.04 173.872 1231.03 265.698C1333.01 357.523 1433.93 431.062 1514.64 475.735C1555.01 498.075 1590.27 513.168 1618.05 519.737C1631.94 523.022 1643.91 524.163 1653.69 523.043C1663.46 521.925 1670.98 518.56 1676.09 512.886C1681.2 507.213 1683.76 499.382 1683.85 489.548C1683.94 479.706 1681.55 467.92 1676.84 454.447C1667.4 427.504 1648.7 394.015 1622.27 356.208C1569.4 280.608 1485.71 187.925 1383.73 96.1C1281.75 4.27467 1180.83 -69.2649 1100.12 -113.937C1059.75 -136.278 1024.49 -151.371 996.71 -157.94C982.819 -161.224 970.848 -162.365 961.069 -161.246C951.298 -160.127 943.778 -156.762 938.67 -151.089Z" stroke="#632C72" stroke-width="2"/>
<path opacity="0.896552" d="M912.625 -121.37C908.03 -115.273 906.162 -107.25 906.928 -97.4448C907.695 -87.6316 911.099 -76.0986 916.974 -63.0889C928.724 -37.0704 950.267 -5.33864 979.899 30.0203C1039.15 100.725 1130.6 185.762 1240.19 268.349C1349.79 350.937 1456.74 415.401 1541.04 452.869C1583.19 471.606 1619.63 483.569 1647.88 487.691C1662.01 489.753 1674.03 489.846 1683.68 487.878C1693.31 485.912 1700.51 481.905 1705.11 475.808C1709.7 469.711 1711.57 461.687 1710.8 451.882C1710.04 442.069 1706.63 430.536 1700.76 417.526C1689.01 391.508 1667.46 359.776 1637.83 324.417C1578.58 253.712 1487.14 168.675 1377.54 86.0879C1267.94 3.50035 1160.99 -60.9635 1076.69 -98.4314C1034.54 -117.169 998.096 -129.131 969.847 -133.254C955.722 -135.315 943.698 -135.408 934.053 -133.441C924.417 -131.475 917.219 -127.468 912.625 -121.37Z" stroke="#632C72" stroke-width="2"/>
<path opacity="0.931035" d="M889.596 -89.38C885.55 -82.9058 884.388 -74.7496 886.006 -65.0489C887.626 -55.34 892.022 -44.1475 899.008 -31.6993C912.981 -6.80391 937.208 22.9295 969.808 55.5713C1035 120.843 1133.51 197.586 1249.88 270.307C1366.26 343.029 1478.42 397.926 1565.67 427.904C1609.29 442.896 1646.64 451.637 1675.14 453.282C1689.39 454.104 1701.38 453.149 1710.81 450.349C1720.24 447.55 1727.06 442.931 1731.11 436.456C1735.16 429.982 1736.32 421.826 1734.7 412.125C1733.08 402.416 1728.68 391.224 1721.7 378.776C1707.72 353.88 1683.5 324.147 1650.9 291.505C1585.71 226.233 1487.2 149.49 1370.82 76.7691C1254.44 4.04781 1142.28 -50.8496 1055.04 -80.8278C1011.41 -95.8196 974.066 -104.561 945.565 -106.206C931.314 -107.028 919.327 -106.073 909.891 -103.272C900.463 -100.474 893.641 -95.8543 889.596 -89.38Z" stroke="#632C72" stroke-width="2"/>
<path opacity="0.965517" d="M869.769 -55.3872C866.303 -48.585 865.856 -40.3585 868.313 -30.8358C870.773 -21.305 876.128 -10.5382 884.173 1.25367C900.262 24.8366 926.988 52.3453 962.309 82.0216C1032.94 141.364 1137.76 209.229 1260.04 271.53C1382.31 333.832 1498.83 378.745 1588.35 401.005C1633.12 412.137 1671.08 417.59 1699.62 416.745C1713.89 416.322 1725.75 414.326 1734.9 410.714C1744.05 407.104 1750.44 401.908 1753.91 395.105C1757.38 388.303 1757.82 380.077 1755.37 370.554C1752.91 361.023 1747.55 350.256 1739.51 338.465C1723.42 314.882 1696.69 287.373 1661.37 257.697C1590.74 198.355 1485.92 130.49 1363.64 68.1881C1241.37 5.88665 1124.85 -39.0265 1035.33 -61.2869C990.559 -72.4192 952.594 -77.8721 924.058 -77.0267C909.79 -76.604 897.932 -74.6077 888.776 -70.9954C879.627 -67.3861 873.234 -62.1894 869.769 -55.3872Z" stroke="#632C72" stroke-width="2"/>
<path d="M853.306 -19.6822C850.446 -12.6038 850.718 -4.3697 853.996 4.90258C857.277 14.1828 863.55 24.4419 872.592 35.4877C890.675 57.5786 919.697 82.6533 957.471 109.138C1033 162.099 1143.34 220.57 1270.58 271.977C1397.82 323.385 1517.81 357.972 1608.93 372.345C1654.5 379.533 1692.8 381.656 1721.15 378.327C1735.33 376.662 1746.97 373.64 1755.77 369.244C1764.57 364.851 1770.49 359.117 1773.35 352.038C1776.21 344.96 1775.93 336.726 1772.66 327.453C1769.38 318.173 1763.1 307.914 1754.06 296.868C1735.98 274.777 1706.95 249.703 1669.18 223.218C1593.65 170.257 1483.31 111.786 1356.07 60.3789C1228.83 8.97129 1108.85 -25.6158 1017.72 -39.989C972.152 -47.1769 933.857 -49.3003 905.503 -45.9711C891.326 -44.3064 879.687 -41.2841 870.88 -36.8876C862.081 -32.4947 856.166 -26.7606 853.306 -19.6822Z" stroke="#632C72" stroke-width="2"/>
</g>
</g>
<defs>
<filter id="filter0_f_115_190" x="-372.982" y="25.8494" width="1245.28" height="1037.06" filterUnits="userSpaceOnUse" color-interpolation-filters="sRGB">
<feFlood flood-opacity="0" result="BackgroundImageFix"/>
<feBlend mode="normal" in="SourceGraphic" in2="BackgroundImageFix" result="shape"/>
<feGaussianBlur stdDeviation="200" result="effect1_foregroundBlur_115_190"/>
</filter>
<filter id="filter1_f_115_190" x="29.8962" y="271.645" width="709.296" height="530.307" filterUnits="userSpaceOnUse" color-interpolation-filters="sRGB">
<feFlood flood-opacity="0" result="BackgroundImageFix"/>
<feBlend mode="normal" in="SourceGraphic" in2="BackgroundImageFix" result="shape"/>
<feGaussianBlur stdDeviation="100" result="effect1_foregroundBlur_115_190"/>
</filter>
<filter id="filter2_f_115_190" x="151" y="-21" width="472" height="472" filterUnits="userSpaceOnUse" color-interpolation-filters="sRGB">
<feFlood flood-opacity="0" result="BackgroundImageFix"/>
<feBlend mode="normal" in="SourceGraphic" in2="BackgroundImageFix" result="shape"/>
<feGaussianBlur stdDeviation="93" result="effect1_foregroundBlur_115_190"/>
</filter>
<linearGradient id="paint0_linear_115_190" x1="118.015" y1="0" x2="118.015" y2="445.807" gradientUnits="userSpaceOnUse">
<stop stop-color="#631D77"/>
<stop offset="1" stop-color="#130D1B"/>
</linearGradient>
<linearGradient id="paint1_linear_115_190" x1="56.7045" y1="0" x2="56.7045" y2="303.91" gradientUnits="userSpaceOnUse">
<stop stop-color="#EF57BB"/>
<stop offset="1" stop-color="#361E4E"/>
</linearGradient>
<clipPath id="clip0_115_190">
<rect width="1440" height="1000" fill="white"/>
</clipPath>
</defs>
</svg>
