<svg width="1441" height="1429" viewBox="0 0 1441 1429" fill="none" xmlns="http://www.w3.org/2000/svg">
<g clip-path="url(#clip0_255_209)">
<rect width="1441" height="1429" fill="#1F1D2B"/>
<g filter="url(#filter0_f_255_209)">
<path d="M1410 290C1410 317.614 1387.61 340 1360 340C1332.39 340 1310 317.614 1310 290C1310 262.386 1332.39 240 1360 240C1387.61 240 1410 262.386 1410 290Z" fill="#FF00FD" fill-opacity="0.69"/>
</g>
<g opacity="0.35">
<path opacity="0.0344828" d="M582.558 -205.095C580.199 -212.356 574.698 -218.489 566.226 -223.485C557.748 -228.485 546.348 -232.312 532.322 -234.961C504.269 -240.26 465.919 -240.813 419.959 -236.822C328.055 -228.84 205.946 -202.707 75.4321 -160.301C-55.0822 -117.894 -169.231 -67.2622 -248.274 -19.6998C-287.803 4.08571 -318.504 27.0748 -338.084 47.8505C-347.874 58.2387 -354.847 68.0352 -358.768 77.064C-362.684 86.085 -363.53 94.2801 -361.171 101.541C-358.812 108.801 -353.311 114.934 -344.84 119.93C-336.361 124.93 -324.961 128.757 -310.935 131.407C-282.882 136.706 -244.532 137.259 -198.572 133.267C-106.668 125.285 15.4405 99.1525 145.955 56.7458C276.469 14.3392 390.617 -36.2925 469.661 -83.855C509.19 -107.64 539.89 -130.63 559.471 -151.405C569.261 -161.793 576.234 -171.59 580.154 -180.619C584.071 -189.64 584.917 -197.835 582.558 -205.095Z" stroke="#632C72" stroke-width="2"/>
<path opacity="0.0689655" d="M568.886 -249.316C565.903 -256.344 559.888 -261.974 551.014 -266.213C542.132 -270.455 530.442 -273.273 516.238 -274.69C487.831 -277.524 449.578 -274.733 404.141 -266.751C313.282 -250.789 193.916 -214.114 67.5943 -160.493C-58.7273 -106.873 -168.029 -46.4851 -242.626 7.78547C-279.931 34.9256 -308.512 60.5029 -326.206 82.9061C-335.054 94.1081 -341.147 104.475 -344.265 113.811C-347.381 123.139 -347.509 131.377 -344.526 138.404C-341.544 145.432 -335.529 151.062 -326.654 155.3C-317.772 159.542 -306.083 162.361 -291.878 163.778C-263.471 166.612 -225.219 163.821 -179.781 155.838C-88.9225 139.877 30.4438 103.201 156.765 49.5809C283.087 -4.03948 392.388 -64.4272 466.986 -118.698C504.291 -145.838 532.871 -171.415 550.566 -193.818C559.414 -205.02 565.507 -215.387 568.625 -224.723C571.741 -234.051 571.869 -242.289 568.886 -249.316Z" stroke="#632C72" stroke-width="2"/>
<path opacity="0.103448" d="M551.739 -292.064C548.155 -298.804 541.673 -303.889 532.463 -307.338C523.245 -310.79 511.354 -312.579 497.08 -312.752C468.534 -313.1 430.67 -306.985 386.101 -295.073C296.98 -271.254 181.264 -224.314 60.0964 -159.888C-61.0712 -95.462 -164.693 -25.7778 -234.277 34.7878C-269.075 65.076 -295.317 93.047 -310.992 116.907C-318.83 128.838 -323.996 139.696 -326.289 149.268C-328.58 158.833 -327.99 167.05 -324.406 173.791C-320.821 180.531 -314.339 185.616 -305.129 189.065C-295.911 192.517 -284.02 194.306 -269.746 194.479C-241.2 194.827 -203.336 188.712 -158.768 176.8C-69.6458 152.981 46.0697 106.041 167.237 41.6149C288.405 -22.811 392.027 -92.4952 461.611 -153.061C496.409 -183.349 522.651 -211.32 538.326 -235.18C546.164 -247.111 551.33 -257.969 553.623 -267.541C555.913 -277.106 555.323 -285.323 551.739 -292.064Z" stroke="#632C72" stroke-width="2"/>
<path opacity="0.137931" d="M531.259 -333.038C527.101 -339.441 520.2 -343.941 510.724 -346.574C501.24 -349.21 489.239 -349.956 475.004 -348.884C446.536 -346.742 409.35 -337.351 365.989 -321.6C279.282 -290.104 168.098 -233.257 53.0064 -158.516C-62.085 -83.7747 -159.239 -5.32448 -223.28 61.0753C-255.305 94.2811 -279.01 124.433 -292.546 149.568C-299.314 162.136 -303.514 173.404 -304.964 183.14C-306.412 192.867 -305.108 201.002 -300.95 207.404C-296.792 213.807 -289.891 218.307 -280.416 220.94C-270.932 223.576 -258.93 224.322 -244.696 223.251C-216.228 221.109 -179.041 211.717 -135.68 195.966C-48.9738 164.47 62.2104 107.623 177.302 32.8821C292.393 -41.8591 389.548 -120.309 453.588 -186.709C485.614 -219.915 509.318 -250.067 522.854 -275.202C529.622 -287.77 533.822 -299.038 535.272 -308.774C536.721 -318.501 535.416 -326.636 531.259 -333.038Z" stroke="#632C72" stroke-width="2"/>
<path opacity="0.172414" d="M507.61 -371.956C502.91 -377.972 495.643 -381.853 485.974 -383.651C476.297 -385.449 464.276 -385.146 450.189 -382.839C422.016 -378.224 385.789 -365.627 343.966 -346.157C260.335 -307.223 154.528 -240.903 46.3887 -156.415C-61.7507 -71.9275 -151.698 14.6918 -209.707 86.4204C-238.717 122.291 -259.704 154.394 -270.997 180.614C-276.644 193.724 -279.846 205.314 -280.442 215.139C-281.037 224.956 -279.029 232.946 -274.329 238.962C-269.629 244.978 -262.362 248.859 -252.693 250.657C-243.016 252.456 -230.995 252.153 -216.908 249.845C-188.735 245.23 -152.508 232.633 -110.685 213.163C-27.0534 174.23 78.7532 107.909 186.893 23.4215C295.032 -61.0662 384.979 -147.685 442.989 -219.414C471.998 -255.285 492.985 -287.388 504.278 -313.607C509.925 -326.717 513.128 -338.308 513.723 -348.133C514.319 -357.95 512.31 -365.94 507.61 -371.956Z" stroke="#632C72" stroke-width="2"/>
<path opacity="0.206897" d="M480.987 -408.549C475.78 -414.132 468.203 -417.366 458.414 -418.313C448.616 -419.262 436.668 -417.912 422.835 -414.386C395.172 -407.333 360.181 -391.627 320.214 -368.586C240.294 -322.511 140.67 -247.222 40.3058 -153.63C-60.0584 -60.0392 -142.114 34.0899 -193.651 110.601C-219.424 148.864 -237.533 182.674 -246.498 209.778C-250.981 223.33 -253.161 235.156 -252.898 244.996C-252.636 254.827 -249.939 262.611 -244.732 268.195C-239.526 273.778 -231.948 277.012 -222.159 277.959C-212.362 278.908 -200.413 277.558 -186.581 274.032C-158.917 266.979 -123.926 251.273 -83.9593 228.231C-4.03917 182.157 95.5846 106.867 195.949 13.2763C296.313 -80.3149 378.369 -174.444 429.906 -250.956C455.679 -289.218 473.788 -323.028 482.753 -350.132C487.236 -363.685 489.416 -375.51 489.153 -385.35C488.89 -395.181 486.193 -402.966 480.987 -408.549Z" stroke="#632C72" stroke-width="2"/>
<path opacity="0.241379" d="M451.603 -442.568C445.929 -447.676 438.099 -450.237 428.265 -450.328C418.422 -450.419 406.636 -448.033 393.164 -443.315C366.22 -433.877 332.732 -415.181 294.925 -388.745C219.324 -335.88 126.642 -252.194 34.8165 -150.212C-57.0089 -48.2294 -130.548 52.6932 -175.221 133.405C-197.561 173.768 -212.654 209.028 -219.223 236.81C-222.508 250.702 -223.649 262.673 -222.529 272.452C-221.411 282.223 -218.046 289.743 -212.372 294.851C-206.699 299.959 -198.868 302.52 -189.034 302.611C-179.191 302.702 -167.406 300.316 -153.933 295.597C-126.99 286.16 -93.5012 267.464 -55.6943 241.027C19.906 188.163 112.589 104.477 204.414 2.49464C296.239 -99.4877 369.779 -200.41 414.451 -281.122C436.792 -321.486 451.885 -356.745 458.454 -384.527C461.738 -398.419 462.879 -410.39 461.76 -420.169C460.641 -429.94 457.276 -437.46 451.603 -442.568Z" stroke="#632C72" stroke-width="2"/>
<path opacity="0.275862" d="M419.69 -473.778C413.593 -478.372 405.569 -480.24 395.764 -479.474C385.951 -478.707 374.418 -475.303 361.408 -469.428C335.39 -457.678 303.658 -436.135 268.299 -406.503C197.594 -347.251 112.558 -255.806 29.9702 -146.208C-52.6174 -36.611 -117.081 70.3369 -154.549 154.635C-173.286 196.792 -185.249 233.233 -189.372 261.482C-191.433 275.607 -191.526 287.632 -189.559 297.276C-187.593 306.912 -183.585 314.11 -177.488 318.705C-171.391 323.299 -163.367 325.167 -153.562 324.401C-143.749 323.634 -132.216 320.23 -119.207 314.355C-93.1882 302.606 -61.4563 281.062 -26.0974 251.431C44.6078 192.178 129.644 100.733 212.232 -8.86449C294.819 -118.462 359.283 -225.41 396.751 -309.708C415.488 -351.865 427.451 -388.306 431.574 -416.555C433.635 -430.68 433.728 -442.704 431.761 -452.349C429.795 -461.985 425.787 -469.183 419.69 -473.778Z" stroke="#632C72" stroke-width="2"/>
<path opacity="0.310345" d="M385.506 -501.974C379.032 -506.019 370.876 -507.181 361.175 -505.563C351.466 -503.944 340.273 -499.548 327.825 -492.561C302.93 -478.589 273.196 -454.361 240.555 -421.761C175.283 -356.572 98.5399 -258.063 25.8187 -141.685C-46.9026 -25.3064 -101.8 86.853 -131.778 174.096C-146.77 217.725 -155.511 255.07 -157.156 283.571C-157.978 297.822 -157.023 309.809 -154.223 319.245C-151.424 328.673 -146.805 335.495 -140.33 339.54C-133.856 343.586 -125.7 344.748 -115.999 343.13C-106.29 341.51 -95.0978 337.114 -82.6497 330.128C-57.7543 316.155 -28.0209 291.928 4.62094 259.328C69.8929 194.139 146.636 95.6297 219.357 -20.7486C292.078 -137.127 346.975 -249.286 376.954 -336.529C391.946 -380.159 400.687 -417.503 402.332 -446.004C403.154 -460.255 402.199 -472.242 399.398 -481.679C396.6 -491.107 391.98 -497.928 385.506 -501.974Z" stroke="#632C72" stroke-width="2"/>
<path opacity="0.344828" d="M349.321 -526.968C342.518 -530.433 334.292 -530.88 324.769 -528.423C315.238 -525.963 304.472 -520.608 292.68 -512.563C269.097 -496.474 241.588 -469.748 211.912 -434.427C152.57 -363.797 84.7048 -258.974 22.4033 -136.701C-39.8982 -14.4272 -84.8113 102.09 -107.072 191.614C-118.204 236.384 -123.657 274.348 -122.812 302.884C-122.389 317.153 -120.392 329.011 -116.78 338.167C-113.171 347.315 -107.974 353.708 -101.172 357.174C-94.3698 360.64 -86.1433 361.087 -76.6206 358.629C-67.0898 356.17 -56.323 350.815 -44.5311 342.77C-20.9482 326.681 6.56049 299.954 36.2368 264.633C95.5788 194.003 163.444 89.1807 225.745 -33.0928C288.047 -155.366 332.96 -271.883 355.22 -361.407C366.353 -406.177 371.806 -444.142 370.96 -472.678C370.537 -486.946 368.541 -498.804 364.929 -507.96C361.32 -517.109 356.123 -523.502 349.321 -526.968Z" stroke="#632C72" stroke-width="2"/>
<path opacity="0.37931" d="M311.422 -548.598C304.343 -551.458 296.109 -551.186 286.837 -547.908C277.557 -544.627 267.298 -538.354 256.252 -529.313C234.161 -511.229 209.086 -482.207 182.601 -444.434C129.641 -368.901 71.1701 -258.562 19.7626 -131.324C-31.645 -4.08569 -66.2321 115.903 -80.6053 207.026C-87.7932 252.596 -89.9166 290.891 -86.5874 319.245C-84.9227 333.422 -81.9004 345.061 -77.5038 353.867C-73.111 362.666 -67.3769 368.582 -60.2985 371.442C-53.2201 374.302 -44.986 374.03 -35.7137 370.752C-26.4335 367.471 -16.1744 361.198 -5.12856 352.156C16.9623 334.073 42.037 305.051 68.5219 267.277C121.482 191.744 179.953 81.4056 231.361 -45.8326C282.768 -173.071 317.355 -293.059 331.729 -384.182C338.917 -429.752 341.04 -468.047 337.711 -496.401C336.046 -510.578 333.024 -522.217 328.627 -531.024C324.234 -539.823 318.5 -545.738 311.422 -548.598Z" stroke="#632C72" stroke-width="2"/>
<path opacity="0.413793" d="M272.109 -566.728C264.808 -568.96 256.629 -567.971 247.678 -563.898C238.719 -559.821 229.046 -552.677 218.83 -542.707C198.399 -522.768 175.949 -491.67 152.857 -451.732C106.682 -371.871 58.0498 -256.856 17.9273 -125.622C-22.1951 5.61283 -46.1928 128.159 -52.5695 220.188C-55.7583 266.211 -54.536 304.546 -48.7482 332.501C-45.8543 346.48 -41.8291 357.811 -36.6817 366.201C-31.5387 374.583 -25.3108 379.977 -18.0101 382.209C-10.7094 384.441 -2.53035 383.452 6.42096 379.378C15.3799 375.301 25.0532 368.158 35.269 358.188C55.6998 338.248 78.1496 307.151 101.242 267.213C147.417 187.351 196.049 72.3368 236.171 -58.8977C276.294 -190.132 300.292 -312.678 306.668 -404.708C309.857 -450.73 308.635 -489.065 302.847 -517.021C299.953 -530.999 295.928 -542.33 290.781 -550.72C285.638 -559.103 279.41 -564.496 272.109 -566.728Z" stroke="#632C72" stroke-width="2"/>
<path opacity="0.448276" d="M231.691 -581.246C224.224 -582.833 216.162 -581.135 207.6 -576.297C199.03 -571.454 190.016 -563.495 180.708 -552.673C162.093 -531.028 142.439 -498.093 122.916 -456.294C83.8762 -372.712 45.4536 -253.896 16.9218 -119.664C-11.6101 14.5676 -24.836 138.739 -23.1675 230.974C-22.333 277.099 -17.7743 315.182 -9.57208 342.526C-5.47083 356.199 -0.473412 367.136 5.38562 375.046C11.2397 382.948 17.9139 387.778 25.3814 389.366C32.8488 390.953 40.9106 389.255 49.4728 384.417C58.0423 379.574 67.0563 371.615 76.3642 360.793C94.9794 339.148 114.633 306.213 134.157 264.414C173.196 180.832 211.619 62.0164 240.151 -72.2156C268.683 -206.448 281.909 -330.619 280.24 -422.854C279.406 -468.979 274.847 -507.062 266.645 -534.406C262.543 -548.079 257.546 -559.016 251.687 -566.926C245.833 -574.828 239.159 -579.658 231.691 -581.246Z" stroke="#632C72" stroke-width="2"/>
<path opacity="0.482759" d="M190.488 -592.068C182.91 -592.998 175.027 -590.605 166.919 -585.038C158.804 -579.467 150.518 -570.753 142.189 -559.16C125.531 -535.976 108.823 -501.453 93.0166 -458.112C61.4102 -371.445 33.4893 -249.733 16.7651 -113.525C0.0408253 22.683 -2.31248 147.535 7.38851 239.273C12.2399 285.15 20.1004 322.69 30.6546 349.216C35.9319 362.48 41.8636 372.94 48.3897 380.308C54.9102 387.671 61.98 391.9 69.5574 392.831C77.1347 393.761 85.0179 391.367 93.1258 385.801C101.241 380.23 109.527 371.516 117.856 359.923C134.514 336.739 151.223 302.215 167.029 258.874C198.635 172.208 226.556 50.4956 243.28 -85.7123C260.004 -221.92 262.358 -346.772 252.657 -438.51C247.805 -484.388 239.945 -521.928 229.391 -548.453C224.113 -561.717 218.182 -572.177 211.655 -579.545C205.135 -586.908 198.065 -591.138 190.488 -592.068Z" stroke="#632C72" stroke-width="2"/>
<path opacity="0.517241" d="M148.825 -599.145C141.195 -599.411 133.551 -596.339 125.959 -590.088C118.36 -583.831 110.865 -574.427 103.578 -562.153C89.0043 -537.605 75.3681 -501.757 63.3997 -457.203C39.467 -368.112 22.2603 -244.429 17.471 -107.282C12.6817 29.8654 21.2189 154.447 38.8785 244.991C47.7099 290.271 58.8123 326.983 71.6383 352.488C78.0515 365.241 84.8722 375.144 92.0157 381.916C99.153 388.682 106.565 392.279 114.194 392.546C121.824 392.812 129.468 389.74 137.06 383.489C144.659 377.232 152.154 367.828 159.441 355.554C174.015 331.006 187.651 295.158 199.619 250.604C223.552 161.513 240.759 37.83 245.548 -99.3172C250.337 -236.464 241.8 -361.046 224.141 -451.59C215.309 -496.87 204.207 -533.582 191.381 -559.087C184.968 -571.84 178.147 -581.743 171.003 -588.515C163.866 -595.281 156.454 -598.878 148.825 -599.145Z" stroke="#632C72" stroke-width="2"/>
<path opacity="0.551724" d="M107.03 -602.446C99.4062 -602.047 92.0585 -598.32 85.0403 -591.431C78.0161 -584.535 71.3693 -574.515 65.1796 -561.652C52.8007 -535.927 42.3407 -499.027 34.3009 -453.599C18.2242 -362.761 11.8626 -238.049 19.0447 -101.007C26.2268 36.036 45.5895 159.399 71.0733 248.06C83.8175 292.398 98.0773 328.002 113.077 352.292C120.578 364.438 128.236 373.709 135.942 379.832C143.642 385.951 151.339 388.889 158.963 388.489C166.587 388.089 173.934 384.363 180.952 377.474C187.977 370.578 194.623 360.557 200.813 347.694C213.192 321.969 223.652 285.069 231.692 239.642C247.768 148.804 254.13 24.0921 246.948 -112.951C239.766 -249.993 220.403 -373.357 194.919 -462.017C182.175 -506.355 167.915 -541.96 152.915 -566.25C145.415 -578.395 137.757 -587.666 130.051 -593.79C122.351 -599.908 114.654 -602.846 107.03 -602.446Z" stroke="#632C72" stroke-width="2"/>
<path opacity="0.586207" d="M65.4328 -601.979C57.8729 -600.916 50.8779 -596.563 44.4869 -589.088C38.0904 -581.607 32.3422 -571.045 27.2972 -557.692C17.2075 -530.986 10.0034 -493.314 5.95342 -447.359C-2.14503 -355.465 2.38687 -230.674 21.4857 -94.7786C40.5845 41.1167 70.6254 162.323 103.739 248.425C120.299 291.483 137.608 325.71 154.668 348.6C163.198 360.046 171.635 368.614 179.846 374.042C188.05 379.466 195.974 381.722 203.534 380.66C211.094 379.597 218.089 375.245 224.48 367.77C230.876 360.288 236.624 349.726 241.669 336.373C251.759 309.667 258.963 271.995 263.013 226.04C271.112 134.147 266.58 9.35514 247.481 -126.54C228.382 -262.435 198.341 -383.642 165.227 -469.744C148.667 -512.802 131.358 -547.028 114.298 -569.919C105.768 -581.364 97.3312 -589.933 89.1204 -595.361C80.9165 -600.785 72.9928 -603.041 65.4328 -601.979Z" stroke="#632C72" stroke-width="2"/>
<path opacity="0.62069" d="M24.3613 -597.77C16.9226 -596.053 10.3337 -591.107 4.61846 -583.104C-1.10164 -575.093 -5.90741 -564.07 -9.76941 -550.328C-17.4932 -522.844 -21.3866 -484.688 -21.4159 -438.555C-21.4744 -346.305 -6.08349 -222.384 24.7867 -88.6701C55.6569 45.0435 96.1473 163.17 136.64 246.058C156.889 287.51 177.115 320.097 196.105 341.414C205.601 352.072 214.752 359.873 223.405 364.565C232.05 369.253 240.141 370.81 247.579 369.093C255.018 367.375 261.607 362.43 267.322 354.426C273.042 346.416 277.848 335.393 281.71 321.65C289.434 294.167 293.327 256.011 293.356 209.878C293.415 117.628 278.024 -6.29393 247.154 -140.008C216.283 -273.721 175.793 -391.848 135.301 -474.736C115.051 -516.188 94.8251 -548.775 75.835 -570.091C66.3396 -580.75 57.1881 -588.55 48.5354 -593.243C39.89 -597.931 31.7999 -599.488 24.3613 -597.77Z" stroke="#632C72" stroke-width="2"/>
<path opacity="0.655172" d="M-15.8608 -589.885C-23.1214 -587.526 -29.2543 -582.024 -34.2502 -573.553C-39.2504 -565.075 -43.0772 -553.675 -45.7267 -539.648C-51.0257 -511.596 -51.5788 -473.246 -47.5872 -427.286C-39.6054 -335.382 -13.4726 -213.273 28.9341 -82.759C71.3407 47.7553 121.972 161.904 169.535 240.947C193.32 280.476 216.309 311.177 237.085 330.757C247.473 340.547 257.27 347.52 266.299 351.441C275.32 355.357 283.515 356.203 290.775 353.844C298.036 351.485 304.169 345.984 309.165 337.513C314.165 329.034 317.992 317.634 320.641 303.608C325.94 275.556 326.493 237.205 322.502 191.245C314.52 99.3412 288.387 -22.7674 245.98 -153.282C203.574 -283.796 152.942 -397.944 105.38 -476.988C81.5942 -516.517 58.6051 -547.217 37.8294 -566.797C27.4412 -576.588 17.6447 -583.561 8.61594 -587.481C-0.4051 -591.398 -8.60018 -592.244 -15.8608 -589.885Z" stroke="#632C72" stroke-width="2"/>
<path opacity="0.689655" d="M-54.9161 -578.406C-61.9435 -575.424 -67.5735 -569.409 -71.8121 -560.534C-76.0543 -551.652 -78.873 -539.962 -80.29 -525.758C-83.1239 -497.351 -80.3325 -459.099 -72.3504 -413.661C-56.389 -322.802 -19.7131 -203.436 33.9072 -77.1146C87.5276 49.2071 147.915 158.508 202.186 233.106C229.326 270.411 254.903 298.991 277.306 316.686C288.508 325.534 298.875 331.627 308.211 334.745C317.54 337.861 325.777 337.989 332.805 335.006C339.832 332.023 345.462 326.009 349.701 317.134C353.943 308.252 356.761 296.562 358.178 282.358C361.012 253.951 358.221 215.698 350.239 170.261C334.277 79.4022 297.602 -39.9641 243.981 -166.286C190.361 -292.607 129.973 -401.909 75.7026 -476.506C48.5625 -513.811 22.9852 -542.392 0.582021 -560.086C-10.62 -568.934 -20.987 -575.027 -30.323 -578.145C-39.6511 -581.261 -47.8887 -581.389 -54.9161 -578.406Z" stroke="#632C72" stroke-width="2"/>
<path opacity="0.724138" d="M-92.4963 -563.453C-99.237 -559.869 -104.321 -553.386 -107.77 -544.176C-111.222 -534.958 -113.011 -523.067 -113.185 -508.793C-113.532 -480.247 -107.418 -442.384 -95.5058 -397.815C-71.6863 -308.693 -24.7465 -192.977 39.6794 -71.8097C104.105 49.3579 173.79 152.98 234.355 222.564C264.643 257.361 292.614 283.604 316.474 299.279C328.405 307.117 339.264 312.283 348.836 314.576C358.4 316.866 366.617 316.276 373.358 312.692C380.099 309.108 385.183 302.626 388.632 293.415C392.084 284.198 393.873 272.307 394.047 258.033C394.394 229.487 388.279 191.623 376.368 147.054C352.548 57.9325 305.608 -57.7831 241.182 -178.951C176.756 -300.118 107.072 -403.74 46.5066 -473.324C16.2184 -508.122 -11.7526 -534.364 -35.6127 -550.039C-47.5432 -557.877 -58.4018 -563.043 -67.9741 -565.336C-77.5382 -567.627 -85.7557 -567.037 -92.4963 -563.453Z" stroke="#632C72" stroke-width="2"/>
<path opacity="0.758621" d="M-128.303 -545.166C-134.706 -541.008 -139.206 -534.107 -141.839 -524.631C-144.475 -515.147 -145.221 -503.146 -144.15 -488.911C-142.008 -460.443 -132.616 -423.257 -116.865 -379.896C-85.3688 -293.189 -28.5224 -182.005 46.2189 -66.9134C120.96 48.178 199.41 145.333 265.81 209.373C299.016 241.398 329.168 265.103 354.303 278.639C366.871 285.407 378.139 289.607 387.875 291.057C397.602 292.505 405.737 291.201 412.139 287.043C418.542 282.885 423.042 275.984 425.675 266.509C428.311 257.025 429.057 245.023 427.985 230.789C425.843 202.321 416.452 165.135 400.701 121.773C369.205 35.0668 312.358 -76.1173 237.617 -191.209C162.876 -306.3 84.4255 -403.455 18.0257 -467.495C-15.1801 -499.521 -45.3318 -523.225 -70.4672 -536.761C-83.0354 -543.529 -94.3029 -547.729 -104.039 -549.179C-113.766 -550.628 -121.901 -549.323 -128.303 -545.166Z" stroke="#632C72" stroke-width="2"/>
<path opacity="0.793103" d="M-162.054 -523.711C-168.07 -519.01 -171.951 -511.744 -173.749 -502.074C-175.547 -492.397 -175.245 -480.376 -172.937 -466.289C-168.322 -438.116 -155.725 -401.89 -136.255 -360.067C-97.3215 -276.435 -31.0011 -170.628 53.4866 -62.489C137.974 45.6503 224.594 135.598 296.322 193.607C332.193 222.617 364.296 243.603 390.515 254.897C403.626 260.544 415.216 263.746 425.041 264.342C434.858 264.937 442.848 262.929 448.864 258.229C454.88 253.529 458.761 246.262 460.559 236.593C462.357 226.915 462.055 214.894 459.747 200.807C455.132 172.634 442.535 136.408 423.065 94.5847C384.132 10.9531 317.811 -94.8535 233.323 -202.993C148.836 -311.132 62.2164 -401.08 -9.51221 -459.089C-45.3829 -488.099 -77.4858 -509.085 -103.705 -520.379C-116.816 -526.026 -128.406 -529.228 -138.231 -529.824C-148.048 -530.419 -156.038 -528.411 -162.054 -523.711Z" stroke="#632C72" stroke-width="2"/>
<path opacity="0.827586" d="M-193.48 -499.281C-199.063 -494.074 -202.297 -486.497 -203.245 -476.708C-204.193 -466.911 -202.844 -454.962 -199.317 -441.129C-192.264 -413.466 -176.558 -378.475 -153.517 -338.508C-107.442 -258.588 -32.1528 -158.964 61.4384 -58.6C155.03 41.7642 249.159 123.82 325.67 175.357C363.933 201.13 397.743 219.239 424.847 228.204C438.399 232.687 450.225 234.867 460.064 234.604C469.896 234.341 477.68 231.644 483.264 226.438C488.847 221.231 492.08 213.654 493.028 203.865C493.977 194.068 492.627 182.119 489.101 168.286C482.048 140.623 466.342 105.632 443.3 65.6651C397.226 -14.255 321.936 -113.879 228.345 -214.243C134.754 -314.607 40.6248 -396.663 -35.8867 -448.2C-74.1492 -473.973 -107.959 -492.082 -135.063 -501.047C-148.616 -505.53 -160.441 -507.71 -170.281 -507.447C-180.112 -507.184 -187.897 -504.488 -193.48 -499.281Z" stroke="#632C72" stroke-width="2"/>
<path opacity="0.862069" d="M-222.331 -472.089C-227.439 -466.416 -229.999 -458.585 -230.09 -448.751C-230.181 -438.908 -227.796 -427.122 -223.077 -413.65C-213.64 -386.707 -194.944 -353.218 -168.507 -315.411C-115.643 -239.811 -31.9565 -147.128 70.0258 -55.3025C172.008 36.5228 272.931 110.062 353.643 154.735C394.006 177.075 429.266 192.168 457.048 198.737C470.939 202.022 482.91 203.163 492.689 202.043C502.46 200.925 509.98 197.56 515.089 191.886C520.197 186.213 522.757 178.382 522.848 168.548C522.94 158.705 520.554 146.92 515.835 133.447C506.398 106.504 487.702 73.0152 461.265 35.2083C408.401 -40.3921 324.715 -133.075 222.732 -224.9C120.75 -316.725 19.8273 -390.265 -60.8848 -434.938C-101.248 -457.278 -136.507 -472.371 -164.29 -478.94C-178.181 -482.224 -190.152 -483.365 -199.931 -482.246C-209.702 -481.127 -217.222 -477.762 -222.331 -472.089Z" stroke="#632C72" stroke-width="2"/>
<path opacity="0.896552" d="M-248.375 -442.37C-252.97 -436.273 -254.838 -428.25 -254.072 -418.445C-253.305 -408.632 -249.901 -397.099 -244.026 -384.089C-232.276 -358.07 -210.733 -326.339 -181.101 -290.98C-121.849 -220.274 -30.4037 -135.238 79.1937 -52.6506C188.791 29.9369 295.739 94.4007 380.037 131.869C422.194 150.606 458.635 162.569 486.884 166.691C501.009 168.753 513.034 168.846 522.678 166.878C532.314 164.912 539.512 160.905 544.107 154.808C548.701 148.711 550.57 140.687 549.803 130.882C549.036 121.069 545.632 109.536 539.757 96.5262C528.008 70.5078 506.464 38.7759 476.833 3.41702C417.58 -67.2882 326.135 -152.325 216.538 -234.912C106.94 -317.5 -0.00766696 -381.963 -84.3061 -419.431C-126.463 -438.169 -162.904 -450.131 -191.153 -454.254C-205.278 -456.315 -217.302 -456.408 -226.947 -454.441C-236.583 -452.475 -243.781 -448.468 -248.375 -442.37Z" stroke="#632C72" stroke-width="2"/>
<path opacity="0.931035" d="M-271.404 -410.38C-275.45 -403.906 -276.612 -395.75 -274.994 -386.049C-273.374 -376.34 -268.978 -365.147 -261.991 -352.699C-248.019 -327.804 -223.792 -298.071 -191.191 -265.429C-126.002 -200.157 -27.4934 -123.414 88.8849 -50.6927C205.263 22.0285 317.423 76.9259 404.666 106.904C448.295 121.896 485.64 130.637 514.141 132.282C528.392 133.104 540.379 132.149 549.815 129.349C559.243 126.55 566.064 121.931 570.11 115.456C574.156 108.982 575.317 100.826 573.699 91.1252C572.08 81.4163 567.684 70.2238 560.697 57.7757C546.725 32.8803 522.498 3.14684 489.897 -29.495C424.708 -94.767 326.199 -171.51 209.821 -244.231C93.4427 -316.952 -18.7166 -371.85 -105.96 -401.828C-149.589 -416.82 -186.934 -425.561 -215.435 -427.206C-229.686 -428.028 -241.673 -427.073 -251.109 -424.272C-260.537 -421.474 -267.359 -416.854 -271.404 -410.38Z" stroke="#632C72" stroke-width="2"/>
<path opacity="0.965517" d="M-291.231 -376.387C-294.697 -369.585 -295.144 -361.359 -292.687 -351.836C-290.227 -342.305 -284.872 -331.538 -276.827 -319.746C-260.738 -296.164 -234.012 -268.655 -198.691 -238.979C-128.061 -179.637 -23.2382 -111.771 99.0354 -49.47C221.309 12.8315 337.826 57.7446 427.35 80.0051C472.12 91.1373 510.084 96.5903 538.62 95.7449C552.889 95.3222 564.747 93.3258 573.903 89.7135C583.051 86.1043 589.444 80.9075 592.91 74.1053C596.376 67.3031 596.823 59.0766 594.365 49.5539C591.906 40.0231 586.551 29.2564 578.506 17.4645C562.417 -6.11841 535.691 -33.6271 500.369 -63.3034C429.739 -122.645 324.917 -190.511 202.643 -252.812C80.3698 -315.113 -36.1474 -360.027 -125.671 -382.287C-170.441 -393.419 -208.406 -398.872 -236.942 -398.027C-251.21 -397.604 -263.068 -395.608 -272.224 -391.995C-281.373 -388.386 -287.766 -383.19 -291.231 -376.387Z" stroke="#632C72" stroke-width="2"/>
<path d="M-307.694 -340.682C-310.554 -333.604 -310.282 -325.37 -307.004 -316.097C-303.723 -306.817 -297.45 -296.558 -288.408 -285.512C-270.325 -263.421 -241.303 -238.347 -203.529 -211.862C-127.996 -158.901 -17.6578 -100.43 109.58 -49.0228C236.819 2.38475 356.807 36.9718 447.93 51.345C493.5 58.5329 531.795 60.6564 560.149 57.3271C574.326 55.6624 585.965 52.6402 594.772 48.2436C603.571 43.8507 609.486 38.1166 612.346 31.0382C615.206 23.9598 614.934 15.7257 611.656 6.45344C608.375 -2.82676 602.102 -13.0858 593.06 -24.1317C574.977 -46.2226 545.955 -71.2973 508.182 -97.7822C432.648 -150.743 322.31 -209.214 195.072 -260.621C67.8335 -312.029 -52.1547 -346.616 -143.278 -360.989C-188.848 -368.177 -227.143 -370.3 -255.497 -366.971C-269.674 -365.306 -281.313 -362.284 -290.12 -357.888C-298.919 -353.495 -304.834 -347.761 -307.694 -340.682Z" stroke="#632C72" stroke-width="2"/>
</g>
</g>
<defs>
<filter id="filter0_f_255_209" x="1124" y="54" width="472" height="472" filterUnits="userSpaceOnUse" color-interpolation-filters="sRGB">
<feFlood flood-opacity="0" result="BackgroundImageFix"/>
<feBlend mode="normal" in="SourceGraphic" in2="BackgroundImageFix" result="shape"/>
<feGaussianBlur stdDeviation="93" result="effect1_foregroundBlur_255_209"/>
</filter>
<clipPath id="clip0_255_209">
<rect width="1441" height="1429" fill="white"/>
</clipPath>
</defs>
</svg>
