<svg width="1440" height="832" viewBox="0 0 1440 832" fill="none" xmlns="http://www.w3.org/2000/svg">
<g clip-path="url(#clip0_371_903)">
<rect width="1440" height="832" fill="#0B0B0F"/>
<g opacity="0.14">
<g filter="url(#filter0_f_371_903)">
<ellipse cx="653.5" cy="38.7963" rx="653.5" ry="38.7963" transform="matrix(-1 0 0 1 1087 122)" fill="url(#paint0_linear_371_903)"/>
</g>
<g filter="url(#filter1_f_371_903)">
<rect width="627.998" height="52.8954" transform="matrix(-1 0 0 1 747.499 157.863)" fill="#02D7F2"/>
</g>
</g>
<path d="M13.1061 818C14.1603 818 14.9802 819.094 14.9802 820.5C14.9802 821.906 14.1603 823 13.1061 823C12.0518 823 11.2319 821.906 11.2319 820.5C11.2319 819.094 12.0518 818 13.1061 818Z" fill="#4DAFFF"/>
<path d="M13.1061 783C14.1603 783 14.9802 783.875 14.9802 785C14.9802 786.125 14.1603 787 13.1061 787C12.0518 787 11.2319 786.125 11.2319 785C11.2319 783.875 12.0518 783 13.1061 783Z" fill="#4DAFFF"/>
<path d="M13.1061 748C14.1603 748 14.9802 748.923 14.9802 749.969C14.9802 751.077 14.1603 752 13.1061 752C12.0518 752 11.2319 751.077 11.2319 749.969C11.2319 748.923 12.0518 748 13.1061 748Z" fill="#4DAFFF"/>
<path d="M13.1061 713C14.1603 713 14.9802 713.875 14.9802 715C14.9802 716.125 14.1603 717 13.1061 717C12.0518 717 11.2319 716.125 11.2319 715C11.2319 713.875 12.0518 713 13.1061 713Z" fill="#4DAFFF"/>
<path d="M13.1061 678C14.1603 678 14.9802 678.923 14.9802 680.031C14.9802 681.077 14.1603 682 13.1061 682C12.0518 682 11.2319 681.077 11.2319 680.031C11.2319 678.923 12.0518 678 13.1061 678Z" fill="#4DAFFF"/>
<path d="M40.3102 818C41.2905 818 42.1555 819.094 42.1555 820.5C42.1555 821.906 41.2905 823 40.3102 823C39.2722 823 38.4072 821.906 38.4072 820.5C38.4072 819.094 39.2722 818 40.3102 818Z" fill="#4DAFFF"/>
<path d="M40.3102 783C41.2905 783 42.1555 783.875 42.1555 785C42.1555 786.125 41.2905 787 40.3102 787C39.2722 787 38.4072 786.125 38.4072 785C38.4072 783.875 39.2722 783 40.3102 783Z" fill="#4DAFFF"/>
<path d="M40.3102 748C41.2905 748 42.1555 748.923 42.1555 749.969C42.1555 751.077 41.2905 752 40.3102 752C39.2722 752 38.4072 751.077 38.4072 749.969C38.4072 748.923 39.2722 748 40.3102 748Z" fill="#4DAFFF"/>
<path d="M40.3102 713C41.2905 713 42.1555 713.875 42.1555 715C42.1555 716.125 41.2905 717 40.3102 717C39.2722 717 38.4072 716.125 38.4072 715C38.4072 713.875 39.2722 713 40.3102 713Z" fill="#4DAFFF"/>
<path d="M40.3102 678C41.2905 678 42.1555 678.923 42.1555 680.031C42.1555 681.077 41.2905 682 40.3102 682C39.2722 682 38.4072 681.077 38.4072 680.031C38.4072 678.923 39.2722 678 40.3102 678Z" fill="#4DAFFF"/>
<path d="M67.8897 818C69.1872 818 70.2683 819.094 70.2683 820.5C70.2683 821.906 69.1872 823 67.8897 823C66.6643 823 65.5829 821.906 65.5829 820.5C65.5829 819.094 66.6643 818 67.8897 818Z" fill="#4DAFFF"/>
<path d="M67.8897 783C69.1872 783 70.2683 783.875 70.2683 785C70.2683 786.125 69.1872 787 67.8897 787C66.6643 787 65.5829 786.125 65.5829 785C65.5829 783.875 66.6643 783 67.8897 783Z" fill="#4DAFFF"/>
<path d="M67.8897 748C69.1872 748 70.2683 748.923 70.2683 749.969C70.2683 751.077 69.1872 752 67.8897 752C66.6643 752 65.5829 751.077 65.5829 749.969C65.5829 748.923 66.6643 748 67.8897 748Z" fill="#4DAFFF"/>
<path d="M67.8897 713C69.1872 713 70.2683 713.875 70.2683 715C70.2683 716.125 69.1872 717 67.8897 717C66.6643 717 65.5829 716.125 65.5829 715C65.5829 713.875 66.6643 713 67.8897 713Z" fill="#4DAFFF"/>
<path d="M67.8897 678C69.1872 678 70.2683 678.923 70.2683 680.031C70.2683 681.077 69.1872 682 67.8897 682C66.6643 682 65.5829 681.077 65.5829 680.031C65.5829 678.923 66.6643 678 67.8897 678Z" fill="#4DAFFF"/>
<path d="M95.5695 818C96.6237 818 97.4436 819.094 97.4436 820.5C97.4436 821.906 96.6237 823 95.5695 823C94.5153 823 93.6953 821.906 93.6953 820.5C93.6953 819.094 94.5153 818 95.5695 818Z" fill="#4DAFFF"/>
<path d="M95.5695 783C96.6237 783 97.4436 783.875 97.4436 785C97.4436 786.125 96.6237 787 95.5695 787C94.5153 787 93.6953 786.125 93.6953 785C93.6953 783.875 94.5153 783 95.5695 783Z" fill="#4DAFFF"/>
<path d="M95.5695 748C96.6237 748 97.4436 748.923 97.4436 749.969C97.4436 751.077 96.6237 752 95.5695 752C94.5153 752 93.6953 751.077 93.6953 749.969C93.6953 748.923 94.5153 748 95.5695 748Z" fill="#4DAFFF"/>
<path d="M95.5695 713C96.6237 713 97.4436 713.875 97.4436 715C97.4436 716.125 96.6237 717 95.5695 717C94.5153 717 93.6953 716.125 93.6953 715C93.6953 713.875 94.5153 713 95.5695 713Z" fill="#4DAFFF"/>
<path d="M95.5695 678C96.6237 678 97.4436 678.923 97.4436 680.031C97.4436 681.077 96.6237 682 95.5695 682C94.5153 682 93.6953 681.077 93.6953 680.031C93.6953 678.923 94.5153 678 95.5695 678Z" fill="#4DAFFF"/>
<path d="M91.8212 659H111.5V680" stroke="#4DAFFF" stroke-width="3.2" stroke-miterlimit="10"/>
</g>
<defs>
<filter id="filter0_f_371_903" x="-620" y="-278" width="2107" height="877.593" filterUnits="userSpaceOnUse" color-interpolation-filters="sRGB">
<feFlood flood-opacity="0" result="BackgroundImageFix"/>
<feBlend mode="normal" in="SourceGraphic" in2="BackgroundImageFix" result="shape"/>
<feGaussianBlur stdDeviation="200" result="effect1_foregroundBlur_371_903"/>
</filter>
<filter id="filter1_f_371_903" x="-80.4985" y="-42.1372" width="1028" height="452.895" filterUnits="userSpaceOnUse" color-interpolation-filters="sRGB">
<feFlood flood-opacity="0" result="BackgroundImageFix"/>
<feBlend mode="normal" in="SourceGraphic" in2="BackgroundImageFix" result="shape"/>
<feGaussianBlur stdDeviation="100" result="effect1_foregroundBlur_371_903"/>
</filter>
<linearGradient id="paint0_linear_371_903" x1="653.5" y1="0" x2="653.5" y2="77.5925" gradientUnits="userSpaceOnUse">
<stop stop-color="#1D7677"/>
<stop offset="1" stop-color="#0D141B"/>
</linearGradient>
<clipPath id="clip0_371_903">
<rect width="1440" height="832" fill="white"/>
</clipPath>
</defs>
</svg>
