<svg width="26" height="24" viewBox="0 0 26 24" fill="none" xmlns="http://www.w3.org/2000/svg">
<g id="Group 1010">
<g id="Group 1009">
<g id="Group 1008">
<path id="Ellipse 61" d="M24.0593 9.35068C24.0593 13.9626 20.3205 17.7014 15.7086 17.7014C11.0966 17.7014 7.35791 13.9626 7.35791 9.35068C7.35791 4.73872 11.0966 1 15.7086 1C20.3205 1 24.0593 4.73872 24.0593 9.35068Z" stroke="white" stroke-width="2"/>
</g>
</g>
<g id="Group 1011">
<path id="Ellipse 60" d="M17.6633 14.6493C17.6633 18.709 14.3723 22 10.3126 22C6.25292 22 2.96191 18.709 2.96191 14.6493C2.96191 10.5897 6.25292 7.29865 10.3126 7.29865C14.3723 7.29865 17.6633 10.5897 17.6633 14.6493Z" fill="white" stroke="white" stroke-width="4"/>
<path id="$" d="M10.7192 20.1542C10.498 20.1542 10.311 20.0761 10.1584 19.9201C10.0058 19.764 9.92951 19.569 9.92951 19.3349V18.4688L10.2729 18.7848C9.76164 18.7614 9.31909 18.695 8.94522 18.5858C8.57134 18.4766 8.26613 18.3673 8.02959 18.2581C7.83121 18.1644 7.69005 18.0318 7.60612 17.8601C7.52982 17.6885 7.4993 17.5129 7.51456 17.3334C7.53745 17.154 7.6023 16.9901 7.70913 16.8419C7.81595 16.6936 7.95329 16.5961 8.12116 16.5493C8.29665 16.4946 8.49885 16.518 8.72776 16.6195C8.88036 16.7053 9.10926 16.795 9.41447 16.8887C9.72731 16.9745 10.1126 17.0174 10.5704 17.0174C10.8909 17.0174 11.1427 16.9862 11.3258 16.9238C11.5166 16.8614 11.6501 16.7794 11.7264 16.678C11.8103 16.5688 11.8523 16.4517 11.8523 16.3269C11.8523 16.2098 11.8218 16.1123 11.7607 16.0343C11.7073 15.9484 11.6158 15.8743 11.4861 15.8119C11.3564 15.7417 11.177 15.6792 10.9481 15.6246L9.65482 15.3437C8.94522 15.1799 8.41492 14.9068 8.06393 14.5244C7.72057 14.1343 7.54889 13.631 7.54889 13.0146C7.54889 12.5464 7.65953 12.1289 7.88081 11.7622C8.10971 11.3877 8.42636 11.0834 8.83076 10.8493C9.24279 10.6152 9.72349 10.4669 10.2729 10.4045L9.92951 10.6035V9.8193C9.92951 9.58521 10.0058 9.39014 10.1584 9.23409C10.311 9.07803 10.498 9 10.7192 9C10.9481 9 11.1389 9.07803 11.2915 9.23409C11.4441 9.39014 11.5204 9.58521 11.5204 9.8193V10.6035L11.177 10.3811C11.467 10.3889 11.7798 10.4396 12.1156 10.5333C12.4513 10.6191 12.745 10.74 12.9968 10.8961C13.1723 10.9897 13.2944 11.1185 13.3631 11.2823C13.4394 11.4462 13.4661 11.614 13.4432 11.7856C13.4279 11.9495 13.3669 12.0977 13.2601 12.2304C13.1609 12.363 13.0235 12.4528 12.8481 12.4996C12.6802 12.5386 12.478 12.5074 12.2415 12.4059C12.066 12.3279 11.8676 12.2655 11.6463 12.2187C11.4327 12.1641 11.158 12.1367 10.8222 12.1367C10.4178 12.1367 10.105 12.2109 9.88373 12.3591C9.67008 12.5074 9.56326 12.6986 9.56326 12.9326C9.56326 13.0887 9.6243 13.2213 9.74638 13.3306C9.8761 13.432 10.1088 13.5218 10.4445 13.5998L11.7493 13.8924C12.4742 14.0562 13.0083 14.3293 13.3516 14.7117C13.7026 15.0862 13.8781 15.5739 13.8781 16.1747C13.8781 16.6429 13.7675 17.0564 13.5462 17.4154C13.3249 17.7743 13.0159 18.0669 12.6191 18.2932C12.23 18.5195 11.776 18.6677 11.2572 18.738L11.5204 18.4571V19.3349C11.5204 19.569 11.4441 19.764 11.2915 19.9201C11.1465 20.0761 10.9558 20.1542 10.7192 20.1542Z" fill="#361E4E"/>
</g>
</g>
</svg>
