<svg width="279" height="300" viewBox="0 0 279 300" fill="none" xmlns="http://www.w3.org/2000/svg">
<path d="M148.451 297.526L147.833 295.671L264.74 228.248L269.688 225.155V218.97V80.4129V74.8459L258.554 68.6604L176.286 21.0314L177.523 19.1758L259.792 66.8047L270.925 73.6087C271.338 73.6087 271.544 73.815 271.544 74.2273V80.4129V218.97V225.774C271.544 226.186 271.338 226.599 270.925 227.011L265.977 230.104L148.451 297.526Z" fill="#02D7F2"/>
<path d="M251.752 236.29L270.927 225.775V217.734V212.785V199.795V173.197V120.62L277.732 129.28V177.527V202.27V214.641V230.105L262.886 238.146L251.752 236.29Z" fill="#02D7F2"/>
<path fill-rule="evenodd" clip-rule="evenodd" d="M262.881 239.382L251.747 237.527C251.335 237.527 251.129 237.321 251.129 236.908C251.129 236.496 251.335 236.083 251.747 235.671L269.685 225.156V120.619C269.685 120.207 269.892 119.795 270.304 119.382C270.716 119.382 271.129 119.588 271.541 120.001L278.345 128.661C278.345 129.073 278.345 129.279 278.345 129.279V230.104C278.345 230.104 278.139 230.31 277.727 230.723L263.5 238.764C263.5 239.176 263.294 239.382 262.881 239.382ZM254.84 236.29L262.881 236.908L276.49 229.486V129.898L271.541 123.712V225.774C271.541 226.186 271.335 226.599 270.923 227.011L254.84 236.29Z" fill="#02D7F2"/>
<path d="M256.696 166.39V82.2667L250.511 78.5553L241.851 57.5244L256.696 66.1842L270.923 74.2254V80.411V183.71L256.696 166.39Z" fill="#02D7F2"/>
<path fill-rule="evenodd" clip-rule="evenodd" d="M270.928 184.33C270.516 184.33 270.103 184.33 269.691 184.33L256.083 167.01C256.083 166.598 256.083 166.392 256.083 166.392V82.8866L249.898 79.1753C249.485 79.1753 249.279 78.9691 249.279 78.5567L241.238 58.1443C240.825 57.732 240.825 57.3196 241.238 56.9072C241.65 56.9072 242.062 56.9072 242.475 56.9072L270.928 73.6082C271.341 73.6082 271.547 73.8145 271.547 74.2268V183.711C271.547 184.124 271.341 184.33 270.928 184.33ZM257.939 165.773L269.691 180.619V74.8454L243.712 60L251.134 77.9382L257.32 81.6495C257.732 81.6495 257.939 81.8557 257.939 82.2681V165.773Z" fill="#02D7F2"/>
<path d="M234.432 69.2792L226.391 48.8667L218.968 44.5369L227.628 65.5679L234.432 69.2792Z" fill="#02D7F2"/>
<path fill-rule="evenodd" clip-rule="evenodd" d="M236.286 71.7523L227.007 66.1852L217.11 42.0615L227.007 48.2471L236.286 71.7523ZM228.244 64.3295L231.956 66.8038L225.152 49.4842L220.822 47.01L228.244 64.3295Z" fill="#02D7F2"/>
<path d="M211.542 56.2884L203.501 35.876L196.697 31.5461L204.738 52.577L211.542 56.2884Z" fill="#02D7F2"/>
<path fill-rule="evenodd" clip-rule="evenodd" d="M214.015 58.7616L204.118 53.1946L194.221 29.0708L204.118 34.6379L214.015 58.7616ZM205.974 51.9574L210.304 54.4317L202.881 36.4935L199.17 34.6379L205.974 51.9574Z" fill="#02D7F2"/>
<path d="M183.711 276.495L144.123 299.382V291.341L172.577 275.258L183.711 276.495Z" fill="#02D7F2"/>
<path fill-rule="evenodd" clip-rule="evenodd" d="M144.119 300C144.119 300 143.913 300 143.501 300C143.088 300 142.882 299.794 142.882 299.381V291.34C142.882 290.928 143.088 290.515 143.501 290.103L171.954 274.021C171.954 274.021 172.161 274.021 172.573 274.021L183.707 275.258C184.119 275.67 184.325 276.082 184.325 276.495C184.325 276.907 184.119 277.113 183.707 277.113L144.738 300C144.326 300 144.119 300 144.119 300ZM145.356 291.959V297.526L180.614 277.113L172.573 275.876L145.356 291.959Z" fill="#02D7F2"/>
<path d="M144.123 1.23755L183.711 23.5056L173.195 25.9798L144.123 8.66022V1.23755Z" fill="#02D7F2"/>
<path fill-rule="evenodd" clip-rule="evenodd" d="M173.191 26.598C173.191 26.598 172.985 26.598 172.573 26.598L143.501 9.89695C143.088 9.48458 142.882 9.07213 142.882 8.65976V1.2371C142.882 0.824724 143.088 0.412371 143.501 0C143.913 0 144.326 0 144.738 0L183.707 22.8866C184.119 22.8866 184.325 23.2989 184.325 24.1237C184.325 24.5361 184.119 24.7423 183.707 24.7423L173.191 26.598ZM145.356 8.65976L173.191 24.7423L180.614 23.5052L145.356 3.09279V8.65976Z" fill="#02D7F2"/>
<path d="M227.009 252.371L225.153 251.752L233.813 230.721C233.813 230.309 233.813 230.103 233.813 230.103L256.081 217.113V166.391H257.937V217.732V218.35C257.937 218.35 257.73 218.556 257.318 218.969L235.05 231.34L227.009 252.371Z" fill="#02D7F2"/>
<path d="M242.472 243.093L240.616 242.475L249.276 221.444L251.132 222.062L242.472 243.093Z" fill="#02D7F2"/>
<path d="M244.946 218.352L243.709 216.496L249.276 213.403V152.166H251.131V214.022C251.131 214.434 250.925 214.64 250.513 214.64V215.259L244.946 218.352Z" fill="#02D7F2"/>
<path d="M278.345 92.1639H276.489V71.133L233.19 45.7721L234.428 43.9165L278.345 69.2773C278.345 69.6897 278.345 70.102 278.345 70.5144V92.1639Z" fill="#02D7F2"/>
<path d="M130.512 297.526L12.9864 230.104L8.03802 227.011C7.62565 226.599 7.41962 226.186 7.41962 225.774V218.97V80.4129V74.2273C7.41962 73.815 7.62565 73.6087 8.03802 73.6087L19.172 66.8047L101.44 19.1758L102.677 21.0314L20.4092 68.6604L9.27521 74.8459V80.4129V218.97V225.155L14.2236 228.248L131.131 295.671L130.512 297.526Z" fill="#02D7F2"/>
<path d="M27.214 236.29L8.03854 225.775V217.734V212.785V199.795V173.197V120.62L1.23456 129.28V177.527V202.27V214.641V230.105L16.0797 238.146L27.214 236.29Z" fill="#02D7F2"/>
<path fill-rule="evenodd" clip-rule="evenodd" d="M16.0812 239.382C15.6689 239.382 15.4628 239.176 15.4628 238.764L1.23609 230.723C0.823722 230.31 0.61731 230.104 0.61731 230.104V129.279C0.61731 129.279 0.61731 129.073 0.61731 128.661L7.42166 120.001C7.83404 119.588 8.24648 119.382 8.65885 119.382C9.07123 119.795 9.27726 120.207 9.27726 120.619V225.156L27.2156 235.671C27.6279 236.083 27.834 236.496 27.834 236.908C27.834 237.321 27.6279 237.527 27.2156 237.527L16.0812 239.382ZM2.47328 229.486L16.0812 236.908L24.1228 236.29L8.04007 227.011C7.6277 226.599 7.42166 226.186 7.42166 225.774V123.712L2.47328 129.898V229.486Z" fill="#02D7F2"/>
<path d="M22.2637 166.39V82.2667L28.4492 78.5553L37.1092 57.5244L22.2637 66.1842L8.03693 74.2254V80.411V183.71L22.2637 166.39Z" fill="#02D7F2"/>
<path fill-rule="evenodd" clip-rule="evenodd" d="M8.03802 184.33C7.62565 184.33 7.41962 184.124 7.41962 183.711V74.2268C7.41962 73.8145 7.62565 73.6082 8.03802 73.6082L36.4919 56.9072C36.9042 56.9072 37.3163 56.9072 37.7287 56.9072C38.1411 57.3196 38.1411 57.732 37.7287 58.1443L29.6875 78.5567C29.6875 78.9691 29.4815 79.1753 29.0691 79.1753L22.8835 82.8866V166.392C22.8835 166.392 22.8835 166.598 22.8835 167.01L9.27521 184.33C8.86284 184.33 8.45039 184.33 8.03802 184.33ZM9.27521 74.8454V180.619L21.0279 165.773V82.2681C21.0279 81.8557 21.234 81.6495 21.6464 81.6495L27.8319 77.9382L35.2547 60L9.27521 74.8454Z" fill="#02D7F2"/>
<path d="M44.5303 69.2792L52.5714 48.8667L59.3754 44.5369L51.3343 65.5679L44.5303 69.2792Z" fill="#02D7F2"/>
<path fill-rule="evenodd" clip-rule="evenodd" d="M42.6788 71.7523L51.9571 48.2471L61.8539 42.0615L51.9571 66.1852L42.6788 71.7523ZM53.8127 49.4842L47.0084 66.8038L50.7199 64.3295L58.1427 47.01L53.8127 49.4842Z" fill="#02D7F2"/>
<path d="M67.4193 56.2884L75.4605 35.876L82.2645 31.5461L74.2233 52.577L67.4193 56.2884Z" fill="#02D7F2"/>
<path fill-rule="evenodd" clip-rule="evenodd" d="M64.9441 58.7616L74.8409 34.6379L84.1192 29.0708L74.8409 53.1946L64.9441 58.7616ZM76.078 36.4935L69.2741 53.8131L72.9853 51.3389L79.7896 34.0193L76.078 36.4935Z" fill="#02D7F2"/>
<path d="M95.2524 276.495L134.84 299.382V291.341L106.386 275.258L95.2524 276.495Z" fill="#02D7F2"/>
<path fill-rule="evenodd" clip-rule="evenodd" d="M134.841 300C134.429 300 134.223 300 134.223 300L95.2539 277.113C94.8415 277.113 94.6351 276.907 94.6351 276.495C94.6351 276.082 94.8415 275.67 95.2539 275.258L106.388 274.021C106.8 274.021 107.006 274.021 107.006 274.021L135.46 290.103C135.873 290.515 136.079 290.928 136.079 291.34V299.381C136.079 299.794 135.873 300 135.46 300C135.048 300 134.841 300 134.841 300ZM98.3467 277.113L133.604 297.526V291.959L106.388 275.876L98.3467 277.113Z" fill="#02D7F2"/>
<path d="M134.84 1.23755L95.2524 23.5056L105.768 25.9798L134.84 8.66022V1.23755Z" fill="#02D7F2"/>
<path fill-rule="evenodd" clip-rule="evenodd" d="M105.769 26.598L95.2539 24.7423C94.8415 24.7423 94.6351 24.5361 94.6351 24.1237C94.6351 23.2989 94.8415 22.8866 95.2539 22.8866L134.223 0C134.635 0 135.048 0 135.46 0C135.873 0.412371 136.079 0.824724 136.079 1.2371V8.65976C136.079 9.07213 135.873 9.48458 135.46 9.89695L106.388 26.598C105.975 26.598 105.769 26.598 105.769 26.598ZM98.3467 23.5052L105.769 24.7423L133.604 8.65976V3.09279L98.3467 23.5052Z" fill="#02D7F2"/>
<path d="M51.9586 252.371L43.2987 231.34L21.6492 218.969C21.2368 218.556 21.0308 218.35 21.0308 218.35V217.732V166.391H22.8864V217.113L45.1543 230.103C45.1543 230.103 45.1543 230.309 45.1543 230.721L53.8142 251.752L51.9586 252.371Z" fill="#02D7F2"/>
<path d="M36.493 243.093L27.8331 222.062L29.6887 221.444L38.3486 242.475L36.493 243.093Z" fill="#02D7F2"/>
<path d="M34.0186 218.352L28.4515 215.259V214.64C28.0391 214.64 27.8331 214.434 27.8331 214.022V152.166H29.6887V213.403L35.2558 216.496L34.0186 218.352Z" fill="#02D7F2"/>
<path d="M2.47438 92.1639H0V70.5144C0.412371 70.102 0.618406 69.6897 0.618406 69.2773L44.5362 43.9165L45.7734 45.7721L2.47438 71.133V92.1639Z" fill="#02D7F2"/>
<path d="M130.816 155.712L165.376 122.304V107.136L152.32 94.272H122.176L109.888 106.368V114.24H95.68V101.952L116.032 81.6H158.464L179.584 102.72V126.144L144.64 159.936V185.088H130.816V155.712ZM128.704 210.816V203.136L133.888 197.952H141.568L146.752 203.136V210.816L141.568 216H133.888L128.704 210.816Z" fill="#02D7F2"/>
</svg>
