<svg width="37" height="36" viewBox="0 0 37 36" fill="none" xmlns="http://www.w3.org/2000/svg">
<g id="Group">
<path id="Vector" d="M18.0569 0H17.975C8.0594 0 0.0212402 8.04052 0.0212402 17.959V18.041C0.0212402 27.9595 8.0594 36 17.975 36H18.0569C27.9725 36 36.0106 27.9595 36.0106 18.041V17.959C36.0106 8.04052 27.9725 0 18.0569 0Z" fill="#383D38"/>
<g id="Group_2">
<path id="Vector_2" d="M21.5223 23.2651C16.9163 23.2651 13.169 19.5154 13.1677 14.908C13.169 13.7401 14.1197 12.7904 15.2848 12.7904C15.4045 12.7904 15.523 12.8005 15.6365 12.8206C15.8862 12.8623 16.1232 12.9468 16.3414 13.0742C16.3729 13.0931 16.3943 13.1234 16.3994 13.1587L16.8861 16.2273C16.8924 16.2626 16.881 16.2992 16.8571 16.3257C16.5885 16.6233 16.2455 16.8377 15.8635 16.945L15.6794 16.9967L15.7487 17.1745C16.3767 18.7738 17.6552 20.0514 19.2553 20.6821L19.4331 20.7527L19.4847 20.5685C19.5919 20.1864 19.8063 19.8433 20.1038 19.5747C20.1253 19.5545 20.1543 19.5444 20.1833 19.5444C20.1896 19.5444 20.1959 19.5444 20.2035 19.5457L23.2712 20.0325C23.3078 20.0388 23.338 20.059 23.3569 20.0905C23.483 20.3087 23.5675 20.5471 23.6104 20.7968C23.6305 20.9078 23.6394 21.0251 23.6394 21.1475C23.6394 22.3141 22.6899 23.2638 21.5223 23.2651Z" fill="#FDFDFD"/>
<path id="Vector_3" d="M29.6903 16.9892C29.4419 14.1816 28.1558 11.5771 26.069 9.65623C23.9696 7.72399 21.2461 6.65948 18.3978 6.65948C12.1463 6.65948 7.05992 11.7474 7.05992 18.0007C7.05992 20.0994 7.63866 22.1439 8.73437 23.9248L6.29077 29.3356L14.1146 28.5019C15.4751 29.0594 16.915 29.3419 18.3965 29.3419C18.7861 29.3419 19.1858 29.3217 19.5868 29.2801C19.9399 29.2423 20.2967 29.1868 20.6472 29.1161C25.8824 28.0579 29.7041 23.4102 29.7344 18.0612V18.0007C29.7344 17.6602 29.7193 17.3196 29.689 16.9904L29.6903 16.9892ZM14.4159 26.127L10.0873 26.5886L11.3797 23.7243L11.1212 23.3774C11.1023 23.3522 11.0834 23.327 11.062 23.298C9.93978 21.7479 9.34715 19.9165 9.34715 18.002C9.34715 13.0099 13.4072 8.94867 18.3978 8.94867C23.0731 8.94867 27.0361 12.5975 27.4182 17.2553C27.4383 17.505 27.4497 17.756 27.4497 18.0032C27.4497 18.0738 27.4484 18.1432 27.4472 18.2176C27.3513 22.3936 24.4349 25.9403 20.3547 26.8434C20.0432 26.9127 19.7242 26.9657 19.4065 26.9997C19.0761 27.0376 18.737 27.0565 18.4003 27.0565C17.2012 27.0565 16.0362 26.8244 14.9354 26.3653C14.8131 26.3161 14.6933 26.2632 14.5811 26.2089L14.4172 26.1295L14.4159 26.127Z" fill="#FDFDFD"/>
</g>
</g>
</svg>
