<svg width="1202" height="267" viewBox="0 0 1202 267" fill="none" xmlns="http://www.w3.org/2000/svg">
<path d="M1200.12 76H588.745L542.752 17H95.125" stroke="url(#paint0_linear_293_3736)" stroke-width="2" stroke-linecap="square"/>
<path d="M1044 191H1045V189H1044V191ZM798 131L808 136.774V125.226L798 131ZM1003 190L1002.39 190.792L1002.66 191H1003V190ZM926.413 131L927.023 130.208L926.754 130H926.413V131ZM1044 189H1003V191H1044V189ZM1003.61 189.208L927.023 130.208L925.803 131.792L1002.39 190.792L1003.61 189.208ZM926.413 130H807V132H926.413V130Z" fill="url(#paint1_linear_293_3736)"/>
<path d="M427.644 249H388.154L319.419 140H261.783" stroke="url(#paint2_linear_293_3736)" stroke-width="2" stroke-linecap="square"/>
<path d="M1 77H0V75H1V77ZM1094 17L1084 22.7735V11.2265L1094 17ZM455.868 76L456.237 76.9294L456.059 77H455.868V76ZM604.396 17L604.027 16.0706L604.205 16H604.396V17ZM1 75H455.868V77H1V75ZM455.499 75.0706L604.027 16.0706L604.766 17.9294L456.237 76.9294L455.499 75.0706ZM604.396 16H1085V18H604.396V16Z" fill="url(#paint3_linear_293_3736)"/>
<path d="M535.5 189H536.5V191H535.5V189ZM24.98 249L34.98 243.226V254.774L24.98 249ZM400.833 190L400.179 189.244L400.461 189H400.833V190ZM332.646 249L333.3 249.756L333.019 250H332.646V249ZM535.5 191H400.833V189H535.5V191ZM401.488 190.756L333.3 249.756L331.992 248.244L400.179 189.244L401.488 190.756ZM332.646 250H33.98V248H332.646V250Z" fill="url(#paint4_linear_293_3736)"/>
<path d="M1201 127H1202V129H1201V127ZM1002.5 128L1001.7 127.398L1002 127H1002.5V128ZM909 252L909.798 252.602L909.498 253L909 253L909 252ZM1201 129H1002.5V127H1201V129ZM1003.3 128.602L909.798 252.602L908.202 251.398L1001.7 127.398L1003.3 128.602ZM909 253L562 253L562 251L909 251L909 253Z" fill="url(#paint5_linear_293_3736)"/>
<path d="M6.73047 25.1758C6.0625 25.1758 5.44727 25.0615 4.88477 24.833C4.32812 24.6045 3.85059 24.2852 3.45215 23.875C3.05371 23.4648 2.74316 22.9785 2.52051 22.416C2.29785 21.8535 2.18652 21.2412 2.18652 20.5791V20.21C2.18652 19.4424 2.30957 18.7568 2.55566 18.1533C2.80176 17.5439 3.12988 17.0283 3.54004 16.6064C3.94434 16.1904 4.4043 15.8711 4.91992 15.6484C5.44141 15.4258 5.97461 15.3145 6.51953 15.3145C7.20508 15.3145 7.80273 15.4346 8.3125 15.6748C8.82812 15.9092 9.25586 16.2344 9.5957 16.6504C9.93555 17.0723 10.1875 17.5674 10.3516 18.1357C10.5215 18.7041 10.6064 19.3193 10.6064 19.9814V20.7109H3.8125V20.7725C3.85352 21.2354 3.94434 21.6426 4.08496 21.9941C4.23145 22.3457 4.43066 22.6562 4.68262 22.9258C4.94043 23.2129 5.25098 23.4385 5.61426 23.6025C5.97754 23.7666 6.37891 23.8486 6.81836 23.8486C7.39844 23.8486 7.91406 23.7314 8.36523 23.4971C8.81641 23.2627 9.19141 22.9521 9.49023 22.5654L10.4834 23.3389C10.167 23.8193 9.69238 24.2471 9.05957 24.6221C8.43262 24.9912 7.65625 25.1758 6.73047 25.1758ZM6.51953 16.6504C6.19141 16.6504 5.88086 16.7119 5.58789 16.835C5.29492 16.9521 5.03125 17.125 4.79688 17.3535C4.5625 17.5879 4.36328 17.875 4.19922 18.2148C4.04102 18.5488 3.92969 18.9355 3.86523 19.375H8.98047V19.2959C8.98047 19.0029 8.9248 18.6895 8.81348 18.3555C8.70215 18.0156 8.54688 17.7227 8.34766 17.4766C8.14844 17.2305 7.89648 17.0312 7.5918 16.8789C7.29297 16.7266 6.93555 16.6504 6.51953 16.6504ZM13.3398 25V15.4902H14.7988L14.9131 16.8965C15.0537 16.6973 15.2061 16.5156 15.3701 16.3516C15.54 16.1816 15.7188 16.0352 15.9062 15.9121C16.1875 15.7246 16.4922 15.5811 16.8203 15.4814C17.1543 15.376 17.5059 15.3203 17.875 15.3145C18.373 15.3145 18.8242 15.3848 19.2285 15.5254C19.6387 15.666 19.9873 15.8857 20.2744 16.1846C20.5615 16.4834 20.7812 16.8643 20.9336 17.3271C21.0918 17.7842 21.1709 18.3291 21.1709 18.9619V25H19.5449V18.9971C19.5449 18.5752 19.498 18.2178 19.4043 17.9248C19.3105 17.6318 19.1729 17.3945 18.9912 17.2129C18.8037 17.0312 18.5752 16.8994 18.3057 16.8174C18.042 16.7354 17.7373 16.6943 17.3916 16.6943C17.0928 16.6943 16.8145 16.7383 16.5566 16.8262C16.2988 16.9082 16.0615 17.0225 15.8447 17.1689C15.6689 17.2979 15.5049 17.4473 15.3525 17.6172C15.2061 17.7871 15.0771 17.9746 14.9658 18.1797V25H13.3398ZM28.2021 23.8574C28.4951 23.8574 28.7793 23.8105 29.0547 23.7168C29.3359 23.623 29.585 23.4912 29.8018 23.3213C30.0186 23.1572 30.1914 22.9639 30.3203 22.7412C30.4551 22.5127 30.5254 22.2666 30.5312 22.0029H32.0693C32.0635 22.4248 31.9521 22.8291 31.7354 23.2158C31.5244 23.5967 31.2402 23.9307 30.8828 24.2178C30.5254 24.5107 30.1152 24.7451 29.6523 24.9209C29.1895 25.0908 28.7061 25.1758 28.2021 25.1758C27.4814 25.1758 26.8516 25.0469 26.3125 24.7891C25.7734 24.5312 25.3252 24.1826 24.9678 23.7432C24.6045 23.3096 24.332 22.8086 24.1504 22.2402C23.9688 21.666 23.8779 21.0625 23.8779 20.4297V20.0605C23.8779 19.4336 23.9688 18.833 24.1504 18.2588C24.332 17.6846 24.6045 17.1777 24.9678 16.7383C25.3252 16.3047 25.7734 15.959 26.3125 15.7012C26.8516 15.4434 27.4814 15.3145 28.2021 15.3145C28.7646 15.3145 29.2803 15.4053 29.749 15.5869C30.2236 15.7627 30.6338 16.0029 30.9795 16.3076C31.3193 16.6182 31.5859 16.9844 31.7793 17.4062C31.9727 17.8281 32.0693 18.2793 32.0693 18.7598H30.5312C30.5254 18.4727 30.4609 18.2031 30.3379 17.9512C30.2207 17.6934 30.0596 17.4678 29.8545 17.2744C29.6494 17.0811 29.4033 16.9287 29.1162 16.8174C28.835 16.7061 28.5303 16.6504 28.2021 16.6504C27.6982 16.6504 27.2734 16.7529 26.9277 16.958C26.5879 17.1572 26.3125 17.418 26.1016 17.7402C25.8906 18.0684 25.7383 18.4346 25.6445 18.8389C25.5566 19.2432 25.5127 19.6504 25.5127 20.0605V20.4297C25.5127 20.8457 25.5566 21.2588 25.6445 21.6689C25.7383 22.0732 25.8906 22.4365 26.1016 22.7588C26.3066 23.0869 26.5791 23.3535 26.9189 23.5586C27.2646 23.7578 27.6924 23.8574 28.2021 23.8574ZM41.1924 15.3145C41.4912 15.3145 41.8018 15.335 42.124 15.376C42.4521 15.417 42.6982 15.4727 42.8623 15.543L42.6426 17.1338C42.3262 17.0635 42.0244 17.0137 41.7373 16.9844C41.4561 16.9492 41.1602 16.9316 40.8496 16.9316C40.4512 16.9316 40.0908 16.9814 39.7686 17.0811C39.4463 17.1748 39.165 17.3154 38.9248 17.5029C38.708 17.667 38.5176 17.8691 38.3535 18.1094C38.1953 18.3438 38.0635 18.6074 37.958 18.9004V25H36.3232V15.4902H37.8701L37.9404 16.7646L37.9492 17.002C38.3359 16.4805 38.7988 16.0703 39.3379 15.7715C39.8828 15.4668 40.501 15.3145 41.1924 15.3145ZM46.5361 28.8408C46.3838 28.8408 46.2051 28.8232 46 28.7881C45.7949 28.7529 45.6396 28.7236 45.5342 28.7002L45.7979 27.373C45.9443 27.3848 46.0879 27.3936 46.2285 27.3994C46.375 27.4111 46.4893 27.417 46.5713 27.417C46.7939 27.417 46.9961 27.3555 47.1777 27.2324C47.3652 27.1094 47.5322 26.9629 47.6787 26.793C47.8193 26.623 47.9395 26.4473 48.0391 26.2656C48.1445 26.084 48.2266 25.9346 48.2852 25.8174L48.9355 24.5518L44.8398 15.4902H46.6592L49.2695 21.625L49.6914 22.7764L50.1396 21.6602L52.5918 15.4902H54.4111L49.5859 26.4678C49.4746 26.7139 49.3311 26.9746 49.1553 27.25C48.9854 27.5254 48.7773 27.7803 48.5312 28.0146C48.2852 28.249 47.998 28.4453 47.6699 28.6035C47.3418 28.7617 46.9639 28.8408 46.5361 28.8408ZM56.5732 28.6562V15.4902H58.0586L58.1377 16.5273C58.2666 16.3633 58.4072 16.2168 58.5596 16.0879C58.7119 15.9531 58.876 15.8389 59.0518 15.7451C59.2979 15.6045 59.5703 15.499 59.8691 15.4287C60.1738 15.3525 60.499 15.3145 60.8447 15.3145C61.4541 15.3145 61.9932 15.4346 62.4619 15.6748C62.9307 15.915 63.3232 16.249 63.6396 16.6768C63.9561 17.1045 64.1963 17.6172 64.3604 18.2148C64.5244 18.8066 64.6064 19.457 64.6064 20.166V20.3506C64.6064 21.0303 64.5244 21.666 64.3604 22.2578C64.1963 22.8438 63.9561 23.3535 63.6396 23.7871C63.3232 24.2207 62.9307 24.5605 62.4619 24.8066C61.999 25.0527 61.4688 25.1758 60.8711 25.1758C60.5078 25.1758 60.168 25.1377 59.8516 25.0615C59.541 24.9854 59.2598 24.877 59.0078 24.7363C58.8555 24.6484 58.7119 24.5518 58.5771 24.4463C58.4424 24.335 58.3164 24.2148 58.1992 24.0859V28.6562H56.5732ZM62.9805 20.166C62.9805 19.7031 62.9277 19.2637 62.8223 18.8477C62.7227 18.4258 62.5674 18.0537 62.3564 17.7314C62.1396 17.415 61.8672 17.1631 61.5391 16.9756C61.2109 16.7881 60.8184 16.6943 60.3613 16.6943C60.1094 16.6943 59.875 16.7236 59.6582 16.7822C59.4473 16.8408 59.2568 16.9258 59.0869 17.0371C58.8994 17.1484 58.7324 17.2861 58.5859 17.4502C58.4395 17.6143 58.3105 17.7959 58.1992 17.9951V22.5742C58.2988 22.75 58.4131 22.9141 58.542 23.0664C58.6709 23.2188 58.8174 23.3477 58.9814 23.4531C59.1689 23.5762 59.377 23.6729 59.6055 23.7432C59.8398 23.8135 60.0977 23.8486 60.3789 23.8486C60.8301 23.8486 61.2197 23.7549 61.5479 23.5674C61.876 23.374 62.1455 23.1162 62.3564 22.7939C62.5674 22.4717 62.7227 22.0996 62.8223 21.6777C62.9277 21.2559 62.9805 20.8135 62.9805 20.3506V20.166ZM71.2422 13.1875V15.4902H74.8633V16.7471H71.2422V21.915C71.2422 22.2842 71.2891 22.5889 71.3828 22.8291C71.4766 23.0693 71.6055 23.2598 71.7695 23.4004C71.9336 23.5469 72.1211 23.6494 72.332 23.708C72.5488 23.7666 72.7773 23.7959 73.0176 23.7959C73.1934 23.7959 73.375 23.7871 73.5625 23.7695C73.75 23.7461 73.9346 23.7197 74.1162 23.6904C74.292 23.6611 74.4561 23.6318 74.6084 23.6025C74.7666 23.5674 74.8955 23.5381 74.9951 23.5146L75.2236 24.666C75.0889 24.748 74.9248 24.8213 74.7314 24.8857C74.5381 24.9443 74.3271 24.9941 74.0986 25.0352C73.8701 25.082 73.627 25.1172 73.3691 25.1406C73.1172 25.1641 72.8652 25.1758 72.6133 25.1758C72.1914 25.1758 71.7959 25.1172 71.4268 25C71.0635 24.877 70.7471 24.6836 70.4775 24.4199C70.208 24.1621 69.9941 23.8281 69.8359 23.418C69.6836 23.002 69.6074 22.501 69.6074 21.915V16.7471H67.1113V15.4902H69.6074V13.1875H71.2422Z" fill="#999EA4"/>
<path d="M1124.46 23.6367C1124.46 23.3789 1124.41 23.1484 1124.31 22.9453C1124.21 22.7344 1124.04 22.543 1123.8 22.3711C1123.55 22.1992 1123.23 22.043 1122.84 21.9023C1122.44 21.7539 1121.94 21.6211 1121.35 21.5039C1120.62 21.3555 1119.96 21.1758 1119.36 20.9648C1118.76 20.7539 1118.25 20.5 1117.83 20.2031C1117.4 19.9141 1117.07 19.5742 1116.84 19.1836C1116.6 18.7852 1116.48 18.3242 1116.48 17.8008C1116.48 17.2852 1116.61 16.8047 1116.85 16.3594C1117.09 15.9062 1117.43 15.5117 1117.87 15.1758C1118.3 14.8398 1118.82 14.5742 1119.43 14.3789C1120.04 14.1836 1120.7 14.0859 1121.43 14.0859C1122.21 14.0859 1122.91 14.1875 1123.54 14.3906C1124.16 14.5938 1124.7 14.875 1125.13 15.2344C1125.57 15.5938 1125.91 16.0156 1126.14 16.5C1126.38 16.9766 1126.5 17.4922 1126.5 18.0469H1124.34C1124.34 17.7734 1124.27 17.5078 1124.12 17.25C1123.98 16.9844 1123.79 16.75 1123.54 16.5469C1123.29 16.3438 1122.98 16.1797 1122.62 16.0547C1122.27 15.9297 1121.88 15.8672 1121.43 15.8672C1120.97 15.8672 1120.56 15.918 1120.21 16.0195C1119.87 16.1211 1119.58 16.2578 1119.36 16.4297C1119.12 16.6016 1118.95 16.8008 1118.83 17.0273C1118.71 17.2539 1118.65 17.4883 1118.65 17.7305C1118.65 17.9805 1118.7 18.2031 1118.79 18.3984C1118.89 18.5938 1119.05 18.7695 1119.29 18.9258C1119.51 19.082 1119.82 19.2227 1120.2 19.3477C1120.59 19.4727 1121.08 19.5938 1121.68 19.7109C1122.46 19.875 1123.16 20.0664 1123.77 20.2852C1124.39 20.4961 1124.91 20.75 1125.33 21.0469C1125.75 21.3516 1126.07 21.7031 1126.29 22.1016C1126.52 22.5 1126.63 22.9609 1126.63 23.4844C1126.63 24.0469 1126.5 24.5586 1126.25 25.0195C1126 25.4805 1125.64 25.875 1125.19 26.2031C1124.74 26.5312 1124.2 26.7852 1123.56 26.9648C1122.93 27.1445 1122.24 27.2344 1121.49 27.2344C1120.63 27.2344 1119.86 27.1211 1119.19 26.8945C1118.52 26.6602 1117.95 26.3516 1117.49 25.9688C1117.02 25.5938 1116.66 25.1562 1116.41 24.6562C1116.17 24.1562 1116.05 23.6367 1116.05 23.0977H1118.22C1118.25 23.543 1118.37 23.918 1118.57 24.2227C1118.78 24.5273 1119.04 24.7734 1119.36 24.9609C1119.66 25.1484 1120 25.2812 1120.38 25.3594C1120.75 25.4375 1121.12 25.4766 1121.49 25.4766C1122.07 25.4766 1122.57 25.4102 1123 25.2773C1123.43 25.1367 1123.77 24.9453 1124.01 24.7031C1124.16 24.5547 1124.27 24.3906 1124.35 24.2109C1124.43 24.0312 1124.46 23.8398 1124.46 23.6367ZM1136.05 27.2344C1135.16 27.2344 1134.34 27.082 1133.59 26.7773C1132.85 26.4727 1132.21 26.0469 1131.68 25.5C1131.15 24.9531 1130.74 24.3047 1130.44 23.5547C1130.14 22.8047 1130 21.9883 1130 21.1055V20.6133C1130 19.5898 1130.16 18.6758 1130.49 17.8711C1130.82 17.0586 1131.25 16.3711 1131.8 15.8086C1132.34 15.2539 1132.95 14.8281 1133.64 14.5312C1134.34 14.2344 1135.05 14.0859 1135.77 14.0859C1136.69 14.0859 1137.48 14.2461 1138.16 14.5664C1138.85 14.8789 1139.42 15.3125 1139.88 15.8672C1140.33 16.4297 1140.66 17.0898 1140.88 17.8477C1141.11 18.6055 1141.22 19.4258 1141.22 20.3086V21.2812H1132.16V21.3633C1132.22 21.9805 1132.34 22.5234 1132.53 22.9922C1132.72 23.4609 1132.99 23.875 1133.32 24.2344C1133.67 24.6172 1134.08 24.918 1134.57 25.1367C1135.05 25.3555 1135.59 25.4648 1136.17 25.4648C1136.95 25.4648 1137.63 25.3086 1138.23 24.9961C1138.84 24.6836 1139.34 24.2695 1139.73 23.7539L1141.06 24.7852C1140.64 25.4258 1140 25.9961 1139.16 26.4961C1138.32 26.9883 1137.29 27.2344 1136.05 27.2344ZM1135.77 15.8672C1135.34 15.8672 1134.92 15.9492 1134.53 16.1133C1134.14 16.2695 1133.79 16.5 1133.48 16.8047C1133.16 17.1172 1132.9 17.5 1132.68 17.9531C1132.47 18.3984 1132.32 18.9141 1132.23 19.5H1139.05V19.3945C1139.05 19.0039 1138.98 18.5859 1138.83 18.1406C1138.68 17.6875 1138.48 17.2969 1138.21 16.9688C1137.95 16.6406 1137.61 16.375 1137.2 16.1719C1136.8 15.9688 1136.33 15.8672 1135.77 15.8672ZM1150.27 25.4766C1150.66 25.4766 1151.04 25.4141 1151.41 25.2891C1151.78 25.1641 1152.11 24.9883 1152.4 24.7617C1152.69 24.543 1152.92 24.2852 1153.09 23.9883C1153.27 23.6836 1153.37 23.3555 1153.38 23.0039H1155.43C1155.42 23.5664 1155.27 24.1055 1154.98 24.6211C1154.7 25.1289 1154.32 25.5742 1153.84 25.957C1153.37 26.3477 1152.82 26.6602 1152.2 26.8945C1151.59 27.1211 1150.94 27.2344 1150.27 27.2344C1149.31 27.2344 1148.47 27.0625 1147.75 26.7188C1147.03 26.375 1146.43 25.9102 1145.96 25.3242C1145.47 24.7461 1145.11 24.0781 1144.87 23.3203C1144.62 22.5547 1144.5 21.75 1144.5 20.9062V20.4141C1144.5 19.5781 1144.62 18.7773 1144.87 18.0117C1145.11 17.2461 1145.47 16.5703 1145.96 15.9844C1146.43 15.4062 1147.03 14.9453 1147.75 14.6016C1148.47 14.2578 1149.31 14.0859 1150.27 14.0859C1151.02 14.0859 1151.71 14.207 1152.33 14.4492C1152.96 14.6836 1153.51 15.0039 1153.97 15.4102C1154.43 15.8242 1154.78 16.3125 1155.04 16.875C1155.3 17.4375 1155.43 18.0391 1155.43 18.6797H1153.38C1153.37 18.2969 1153.28 17.9375 1153.12 17.6016C1152.96 17.2578 1152.75 16.957 1152.47 16.6992C1152.2 16.4414 1151.87 16.2383 1151.49 16.0898C1151.11 15.9414 1150.71 15.8672 1150.27 15.8672C1149.6 15.8672 1149.03 16.0039 1148.57 16.2773C1148.12 16.543 1147.75 16.8906 1147.47 17.3203C1147.19 17.7578 1146.98 18.2461 1146.86 18.7852C1146.74 19.3242 1146.68 19.8672 1146.68 20.4141V20.9062C1146.68 21.4609 1146.74 22.0117 1146.86 22.5586C1146.98 23.0977 1147.19 23.582 1147.47 24.0117C1147.74 24.4492 1148.11 24.8047 1148.56 25.0781C1149.02 25.3438 1149.59 25.4766 1150.27 25.4766ZM1167.64 27L1167.51 25.2539C1167.09 25.8789 1166.56 26.3672 1165.93 26.7188C1165.29 27.0625 1164.56 27.2344 1163.73 27.2344C1163.07 27.2344 1162.47 27.1328 1161.93 26.9297C1161.39 26.7188 1160.93 26.3945 1160.55 25.957C1160.16 25.5195 1159.87 24.9648 1159.66 24.293C1159.45 23.6133 1159.35 22.8008 1159.35 21.8555V14.3203H1161.52V21.8789C1161.52 22.5664 1161.57 23.1367 1161.68 23.5898C1161.79 24.043 1161.96 24.4023 1162.18 24.668C1162.39 24.9414 1162.66 25.1328 1162.97 25.2422C1163.29 25.3516 1163.66 25.4062 1164.07 25.4062C1164.56 25.4062 1164.99 25.3516 1165.38 25.2422C1165.76 25.125 1166.09 24.9648 1166.37 24.7617C1166.61 24.5977 1166.81 24.4023 1166.98 24.1758C1167.16 23.9414 1167.31 23.6875 1167.43 23.4141V14.3203H1169.61V27H1167.64ZM1182 14.0859C1182.4 14.0859 1182.82 14.1133 1183.25 14.168C1183.68 14.2227 1184.01 14.2969 1184.23 14.3906L1183.94 16.5117C1183.52 16.418 1183.11 16.3516 1182.73 16.3125C1182.36 16.2656 1181.96 16.2422 1181.55 16.2422C1181.02 16.2422 1180.54 16.3086 1180.11 16.4414C1179.68 16.5664 1179.3 16.7539 1178.98 17.0039C1178.69 17.2227 1178.44 17.4922 1178.22 17.8125C1178.01 18.125 1177.83 18.4766 1177.69 18.8672V27H1175.51V14.3203H1177.57L1177.67 16.0195L1177.68 16.3359C1178.2 15.6406 1178.81 15.0938 1179.53 14.6953C1180.26 14.2891 1181.08 14.0859 1182 14.0859ZM1193.71 27.2344C1192.82 27.2344 1192 27.082 1191.25 26.7773C1190.51 26.4727 1189.87 26.0469 1189.34 25.5C1188.81 24.9531 1188.39 24.3047 1188.1 23.5547C1187.8 22.8047 1187.65 21.9883 1187.65 21.1055V20.6133C1187.65 19.5898 1187.82 18.6758 1188.14 17.8711C1188.47 17.0586 1188.91 16.3711 1189.46 15.8086C1190 15.2539 1190.61 14.8281 1191.3 14.5312C1191.99 14.2344 1192.7 14.0859 1193.43 14.0859C1194.34 14.0859 1195.14 14.2461 1195.82 14.5664C1196.51 14.8789 1197.08 15.3125 1197.53 15.8672C1197.98 16.4297 1198.32 17.0898 1198.54 17.8477C1198.77 18.6055 1198.88 19.4258 1198.88 20.3086V21.2812H1189.82V21.3633C1189.88 21.9805 1190 22.5234 1190.18 22.9922C1190.38 23.4609 1190.64 23.875 1190.98 24.2344C1191.32 24.6172 1191.74 24.918 1192.22 25.1367C1192.71 25.3555 1193.24 25.4648 1193.83 25.4648C1194.6 25.4648 1195.29 25.3086 1195.89 24.9961C1196.49 24.6836 1196.99 24.2695 1197.39 23.7539L1198.71 24.7852C1198.29 25.4258 1197.66 25.9961 1196.82 26.4961C1195.98 26.9883 1194.95 27.2344 1193.71 27.2344ZM1193.43 15.8672C1192.99 15.8672 1192.58 15.9492 1192.19 16.1133C1191.8 16.2695 1191.45 16.5 1191.13 16.8047C1190.82 17.1172 1190.55 17.5 1190.34 17.9531C1190.12 18.3984 1189.98 18.9141 1189.89 19.5H1196.71V19.3945C1196.71 19.0039 1196.64 18.5859 1196.49 18.1406C1196.34 17.6875 1196.13 17.2969 1195.87 16.9688C1195.6 16.6406 1195.27 16.375 1194.86 16.1719C1194.46 15.9688 1193.98 15.8672 1193.43 15.8672Z" fill="#999EA4"/>
<path d="M129.784 139.49H134.645V147.594H137.747V149H129.784V147.594H133.019V140.905H129.784V139.49ZM132.808 136.994C132.808 136.854 132.828 136.722 132.869 136.599C132.916 136.476 132.986 136.37 133.08 136.282C133.156 136.206 133.253 136.147 133.37 136.106C133.493 136.06 133.631 136.036 133.783 136.036C133.936 136.036 134.07 136.06 134.188 136.106C134.305 136.147 134.401 136.206 134.478 136.282C134.571 136.364 134.642 136.467 134.688 136.59C134.735 136.713 134.759 136.848 134.759 136.994C134.759 137.258 134.677 137.478 134.513 137.653C134.349 137.829 134.105 137.917 133.783 137.917C133.455 137.917 133.209 137.829 133.045 137.653C132.887 137.478 132.808 137.258 132.808 136.994ZM140.34 149V139.49H141.799L141.913 140.896C142.054 140.697 142.206 140.516 142.37 140.352C142.54 140.182 142.719 140.035 142.906 139.912C143.188 139.725 143.492 139.581 143.82 139.481C144.154 139.376 144.506 139.32 144.875 139.314C145.373 139.314 145.824 139.385 146.229 139.525C146.639 139.666 146.987 139.886 147.274 140.185C147.562 140.483 147.781 140.864 147.934 141.327C148.092 141.784 148.171 142.329 148.171 142.962V149H146.545V142.997C146.545 142.575 146.498 142.218 146.404 141.925C146.311 141.632 146.173 141.395 145.991 141.213C145.804 141.031 145.575 140.899 145.306 140.817C145.042 140.735 144.737 140.694 144.392 140.694C144.093 140.694 143.814 140.738 143.557 140.826C143.299 140.908 143.062 141.022 142.845 141.169C142.669 141.298 142.505 141.447 142.353 141.617C142.206 141.787 142.077 141.975 141.966 142.18V149H140.34ZM153.576 149V140.747H150.957V139.49H153.576V138.822C153.576 138.213 153.664 137.68 153.84 137.223C154.021 136.76 154.276 136.373 154.604 136.062C154.927 135.752 155.316 135.518 155.773 135.359C156.23 135.201 156.74 135.122 157.303 135.122C157.537 135.122 157.769 135.137 157.997 135.166C158.226 135.189 158.451 135.222 158.674 135.263C158.82 135.292 158.967 135.324 159.113 135.359C159.26 135.389 159.409 135.424 159.562 135.465L159.368 136.81C159.128 136.728 158.847 136.657 158.524 136.599C158.208 136.534 157.868 136.502 157.505 136.502C157.136 136.502 156.808 136.549 156.521 136.643C156.239 136.73 156.005 136.865 155.817 137.047C155.618 137.234 155.466 137.478 155.36 137.776C155.261 138.075 155.211 138.424 155.211 138.822V139.49H158.876V140.747H155.211V149H153.576ZM161.504 144.157C161.504 143.472 161.604 142.836 161.803 142.25C162.002 141.658 162.289 141.146 162.664 140.712C163.033 140.278 163.484 139.938 164.018 139.692C164.551 139.44 165.151 139.314 165.819 139.314C166.493 139.314 167.097 139.44 167.63 139.692C168.169 139.938 168.626 140.278 169.001 140.712C169.37 141.146 169.654 141.658 169.854 142.25C170.053 142.836 170.152 143.472 170.152 144.157V144.351C170.152 145.036 170.053 145.672 169.854 146.258C169.654 146.844 169.37 147.354 169.001 147.787C168.626 148.221 168.172 148.561 167.639 148.807C167.105 149.053 166.505 149.176 165.837 149.176C165.163 149.176 164.557 149.053 164.018 148.807C163.484 148.561 163.033 148.221 162.664 147.787C162.289 147.354 162.002 146.844 161.803 146.258C161.604 145.672 161.504 145.036 161.504 144.351V144.157ZM163.13 144.351C163.13 144.819 163.186 145.268 163.297 145.695C163.408 146.117 163.578 146.489 163.807 146.812C164.029 147.134 164.311 147.389 164.65 147.576C164.99 147.764 165.386 147.857 165.837 147.857C166.282 147.857 166.672 147.764 167.006 147.576C167.346 147.389 167.63 147.134 167.858 146.812C168.081 146.489 168.248 146.117 168.359 145.695C168.471 145.268 168.526 144.819 168.526 144.351V144.157C168.526 143.694 168.468 143.252 168.351 142.83C168.239 142.402 168.072 142.027 167.85 141.705C167.621 141.383 167.337 141.128 166.997 140.94C166.663 140.747 166.271 140.65 165.819 140.65C165.368 140.65 164.976 140.747 164.642 140.94C164.308 141.128 164.029 141.383 163.807 141.705C163.578 142.027 163.408 142.402 163.297 142.83C163.186 143.252 163.13 143.694 163.13 144.157V144.351ZM179.003 139.314C179.302 139.314 179.612 139.335 179.935 139.376C180.263 139.417 180.509 139.473 180.673 139.543L180.453 141.134C180.137 141.063 179.835 141.014 179.548 140.984C179.267 140.949 178.971 140.932 178.66 140.932C178.262 140.932 177.901 140.981 177.579 141.081C177.257 141.175 176.976 141.315 176.735 141.503C176.519 141.667 176.328 141.869 176.164 142.109C176.006 142.344 175.874 142.607 175.769 142.9V149H174.134V139.49H175.681L175.751 140.765L175.76 141.002C176.146 140.48 176.609 140.07 177.148 139.771C177.693 139.467 178.312 139.314 179.003 139.314ZM184.329 139.49L184.373 140.387C184.566 140.053 184.818 139.792 185.129 139.604C185.445 139.417 185.826 139.32 186.271 139.314C186.523 139.314 186.749 139.344 186.948 139.402C187.153 139.455 187.332 139.534 187.484 139.64C187.596 139.722 187.695 139.821 187.783 139.938C187.877 140.056 187.956 140.188 188.021 140.334C188.103 140.199 188.199 140.073 188.311 139.956C188.422 139.839 188.542 139.736 188.671 139.648C188.835 139.549 189.017 139.47 189.216 139.411C189.421 139.353 189.644 139.32 189.884 139.314C190.212 139.314 190.508 139.364 190.771 139.464C191.035 139.558 191.258 139.698 191.439 139.886C191.639 140.097 191.791 140.372 191.896 140.712C192.002 141.046 192.055 141.441 192.055 141.898V149H190.508V141.881C190.508 141.682 190.484 141.506 190.438 141.354C190.391 141.201 190.323 141.075 190.235 140.976C190.142 140.882 190.024 140.812 189.884 140.765C189.749 140.718 189.591 140.694 189.409 140.694C189.216 140.694 189.049 140.721 188.908 140.773C188.768 140.826 188.65 140.896 188.557 140.984C188.463 141.078 188.39 141.187 188.337 141.31C188.284 141.427 188.249 141.559 188.231 141.705C188.231 141.734 188.231 141.764 188.231 141.793C188.231 141.816 188.231 141.846 188.231 141.881V149H186.685V141.872C186.685 141.673 186.661 141.497 186.614 141.345C186.573 141.192 186.506 141.066 186.412 140.967C186.324 140.873 186.213 140.806 186.078 140.765C185.949 140.718 185.797 140.694 185.621 140.694C185.428 140.694 185.258 140.718 185.111 140.765C184.971 140.806 184.851 140.867 184.751 140.949C184.675 141.014 184.607 141.087 184.549 141.169C184.496 141.251 184.452 141.339 184.417 141.433V149H182.87V139.49H184.329ZM200.642 149C200.577 148.877 200.524 148.725 200.483 148.543C200.448 148.355 200.422 148.162 200.404 147.963C200.24 148.127 200.056 148.282 199.851 148.429C199.651 148.575 199.432 148.704 199.191 148.815C198.945 148.927 198.685 149.015 198.409 149.079C198.134 149.144 197.841 149.176 197.53 149.176C197.026 149.176 196.569 149.103 196.159 148.956C195.755 148.81 195.412 148.61 195.131 148.358C194.844 148.112 194.621 147.819 194.463 147.479C194.311 147.134 194.234 146.762 194.234 146.363C194.234 145.842 194.337 145.385 194.542 144.992C194.753 144.6 195.049 144.271 195.43 144.008C195.811 143.75 196.268 143.557 196.801 143.428C197.34 143.299 197.94 143.234 198.603 143.234H200.378V142.487C200.378 142.2 200.325 141.942 200.22 141.714C200.114 141.485 199.965 141.289 199.771 141.125C199.578 140.967 199.341 140.844 199.06 140.756C198.784 140.668 198.474 140.624 198.128 140.624C197.806 140.624 197.516 140.665 197.258 140.747C197.006 140.829 196.792 140.938 196.616 141.072C196.44 141.207 196.303 141.368 196.203 141.556C196.109 141.737 196.062 141.928 196.062 142.127H194.428C194.434 141.781 194.521 141.441 194.691 141.107C194.867 140.773 195.119 140.472 195.447 140.202C195.77 139.938 196.162 139.725 196.625 139.561C197.094 139.396 197.624 139.314 198.216 139.314C198.755 139.314 199.256 139.382 199.719 139.517C200.182 139.646 200.583 139.842 200.923 140.105C201.257 140.375 201.521 140.709 201.714 141.107C201.907 141.506 202.004 141.972 202.004 142.505V146.926C202.004 147.242 202.033 147.579 202.092 147.937C202.15 148.288 202.232 148.596 202.338 148.859V149H200.642ZM197.768 147.761C198.084 147.761 198.38 147.72 198.655 147.638C198.931 147.556 199.183 147.447 199.411 147.312C199.634 147.178 199.827 147.025 199.991 146.855C200.155 146.68 200.284 146.498 200.378 146.311V144.386H198.866C198.304 144.386 197.812 144.436 197.39 144.535C196.974 144.629 196.643 144.775 196.396 144.975C196.221 145.115 196.086 145.282 195.992 145.476C195.904 145.669 195.86 145.889 195.86 146.135C195.86 146.369 195.898 146.586 195.975 146.785C196.057 146.984 196.177 147.154 196.335 147.295C196.493 147.441 196.692 147.556 196.933 147.638C197.173 147.72 197.451 147.761 197.768 147.761ZM209.053 137.188V139.49H212.674V140.747H209.053V145.915C209.053 146.284 209.1 146.589 209.193 146.829C209.287 147.069 209.416 147.26 209.58 147.4C209.744 147.547 209.932 147.649 210.143 147.708C210.359 147.767 210.588 147.796 210.828 147.796C211.004 147.796 211.186 147.787 211.373 147.77C211.561 147.746 211.745 147.72 211.927 147.69C212.103 147.661 212.267 147.632 212.419 147.603C212.577 147.567 212.706 147.538 212.806 147.515L213.034 148.666C212.899 148.748 212.735 148.821 212.542 148.886C212.349 148.944 212.138 148.994 211.909 149.035C211.681 149.082 211.438 149.117 211.18 149.141C210.928 149.164 210.676 149.176 210.424 149.176C210.002 149.176 209.606 149.117 209.237 149C208.874 148.877 208.558 148.684 208.288 148.42C208.019 148.162 207.805 147.828 207.646 147.418C207.494 147.002 207.418 146.501 207.418 145.915V140.747H204.922V139.49H207.418V137.188H209.053ZM216.269 139.49H221.129V147.594H224.231V149H216.269V147.594H219.503V140.905H216.269V139.49ZM219.292 136.994C219.292 136.854 219.312 136.722 219.354 136.599C219.4 136.476 219.471 136.37 219.564 136.282C219.641 136.206 219.737 136.147 219.854 136.106C219.978 136.06 220.115 136.036 220.268 136.036C220.42 136.036 220.555 136.06 220.672 136.106C220.789 136.147 220.886 136.206 220.962 136.282C221.056 136.364 221.126 136.467 221.173 136.59C221.22 136.713 221.243 136.848 221.243 136.994C221.243 137.258 221.161 137.478 220.997 137.653C220.833 137.829 220.59 137.917 220.268 137.917C219.939 137.917 219.693 137.829 219.529 137.653C219.371 137.478 219.292 137.258 219.292 136.994ZM226.367 144.157C226.367 143.472 226.467 142.836 226.666 142.25C226.865 141.658 227.152 141.146 227.527 140.712C227.896 140.278 228.348 139.938 228.881 139.692C229.414 139.44 230.015 139.314 230.683 139.314C231.356 139.314 231.96 139.44 232.493 139.692C233.032 139.938 233.489 140.278 233.864 140.712C234.233 141.146 234.518 141.658 234.717 142.25C234.916 142.836 235.016 143.472 235.016 144.157V144.351C235.016 145.036 234.916 145.672 234.717 146.258C234.518 146.844 234.233 147.354 233.864 147.787C233.489 148.221 233.035 148.561 232.502 148.807C231.969 149.053 231.368 149.176 230.7 149.176C230.026 149.176 229.42 149.053 228.881 148.807C228.348 148.561 227.896 148.221 227.527 147.787C227.152 147.354 226.865 146.844 226.666 146.258C226.467 145.672 226.367 145.036 226.367 144.351V144.157ZM227.993 144.351C227.993 144.819 228.049 145.268 228.16 145.695C228.271 146.117 228.441 146.489 228.67 146.812C228.893 147.134 229.174 147.389 229.514 147.576C229.854 147.764 230.249 147.857 230.7 147.857C231.146 147.857 231.535 147.764 231.869 147.576C232.209 147.389 232.493 147.134 232.722 146.812C232.944 146.489 233.111 146.117 233.223 145.695C233.334 145.268 233.39 144.819 233.39 144.351V144.157C233.39 143.694 233.331 143.252 233.214 142.83C233.103 142.402 232.936 142.027 232.713 141.705C232.484 141.383 232.2 141.128 231.86 140.94C231.526 140.747 231.134 140.65 230.683 140.65C230.231 140.65 229.839 140.747 229.505 140.94C229.171 141.128 228.893 141.383 228.67 141.705C228.441 142.027 228.271 142.402 228.16 142.83C228.049 143.252 227.993 143.694 227.993 144.157V144.351ZM237.635 149V139.49H239.094L239.208 140.896C239.349 140.697 239.501 140.516 239.665 140.352C239.835 140.182 240.014 140.035 240.201 139.912C240.482 139.725 240.787 139.581 241.115 139.481C241.449 139.376 241.801 139.32 242.17 139.314C242.668 139.314 243.119 139.385 243.523 139.525C243.934 139.666 244.282 139.886 244.569 140.185C244.856 140.483 245.076 140.864 245.229 141.327C245.387 141.784 245.466 142.329 245.466 142.962V149H243.84V142.997C243.84 142.575 243.793 142.218 243.699 141.925C243.605 141.632 243.468 141.395 243.286 141.213C243.099 141.031 242.87 140.899 242.601 140.817C242.337 140.735 242.032 140.694 241.687 140.694C241.388 140.694 241.109 140.738 240.852 140.826C240.594 140.908 240.356 141.022 240.14 141.169C239.964 141.298 239.8 141.447 239.647 141.617C239.501 141.787 239.372 141.975 239.261 142.18V149H237.635Z" fill="#999EA4"/>
<path d="M1059.78 185.49H1064.64V193.594H1067.75V195H1059.78V193.594H1063.02V186.905H1059.78V185.49ZM1062.81 182.994C1062.81 182.854 1062.83 182.722 1062.87 182.599C1062.92 182.476 1062.99 182.37 1063.08 182.282C1063.16 182.206 1063.25 182.147 1063.37 182.106C1063.49 182.06 1063.63 182.036 1063.78 182.036C1063.94 182.036 1064.07 182.06 1064.19 182.106C1064.3 182.147 1064.4 182.206 1064.48 182.282C1064.57 182.364 1064.64 182.467 1064.69 182.59C1064.74 182.713 1064.76 182.848 1064.76 182.994C1064.76 183.258 1064.68 183.478 1064.51 183.653C1064.35 183.829 1064.11 183.917 1063.78 183.917C1063.46 183.917 1063.21 183.829 1063.04 183.653C1062.89 183.478 1062.81 183.258 1062.81 182.994ZM1070.34 195V185.49H1071.8L1071.91 186.896C1072.05 186.697 1072.21 186.516 1072.37 186.352C1072.54 186.182 1072.72 186.035 1072.91 185.912C1073.19 185.725 1073.49 185.581 1073.82 185.481C1074.15 185.376 1074.51 185.32 1074.88 185.314C1075.37 185.314 1075.82 185.385 1076.23 185.525C1076.64 185.666 1076.99 185.886 1077.27 186.185C1077.56 186.483 1077.78 186.864 1077.93 187.327C1078.09 187.784 1078.17 188.329 1078.17 188.962V195H1076.54V188.997C1076.54 188.575 1076.5 188.218 1076.4 187.925C1076.31 187.632 1076.17 187.395 1075.99 187.213C1075.8 187.031 1075.58 186.899 1075.31 186.817C1075.04 186.735 1074.74 186.694 1074.39 186.694C1074.09 186.694 1073.81 186.738 1073.56 186.826C1073.3 186.908 1073.06 187.022 1072.84 187.169C1072.67 187.298 1072.5 187.447 1072.35 187.617C1072.21 187.787 1072.08 187.975 1071.97 188.18V195H1070.34ZM1083.58 195V186.747H1080.96V185.49H1083.58V184.822C1083.58 184.213 1083.66 183.68 1083.84 183.223C1084.02 182.76 1084.28 182.373 1084.6 182.062C1084.93 181.752 1085.32 181.518 1085.77 181.359C1086.23 181.201 1086.74 181.122 1087.3 181.122C1087.54 181.122 1087.77 181.137 1088 181.166C1088.23 181.189 1088.45 181.222 1088.67 181.263C1088.82 181.292 1088.97 181.324 1089.11 181.359C1089.26 181.389 1089.41 181.424 1089.56 181.465L1089.37 182.81C1089.13 182.728 1088.85 182.657 1088.52 182.599C1088.21 182.534 1087.87 182.502 1087.5 182.502C1087.14 182.502 1086.81 182.549 1086.52 182.643C1086.24 182.73 1086 182.865 1085.82 183.047C1085.62 183.234 1085.47 183.478 1085.36 183.776C1085.26 184.075 1085.21 184.424 1085.21 184.822V185.49H1088.88V186.747H1085.21V195H1083.58ZM1091.5 190.157C1091.5 189.472 1091.6 188.836 1091.8 188.25C1092 187.658 1092.29 187.146 1092.66 186.712C1093.03 186.278 1093.48 185.938 1094.02 185.692C1094.55 185.44 1095.15 185.314 1095.82 185.314C1096.49 185.314 1097.1 185.44 1097.63 185.692C1098.17 185.938 1098.63 186.278 1099 186.712C1099.37 187.146 1099.65 187.658 1099.85 188.25C1100.05 188.836 1100.15 189.472 1100.15 190.157V190.351C1100.15 191.036 1100.05 191.672 1099.85 192.258C1099.65 192.844 1099.37 193.354 1099 193.787C1098.63 194.221 1098.17 194.561 1097.64 194.807C1097.11 195.053 1096.5 195.176 1095.84 195.176C1095.16 195.176 1094.56 195.053 1094.02 194.807C1093.48 194.561 1093.03 194.221 1092.66 193.787C1092.29 193.354 1092 192.844 1091.8 192.258C1091.6 191.672 1091.5 191.036 1091.5 190.351V190.157ZM1093.13 190.351C1093.13 190.819 1093.19 191.268 1093.3 191.695C1093.41 192.117 1093.58 192.489 1093.81 192.812C1094.03 193.134 1094.31 193.389 1094.65 193.576C1094.99 193.764 1095.39 193.857 1095.84 193.857C1096.28 193.857 1096.67 193.764 1097.01 193.576C1097.35 193.389 1097.63 193.134 1097.86 192.812C1098.08 192.489 1098.25 192.117 1098.36 191.695C1098.47 191.268 1098.53 190.819 1098.53 190.351V190.157C1098.53 189.694 1098.47 189.252 1098.35 188.83C1098.24 188.402 1098.07 188.027 1097.85 187.705C1097.62 187.383 1097.34 187.128 1097 186.94C1096.66 186.747 1096.27 186.65 1095.82 186.65C1095.37 186.65 1094.98 186.747 1094.64 186.94C1094.31 187.128 1094.03 187.383 1093.81 187.705C1093.58 188.027 1093.41 188.402 1093.3 188.83C1093.19 189.252 1093.13 189.694 1093.13 190.157V190.351ZM1109 185.314C1109.3 185.314 1109.61 185.335 1109.93 185.376C1110.26 185.417 1110.51 185.473 1110.67 185.543L1110.45 187.134C1110.14 187.063 1109.83 187.014 1109.55 186.984C1109.27 186.949 1108.97 186.932 1108.66 186.932C1108.26 186.932 1107.9 186.981 1107.58 187.081C1107.26 187.175 1106.98 187.315 1106.74 187.503C1106.52 187.667 1106.33 187.869 1106.16 188.109C1106.01 188.344 1105.87 188.607 1105.77 188.9V195H1104.13V185.49H1105.68L1105.75 186.765L1105.76 187.002C1106.15 186.48 1106.61 186.07 1107.15 185.771C1107.69 185.467 1108.31 185.314 1109 185.314ZM1114.33 185.49L1114.37 186.387C1114.57 186.053 1114.82 185.792 1115.13 185.604C1115.45 185.417 1115.83 185.32 1116.27 185.314C1116.52 185.314 1116.75 185.344 1116.95 185.402C1117.15 185.455 1117.33 185.534 1117.48 185.64C1117.6 185.722 1117.7 185.821 1117.78 185.938C1117.88 186.056 1117.96 186.188 1118.02 186.334C1118.1 186.199 1118.2 186.073 1118.31 185.956C1118.42 185.839 1118.54 185.736 1118.67 185.648C1118.83 185.549 1119.02 185.47 1119.22 185.411C1119.42 185.353 1119.64 185.32 1119.88 185.314C1120.21 185.314 1120.51 185.364 1120.77 185.464C1121.04 185.558 1121.26 185.698 1121.44 185.886C1121.64 186.097 1121.79 186.372 1121.9 186.712C1122 187.046 1122.05 187.441 1122.05 187.898V195H1120.51V187.881C1120.51 187.682 1120.48 187.506 1120.44 187.354C1120.39 187.201 1120.32 187.075 1120.24 186.976C1120.14 186.882 1120.02 186.812 1119.88 186.765C1119.75 186.718 1119.59 186.694 1119.41 186.694C1119.22 186.694 1119.05 186.721 1118.91 186.773C1118.77 186.826 1118.65 186.896 1118.56 186.984C1118.46 187.078 1118.39 187.187 1118.34 187.31C1118.28 187.427 1118.25 187.559 1118.23 187.705C1118.23 187.734 1118.23 187.764 1118.23 187.793C1118.23 187.816 1118.23 187.846 1118.23 187.881V195H1116.68V187.872C1116.68 187.673 1116.66 187.497 1116.61 187.345C1116.57 187.192 1116.51 187.066 1116.41 186.967C1116.32 186.873 1116.21 186.806 1116.08 186.765C1115.95 186.718 1115.8 186.694 1115.62 186.694C1115.43 186.694 1115.26 186.718 1115.11 186.765C1114.97 186.806 1114.85 186.867 1114.75 186.949C1114.67 187.014 1114.61 187.087 1114.55 187.169C1114.5 187.251 1114.45 187.339 1114.42 187.433V195H1112.87V185.49H1114.33ZM1130.64 195C1130.58 194.877 1130.52 194.725 1130.48 194.543C1130.45 194.355 1130.42 194.162 1130.4 193.963C1130.24 194.127 1130.06 194.282 1129.85 194.429C1129.65 194.575 1129.43 194.704 1129.19 194.815C1128.95 194.927 1128.68 195.015 1128.41 195.079C1128.13 195.144 1127.84 195.176 1127.53 195.176C1127.03 195.176 1126.57 195.103 1126.16 194.956C1125.75 194.81 1125.41 194.61 1125.13 194.358C1124.84 194.112 1124.62 193.819 1124.46 193.479C1124.31 193.134 1124.23 192.762 1124.23 192.363C1124.23 191.842 1124.34 191.385 1124.54 190.992C1124.75 190.6 1125.05 190.271 1125.43 190.008C1125.81 189.75 1126.27 189.557 1126.8 189.428C1127.34 189.299 1127.94 189.234 1128.6 189.234H1130.38V188.487C1130.38 188.2 1130.33 187.942 1130.22 187.714C1130.11 187.485 1129.96 187.289 1129.77 187.125C1129.58 186.967 1129.34 186.844 1129.06 186.756C1128.78 186.668 1128.47 186.624 1128.13 186.624C1127.81 186.624 1127.52 186.665 1127.26 186.747C1127.01 186.829 1126.79 186.938 1126.62 187.072C1126.44 187.207 1126.3 187.368 1126.2 187.556C1126.11 187.737 1126.06 187.928 1126.06 188.127H1124.43C1124.43 187.781 1124.52 187.441 1124.69 187.107C1124.87 186.773 1125.12 186.472 1125.45 186.202C1125.77 185.938 1126.16 185.725 1126.62 185.561C1127.09 185.396 1127.62 185.314 1128.22 185.314C1128.75 185.314 1129.26 185.382 1129.72 185.517C1130.18 185.646 1130.58 185.842 1130.92 186.105C1131.26 186.375 1131.52 186.709 1131.71 187.107C1131.91 187.506 1132 187.972 1132 188.505V192.926C1132 193.242 1132.03 193.579 1132.09 193.937C1132.15 194.288 1132.23 194.596 1132.34 194.859V195H1130.64ZM1127.77 193.761C1128.08 193.761 1128.38 193.72 1128.66 193.638C1128.93 193.556 1129.18 193.447 1129.41 193.312C1129.63 193.178 1129.83 193.025 1129.99 192.855C1130.16 192.68 1130.28 192.498 1130.38 192.311V190.386H1128.87C1128.3 190.386 1127.81 190.436 1127.39 190.535C1126.97 190.629 1126.64 190.775 1126.4 190.975C1126.22 191.115 1126.09 191.282 1125.99 191.476C1125.9 191.669 1125.86 191.889 1125.86 192.135C1125.86 192.369 1125.9 192.586 1125.97 192.785C1126.06 192.984 1126.18 193.154 1126.33 193.295C1126.49 193.441 1126.69 193.556 1126.93 193.638C1127.17 193.72 1127.45 193.761 1127.77 193.761ZM1139.05 183.188V185.49H1142.67V186.747H1139.05V191.915C1139.05 192.284 1139.1 192.589 1139.19 192.829C1139.29 193.069 1139.42 193.26 1139.58 193.4C1139.74 193.547 1139.93 193.649 1140.14 193.708C1140.36 193.767 1140.59 193.796 1140.83 193.796C1141 193.796 1141.19 193.787 1141.37 193.77C1141.56 193.746 1141.75 193.72 1141.93 193.69C1142.1 193.661 1142.27 193.632 1142.42 193.603C1142.58 193.567 1142.71 193.538 1142.81 193.515L1143.03 194.666C1142.9 194.748 1142.74 194.821 1142.54 194.886C1142.35 194.944 1142.14 194.994 1141.91 195.035C1141.68 195.082 1141.44 195.117 1141.18 195.141C1140.93 195.164 1140.68 195.176 1140.42 195.176C1140 195.176 1139.61 195.117 1139.24 195C1138.87 194.877 1138.56 194.684 1138.29 194.42C1138.02 194.162 1137.8 193.828 1137.65 193.418C1137.49 193.002 1137.42 192.501 1137.42 191.915V186.747H1134.92V185.49H1137.42V183.188H1139.05ZM1146.27 185.49H1151.13V193.594H1154.23V195H1146.27V193.594H1149.5V186.905H1146.27V185.49ZM1149.29 182.994C1149.29 182.854 1149.31 182.722 1149.35 182.599C1149.4 182.476 1149.47 182.37 1149.56 182.282C1149.64 182.206 1149.74 182.147 1149.85 182.106C1149.98 182.06 1150.12 182.036 1150.27 182.036C1150.42 182.036 1150.55 182.06 1150.67 182.106C1150.79 182.147 1150.89 182.206 1150.96 182.282C1151.06 182.364 1151.13 182.467 1151.17 182.59C1151.22 182.713 1151.24 182.848 1151.24 182.994C1151.24 183.258 1151.16 183.478 1151 183.653C1150.83 183.829 1150.59 183.917 1150.27 183.917C1149.94 183.917 1149.69 183.829 1149.53 183.653C1149.37 183.478 1149.29 183.258 1149.29 182.994ZM1156.37 190.157C1156.37 189.472 1156.47 188.836 1156.67 188.25C1156.87 187.658 1157.15 187.146 1157.53 186.712C1157.9 186.278 1158.35 185.938 1158.88 185.692C1159.41 185.44 1160.01 185.314 1160.68 185.314C1161.36 185.314 1161.96 185.44 1162.49 185.692C1163.03 185.938 1163.49 186.278 1163.86 186.712C1164.23 187.146 1164.52 187.658 1164.72 188.25C1164.92 188.836 1165.02 189.472 1165.02 190.157V190.351C1165.02 191.036 1164.92 191.672 1164.72 192.258C1164.52 192.844 1164.23 193.354 1163.86 193.787C1163.49 194.221 1163.04 194.561 1162.5 194.807C1161.97 195.053 1161.37 195.176 1160.7 195.176C1160.03 195.176 1159.42 195.053 1158.88 194.807C1158.35 194.561 1157.9 194.221 1157.53 193.787C1157.15 193.354 1156.87 192.844 1156.67 192.258C1156.47 191.672 1156.37 191.036 1156.37 190.351V190.157ZM1157.99 190.351C1157.99 190.819 1158.05 191.268 1158.16 191.695C1158.27 192.117 1158.44 192.489 1158.67 192.812C1158.89 193.134 1159.17 193.389 1159.51 193.576C1159.85 193.764 1160.25 193.857 1160.7 193.857C1161.15 193.857 1161.54 193.764 1161.87 193.576C1162.21 193.389 1162.49 193.134 1162.72 192.812C1162.94 192.489 1163.11 192.117 1163.22 191.695C1163.33 191.268 1163.39 190.819 1163.39 190.351V190.157C1163.39 189.694 1163.33 189.252 1163.21 188.83C1163.1 188.402 1162.94 188.027 1162.71 187.705C1162.48 187.383 1162.2 187.128 1161.86 186.94C1161.53 186.747 1161.13 186.65 1160.68 186.65C1160.23 186.65 1159.84 186.747 1159.5 186.94C1159.17 187.128 1158.89 187.383 1158.67 187.705C1158.44 188.027 1158.27 188.402 1158.16 188.83C1158.05 189.252 1157.99 189.694 1157.99 190.157V190.351ZM1167.63 195V185.49H1169.09L1169.21 186.896C1169.35 186.697 1169.5 186.516 1169.67 186.352C1169.83 186.182 1170.01 186.035 1170.2 185.912C1170.48 185.725 1170.79 185.581 1171.12 185.481C1171.45 185.376 1171.8 185.32 1172.17 185.314C1172.67 185.314 1173.12 185.385 1173.52 185.525C1173.93 185.666 1174.28 185.886 1174.57 186.185C1174.86 186.483 1175.08 186.864 1175.23 187.327C1175.39 187.784 1175.47 188.329 1175.47 188.962V195H1173.84V188.997C1173.84 188.575 1173.79 188.218 1173.7 187.925C1173.61 187.632 1173.47 187.395 1173.29 187.213C1173.1 187.031 1172.87 186.899 1172.6 186.817C1172.34 186.735 1172.03 186.694 1171.69 186.694C1171.39 186.694 1171.11 186.738 1170.85 186.826C1170.59 186.908 1170.36 187.022 1170.14 187.169C1169.96 187.298 1169.8 187.447 1169.65 187.617C1169.5 187.787 1169.37 187.975 1169.26 188.18V195H1167.63Z" fill="#999EA4"/>
<path d="M460.521 259.656V246.49H462.006L462.085 247.527C462.214 247.363 462.354 247.217 462.507 247.088C462.659 246.953 462.823 246.839 462.999 246.745C463.245 246.604 463.518 246.499 463.816 246.429C464.121 246.353 464.446 246.314 464.792 246.314C465.401 246.314 465.94 246.435 466.409 246.675C466.878 246.915 467.271 247.249 467.587 247.677C467.903 248.104 468.144 248.617 468.308 249.215C468.472 249.807 468.554 250.457 468.554 251.166V251.351C468.554 252.03 468.472 252.666 468.308 253.258C468.144 253.844 467.903 254.354 467.587 254.787C467.271 255.221 466.878 255.561 466.409 255.807C465.946 256.053 465.416 256.176 464.818 256.176C464.455 256.176 464.115 256.138 463.799 256.062C463.488 255.985 463.207 255.877 462.955 255.736C462.803 255.648 462.659 255.552 462.524 255.446C462.39 255.335 462.264 255.215 462.146 255.086V259.656H460.521ZM466.928 251.166C466.928 250.703 466.875 250.264 466.77 249.848C466.67 249.426 466.515 249.054 466.304 248.731C466.087 248.415 465.814 248.163 465.486 247.976C465.158 247.788 464.766 247.694 464.309 247.694C464.057 247.694 463.822 247.724 463.605 247.782C463.395 247.841 463.204 247.926 463.034 248.037C462.847 248.148 462.68 248.286 462.533 248.45C462.387 248.614 462.258 248.796 462.146 248.995V253.574C462.246 253.75 462.36 253.914 462.489 254.066C462.618 254.219 462.765 254.348 462.929 254.453C463.116 254.576 463.324 254.673 463.553 254.743C463.787 254.813 464.045 254.849 464.326 254.849C464.777 254.849 465.167 254.755 465.495 254.567C465.823 254.374 466.093 254.116 466.304 253.794C466.515 253.472 466.67 253.1 466.77 252.678C466.875 252.256 466.928 251.813 466.928 251.351V251.166ZM477.571 246.314C477.87 246.314 478.181 246.335 478.503 246.376C478.831 246.417 479.077 246.473 479.241 246.543L479.021 248.134C478.705 248.063 478.403 248.014 478.116 247.984C477.835 247.949 477.539 247.932 477.229 247.932C476.83 247.932 476.47 247.981 476.147 248.081C475.825 248.175 475.544 248.315 475.304 248.503C475.087 248.667 474.896 248.869 474.732 249.109C474.574 249.344 474.442 249.607 474.337 249.9V256H472.702V246.49H474.249L474.319 247.765L474.328 248.002C474.715 247.48 475.178 247.07 475.717 246.771C476.262 246.467 476.88 246.314 477.571 246.314ZM481.693 251.157C481.693 250.472 481.793 249.836 481.992 249.25C482.191 248.658 482.479 248.146 482.854 247.712C483.223 247.278 483.674 246.938 484.207 246.692C484.74 246.44 485.341 246.314 486.009 246.314C486.683 246.314 487.286 246.44 487.819 246.692C488.358 246.938 488.815 247.278 489.19 247.712C489.56 248.146 489.844 248.658 490.043 249.25C490.242 249.836 490.342 250.472 490.342 251.157V251.351C490.342 252.036 490.242 252.672 490.043 253.258C489.844 253.844 489.56 254.354 489.19 254.787C488.815 255.221 488.361 255.561 487.828 255.807C487.295 256.053 486.694 256.176 486.026 256.176C485.353 256.176 484.746 256.053 484.207 255.807C483.674 255.561 483.223 255.221 482.854 254.787C482.479 254.354 482.191 253.844 481.992 253.258C481.793 252.672 481.693 252.036 481.693 251.351V251.157ZM483.319 251.351C483.319 251.819 483.375 252.268 483.486 252.695C483.598 253.117 483.768 253.489 483.996 253.812C484.219 254.134 484.5 254.389 484.84 254.576C485.18 254.764 485.575 254.857 486.026 254.857C486.472 254.857 486.861 254.764 487.195 254.576C487.535 254.389 487.819 254.134 488.048 253.812C488.271 253.489 488.438 253.117 488.549 252.695C488.66 252.268 488.716 251.819 488.716 251.351V251.157C488.716 250.694 488.657 250.252 488.54 249.83C488.429 249.402 488.262 249.027 488.039 248.705C487.811 248.383 487.526 248.128 487.187 247.94C486.853 247.747 486.46 247.65 486.009 247.65C485.558 247.65 485.165 247.747 484.831 247.94C484.497 248.128 484.219 248.383 483.996 248.705C483.768 249.027 483.598 249.402 483.486 249.83C483.375 250.252 483.319 250.694 483.319 251.157V251.351ZM494.06 246.49H498.858V256.062C498.858 256.671 498.773 257.21 498.604 257.679C498.439 258.147 498.199 258.54 497.883 258.856C497.561 259.179 497.168 259.422 496.705 259.586C496.248 259.756 495.727 259.841 495.141 259.841C494.959 259.841 494.783 259.838 494.613 259.832C494.443 259.826 494.276 259.817 494.112 259.806C493.978 259.794 493.843 259.776 493.708 259.753C493.573 259.735 493.433 259.715 493.286 259.691L493.4 258.355C493.5 258.373 493.626 258.388 493.778 258.399C493.931 258.417 494.086 258.429 494.244 258.435C494.396 258.446 494.543 258.452 494.684 258.452C494.83 258.458 494.944 258.461 495.026 258.461C495.331 258.461 495.618 258.42 495.888 258.338C496.157 258.262 496.392 258.13 496.591 257.942C496.79 257.755 496.945 257.506 497.057 257.195C497.174 256.891 497.232 256.513 497.232 256.062V247.905H494.06V246.49ZM497.004 243.985C497.004 243.722 497.083 243.499 497.241 243.317C497.399 243.13 497.643 243.036 497.971 243.036C498.299 243.036 498.545 243.13 498.709 243.317C498.873 243.499 498.955 243.722 498.955 243.985C498.955 244.249 498.873 244.472 498.709 244.653C498.545 244.829 498.299 244.917 497.971 244.917C497.643 244.917 497.399 244.829 497.241 244.653C497.083 244.472 497.004 244.249 497.004 243.985ZM507.973 256.176C507.305 256.176 506.689 256.062 506.127 255.833C505.57 255.604 505.093 255.285 504.694 254.875C504.296 254.465 503.985 253.979 503.763 253.416C503.54 252.854 503.429 252.241 503.429 251.579V251.21C503.429 250.442 503.552 249.757 503.798 249.153C504.044 248.544 504.372 248.028 504.782 247.606C505.187 247.19 505.646 246.871 506.162 246.648C506.684 246.426 507.217 246.314 507.762 246.314C508.447 246.314 509.045 246.435 509.555 246.675C510.07 246.909 510.498 247.234 510.838 247.65C511.178 248.072 511.43 248.567 511.594 249.136C511.764 249.704 511.849 250.319 511.849 250.981V251.711H505.055V251.772C505.096 252.235 505.187 252.643 505.327 252.994C505.474 253.346 505.673 253.656 505.925 253.926C506.183 254.213 506.493 254.438 506.856 254.603C507.22 254.767 507.621 254.849 508.061 254.849C508.641 254.849 509.156 254.731 509.607 254.497C510.059 254.263 510.434 253.952 510.732 253.565L511.726 254.339C511.409 254.819 510.935 255.247 510.302 255.622C509.675 255.991 508.898 256.176 507.973 256.176ZM507.762 247.65C507.434 247.65 507.123 247.712 506.83 247.835C506.537 247.952 506.273 248.125 506.039 248.354C505.805 248.588 505.605 248.875 505.441 249.215C505.283 249.549 505.172 249.936 505.107 250.375H510.223V250.296C510.223 250.003 510.167 249.689 510.056 249.355C509.944 249.016 509.789 248.723 509.59 248.477C509.391 248.23 509.139 248.031 508.834 247.879C508.535 247.727 508.178 247.65 507.762 247.65ZM518.634 254.857C518.927 254.857 519.211 254.811 519.486 254.717C519.768 254.623 520.017 254.491 520.233 254.321C520.45 254.157 520.623 253.964 520.752 253.741C520.887 253.513 520.957 253.267 520.963 253.003H522.501C522.495 253.425 522.384 253.829 522.167 254.216C521.956 254.597 521.672 254.931 521.314 255.218C520.957 255.511 520.547 255.745 520.084 255.921C519.621 256.091 519.138 256.176 518.634 256.176C517.913 256.176 517.283 256.047 516.744 255.789C516.205 255.531 515.757 255.183 515.399 254.743C515.036 254.31 514.764 253.809 514.582 253.24C514.4 252.666 514.31 252.062 514.31 251.43V251.061C514.31 250.434 514.4 249.833 514.582 249.259C514.764 248.685 515.036 248.178 515.399 247.738C515.757 247.305 516.205 246.959 516.744 246.701C517.283 246.443 517.913 246.314 518.634 246.314C519.196 246.314 519.712 246.405 520.181 246.587C520.655 246.763 521.065 247.003 521.411 247.308C521.751 247.618 522.018 247.984 522.211 248.406C522.404 248.828 522.501 249.279 522.501 249.76H520.963C520.957 249.473 520.893 249.203 520.77 248.951C520.652 248.693 520.491 248.468 520.286 248.274C520.081 248.081 519.835 247.929 519.548 247.817C519.267 247.706 518.962 247.65 518.634 247.65C518.13 247.65 517.705 247.753 517.359 247.958C517.02 248.157 516.744 248.418 516.533 248.74C516.322 249.068 516.17 249.435 516.076 249.839C515.988 250.243 515.944 250.65 515.944 251.061V251.43C515.944 251.846 515.988 252.259 516.076 252.669C516.17 253.073 516.322 253.437 516.533 253.759C516.738 254.087 517.011 254.354 517.351 254.559C517.696 254.758 518.124 254.857 518.634 254.857ZM529.242 244.188V246.49H532.863V247.747H529.242V252.915C529.242 253.284 529.289 253.589 529.383 253.829C529.477 254.069 529.605 254.26 529.77 254.4C529.934 254.547 530.121 254.649 530.332 254.708C530.549 254.767 530.777 254.796 531.018 254.796C531.193 254.796 531.375 254.787 531.562 254.77C531.75 254.746 531.935 254.72 532.116 254.69C532.292 254.661 532.456 254.632 532.608 254.603C532.767 254.567 532.896 254.538 532.995 254.515L533.224 255.666C533.089 255.748 532.925 255.821 532.731 255.886C532.538 255.944 532.327 255.994 532.099 256.035C531.87 256.082 531.627 256.117 531.369 256.141C531.117 256.164 530.865 256.176 530.613 256.176C530.191 256.176 529.796 256.117 529.427 256C529.063 255.877 528.747 255.684 528.478 255.42C528.208 255.162 527.994 254.828 527.836 254.418C527.684 254.002 527.607 253.501 527.607 252.915V247.747H525.111V246.49H527.607V244.188H529.242Z" fill="#999EA4"/>
<path d="M547.352 198.25V186.547H548.672L548.742 187.469C548.857 187.323 548.982 187.193 549.117 187.078C549.253 186.958 549.398 186.857 549.555 186.773C549.773 186.648 550.016 186.555 550.281 186.492C550.552 186.424 550.841 186.391 551.148 186.391C551.69 186.391 552.169 186.497 552.586 186.711C553.003 186.924 553.352 187.221 553.633 187.602C553.914 187.982 554.128 188.438 554.273 188.969C554.419 189.495 554.492 190.073 554.492 190.703V190.867C554.492 191.471 554.419 192.036 554.273 192.562C554.128 193.083 553.914 193.536 553.633 193.922C553.352 194.307 553.003 194.609 552.586 194.828C552.174 195.047 551.703 195.156 551.172 195.156C550.849 195.156 550.547 195.122 550.266 195.055C549.99 194.987 549.74 194.891 549.516 194.766C549.38 194.688 549.253 194.602 549.133 194.508C549.013 194.409 548.901 194.302 548.797 194.188V198.25H547.352ZM553.047 190.703C553.047 190.292 553 189.901 552.906 189.531C552.818 189.156 552.68 188.826 552.492 188.539C552.299 188.258 552.057 188.034 551.766 187.867C551.474 187.701 551.125 187.617 550.719 187.617C550.495 187.617 550.286 187.643 550.094 187.695C549.906 187.747 549.737 187.823 549.586 187.922C549.419 188.021 549.271 188.143 549.141 188.289C549.01 188.435 548.896 188.596 548.797 188.773V192.844C548.885 193 548.987 193.146 549.102 193.281C549.216 193.417 549.346 193.531 549.492 193.625C549.659 193.734 549.844 193.82 550.047 193.883C550.255 193.945 550.484 193.977 550.734 193.977C551.135 193.977 551.482 193.893 551.773 193.727C552.065 193.555 552.305 193.326 552.492 193.039C552.68 192.753 552.818 192.422 552.906 192.047C553 191.672 553.047 191.279 553.047 190.867V190.703ZM562.508 186.391C562.773 186.391 563.049 186.409 563.336 186.445C563.628 186.482 563.846 186.531 563.992 186.594L563.797 188.008C563.516 187.945 563.247 187.901 562.992 187.875C562.742 187.844 562.479 187.828 562.203 187.828C561.849 187.828 561.529 187.872 561.242 187.961C560.956 188.044 560.706 188.169 560.492 188.336C560.299 188.482 560.13 188.661 559.984 188.875C559.844 189.083 559.727 189.318 559.633 189.578V195H558.18V186.547H559.555L559.617 187.68L559.625 187.891C559.969 187.427 560.38 187.062 560.859 186.797C561.344 186.526 561.893 186.391 562.508 186.391ZM566.805 186.547H571.125V193.75H573.883V195H566.805V193.75H569.68V187.805H566.805V186.547ZM569.492 184.328C569.492 184.203 569.51 184.086 569.547 183.977C569.589 183.867 569.651 183.773 569.734 183.695C569.802 183.628 569.888 183.576 569.992 183.539C570.102 183.497 570.224 183.477 570.359 183.477C570.495 183.477 570.615 183.497 570.719 183.539C570.823 183.576 570.909 183.628 570.977 183.695C571.06 183.768 571.122 183.859 571.164 183.969C571.206 184.078 571.227 184.198 571.227 184.328C571.227 184.562 571.154 184.758 571.008 184.914C570.862 185.07 570.646 185.148 570.359 185.148C570.068 185.148 569.849 185.07 569.703 184.914C569.562 184.758 569.492 184.562 569.492 184.328ZM579.07 195L575.594 186.547H577.078L579.5 192.922L579.633 193.445L579.773 192.922L582.141 186.547H583.617L580.172 195H579.07ZM591.352 195C591.294 194.891 591.247 194.755 591.211 194.594C591.18 194.427 591.156 194.255 591.141 194.078C590.995 194.224 590.831 194.362 590.648 194.492C590.471 194.622 590.276 194.737 590.062 194.836C589.844 194.935 589.612 195.013 589.367 195.07C589.122 195.128 588.862 195.156 588.586 195.156C588.138 195.156 587.732 195.091 587.367 194.961C587.008 194.831 586.703 194.654 586.453 194.43C586.198 194.211 586 193.951 585.859 193.648C585.724 193.341 585.656 193.01 585.656 192.656C585.656 192.193 585.747 191.786 585.93 191.438C586.117 191.089 586.38 190.797 586.719 190.562C587.057 190.333 587.464 190.161 587.938 190.047C588.417 189.932 588.951 189.875 589.539 189.875H591.117V189.211C591.117 188.956 591.07 188.727 590.977 188.523C590.883 188.32 590.75 188.146 590.578 188C590.406 187.859 590.195 187.75 589.945 187.672C589.701 187.594 589.424 187.555 589.117 187.555C588.831 187.555 588.573 187.591 588.344 187.664C588.12 187.737 587.93 187.833 587.773 187.953C587.617 188.073 587.495 188.216 587.406 188.383C587.323 188.544 587.281 188.714 587.281 188.891H585.828C585.833 188.583 585.911 188.281 586.062 187.984C586.219 187.688 586.443 187.419 586.734 187.18C587.021 186.945 587.37 186.755 587.781 186.609C588.198 186.464 588.669 186.391 589.195 186.391C589.674 186.391 590.12 186.451 590.531 186.57C590.943 186.685 591.299 186.859 591.602 187.094C591.898 187.333 592.133 187.63 592.305 187.984C592.477 188.339 592.562 188.753 592.562 189.227V193.156C592.562 193.438 592.589 193.737 592.641 194.055C592.693 194.367 592.766 194.641 592.859 194.875V195H591.352ZM588.797 193.898C589.078 193.898 589.341 193.862 589.586 193.789C589.831 193.716 590.055 193.62 590.258 193.5C590.456 193.38 590.628 193.245 590.773 193.094C590.919 192.938 591.034 192.776 591.117 192.609V190.898H589.773C589.273 190.898 588.836 190.943 588.461 191.031C588.091 191.115 587.797 191.245 587.578 191.422C587.422 191.547 587.302 191.695 587.219 191.867C587.141 192.039 587.102 192.234 587.102 192.453C587.102 192.661 587.135 192.854 587.203 193.031C587.276 193.208 587.383 193.359 587.523 193.484C587.664 193.615 587.841 193.716 588.055 193.789C588.268 193.862 588.516 193.898 588.797 193.898ZM598.828 184.5V186.547H602.047V187.664H598.828V192.258C598.828 192.586 598.87 192.857 598.953 193.07C599.036 193.284 599.151 193.453 599.297 193.578C599.443 193.708 599.609 193.799 599.797 193.852C599.99 193.904 600.193 193.93 600.406 193.93C600.562 193.93 600.724 193.922 600.891 193.906C601.057 193.885 601.221 193.862 601.383 193.836C601.539 193.81 601.685 193.784 601.82 193.758C601.961 193.727 602.076 193.701 602.164 193.68L602.367 194.703C602.247 194.776 602.102 194.841 601.93 194.898C601.758 194.951 601.57 194.995 601.367 195.031C601.164 195.073 600.948 195.104 600.719 195.125C600.495 195.146 600.271 195.156 600.047 195.156C599.672 195.156 599.32 195.104 598.992 195C598.669 194.891 598.388 194.719 598.148 194.484C597.909 194.255 597.719 193.958 597.578 193.594C597.443 193.224 597.375 192.779 597.375 192.258V187.664H595.156V186.547H597.375V184.5H598.828ZM608.75 195.156C608.156 195.156 607.609 195.055 607.109 194.852C606.615 194.648 606.19 194.365 605.836 194C605.482 193.635 605.206 193.203 605.008 192.703C604.81 192.203 604.711 191.659 604.711 191.07V190.742C604.711 190.06 604.82 189.451 605.039 188.914C605.258 188.372 605.549 187.914 605.914 187.539C606.273 187.169 606.682 186.885 607.141 186.688C607.604 186.49 608.078 186.391 608.562 186.391C609.172 186.391 609.703 186.497 610.156 186.711C610.615 186.919 610.995 187.208 611.297 187.578C611.599 187.953 611.823 188.393 611.969 188.898C612.12 189.404 612.195 189.951 612.195 190.539V191.188H606.156V191.242C606.193 191.654 606.273 192.016 606.398 192.328C606.529 192.641 606.706 192.917 606.93 193.156C607.159 193.411 607.435 193.612 607.758 193.758C608.081 193.904 608.438 193.977 608.828 193.977C609.344 193.977 609.802 193.872 610.203 193.664C610.604 193.456 610.938 193.18 611.203 192.836L612.086 193.523C611.805 193.951 611.383 194.331 610.82 194.664C610.263 194.992 609.573 195.156 608.75 195.156ZM608.562 187.578C608.271 187.578 607.995 187.633 607.734 187.742C607.474 187.846 607.24 188 607.031 188.203C606.823 188.411 606.646 188.667 606.5 188.969C606.359 189.266 606.26 189.609 606.203 190H610.75V189.93C610.75 189.669 610.701 189.391 610.602 189.094C610.503 188.792 610.365 188.531 610.188 188.312C610.01 188.094 609.786 187.917 609.516 187.781C609.25 187.646 608.932 187.578 608.562 187.578Z" fill="#999EA4"/>
<defs>
<linearGradient id="paint0_linear_293_3736" x1="1200.12" y1="46.5" x2="95.125" y2="46.5" gradientUnits="userSpaceOnUse">
<stop stop-color="#008CFF"/>
<stop offset="0.560003" stop-color="#18C8FF"/>
<stop offset="1" stop-color="#00B0F2"/>
</linearGradient>
<linearGradient id="paint1_linear_293_3736" x1="1044" y1="160.5" x2="798" y2="160.5" gradientUnits="userSpaceOnUse">
<stop stop-color="#008CFF"/>
<stop offset="0.560003" stop-color="#18C8FF"/>
<stop offset="1" stop-color="#00B0F2"/>
</linearGradient>
<linearGradient id="paint2_linear_293_3736" x1="427.644" y1="194.5" x2="261.783" y2="194.5" gradientUnits="userSpaceOnUse">
<stop stop-color="#008CFF"/>
<stop offset="0.560003" stop-color="#18C8FF"/>
<stop offset="1" stop-color="#00B0F2"/>
</linearGradient>
<linearGradient id="paint3_linear_293_3736" x1="1" y1="46.5" x2="1094" y2="46.5" gradientUnits="userSpaceOnUse">
<stop stop-color="#008CFF"/>
<stop offset="0.560003" stop-color="#18C8FF"/>
<stop offset="1" stop-color="#00B0F2"/>
</linearGradient>
<linearGradient id="paint4_linear_293_3736" x1="535.5" y1="219.5" x2="24.98" y2="219.5" gradientUnits="userSpaceOnUse">
<stop stop-color="#008CFF"/>
<stop offset="0.560003" stop-color="#18C8FF"/>
<stop offset="1" stop-color="#00B0F2"/>
</linearGradient>
<linearGradient id="paint5_linear_293_3736" x1="1201" y1="190" x2="562" y2="190" gradientUnits="userSpaceOnUse">
<stop stop-color="#008CFF"/>
<stop offset="0.560003" stop-color="#18C8FF"/>
<stop offset="1" stop-color="#00B0F2"/>
</linearGradient>
</defs>
</svg>
