<svg width="26" height="26" viewBox="0 0 26 26" fill="none" xmlns="http://www.w3.org/2000/svg">
<g id="Group">
<path id="Vector" d="M13.0296 0H12.9704C5.80704 0 0 5.80704 0 12.9704V13.0296C0 20.193 5.80704 26 12.9704 26H13.0296C20.193 26 26 20.193 26 13.0296V12.9704C26 5.80704 20.193 0 13.0296 0Z" fill="#999EA4"/>
<path id="Vector_2" d="M4.92441 12.5568C4.96084 12.5386 4.9973 12.5213 5.03282 12.5049C5.65042 12.2189 6.27621 11.9511 6.90109 11.6833C6.9348 11.6833 6.99126 11.6441 7.02314 11.6313C7.07142 11.6104 7.1197 11.5903 7.16798 11.5694L7.44581 11.4501C7.63164 11.3708 7.81654 11.2916 8.00236 11.2123C8.3731 11.0538 8.74384 10.8953 9.11458 10.7359C9.85606 10.4189 10.5985 10.101 11.3399 9.78402C12.0814 9.46703 12.8238 9.14912 13.5653 8.83212C14.3068 8.51513 15.0491 8.19722 15.7906 7.88023C16.5321 7.56323 17.2745 7.24532 18.016 6.92833C18.1809 6.85728 18.3594 6.75161 18.5361 6.72064C18.6846 6.69423 18.8294 6.64322 18.9788 6.61498C19.2621 6.56123 19.5745 6.53937 19.846 6.65688C19.9398 6.69787 20.0263 6.75526 20.0983 6.82722C20.4426 7.1679 20.3943 7.72719 20.3215 8.20633C19.8141 11.5457 19.3067 14.886 18.7984 18.2254C18.7292 18.6836 18.6345 19.1864 18.2728 19.4761C17.9668 19.7211 17.5314 19.7484 17.1533 19.6446C16.7753 19.5398 16.4419 19.3203 16.1149 19.1044C14.7586 18.2063 13.4013 17.3081 12.045 16.41C11.7225 16.1968 11.3636 15.9181 11.3673 15.5309C11.3691 15.2977 11.5084 15.0901 11.6505 14.9051C12.8293 13.3675 14.5299 12.3109 15.7952 10.8443C15.9737 10.6375 16.114 10.2641 15.869 10.1447C15.7232 10.0737 15.5556 10.1702 15.4226 10.2622C13.7502 11.4237 12.0787 12.586 10.4063 13.7474C9.86063 14.1263 9.28858 14.5162 8.6309 14.6091C8.04246 14.6929 7.45037 14.5289 6.88105 14.3613C6.40374 14.221 5.92732 14.0771 5.45274 13.9286C5.20042 13.8503 4.9399 13.7656 4.74496 13.588C4.55003 13.4103 4.438 13.1116 4.55551 12.8747C4.62929 12.7262 4.77231 12.6324 4.92261 12.5559L4.92441 12.5568Z" fill="#FEFFFC"/>
</g>
</svg>
