<svg width="48" height="49" viewBox="0 0 48 49" fill="none" xmlns="http://www.w3.org/2000/svg">
<g id="Group">
<path id="Vector" d="M48 24.7827C48 11.5279 37.2549 0.782715 24 0.782715C10.7452 0.782715 0 11.5279 0 24.7827C0 38.0375 10.7452 48.7827 24 48.7827C37.2549 48.7827 48 38.0375 48 24.7827Z" fill="#02D7F2"/>
<path id="Vector_2" d="M39.1129 19.8115C38.924 17.9884 38.5176 15.9731 37.0217 14.914C35.8631 14.0927 34.3402 14.0623 32.9185 14.064C29.9133 14.064 26.9063 14.0691 23.901 14.0708C21.0105 14.0741 18.1199 14.0758 15.2293 14.0792C14.0218 14.0792 12.848 13.9864 11.7265 14.5092C10.7635 14.9578 10.0097 15.8112 9.55601 16.7607C8.92696 18.0812 8.79543 19.5771 8.71954 21.0375C8.57956 23.6971 8.59474 26.3634 8.7617 29.0212C8.88481 30.9607 9.1968 33.1042 10.6961 34.3403C12.025 35.4348 13.9003 35.4888 15.6239 35.4905C21.0948 35.4956 26.5673 35.5006 32.0399 35.504C32.7415 35.5057 33.4734 35.4922 34.1885 35.4146C35.595 35.2628 36.9357 34.8598 37.8396 33.8175C38.752 32.7669 38.9864 31.3047 39.1247 29.9201C39.462 26.5607 39.4586 23.1692 39.1129 19.8115ZM20.7372 29.4934V20.0746L28.893 24.7832L20.7372 29.4934Z" fill="#0B0B0F"/>
</g>
</svg>
