<svg width="360" height="343" viewBox="0 0 360 343" fill="none" xmlns="http://www.w3.org/2000/svg">
<path d="M137.479 333.669H85.9623L89.0107 331.23H134.431H135.955H158.817L161.865 333.669H139.003L143.271 336.717H183.813L186.862 333.669H163.694L159.427 330.316C159.427 330.113 159.325 330.011 159.122 330.011H134.735H133.211H88.7059C88.7059 330.011 88.6044 330.113 88.4011 330.316L84.1334 333.669H70.416H61.5758H56.0889H48.773H43.2859H11.2786L0.914457 323.305C0.711236 323.102 0.507978 323 0.304757 323C0.101536 323.203 0 323.406 0 323.61V333.974C0 334.279 0.304683 334.584 0.609514 334.584H10.9739H44.5053L53.0406 341.29H58.5275L49.9923 334.584H57.3083L65.8435 341.29H71.3305L62.7952 334.584H70.1113L78.6465 341.29C78.6465 341.29 78.748 341.29 78.9513 341.29H147.234L137.479 333.669Z" fill="#40F4FF"/>
<path d="M359.39 330.318H307.264C307.061 330.318 306.96 330.318 306.96 330.318L302.692 333.671L292.328 341.902H208.195L197.525 333.671C197.525 333.671 197.424 333.671 197.221 333.671H188.381L184.418 337.634C184.215 337.634 184.113 337.736 184.113 337.939H144.485L148.753 341.292H205.756L207.585 342.816C207.585 342.816 207.686 342.816 207.89 342.816H292.328C292.531 342.816 292.633 342.816 292.633 342.816L303.302 334.586H359.39C359.695 334.586 360 334.281 360 333.976V330.623C360 330.318 359.695 330.318 359.39 330.318Z" fill="#40F4FF"/>
<path d="M292.638 333.366H208.2C207.997 333.366 207.794 333.467 207.59 333.67C207.59 333.874 207.692 334.077 207.895 334.28L212.163 337.633C212.163 337.837 212.264 337.938 212.468 337.938H288.371C288.574 337.938 288.675 337.837 288.675 337.633L292.943 334.28C293.146 334.077 293.248 333.874 293.248 333.67C293.045 333.467 292.842 333.366 292.638 333.366Z" fill="#40F4FF"/>
<path d="M103.638 9.45096H138.389C138.592 9.45096 138.795 9.34942 138.998 9.1462C138.998 8.94299 138.897 8.73973 138.693 8.53652L134.426 5.18341C134.426 5.18341 134.324 5.18341 134.121 5.18341H107.906C107.703 5.18341 107.601 5.18341 107.601 5.18341L103.029 8.53652C103.029 8.73973 103.029 8.94299 103.029 9.1462C103.029 9.34942 103.232 9.45096 103.638 9.45096Z" fill="#40F4FF"/>
<path d="M359.39 8.23025H349.026H287.756L279.526 1.82888H274.039L282.269 8.23025H275.258L266.723 1.82888H261.236L269.771 8.23025H262.456L254.225 1.82888C254.022 1.82888 253.92 1.82888 253.92 1.82888H192.041C191.837 1.82888 191.634 1.82888 191.431 1.82888L183.505 8.23025H149.365L139.001 0C139.001 0 138.899 0 138.696 0H103.641C103.438 0 103.336 0 103.336 0L92.972 8.23025H30.4826L34.7503 4.87714H69.8053V3.9627H34.7503C34.5471 3.9627 34.3438 3.9627 34.1406 3.9627L28.6537 8.23025H0.60969C0.304864 8.23025 0 8.53511 0 8.83994V12.193C0 12.4979 0.304864 12.8026 0.60969 12.8026H88.7046C88.9078 12.8026 89.111 12.8026 89.3143 12.8026L93.5817 9.14478L103.946 0.914441H138.391L149.06 9.14478C149.06 9.348 149.162 9.44953 149.365 9.44953H173.142L176.19 12.8026C176.393 12.8026 176.596 12.8026 176.799 12.8026H219.78C219.983 12.8026 220.085 12.8026 220.085 12.8026L223.133 9.44953H262.456C262.659 9.44953 262.76 9.44953 262.76 9.44953H270.991H271.295H276.478H283.793H289.28H348.721L359.086 19.8137C359.289 19.8137 359.39 19.8137 359.39 19.8137C359.594 19.8137 359.695 19.8137 359.695 19.8137C359.898 19.8137 360 19.6104 360 19.204V8.83994C360 8.53511 359.695 8.23025 359.39 8.23025Z" fill="#40F4FF"/>
<path d="M87.311 17.4763H0V96.1457L3.47971 179.634V261.129L0 264.617V322.646L6.32689 328.988H76.8717L81.3006 325.5H159.438L164.183 328.988L186.327 329.007H186.011L303.691 328.988L308.12 325.519H360V308.712L356.52 305.224V257.976L360 254.488V22.5499L351.459 13.9882H312.548L312.865 14.3053H226.186L223.339 17.1592H172.724L169.877 14.3053H161.019L161.336 13.9882H157.54L157.856 14.3053H91.4236L87.311 17.4763Z" fill="#02D7F2" fill-opacity="0.08"/>
</svg>
