<svg width="35" height="43" viewBox="0 0 35 43" fill="none" xmlns="http://www.w3.org/2000/svg">
<g id="Group">
<path id="Vector" d="M34.5398 14.5787V20.9287C33.4334 20.8204 31.9956 20.5682 30.4052 19.9839C28.3285 19.2205 26.7827 18.1766 25.7702 17.3684V30.2029L25.7444 30.1628C25.7608 30.4173 25.7702 30.6765 25.7702 30.938C25.7702 37.3117 20.5996 42.5001 14.2427 42.5001C7.8857 42.5001 2.71509 37.3117 2.71509 30.938C2.71509 24.5644 7.8857 19.3736 14.2427 19.3736C14.8652 19.3736 15.476 19.4231 16.0727 19.5197V25.7779C15.4995 25.5729 14.884 25.4621 14.2427 25.4621C11.2333 25.4621 8.7831 27.9173 8.7831 30.938C8.7831 33.9587 11.2333 36.4139 14.2427 36.4139C17.252 36.4139 19.7022 33.9564 19.7022 30.938C19.7022 30.8249 19.6999 30.7118 19.6928 30.5987V5.65796H26.0192C26.0427 6.19518 26.0639 6.73711 26.0874 7.27433C26.1297 8.33229 26.5055 9.34784 27.161 10.1796C27.9292 11.1574 29.0638 12.2931 30.6566 13.2003C32.1483 14.0462 33.5485 14.4114 34.5398 14.5834V14.5787Z" fill="#FF004F" fill-opacity="0.06"/>
<path id="Vector_2" d="M33.7483 12.1988V18.5488C32.6418 18.4405 31.2041 18.1883 29.6137 17.604C27.537 16.8406 25.9912 15.7968 24.9787 14.9886V27.823L24.9529 27.7829C24.9693 28.0374 24.9787 28.2966 24.9787 28.5582C24.9787 34.9318 19.8081 40.1202 13.4512 40.1202C7.09419 40.1202 1.92358 34.9318 1.92358 28.5582C1.92358 22.1845 7.09419 16.9937 13.4512 16.9937C14.0737 16.9937 14.6845 17.0432 15.2812 17.1398V23.398C14.708 23.193 14.0925 23.0822 13.4512 23.0822C10.4418 23.0822 7.99159 25.5375 7.99159 28.5582C7.99159 31.5789 10.4418 34.0341 13.4512 34.0341C16.4605 34.0341 18.9107 31.5765 18.9107 28.5582C18.9107 28.4451 18.9084 28.3319 18.9013 28.2188V3.27808H25.2277C25.2512 3.8153 25.2724 4.35723 25.2959 4.89445C25.3382 5.9524 25.714 6.96793 26.3695 7.79968C27.1376 8.77752 28.2723 9.91324 29.8651 10.8204C31.3568 11.6663 32.757 12.0315 33.7483 12.2035V12.1988Z" fill="#E334DA"/>
</g>
</svg>
