<svg width="43" height="43" viewBox="0 0 43 43" fill="none" xmlns="http://www.w3.org/2000/svg">
<g id="Group">
<path id="Vector" d="M21.0876 0.5H20.992C9.42039 0.5 0.0397949 9.88061 0.0397949 21.4522V21.5478C0.0397949 33.1194 9.42039 42.5 20.992 42.5H21.0876C32.6592 42.5 42.0398 33.1194 42.0398 21.5478V21.4522C42.0398 9.88061 32.6592 0.5 21.0876 0.5Z" fill="#E334DA"/>
<path id="Vector_2" d="M7.99464 20.7841C8.0535 20.7547 8.11239 20.7267 8.16978 20.7002C9.16743 20.2382 10.1783 19.8056 11.1878 19.373C11.2422 19.373 11.3334 19.3097 11.3849 19.2891C11.4629 19.2552 11.5409 19.2229 11.6189 19.189L12.0677 18.9963C12.3679 18.8682 12.6665 18.7402 12.9667 18.6122C13.5656 18.3562 14.1645 18.1001 14.7634 17.8426C15.9612 17.3306 17.1604 16.817 18.3582 16.305C19.556 15.7929 20.7552 15.2793 21.953 14.7673C23.1507 14.2552 24.35 13.7417 25.5478 13.2296C26.7455 12.7175 27.9448 12.204 29.1426 11.6919C29.4089 11.5771 29.6973 11.4065 29.9828 11.3564C30.2226 11.3137 30.4566 11.2313 30.6979 11.1857C31.1555 11.0989 31.6602 11.0636 32.0987 11.2534C32.2503 11.3196 32.3901 11.4123 32.5063 11.5286C33.0625 12.0789 32.9845 12.9824 32.8668 13.7564C32.0472 19.1508 31.2276 24.5466 30.4065 29.941C30.2947 30.6812 30.1417 31.4934 29.5575 31.9613C29.0631 32.3572 28.3597 32.4013 27.7491 32.2336C27.1384 32.0643 26.5999 31.7097 26.0716 31.361C23.8806 29.9101 21.6881 28.4592 19.4971 27.0084C18.9762 26.6641 18.3965 26.2138 18.4023 25.5884C18.4053 25.2117 18.6304 24.8762 18.86 24.5775C20.764 22.0937 23.5113 20.3868 25.5551 18.0177C25.8435 17.6837 26.0701 17.0804 25.6743 16.8877C25.4389 16.7729 25.1681 16.9289 24.9533 17.0775C22.2517 18.9536 19.5516 20.8312 16.8499 22.7073C15.9685 23.3194 15.0445 23.9492 13.9821 24.0993C13.0315 24.2347 12.075 23.9698 11.1554 23.6991C10.3843 23.4725 9.61473 23.24 8.8481 23.0001C8.4405 22.8736 8.01966 22.7367 7.70477 22.4498C7.38988 22.1629 7.20891 21.6802 7.39873 21.2976C7.51792 21.0578 7.74894 20.9062 7.99173 20.7826L7.99464 20.7841Z" fill="#FEFFFC"/>
</g>
</svg>
