<svg width="397" height="460" viewBox="0 0 397 460" fill="none" xmlns="http://www.w3.org/2000/svg">
<path fill-rule="evenodd" clip-rule="evenodd" d="M74.4361 450.534C74.4361 448.542 76.0217 446.935 77.986 446.935C79.832 446.935 81.3466 448.374 81.5123 450.198H183.016L206.162 426.755H306.719V427.235H206.351L183.229 450.678H81.5359C81.4649 452.597 79.903 454.133 77.986 454.133C76.0217 454.133 74.4361 452.525 74.4361 450.534ZM74.9094 450.534C74.9094 452.261 76.2821 453.653 77.986 453.653C79.69 453.653 81.0626 452.261 81.0626 450.534C81.0626 448.806 79.69 447.415 77.986 447.415C76.2821 447.415 74.9094 448.806 74.9094 450.534Z" fill="#D32A39"/>
<path fill-rule="evenodd" clip-rule="evenodd" d="M53.321 424.84C53.321 422.849 54.9067 421.241 56.8709 421.241C58.7642 421.241 60.3262 422.777 60.4209 424.672H162.611L177.521 439.789H353.526V440.269H177.308L162.422 425.152H60.3972C60.2552 427 58.7169 428.44 56.8709 428.44C54.9067 428.44 53.321 426.832 53.321 424.84ZM53.7943 424.84C53.7943 426.568 55.167 427.96 56.8709 427.96C58.5749 427.96 59.9475 426.568 59.9475 424.84C59.9475 423.113 58.5749 421.721 56.8709 421.721C55.167 421.721 53.7943 423.113 53.7943 424.84Z" fill="#D32A39"/>
<path fill-rule="evenodd" clip-rule="evenodd" d="M346.689 456.399C346.689 458.391 345.104 459.998 343.139 459.998C341.341 459.998 339.874 458.655 339.637 456.903V456.975H220.714L204.479 440.515H129.789V440.035H204.669L220.904 456.495H339.59C339.59 456.463 339.59 456.431 339.59 456.399C339.59 454.408 341.175 452.8 343.139 452.8C345.104 452.8 346.689 454.408 346.689 456.399ZM346.216 456.399C346.216 454.672 344.843 453.28 343.139 453.28C341.435 453.28 340.063 454.672 340.063 456.399C340.063 458.127 341.435 459.518 343.139 459.518C344.843 459.518 346.216 458.127 346.216 456.399Z" fill="#D32A39"/>
<path fill-rule="evenodd" clip-rule="evenodd" d="M95.7647 406.277C95.7647 404.286 97.3503 402.678 99.3146 402.678C101.161 402.678 102.675 404.118 102.841 405.941H204.345L227.49 382.498H328.048V382.978H227.68L204.558 406.421H102.865C102.794 408.341 101.232 409.876 99.3146 409.876C97.3503 409.876 95.7647 408.269 95.7647 406.277ZM96.238 406.277C96.238 408.005 97.6107 409.397 99.3146 409.397C101.019 409.397 102.391 408.005 102.391 406.277C102.391 404.55 101.019 403.158 99.3146 403.158C97.6107 403.158 96.238 404.55 96.238 406.277Z" fill="#D32A39"/>
<path fill-rule="evenodd" clip-rule="evenodd" d="M74.6496 380.584C74.6496 378.593 76.2353 376.985 78.1996 376.985C80.0928 376.985 81.6548 378.521 81.7495 380.417H183.94L198.849 395.533H374.854V396.013H198.636L183.75 380.896H81.7258C81.5838 382.744 80.0455 384.184 78.1996 384.184C76.2353 384.184 74.6496 382.576 74.6496 380.584ZM75.123 380.584C75.123 382.312 76.4956 383.704 78.1996 383.704C79.9035 383.704 81.2761 382.312 81.2761 380.584C81.2761 378.857 79.9035 377.465 78.1996 377.465C76.4956 377.465 75.123 378.857 75.123 380.584Z" fill="#D32A39"/>
<path fill-rule="evenodd" clip-rule="evenodd" d="M368.018 412.142C368.018 414.134 366.432 415.742 364.468 415.742C362.669 415.742 361.202 414.398 360.965 412.646V412.718H242.043L225.808 396.258H151.118V395.778H225.997L242.232 412.238H360.918C360.918 412.206 360.918 412.174 360.918 412.142C360.918 410.151 362.504 408.543 364.468 408.543C366.432 408.543 368.018 410.151 368.018 412.142ZM367.545 412.142C367.545 410.415 366.172 409.023 364.468 409.023C362.764 409.023 361.391 410.415 361.391 412.142C361.391 413.87 362.764 415.262 364.468 415.262C366.172 415.262 367.545 413.87 367.545 412.142Z" fill="#D32A39"/>
<path fill-rule="evenodd" clip-rule="evenodd" d="M371.337 362.02C371.337 360.029 369.751 358.421 367.787 358.421C365.941 358.421 364.426 359.861 364.261 361.684H262.757L239.611 338.242H139.054V338.721H239.422L262.544 362.164H364.237C364.308 364.084 365.87 365.62 367.787 365.62C369.751 365.62 371.337 364.012 371.337 362.02ZM370.864 362.02C370.864 363.748 369.491 365.14 367.787 365.14C366.083 365.14 364.71 363.748 364.71 362.02C364.71 360.293 366.083 358.901 367.787 358.901C369.491 358.901 370.864 360.293 370.864 362.02Z" fill="#D32A39"/>
<path fill-rule="evenodd" clip-rule="evenodd" d="M84.7815 336.328C84.7815 334.336 86.3671 332.729 88.3314 332.729C90.2247 332.729 91.7866 334.264 91.8813 336.16H194.072L208.981 351.277H384.986V351.757H208.768L193.882 336.64H91.8576C91.7157 338.487 90.1773 339.927 88.3314 339.927C86.3671 339.927 84.7815 338.319 84.7815 336.328ZM85.2548 336.328C85.2548 338.056 86.6274 339.447 88.3314 339.447C90.0353 339.447 91.408 338.056 91.408 336.328C91.408 334.6 90.0353 333.209 88.3314 333.209C86.6274 333.209 85.2548 334.6 85.2548 336.328Z" fill="#D32A39"/>
<path fill-rule="evenodd" clip-rule="evenodd" d="M99.0831 367.886C99.0831 369.877 100.669 371.485 102.633 371.485C104.432 371.485 105.899 370.141 106.136 368.39V368.462H225.058L241.293 352.001H315.983V351.521H241.104L224.869 367.982H106.183C106.183 367.95 106.183 367.918 106.183 367.886C106.183 365.894 104.597 364.286 102.633 364.286C100.669 364.286 99.0831 365.894 99.0831 367.886ZM99.5564 367.886C99.5564 366.158 100.929 364.766 102.633 364.766C104.337 364.766 105.71 366.158 105.71 367.886C105.71 369.613 104.337 371.005 102.633 371.005C100.929 371.005 99.5564 369.613 99.5564 367.886Z" fill="#D32A39"/>
<path fill-rule="evenodd" clip-rule="evenodd" d="M291.353 317.763C291.353 315.772 289.768 314.164 287.804 314.164C285.958 314.164 284.443 315.604 284.277 317.427H182.773L159.628 293.984H59.0703V294.464H159.438L182.56 317.907H284.254C284.325 319.827 285.887 321.363 287.804 321.363C289.768 321.363 291.353 319.755 291.353 317.763ZM290.88 317.763C290.88 319.491 289.507 320.883 287.804 320.883C286.1 320.883 284.727 319.491 284.727 317.763C284.727 316.036 286.1 314.644 287.804 314.644C289.507 314.644 290.88 316.036 290.88 317.763Z" fill="#D32A39"/>
<path fill-rule="evenodd" clip-rule="evenodd" d="M312.469 292.07C312.469 290.078 310.883 288.471 308.919 288.471C307.026 288.471 305.464 290.006 305.369 291.902H203.179L188.269 307.019H12.2642V307.499H188.482L203.368 292.382H305.393C305.535 294.229 307.073 295.669 308.919 295.669C310.883 295.669 312.469 294.061 312.469 292.07ZM311.996 292.07C311.996 293.797 310.623 295.189 308.919 295.189C307.215 295.189 305.843 293.797 305.843 292.07C305.843 290.342 307.215 288.951 308.919 288.951C310.623 288.951 311.996 290.342 311.996 292.07Z" fill="#D32A39"/>
<path fill-rule="evenodd" clip-rule="evenodd" d="M19.1007 323.629C19.1007 325.62 20.6863 327.228 22.6506 327.228C24.4492 327.228 25.9165 325.884 26.1532 324.133V324.205H145.076L161.311 307.744H236.001V307.264H161.121L144.886 323.725H26.2005C26.2005 323.693 26.2005 323.661 26.2005 323.629C26.2005 321.637 24.6149 320.029 22.6506 320.029C20.6863 320.029 19.1007 321.637 19.1007 323.629ZM19.574 323.629C19.574 321.901 20.9466 320.509 22.6506 320.509C24.3545 320.509 25.7272 321.901 25.7272 323.629C25.7272 325.356 24.3545 326.748 22.6506 326.748C20.9466 326.748 19.574 325.356 19.574 323.629Z" fill="#D32A39"/>
<path fill-rule="evenodd" clip-rule="evenodd" d="M375.069 273.505C375.069 271.513 373.483 269.906 371.519 269.906C369.673 269.906 368.158 271.345 367.993 273.169H266.489L243.343 249.726H142.786V250.206H243.154L266.276 273.649H367.969C368.04 275.569 369.602 277.104 371.519 277.104C373.483 277.104 375.069 275.497 375.069 273.505ZM374.595 273.505C374.595 275.233 373.223 276.624 371.519 276.624C369.815 276.624 368.442 275.233 368.442 273.505C368.442 271.777 369.815 270.386 371.519 270.386C373.223 270.386 374.595 271.777 374.595 273.505Z" fill="#D32A39"/>
<path fill-rule="evenodd" clip-rule="evenodd" d="M95.9787 259.641C95.9787 261.633 97.5644 263.241 99.5287 263.241C101.422 263.241 102.984 261.705 103.079 259.809H205.269L220.179 244.693H396.184V244.213H219.966L205.08 259.329H103.055C102.913 257.482 101.375 256.042 99.5287 256.042C97.5644 256.042 95.9787 257.65 95.9787 259.641ZM96.4521 259.641C96.4521 257.914 97.8247 256.522 99.5287 256.522C101.233 256.522 102.605 257.914 102.605 259.641C102.605 261.369 101.233 262.761 99.5287 262.761C97.8247 262.761 96.4521 261.369 96.4521 259.641Z" fill="#D32A39"/>
<path fill-rule="evenodd" clip-rule="evenodd" d="M102.816 279.37C102.816 281.362 104.401 282.969 106.365 282.969C108.164 282.969 109.631 281.626 109.868 279.874V279.946H228.79L245.025 263.486H319.716V263.006H244.836L228.601 279.466H109.915C109.915 279.434 109.915 279.402 109.915 279.37C109.915 277.379 108.33 275.771 106.365 275.771C104.401 275.771 102.816 277.379 102.816 279.37ZM103.289 279.37C103.289 277.642 104.661 276.251 106.365 276.251C108.069 276.251 109.442 277.642 109.442 279.37C109.442 281.098 108.069 282.489 106.365 282.489C104.661 282.489 103.289 281.098 103.289 279.37Z" fill="#D32A39"/>
<path fill-rule="evenodd" clip-rule="evenodd" d="M279.09 216.985C279.09 214.993 277.504 213.386 275.54 213.386C273.694 213.386 272.179 214.825 272.014 216.649H170.51L147.364 193.206H46.8066V193.686H147.175L170.297 217.129H271.99C272.061 219.049 273.623 220.584 275.54 220.584C277.504 220.584 279.09 218.977 279.09 216.985ZM278.616 216.985C278.616 218.713 277.244 220.104 275.54 220.104C273.836 220.104 272.463 218.713 272.463 216.985C272.463 215.257 273.836 213.866 275.54 213.866C277.244 213.866 278.616 215.257 278.616 216.985Z" fill="#D32A39"/>
<path fill-rule="evenodd" clip-rule="evenodd" d="M300.205 191.292C300.205 189.3 298.619 187.692 296.655 187.692C294.762 187.692 293.2 189.228 293.105 191.124H190.915L176.005 206.24H0V206.72H176.218L191.104 191.603H293.129C293.271 193.451 294.809 194.891 296.655 194.891C298.619 194.891 300.205 193.283 300.205 191.292ZM299.732 191.292C299.732 193.019 298.359 194.411 296.655 194.411C294.951 194.411 293.578 193.019 293.578 191.292C293.578 189.564 294.951 188.172 296.655 188.172C298.359 188.172 299.732 189.564 299.732 191.292Z" fill="#D32A39"/>
<path fill-rule="evenodd" clip-rule="evenodd" d="M223.737 210.085C223.737 208.094 222.152 206.486 220.187 206.486C218.389 206.486 216.921 207.83 216.685 209.581V209.509H97.7623L81.5273 225.97H6.83691V226.45H81.7166L97.9516 209.989H216.637C216.637 210.021 216.637 210.053 216.637 210.085C216.637 212.077 218.223 213.684 220.187 213.684C222.152 213.684 223.737 212.077 223.737 210.085ZM223.264 210.085C223.264 211.813 221.891 213.205 220.187 213.205C218.483 213.205 217.111 211.813 217.111 210.085C217.111 208.358 218.483 206.966 220.187 206.966C221.891 206.966 223.264 208.358 223.264 210.085Z" fill="#D32A39"/>
<path fill-rule="evenodd" clip-rule="evenodd" d="M371.337 139.037C371.337 141.029 369.751 142.636 367.787 142.636C365.941 142.636 364.426 141.197 364.261 139.373H262.757L239.611 162.816H139.054V162.336H239.422L262.544 138.893H364.237C364.308 136.974 365.87 135.438 367.787 135.438C369.751 135.438 371.337 137.046 371.337 139.037ZM370.864 139.037C370.864 137.31 369.491 135.918 367.787 135.918C366.083 135.918 364.71 137.31 364.71 139.037C364.71 140.765 366.083 142.157 367.787 142.157C369.491 142.157 370.864 140.765 370.864 139.037Z" fill="#D32A39"/>
<path fill-rule="evenodd" clip-rule="evenodd" d="M392.452 164.731C392.452 166.723 390.866 168.33 388.902 168.33C387.009 168.33 385.447 166.794 385.352 164.899H283.162L268.252 149.782H92.2471V149.302H268.465L283.351 164.419H385.376C385.518 162.571 387.056 161.132 388.902 161.132C390.866 161.132 392.452 162.739 392.452 164.731ZM391.979 164.731C391.979 163.003 390.606 161.612 388.902 161.612C387.198 161.612 385.825 163.003 385.825 164.731C385.825 166.459 387.198 167.85 388.902 167.85C390.606 167.85 391.979 166.459 391.979 164.731Z" fill="#D32A39"/>
<path fill-rule="evenodd" clip-rule="evenodd" d="M99.0836 133.172C99.0836 131.181 100.669 129.573 102.633 129.573C104.432 129.573 105.899 130.917 106.136 132.668V132.596H225.059L241.294 149.057H315.984V149.537H241.104L224.869 133.076H106.183C106.183 133.108 106.183 133.14 106.183 133.172C106.183 135.164 104.598 136.771 102.633 136.771C100.669 136.771 99.0836 135.164 99.0836 133.172ZM99.5569 133.172C99.5569 134.9 100.93 136.291 102.633 136.291C104.337 136.291 105.71 134.9 105.71 133.172C105.71 131.445 104.337 130.053 102.633 130.053C100.93 130.053 99.5569 131.445 99.5569 133.172Z" fill="#D32A39"/>
<path fill-rule="evenodd" clip-rule="evenodd" d="M281.223 125.271C281.223 123.28 279.637 121.672 277.673 121.672C275.827 121.672 274.312 123.112 274.146 124.935H172.642L149.497 101.492H48.9395V101.972H149.308L172.429 125.415H274.123C274.194 127.335 275.756 128.871 277.673 128.871C279.637 128.871 281.223 127.263 281.223 125.271ZM280.749 125.271C280.749 126.999 279.377 128.391 277.673 128.391C275.969 128.391 274.596 126.999 274.596 125.271C274.596 123.544 275.969 122.152 277.673 122.152C279.377 122.152 280.749 123.544 280.749 125.271Z" fill="#D32A39"/>
<path fill-rule="evenodd" clip-rule="evenodd" d="M2.13254 111.408C2.13254 113.4 3.71817 115.007 5.68246 115.007C7.57575 115.007 9.13772 113.471 9.23238 111.576H111.423L126.332 96.4591H302.337V95.9792H126.119L111.233 111.096H9.20872C9.06673 109.248 7.52842 107.809 5.68246 107.809C3.71817 107.809 2.13254 109.416 2.13254 111.408ZM2.60587 111.408C2.60587 109.68 3.9785 108.289 5.68246 108.289C7.38642 108.289 8.75906 109.68 8.75906 111.408C8.75906 113.136 7.38642 114.527 5.68246 114.527C3.9785 114.527 2.60587 113.136 2.60587 111.408Z" fill="#D32A39"/>
<path fill-rule="evenodd" clip-rule="evenodd" d="M8.96932 131.137C8.96932 133.128 10.5549 134.736 12.5192 134.736C14.3179 134.736 15.7852 133.392 16.0218 131.641V131.713H134.944L151.179 115.252H225.87V114.772H150.99L134.755 131.233H16.0692C16.0692 131.201 16.0692 131.169 16.0692 131.137C16.0692 129.145 14.4835 127.537 12.5192 127.537C10.5549 127.537 8.96932 129.145 8.96932 131.137ZM9.44264 131.137C9.44264 129.409 10.8153 128.017 12.5192 128.017C14.2232 128.017 15.5958 129.409 15.5958 131.137C15.5958 132.864 14.2232 134.256 12.5192 134.256C10.8153 134.256 9.44264 132.864 9.44264 131.137Z" fill="#D32A39"/>
<path fill-rule="evenodd" clip-rule="evenodd" d="M112.295 81.0143C112.295 79.0227 113.881 77.4151 115.845 77.4151C117.691 77.4151 119.206 78.8548 119.371 80.6784H220.875L244.021 57.2354H344.578V57.7153H244.21L221.088 81.1583H119.395C119.324 83.0778 117.762 84.6135 115.845 84.6135C113.881 84.6135 112.295 83.0059 112.295 81.0143ZM112.768 81.0143C112.768 82.7419 114.141 84.1336 115.845 84.1336C117.549 84.1336 118.922 82.7419 118.922 81.0143C118.922 79.2867 117.549 77.895 115.845 77.895C114.141 77.895 112.768 79.2867 112.768 81.0143Z" fill="#D32A39"/>
<path fill-rule="evenodd" clip-rule="evenodd" d="M91.1794 55.3208C91.1794 53.3292 92.765 51.7216 94.7293 51.7216C96.6226 51.7216 98.1846 53.2573 98.2793 55.1529H200.47L215.379 70.2696H391.384V70.7495H215.166L200.28 55.6328H98.2556C98.1136 57.4804 96.5753 58.92 94.7293 58.92C92.765 58.92 91.1794 57.3124 91.1794 55.3208ZM91.6527 55.3208C91.6527 57.0484 93.0254 58.4401 94.7293 58.4401C96.4333 58.4401 97.8059 57.0484 97.8059 55.3208C97.8059 53.5932 96.4333 52.2015 94.7293 52.2015C93.0254 52.2015 91.6527 53.5932 91.6527 55.3208Z" fill="#D32A39"/>
<path fill-rule="evenodd" clip-rule="evenodd" d="M384.548 86.8796C384.548 88.8712 382.962 90.4788 380.998 90.4788C379.199 90.4788 377.732 89.1351 377.495 87.3835V87.4555H258.573L242.338 70.995H167.647V70.5151H242.527L258.762 86.9756H377.448C377.448 86.9436 377.448 86.9116 377.448 86.8796C377.448 84.888 379.034 83.2804 380.998 83.2804C382.962 83.2804 384.548 84.888 384.548 86.8796ZM384.074 86.8796C384.074 85.152 382.702 83.7603 380.998 83.7603C379.294 83.7603 377.921 85.152 377.921 86.8796C377.921 88.6072 379.294 89.9989 380.998 89.9989C382.702 89.9989 384.074 88.6072 384.074 86.8796Z" fill="#D32A39"/>
<path fill-rule="evenodd" clip-rule="evenodd" d="M322.281 29.2919C322.281 27.3003 320.695 25.6927 318.731 25.6927C316.885 25.6927 315.37 27.1323 315.205 28.956H213.7L190.555 5.51301H89.9976V5.9929H190.366L213.487 29.4359H315.181C315.252 31.3554 316.814 32.8911 318.731 32.8911C320.695 32.8911 322.281 31.2835 322.281 29.2919ZM321.807 29.2919C321.807 31.0195 320.435 32.4112 318.731 32.4112C317.027 32.4112 315.654 31.0195 315.654 29.2919C315.654 27.5643 317.027 26.1726 318.731 26.1726C320.435 26.1726 321.807 27.5643 321.807 29.2919Z" fill="#D32A39"/>
<path fill-rule="evenodd" clip-rule="evenodd" d="M343.396 3.59914C343.396 1.60757 341.81 -8.59821e-05 339.846 -8.59821e-05C337.953 -8.59821e-05 336.391 1.5356 336.296 3.43119H234.106L219.196 18.5479H43.1909V19.0278H219.409L234.295 3.91108H336.32C336.462 5.75869 338 7.19837 339.846 7.19837C341.81 7.19837 343.396 5.59071 343.396 3.59914ZM342.922 3.59914C342.922 5.32677 341.55 6.71847 339.846 6.71847C338.142 6.71847 336.769 5.32677 336.769 3.59914C336.769 1.87151 338.142 0.479811 339.846 0.479811C341.55 0.479811 342.922 1.87151 342.922 3.59914Z" fill="#D32A39"/>
<path fill-rule="evenodd" clip-rule="evenodd" d="M50.0274 35.1569C50.0274 37.1485 51.6131 38.7562 53.5773 38.7562C55.376 38.7562 56.8433 37.4125 57.0799 35.6608V35.7328H176.002L192.237 19.2724H266.928V18.7925H192.048L175.813 35.2529H57.1273C57.1273 35.2209 57.1273 35.1889 57.1273 35.1569C57.1273 33.1654 55.5416 31.5577 53.5773 31.5577C51.6131 31.5577 50.0274 33.1654 50.0274 35.1569ZM50.5007 35.1569C50.5007 33.4293 51.8734 32.0376 53.5773 32.0376C55.2813 32.0376 56.6539 33.4293 56.6539 35.1569C56.6539 36.8846 55.2813 38.2763 53.5773 38.2763C51.8734 38.2763 50.5007 36.8846 50.5007 35.1569Z" fill="#D32A39"/>
<path fill-rule="evenodd" clip-rule="evenodd" d="M286.021 57.0194C286.021 55.0279 284.436 53.4202 282.471 53.4202C280.626 53.4202 279.111 54.8599 278.945 56.6835H177.441L154.296 33.2405H53.7383V33.7204H154.106L177.228 57.1634H278.922C278.993 59.083 280.555 60.6187 282.471 60.6187C284.436 60.6187 286.021 59.011 286.021 57.0194ZM285.548 57.0194C285.548 58.7471 284.175 60.1388 282.471 60.1388C280.768 60.1388 279.395 58.7471 279.395 57.0194C279.395 55.2918 280.768 53.9001 282.471 53.9001C284.175 53.9001 285.548 55.2918 285.548 57.0194Z" fill="#D32A39"/>
<path fill-rule="evenodd" clip-rule="evenodd" d="M6.93186 31.3269C6.93186 29.3354 8.51749 27.7277 10.4818 27.7277C12.3751 27.7277 13.937 29.2634 14.0317 31.159H116.222L131.132 46.2757H307.137V46.7556H130.919L116.033 31.6389H14.008C13.866 33.4865 12.3277 34.9261 10.4818 34.9261C8.51749 34.9261 6.93186 33.3185 6.93186 31.3269ZM7.40518 31.3269C7.40518 33.0546 8.77782 34.4463 10.4818 34.4463C12.1857 34.4463 13.5584 33.0546 13.5584 31.3269C13.5584 29.5993 12.1857 28.2076 10.4818 28.2076C8.77782 28.2076 7.40518 29.5993 7.40518 31.3269Z" fill="#D32A39"/>
<path fill-rule="evenodd" clip-rule="evenodd" d="M13.7686 62.8847C13.7686 64.8763 15.3543 66.484 17.3186 66.484C19.1172 66.484 20.5845 65.1402 20.8212 63.3886V63.4606H139.744L155.979 47.0002H230.669V46.5203H155.789L139.554 62.9807H20.8685C20.8685 62.9487 20.8685 62.9167 20.8685 62.8847C20.8685 60.8932 19.2828 59.2855 17.3186 59.2855C15.3543 59.2855 13.7686 60.8932 13.7686 62.8847ZM14.242 62.8847C14.242 61.1571 15.6146 59.7654 17.3186 59.7654C19.0225 59.7654 20.3952 61.1571 20.3952 62.8847C20.3952 64.6124 19.0225 66.0041 17.3186 66.0041C15.6146 66.0041 14.242 64.6124 14.242 62.8847Z" fill="#D32A39"/>
</svg>
