<svg width="905" height="386" viewBox="0 0 905 386" fill="none" xmlns="http://www.w3.org/2000/svg">
<path d="M6 358.595H55.085L78.8028 383.098H505.371L520.96 366.992H670.964L682.077 355.512H794.108L860 287.44V49.9998H114.144L96.6698 68.0522H42.5978L25.1235 49.9998H6V173.771L19.3118 187.523V314.782L7.21731 327.237L6 358.595Z" stroke="#FCEE0A" stroke-width="2" stroke-miterlimit="10"/>
<path d="M746.436 355.511H794.107L859.999 287.439V254.945" stroke="#FCEE0A" stroke-width="12" stroke-miterlimit="10"/>
<path d="M608.13 367.735L599.87 376.269H512.695L521.165 367.735H608.13Z" fill="#FCEE0A" stroke="#FCEE0A"/>
<path d="M42.8158 67.4319L29.1054 53.3814H65.4043L79.0047 67.4319H42.8158Z" fill="#FCEE0A" stroke="#FCEE0A"/>
<path d="M6 134.26V72.1104" stroke="#FCEE0A" stroke-width="12" stroke-miterlimit="10"/>
<path d="M47.0981 365.749L65.3322 384.587H6.5V365.749H47.0981Z" fill="#FCEE0A" stroke="#FCEE0A"/>
<path d="M11.7832 322.533L19.3227 314.785V187.526L11.7832 179.777" stroke="#FCEE0A" stroke-width="12" stroke-miterlimit="10"/>
<path opacity="0.1" d="M61.3864 350.055L61.239 349.902H61.0268H16.045L15.9014 342.446L32.7597 325.03L32.9005 324.885V324.682V180.02V179.817L32.7597 179.672L18.0965 164.523V67.7425H25.8272L35.8895 78.1378L36.0369 78.29H36.2488H106.46H106.672L106.819 78.1378L123.164 61.2517H848.674V280.748L787.822 343.614H674.903H674.692L674.544 343.766L662.597 356.068H516.339H516.127L515.98 356.22L498.692 374.08H84.6034L61.3864 350.055Z" fill="#02D7F2" stroke="#FCEE0A"/>
<rect x="814.44" y="0.5" width="90" height="88" fill="#0B0B0F" fill-opacity="0.95"/>
<rect x="814.44" y="0.5" width="90" height="88" stroke="#FCEE0A"/>
<rect width="71" height="69" transform="translate(823.94 10)" fill="#02D7F2" fill-opacity="0.1"/>
<path d="M852.42 22.392L851.716 54.392H846.852L846.148 22.392H852.42ZM849.54 67.384C848.431 67.384 847.492 67 846.724 66.232C845.956 65.464 845.572 64.5253 845.572 63.416C845.572 62.3067 845.956 61.368 846.724 60.6C847.492 59.832 848.431 59.448 849.54 59.448C850.607 59.448 851.503 59.832 852.228 60.6C852.996 61.368 853.38 62.3067 853.38 63.416C853.38 64.5253 852.996 65.464 852.228 66.232C851.503 67 850.607 67.384 849.54 67.384ZM871.482 22.392L870.778 54.392H865.914L865.21 22.392H871.482ZM868.602 67.384C867.493 67.384 866.554 67 865.786 66.232C865.018 65.464 864.634 64.5253 864.634 63.416C864.634 62.3067 865.018 61.368 865.786 60.6C866.554 59.832 867.493 59.448 868.602 59.448C869.669 59.448 870.565 59.832 871.29 60.6C872.058 61.368 872.442 62.3067 872.442 63.416C872.442 64.5253 872.058 65.464 871.29 66.232C870.565 67 869.669 67.384 868.602 67.384Z" fill="#FCEE0A"/>
</svg>
