<svg width="532" height="73" viewBox="0 0 532 73" fill="none" xmlns="http://www.w3.org/2000/svg">
<path fill-rule="evenodd" clip-rule="evenodd" d="M37.7879 54.9351C37.7879 51.2001 40.5931 48.1851 44.0682 48.1851C47.3339 48.1851 50.0135 50.885 50.3066 54.305H229.881L270.829 10.3401H448.729V11.2401H271.164L230.258 55.205H50.3485C50.2229 58.805 47.4595 61.6851 44.0682 61.6851C40.5931 61.6851 37.7879 58.6701 37.7879 54.9351ZM38.6252 54.9351C38.6252 58.1751 41.0536 60.7851 44.0682 60.7851C47.0827 60.7851 49.5111 58.1751 49.5111 54.9351C49.5111 51.6951 47.0827 49.0851 44.0682 49.0851C41.0536 49.0851 38.6252 51.6951 38.6252 54.9351Z" fill="#02D7F2"/>
<path fill-rule="evenodd" clip-rule="evenodd" d="M0.431874 6.75004C0.431874 3.01504 3.23708 3.75664e-05 6.71218 3.75664e-05C10.0617 3.75664e-05 12.825 2.88006 12.9925 6.43506H193.782L220.159 34.7851H531.536V35.6851H219.782L193.447 7.33506H12.9506C12.6994 10.8001 9.97794 13.5 6.71218 13.5C3.23708 13.5 0.431874 10.485 0.431874 6.75004ZM1.26925 6.75004C1.26925 9.99004 3.69763 12.6 6.71218 12.6C9.72673 12.6 12.1551 9.99004 12.1551 6.75004C12.1551 3.51004 9.72673 0.900038 6.71218 0.900038C3.69763 0.900038 1.26925 3.51004 1.26925 6.75004Z" fill="#02D7F2"/>
<path fill-rule="evenodd" clip-rule="evenodd" d="M519.441 65.9351C519.441 69.6701 516.636 72.6851 513.161 72.6851C509.979 72.6851 507.383 70.1651 506.964 66.8801V67.0151H296.574L267.852 36.1451H135.714V35.2451H268.187L296.909 66.1151H506.88C506.88 66.0551 506.88 65.9951 506.88 65.9351C506.88 62.2001 509.686 59.1851 513.161 59.1851C516.636 59.1851 519.441 62.2001 519.441 65.9351ZM518.604 65.9351C518.604 62.6951 516.175 60.0851 513.161 60.0851C510.146 60.0851 507.718 62.6951 507.718 65.9351C507.718 69.1751 510.146 71.7851 513.161 71.7851C516.175 71.7851 518.604 69.1751 518.604 65.9351Z" fill="#02D7F2"/>
</svg>
