<svg width="48" height="49" viewBox="0 0 48 49" fill="none" xmlns="http://www.w3.org/2000/svg">
<g id="Group">
<path id="Vector" d="M48 24.0146C48 10.7598 37.2549 0.0146484 24 0.0146484C10.7452 0.0146484 0 10.7598 0 24.0146C0 37.2695 10.7452 48.0146 24 48.0146C37.2549 48.0146 48 37.2695 48 24.0146Z" fill="#02D7F2"/>
<path id="Vector_2" d="M39.1129 19.0434C38.924 17.2203 38.5176 15.205 37.0217 14.1459C35.8631 13.3246 34.3402 13.2943 32.9185 13.296C29.9133 13.296 26.9063 13.301 23.901 13.3027C21.0104 13.3061 18.1198 13.3078 15.2293 13.3111C14.0217 13.3111 12.848 13.2184 11.7265 13.7412C10.7635 14.1898 10.0097 15.0431 9.556 15.9926C8.92695 17.3131 8.79541 18.809 8.71952 20.2695C8.57955 22.929 8.59473 25.5953 8.76169 28.2532C8.8848 30.1926 9.19679 32.3361 10.696 33.5723C12.025 34.6668 13.9003 34.7207 15.6239 34.7224C21.0948 34.7275 26.5673 34.7325 32.0399 34.7359C32.7415 34.7376 33.4734 34.7241 34.1884 34.6465C35.5949 34.4948 36.9357 34.0917 37.8396 33.0495C38.752 31.9988 38.9864 30.5366 39.1247 29.152C39.462 25.7926 39.4586 22.4012 39.1129 19.0434ZM20.7372 28.7254V19.3065L28.893 24.0151L20.7372 28.7254Z" fill="#0B0B0F"/>
</g>
</svg>
