<svg width="372" height="79" viewBox="0 0 372 79" fill="none" xmlns="http://www.w3.org/2000/svg">
<path d="M370.73 22.4336H182.221L168.04 4.24193H30.0219" stroke="url(#paint0_linear_417_15754)" stroke-linecap="square"/>
<path d="M322.592 58.084H323.092V57.084H322.592V58.084ZM246.742 39.3923L251.742 42.2791V36.5056L246.742 39.3923ZM309.95 57.584L309.645 57.9801L309.78 58.084H309.95V57.584ZM286.336 39.3923L286.641 38.9962L286.506 38.8923H286.336V39.3923ZM322.592 57.084H309.95V58.084H322.592V57.084ZM310.255 57.1879L286.641 38.9962L286.031 39.7884L309.645 57.9801L310.255 57.1879ZM286.336 38.8923H251.242V39.8923H286.336V38.8923Z" fill="url(#paint1_linear_417_15754)"/>
<path d="M132.549 75.7754H120.372L99.1793 42.1671H81.408" stroke="url(#paint2_linear_417_15754)" stroke-linecap="square"/>
<path d="M1 22.9336H0.5V21.9336H1V22.9336ZM338.008 4.24193L333.008 7.12868V1.35518L338.008 4.24193ZM141.251 22.4336L141.436 22.8983L141.347 22.9336H141.251V22.4336ZM187.047 4.24193L186.863 3.77725L186.952 3.74193H187.047V4.24193ZM1 21.9336H141.251V22.9336H1V21.9336ZM141.066 21.9689L186.863 3.77725L187.232 4.70661L141.436 22.8983L141.066 21.9689ZM187.047 3.74193H333.508V4.74193H187.047V3.74193Z" fill="url(#paint3_linear_417_15754)"/>
<path d="M165.804 57.084H166.304V58.084H165.804V57.084ZM8.39379 75.7756L13.3938 72.8889V78.6624L8.39379 75.7756ZM124.282 57.584L123.955 57.2059L124.096 57.084H124.282V57.584ZM103.257 75.7756L103.585 76.1538L103.444 76.2756H103.257V75.7756ZM165.804 58.084H124.282V57.084H165.804V58.084ZM124.609 57.9621L103.585 76.1538L102.93 75.3975L123.955 57.2059L124.609 57.9621ZM103.257 76.2756H12.8938V75.2756H103.257V76.2756Z" fill="url(#paint4_linear_417_15754)"/>
<path d="M371 37.9668H371.5V38.9668H371V37.9668ZM309.796 38.4668L309.397 38.1658L309.547 37.9668H309.796V38.4668ZM280.967 76.7001L281.366 77.0012L281.216 77.2001L280.967 77.2001L280.967 76.7001ZM371 38.9668H309.796V37.9668H371V38.9668ZM310.195 38.7678L281.366 77.0012L280.567 76.3991L309.397 38.1658L310.195 38.7678ZM280.967 77.2001L173.975 77.2001L173.975 76.2001L280.967 76.2001L280.967 77.2001Z" fill="url(#paint5_linear_417_15754)"/>
<path d="M4.79821 5.04883C4.61266 5.04883 4.44176 5.01709 4.28551 4.95361C4.13089 4.89014 3.99824 4.80143 3.88757 4.6875C3.77689 4.57357 3.69063 4.43848 3.62878 4.28223C3.56693 4.12598 3.536 3.95589 3.536 3.77197V3.66943C3.536 3.45622 3.57018 3.26579 3.63854 3.09814C3.7069 2.92887 3.79805 2.78564 3.91198 2.66846C4.02428 2.5529 4.15205 2.46419 4.29528 2.40234C4.44014 2.34049 4.58825 2.30957 4.73962 2.30957C4.93005 2.30957 5.09606 2.34294 5.23766 2.40967C5.38089 2.47477 5.49971 2.5651 5.59411 2.68066C5.68851 2.79785 5.7585 2.93538 5.80407 3.09326C5.85127 3.25114 5.87487 3.42204 5.87487 3.60596V3.80859H3.98766V3.82568C3.99906 3.95426 4.02428 4.06738 4.06335 4.16504C4.10404 4.2627 4.15938 4.34896 4.22936 4.42383C4.30098 4.50358 4.38724 4.56624 4.48815 4.61182C4.58906 4.65739 4.70055 4.68018 4.82262 4.68018C4.98376 4.68018 5.12699 4.64762 5.25231 4.58252C5.37764 4.51742 5.4818 4.43115 5.56481 4.32373L5.84069 4.53857C5.7528 4.67204 5.62096 4.79085 5.44518 4.89502C5.27103 4.99756 5.05537 5.04883 4.79821 5.04883ZM4.73962 2.68066C4.64847 2.68066 4.56221 2.69775 4.48083 2.73193C4.39945 2.76449 4.3262 2.8125 4.2611 2.87598C4.196 2.94108 4.14066 3.02083 4.09509 3.11523C4.05114 3.20801 4.02022 3.31543 4.00231 3.4375H5.42321V3.41553C5.42321 3.33415 5.40775 3.24707 5.37682 3.1543C5.3459 3.0599 5.30277 2.97852 5.24743 2.91016C5.19209 2.8418 5.1221 2.78646 5.03747 2.74414C4.95446 2.70182 4.85518 2.68066 4.73962 2.68066ZM6.63415 5V2.3584H7.03942L7.07116 2.74902C7.11022 2.69368 7.15254 2.64323 7.19811 2.59766C7.24531 2.55046 7.29495 2.50977 7.34704 2.47559C7.42516 2.4235 7.5098 2.38363 7.60094 2.35596C7.69372 2.32666 7.79137 2.3112 7.89391 2.30957C8.03226 2.30957 8.15759 2.3291 8.26989 2.36816C8.38382 2.40723 8.48066 2.46826 8.56042 2.55127C8.64017 2.63428 8.7012 2.74007 8.74352 2.86865C8.78747 2.99561 8.80944 3.14697 8.80944 3.32275V5H8.35778V3.33252C8.35778 3.21533 8.34476 3.11605 8.31872 3.03467C8.29268 2.95329 8.25443 2.88737 8.20397 2.83691C8.15189 2.78646 8.08841 2.74984 8.01354 2.72705C7.9403 2.70426 7.85566 2.69287 7.75964 2.69287C7.67663 2.69287 7.59932 2.70508 7.5277 2.72949C7.45609 2.75228 7.39017 2.78402 7.32995 2.82471C7.28112 2.86051 7.23555 2.90202 7.19323 2.94922C7.15254 2.99642 7.11673 3.0485 7.08581 3.10547V5H6.63415ZM10.7626 4.68262C10.8439 4.68262 10.9229 4.6696 10.9994 4.64355C11.0775 4.61751 11.1467 4.58089 11.2069 4.53369C11.2671 4.48812 11.3151 4.43441 11.3509 4.37256C11.3884 4.30908 11.4079 4.24072 11.4095 4.16748H11.8368C11.8352 4.28467 11.8042 4.39697 11.744 4.50439C11.6854 4.61019 11.6065 4.70296 11.5072 4.78271C11.4079 4.8641 11.294 4.9292 11.1654 4.97803C11.0368 5.02523 10.9025 5.04883 10.7626 5.04883C10.5624 5.04883 10.3874 5.01302 10.2377 4.94141C10.0879 4.86979 9.96341 4.77295 9.86413 4.65088C9.76322 4.53044 9.68753 4.39128 9.63708 4.2334C9.58662 4.07389 9.56139 3.90625 9.56139 3.73047V3.62793C9.56139 3.45378 9.58662 3.28695 9.63708 3.12744C9.68753 2.96794 9.76322 2.82715 9.86413 2.70508C9.96341 2.58464 10.0879 2.48861 10.2377 2.41699C10.3874 2.34538 10.5624 2.30957 10.7626 2.30957C10.9188 2.30957 11.062 2.3348 11.1923 2.38525C11.3241 2.43408 11.438 2.50081 11.534 2.58545C11.6285 2.67171 11.7025 2.77344 11.7562 2.89062C11.8099 3.00781 11.8368 3.13314 11.8368 3.2666H11.4095C11.4079 3.18685 11.39 3.11198 11.3558 3.04199C11.3233 2.97038 11.2785 2.90771 11.2215 2.854C11.1646 2.80029 11.0962 2.75798 11.0165 2.72705C10.9383 2.69613 10.8537 2.68066 10.7626 2.68066C10.6226 2.68066 10.5046 2.70915 10.4086 2.76611C10.3142 2.82145 10.2377 2.89388 10.1791 2.9834C10.1205 3.07454 10.0782 3.17627 10.0521 3.28857C10.0277 3.40088 10.0155 3.514 10.0155 3.62793V3.73047C10.0155 3.84603 10.0277 3.96077 10.0521 4.07471C10.0782 4.18701 10.1205 4.28792 10.1791 4.37744C10.236 4.46859 10.3117 4.54264 10.4061 4.59961C10.5021 4.65495 10.621 4.68262 10.7626 4.68262ZM14.371 2.30957C14.454 2.30957 14.5402 2.31527 14.6298 2.32666C14.7209 2.33805 14.7893 2.35352 14.8348 2.37305L14.7738 2.81494C14.6859 2.79541 14.6021 2.78158 14.5223 2.77344C14.4442 2.76367 14.362 2.75879 14.2757 2.75879C14.1651 2.75879 14.065 2.77262 13.9755 2.80029C13.8859 2.82633 13.8078 2.8654 13.7411 2.91748C13.6809 2.96305 13.628 3.01921 13.5824 3.08594C13.5384 3.15104 13.5018 3.22428 13.4725 3.30566V5H13.0184V2.3584H13.4481L13.4676 2.7124L13.4701 2.77832C13.5775 2.63346 13.7061 2.51953 13.8558 2.43652C14.0072 2.35189 14.1789 2.30957 14.371 2.30957ZM15.8553 6.06689C15.813 6.06689 15.7634 6.06201 15.7064 6.05225C15.6494 6.04248 15.6063 6.03434 15.577 6.02783L15.6503 5.65918C15.691 5.66243 15.7308 5.66488 15.7699 5.6665C15.8106 5.66976 15.8423 5.67139 15.8651 5.67139C15.927 5.67139 15.9831 5.6543 16.0336 5.62012C16.0856 5.58594 16.132 5.54525 16.1727 5.49805C16.2118 5.45085 16.2452 5.40202 16.2728 5.35156C16.3021 5.30111 16.3249 5.2596 16.3412 5.22705L16.5218 4.87549L15.3841 2.3584H15.8895L16.6146 4.0625L16.7318 4.38232L16.8563 4.07227L17.5375 2.3584H18.0428L16.7025 5.40771C16.6716 5.47607 16.6317 5.5485 16.5829 5.625C16.5357 5.7015 16.4779 5.7723 16.4095 5.8374C16.3412 5.90251 16.2614 5.95703 16.1703 6.00098C16.0791 6.04492 15.9742 6.06689 15.8553 6.06689ZM18.6434 6.01562V2.3584H19.056L19.078 2.64648C19.1138 2.60091 19.1529 2.56022 19.1952 2.52441C19.2375 2.48698 19.2831 2.45524 19.3319 2.4292C19.4003 2.39014 19.4759 2.36084 19.559 2.34131C19.6436 2.32015 19.7339 2.30957 19.8299 2.30957C19.9992 2.30957 20.149 2.34294 20.2792 2.40967C20.4094 2.4764 20.5184 2.56917 20.6063 2.68799C20.6942 2.8068 20.7609 2.94922 20.8065 3.11523C20.8521 3.27962 20.8749 3.46029 20.8749 3.65723V3.7085C20.8749 3.8973 20.8521 4.07389 20.8065 4.23828C20.7609 4.40104 20.6942 4.54264 20.6063 4.66309C20.5184 4.78353 20.4094 4.87793 20.2792 4.94629C20.1506 5.01465 20.0033 5.04883 19.8373 5.04883C19.7364 5.04883 19.642 5.03825 19.5541 5.01709C19.4678 4.99593 19.3897 4.96582 19.3197 4.92676C19.2774 4.90234 19.2375 4.87549 19.2001 4.84619C19.1626 4.81527 19.1276 4.7819 19.0951 4.74609V6.01562H18.6434ZM20.4232 3.65723C20.4232 3.52865 20.4086 3.40658 20.3793 3.29102C20.3516 3.17383 20.3085 3.07048 20.2499 2.98096C20.1896 2.89307 20.114 2.82308 20.0228 2.771C19.9317 2.71891 19.8226 2.69287 19.6957 2.69287C19.6257 2.69287 19.5606 2.70101 19.5004 2.71729C19.4418 2.73356 19.3889 2.75716 19.3417 2.78809C19.2896 2.81901 19.2432 2.85726 19.2025 2.90283C19.1618 2.9484 19.126 2.99886 19.0951 3.0542V4.32617C19.1228 4.375 19.1545 4.42057 19.1903 4.46289C19.2261 4.50521 19.2668 4.54102 19.3124 4.57031C19.3645 4.60449 19.4222 4.63135 19.4857 4.65088C19.5508 4.67041 19.6224 4.68018 19.7006 4.68018C19.8259 4.68018 19.9341 4.65413 20.0253 4.60205C20.1164 4.54834 20.1913 4.47673 20.2499 4.38721C20.3085 4.29769 20.3516 4.19434 20.3793 4.07715C20.4086 3.95996 20.4232 3.83708 20.4232 3.7085V3.65723ZM22.7181 1.71875V2.3584H23.724V2.70752H22.7181V4.14307C22.7181 4.24561 22.7312 4.33024 22.7572 4.39697C22.7832 4.4637 22.819 4.5166 22.8646 4.55566C22.9102 4.59635 22.9623 4.62484 23.0209 4.64111C23.0811 4.65739 23.1446 4.66553 23.2113 4.66553C23.2601 4.66553 23.3106 4.66309 23.3627 4.6582C23.4147 4.65169 23.466 4.64437 23.5165 4.63623C23.5653 4.62809 23.6109 4.61995 23.6532 4.61182C23.6971 4.60205 23.7329 4.59391 23.7606 4.5874L23.8241 4.90723C23.7867 4.93001 23.7411 4.95036 23.6874 4.96826C23.6337 4.98454 23.5751 4.99837 23.5116 5.00977C23.4481 5.02279 23.3806 5.03255 23.309 5.03906C23.239 5.04557 23.169 5.04883 23.099 5.04883C22.9818 5.04883 22.8719 5.03255 22.7694 5C22.6685 4.96582 22.5806 4.91211 22.5057 4.83887C22.4309 4.76725 22.3715 4.67448 22.3275 4.56055C22.2852 4.44499 22.264 4.30583 22.264 4.14307V2.70752H21.5707V2.3584H22.264V1.71875H22.7181Z" fill="#999EA4"/>
<path d="M344.18 4.8335C344.18 4.77979 344.17 4.73177 344.148 4.68945C344.127 4.64551 344.091 4.60563 344.041 4.56982C343.991 4.53402 343.924 4.50146 343.841 4.47217C343.758 4.44124 343.654 4.41357 343.531 4.38916C343.379 4.35824 343.241 4.3208 343.116 4.27686C342.992 4.23291 342.886 4.18001 342.798 4.11816C342.709 4.05794 342.64 3.98714 342.591 3.90576C342.542 3.82275 342.518 3.72673 342.518 3.61768C342.518 3.51025 342.543 3.41016 342.593 3.31738C342.644 3.22298 342.715 3.14079 342.806 3.0708C342.897 3.00081 343.005 2.94548 343.13 2.90479C343.257 2.8641 343.396 2.84375 343.548 2.84375C343.711 2.84375 343.857 2.86491 343.987 2.90723C344.118 2.94954 344.228 3.00814 344.319 3.08301C344.41 3.15788 344.48 3.24577 344.529 3.34668C344.58 3.44596 344.605 3.55339 344.605 3.66895H344.153C344.153 3.61198 344.139 3.55664 344.109 3.50293C344.08 3.44759 344.039 3.39876 343.987 3.35645C343.935 3.31413 343.872 3.27995 343.797 3.25391C343.724 3.22786 343.641 3.21484 343.548 3.21484C343.452 3.21484 343.367 3.22542 343.294 3.24658C343.222 3.26774 343.163 3.29622 343.116 3.33203C343.067 3.36784 343.03 3.40934 343.006 3.45654C342.981 3.50374 342.969 3.55257 342.969 3.60303C342.969 3.65511 342.979 3.7015 342.999 3.74219C343.018 3.78288 343.052 3.8195 343.101 3.85205C343.148 3.8846 343.212 3.9139 343.292 3.93994C343.373 3.96598 343.475 3.99121 343.599 4.01562C343.762 4.0498 343.908 4.08968 344.036 4.13525C344.165 4.1792 344.273 4.2321 344.361 4.29395C344.449 4.35742 344.515 4.43066 344.561 4.51367C344.608 4.59668 344.632 4.69271 344.632 4.80176C344.632 4.91895 344.605 5.02555 344.551 5.12158C344.499 5.21761 344.426 5.2998 344.332 5.36816C344.237 5.43652 344.124 5.48942 343.992 5.52686C343.86 5.56429 343.716 5.58301 343.56 5.58301C343.381 5.58301 343.222 5.55941 343.082 5.51221C342.942 5.46338 342.824 5.39909 342.728 5.31934C342.63 5.24121 342.555 5.15007 342.503 5.0459C342.452 4.94173 342.427 4.8335 342.427 4.72119H342.879C342.885 4.81396 342.91 4.89209 342.952 4.95557C342.996 5.01904 343.051 5.07031 343.116 5.10938C343.179 5.14844 343.25 5.17611 343.328 5.19238C343.406 5.20866 343.484 5.2168 343.56 5.2168C343.681 5.2168 343.785 5.20296 343.875 5.17529C343.965 5.146 344.035 5.10612 344.085 5.05566C344.116 5.02474 344.139 4.99056 344.156 4.95312C344.172 4.91569 344.18 4.87581 344.18 4.8335ZM346.595 5.58301C346.409 5.58301 346.238 5.55127 346.082 5.48779C345.927 5.42432 345.795 5.33561 345.684 5.22168C345.573 5.10775 345.487 4.97266 345.425 4.81641C345.363 4.66016 345.333 4.49007 345.333 4.30615V4.20361C345.333 3.9904 345.367 3.79997 345.435 3.63232C345.503 3.46305 345.595 3.31982 345.708 3.20264C345.821 3.08708 345.949 2.99837 346.092 2.93652C346.237 2.87467 346.385 2.84375 346.536 2.84375C346.727 2.84375 346.893 2.87712 347.034 2.94385C347.177 3.00895 347.296 3.09928 347.391 3.21484C347.485 3.33203 347.555 3.46956 347.601 3.62744C347.648 3.78532 347.671 3.95622 347.671 4.14014V4.34277H345.784V4.35986C345.796 4.48844 345.821 4.60156 345.86 4.69922C345.901 4.79688 345.956 4.88314 346.026 4.95801C346.097 5.03776 346.184 5.10042 346.285 5.146C346.386 5.19157 346.497 5.21436 346.619 5.21436C346.78 5.21436 346.924 5.1818 347.049 5.1167C347.174 5.0516 347.278 4.96533 347.361 4.85791L347.637 5.07275C347.549 5.20622 347.417 5.32503 347.242 5.4292C347.068 5.53174 346.852 5.58301 346.595 5.58301ZM346.536 3.21484C346.445 3.21484 346.359 3.23193 346.277 3.26611C346.196 3.29867 346.123 3.34668 346.058 3.41016C345.993 3.47526 345.937 3.55501 345.892 3.64941C345.848 3.74219 345.817 3.84961 345.799 3.97168H347.22V3.94971C347.22 3.86833 347.204 3.78125 347.173 3.68848C347.142 3.59408 347.099 3.5127 347.044 3.44434C346.989 3.37598 346.919 3.32064 346.834 3.27832C346.751 3.236 346.652 3.21484 346.536 3.21484ZM349.556 5.2168C349.638 5.2168 349.716 5.20378 349.793 5.17773C349.871 5.15169 349.94 5.11507 350 5.06787C350.061 5.0223 350.109 4.96859 350.145 4.90674C350.182 4.84326 350.201 4.7749 350.203 4.70166H350.63C350.629 4.81885 350.598 4.93115 350.538 5.03857C350.479 5.14437 350.4 5.23714 350.301 5.31689C350.201 5.39827 350.088 5.46338 349.959 5.51221C349.83 5.55941 349.696 5.58301 349.556 5.58301C349.356 5.58301 349.181 5.5472 349.031 5.47559C348.882 5.40397 348.757 5.30713 348.658 5.18506C348.557 5.06462 348.481 4.92546 348.431 4.76758C348.38 4.60807 348.355 4.44043 348.355 4.26465V4.16211C348.355 3.98796 348.38 3.82113 348.431 3.66162C348.481 3.50212 348.557 3.36133 348.658 3.23926C348.757 3.11882 348.882 3.02279 349.031 2.95117C349.181 2.87956 349.356 2.84375 349.556 2.84375C349.712 2.84375 349.856 2.86898 349.986 2.91943C350.118 2.96826 350.232 3.03499 350.328 3.11963C350.422 3.20589 350.496 3.30762 350.55 3.4248C350.604 3.54199 350.63 3.66732 350.63 3.80078H350.203C350.201 3.72103 350.184 3.64616 350.149 3.57617C350.117 3.50456 350.072 3.44189 350.015 3.38818C349.958 3.33447 349.89 3.29215 349.81 3.26123C349.732 3.23031 349.647 3.21484 349.556 3.21484C349.416 3.21484 349.298 3.24333 349.202 3.30029C349.108 3.35563 349.031 3.42806 348.973 3.51758C348.914 3.60872 348.872 3.71045 348.846 3.82275C348.821 3.93506 348.809 4.04818 348.809 4.16211V4.26465C348.809 4.38021 348.821 4.49495 348.846 4.60889C348.872 4.72119 348.914 4.8221 348.973 4.91162C349.03 5.00277 349.105 5.07682 349.2 5.13379C349.296 5.18913 349.415 5.2168 349.556 5.2168ZM353.174 5.53418L353.147 5.17041C353.06 5.30062 352.95 5.40234 352.818 5.47559C352.686 5.5472 352.534 5.58301 352.361 5.58301C352.223 5.58301 352.098 5.56185 351.985 5.51953C351.873 5.47559 351.777 5.40804 351.697 5.31689C351.618 5.22575 351.556 5.11019 351.512 4.97021C351.469 4.82861 351.448 4.65934 351.448 4.4624V2.89258H351.9V4.46729C351.9 4.61051 351.911 4.72933 351.934 4.82373C351.957 4.91813 351.991 4.993 352.037 5.04834C352.082 5.10531 352.138 5.14518 352.203 5.16797C352.269 5.19076 352.346 5.20215 352.432 5.20215C352.533 5.20215 352.623 5.19076 352.703 5.16797C352.783 5.14355 352.852 5.11019 352.911 5.06787C352.959 5.03369 353.002 4.993 353.038 4.9458C353.075 4.89697 353.106 4.84408 353.13 4.78711V2.89258H353.584V5.53418H353.174ZM356.167 2.84375C356.25 2.84375 356.337 2.84945 356.426 2.86084C356.517 2.87223 356.586 2.8877 356.631 2.90723L356.57 3.34912C356.482 3.32959 356.399 3.31576 356.319 3.30762C356.241 3.29785 356.159 3.29297 356.072 3.29297C355.962 3.29297 355.861 3.3068 355.772 3.33447C355.682 3.36051 355.604 3.39958 355.538 3.45166C355.477 3.49723 355.424 3.55339 355.379 3.62012C355.335 3.68522 355.298 3.75846 355.269 3.83984V5.53418H354.815V2.89258H355.245L355.264 3.24658L355.267 3.3125C355.374 3.16764 355.503 3.05371 355.652 2.9707C355.804 2.88607 355.975 2.84375 356.167 2.84375ZM358.606 5.58301C358.421 5.58301 358.25 5.55127 358.094 5.48779C357.939 5.42432 357.806 5.33561 357.696 5.22168C357.585 5.10775 357.499 4.97266 357.437 4.81641C357.375 4.66016 357.344 4.49007 357.344 4.30615V4.20361C357.344 3.9904 357.378 3.79997 357.447 3.63232C357.515 3.46305 357.606 3.31982 357.72 3.20264C357.833 3.08708 357.96 2.99837 358.104 2.93652C358.248 2.87467 358.396 2.84375 358.548 2.84375C358.738 2.84375 358.904 2.87712 359.046 2.94385C359.189 3.00895 359.308 3.09928 359.402 3.21484C359.497 3.33203 359.567 3.46956 359.612 3.62744C359.66 3.78532 359.683 3.95622 359.683 4.14014V4.34277H357.796V4.35986C357.807 4.48844 357.833 4.60156 357.872 4.69922C357.912 4.79688 357.968 4.88314 358.038 4.95801C358.109 5.03776 358.195 5.10042 358.296 5.146C358.397 5.19157 358.509 5.21436 358.631 5.21436C358.792 5.21436 358.935 5.1818 359.061 5.1167C359.186 5.0516 359.29 4.96533 359.373 4.85791L359.649 5.07275C359.561 5.20622 359.429 5.32503 359.253 5.4292C359.079 5.53174 358.864 5.58301 358.606 5.58301ZM358.548 3.21484C358.457 3.21484 358.37 3.23193 358.289 3.26611C358.208 3.29867 358.134 3.34668 358.069 3.41016C358.004 3.47526 357.949 3.55501 357.903 3.64941C357.859 3.74219 357.828 3.84961 357.811 3.97168H359.231V3.94971C359.231 3.86833 359.216 3.78125 359.185 3.68848C359.154 3.59408 359.111 3.5127 359.056 3.44434C359 3.37598 358.93 3.32064 358.846 3.27832C358.763 3.236 358.663 3.21484 358.548 3.21484Z" fill="#999EA4"/>
<path d="M40.6539 41.5918H42.004V43.8428H42.8658V44.2334H40.6539V43.8428H41.5524V41.9849H40.6539V41.5918ZM41.4938 40.8984C41.4938 40.8594 41.4995 40.8228 41.5109 40.7886C41.5239 40.7544 41.5434 40.7251 41.5695 40.7007C41.5906 40.6795 41.6175 40.6632 41.65 40.6519C41.6842 40.6388 41.7225 40.6323 41.7648 40.6323C41.8071 40.6323 41.8445 40.6388 41.8771 40.6519C41.9096 40.6632 41.9365 40.6795 41.9576 40.7007C41.9837 40.7235 42.0032 40.752 42.0162 40.7861C42.0293 40.8203 42.0358 40.8577 42.0358 40.8984C42.0358 40.9717 42.013 41.0327 41.9674 41.0815C41.9218 41.1304 41.8543 41.1548 41.7648 41.1548C41.6736 41.1548 41.6053 41.1304 41.5597 41.0815C41.5157 41.0327 41.4938 40.9717 41.4938 40.8984ZM43.5861 44.2334V41.5918H43.9913L44.0231 41.9824C44.0621 41.9271 44.1045 41.8766 44.15 41.8311C44.1972 41.7839 44.2469 41.7432 44.299 41.709C44.3771 41.6569 44.4617 41.617 44.5529 41.5894C44.6456 41.5601 44.7433 41.5446 44.8458 41.543C44.9842 41.543 45.1095 41.5625 45.2218 41.6016C45.3357 41.6406 45.4326 41.7017 45.5123 41.7847C45.5921 41.8677 45.6531 41.9735 45.6954 42.1021C45.7394 42.229 45.7614 42.3804 45.7614 42.5562V44.2334H45.3097V42.5659C45.3097 42.4487 45.2967 42.3494 45.2706 42.2681C45.2446 42.1867 45.2063 42.1208 45.1559 42.0703C45.1038 42.0199 45.0403 41.9832 44.9655 41.9604C44.8922 41.9377 44.8076 41.9263 44.7115 41.9263C44.6285 41.9263 44.5512 41.9385 44.4796 41.9629C44.408 41.9857 44.3421 42.0174 44.2819 42.0581C44.233 42.0939 44.1875 42.1354 44.1451 42.1826C44.1045 42.2298 44.0686 42.2819 44.0377 42.3389V44.2334H43.5861ZM47.2628 44.2334V41.9409H46.5353V41.5918H47.2628V41.4062C47.2628 41.237 47.2872 41.0889 47.3361 40.9619C47.3865 40.8333 47.4573 40.7259 47.5485 40.6396C47.638 40.5534 47.7462 40.4883 47.8732 40.4443C48.0001 40.4004 48.1417 40.3784 48.298 40.3784C48.3631 40.3784 48.4274 40.3825 48.4908 40.3906C48.5543 40.3971 48.617 40.4061 48.6788 40.4175C48.7195 40.4256 48.7602 40.4346 48.8009 40.4443C48.8416 40.4525 48.8831 40.4622 48.9254 40.4736L48.8717 40.8472C48.805 40.8244 48.7268 40.8049 48.6373 40.7886C48.5494 40.7707 48.455 40.7617 48.3541 40.7617C48.2516 40.7617 48.1604 40.7747 48.0807 40.8008C48.0026 40.8252 47.9375 40.8626 47.8854 40.9131C47.83 40.9652 47.7877 41.0327 47.7584 41.1157C47.7308 41.1987 47.7169 41.2956 47.7169 41.4062V41.5918H48.735V41.9409H47.7169V44.2334H47.2628ZM49.465 42.8882C49.465 42.6978 49.4926 42.5212 49.548 42.3584C49.6033 42.194 49.6831 42.0516 49.7872 41.9312C49.8898 41.8107 50.0151 41.7163 50.1632 41.6479C50.3113 41.578 50.4781 41.543 50.6637 41.543C50.8509 41.543 51.0185 41.578 51.1666 41.6479C51.3164 41.7163 51.4433 41.8107 51.5475 41.9312C51.65 42.0516 51.729 42.194 51.7843 42.3584C51.8396 42.5212 51.8673 42.6978 51.8673 42.8882V42.9419C51.8673 43.1323 51.8396 43.3089 51.7843 43.4717C51.729 43.6344 51.65 43.776 51.5475 43.8965C51.4433 44.0169 51.3172 44.1113 51.1691 44.1797C51.021 44.248 50.8541 44.2822 50.6686 44.2822C50.4814 44.2822 50.3129 44.248 50.1632 44.1797C50.0151 44.1113 49.8898 44.0169 49.7872 43.8965C49.6831 43.776 49.6033 43.6344 49.548 43.4717C49.4926 43.3089 49.465 43.1323 49.465 42.9419V42.8882ZM49.9166 42.9419C49.9166 43.0721 49.9321 43.1966 49.963 43.3154C49.9939 43.4326 50.0411 43.536 50.1046 43.6255C50.1665 43.715 50.2446 43.7858 50.339 43.8379C50.4334 43.89 50.5433 43.916 50.6686 43.916C50.7923 43.916 50.9005 43.89 50.9933 43.8379C51.0877 43.7858 51.1666 43.715 51.2301 43.6255C51.292 43.536 51.3383 43.4326 51.3693 43.3154C51.4002 43.1966 51.4156 43.0721 51.4156 42.9419V42.8882C51.4156 42.7596 51.3994 42.6367 51.3668 42.5195C51.3359 42.4007 51.2895 42.2965 51.2277 42.207C51.1642 42.1175 51.0852 42.0467 50.9908 41.9946C50.8981 41.9409 50.789 41.9141 50.6637 41.9141C50.5384 41.9141 50.4293 41.9409 50.3365 41.9946C50.2438 42.0467 50.1665 42.1175 50.1046 42.207C50.0411 42.2965 49.9939 42.4007 49.963 42.5195C49.9321 42.6367 49.9166 42.7596 49.9166 42.8882V42.9419ZM54.3258 41.543C54.4088 41.543 54.4951 41.5487 54.5846 41.5601C54.6757 41.5715 54.7441 41.5869 54.7897 41.6064L54.7286 42.0483C54.6407 42.0288 54.5569 42.015 54.4772 42.0068C54.399 41.9971 54.3169 41.9922 54.2306 41.9922C54.1199 41.9922 54.0198 42.006 53.9303 42.0337C53.8408 42.0597 53.7627 42.0988 53.6959 42.1509C53.6357 42.1965 53.5828 42.2526 53.5372 42.3193C53.4933 42.3844 53.4567 42.4577 53.4274 42.5391V44.2334H52.9733V41.5918H53.403L53.4225 41.9458L53.4249 42.0117C53.5323 41.8669 53.6609 41.7529 53.8107 41.6699C53.962 41.5853 54.1337 41.543 54.3258 41.543ZM55.8053 41.5918L55.8175 41.8408C55.8712 41.748 55.9412 41.6756 56.0275 41.6235C56.1154 41.5715 56.2212 41.5446 56.3448 41.543C56.4148 41.543 56.4775 41.5511 56.5328 41.5674C56.5898 41.582 56.6394 41.604 56.6818 41.6333C56.7127 41.6561 56.7404 41.6838 56.7648 41.7163C56.7908 41.7489 56.8128 41.7855 56.8307 41.8262C56.8535 41.7887 56.8803 41.7537 56.9113 41.7212C56.9422 41.6886 56.9755 41.6602 57.0114 41.6357C57.0569 41.6081 57.1074 41.5861 57.1627 41.5698C57.2197 41.5535 57.2815 41.5446 57.3483 41.543C57.4394 41.543 57.5216 41.5568 57.5948 41.5845C57.6681 41.6105 57.7299 41.6496 57.7804 41.7017C57.8357 41.7603 57.8781 41.8368 57.9073 41.9312C57.9366 42.0239 57.9513 42.1338 57.9513 42.2607V44.2334H57.5216V42.2559C57.5216 42.2005 57.5151 42.1517 57.5021 42.1094C57.4891 42.0671 57.4703 42.0321 57.4459 42.0044C57.4199 41.9784 57.3873 41.9588 57.3483 41.9458C57.3108 41.9328 57.2669 41.9263 57.2164 41.9263C57.1627 41.9263 57.1163 41.9336 57.0773 41.9482C57.0382 41.9629 57.0057 41.9824 56.9796 42.0068C56.9536 42.0329 56.9332 42.063 56.9186 42.0972C56.9039 42.1297 56.8942 42.1663 56.8893 42.207C56.8893 42.2152 56.8893 42.2233 56.8893 42.2314C56.8893 42.238 56.8893 42.2461 56.8893 42.2559V44.2334H56.4596V42.2534C56.4596 42.1981 56.4531 42.1493 56.4401 42.1069C56.4287 42.0646 56.41 42.0296 56.3839 42.002C56.3595 41.9759 56.3286 41.9572 56.2911 41.9458C56.2553 41.9328 56.213 41.9263 56.1642 41.9263C56.1105 41.9263 56.0633 41.9328 56.0226 41.9458C55.9835 41.9572 55.9502 41.9743 55.9225 41.9971C55.9013 42.015 55.8826 42.0353 55.8663 42.0581C55.8517 42.0809 55.8395 42.1053 55.8297 42.1313V44.2334H55.4V41.5918H55.8053ZM60.3365 44.2334C60.3186 44.1992 60.304 44.1569 60.2926 44.1064C60.2828 44.0544 60.2755 44.0007 60.2706 43.9453C60.2251 43.9909 60.1738 44.034 60.1168 44.0747C60.0615 44.1154 60.0004 44.1512 59.9337 44.1821C59.8654 44.2131 59.7929 44.2375 59.7164 44.2554C59.6399 44.2733 59.5586 44.2822 59.4723 44.2822C59.3323 44.2822 59.2054 44.2619 59.0914 44.2212C58.9791 44.1805 58.8839 44.1252 58.8058 44.0552C58.726 43.9868 58.6642 43.9054 58.6202 43.811C58.5779 43.715 58.5568 43.6117 58.5568 43.501C58.5568 43.3561 58.5852 43.2292 58.6422 43.1201C58.7008 43.0111 58.783 42.9199 58.8888 42.8467C58.9946 42.7751 59.1215 42.7214 59.2697 42.6855C59.4194 42.6497 59.5862 42.6318 59.7701 42.6318H60.2633V42.4243C60.2633 42.3446 60.2487 42.2729 60.2194 42.2095C60.1901 42.146 60.1486 42.0915 60.0948 42.0459C60.0411 42.002 59.9752 41.9678 59.8971 41.9434C59.8206 41.9189 59.7343 41.9067 59.6383 41.9067C59.5488 41.9067 59.4682 41.9181 59.3966 41.9409C59.3266 41.9637 59.2672 41.9938 59.2184 42.0312C59.1696 42.0687 59.1313 42.1134 59.1036 42.1655C59.0776 42.216 59.0646 42.2689 59.0646 42.3242H58.6105C58.6121 42.2282 58.6365 42.1338 58.6837 42.041C58.7325 41.9482 58.8025 41.8644 58.8937 41.7896C58.9832 41.7163 59.0922 41.6569 59.2208 41.6113C59.351 41.5658 59.4983 41.543 59.6627 41.543C59.8125 41.543 59.9516 41.5617 60.0802 41.5991C60.2088 41.6349 60.3203 41.6895 60.4147 41.7627C60.5074 41.8376 60.5807 41.9303 60.6344 42.041C60.6881 42.1517 60.715 42.2811 60.715 42.4292V43.6572C60.715 43.7451 60.7231 43.8387 60.7394 43.938C60.7557 44.0356 60.7784 44.1211 60.8077 44.1943V44.2334H60.3365ZM59.5382 43.8892C59.6261 43.8892 59.7083 43.8778 59.7848 43.855C59.8613 43.8322 59.9313 43.8021 59.9948 43.7646C60.0566 43.7272 60.1103 43.6849 60.1559 43.6377C60.2015 43.5889 60.2373 43.5384 60.2633 43.4863V42.9517H59.8434C59.6871 42.9517 59.5504 42.9655 59.4332 42.9932C59.3177 43.0192 59.2257 43.0599 59.1573 43.1152C59.1085 43.1543 59.0711 43.2007 59.045 43.2544C59.0206 43.3081 59.0084 43.3691 59.0084 43.4375C59.0084 43.5026 59.019 43.5628 59.0402 43.6182C59.0629 43.6735 59.0963 43.7207 59.1403 43.7598C59.1842 43.8005 59.2395 43.8322 59.3063 43.855C59.373 43.8778 59.4503 43.8892 59.5382 43.8892ZM62.673 40.9521V41.5918H63.6788V41.9409H62.673V43.3765C62.673 43.479 62.686 43.5636 62.712 43.6304C62.7381 43.6971 62.7739 43.75 62.8195 43.7891C62.865 43.8298 62.9171 43.8582 62.9757 43.8745C63.0359 43.8908 63.0994 43.8989 63.1661 43.8989C63.215 43.8989 63.2654 43.8965 63.3175 43.8916C63.3696 43.8851 63.4209 43.8778 63.4713 43.8696C63.5201 43.8615 63.5657 43.8534 63.608 43.8452C63.652 43.8354 63.6878 43.8273 63.7155 43.8208L63.7789 44.1406C63.7415 44.1634 63.6959 44.1838 63.6422 44.2017C63.5885 44.2179 63.5299 44.2318 63.4664 44.2432C63.403 44.2562 63.3354 44.266 63.2638 44.2725C63.1938 44.279 63.1238 44.2822 63.0538 44.2822C62.9366 44.2822 62.8268 44.266 62.7242 44.2334C62.6233 44.1992 62.5354 44.1455 62.4606 44.0723C62.3857 44.0007 62.3263 43.9079 62.2823 43.7939C62.24 43.6784 62.2189 43.5392 62.2189 43.3765V41.9409H61.5255V41.5918H62.2189V40.9521H62.673ZM64.6774 41.5918H66.0275V43.8428H66.8893V44.2334H64.6774V43.8428H65.5758V41.9849H64.6774V41.5918ZM65.5172 40.8984C65.5172 40.8594 65.5229 40.8228 65.5343 40.7886C65.5473 40.7544 65.5669 40.7251 65.5929 40.7007C65.6141 40.6795 65.6409 40.6632 65.6735 40.6519C65.7076 40.6388 65.7459 40.6323 65.7882 40.6323C65.8305 40.6323 65.868 40.6388 65.9005 40.6519C65.9331 40.6632 65.9599 40.6795 65.9811 40.7007C66.0071 40.7235 66.0267 40.752 66.0397 40.7861C66.0527 40.8203 66.0592 40.8577 66.0592 40.8984C66.0592 40.9717 66.0364 41.0327 65.9908 41.0815C65.9453 41.1304 65.8777 41.1548 65.7882 41.1548C65.6971 41.1548 65.6287 41.1304 65.5831 41.0815C65.5392 41.0327 65.5172 40.9717 65.5172 40.8984ZM67.4825 42.8882C67.4825 42.6978 67.5102 42.5212 67.5656 42.3584C67.6209 42.194 67.7006 42.0516 67.8048 41.9312C67.9073 41.8107 68.0327 41.7163 68.1808 41.6479C68.3289 41.578 68.4957 41.543 68.6813 41.543C68.8684 41.543 69.0361 41.578 69.1842 41.6479C69.3339 41.7163 69.4609 41.8107 69.5651 41.9312C69.6676 42.0516 69.7465 42.194 69.8019 42.3584C69.8572 42.5212 69.8849 42.6978 69.8849 42.8882V42.9419C69.8849 43.1323 69.8572 43.3089 69.8019 43.4717C69.7465 43.6344 69.6676 43.776 69.5651 43.8965C69.4609 44.0169 69.3348 44.1113 69.1866 44.1797C69.0385 44.248 68.8717 44.2822 68.6862 44.2822C68.499 44.2822 68.3305 44.248 68.1808 44.1797C68.0327 44.1113 67.9073 44.0169 67.8048 43.8965C67.7006 43.776 67.6209 43.6344 67.5656 43.4717C67.5102 43.3089 67.4825 43.1323 67.4825 42.9419V42.8882ZM67.9342 42.9419C67.9342 43.0721 67.9497 43.1966 67.9806 43.3154C68.0115 43.4326 68.0587 43.536 68.1222 43.6255C68.184 43.715 68.2622 43.7858 68.3566 43.8379C68.451 43.89 68.5608 43.916 68.6862 43.916C68.8099 43.916 68.9181 43.89 69.0109 43.8379C69.1053 43.7858 69.1842 43.715 69.2477 43.6255C69.3095 43.536 69.3559 43.4326 69.3868 43.3154C69.4178 43.1966 69.4332 43.0721 69.4332 42.9419V42.8882C69.4332 42.7596 69.417 42.6367 69.3844 42.5195C69.3535 42.4007 69.3071 42.2965 69.2452 42.207C69.1818 42.1175 69.1028 42.0467 69.0084 41.9946C68.9156 41.9409 68.8066 41.9141 68.6813 41.9141C68.5559 41.9141 68.4469 41.9409 68.3541 41.9946C68.2614 42.0467 68.184 42.1175 68.1222 42.207C68.0587 42.2965 68.0115 42.4007 67.9806 42.5195C67.9497 42.6367 67.9342 42.7596 67.9342 42.8882V42.9419ZM70.6124 44.2334V41.5918H71.0177L71.0494 41.9824C71.0885 41.9271 71.1308 41.8766 71.1764 41.8311C71.2236 41.7839 71.2732 41.7432 71.3253 41.709C71.4034 41.6569 71.4881 41.617 71.5792 41.5894C71.672 41.5601 71.7697 41.5446 71.8722 41.543C72.0105 41.543 72.1359 41.5625 72.2482 41.6016C72.3621 41.6406 72.4589 41.7017 72.5387 41.7847C72.6184 41.8677 72.6795 41.9735 72.7218 42.1021C72.7657 42.229 72.7877 42.3804 72.7877 42.5562V44.2334H72.3361V42.5659C72.3361 42.4487 72.323 42.3494 72.297 42.2681C72.271 42.1867 72.2327 42.1208 72.1823 42.0703C72.1302 42.0199 72.0667 41.9832 71.9918 41.9604C71.9186 41.9377 71.8339 41.9263 71.7379 41.9263C71.6549 41.9263 71.5776 41.9385 71.506 41.9629C71.4344 41.9857 71.3684 42.0174 71.3082 42.0581C71.2594 42.0939 71.2138 42.1354 71.1715 42.1826C71.1308 42.2298 71.095 42.2819 71.0641 42.3389V44.2334H70.6124Z" fill="#999EA4"/>
<path d="M327.496 56.3584H328.846V58.6094H329.708V59H327.496V58.6094H328.394V56.7515H327.496V56.3584ZM328.335 55.665C328.335 55.626 328.341 55.5894 328.353 55.5552C328.366 55.521 328.385 55.4917 328.411 55.4673C328.432 55.4461 328.459 55.4299 328.492 55.4185C328.526 55.4054 328.564 55.3989 328.606 55.3989C328.649 55.3989 328.686 55.4054 328.719 55.4185C328.751 55.4299 328.778 55.4461 328.799 55.4673C328.825 55.4901 328.845 55.5186 328.858 55.5527C328.871 55.5869 328.877 55.6243 328.877 55.665C328.877 55.7383 328.855 55.7993 328.809 55.8481C328.764 55.897 328.696 55.9214 328.606 55.9214C328.515 55.9214 328.447 55.897 328.401 55.8481C328.357 55.7993 328.335 55.7383 328.335 55.665ZM330.428 59V56.3584H330.833L330.865 56.749C330.904 56.6937 330.946 56.6432 330.992 56.5977C331.039 56.5505 331.089 56.5098 331.141 56.4756C331.219 56.4235 331.303 56.3836 331.395 56.356C331.487 56.3267 331.585 56.3112 331.688 56.3096C331.826 56.3096 331.951 56.3291 332.063 56.3682C332.177 56.4072 332.274 56.4683 332.354 56.5513C332.434 56.6343 332.495 56.7401 332.537 56.8687C332.581 56.9956 332.603 57.147 332.603 57.3228V59H332.151V57.3325C332.151 57.2153 332.138 57.116 332.112 57.0347C332.086 56.9533 332.048 56.8874 331.998 56.8369C331.945 56.7865 331.882 56.7498 331.807 56.7271C331.734 56.7043 331.649 56.6929 331.553 56.6929C331.47 56.6929 331.393 56.7051 331.321 56.7295C331.25 56.7523 331.184 56.784 331.124 56.8247C331.075 56.8605 331.029 56.902 330.987 56.9492C330.946 56.9964 330.91 57.0485 330.879 57.1055V59H330.428ZM334.104 59V56.7075H333.377V56.3584H334.104V56.1729C334.104 56.0036 334.129 55.8555 334.178 55.7285C334.228 55.5999 334.299 55.4925 334.39 55.4062C334.48 55.32 334.588 55.2549 334.715 55.2109C334.842 55.167 334.983 55.145 335.14 55.145C335.205 55.145 335.269 55.1491 335.333 55.1572C335.396 55.1637 335.459 55.1727 335.521 55.1841C335.561 55.1922 335.602 55.2012 335.643 55.2109C335.683 55.2191 335.725 55.2288 335.767 55.2402L335.713 55.6138C335.647 55.591 335.569 55.5715 335.479 55.5552C335.391 55.5373 335.297 55.5283 335.196 55.5283C335.093 55.5283 335.002 55.5413 334.922 55.5674C334.844 55.5918 334.779 55.6292 334.727 55.6797C334.672 55.7318 334.629 55.7993 334.6 55.8823C334.572 55.9653 334.559 56.0622 334.559 56.1729V56.3584H335.577V56.7075H334.559V59H334.104ZM336.307 57.6548C336.307 57.4644 336.334 57.2878 336.39 57.125C336.445 56.9606 336.525 56.8182 336.629 56.6978C336.731 56.5773 336.857 56.4829 337.005 56.4146C337.153 56.3446 337.32 56.3096 337.505 56.3096C337.693 56.3096 337.86 56.3446 338.008 56.4146C338.158 56.4829 338.285 56.5773 338.389 56.6978C338.492 56.8182 338.571 56.9606 338.626 57.125C338.681 57.2878 338.709 57.4644 338.709 57.6548V57.7085C338.709 57.8989 338.681 58.0755 338.626 58.2383C338.571 58.401 338.492 58.5426 338.389 58.6631C338.285 58.7835 338.159 58.8779 338.011 58.9463C337.863 59.0146 337.696 59.0488 337.51 59.0488C337.323 59.0488 337.155 59.0146 337.005 58.9463C336.857 58.8779 336.731 58.7835 336.629 58.6631C336.525 58.5426 336.445 58.401 336.39 58.2383C336.334 58.0755 336.307 57.8989 336.307 57.7085V57.6548ZM336.758 57.7085C336.758 57.8387 336.774 57.9632 336.805 58.082C336.836 58.1992 336.883 58.3026 336.946 58.3921C337.008 58.4816 337.086 58.5524 337.181 58.6045C337.275 58.6566 337.385 58.6826 337.51 58.6826C337.634 58.6826 337.742 58.6566 337.835 58.6045C337.929 58.5524 338.008 58.4816 338.072 58.3921C338.134 58.3026 338.18 58.1992 338.211 58.082C338.242 57.9632 338.257 57.8387 338.257 57.7085V57.6548C338.257 57.5262 338.241 57.4033 338.208 57.2861C338.178 57.1673 338.131 57.0632 338.069 56.9736C338.006 56.8841 337.927 56.8133 337.833 56.7612C337.74 56.7075 337.631 56.6807 337.505 56.6807C337.38 56.6807 337.271 56.7075 337.178 56.7612C337.085 56.8133 337.008 56.8841 336.946 56.9736C336.883 57.0632 336.836 57.1673 336.805 57.2861C336.774 57.4033 336.758 57.5262 336.758 57.6548V57.7085ZM341.167 56.3096C341.25 56.3096 341.337 56.3153 341.426 56.3267C341.517 56.3381 341.586 56.3535 341.631 56.373L341.57 56.8149C341.482 56.7954 341.399 56.7816 341.319 56.7734C341.241 56.7637 341.159 56.7588 341.072 56.7588C340.962 56.7588 340.861 56.7726 340.772 56.8003C340.682 56.8263 340.604 56.8654 340.538 56.9175C340.477 56.9631 340.424 57.0192 340.379 57.0859C340.335 57.151 340.298 57.2243 340.269 57.3057V59H339.815V56.3584H340.245L340.264 56.7124L340.267 56.7783C340.374 56.6335 340.503 56.5195 340.652 56.4365C340.804 56.3519 340.975 56.3096 341.167 56.3096ZM342.647 56.3584L342.659 56.6074C342.713 56.5146 342.783 56.4422 342.869 56.3901C342.957 56.3381 343.063 56.3112 343.187 56.3096C343.257 56.3096 343.319 56.3177 343.375 56.334C343.431 56.3486 343.481 56.3706 343.523 56.3999C343.554 56.4227 343.582 56.4504 343.606 56.4829C343.632 56.5155 343.654 56.5521 343.672 56.5928C343.695 56.5553 343.722 56.5203 343.753 56.4878C343.784 56.4552 343.817 56.4268 343.853 56.4023C343.899 56.3747 343.949 56.3527 344.004 56.3364C344.061 56.3201 344.123 56.3112 344.19 56.3096C344.281 56.3096 344.363 56.3234 344.437 56.3511C344.51 56.3771 344.572 56.4162 344.622 56.4683C344.677 56.5269 344.72 56.6034 344.749 56.6978C344.778 56.7905 344.793 56.9004 344.793 57.0273V59H344.363V57.0225C344.363 56.9671 344.357 56.9183 344.344 56.876C344.331 56.8337 344.312 56.7987 344.288 56.771C344.262 56.745 344.229 56.7254 344.19 56.7124C344.153 56.6994 344.109 56.6929 344.058 56.6929C344.004 56.6929 343.958 56.7002 343.919 56.7148C343.88 56.7295 343.847 56.749 343.821 56.7734C343.795 56.7995 343.775 56.8296 343.76 56.8638C343.746 56.8963 343.736 56.9329 343.731 56.9736C343.731 56.9818 343.731 56.9899 343.731 56.998C343.731 57.0046 343.731 57.0127 343.731 57.0225V59H343.301V57.02C343.301 56.9647 343.295 56.9159 343.282 56.8735C343.27 56.8312 343.252 56.7962 343.226 56.7686C343.201 56.7425 343.17 56.7238 343.133 56.7124C343.097 56.6994 343.055 56.6929 343.006 56.6929C342.952 56.6929 342.905 56.6994 342.864 56.7124C342.825 56.7238 342.792 56.7409 342.764 56.7637C342.743 56.7816 342.724 56.8019 342.708 56.8247C342.693 56.8475 342.681 56.8719 342.671 56.8979V59H342.242V56.3584H342.647ZM347.178 59C347.16 58.9658 347.146 58.9235 347.134 58.873C347.125 58.821 347.117 58.7673 347.112 58.7119C347.067 58.7575 347.015 58.8006 346.958 58.8413C346.903 58.882 346.842 58.9178 346.775 58.9487C346.707 58.9797 346.635 59.0041 346.558 59.022C346.482 59.0399 346.4 59.0488 346.314 59.0488C346.174 59.0488 346.047 59.0285 345.933 58.9878C345.821 58.9471 345.726 58.8918 345.647 58.8218C345.568 58.7534 345.506 58.672 345.462 58.5776C345.42 58.4816 345.398 58.3783 345.398 58.2676C345.398 58.1227 345.427 57.9958 345.484 57.8867C345.542 57.7777 345.625 57.6865 345.73 57.6133C345.836 57.5417 345.963 57.488 346.111 57.4521C346.261 57.4163 346.428 57.3984 346.612 57.3984H347.105V57.1909C347.105 57.1112 347.09 57.0396 347.061 56.9761C347.032 56.9126 346.99 56.8581 346.937 56.8125C346.883 56.7686 346.817 56.7344 346.739 56.71C346.662 56.6855 346.576 56.6733 346.48 56.6733C346.39 56.6733 346.31 56.6847 346.238 56.7075C346.168 56.7303 346.109 56.7604 346.06 56.7979C346.011 56.8353 345.973 56.88 345.945 56.9321C345.919 56.9826 345.906 57.0355 345.906 57.0908H345.452C345.454 56.9948 345.478 56.9004 345.525 56.8076C345.574 56.7148 345.644 56.631 345.735 56.5562C345.825 56.4829 345.934 56.4235 346.062 56.3779C346.193 56.3324 346.34 56.3096 346.504 56.3096C346.654 56.3096 346.793 56.3283 346.922 56.3657C347.05 56.4015 347.162 56.4561 347.256 56.5293C347.349 56.6042 347.422 56.6969 347.476 56.8076C347.53 56.9183 347.557 57.0477 347.557 57.1958V58.4238C347.557 58.5117 347.565 58.6053 347.581 58.7046C347.597 58.8022 347.62 58.8877 347.649 58.9609V59H347.178ZM346.38 58.6558C346.468 58.6558 346.55 58.6444 346.626 58.6216C346.703 58.5988 346.773 58.5687 346.836 58.5312C346.898 58.4938 346.952 58.4515 346.998 58.4043C347.043 58.3555 347.079 58.305 347.105 58.2529V57.7183H346.685C346.529 57.7183 346.392 57.7321 346.275 57.7598C346.159 57.7858 346.067 57.8265 345.999 57.8818C345.95 57.9209 345.913 57.9673 345.887 58.021C345.862 58.0747 345.85 58.1357 345.85 58.2041C345.85 58.2692 345.861 58.3294 345.882 58.3848C345.905 58.4401 345.938 58.4873 345.982 58.5264C346.026 58.5671 346.081 58.5988 346.148 58.6216C346.215 58.6444 346.292 58.6558 346.38 58.6558ZM349.515 55.7188V56.3584H350.521V56.7075H349.515V58.1431C349.515 58.2456 349.528 58.3302 349.554 58.397C349.58 58.4637 349.616 58.5166 349.661 58.5557C349.707 58.5964 349.759 58.6248 349.817 58.6411C349.878 58.6574 349.941 58.6655 350.008 58.6655C350.057 58.6655 350.107 58.6631 350.159 58.6582C350.211 58.6517 350.263 58.6444 350.313 58.6362C350.362 58.6281 350.407 58.62 350.45 58.6118C350.494 58.6021 350.529 58.5939 350.557 58.5874L350.621 58.9072C350.583 58.93 350.538 58.9504 350.484 58.9683C350.43 58.9845 350.372 58.9984 350.308 59.0098C350.245 59.0228 350.177 59.0326 350.105 59.0391C350.035 59.0456 349.965 59.0488 349.896 59.0488C349.778 59.0488 349.668 59.0326 349.566 59C349.465 58.9658 349.377 58.9121 349.302 58.8389C349.227 58.7673 349.168 58.6745 349.124 58.5605C349.082 58.445 349.061 58.3058 349.061 58.1431V56.7075H348.367V56.3584H349.061V55.7188H349.515ZM351.519 56.3584H352.869V58.6094H353.731V59H351.519V58.6094H352.417V56.7515H351.519V56.3584ZM352.359 55.665C352.359 55.626 352.365 55.5894 352.376 55.5552C352.389 55.521 352.409 55.4917 352.435 55.4673C352.456 55.4461 352.483 55.4299 352.515 55.4185C352.549 55.4054 352.588 55.3989 352.63 55.3989C352.672 55.3989 352.71 55.4054 352.742 55.4185C352.775 55.4299 352.802 55.4461 352.823 55.4673C352.849 55.4901 352.868 55.5186 352.881 55.5527C352.894 55.5869 352.901 55.6243 352.901 55.665C352.901 55.7383 352.878 55.7993 352.833 55.8481C352.787 55.897 352.719 55.9214 352.63 55.9214C352.539 55.9214 352.47 55.897 352.425 55.8481C352.381 55.7993 352.359 55.7383 352.359 55.665ZM354.324 57.6548C354.324 57.4644 354.352 57.2878 354.407 57.125C354.463 56.9606 354.542 56.8182 354.646 56.6978C354.749 56.5773 354.874 56.4829 355.022 56.4146C355.171 56.3446 355.337 56.3096 355.523 56.3096C355.71 56.3096 355.878 56.3446 356.026 56.4146C356.176 56.4829 356.303 56.5773 356.407 56.6978C356.509 56.8182 356.588 56.9606 356.644 57.125C356.699 57.2878 356.727 57.4644 356.727 57.6548V57.7085C356.727 57.8989 356.699 58.0755 356.644 58.2383C356.588 58.401 356.509 58.5426 356.407 58.6631C356.303 58.7835 356.176 58.8779 356.028 58.9463C355.88 59.0146 355.713 59.0488 355.528 59.0488C355.341 59.0488 355.172 59.0146 355.022 58.9463C354.874 58.8779 354.749 58.7835 354.646 58.6631C354.542 58.5426 354.463 58.401 354.407 58.2383C354.352 58.0755 354.324 57.8989 354.324 57.7085V57.6548ZM354.776 57.7085C354.776 57.8387 354.791 57.9632 354.822 58.082C354.853 58.1992 354.9 58.3026 354.964 58.3921C355.026 58.4816 355.104 58.5524 355.198 58.6045C355.293 58.6566 355.403 58.6826 355.528 58.6826C355.652 58.6826 355.76 58.6566 355.853 58.6045C355.947 58.5524 356.026 58.4816 356.089 58.3921C356.151 58.3026 356.198 58.1992 356.229 58.082C356.259 57.9632 356.275 57.8387 356.275 57.7085V57.6548C356.275 57.5262 356.259 57.4033 356.226 57.2861C356.195 57.1673 356.149 57.0632 356.087 56.9736C356.023 56.8841 355.944 56.8133 355.85 56.7612C355.757 56.7075 355.648 56.6807 355.523 56.6807C355.398 56.6807 355.289 56.7075 355.196 56.7612C355.103 56.8133 355.026 56.8841 354.964 56.9736C354.9 57.0632 354.853 57.1673 354.822 57.2861C354.791 57.4033 354.776 57.5262 354.776 57.6548V57.7085ZM357.454 59V56.3584H357.859L357.891 56.749C357.93 56.6937 357.972 56.6432 358.018 56.5977C358.065 56.5505 358.115 56.5098 358.167 56.4756C358.245 56.4235 358.33 56.3836 358.421 56.356C358.514 56.3267 358.611 56.3112 358.714 56.3096C358.852 56.3096 358.978 56.3291 359.09 56.3682C359.204 56.4072 359.301 56.4683 359.38 56.5513C359.46 56.6343 359.521 56.7401 359.563 56.8687C359.607 56.9956 359.629 57.147 359.629 57.3228V59H359.178V57.3325C359.178 57.2153 359.165 57.116 359.139 57.0347C359.113 56.9533 359.074 56.8874 359.024 56.8369C358.972 56.7865 358.908 56.7498 358.833 56.7271C358.76 56.7043 358.676 56.6929 358.58 56.6929C358.497 56.6929 358.419 56.7051 358.348 56.7295C358.276 56.7523 358.21 56.784 358.15 56.8247C358.101 56.8605 358.056 56.902 358.013 56.9492C357.972 56.9964 357.937 57.0485 357.906 57.1055V59H357.454Z" fill="#999EA4"/>
<path d="M140.422 78.0156V74.3584H140.835L140.857 74.6465C140.893 74.6009 140.932 74.5602 140.974 74.5244C141.016 74.487 141.062 74.4552 141.111 74.4292C141.179 74.3901 141.255 74.3608 141.338 74.3413C141.423 74.3201 141.513 74.3096 141.609 74.3096C141.778 74.3096 141.928 74.3429 142.058 74.4097C142.188 74.4764 142.297 74.5692 142.385 74.688C142.473 74.8068 142.54 74.9492 142.585 75.1152C142.631 75.2796 142.654 75.4603 142.654 75.6572V75.7085C142.654 75.8973 142.631 76.0739 142.585 76.2383C142.54 76.401 142.473 76.5426 142.385 76.6631C142.297 76.7835 142.188 76.8779 142.058 76.9463C141.93 77.0146 141.782 77.0488 141.616 77.0488C141.515 77.0488 141.421 77.0382 141.333 77.0171C141.247 76.9959 141.169 76.9658 141.099 76.9268C141.056 76.9023 141.016 76.8755 140.979 76.8462C140.942 76.8153 140.907 76.7819 140.874 76.7461V78.0156H140.422ZM142.202 75.6572C142.202 75.5286 142.188 75.4066 142.158 75.291C142.131 75.1738 142.087 75.0705 142.029 74.981C141.969 74.8931 141.893 74.8231 141.802 74.771C141.711 74.7189 141.602 74.6929 141.475 74.6929C141.405 74.6929 141.34 74.701 141.279 74.7173C141.221 74.7336 141.168 74.7572 141.121 74.7881C141.069 74.819 141.022 74.8573 140.981 74.9028C140.941 74.9484 140.905 74.9989 140.874 75.0542V76.3262C140.902 76.375 140.933 76.4206 140.969 76.4629C141.005 76.5052 141.046 76.541 141.091 76.5703C141.143 76.6045 141.201 76.6313 141.265 76.6509C141.33 76.6704 141.401 76.6802 141.479 76.6802C141.605 76.6802 141.713 76.6541 141.804 76.6021C141.895 76.5483 141.97 76.4767 142.029 76.3872C142.087 76.2977 142.131 76.1943 142.158 76.0771C142.188 75.96 142.202 75.8371 142.202 75.7085V75.6572ZM145.159 74.3096C145.242 74.3096 145.328 74.3153 145.417 74.3267C145.509 74.3381 145.577 74.3535 145.623 74.373L145.562 74.8149C145.474 74.7954 145.39 74.7816 145.31 74.7734C145.232 74.7637 145.15 74.7588 145.063 74.7588C144.953 74.7588 144.853 74.7726 144.763 74.8003C144.674 74.8263 144.596 74.8654 144.529 74.9175C144.469 74.9631 144.416 75.0192 144.37 75.0859C144.326 75.151 144.29 75.2243 144.26 75.3057V77H143.806V74.3584H144.236L144.255 74.7124L144.258 74.7783C144.365 74.6335 144.494 74.5195 144.644 74.4365C144.795 74.3519 144.967 74.3096 145.159 74.3096ZM146.304 75.6548C146.304 75.4644 146.331 75.2878 146.387 75.125C146.442 74.9606 146.522 74.8182 146.626 74.6978C146.729 74.5773 146.854 74.4829 147.002 74.4146C147.15 74.3446 147.317 74.3096 147.502 74.3096C147.69 74.3096 147.857 74.3446 148.005 74.4146C148.155 74.4829 148.282 74.5773 148.386 74.6978C148.489 74.8182 148.568 74.9606 148.623 75.125C148.678 75.2878 148.706 75.4644 148.706 75.6548V75.7085C148.706 75.8989 148.678 76.0755 148.623 76.2383C148.568 76.401 148.489 76.5426 148.386 76.6631C148.282 76.7835 148.156 76.8779 148.008 76.9463C147.86 77.0146 147.693 77.0488 147.507 77.0488C147.32 77.0488 147.152 77.0146 147.002 76.9463C146.854 76.8779 146.729 76.7835 146.626 76.6631C146.522 76.5426 146.442 76.401 146.387 76.2383C146.331 76.0755 146.304 75.8989 146.304 75.7085V75.6548ZM146.755 75.7085C146.755 75.8387 146.771 75.9632 146.802 76.082C146.833 76.1992 146.88 76.3026 146.943 76.3921C147.005 76.4816 147.083 76.5524 147.178 76.6045C147.272 76.6566 147.382 76.6826 147.507 76.6826C147.631 76.6826 147.739 76.6566 147.832 76.6045C147.926 76.5524 148.005 76.4816 148.069 76.3921C148.131 76.3026 148.177 76.1992 148.208 76.082C148.239 75.9632 148.254 75.8387 148.254 75.7085V75.6548C148.254 75.5262 148.238 75.4033 148.206 75.2861C148.175 75.1673 148.128 75.0632 148.066 74.9736C148.003 74.8841 147.924 74.8133 147.83 74.7612C147.737 74.7075 147.628 74.6807 147.502 74.6807C147.377 74.6807 147.268 74.7075 147.175 74.7612C147.083 74.8133 147.005 74.8841 146.943 74.9736C146.88 75.0632 146.833 75.1673 146.802 75.2861C146.771 75.4033 146.755 75.5262 146.755 75.6548V75.7085ZM149.739 74.3584H151.072V77.0171C151.072 77.1864 151.048 77.3361 151.001 77.4663C150.955 77.5965 150.889 77.7056 150.801 77.7935C150.711 77.883 150.602 77.9505 150.474 77.9961C150.347 78.0433 150.202 78.0669 150.039 78.0669C149.989 78.0669 149.94 78.0661 149.893 78.0645C149.845 78.0628 149.799 78.0604 149.753 78.0571C149.716 78.0539 149.679 78.049 149.641 78.0425C149.604 78.0376 149.565 78.0319 149.524 78.0254L149.556 77.6543C149.583 77.6592 149.618 77.6632 149.661 77.6665C149.703 77.6714 149.746 77.6746 149.79 77.6763C149.832 77.6795 149.873 77.6812 149.912 77.6812C149.953 77.6828 149.985 77.6836 150.007 77.6836C150.092 77.6836 150.172 77.6722 150.247 77.6494C150.321 77.6283 150.387 77.5916 150.442 77.5396C150.497 77.4875 150.54 77.4183 150.571 77.332C150.604 77.2474 150.62 77.1424 150.62 77.0171V74.7515H149.739V74.3584ZM150.557 73.6626C150.557 73.5894 150.579 73.5275 150.623 73.4771C150.667 73.425 150.734 73.3989 150.825 73.3989C150.916 73.3989 150.985 73.425 151.03 73.4771C151.076 73.5275 151.099 73.5894 151.099 73.6626C151.099 73.7358 151.076 73.7977 151.03 73.8481C150.985 73.897 150.916 73.9214 150.825 73.9214C150.734 73.9214 150.667 73.897 150.623 73.8481C150.579 73.7977 150.557 73.7358 150.557 73.6626ZM153.604 77.0488C153.418 77.0488 153.247 77.0171 153.091 76.9536C152.936 76.8901 152.804 76.8014 152.693 76.6875C152.582 76.5736 152.496 76.4385 152.434 76.2822C152.372 76.126 152.341 75.9559 152.341 75.772V75.6694C152.341 75.4562 152.375 75.2658 152.444 75.0981C152.512 74.9289 152.603 74.7856 152.717 74.6685C152.83 74.5529 152.957 74.4642 153.101 74.4023C153.245 74.3405 153.394 74.3096 153.545 74.3096C153.735 74.3096 153.901 74.3429 154.043 74.4097C154.186 74.4748 154.305 74.5651 154.399 74.6807C154.494 74.7979 154.564 74.9354 154.609 75.0933C154.657 75.2511 154.68 75.422 154.68 75.606V75.8086H152.793V75.8257C152.804 75.9543 152.83 76.0674 152.869 76.165C152.909 76.2627 152.965 76.349 153.035 76.4238C153.106 76.5036 153.193 76.5662 153.293 76.6118C153.394 76.6574 153.506 76.6802 153.628 76.6802C153.789 76.6802 153.932 76.6476 154.058 76.5825C154.183 76.5174 154.287 76.4312 154.37 76.3237L154.646 76.5386C154.558 76.672 154.426 76.7909 154.25 76.895C154.076 76.9976 153.861 77.0488 153.604 77.0488ZM153.545 74.6807C153.454 74.6807 153.368 74.6978 153.286 74.7319C153.205 74.7645 153.132 74.8125 153.066 74.876C153.001 74.9411 152.946 75.0208 152.9 75.1152C152.856 75.208 152.826 75.3154 152.808 75.4375H154.229V75.4155C154.229 75.3341 154.213 75.2471 154.182 75.1543C154.151 75.0599 154.108 74.9785 154.053 74.9102C153.997 74.8418 153.927 74.7865 153.843 74.7441C153.76 74.7018 153.66 74.6807 153.545 74.6807ZM156.565 76.6826C156.646 76.6826 156.725 76.6696 156.802 76.6436C156.88 76.6175 156.949 76.5809 157.009 76.5337C157.069 76.4881 157.118 76.4344 157.153 76.3726C157.191 76.3091 157.21 76.2407 157.212 76.1675H157.639C157.638 76.2847 157.607 76.397 157.546 76.5044C157.488 76.6102 157.409 76.703 157.31 76.7827C157.21 76.8641 157.096 76.9292 156.968 76.978C156.839 77.0252 156.705 77.0488 156.565 77.0488C156.365 77.0488 156.19 77.013 156.04 76.9414C155.89 76.8698 155.766 76.7729 155.667 76.6509C155.566 76.5304 155.49 76.3913 155.439 76.2334C155.389 76.0739 155.364 75.9062 155.364 75.7305V75.6279C155.364 75.4538 155.389 75.2869 155.439 75.1274C155.49 74.9679 155.566 74.8271 155.667 74.7051C155.766 74.5846 155.89 74.4886 156.04 74.417C156.19 74.3454 156.365 74.3096 156.565 74.3096C156.721 74.3096 156.864 74.3348 156.995 74.3853C157.126 74.4341 157.24 74.5008 157.336 74.5854C157.431 74.6717 157.505 74.7734 157.559 74.8906C157.612 75.0078 157.639 75.1331 157.639 75.2666H157.212C157.21 75.1868 157.192 75.112 157.158 75.042C157.126 74.9704 157.081 74.9077 157.024 74.854C156.967 74.8003 156.899 74.758 156.819 74.7271C156.741 74.6961 156.656 74.6807 156.565 74.6807C156.425 74.6807 156.307 74.7091 156.211 74.7661C156.117 74.8215 156.04 74.8939 155.981 74.9834C155.923 75.0745 155.881 75.1763 155.854 75.2886C155.83 75.4009 155.818 75.514 155.818 75.6279V75.7305C155.818 75.846 155.83 75.9608 155.854 76.0747C155.881 76.187 155.923 76.2879 155.981 76.3774C156.038 76.4686 156.114 76.5426 156.208 76.5996C156.305 76.6549 156.423 76.6826 156.565 76.6826ZM159.512 73.7188V74.3584H160.518V74.7075H159.512V76.1431C159.512 76.2456 159.525 76.3302 159.551 76.397C159.577 76.4637 159.613 76.5166 159.658 76.5557C159.704 76.5964 159.756 76.6248 159.814 76.6411C159.875 76.6574 159.938 76.6655 160.005 76.6655C160.054 76.6655 160.104 76.6631 160.156 76.6582C160.208 76.6517 160.26 76.6444 160.31 76.6362C160.359 76.6281 160.404 76.62 160.447 76.6118C160.491 76.6021 160.527 76.5939 160.554 76.5874L160.618 76.9072C160.58 76.93 160.535 76.9504 160.481 76.9683C160.427 76.9845 160.369 76.9984 160.305 77.0098C160.242 77.0228 160.174 77.0326 160.103 77.0391C160.033 77.0456 159.963 77.0488 159.893 77.0488C159.775 77.0488 159.666 77.0326 159.563 77C159.462 76.9658 159.374 76.9121 159.299 76.8389C159.224 76.7673 159.165 76.6745 159.121 76.5605C159.079 76.445 159.058 76.3058 159.058 76.1431V74.7075H158.364V74.3584H159.058V73.7188H159.512Z" fill="#999EA4"/>
<path d="M169.422 60.0156V56.3584H169.835L169.857 56.6465C169.893 56.6009 169.932 56.5602 169.974 56.5244C170.016 56.487 170.062 56.4552 170.111 56.4292C170.179 56.3901 170.255 56.3608 170.338 56.3413C170.423 56.3201 170.513 56.3096 170.609 56.3096C170.778 56.3096 170.928 56.3429 171.058 56.4097C171.188 56.4764 171.297 56.5692 171.385 56.688C171.473 56.8068 171.54 56.9492 171.585 57.1152C171.631 57.2796 171.654 57.4603 171.654 57.6572V57.7085C171.654 57.8973 171.631 58.0739 171.585 58.2383C171.54 58.401 171.473 58.5426 171.385 58.6631C171.297 58.7835 171.188 58.8779 171.058 58.9463C170.93 59.0146 170.782 59.0488 170.616 59.0488C170.515 59.0488 170.421 59.0382 170.333 59.0171C170.247 58.9959 170.169 58.9658 170.099 58.9268C170.056 58.9023 170.016 58.8755 169.979 58.8462C169.942 58.8153 169.907 58.7819 169.874 58.7461V60.0156H169.422ZM171.202 57.6572C171.202 57.5286 171.188 57.4066 171.158 57.291C171.131 57.1738 171.087 57.0705 171.029 56.981C170.969 56.8931 170.893 56.8231 170.802 56.771C170.711 56.7189 170.602 56.6929 170.475 56.6929C170.405 56.6929 170.34 56.701 170.279 56.7173C170.221 56.7336 170.168 56.7572 170.121 56.7881C170.069 56.819 170.022 56.8573 169.981 56.9028C169.941 56.9484 169.905 56.9989 169.874 57.0542V58.3262C169.902 58.375 169.933 58.4206 169.969 58.4629C170.005 58.5052 170.046 58.541 170.091 58.5703C170.143 58.6045 170.201 58.6313 170.265 58.6509C170.33 58.6704 170.401 58.6802 170.479 58.6802C170.605 58.6802 170.713 58.6541 170.804 58.6021C170.895 58.5483 170.97 58.4767 171.029 58.3872C171.087 58.2977 171.131 58.1943 171.158 58.0771C171.188 57.96 171.202 57.8371 171.202 57.7085V57.6572ZM174.159 56.3096C174.242 56.3096 174.328 56.3153 174.417 56.3267C174.509 56.3381 174.577 56.3535 174.623 56.373L174.562 56.8149C174.474 56.7954 174.39 56.7816 174.31 56.7734C174.232 56.7637 174.15 56.7588 174.063 56.7588C173.953 56.7588 173.853 56.7726 173.763 56.8003C173.674 56.8263 173.596 56.8654 173.529 56.9175C173.469 56.9631 173.416 57.0192 173.37 57.0859C173.326 57.151 173.29 57.2243 173.26 57.3057V59H172.806V56.3584H173.236L173.255 56.7124L173.258 56.7783C173.365 56.6335 173.494 56.5195 173.644 56.4365C173.795 56.3519 173.967 56.3096 174.159 56.3096ZM175.501 56.3584H176.852V58.6094H177.713V59H175.501V58.6094H176.4V56.7515H175.501V56.3584ZM176.341 55.665C176.341 55.626 176.347 55.5894 176.358 55.5552C176.371 55.521 176.391 55.4917 176.417 55.4673C176.438 55.4461 176.465 55.4299 176.498 55.4185C176.532 55.4054 176.57 55.3989 176.612 55.3989C176.655 55.3989 176.692 55.4054 176.725 55.4185C176.757 55.4299 176.784 55.4461 176.805 55.4673C176.831 55.4901 176.851 55.5186 176.864 55.5527C176.877 55.5869 176.883 55.6243 176.883 55.665C176.883 55.7383 176.861 55.7993 176.815 55.8481C176.769 55.897 176.702 55.9214 176.612 55.9214C176.521 55.9214 176.453 55.897 176.407 55.8481C176.363 55.7993 176.341 55.7383 176.341 55.665ZM179.334 59L178.248 56.3584H178.712L179.469 58.3506L179.51 58.5142L179.554 58.3506L180.294 56.3584H180.755L179.679 59H179.334ZM183.172 59C183.154 58.9658 183.14 58.9235 183.128 58.873C183.119 58.821 183.111 58.7673 183.106 58.7119C183.061 58.7575 183.01 58.8006 182.953 58.8413C182.897 58.882 182.836 58.9178 182.77 58.9487C182.701 58.9797 182.629 59.0041 182.552 59.022C182.476 59.0399 182.394 59.0488 182.308 59.0488C182.168 59.0488 182.041 59.0285 181.927 58.9878C181.815 58.9471 181.72 58.8918 181.642 58.8218C181.562 58.7534 181.5 58.672 181.456 58.5776C181.414 58.4816 181.393 58.3783 181.393 58.2676C181.393 58.1227 181.421 57.9958 181.478 57.8867C181.537 57.7777 181.619 57.6865 181.725 57.6133C181.83 57.5417 181.957 57.488 182.105 57.4521C182.255 57.4163 182.422 57.3984 182.606 57.3984H183.099V57.1909C183.099 57.1112 183.084 57.0396 183.055 56.9761C183.026 56.9126 182.984 56.8581 182.931 56.8125C182.877 56.7686 182.811 56.7344 182.733 56.71C182.656 56.6855 182.57 56.6733 182.474 56.6733C182.385 56.6733 182.304 56.6847 182.232 56.7075C182.162 56.7303 182.103 56.7604 182.054 56.7979C182.005 56.8353 181.967 56.88 181.939 56.9321C181.913 56.9826 181.9 57.0355 181.9 57.0908H181.446C181.448 56.9948 181.472 56.9004 181.52 56.8076C181.568 56.7148 181.638 56.631 181.729 56.5562C181.819 56.4829 181.928 56.4235 182.057 56.3779C182.187 56.3324 182.334 56.3096 182.499 56.3096C182.648 56.3096 182.787 56.3283 182.916 56.3657C183.045 56.4015 183.156 56.4561 183.25 56.5293C183.343 56.6042 183.417 56.6969 183.47 56.8076C183.524 56.9183 183.551 57.0477 183.551 57.1958V58.4238C183.551 58.5117 183.559 58.6053 183.575 58.7046C183.591 58.8022 183.614 58.8877 183.644 58.9609V59H183.172ZM182.374 58.6558C182.462 58.6558 182.544 58.6444 182.621 58.6216C182.697 58.5988 182.767 58.5687 182.831 58.5312C182.892 58.4938 182.946 58.4515 182.992 58.4043C183.037 58.3555 183.073 58.305 183.099 58.2529V57.7183H182.679C182.523 57.7183 182.386 57.7321 182.269 57.7598C182.153 57.7858 182.062 57.8265 181.993 57.8818C181.944 57.9209 181.907 57.9673 181.881 58.021C181.856 58.0747 181.844 58.1357 181.844 58.2041C181.844 58.2692 181.855 58.3294 181.876 58.3848C181.899 58.4401 181.932 58.4873 181.976 58.5264C182.02 58.5671 182.075 58.5988 182.142 58.6216C182.209 58.6444 182.286 58.6558 182.374 58.6558ZM185.509 55.7188V56.3584H186.515V56.7075H185.509V58.1431C185.509 58.2456 185.522 58.3302 185.548 58.397C185.574 58.4637 185.61 58.5166 185.655 58.5557C185.701 58.5964 185.753 58.6248 185.812 58.6411C185.872 58.6574 185.935 58.6655 186.002 58.6655C186.051 58.6655 186.101 58.6631 186.153 58.6582C186.205 58.6517 186.257 58.6444 186.307 58.6362C186.356 58.6281 186.402 58.62 186.444 58.6118C186.488 58.6021 186.524 58.5939 186.551 58.5874L186.615 58.9072C186.577 58.93 186.532 58.9504 186.478 58.9683C186.424 58.9845 186.366 58.9984 186.302 59.0098C186.239 59.0228 186.171 59.0326 186.1 59.0391C186.03 59.0456 185.96 59.0488 185.89 59.0488C185.772 59.0488 185.663 59.0326 185.56 59C185.459 58.9658 185.371 58.9121 185.296 58.8389C185.222 58.7673 185.162 58.6745 185.118 58.5605C185.076 58.445 185.055 58.3058 185.055 58.1431V56.7075H184.361V56.3584H185.055V55.7188H185.509ZM188.609 59.0488C188.424 59.0488 188.253 59.0171 188.097 58.9536C187.942 58.8901 187.809 58.8014 187.699 58.6875C187.588 58.5736 187.502 58.4385 187.44 58.2822C187.378 58.126 187.347 57.9559 187.347 57.772V57.6694C187.347 57.4562 187.381 57.2658 187.45 57.0981C187.518 56.9289 187.609 56.7856 187.723 56.6685C187.835 56.5529 187.963 56.4642 188.106 56.4023C188.251 56.3405 188.399 56.3096 188.551 56.3096C188.741 56.3096 188.907 56.3429 189.049 56.4097C189.192 56.4748 189.311 56.5651 189.405 56.6807C189.5 56.7979 189.57 56.9354 189.615 57.0933C189.662 57.2511 189.686 57.422 189.686 57.606V57.8086H187.799V57.8257C187.81 57.9543 187.835 58.0674 187.875 58.165C187.915 58.2627 187.971 58.349 188.041 58.4238C188.112 58.5036 188.198 58.5662 188.299 58.6118C188.4 58.6574 188.512 58.6802 188.634 58.6802C188.795 58.6802 188.938 58.6476 189.063 58.5825C189.189 58.5174 189.293 58.4312 189.376 58.3237L189.652 58.5386C189.564 58.672 189.432 58.7909 189.256 58.895C189.082 58.9976 188.867 59.0488 188.609 59.0488ZM188.551 56.6807C188.46 56.6807 188.373 56.6978 188.292 56.7319C188.211 56.7645 188.137 56.8125 188.072 56.876C188.007 56.9411 187.952 57.0208 187.906 57.1152C187.862 57.208 187.831 57.3154 187.813 57.4375H189.234V57.4155C189.234 57.3341 189.219 57.2471 189.188 57.1543C189.157 57.0599 189.114 56.9785 189.059 56.9102C189.003 56.8418 188.933 56.7865 188.849 56.7441C188.766 56.7018 188.666 56.6807 188.551 56.6807Z" fill="#999EA4"/>
<defs>
<linearGradient id="paint0_linear_417_15754" x1="370.73" y1="13.3378" x2="30.0219" y2="13.3378" gradientUnits="userSpaceOnUse">
<stop stop-color="#008CFF"/>
<stop offset="0.560003" stop-color="#18C8FF"/>
<stop offset="1" stop-color="#00B0F2"/>
</linearGradient>
<linearGradient id="paint1_linear_417_15754" x1="322.592" y1="48.4882" x2="246.742" y2="48.4882" gradientUnits="userSpaceOnUse">
<stop stop-color="#008CFF"/>
<stop offset="0.560003" stop-color="#18C8FF"/>
<stop offset="1" stop-color="#00B0F2"/>
</linearGradient>
<linearGradient id="paint2_linear_417_15754" x1="132.549" y1="58.9712" x2="81.408" y2="58.9712" gradientUnits="userSpaceOnUse">
<stop stop-color="#008CFF"/>
<stop offset="0.560003" stop-color="#18C8FF"/>
<stop offset="1" stop-color="#00B0F2"/>
</linearGradient>
<linearGradient id="paint3_linear_417_15754" x1="1" y1="13.3378" x2="338.008" y2="13.3378" gradientUnits="userSpaceOnUse">
<stop stop-color="#008CFF"/>
<stop offset="0.560003" stop-color="#18C8FF"/>
<stop offset="1" stop-color="#00B0F2"/>
</linearGradient>
<linearGradient id="paint4_linear_417_15754" x1="165.804" y1="66.6798" x2="8.3938" y2="66.6798" gradientUnits="userSpaceOnUse">
<stop stop-color="#008CFF"/>
<stop offset="0.560003" stop-color="#18C8FF"/>
<stop offset="1" stop-color="#00B0F2"/>
</linearGradient>
<linearGradient id="paint5_linear_417_15754" x1="371" y1="57.5835" x2="173.975" y2="57.5835" gradientUnits="userSpaceOnUse">
<stop stop-color="#008CFF"/>
<stop offset="0.560003" stop-color="#18C8FF"/>
<stop offset="1" stop-color="#00B0F2"/>
</linearGradient>
</defs>
</svg>
