<svg width="1338" height="1351" viewBox="0 0 1338 1351" fill="none" xmlns="http://www.w3.org/2000/svg">
<g opacity="0.35">
<path opacity="0.0344828" d="M1125.56 558.905C1123.2 551.644 1117.7 545.511 1109.23 540.515C1100.75 535.515 1089.35 531.688 1075.32 529.039C1047.27 523.74 1008.92 523.187 962.96 527.178C871.056 535.16 748.947 561.293 618.433 603.699C487.919 646.106 373.77 696.738 294.727 744.3C255.198 768.086 224.497 791.075 204.917 811.85C195.127 822.239 188.153 832.035 184.233 841.064C180.316 850.085 179.471 858.28 181.83 865.541C184.189 872.801 189.69 878.934 198.161 883.93C206.64 888.93 218.039 892.757 232.066 895.407C260.118 900.706 298.468 901.259 344.429 897.267C436.333 889.285 558.441 863.152 688.955 820.746C819.47 778.339 933.618 727.707 1012.66 680.145C1052.19 656.36 1082.89 633.37 1102.47 612.595C1112.26 602.207 1119.23 592.41 1123.16 583.381C1127.07 574.36 1127.92 566.165 1125.56 558.905Z" stroke="#632C72" stroke-width="2"/>
<path opacity="0.0689655" d="M1111.89 514.684C1108.9 507.656 1102.89 502.026 1094.02 497.787C1085.13 493.545 1073.44 490.727 1059.24 489.31C1030.83 486.476 992.579 489.267 947.142 497.249C856.283 513.211 736.917 549.886 610.595 603.507C484.274 657.127 374.972 717.515 300.375 771.785C263.07 798.926 234.489 824.503 216.795 846.906C207.947 858.108 201.854 868.475 198.736 877.811C195.62 887.139 195.492 895.377 198.474 902.404C201.457 909.432 207.472 915.062 216.347 919.3C225.229 923.542 236.918 926.361 251.123 927.778C279.53 930.612 317.782 927.821 363.22 919.838C454.078 903.877 573.445 867.201 699.766 813.581C826.088 759.961 935.389 699.573 1009.99 645.302C1047.29 618.162 1075.87 592.585 1093.57 570.182C1102.41 558.98 1108.51 548.613 1111.63 539.277C1114.74 529.949 1114.87 521.711 1111.89 514.684Z" stroke="#632C72" stroke-width="2"/>
<path opacity="0.103448" d="M1094.74 471.936C1091.16 465.196 1084.67 460.111 1075.46 456.662C1066.25 453.21 1054.35 451.421 1040.08 451.248C1011.53 450.9 973.671 457.015 929.102 468.927C839.98 492.746 724.265 539.686 603.097 604.112C481.93 668.538 378.308 738.222 308.724 798.788C273.926 829.076 247.684 857.047 232.009 880.907C224.171 892.838 219.005 903.696 216.712 913.268C214.421 922.833 215.011 931.05 218.595 937.791C222.18 944.531 228.662 949.616 237.872 953.065C247.09 956.517 258.981 958.306 273.255 958.479C301.801 958.827 339.665 952.712 384.233 940.8C473.355 916.981 589.071 870.041 710.238 805.615C831.406 741.189 935.028 671.505 1004.61 610.939C1039.41 580.651 1065.65 552.68 1081.33 528.82C1089.16 516.889 1094.33 506.031 1096.62 496.459C1098.91 486.894 1098.32 478.677 1094.74 471.936Z" stroke="#632C72" stroke-width="2"/>
<path opacity="0.137931" d="M1074.26 430.96C1070.1 424.557 1063.2 420.057 1053.73 417.424C1044.24 414.789 1032.24 414.043 1018.01 415.114C989.538 417.256 952.351 426.647 908.99 442.398C822.283 473.895 711.099 530.741 596.008 605.482C480.916 680.224 383.762 758.674 319.722 825.074C287.696 858.279 263.991 888.431 250.456 913.567C243.688 926.135 239.487 937.402 238.038 947.138C236.589 956.865 237.893 965 242.051 971.403C246.209 977.805 253.11 982.305 262.586 984.939C272.069 987.574 284.071 988.32 298.306 987.249C326.773 985.107 363.96 975.715 407.321 959.964C494.028 928.468 605.212 871.622 720.303 796.88C835.395 722.139 932.549 643.689 996.589 577.289C1028.62 544.083 1052.32 513.932 1065.86 488.796C1072.62 476.228 1076.82 464.961 1078.27 455.225C1079.72 445.497 1078.42 437.363 1074.26 430.96Z" stroke="#632C72" stroke-width="2"/>
<path opacity="0.172414" d="M1050.61 392.046C1045.91 386.03 1038.64 382.149 1028.97 380.352C1019.3 378.553 1007.28 378.856 993.189 381.163C965.016 385.778 928.789 398.375 886.966 417.845C803.335 456.779 697.528 523.099 589.389 607.587C481.249 692.075 391.302 778.694 333.293 850.423C304.283 886.293 283.296 918.396 272.003 944.616C266.356 957.726 263.154 969.317 262.558 979.142C261.963 988.958 263.971 996.948 268.671 1002.96C273.371 1008.98 280.638 1012.86 290.307 1014.66C299.984 1016.46 312.005 1016.15 326.092 1013.85C354.265 1009.23 390.492 996.636 432.315 977.165C515.947 938.232 621.753 871.911 729.893 787.424C838.032 702.936 927.979 616.317 985.989 544.588C1015 508.717 1035.98 476.615 1047.28 450.395C1052.93 437.285 1056.13 425.694 1056.72 415.869C1057.32 406.052 1055.31 398.062 1050.61 392.046Z" stroke="#632C72" stroke-width="2"/>
<path opacity="0.206897" d="M1023.99 355.453C1018.78 349.87 1011.2 346.637 1001.41 345.689C991.617 344.74 979.668 346.09 965.836 349.616C938.172 356.669 903.181 372.375 863.214 395.417C783.294 441.491 683.67 516.781 583.306 610.372C482.942 703.963 400.886 798.092 349.349 874.604C323.576 912.866 305.467 946.676 296.502 973.78C292.019 987.333 289.839 999.158 290.102 1009C290.365 1018.83 293.062 1026.61 298.268 1032.2C303.475 1037.78 311.052 1041.01 320.841 1041.96C330.638 1042.91 342.587 1041.56 356.42 1038.03C384.083 1030.98 419.074 1015.27 459.041 992.234C538.961 946.159 638.585 870.87 738.949 777.278C839.313 683.687 921.369 589.558 972.906 513.047C998.679 474.784 1016.79 440.974 1025.75 413.87C1030.24 400.318 1032.42 388.492 1032.15 378.652C1031.89 368.821 1029.19 361.037 1023.99 355.453Z" stroke="#632C72" stroke-width="2"/>
<path opacity="0.241379" d="M994.603 321.434C988.929 316.326 981.099 313.765 971.264 313.674C961.422 313.583 949.636 315.969 936.164 320.688C909.22 330.125 875.732 348.821 837.925 375.258C762.324 428.122 669.642 511.808 577.816 613.79C485.991 715.773 412.451 816.695 367.779 897.407C345.439 937.771 330.346 973.03 323.777 1000.81C320.492 1014.7 319.351 1026.67 320.471 1036.45C321.589 1046.22 324.954 1053.74 330.627 1058.85C336.301 1063.96 344.131 1066.52 353.966 1066.61C363.808 1066.7 375.594 1064.32 389.066 1059.6C416.01 1050.16 449.499 1031.47 487.305 1005.03C562.906 952.165 655.588 868.479 747.414 766.497C839.239 664.514 912.779 563.592 957.451 482.88C979.791 442.517 994.884 407.257 1001.45 379.475C1004.74 365.583 1005.88 353.613 1004.76 343.833C1003.64 334.062 1000.28 326.542 994.603 321.434Z" stroke="#632C72" stroke-width="2"/>
<path opacity="0.275862" d="M962.69 290.225C956.593 285.63 948.569 283.762 938.764 284.528C928.951 285.295 917.418 288.699 904.408 294.574C878.39 306.324 846.658 327.867 811.299 357.499C740.594 416.751 655.558 508.196 572.97 617.794C490.383 727.391 425.919 834.339 388.451 918.638C369.714 960.794 357.751 997.235 353.628 1025.48C351.567 1039.61 351.474 1051.63 353.441 1061.28C355.407 1070.91 359.415 1078.11 365.512 1082.71C371.609 1087.3 379.633 1089.17 389.438 1088.4C399.251 1087.64 410.784 1084.23 423.793 1078.36C449.812 1066.61 481.544 1045.06 516.903 1015.43C587.608 956.18 672.644 864.735 755.232 755.138C837.819 645.54 902.283 538.592 939.751 454.294C958.488 412.137 970.451 375.697 974.574 347.447C976.635 333.322 976.728 321.298 974.761 311.653C972.795 302.017 968.787 294.819 962.69 290.225Z" stroke="#632C72" stroke-width="2"/>
<path opacity="0.310345" d="M928.506 262.028C922.032 257.983 913.876 256.821 904.175 258.439C894.466 260.059 883.273 264.455 870.825 271.441C845.93 285.414 816.196 309.641 783.555 342.241C718.283 407.43 641.54 505.939 568.819 622.318C496.097 738.696 441.2 850.855 411.222 938.098C396.23 981.728 387.489 1019.07 385.844 1047.57C385.022 1061.82 385.977 1073.81 388.777 1083.25C391.576 1092.68 396.195 1099.5 402.67 1103.54C409.144 1107.59 417.3 1108.75 427.001 1107.13C436.71 1105.51 447.902 1101.12 460.35 1094.13C485.246 1080.16 514.979 1055.93 547.621 1023.33C612.893 958.141 689.636 859.632 762.357 743.254C835.078 626.875 889.975 514.716 919.954 427.473C934.946 383.843 943.687 346.499 945.332 317.998C946.154 303.747 945.199 291.76 942.398 282.324C939.6 272.895 934.98 266.074 928.506 262.028Z" stroke="#632C72" stroke-width="2"/>
<path opacity="0.344828" d="M892.321 237.034C885.518 233.569 877.292 233.122 867.769 235.579C858.238 238.039 847.472 243.394 835.68 251.438C812.097 267.527 784.588 294.254 754.912 329.575C695.57 400.205 627.705 505.028 565.403 627.301C503.102 749.575 458.189 866.092 435.928 955.616C424.796 1000.39 419.343 1038.35 420.188 1066.89C420.611 1081.15 422.608 1093.01 426.22 1102.17C429.829 1111.32 435.026 1117.71 441.828 1121.18C448.63 1124.64 456.857 1125.09 466.379 1122.63C475.91 1120.17 486.677 1114.82 498.469 1106.77C522.052 1090.68 549.56 1063.96 579.237 1028.64C638.579 958.005 706.444 853.183 768.745 730.909C831.047 608.636 875.96 492.119 898.22 402.595C909.353 357.825 914.806 319.86 913.96 291.324C913.537 277.056 911.541 265.198 907.929 256.042C904.32 246.893 899.123 240.5 892.321 237.034Z" stroke="#632C72" stroke-width="2"/>
<path opacity="0.37931" d="M854.423 215.402C847.344 212.542 839.11 212.814 829.838 216.092C820.558 219.373 810.299 225.646 799.253 234.687C777.162 252.771 752.087 281.793 725.602 319.566C672.642 395.099 614.171 505.438 562.764 632.676C511.356 759.914 476.769 879.903 462.396 971.026C455.208 1016.6 453.084 1054.89 456.414 1083.24C458.078 1097.42 461.101 1109.06 465.497 1117.87C469.89 1126.67 475.624 1132.58 482.702 1135.44C489.781 1138.3 498.015 1138.03 507.287 1134.75C516.567 1131.47 526.827 1125.2 537.872 1116.16C559.963 1098.07 585.038 1069.05 611.523 1031.28C664.483 955.744 722.954 845.406 774.362 718.167C825.769 590.929 860.356 470.941 874.73 379.818C881.918 334.248 884.041 295.953 880.712 267.599C879.047 253.422 876.025 241.783 871.628 232.976C867.235 224.177 861.501 218.262 854.423 215.402Z" stroke="#632C72" stroke-width="2"/>
<path opacity="0.413793" d="M815.11 197.272C807.809 195.04 799.63 196.029 790.679 200.102C781.72 204.179 772.047 211.323 761.831 221.293C741.4 241.232 718.95 272.33 695.858 312.268C649.683 392.129 601.051 507.144 560.928 638.378C520.806 769.613 496.808 892.159 490.432 984.188C487.243 1030.21 488.465 1068.55 494.253 1096.5C497.147 1110.48 501.172 1121.81 506.319 1130.2C511.462 1138.58 517.69 1143.98 524.991 1146.21C532.292 1148.44 540.471 1147.45 549.422 1143.38C558.381 1139.3 568.054 1132.16 578.27 1122.19C598.701 1102.25 621.151 1071.15 644.243 1031.21C690.418 951.351 739.05 836.337 779.172 705.102C819.295 573.868 843.293 451.322 849.669 359.292C852.858 313.27 851.636 274.935 845.848 246.979C842.954 233.001 838.929 221.67 833.782 213.28C828.639 204.897 822.411 199.504 815.11 197.272Z" stroke="#632C72" stroke-width="2"/>
<path opacity="0.448276" d="M774.692 182.754C767.225 181.167 759.163 182.865 750.601 187.703C742.031 192.546 733.017 200.505 723.709 211.327C705.094 232.972 685.44 265.907 665.917 307.706C626.877 391.288 588.455 510.104 559.923 644.336C531.391 778.568 518.165 902.739 519.834 994.974C520.668 1041.1 525.227 1079.18 533.429 1106.53C537.53 1120.2 542.528 1131.14 548.387 1139.05C554.241 1146.95 560.915 1151.78 568.382 1153.37C575.85 1154.95 583.912 1153.26 592.474 1148.42C601.043 1143.57 610.057 1135.62 619.365 1124.79C637.98 1103.15 657.634 1070.21 677.158 1028.41C716.197 944.832 754.62 826.016 783.152 691.784C811.684 557.552 824.91 433.381 823.241 341.146C822.407 295.021 817.848 256.938 809.646 229.594C805.544 215.921 800.547 204.984 794.688 197.074C788.834 189.172 782.16 184.342 774.692 182.754Z" stroke="#632C72" stroke-width="2"/>
<path opacity="0.482759" d="M733.489 171.932C725.911 171.002 718.028 173.395 709.92 178.962C701.805 184.533 693.519 193.247 685.19 204.84C668.532 228.024 651.824 262.547 636.018 305.888C604.411 392.555 576.49 514.267 559.766 650.475C543.042 786.683 540.688 911.535 550.389 1003.27C555.241 1049.15 563.101 1086.69 573.656 1113.22C578.933 1126.48 584.865 1136.94 591.391 1144.31C597.911 1151.67 604.981 1155.9 612.558 1156.83C620.136 1157.76 628.019 1155.37 636.127 1149.8C644.242 1144.23 652.528 1135.52 660.857 1123.92C677.515 1100.74 694.224 1066.22 710.03 1022.87C741.636 936.208 769.557 814.496 786.281 678.288C803.005 542.08 805.359 417.228 795.658 325.49C790.806 279.612 782.946 242.072 772.391 215.547C767.114 202.283 761.183 191.823 754.656 184.455C748.136 177.092 741.066 172.862 733.489 171.932Z" stroke="#632C72" stroke-width="2"/>
<path opacity="0.517241" d="M691.826 164.855C684.196 164.589 676.552 167.661 668.96 173.912C661.361 180.169 653.866 189.573 646.579 201.847C632.005 226.395 618.369 262.243 606.401 306.797C582.468 395.888 565.261 519.571 560.472 656.718C555.683 793.865 564.22 918.447 581.879 1008.99C590.711 1054.27 601.813 1090.98 614.639 1116.49C621.052 1129.24 627.873 1139.14 635.017 1145.92C642.154 1152.68 649.566 1156.28 657.195 1156.55C664.825 1156.81 672.469 1153.74 680.061 1147.49C687.66 1141.23 695.155 1131.83 702.442 1119.55C717.016 1095.01 730.652 1059.16 742.62 1014.6C766.553 925.513 783.76 801.83 788.549 664.683C793.338 527.536 784.801 402.954 767.142 312.41C758.31 267.13 747.208 230.418 734.382 204.913C727.969 192.16 721.148 182.257 714.004 175.485C706.867 168.719 699.455 165.122 691.826 164.855Z" stroke="#632C72" stroke-width="2"/>
<path opacity="0.551724" d="M650.031 161.554C642.407 161.953 635.059 165.68 628.041 172.569C621.017 179.465 614.37 189.485 608.181 202.348C595.802 228.073 585.342 264.973 577.302 310.401C561.225 401.239 554.864 525.951 562.046 662.993C569.228 800.036 588.59 923.399 614.074 1012.06C626.818 1056.4 641.078 1092 656.078 1116.29C663.579 1128.44 671.237 1137.71 678.943 1143.83C686.643 1149.95 694.34 1152.89 701.964 1152.49C709.588 1152.09 716.935 1148.36 723.953 1141.47C730.978 1134.58 737.624 1124.56 743.814 1111.69C756.193 1085.97 766.653 1049.07 774.693 1003.64C790.769 912.804 797.131 788.092 789.949 651.049C782.767 514.007 763.404 390.643 737.92 301.983C725.176 257.645 710.916 222.04 695.916 197.75C688.416 185.605 680.758 176.334 673.052 170.21C665.352 164.092 657.655 161.154 650.031 161.554Z" stroke="#632C72" stroke-width="2"/>
<path opacity="0.586207" d="M608.434 162.021C600.874 163.084 593.879 167.437 587.488 174.912C581.091 182.393 575.343 192.955 570.298 206.308C560.208 233.014 553.004 270.686 548.954 316.641C540.856 408.535 545.388 533.326 564.487 669.221C583.586 805.117 613.626 926.323 646.74 1012.42C663.3 1055.48 680.609 1089.71 697.669 1112.6C706.199 1124.05 714.636 1132.61 722.847 1138.04C731.051 1143.47 738.975 1145.72 746.535 1144.66C754.095 1143.6 761.09 1139.24 767.481 1131.77C773.877 1124.29 779.625 1113.73 784.67 1100.37C794.76 1073.67 801.964 1036 806.014 990.04C814.113 898.147 809.581 773.355 790.482 637.46C771.383 501.565 741.342 380.358 708.228 294.256C691.668 251.198 674.359 216.972 657.299 194.081C648.769 182.636 640.332 174.067 632.121 168.639C623.918 163.215 615.994 160.959 608.434 162.021Z" stroke="#632C72" stroke-width="2"/>
<path opacity="0.62069" d="M567.362 166.23C559.924 167.947 553.335 172.893 547.619 180.896C541.899 188.907 537.094 199.93 533.232 213.672C525.508 241.156 521.614 279.312 521.585 325.445C521.527 417.695 536.917 541.616 567.788 675.33C598.658 809.044 639.148 927.17 679.641 1010.06C699.89 1051.51 720.116 1084.1 739.106 1105.41C748.602 1116.07 757.753 1123.87 766.406 1128.57C775.051 1133.25 783.141 1134.81 790.58 1133.09C798.019 1131.38 804.608 1126.43 810.323 1118.43C816.043 1110.42 820.849 1099.39 824.711 1085.65C832.435 1058.17 836.328 1020.01 836.357 973.878C836.416 881.628 821.025 757.706 790.155 623.992C759.284 490.279 718.794 372.152 678.302 289.264C658.052 247.812 637.826 215.225 618.836 193.909C609.341 183.25 600.189 175.45 591.536 170.757C582.891 166.069 574.801 164.512 567.362 166.23Z" stroke="#632C72" stroke-width="2"/>
<path opacity="0.655172" d="M527.14 174.115C519.88 176.474 513.747 181.976 508.751 190.447C503.751 198.925 499.924 210.325 497.274 224.352C491.975 252.404 491.422 290.754 495.414 336.714C503.396 428.618 529.528 550.727 571.935 681.241C614.342 811.755 664.973 925.904 712.536 1004.95C736.321 1044.48 759.31 1075.18 780.086 1094.76C790.474 1104.55 800.271 1111.52 809.3 1115.44C818.321 1119.36 826.516 1120.2 833.776 1117.84C841.037 1115.49 847.17 1109.98 852.166 1101.51C857.166 1093.03 860.993 1081.63 863.642 1067.61C868.941 1039.56 869.494 1001.21 865.503 955.245C857.521 863.341 831.388 741.233 788.981 610.718C746.575 480.204 695.943 366.056 648.381 287.012C624.595 247.483 601.606 216.783 580.83 197.203C570.442 187.412 560.646 180.439 551.617 176.519C542.596 172.602 534.401 171.756 527.14 174.115Z" stroke="#632C72" stroke-width="2"/>
<path opacity="0.689655" d="M488.085 185.594C481.057 188.576 475.427 194.591 471.189 203.466C466.947 212.348 464.128 224.038 462.711 238.242C459.877 266.649 462.669 304.901 470.651 350.339C486.612 441.198 523.288 560.564 576.908 686.885C630.529 813.207 690.916 922.508 745.187 997.106C772.327 1034.41 797.904 1062.99 820.307 1080.69C831.509 1089.53 841.876 1095.63 851.212 1098.75C860.541 1101.86 868.778 1101.99 875.806 1099.01C882.833 1096.02 888.463 1090.01 892.702 1081.13C896.944 1072.25 899.762 1060.56 901.179 1046.36C904.013 1017.95 901.222 979.698 893.24 934.261C877.278 843.402 840.603 724.036 786.982 597.714C733.362 471.393 672.974 362.091 618.704 287.494C591.563 250.189 565.986 221.608 543.583 203.914C532.381 195.066 522.014 188.973 512.678 185.855C503.35 182.739 495.112 182.611 488.085 185.594Z" stroke="#632C72" stroke-width="2"/>
<path opacity="0.724138" d="M450.505 200.547C443.764 204.131 438.68 210.614 435.231 219.824C431.779 229.042 429.99 240.933 429.816 255.207C429.469 283.753 435.583 321.616 447.495 366.185C471.315 455.307 518.254 571.023 582.68 692.19C647.106 813.358 716.791 916.98 777.356 986.564C807.644 1021.36 835.615 1047.6 859.475 1063.28C871.406 1071.12 882.264 1076.28 891.837 1078.58C901.401 1080.87 909.618 1080.28 916.359 1076.69C923.1 1073.11 928.184 1066.63 931.633 1057.42C935.085 1048.2 936.874 1036.31 937.048 1022.03C937.395 993.487 931.28 955.623 919.368 911.054C895.549 821.932 848.609 706.217 784.183 585.049C719.757 463.882 650.073 360.26 589.508 290.676C559.219 255.878 531.248 229.636 507.388 213.961C495.458 206.123 484.599 200.957 475.027 198.664C465.463 196.373 457.245 196.963 450.505 200.547Z" stroke="#632C72" stroke-width="2"/>
<path opacity="0.758621" d="M414.698 218.834C408.295 222.992 403.795 229.893 401.162 239.369C398.526 248.853 397.78 260.854 398.851 275.089C400.993 303.557 410.385 340.743 426.136 384.104C457.632 470.811 514.479 581.995 589.22 697.087C663.961 812.178 742.411 909.333 808.811 973.373C842.017 1005.4 872.169 1029.1 897.304 1042.64C909.872 1049.41 921.14 1053.61 930.875 1055.06C940.603 1056.51 948.738 1055.2 955.14 1051.04C961.543 1046.89 966.043 1039.98 968.676 1030.51C971.312 1021.03 972.058 1009.02 970.986 994.789C968.844 966.321 959.453 929.135 943.702 885.773C912.206 799.067 855.359 687.883 780.618 572.791C705.877 457.7 627.426 360.545 561.027 296.505C527.821 264.479 497.669 240.775 472.534 227.239C459.966 220.471 448.698 216.271 438.962 214.821C429.235 213.372 421.1 214.677 414.698 218.834Z" stroke="#632C72" stroke-width="2"/>
<path opacity="0.793103" d="M380.947 240.289C374.931 244.99 371.05 252.256 369.252 261.926C367.454 271.603 367.756 283.624 370.064 297.711C374.679 325.884 387.276 362.11 406.746 403.933C445.679 487.565 512 593.372 596.488 701.511C680.975 809.65 767.595 899.598 839.323 957.607C875.194 986.617 907.297 1007.6 933.516 1018.9C946.627 1024.54 958.217 1027.75 968.042 1028.34C977.859 1028.94 985.849 1026.93 991.865 1022.23C997.881 1017.53 1001.76 1010.26 1003.56 1000.59C1005.36 990.915 1005.06 978.894 1002.75 964.807C998.133 936.634 985.536 900.408 966.066 858.585C927.133 774.953 860.812 669.146 776.324 561.007C691.837 452.868 605.217 362.92 533.489 304.911C497.618 275.901 465.515 254.915 439.296 243.621C426.185 237.974 414.595 234.772 404.77 234.176C394.953 233.581 386.963 235.589 380.947 240.289Z" stroke="#632C72" stroke-width="2"/>
<path opacity="0.827586" d="M349.521 264.719C343.937 269.926 340.704 277.503 339.756 287.292C338.808 297.089 340.157 309.038 343.684 322.871C350.737 350.534 366.443 385.525 389.484 425.492C435.559 505.412 510.848 605.036 604.439 705.4C698.031 805.764 792.16 887.82 868.671 939.357C906.934 965.13 940.744 983.239 967.848 992.204C981.4 996.687 993.226 998.867 1003.07 998.604C1012.9 998.341 1020.68 995.644 1026.26 990.438C1031.85 985.231 1035.08 977.654 1036.03 967.865C1036.98 958.068 1035.63 946.119 1032.1 932.286C1025.05 904.623 1009.34 869.632 986.301 829.665C940.227 749.745 864.937 650.121 771.346 549.757C677.755 449.393 583.626 367.337 507.114 315.8C468.852 290.027 435.042 271.918 407.938 262.953C394.385 258.47 382.56 256.29 372.72 256.553C362.889 256.816 355.104 259.512 349.521 264.719Z" stroke="#632C72" stroke-width="2"/>
<path opacity="0.862069" d="M320.67 291.911C315.562 297.584 313.002 305.415 312.911 315.249C312.819 325.092 315.205 336.878 319.924 350.35C329.361 377.293 348.057 410.782 374.494 448.589C427.358 524.189 511.044 616.872 613.027 708.697C715.009 800.523 815.932 874.062 896.644 918.735C937.007 941.075 972.266 956.168 1000.05 962.737C1013.94 966.022 1025.91 967.163 1035.69 966.043C1045.46 964.925 1052.98 961.56 1058.09 955.886C1063.2 950.213 1065.76 942.382 1065.85 932.548C1065.94 922.705 1063.55 910.92 1058.84 897.447C1049.4 870.504 1030.7 837.015 1004.27 799.208C951.402 723.608 867.716 630.925 765.733 539.1C663.751 447.275 562.828 373.735 482.116 329.062C441.753 306.722 406.493 291.629 378.711 285.06C364.82 281.776 352.849 280.635 343.07 281.754C333.299 282.873 325.779 286.238 320.67 291.911Z" stroke="#632C72" stroke-width="2"/>
<path opacity="0.896552" d="M294.624 321.632C290.03 327.729 288.161 335.753 288.928 345.558C289.695 355.371 293.099 366.904 298.974 379.914C310.723 405.932 332.267 437.664 361.898 473.023C421.15 543.728 512.596 628.765 622.193 711.352C731.791 793.94 838.739 858.404 923.037 895.872C965.194 914.609 1001.63 926.572 1029.88 930.694C1044.01 932.756 1056.03 932.849 1065.68 930.881C1075.31 928.915 1082.51 924.908 1087.11 918.811C1091.7 912.714 1093.57 904.69 1092.8 894.885C1092.04 885.072 1088.63 873.539 1082.76 860.529C1071.01 834.511 1049.46 802.779 1019.83 767.42C960.58 696.715 869.135 611.678 759.537 529.091C649.94 446.503 542.992 382.04 458.693 344.572C416.537 325.834 380.096 313.872 351.847 309.749C337.722 307.688 325.697 307.595 316.053 309.562C306.417 311.528 299.218 315.535 294.624 321.632Z" stroke="#632C72" stroke-width="2"/>
<path opacity="0.931035" d="M271.595 353.623C267.55 360.097 266.388 368.253 268.006 377.954C269.625 387.663 274.022 398.855 281.008 411.304C294.98 436.199 319.208 465.932 351.808 498.574C416.997 563.846 515.506 640.589 631.884 713.31C748.263 786.031 860.422 840.929 947.665 870.907C991.295 885.899 1028.64 894.64 1057.14 896.285C1071.39 897.107 1083.38 896.152 1092.81 893.351C1102.24 890.553 1109.06 885.934 1113.11 879.459C1117.16 872.985 1118.32 864.829 1116.7 855.128C1115.08 845.419 1110.68 834.227 1103.7 821.779C1089.72 796.883 1065.5 767.15 1032.9 734.508C967.708 669.236 869.199 592.493 752.821 519.772C636.442 447.051 524.283 392.153 437.04 362.175C393.41 347.183 356.066 338.442 327.565 336.797C313.314 335.975 301.327 336.93 291.891 339.731C282.462 342.529 275.641 347.149 271.595 353.623Z" stroke="#632C72" stroke-width="2"/>
<path opacity="0.965517" d="M251.769 387.616C248.303 394.418 247.856 402.644 250.313 412.167C252.773 421.698 258.128 432.465 266.173 444.256C282.262 467.839 308.988 495.348 344.309 525.024C414.939 584.366 519.762 652.231 642.035 714.533C764.309 776.834 880.826 821.748 970.35 844.008C1015.12 855.14 1053.08 860.593 1081.62 859.748C1095.89 859.325 1107.75 857.329 1116.9 853.716C1126.05 850.107 1132.44 844.91 1135.91 838.108C1139.38 831.306 1139.82 823.08 1137.37 813.557C1134.91 804.026 1129.55 793.259 1121.51 781.467C1105.42 757.885 1078.69 730.376 1043.37 700.7C972.739 641.358 867.917 573.492 745.643 511.191C623.37 448.889 506.853 403.976 417.329 381.716C372.559 370.584 334.594 365.131 306.058 365.976C291.79 366.399 279.932 368.395 270.776 372.007C261.627 375.617 255.234 380.813 251.769 387.616Z" stroke="#632C72" stroke-width="2"/>
<path d="M235.306 423.321C232.446 430.399 232.718 438.633 235.996 447.906C239.277 457.186 245.55 467.445 254.592 478.491C272.675 500.582 301.697 525.656 339.471 552.141C415.004 605.102 525.342 663.573 652.58 714.98C779.819 766.388 899.807 800.975 990.93 815.348C1036.5 822.536 1074.8 824.659 1103.15 821.33C1117.33 819.665 1128.97 816.643 1137.77 812.247C1146.57 807.854 1152.49 802.12 1155.35 795.041C1158.21 787.963 1157.93 779.729 1154.66 770.456C1151.38 761.176 1145.1 750.917 1136.06 739.871C1117.98 717.78 1088.95 692.706 1051.18 666.221C975.648 613.26 865.31 554.789 738.072 503.382C610.833 451.974 490.845 417.387 399.722 403.014C354.152 395.826 315.857 393.703 287.503 397.032C273.326 398.697 261.687 401.719 252.88 406.115C244.081 410.508 238.166 416.242 235.306 423.321Z" stroke="#632C72" stroke-width="2"/>
</g>
</svg>
