<svg width="24" height="25" viewBox="0 0 24 25" fill="none" xmlns="http://www.w3.org/2000/svg">
<g id="lucide/phone">
<path id="Vector" d="M21.9999 16.988V19.988C22.0011 20.2665 21.944 20.5421 21.8324 20.7973C21.7209 21.0525 21.5572 21.2816 21.352 21.4698C21.1468 21.6581 20.9045 21.8015 20.6407 21.8907C20.3769 21.9799 20.0973 22.013 19.8199 21.988C16.7428 21.6536 13.7869 20.6021 11.1899 18.918C8.77376 17.3826 6.72527 15.3341 5.18993 12.918C3.49991 10.3092 2.44818 7.33896 2.11993 4.24797C2.09494 3.97144 2.12781 3.69273 2.21643 3.42959C2.30506 3.16646 2.4475 2.92466 2.6347 2.71959C2.82189 2.51452 3.04974 2.35068 3.30372 2.23849C3.55771 2.1263 3.83227 2.06823 4.10993 2.06797H7.10993C7.59524 2.06319 8.06572 2.23505 8.43369 2.5515C8.80166 2.86795 9.04201 3.30741 9.10993 3.78797C9.23656 4.74803 9.47138 5.69069 9.80993 6.59797C9.94448 6.95589 9.9736 7.34488 9.89384 7.71885C9.81408 8.09281 9.6288 8.43608 9.35993 8.70797L8.08993 9.97797C9.51349 12.4815 11.5864 14.5544 14.0899 15.978L15.3599 14.708C15.6318 14.4391 15.9751 14.2538 16.3491 14.1741C16.723 14.0943 17.112 14.1234 17.4699 14.258C18.3772 14.5965 19.3199 14.8313 20.2799 14.958C20.7657 15.0265 21.2093 15.2712 21.5265 15.6455C21.8436 16.0198 22.0121 16.4975 21.9999 16.988Z" stroke="white" stroke-width="2" stroke-linecap="round" stroke-linejoin="round"/>
</g>
</svg>
