<svg width="400" height="58" viewBox="0 0 400 58" fill="none" xmlns="http://www.w3.org/2000/svg">
<path d="M159.599 36.7818H9.18799V32.1841H159.599V36.7818Z" fill="#EF57BB"/>
<path d="M159.599 40.7213H9.18799V39.4077H159.599V40.7213Z" fill="#EF57BB"/>
<path d="M5.25445 38.7527H0V33.498H5.25445V38.7527Z" fill="#EF57BB"/>
<path d="M337.6 38.7527H332.346V33.498H337.6V38.7527Z" fill="#EF57BB"/>
<path d="M9.18799 43.355V45.3222L11.8111 43.355H9.18799Z" fill="#EF57BB"/>
<path d="M15.0995 43.355L9.18799 47.9528V50.5801L18.3836 43.355H15.0995Z" fill="#EF57BB"/>
<path d="M14.4394 51.8937H11.1553L21.0075 43.355H24.2916L14.4394 51.8937Z" fill="#EF57BB"/>
<path d="M20.3515 51.8937H17.0674L27.5763 43.355H30.8604L20.3515 51.8937Z" fill="#EF57BB"/>
<path d="M26.9213 51.8937H23.6372L33.4895 43.355H36.7735L26.9213 51.8937Z" fill="#EF57BB"/>
<path d="M32.8407 51.8937H29.5566L40.0655 43.355H43.3496L32.8407 51.8937Z" fill="#EF57BB"/>
<path d="M39.414 51.8937H36.1299L45.9821 43.355H49.2662L39.414 51.8937Z" fill="#EF57BB"/>
<path d="M45.3183 51.8937H42.0342L52.5435 43.355H55.8276L45.3183 51.8937Z" fill="#EF57BB"/>
<path d="M51.8988 51.8937H48.6147L59.1241 43.355H62.4081L51.8988 51.8937Z" fill="#EF57BB"/>
<path d="M58.4398 51.8937H54.499L65.0079 43.355H68.292L58.4398 51.8937Z" fill="#EF57BB"/>
<path d="M64.3598 51.8937H61.0757L71.5846 43.355H74.8687L64.3598 51.8937Z" fill="#EF57BB"/>
<path d="M70.9276 51.8937H67.6436L77.4958 43.355H80.7799L70.9276 51.8937Z" fill="#EF57BB"/>
<path d="M76.8485 51.8932H73.5645L84.0738 43.3545H87.3578L76.8485 51.8932Z" fill="#EF57BB"/>
<path d="M83.4042 51.8937H80.1201L89.9724 43.355H93.2565L83.4042 51.8937Z" fill="#EF57BB"/>
<path d="M89.3305 51.8937H86.0464L96.5553 43.355H99.8394L89.3305 51.8937Z" fill="#EF57BB"/>
<path d="M95.8847 51.8937H92.6006L102.453 43.355H106.394L95.8847 51.8937Z" fill="#EF57BB"/>
<path d="M101.8 51.8937H98.5156L109.025 43.355H112.309L101.8 51.8937Z" fill="#EF57BB"/>
<path d="M115.593 43.355L105.084 51.8937H108.368L115.593 45.3255V43.355Z" fill="#EF57BB"/>
<path d="M111.003 51.8872H114.945L115.601 51.2304V47.9463L111.003 51.8872Z" fill="#EF57BB"/>
<path d="M24.3091 9.85436H10.5161V7.22705H24.3091V9.85436Z" fill="#EF57BB"/>
<path d="M49.2704 9.85436H35.4771V7.22705H49.2704V9.85436Z" fill="#EF57BB"/>
<path d="M73.5601 9.85436H59.7671V7.22705H73.5601V9.85436Z" fill="#EF57BB"/>
<path d="M337.595 9.85436H323.802V7.22705H337.595V9.85436Z" fill="#EF57BB"/>
<path opacity="0.3" d="M357.964 36.1272C357.964 24.9612 367.159 15.7656 378.982 15.7656C390.804 15.7656 400 24.9612 400 36.1272C400 47.95 390.804 57.1455 378.982 57.1455C367.159 57.1455 357.964 47.95 357.964 36.1272Z" fill="#EF57BB"/>
<path fill-rule="evenodd" clip-rule="evenodd" d="M378.971 49.918C371.746 49.918 365.835 44.0066 365.835 36.1248C365.835 28.8997 371.746 22.9883 378.971 22.9883C386.196 22.9883 392.765 28.8997 392.765 36.1248C392.765 44.0066 386.196 49.918 378.971 49.918ZM378.971 27.586C374.374 27.586 370.433 31.527 370.433 36.1248C370.433 41.3793 374.374 45.3203 378.971 45.3203C383.569 45.3203 387.51 41.3793 387.51 36.1248C387.51 31.527 383.569 27.586 378.971 27.586Z" fill="#EF57BB"/>
<path fill-rule="evenodd" clip-rule="evenodd" d="M295.567 19.7047C290.313 19.7047 285.715 15.1069 285.715 9.85236C285.715 4.59777 290.313 0 295.567 0C301.478 0 306.076 4.59777 306.076 9.85236C306.076 15.1069 301.478 19.7047 295.567 19.7047ZM295.567 4.59775C292.94 4.59775 290.969 7.22506 290.969 9.85236C290.969 12.4797 292.94 15.107 295.567 15.107C298.851 15.107 300.822 12.4797 300.822 9.85236C300.822 7.22506 298.851 4.59775 295.567 4.59775Z" fill="#EF57BB"/>
<path fill-rule="evenodd" clip-rule="evenodd" d="M264.034 19.7047C258.779 19.7047 254.182 15.1069 254.182 9.85236C254.182 4.59777 258.779 0 264.034 0C269.945 0 274.543 4.59777 274.543 9.85236C274.543 15.1069 269.945 19.7047 264.034 19.7047ZM264.034 4.59775C261.407 4.59775 259.436 7.22506 259.436 9.85236C259.436 12.4797 261.407 15.107 264.034 15.107C267.318 15.107 269.289 12.4797 269.289 9.85236C269.289 7.22506 267.318 4.59775 264.034 4.59775Z" fill="#EF57BB"/>
<path fill-rule="evenodd" clip-rule="evenodd" d="M181.288 17.7286C176.69 17.7286 173.406 14.4445 173.406 9.84676C173.406 5.24899 176.69 1.96484 181.288 1.96484C185.885 1.96484 189.17 5.24899 189.17 9.84676C189.17 14.4445 185.885 17.7286 181.288 17.7286ZM181.288 2.62166C177.347 2.62166 174.063 5.90582 174.063 9.84676C174.063 13.7877 177.347 17.0718 181.288 17.0718C185.229 17.0718 188.512 13.7877 188.512 9.84676C188.512 5.90582 185.229 2.62166 181.288 2.62166Z" fill="#EF57BB"/>
</svg>
