<svg width="363" height="73" viewBox="0 0 363 73" fill="none" xmlns="http://www.w3.org/2000/svg">
<path fill-rule="evenodd" clip-rule="evenodd" d="M38.2609 54.939C38.2609 51.204 41.0661 48.189 44.5412 48.189C47.807 48.189 50.4866 50.889 50.7797 54.309H230.355L271.302 10.344H449.202V11.244H271.637L230.731 55.209H50.8216C50.696 58.809 47.9326 61.689 44.5412 61.689C41.0661 61.689 38.2609 58.674 38.2609 54.939ZM39.0983 54.939C39.0983 58.179 41.5267 60.789 44.5412 60.789C47.5558 60.789 49.9842 58.179 49.9842 54.939C49.9842 51.699 47.5558 49.089 44.5412 49.089C41.5267 49.089 39.0983 51.699 39.0983 54.939Z" fill="#02D7F2"/>
<path fill-rule="evenodd" clip-rule="evenodd" d="M0.904968 6.75394C0.904968 3.01894 3.71014 0.0039444 7.18524 0.0039444C10.5347 0.0039444 13.2981 2.88396 13.4656 6.43896H194.255L220.632 34.789H532.009V35.689H220.255L193.92 7.33897H13.4237C13.1725 10.804 10.451 13.5039 7.18524 13.5039C3.71014 13.5039 0.904968 10.4889 0.904968 6.75394ZM1.74231 6.75394C1.74231 9.99394 4.17072 12.6039 7.18524 12.6039C10.1998 12.6039 12.6282 9.99394 12.6282 6.75394C12.6282 3.51394 10.1998 0.903942 7.18524 0.903942C4.17072 0.903942 1.74231 3.51394 1.74231 6.75394Z" fill="#02D7F2"/>
<path fill-rule="evenodd" clip-rule="evenodd" d="M519.914 65.939C519.914 69.674 517.109 72.689 513.634 72.689C510.452 72.689 507.856 70.169 507.437 66.884V67.019H297.047L268.325 36.149H136.187V35.249H268.66L297.382 66.119H507.353C507.353 66.059 507.353 65.999 507.353 65.939C507.353 62.204 510.159 59.189 513.634 59.189C517.109 59.189 519.914 62.204 519.914 65.939ZM519.077 65.939C519.077 62.699 516.648 60.089 513.634 60.089C510.619 60.089 508.191 62.699 508.191 65.939C508.191 69.179 510.619 71.789 513.634 71.789C516.648 71.789 519.077 69.179 519.077 65.939Z" fill="#02D7F2"/>
</svg>
