<svg width="47" height="53" viewBox="0 0 47 53" fill="none" xmlns="http://www.w3.org/2000/svg">
<g clip-path="url(#clip0_828_858)">
<g clip-path="url(#clip1_828_858)">
<g clip-path="url(#clip2_828_858)">
<g clip-path="url(#clip3_828_858)">
<path fill-rule="evenodd" clip-rule="evenodd" d="M24.7233 38.8937C24.7233 36.2493 26.5498 34.1146 28.8124 34.1146C30.9388 34.1146 32.6835 36.0263 32.8743 38.4477H149.797L176.458 7.31975H292.29V7.95697H176.676L150.042 39.0849H32.9016C32.8198 41.6338 31.0206 43.6729 28.8124 43.6729C26.5498 43.6729 24.7233 41.5382 24.7233 38.8937ZM25.2685 38.8937C25.2685 41.1877 26.8496 43.0356 28.8124 43.0356C30.7752 43.0356 32.3564 41.1877 32.3564 38.8937C32.3564 36.5998 30.7752 34.7518 28.8124 34.7518C26.8496 34.7518 25.2685 36.5998 25.2685 38.8937Z" fill="#02D7F2"/>
<path fill-rule="evenodd" clip-rule="evenodd" d="M0.402813 4.77916C0.402813 2.13472 2.2293 5.05118e-05 4.49196 5.05118e-05C6.67284 5.05118e-05 8.47207 2.03915 8.58111 4.55615H126.294L143.468 24.6284H346.208V25.2656H143.223L126.076 5.19337H8.55386C8.39029 7.64664 6.61832 9.55827 4.49196 9.55827C2.2293 9.55827 0.402813 7.4236 0.402813 4.77916ZM0.948033 4.77916C0.948033 7.07313 2.52917 8.92105 4.49196 8.92105C6.45475 8.92105 8.03589 7.07313 8.03589 4.77916C8.03589 2.48519 6.45475 0.637265 4.49196 0.637265C2.52917 0.637265 0.948033 2.48519 0.948033 4.77916Z" fill="#02D7F2"/>
</g>
</g>
</g>
</g>
<defs>
<clipPath id="clip0_828_858">
<rect width="47" height="53" fill="white"/>
</clipPath>
<clipPath id="clip1_828_858">
<rect width="390" height="53" fill="white" transform="translate(-343)"/>
</clipPath>
<clipPath id="clip2_828_858">
<rect width="987.611" height="51.4612" fill="white" transform="translate(-641.403)"/>
</clipPath>
<clipPath id="clip3_828_858">
<rect width="345.806" height="51.4612" fill="white" transform="matrix(-1 0 0 -1 346.208 51.4614)"/>
</clipPath>
</defs>
</svg>
