<svg width="25" height="17" viewBox="0 0 25 17" fill="none" xmlns="http://www.w3.org/2000/svg">
<g id="SVG">
<path id="Vector" d="M3.45764 1.24316C2.28806 1.24316 1.3981 2.39187 1.72049 3.52285C2.55933 6.46922 3.80402 9.35508 5.6622 11.6243C7.51933 13.8925 10.0327 15.5368 13.2462 15.8634C14.3156 15.9719 15.2379 15.1007 15.2379 14.0428V11.9321C15.2379 11.7996 15.3276 11.7068 15.4299 11.7026H15.4737C15.843 11.7026 16.6005 12.1648 17.2682 12.8836C17.8511 13.5295 18.3664 14.2332 18.8061 14.9839C19.1264 15.541 19.7242 15.878 20.3596 15.878H22.9012C24.1678 15.878 25.015 14.4486 24.3952 13.3406C23.4229 11.6014 21.4823 9.87988 20.5109 9.02121C22.2898 7.06914 23.4688 4.94178 23.9904 3.53015C24.3848 2.46386 23.5731 1.26403 22.4254 1.26403H20.6121C19.8234 1.26403 19.0889 1.64798 18.7873 2.26354C17.3736 5.15775 16.1154 6.22091 15.2285 6.98567V3.05961C15.2285 2.07887 14.4147 1.27238 13.4392 1.27029L10.2623 1.26507C9.25022 1.26403 8.62318 2.51394 9.22936 3.32461L9.84284 4.14572V4.1478C9.94926 4.28657 10.0046 4.4535 10.0046 4.62461L10.0171 7.90067C8.75151 6.56625 7.37848 3.74195 6.96428 2.48264V2.4816C6.84452 2.12325 6.61544 1.81145 6.30927 1.59005C6.00309 1.36865 5.63522 1.2488 5.25739 1.24734L3.45764 1.24316ZM3.45764 2.80816L5.25321 2.81234C5.36381 2.81234 5.44519 2.87285 5.47753 2.97197C5.99189 4.53697 7.3451 7.51777 9.05825 9.1871C9.50271 9.62009 10.1569 9.70877 10.6629 9.50323C11.1689 9.29665 11.581 8.76455 11.581 8.13855L11.5685 4.62461C11.5685 4.11337 11.4016 3.61466 11.0938 3.20672V3.20567L10.8121 2.83216L13.4361 2.83633C13.5738 2.83633 13.6635 2.92606 13.6635 3.06065V7.02427C13.6635 8.29505 15.263 9.02434 16.2249 8.19489H16.2259C17.1076 7.43326 18.6673 6.0738 20.1927 2.94901C20.2282 2.87598 20.1969 2.82799 20.6111 2.82799H22.4265C22.5308 2.82799 22.5621 2.87807 22.5225 2.98553C22.079 4.18536 20.947 6.27516 19.2673 8.0843C18.7498 8.64248 18.7706 9.56375 19.3559 10.0812C20.2741 10.893 22.2752 12.7543 23.0285 14.1033C23.0984 14.2264 23.0462 14.312 22.9033 14.312H20.3596C20.3198 14.3131 20.2804 14.3036 20.2455 14.2843C20.2106 14.2651 20.1816 14.2368 20.1614 14.2024C19.6662 13.3478 19.081 12.5486 18.4159 11.8184C17.6292 10.9702 16.6944 10.1365 15.4737 10.1365H15.3871C14.4158 10.1647 13.6729 10.9889 13.6729 11.9311V14.0417C13.6729 14.2045 13.5477 14.3203 13.4037 14.3057C10.6264 14.024 8.53345 12.6593 6.87247 10.6321C5.21252 8.60492 4.02625 5.90582 3.22497 3.09404C3.18011 2.93754 3.27714 2.80816 3.45764 2.80816Z" fill="white"/>
</g>
</svg>
