<svg width="400" height="58" viewBox="0 0 400 58" fill="none" xmlns="http://www.w3.org/2000/svg">
<path d="M256.814 36.7847H9.19434V32.187H256.814V36.7847Z" fill="#EF57BB"/>
<path d="M256.814 40.7233H9.19434V39.4097H256.814V40.7233Z" fill="#EF57BB"/>
<path d="M5.25444 38.7546H0V33.5H5.25444V38.7546Z" fill="#EF57BB"/>
<path d="M337.601 38.7546H332.347V33.5H337.601V38.7546Z" fill="#EF57BB"/>
<path d="M9.19434 43.3545V45.3217L11.8174 43.3545H9.19434Z" fill="#EF57BB"/>
<path d="M15.1058 43.3545L9.19434 47.9523V50.5795L18.3899 43.3545H15.1058Z" fill="#EF57BB"/>
<path d="M14.4413 51.8932H11.1572L21.0095 43.3545H24.2935L14.4413 51.8932Z" fill="#EF57BB"/>
<path d="M20.3524 51.8932H17.0684L27.5772 43.3545H30.8613L20.3524 51.8932Z" fill="#EF57BB"/>
<path d="M26.9247 51.8932H23.6406L33.4928 43.3545H36.7769L26.9247 51.8932Z" fill="#EF57BB"/>
<path d="M32.8378 51.8932H29.5537L40.0626 43.3545H43.3467L32.8378 51.8932Z" fill="#EF57BB"/>
<path d="M39.412 51.8932H36.1279L45.9802 43.3545H49.2642L39.412 51.8932Z" fill="#EF57BB"/>
<path d="M45.3183 51.8932H42.0342L52.5435 43.3545H55.8275L45.3183 51.8932Z" fill="#EF57BB"/>
<path d="M51.8944 51.8932H48.6104L59.1196 43.3545H62.4037L51.8944 51.8932Z" fill="#EF57BB"/>
<path d="M58.4456 51.8932H54.5049L65.0138 43.3545H68.2978L58.4456 51.8932Z" fill="#EF57BB"/>
<path d="M64.3622 51.8932H61.0781L71.587 43.3545H74.8711L64.3622 51.8932Z" fill="#EF57BB"/>
<path d="M70.9267 51.8932H67.6426L77.4948 43.3545H80.7789L70.9267 51.8932Z" fill="#EF57BB"/>
<path d="M76.8476 51.8932H73.5635L84.0728 43.3545H87.3568L76.8476 51.8932Z" fill="#EF57BB"/>
<path d="M83.4042 51.8932H80.1201L89.9723 43.3545H93.2564L83.4042 51.8932Z" fill="#EF57BB"/>
<path d="M89.33 51.8932H86.0459L96.5548 43.3545H99.8389L89.33 51.8932Z" fill="#EF57BB"/>
<path d="M95.8866 51.8932H92.6025L102.455 43.3545H106.395L95.8866 51.8932Z" fill="#EF57BB"/>
<path d="M101.801 51.8932H98.5166L109.025 43.3545H112.31L101.801 51.8932Z" fill="#EF57BB"/>
<path d="M115.597 43.3545L105.088 51.8932H108.372L115.597 45.325V43.3545Z" fill="#EF57BB"/>
<path d="M111.002 51.8876H114.943L115.6 51.2309V47.9468L111.002 51.8876Z" fill="#EF57BB"/>
<path d="M24.3056 9.85537H10.5127V7.22803H24.3056V9.85537Z" fill="#EF57BB"/>
<path d="M49.2689 9.85537H35.4756V7.22803H49.2689V9.85537Z" fill="#EF57BB"/>
<path d="M73.5605 9.85537H59.7676V7.22803H73.5605V9.85537Z" fill="#EF57BB"/>
<path d="M337.596 9.85537H323.803V7.22803H337.596V9.85537Z" fill="#EF57BB"/>
<path opacity="0.3" d="M357.965 36.1276C357.965 24.9616 367.16 15.7661 378.983 15.7661C390.805 15.7661 400.001 24.9616 400.001 36.1276C400.001 47.9503 390.805 57.1458 378.983 57.1458C367.16 57.1458 357.965 47.9503 357.965 36.1276Z" fill="#EF57BB"/>
<path fill-rule="evenodd" clip-rule="evenodd" d="M378.976 49.9183C371.751 49.9183 365.84 44.007 365.84 36.1252C365.84 28.9001 371.751 22.9888 378.976 22.9888C386.201 22.9888 392.769 28.9001 392.769 36.1252C392.769 44.007 386.201 49.9183 378.976 49.9183ZM378.976 27.5865C374.378 27.5865 370.438 31.5274 370.438 36.1252C370.438 41.3797 374.378 45.3206 378.976 45.3206C383.574 45.3206 387.515 41.3797 387.515 36.1252C387.515 31.5274 383.574 27.5865 378.976 27.5865Z" fill="#EF57BB"/>
<path fill-rule="evenodd" clip-rule="evenodd" d="M295.567 19.7046C290.313 19.7046 285.715 15.1068 285.715 9.85229C285.715 4.59774 290.313 0 295.567 0C301.478 0 306.076 4.59774 306.076 9.85229C306.076 15.1068 301.478 19.7046 295.567 19.7046ZM295.567 4.59772C292.94 4.59772 290.969 7.22501 290.969 9.85229C290.969 12.4796 292.94 15.1069 295.567 15.1069C298.851 15.1069 300.822 12.4796 300.822 9.85229C300.822 7.22501 298.851 4.59772 295.567 4.59772Z" fill="#EF57BB"/>
<path fill-rule="evenodd" clip-rule="evenodd" d="M264.035 19.7046C258.78 19.7046 254.183 15.1068 254.183 9.85229C254.183 4.59774 258.78 0 264.035 0C269.946 0 274.544 4.59774 274.544 9.85229C274.544 15.1068 269.946 19.7046 264.035 19.7046ZM264.035 4.59772C261.408 4.59772 259.437 7.22501 259.437 9.85229C259.437 12.4796 261.408 15.1069 264.035 15.1069C267.319 15.1069 269.29 12.4796 269.29 9.85229C269.29 7.22501 267.319 4.59772 264.035 4.59772Z" fill="#EF57BB"/>
<path fill-rule="evenodd" clip-rule="evenodd" d="M181.289 17.7304C176.691 17.7304 173.407 14.4463 173.407 9.84861C173.407 5.25087 176.691 1.9668 181.289 1.9668C185.887 1.9668 189.171 5.25087 189.171 9.84861C189.171 14.4463 185.887 17.7304 181.289 17.7304ZM181.289 2.62356C177.348 2.62356 174.064 5.90769 174.064 9.84861C174.064 13.7895 177.348 17.0736 181.289 17.0736C185.23 17.0736 188.514 13.7895 188.514 9.84861C188.514 5.90769 185.23 2.62356 181.289 2.62356Z" fill="#EF57BB"/>
</svg>
