<svg width="128" height="129" viewBox="0 0 128 129" fill="none" xmlns="http://www.w3.org/2000/svg">
<g id="users-solid">
<path id="Vector" d="M18.2771 78.372L20.8102 76.6561L18.6239 74.5158C16.0907 72.0359 14.5 68.6479 14.5 64.9272C14.5 57.5111 20.5838 51.4272 28 51.4272C35.4162 51.4272 41.5 57.5111 41.5 64.9272C41.5 68.6479 39.9093 72.0359 37.3761 74.5158L35.1898 76.6561L37.7229 78.372C41.7412 81.0942 44.5938 85.4498 45.3191 90.4272H42.2886C41.1156 83.5807 35.1993 78.4272 28 78.4272C20.8007 78.4272 14.8844 83.5807 13.7114 90.4272H10.6809C11.4062 85.4498 14.2588 81.0942 18.2771 78.372ZM49.3057 95.4272H50.5V93.7917C51.5836 92.4782 52.8486 91.3363 54.2737 90.3744L56.8139 88.6597L54.6239 86.5158C52.0907 84.0359 50.5 80.6479 50.5 76.9272C50.5 69.5111 56.5838 63.4272 64 63.4272C71.4162 63.4272 77.5 69.5111 77.5 76.9272C77.5 80.6479 75.9093 84.0359 73.3761 86.5158L71.1861 88.6597L73.7263 90.3744C75.1514 91.3363 76.4164 92.4782 77.5 93.7917V95.4272H78.6943C80.031 97.5029 80.9498 99.8911 81.3188 102.427H78.2886C77.1156 95.5807 71.1993 90.4272 64 90.4272C56.8007 90.4272 50.8844 95.5807 49.7114 102.427H46.6812C47.0502 99.8911 47.969 97.5029 49.3057 95.4272ZM82.6809 90.4272C83.4062 85.4498 86.2588 81.0942 90.2771 78.372L92.8102 76.6561L90.6239 74.5158C88.0907 72.0359 86.5 68.6479 86.5 64.9272C86.5 57.5111 92.5838 51.4272 100 51.4272C107.416 51.4272 113.5 57.5111 113.5 64.9272C113.5 68.6479 111.909 72.0359 109.376 74.5158L107.19 76.6561L109.723 78.372C113.741 81.0942 116.594 85.4498 117.319 90.4272H114.289C113.116 83.5807 107.199 78.4272 100 78.4272C92.8007 78.4272 86.8844 83.5807 85.7114 90.4272H82.6809ZM34.5 38.9272C34.5 32.6205 39.6932 27.4272 46 27.4272C52.3068 27.4272 57.5 32.6205 57.5 38.9272C57.5 45.234 52.3068 50.4272 46 50.4272C39.6932 50.4272 34.5 45.234 34.5 38.9272ZM70.5 38.9272C70.5 32.6205 75.6932 27.4272 82 27.4272C88.3068 27.4272 93.5 32.6205 93.5 38.9272C93.5 45.234 88.3068 50.4272 82 50.4272C75.6932 50.4272 70.5 45.234 70.5 38.9272ZM54.5 38.9272C54.5 34.1872 50.7401 30.4272 46 30.4272C41.2599 30.4272 37.5 34.1872 37.5 38.9272C37.5 43.6673 41.2599 47.4272 46 47.4272C50.7401 47.4272 54.5 43.6673 54.5 38.9272ZM90.5 38.9272C90.5 34.1872 86.7401 30.4272 82 30.4272C77.2599 30.4272 73.5 34.1872 73.5 38.9272C73.5 43.6673 77.2599 47.4272 82 47.4272C86.7401 47.4272 90.5 43.6673 90.5 38.9272ZM38.5 64.9272C38.5 59.0778 33.8495 54.4272 28 54.4272C22.1505 54.4272 17.5 59.0778 17.5 64.9272C17.5 70.7767 22.1505 75.4272 28 75.4272C33.8495 75.4272 38.5 70.7767 38.5 64.9272ZM110.5 64.9272C110.5 59.0778 105.849 54.4272 100 54.4272C94.1505 54.4272 89.5 59.0778 89.5 64.9272C89.5 70.7767 94.1505 75.4272 100 75.4272C105.849 75.4272 110.5 70.7767 110.5 64.9272ZM74.5 76.9272C74.5 71.0778 69.8495 66.4272 64 66.4272C58.1505 66.4272 53.5 71.0778 53.5 76.9272C53.5 82.7767 58.1505 87.4272 64 87.4272C69.8495 87.4272 74.5 82.7767 74.5 76.9272Z" stroke="#E334DA" stroke-width="5"/>
</g>
</svg>
