<svg width="186" height="129" viewBox="0 0 186 129" fill="none" xmlns="http://www.w3.org/2000/svg">
<path d="M184.859 11.3064C181.771 5.96014 163.937 9.94395 139.072 20.4122C119.158 -0.557137 86.8024 -6.00753 60.6456 9.07924C34.4943 24.1715 23.0395 54.9032 31.2529 82.6198C9.75031 98.9049 -2.61897 112.35 0.469247 117.696C3.55746 123.043 21.3913 119.059 46.2558 108.591C66.1705 129.555 98.5256 135.01 124.682 119.918C150.834 104.826 162.288 74.0941 154.075 46.3776C175.578 30.0924 187.952 16.6473 184.864 11.301L184.859 11.3064ZM21.7143 105.444C20.4166 103.195 25.1585 97.712 34.1056 90.3848C35.0255 92.4532 36.0549 94.4943 37.2102 96.5026C38.371 98.5054 39.625 100.421 40.9555 102.248C30.1358 106.331 23.012 107.693 21.7143 105.444ZM43.5509 92.8417C42.204 90.5106 41.054 88.1247 40.0739 85.7005C39.0445 83.1505 38.2122 80.5622 37.5715 77.9465C35.2773 68.5782 35.4525 58.9143 37.8837 49.8305C41.6454 35.8108 50.7348 23.2467 64.3088 15.416C77.8827 7.58538 93.3074 6.00387 107.341 9.7523C116.425 12.1874 124.89 16.8662 131.861 23.5368C133.805 25.3973 135.634 27.4111 137.325 29.5781C138.935 31.6411 140.43 33.8298 141.777 36.1555C143.124 38.4867 144.268 40.8725 145.254 43.2967C133.471 52.2164 116.934 63.0567 98.1094 73.9189C79.2844 84.7812 61.6202 93.6735 48.0025 99.4138C46.3927 97.3508 44.8979 95.1619 43.5509 92.8363V92.8417ZM147.444 79.1723C143.683 93.192 134.593 105.756 121.019 113.587C107.445 121.417 92.0151 122.999 77.9867 119.25C68.9028 116.815 60.4375 112.137 53.4671 105.466C68.0869 98.9323 84.6833 90.4559 101.909 80.5184C119.141 70.5755 134.779 60.4519 147.751 51.0617C150.045 60.43 149.87 70.094 147.439 79.1778L147.444 79.1723ZM151.228 38.6235C150.308 36.555 149.279 34.5139 148.123 32.5111C146.968 30.5083 145.708 28.593 144.378 26.7653C155.198 22.6831 162.321 21.3205 163.619 23.5695C164.917 25.8131 160.175 31.3017 151.228 38.6235Z" fill="white"/>
</svg>
