<svg width="400" height="58" viewBox="0 0 400 58" fill="none" xmlns="http://www.w3.org/2000/svg">
<path d="M216 37H9V32H216V37Z" fill="#EF57BB"/>
<path d="M216 41H9V39H216V41Z" fill="#EF57BB"/>
<path d="M5.25444 39.4114H0V34.1567H5.25444V39.4114Z" fill="#EF57BB"/>
<path d="M337.601 39.4114H332.347V34.1567H337.601V39.4114Z" fill="#EF57BB"/>
<path d="M9.19434 43.3491V45.9721L11.8174 43.3491H9.19434Z" fill="#EF57BB"/>
<path d="M15.1058 43.3491L9.19434 48.6037V51.2311L18.3899 43.3491H15.1058Z" fill="#EF57BB"/>
<path d="M14.4413 52.5447H11.1572L21.0094 43.3491H24.2935L14.4413 52.5447Z" fill="#EF57BB"/>
<path d="M20.3524 52.5447H17.0684L27.5772 43.3491H30.8613L20.3524 52.5447Z" fill="#EF57BB"/>
<path d="M26.9247 52.5447H23.6406L33.4928 43.3491H36.7769L26.9247 52.5447Z" fill="#EF57BB"/>
<path d="M32.8378 52.5447H29.5537L40.0626 43.3491H43.3467L32.8378 52.5447Z" fill="#EF57BB"/>
<path d="M39.412 52.5447H36.1279L45.9801 43.3491H49.2642L39.412 52.5447Z" fill="#EF57BB"/>
<path d="M45.3183 52.5447H42.0342L52.5435 43.3491H55.8275L45.3183 52.5447Z" fill="#EF57BB"/>
<path d="M51.8944 52.5447H48.6104L59.1196 43.3491H62.4037L51.8944 52.5447Z" fill="#EF57BB"/>
<path d="M58.4456 52.5447H54.5049L65.0138 43.3491H68.2978L58.4456 52.5447Z" fill="#EF57BB"/>
<path d="M64.3622 52.5447H61.0781L71.587 43.3491H74.8711L64.3622 52.5447Z" fill="#EF57BB"/>
<path d="M70.9267 52.5447H67.6426L77.4948 43.3491H80.7789L70.9267 52.5447Z" fill="#EF57BB"/>
<path d="M76.8476 52.5447H73.5635L84.0728 43.3491H87.3568L76.8476 52.5447Z" fill="#EF57BB"/>
<path d="M83.4042 52.5447H80.1201L89.9723 43.3491H93.2564L83.4042 52.5447Z" fill="#EF57BB"/>
<path d="M89.328 52.5447H86.0439L96.5528 43.3491H99.8369L89.328 52.5447Z" fill="#EF57BB"/>
<path d="M95.8866 52.5447H92.6025L102.455 43.3491H106.395L95.8866 52.5447Z" fill="#EF57BB"/>
<path d="M101.801 52.5447H98.5166L109.025 43.3491H112.31L101.801 52.5447Z" fill="#EF57BB"/>
<path d="M115.597 43.3491L105.088 52.5447H108.372L115.597 45.9764V43.3491Z" fill="#EF57BB"/>
<path d="M111.002 52.5509H114.943L115.6 51.2372V48.6099L111.002 52.5509Z" fill="#EF57BB"/>
<path d="M24.3056 10.5117H10.5127V7.88428H24.3056V10.5117Z" fill="#EF57BB"/>
<path d="M49.268 10.5117H35.4746V7.88428H49.268V10.5117Z" fill="#EF57BB"/>
<path d="M73.5605 10.5117H59.7676V7.88428H73.5605V10.5117Z" fill="#EF57BB"/>
<path d="M337.596 10.5117H323.803V7.88428H337.596V10.5117Z" fill="#EF57BB"/>
<path opacity="0.3" d="M357.965 36.7838C357.965 24.9608 367.16 15.7651 378.983 15.7651C390.805 15.7651 400.001 24.9608 400.001 36.7838C400.001 47.9499 390.805 57.8023 378.983 57.8023C367.16 57.8023 357.965 47.9499 357.965 36.7838Z" fill="#EF57BB"/>
<path fill-rule="evenodd" clip-rule="evenodd" d="M378.975 49.9193C371.75 49.9193 365.839 44.0078 365.839 36.7827C365.839 29.5576 371.75 22.9893 378.975 22.9893C386.2 22.9893 392.769 29.5576 392.769 36.7827C392.769 44.0078 386.2 49.9193 378.975 49.9193ZM378.975 28.2439C374.377 28.2439 370.437 32.1849 370.437 36.7827C370.437 41.3805 374.377 45.3214 378.975 45.3214C383.573 45.3214 387.514 41.3805 387.514 36.7827C387.514 32.1849 383.573 28.2439 378.975 28.2439Z" fill="#EF57BB"/>
<path fill-rule="evenodd" clip-rule="evenodd" d="M295.566 20.3618C290.312 20.3618 285.714 15.764 285.714 10.5093C285.714 4.59785 290.312 0 295.566 0C301.477 0 306.075 4.59785 306.075 10.5093C306.075 15.764 301.477 20.3618 295.566 20.3618ZM295.566 5.25466C292.939 5.25466 290.968 7.22517 290.968 10.5093C290.968 13.1366 292.939 15.1071 295.566 15.1071C298.85 15.1071 300.821 13.1366 300.821 10.5093C300.821 7.22517 298.85 5.25466 295.566 5.25466Z" fill="#EF57BB"/>
<path fill-rule="evenodd" clip-rule="evenodd" d="M264.035 20.3618C258.78 20.3618 254.183 15.764 254.183 10.5093C254.183 4.59785 258.78 0 264.035 0C269.946 0 274.544 4.59785 274.544 10.5093C274.544 15.764 269.946 20.3618 264.035 20.3618ZM264.035 5.25466C261.408 5.25466 259.437 7.22517 259.437 10.5093C259.437 13.1366 261.408 15.1071 264.035 15.1071C267.319 15.1071 269.29 13.1366 269.29 10.5093C269.29 7.22517 267.319 5.25466 264.035 5.25466Z" fill="#EF57BB"/>
<path fill-rule="evenodd" clip-rule="evenodd" d="M181.289 18.3875C176.691 18.3875 173.407 14.4466 173.407 10.5056C173.407 5.9078 176.691 1.9668 181.289 1.9668C185.887 1.9668 189.171 5.9078 189.171 10.5056C189.171 14.4466 185.887 18.3875 181.289 18.3875ZM181.289 3.28044C177.348 3.28044 174.064 6.56462 174.064 10.5056C174.064 13.7898 177.348 17.0739 181.289 17.0739C185.23 17.0739 188.514 13.7898 188.514 10.5056C188.514 6.56462 185.23 3.28044 181.289 3.28044Z" fill="#EF57BB"/>
</svg>
